<svg xmlns="http://www.w3.org/2000/svg" xmlns:xlink="http://www.w3.org/1999/xlink" width="445" height="211" viewBox="0 0 445 211"><defs><style>.a{fill:#fff;}.b,.c,.d{fill:#0f72ee;}.c{font-size:14px;font-family:Poppins-Medium, Poppins;font-weight:500;}.d{font-size:8px;font-family:Poppins-Regular, Poppins;}.e{filter:url(#a);}</style><filter id="a" x="0" y="0" width="445" height="211" filterUnits="userSpaceOnUse"><feOffset dy="6" input="SourceAlpha"/><feGaussianBlur stdDeviation="21" result="b"/><feFlood flood-opacity="0.161"/><feComposite operator="in" in2="b"/><feComposite in="SourceGraphic"/></filter></defs><g transform="translate(62.54 56.884)"><g class="e" transform="matrix(1, 0, 0, 1, -62.54, -56.88)"><rect class="a" width="319" height="85" rx="20" transform="translate(63 57)"/></g><g transform="translate(23.509 18.398)"><circle class="b" cx="26.5" cy="26.5" r="26.5" transform="translate(-0.048 -0.282)"/><g transform="translate(11.562 15.404)"><path class="a" d="M403.27,352.25a5.54,5.54,0,1,1,5.515-5.542v1.173h-8.468a3.168,3.168,0,0,0,4.971,1.285l.215-.179,1.8,1.52-.274.259A5.481,5.481,0,0,1,403.27,352.25Zm2.952-6.719a3.169,3.169,0,0,0-5.905,0Z" transform="translate(-394.412 -337.806)"/><path class="a" d="M703.687,352.106a5.548,5.548,0,1,1,5.515-5.543v1.176h-8.466a3.168,3.168,0,0,0,4.971,1.285l.215-.179,1.8,1.519-.277.26A5.478,5.478,0,0,1,703.687,352.106Zm2.952-6.719a3.17,3.17,0,0,0-5.9,0Z" transform="translate(-683.038 -337.662)"/><path class="a" d="M313.777,277.308a1.34,1.34,0,0,1-1.337-1.344V264.744a8.891,8.891,0,0,1,8.857-8.9H333.09a8.9,8.9,0,0,1,0,17.8H321.537a.664.664,0,0,0-.3.07l-6.86,3.444a1.321,1.321,0,0,1-.6.148Zm7.52-19.115a6.542,6.542,0,0,0-6.518,6.551v9.589l5.409-2.719a3.008,3.008,0,0,1,1.349-.319H333.09a6.551,6.551,0,0,0,0-13.1Z" transform="translate(-312.44 -255.842)"/></g></g><g transform="translate(95.056 23.508)"><g transform="translate(0 0)"><text class="c" transform="translate(0.405 14.608)"><tspan x="0" y="0">Ticket raised successfully!</tspan></text><text class="d" transform="translate(0.405 34.607)"><tspan x="0" y="0">2:24 PM</tspan></text></g></g></g></svg>