<svg xmlns="http://www.w3.org/2000/svg" width="84.961" height="84.961" viewBox="0 0 84.961 84.961"><defs><style>.a{fill:#fff9dd;}.b{fill:#ffd200;}</style></defs><path class="a" d="M69.031,84.961H15.93A15.929,15.929,0,0,1,0,69.031V15.93A15.929,15.929,0,0,1,15.93,0h53.1a15.929,15.929,0,0,1,15.93,15.93v53.1A15.929,15.929,0,0,1,69.031,84.961Zm0,0"/><path class="b" d="M158.141,138.672a19.469,19.469,0,1,0,19.469,19.469A19.491,19.491,0,0,0,158.141,138.672Zm-.672,18.142h1.346a3.757,3.757,0,0,1,.653,7.456v1.394a1.328,1.328,0,1,1-2.655,0v-1.328h-1.771a1.328,1.328,0,1,1,0-2.655h3.77a1.106,1.106,0,0,0,0-2.212h-1.346a3.757,3.757,0,0,1-.653-7.456v-1.394a1.328,1.328,0,0,1,2.655,0v1.328h1.771a1.328,1.328,0,0,1,0,2.655h-3.77a1.106,1.106,0,0,0,0,2.212Zm0,0" transform="translate(-115.661 -115.661)"/></svg>