<svg xmlns="http://www.w3.org/2000/svg" width="267.15" height="319.225" viewBox="0 0 267.15 319.225"><g transform="translate(-236 -586.913)"><circle cx="42" cy="42" r="42" transform="translate(236 822.138)" fill="#fafcff"/><ellipse cx="37" cy="38" rx="37" ry="38" transform="translate(384 715.138)" fill="#fafcff"/><ellipse cx="25.5" cy="25" rx="25.5" ry="25" transform="translate(265 674.138)" fill="#fafcff"/><circle cx="15.5" cy="15.5" r="15.5" transform="translate(340 594.138)" fill="#fafcff"/><g transform="translate(252.418 587.913)"><g transform="translate(0)"><g transform="translate(39.581 24.225)" fill="#fafcff" stroke="#0f72ee" stroke-width="2"><path d="M4,0H65a4,4,0,0,1,4,4V150a0,0,0,0,1,0,0H0a0,0,0,0,1,0,0V4A4,4,0,0,1,4,0Z" stroke="none"/><path d="M4,1H65a3,3,0,0,1,3,3V148a1,1,0,0,1-1,1H2a1,1,0,0,1-1-1V4A3,3,0,0,1,4,1Z" fill="none"/></g><g transform="translate(101.581 92.225)" fill="#edf4ff" stroke="#0f72ee" stroke-width="2"><path d="M4,0H45a4,4,0,0,1,4,4V19a0,0,0,0,1,0,0H0a0,0,0,0,1,0,0V4A4,4,0,0,1,4,0Z" stroke="none"/><path d="M4,1H45a3,3,0,0,1,3,3V17a1,1,0,0,1-1,1H2a1,1,0,0,1-1-1V4A3,3,0,0,1,4,1Z" fill="none"/></g><g transform="translate(19.581 167.225)" fill="#f2f7ff" stroke="#0f72ee" stroke-width="2"><path d="M4,0H85a4,4,0,0,1,4,4V117a0,0,0,0,1,0,0H0a0,0,0,0,1,0,0V4A4,4,0,0,1,4,0Z" stroke="none"/><path d="M4,1H85a3,3,0,0,1,3,3V115a1,1,0,0,1-1,1H2a1,1,0,0,1-1-1V4A3,3,0,0,1,4,1Z" fill="none"/></g><g transform="translate(81.581 109.225)" fill="#edf4ff" stroke="#0f72ee" stroke-width="2"><path d="M4,0H84a4,4,0,0,1,4,4V175a0,0,0,0,1,0,0H0a0,0,0,0,1,0,0V4A4,4,0,0,1,4,0Z" stroke="none"/><path d="M4,1H84a3,3,0,0,1,3,3V173a1,1,0,0,1-1,1H2a1,1,0,0,1-1-1V4A3,3,0,0,1,4,1Z" fill="none"/></g><g transform="translate(159.952 159.952)" fill="#fafcff"><path d="M 23.73523902893066 96.00276947021484 C 20.66561317443848 96.00276947021484 17.68830680847168 95.40178680419922 14.88603973388672 94.21651458740234 C 12.17886638641357 93.07146453857422 9.747360229492188 91.43201446533203 7.659066677093506 89.34371948242188 C 5.570759773254395 87.25540924072266 3.931306600570679 84.82390594482422 2.786253213882446 82.11672973632812 C 1.600986480712891 79.31446838378906 0.9999998807907104 76.33717346191406 0.9999998807907104 73.26753234863281 C 0.9999998807907104 68.66047668457031 2.370173215866089 64.22450256347656 4.962413311004639 60.43917083740234 C 7.494679927825928 56.74139785766602 11.01849365234375 53.89555740356445 15.15289306640625 52.20930480957031 L 16.43578720092773 51.68606567382812 L 15.53510665893555 50.63327789306641 C 12.81715965270996 47.45629119873047 11.32032012939453 43.40078353881836 11.32032012939453 39.21383666992188 C 11.32032012939453 37.20007705688477 11.65774631500244 35.22593307495117 12.32321357727051 33.34623718261719 C 12.96644020080566 31.52941131591797 13.90162658691406 29.83821105957031 15.10279941558838 28.3195972442627 C 17.50406646728516 25.28375816345215 20.88178634643555 23.0975456237793 24.61374664306641 22.16371726989746 L 25.85168075561523 21.85394477844238 L 25.25491905212402 20.72598457336426 C 24.23929405212402 18.8062915802002 23.70246696472168 16.63529205322266 23.70246696472168 14.44770431518555 C 23.70246696472168 10.85539817810059 25.10118675231934 7.478291511535645 27.6409740447998 4.938504695892334 C 30.18075942993164 2.398718118667603 33.55785369873047 0.9999980926513672 37.15016174316406 0.9999980926513672 C 40.74246597290039 0.9999980926513672 44.11956024169922 2.398718118667603 46.65934753417969 4.938504695892334 C 49.19913482666016 7.478291511535645 50.59785461425781 10.85539817810059 50.59785461425781 14.44770431518555 C 50.59785461425781 15.30621147155762 50.51645278930664 16.16517066955566 50.35593414306641 17.00075721740723 L 50.03860092163086 18.65251731872559 L 51.64131927490234 18.14230537414551 C 52.95641326904297 17.72365188598633 54.33044052124023 17.51138496398926 55.72523880004883 17.51138496398926 C 59.31754684448242 17.51138496398926 62.69464111328125 18.91010475158691 65.23442840576172 21.44989204406738 C 67.77421569824219 23.98967742919922 69.17293548583984 27.36677169799805 69.17293548583984 30.95907783508301 C 69.17293548583984 34.48257064819336 67.81944274902344 37.81323623657227 65.36177062988281 40.33751678466797 L 64.46717071533203 41.2563591003418 L 65.57634735107422 41.9000244140625 C 69.73211669921875 44.31165313720703 73.21709442138672 47.77548980712891 75.65450286865234 51.91705322265625 C 78.16461181640625 56.1821174621582 79.49138641357422 61.06767654418945 79.49138641357422 66.04554748535156 C 79.49138641357422 69.81169128417969 78.75404357910156 73.46461486816406 77.29984283447266 76.90283966064453 C 75.89502716064453 80.22428131103516 73.88368988037109 83.20741271972656 71.32170867919922 85.76940155029297 C 68.75971984863281 88.33138275146484 65.77658843994141 90.34272003173828 62.45514678955078 91.74752807617188 C 59.01691818237305 93.20172882080078 55.36399841308594 93.93907928466797 51.59785461425781 93.93907928466797 C 47.15889358520508 93.93907928466797 42.91616058349609 92.92768859863281 38.98753356933594 90.93299865722656 L 38.41366577148438 90.64162445068359 L 37.91077423095703 91.04326629638672 C 35.93954467773438 92.61753082275391 33.74098587036133 93.84354400634766 31.37615966796875 94.68724060058594 C 28.92939949035645 95.56015777587891 26.35862731933594 96.00276947021484 23.73523902893066 96.00276947021484 Z" stroke="none"/><path d="M 23.7352352142334 95.00276947021484 C 26.24380683898926 95.00276947021484 28.70153617858887 94.57972717285156 31.0401496887207 93.74538421630859 C 33.30052185058594 92.93895721435547 35.40216445922852 91.76692962646484 37.28672027587891 90.26187133789062 L 38.29252243041992 89.45859527587891 L 39.44025039672852 90.04134368896484 C 43.22727966308594 91.96412658691406 47.31769180297852 92.93907165527344 51.59785079956055 92.93907165527344 C 55.22945022583008 92.93907165527344 58.75130844116211 92.22830200195312 62.06560897827148 90.82651519775391 C 65.26783752441406 89.47211456298828 68.14413452148438 87.53275299072266 70.61460876464844 85.06228637695312 C 73.08506774902344 82.59182739257812 75.02443695068359 79.71553039550781 76.37883758544922 76.51328277587891 C 77.78062438964844 73.19899749755859 78.49139404296875 69.67713928222656 78.49139404296875 66.04553985595703 C 78.49139404296875 61.24589920043945 77.21240997314453 56.53572845458984 74.79269409179688 52.42425537109375 C 72.44230651855469 48.43058395385742 69.08177947998047 45.0904426574707 65.07442474365234 42.76492691040039 L 62.8560791015625 41.47760009765625 L 64.645263671875 39.63991165161133 C 66.92010498046875 37.30342864990234 68.17292022705078 34.22051239013672 68.17292022705078 30.95908546447754 C 68.17292022705078 27.63388442993164 66.87821960449219 24.50791358947754 64.52730560302734 22.1569995880127 C 62.17640686035156 19.80608558654785 59.05043792724609 18.51138496398926 55.72523498535156 18.51138496398926 C 54.43353652954102 18.51138496398926 53.16156387329102 18.70781326293945 51.94463729858398 19.09519958496094 L 48.73919296264648 20.11559867858887 L 49.37387847900391 16.81207084655762 C 49.52249145507812 16.03857040405273 49.59785079956055 15.24307060241699 49.59785079956055 14.44769859313965 C 49.59785079956055 11.12249946594238 48.30315017700195 7.996527671813965 45.95223617553711 5.645613193511963 C 43.60132217407227 3.29469895362854 40.47534942626953 1.999999046325684 37.15015029907227 1.999999046325684 C 33.82496643066406 1.999999046325684 30.69899368286133 3.29469895362854 28.34807968139648 5.645613193511963 C 25.99716377258301 7.996527671813965 24.70246505737305 11.12249946594238 24.70246505737305 14.44769859313965 C 24.70246505737305 16.5018424987793 25.18573570251465 18.45681381225586 26.13883590698242 20.25831413269043 L 27.33237838745117 22.51425552368164 L 24.85649299621582 23.13379859924316 C 21.33755111694336 24.01432800292969 18.15215110778809 26.07634162902832 15.88710784912109 28.93997001647949 C 14.75425052642822 30.3721981048584 13.87233638763428 31.96697044372559 13.26586437225342 33.67998504638672 C 12.63843631744385 35.45221328735352 12.32030773162842 37.31407165527344 12.32030773162842 39.21384048461914 C 12.32030773162842 43.1625862121582 13.73186492919922 46.98722839355469 16.29496383666992 49.98320007324219 L 18.09632110595703 52.08878326416016 L 15.53055000305176 53.13525772094727 C 11.57792186737061 54.74735641479492 8.208835601806641 57.4683837890625 5.787493228912354 61.00418472290039 C 3.309693098068237 64.62241363525391 2.000007390975952 68.86301422119141 2.000007390975952 73.26752471923828 C 2.000007390975952 76.20259857177734 2.574407577514648 79.04884338378906 3.70726466178894 81.7271728515625 C 4.801907539367676 84.31515502929688 6.369393348693848 86.63981628417969 8.366178512573242 88.63661193847656 C 10.36296463012695 90.63339996337891 12.6876220703125 92.20086669921875 15.27560710906982 93.29551696777344 C 17.95393562316895 94.42836761474609 20.8001651763916 95.00276947021484 23.7352352142334 95.00276947021484 M 23.7352352142334 97.00276947021484 C 10.62680721282959 97.00276947021484 7.492501481465297e-06 86.37598419189453 7.492501481465297e-06 73.26752471923828 C 7.492501481465297e-06 63.32899856567383 6.107807636260986 54.81842803955078 14.77523612976074 51.28335571289062 C 11.99799346923828 48.03707122802734 10.32030773162842 43.82112884521484 10.32030773162842 39.21384048461914 C 10.32030773162842 30.51522827148438 16.29853630065918 23.21356964111328 24.37100791931152 21.19361305236816 C 23.3055362701416 19.17972755432129 22.70246505737305 16.88432693481445 22.70246505737305 14.44769859313965 C 22.70246505737305 6.467842102050781 29.17030715942383 -9.791782531465287e-07 37.15015029907227 -9.791782531465287e-07 C 45.13000869750977 -9.791782531465287e-07 51.59785079956055 6.467842102050781 51.59785079956055 14.44769859313965 C 51.59785079956055 15.3850564956665 51.50850677490234 16.30177116394043 51.33796310424805 17.18942832946777 C 52.72173690795898 16.74892807006836 54.19540786743164 16.51138496398926 55.72523498535156 16.51138496398926 C 63.70509338378906 16.51138496398926 70.17292022705078 22.97922706604004 70.17292022705078 30.95908546447754 C 70.17292022705078 34.87795639038086 68.61210632324219 38.43258285522461 66.07826232910156 41.03509902954102 C 74.69562530517578 46.03584289550781 80.49139404296875 55.36352920532227 80.49139404296875 66.04553985595703 C 80.49139404296875 82.00340270996094 67.55570983886719 94.93907165527344 51.59785079956055 94.93907165527344 C 46.89639282226562 94.93907165527344 42.45833587646484 93.81674194335938 38.53480911254883 91.82463836669922 C 34.47659301757812 95.065673828125 29.33256530761719 97.00276947021484 23.7352352142334 97.00276947021484 Z" stroke="none" fill="#0f72ee"/></g><line y2="23.903" transform="translate(125.899 68.109)" fill="none" stroke="#0f72ee" stroke-linecap="round" stroke-width="2"/><line y2="94.939" transform="translate(200.199 187.815)" fill="none" stroke="#0f72ee" stroke-linecap="round" stroke-width="2"/><line y2="24.767" transform="translate(74.3)" fill="none" stroke="#0f72ee" stroke-linecap="round" stroke-width="2"/><line x1="16.511" y2="16.511" transform="translate(200.199 222.901)" fill="none" stroke="#0f72ee" stroke-linecap="round" stroke-width="2"/><line x2="14.447" y2="10.319" transform="translate(185.75 229.093)" fill="none" stroke="#0f72ee" stroke-linecap="round" stroke-width="2"/><line x2="8.256" y2="6.192" transform="translate(191.942 200.198)" fill="none" stroke="#0f72ee" stroke-linecap="round" stroke-width="2"/><line x1="6.192" y2="4.128" transform="translate(200.199 202.262)" fill="none" stroke="#0f72ee" stroke-linecap="round" stroke-width="2"/><line x2="249.732" transform="translate(0 283.418)" fill="none" stroke="#0f72ee" stroke-linecap="round" stroke-width="2"/><line x2="107.323" transform="translate(115.578 301.329)" fill="none" stroke="#0f72ee" stroke-linecap="round" stroke-width="2"/><line x2="35.086" transform="translate(24.767 301.329)" fill="none" stroke="#0f72ee" stroke-linecap="round" stroke-width="2"/><line x2="6.192" transform="translate(74.3 301.329)" fill="none" stroke="#0f72ee" stroke-linecap="round" stroke-width="2"/><line x2="6.192" transform="translate(94.94 301.329)" fill="none" stroke="#0f72ee" stroke-linecap="round" stroke-width="2"/></g><g transform="translate(41.499 51.274)"><rect width="2" height="2" transform="translate(20.082 -0.049)" fill="#0f72ee"/><rect width="2" height="2" transform="translate(0.082 133.951)" fill="#0f72ee"/><rect width="2" height="2" transform="translate(0.082 170.951)" fill="#0f72ee"/><rect width="2" height="2" transform="translate(20.082 15.951)" fill="#0f72ee"/><rect width="2" height="2" transform="translate(0.082 151.951)" fill="#0f72ee"/><rect width="2" height="2" transform="translate(0.082 187.951)" fill="#0f72ee"/><rect width="2" height="2" transform="translate(20.082 35.951)" fill="#0f72ee"/><rect width="2" height="2" transform="translate(20.082 55.951)" fill="#0f72ee"/><rect width="2" height="2" transform="translate(20.082 74.951)" fill="#0f72ee"/><rect width="2" height="2" transform="translate(20.082 91.951)" fill="#0f72ee"/><rect width="2" height="2" transform="translate(0.082 170.951)" fill="#0f72ee"/><rect width="2" height="2" transform="translate(0.082 206.951)" fill="#0f72ee"/><rect width="2" height="2" transform="translate(60.082 83.951)" fill="#0f72ee"/><rect width="2" height="2" transform="translate(60.082 99.951)" fill="#0f72ee"/><rect width="2" height="2" transform="translate(60.082 115.951)" fill="#0f72ee"/><rect width="2" height="2" transform="translate(60.082 133.951)" fill="#0f72ee"/><rect width="2" height="2" transform="translate(60.082 151.951)" fill="#0f72ee"/><rect width="2" height="2" transform="translate(60.082 166.951)" fill="#0f72ee"/><rect width="2" height="2" transform="translate(42.082 -0.049)" fill="#0f72ee"/><rect width="2" height="2" transform="translate(23.082 133.951)" fill="#0f72ee"/><rect width="2" height="2" transform="translate(23.082 170.951)" fill="#0f72ee"/><rect width="2" height="2" transform="translate(42.082 15.951)" fill="#0f72ee"/><rect width="2" height="2" transform="translate(23.082 151.951)" fill="#0f72ee"/><rect width="2" height="2" transform="translate(23.082 187.951)" fill="#0f72ee"/><rect width="2" height="2" transform="translate(42.082 35.951)" fill="#0f72ee"/><rect width="2" height="2" transform="translate(23.082 170.951)" fill="#0f72ee"/><rect width="2" height="2" transform="translate(23.082 206.951)" fill="#0f72ee"/><rect width="2" height="2" transform="translate(82.082 83.951)" fill="#0f72ee"/><rect width="2" height="2" transform="translate(82.082 99.951)" fill="#0f72ee"/><rect width="2" height="2" transform="translate(82.082 115.951)" fill="#0f72ee"/><rect width="2" height="2" transform="translate(82.082 133.951)" fill="#0f72ee"/><rect width="2" height="2" transform="translate(82.082 151.951)" fill="#0f72ee"/><rect width="2" height="2" transform="translate(82.082 166.951)" fill="#0f72ee"/><rect width="2" height="2" transform="translate(106.082 83.951)" fill="#0f72ee"/><rect width="2" height="2" transform="translate(106.082 99.951)" fill="#0f72ee"/><rect width="2" height="2" transform="translate(106.082 115.951)" fill="#0f72ee"/><rect width="2" height="2" transform="translate(106.082 133.951)" fill="#0f72ee"/><rect width="2" height="2" transform="translate(106.082 151.951)" fill="#0f72ee"/><rect width="2" height="2" transform="translate(106.082 166.951)" fill="#0f72ee"/></g></g><g transform="translate(367 833.138)" fill="none" stroke="#0f72ee" stroke-width="2"><path d="M2,0H18a2,2,0,0,1,2,2V39a0,0,0,0,1,0,0H0a0,0,0,0,1,0,0V2A2,2,0,0,1,2,0Z" stroke="none"/><rect x="1" y="1" width="18" height="37" rx="1" fill="none"/></g></g></svg>