<svg xmlns="http://www.w3.org/2000/svg" width="210.305" height="223" viewBox="0 0 210.305 223"><g transform="translate(-629 -439)"><g transform="translate(632.305 488)" fill="#fafcff" stroke="#0f72ee" stroke-width="1"><rect width="129" height="174" rx="8" stroke="none"/><rect x="0.5" y="0.5" width="128" height="173" rx="7.5" fill="none"/></g><line x2="96.024" transform="translate(648.85 557.565)" fill="none" stroke="#0f72ee" stroke-linecap="round" stroke-width="1"/><line x2="96.024" transform="translate(648.85 573.659)" fill="none" stroke="#0f72ee" stroke-linecap="round" stroke-width="1"/><line x2="96.024" transform="translate(648.85 562.93)" fill="none" stroke="#0f72ee" stroke-linecap="round" stroke-width="1"/><line x2="96.024" transform="translate(648.85 579.024)" fill="none" stroke="#0f72ee" stroke-linecap="round" stroke-width="1"/><line x2="96.024" transform="translate(648.85 599.411)" fill="none" stroke="#0f72ee" stroke-linecap="round" stroke-width="1"/><line x2="96.024" transform="translate(648.85 568.295)" fill="none" stroke="#0f72ee" stroke-linecap="round" stroke-width="1"/><line x2="96.024" transform="translate(648.85 584.389)" fill="none" stroke="#0f72ee" stroke-linecap="round" stroke-width="1"/><line x2="96.024" transform="translate(648.85 604.776)" fill="none" stroke="#0f72ee" stroke-linecap="round" stroke-width="1"/><line x2="28.971" transform="translate(648.85 573.659)" fill="none" stroke="#0f72ee" stroke-linecap="round" stroke-width="1"/><line y2="40.773" transform="translate(648.85 612.287)" fill="none" stroke="#0f72ee" stroke-linecap="round" stroke-width="1"/><line x2="28.971" transform="translate(648.85 589.754)" fill="none" stroke="#0f72ee" stroke-linecap="round" stroke-width="1"/><g transform="translate(710.547 439)"><g transform="translate(0 0.138)" fill="#fafcff"><path d="M 119.8782119750977 170.4104309082031 L 8.879861831665039 170.4104309082031 C 4.259188175201416 170.4104309082031 0.4999924600124359 166.6512298583984 0.4999924600124359 162.0305633544922 L 0.4999924600124359 8.852841377258301 C 0.4999924600124359 4.232167720794678 4.259188175201416 0.4729722142219543 8.879861831665039 0.4729722142219543 L 92.52587127685547 0.3618409335613251 L 128.2580718994141 33.3056526184082 L 128.2580718994141 162.0305633544922 C 128.2580718994141 166.6512298583984 124.4988861083984 170.4104309082031 119.8782119750977 170.4104309082031 Z" stroke="none"/><path d="M 92.330810546875 0.8620758056640625 L 8.879859924316406 0.9729766845703125 C 4.534881591796875 0.9729766845703125 0.9999923706054688 4.507858276367188 0.9999923706054688 8.85284423828125 L 0.9999923706054688 162.0305328369141 C 0.9999923706054688 166.3755187988281 4.534881591796875 169.910400390625 8.879859924316406 169.910400390625 L 119.8782119750977 169.910400390625 C 124.2231903076172 169.910400390625 127.7580795288086 166.3755187988281 127.7580795288086 162.0305328369141 L 127.7580795288086 33.52476501464844 L 92.330810546875 0.8620758056640625 M 92.72090148925781 -0.1384429931640625 L 128.7580718994141 33.08656311035156 L 128.7580718994141 162.0305328369141 C 128.7580718994141 166.9347534179688 124.7824249267578 170.910400390625 119.8782119750977 170.910400390625 L 8.879859924316406 170.910400390625 C 3.97564697265625 170.910400390625 0 166.9347534179688 0 162.0305328369141 L 0 8.85284423828125 C 0 3.948623657226562 3.97564697265625 -0.0270233154296875 8.879859924316406 -0.0270233154296875 L 92.72090148925781 -0.1384429931640625 Z" stroke="none" fill="#0f72ee"/></g><g transform="translate(16.65 63.988)"><line x2="97.679" transform="translate(0 59.146)" fill="none" stroke="#0f72ee" stroke-width="1"/><g transform="translate(3.33 20.209)" fill="#c1dafc" stroke="#0f72ee" stroke-width="1"><rect width="11.1" height="38.974" stroke="none"/><rect x="0.5" y="0.5" width="10.1" height="37.974" fill="none"/></g><g transform="translate(18.869 11.548)" fill="#c1dafc" stroke="#0f72ee" stroke-width="1"><rect width="11.1" height="47.635" stroke="none"/><rect x="0.5" y="0.5" width="10.1" height="46.635" fill="none"/></g><g transform="translate(34.409 25.983)" fill="#c1dafc" stroke="#0f72ee" stroke-width="1"><rect width="11.1" height="33.2" stroke="none"/><rect x="0.5" y="0.5" width="10.1" height="32.2" fill="none"/></g><g transform="translate(49.948 18.765)" fill="#c1dafc" stroke="#0f72ee" stroke-width="1"><rect width="11.1" height="40.418" stroke="none"/><rect x="0.5" y="0.5" width="10.1" height="39.418" fill="none"/></g><g transform="translate(65.488 7.217)" fill="#c1dafc" stroke="#0f72ee" stroke-width="1"><rect width="11.1" height="51.966" stroke="none"/><rect x="0.5" y="0.5" width="10.1" height="50.966" fill="none"/></g><g transform="translate(81.029)" fill="#c1dafc" stroke="#0f72ee" stroke-width="1"><rect width="11.1" height="59.183" stroke="none"/><rect x="0.5" y="0.5" width="10.1" height="58.183" fill="none"/></g></g><g transform="translate(93.346 0.005)" fill="#c1dafc"><path d="M 34.13230895996094 32.90627670288086 L 8.772320747375488 32.90627670288086 C 4.15164041519165 32.90627670288086 0.3924506008625031 29.14708709716797 0.3924506008625031 24.52640724182129 L 0.3924506008625031 24.52184677124023 L 0.3923706114292145 24.51728630065918 L -0.02950725704431534 1.398983716964722 L 34.13230895996094 32.90627670288086 Z" stroke="none"/><path d="M 0.4917564392089844 2.559940338134766 L 0.8922805786132812 24.50815582275391 L 0.8924522399902344 24.51728820800781 L 0.8924522399902344 24.52640724182129 C 0.8924522399902344 28.87138748168945 4.427341461181641 32.40627670288086 8.772319793701172 32.40627670288086 L 32.85267639160156 32.40627670288086 L 0.4917564392089844 2.559940338134766 M -0.55078125 0.238037109375 L 35.41192245483398 33.40627670288086 L 8.772319793701172 33.40627670288086 C 3.868101119995117 33.40627670288086 -0.1075477600097656 29.43061637878418 -0.1075477600097656 24.52640724182129 L -0.55078125 0.238037109375 Z" stroke="none" fill="#0f72ee"/></g><line x2="96.024" transform="translate(16.631 135.732)" fill="none" stroke="#0f72ee" stroke-linecap="round" stroke-width="1"/><line x2="96.024" transform="translate(16.631 141.097)" fill="none" stroke="#0f72ee" stroke-linecap="round" stroke-width="1"/><line x2="96.024" transform="translate(16.631 146.462)" fill="none" stroke="#0f72ee" stroke-linecap="round" stroke-width="1"/><line x2="28.971" transform="translate(16.631 151.827)" fill="none" stroke="#0f72ee" stroke-linecap="round" stroke-width="1"/><g transform="translate(13.393 16.092)"><g transform="translate(0 0)"><g fill="#edf4ff" stroke="#0f72ee" stroke-width="1"><circle cx="15.116" cy="15.116" r="15.116" stroke="none"/><circle cx="15.116" cy="15.116" r="14.616" fill="none"/></g><path d="M-21217,1856.563v15.658l9.117,9.388" transform="translate(21232.119 -1855.619)" fill="none" stroke="#0f72ee" stroke-width="1"/><path d="M-21225.039,1868.634l13.945-2.873" transform="translate(21226.652 -1849.367)" fill="none" stroke="#0f72ee" stroke-width="1"/><path d="M552.323,228.384l-9.94-9.661-13.755,3.007s4.945,8.333,10.868,10S552.323,228.384,552.323,228.384Z" transform="translate(-527.573 -202.393)" fill="#0f72ee" opacity="0.2"/></g><line x2="22.533" transform="translate(38.646 6.977)" fill="none" stroke="#0f72ee" stroke-linecap="round" stroke-width="1"/><line x2="22.533" transform="translate(38.646 12.342)" fill="none" stroke="#0f72ee" stroke-linecap="round" stroke-width="1"/><line x2="22.533" transform="translate(38.646 17.707)" fill="none" stroke="#0f72ee" stroke-linecap="round" stroke-width="1"/><line x2="11.803" transform="translate(38.646 23.072)" fill="none" stroke="#0f72ee" stroke-linecap="round" stroke-width="1"/></g></g><path d="M2.146,0H59.014A2.146,2.146,0,0,1,61.16,2.146V24.679a2.146,2.146,0,0,1-2.146,2.146H4.413v1.463L0,24.679V2.146A2.146,2.146,0,0,1,2.146,0Z" transform="translate(629 514.109)" fill="#0f72ee"/><text transform="translate(658.305 532)" fill="#fff" font-size="12" font-family="Poppins-Medium, Poppins" font-weight="500"><tspan x="-22.386" y="0">REPORT</tspan></text><line x1="95.496" transform="translate(648.85 653.06)" fill="none" stroke="#0f72ee" stroke-linecap="round" stroke-width="1"/><path d="M-21106.5,3496.152l22.148-21,21.064,7.526,20.959-14.2,22.662-2.074" transform="translate(21755.35 -2843.092)" fill="none" stroke="#0f72ee" stroke-linecap="round" stroke-linejoin="round" stroke-width="1"/><g transform="translate(667.305 629)" fill="#fff" stroke="#0f72ee" stroke-width="1"><ellipse cx="3.5" cy="3" rx="3.5" ry="3" stroke="none"/><ellipse cx="3.5" cy="3" rx="3" ry="2.5" fill="none"/></g><g transform="translate(689.305 636)" fill="#fff" stroke="#0f72ee" stroke-width="1"><ellipse cx="3" cy="3.5" rx="3" ry="3.5" stroke="none"/><ellipse cx="3" cy="3.5" rx="2.5" ry="3" fill="none"/></g><g transform="translate(709.305 622)" fill="#fff" stroke="#0f72ee" stroke-width="1"><circle cx="3.5" cy="3.5" r="3.5" stroke="none"/><circle cx="3.5" cy="3.5" r="3" fill="none"/></g></g></svg>