<svg xmlns="http://www.w3.org/2000/svg" width="410.477" height="419.055" viewBox="0 0 410.477 419.055"><g transform="translate(22783.352 -12095.945)"><path d="M6.35-19.8c62.113-52.4,365.489,46.046,365.489,152.549S338.91,348,205.371,337.1s-154.3-37-204.65-104.92S-55.764,32.6,6.35-19.8Z" transform="translate(-22411.514 12433.804) rotate(180)" fill="#fafcff"/><g transform="translate(0 -7)"><g transform="translate(-435.854 111.962)"><g transform="translate(-22220.066 12057.332)"><g transform="translate(4.92 -0.294)" fill="#fafcff" stroke="#0f72ee" stroke-width="1"><rect width="196" height="265" rx="8" stroke="none"/><rect x="0.5" y="0.5" width="195" height="264" rx="7.5" fill="none"/></g><line x2="145.785" transform="translate(30.137 105.807)" fill="none" stroke="#0f72ee" stroke-linecap="round" stroke-width="1"/><line x2="145.785" transform="translate(30.137 130.242)" fill="none" stroke="#0f72ee" stroke-linecap="round" stroke-width="1"/><line x2="145.785" transform="translate(30.137 113.952)" fill="none" stroke="#0f72ee" stroke-linecap="round" stroke-width="1"/><line x2="145.785" transform="translate(30.137 138.387)" fill="none" stroke="#0f72ee" stroke-linecap="round" stroke-width="1"/><line x2="145.785" transform="translate(30.137 169.339)" fill="none" stroke="#0f72ee" stroke-linecap="round" stroke-width="1"/><line x2="145.785" transform="translate(30.137 122.097)" fill="none" stroke="#0f72ee" stroke-linecap="round" stroke-width="1"/><line x2="145.785" transform="translate(30.137 146.532)" fill="none" stroke="#0f72ee" stroke-linecap="round" stroke-width="1"/><line x2="145.785" transform="translate(30.137 177.484)" fill="none" stroke="#0f72ee" stroke-linecap="round" stroke-width="1"/><line x2="43.984" transform="translate(30.137 130.242)" fill="none" stroke="#0f72ee" stroke-linecap="round" stroke-width="1"/><line y2="61.903" transform="translate(30.137 188.887)" fill="none" stroke="#0f72ee" stroke-linecap="round" stroke-width="1"/><line x2="43.984" transform="translate(30.137 154.677)" fill="none" stroke="#0f72ee" stroke-linecap="round" stroke-width="1"/><path d="M3.258,0H89.6a3.258,3.258,0,0,1,3.258,3.258V37.468A3.258,3.258,0,0,1,89.6,40.726H6.7v2.221L0,37.468V3.258A3.258,3.258,0,0,1,3.258,0Z" transform="translate(0 39.831)" fill="#0f72ee"/><text transform="translate(40.921 63.706)" fill="#fff" font-size="16" font-family="Poppins-Medium, Poppins" font-weight="500"><tspan x="-29.848" y="0">REPORT</tspan></text><line x1="144.983" transform="translate(30.137 250.79)" fill="none" stroke="#0f72ee" stroke-linecap="round" stroke-width="1"/><path d="M-21106.5,3511.568l33.623-31.889,31.982,11.426,31.82-21.552,34.406-3.15" transform="translate(21136.637 -3260.778)" fill="none" stroke="#0f72ee" stroke-linecap="round" stroke-linejoin="round" stroke-width="1"/><g transform="translate(57.92 214.707)" fill="#fff" stroke="#0f72ee" stroke-width="1"><ellipse cx="5" cy="4.5" rx="5" ry="4.5" stroke="none"/><ellipse cx="5" cy="4.5" rx="4.5" ry="4" fill="none"/></g><g transform="translate(91.92 224.707)" fill="#fff" stroke="#0f72ee" stroke-width="1"><ellipse cx="4" cy="5.5" rx="4" ry="5.5" stroke="none"/><ellipse cx="4" cy="5.5" rx="3.5" ry="5" fill="none"/></g><g transform="translate(121.92 203.707)" fill="#fff" stroke="#0f72ee" stroke-width="1"><circle cx="5.5" cy="5.5" r="5.5" stroke="none"/><circle cx="5.5" cy="5.5" r="5" fill="none"/></g></g><g transform="translate(-22265.975 12014.188)"><g transform="translate(0 0.138)" fill="#fafcff"><path d="M 187.7782287597656 267.2939453125 L 13.90949058532715 267.2939453125 C 10.32769012451172 267.2939453125 6.960256576538086 265.8991394042969 4.427556991577148 263.3663940429688 C 1.894823431968689 260.8336486816406 0.4999901354312897 257.4662170410156 0.4999901354312897 253.8844299316406 L 0.4999901354312897 13.94555854797363 C 0.4999901354312897 10.36375904083252 1.894823431968689 6.996325492858887 4.427556991577148 4.463625431060791 C 6.960256576538086 1.930925488471985 10.32769012451172 0.5360921025276184 13.90949058532715 0.5360921025276184 L 145.0437469482422 0.3618521690368652 L 201.1877288818359 52.12459564208984 L 201.1877288818359 253.8844299316406 C 201.1877288818359 257.4662170410156 199.7928924560547 260.8336486816406 197.2601928710938 263.3663940429688 C 194.7274627685547 265.8991394042969 191.3600158691406 267.2939453125 187.7782287597656 267.2939453125 Z" stroke="none"/><path d="M 144.8487243652344 0.862091064453125 L 13.90948486328125 1.03607177734375 C 10.46122741699219 1.03607177734375 7.219390869140625 2.37890625 4.781097412109375 4.817169189453125 C 2.342819213867188 7.255462646484375 0.9999847412109375 10.49728393554688 0.9999847412109375 13.945556640625 L 0.9999847412109375 253.8844299316406 C 0.9999847412109375 257.3326721191406 2.342819213867188 260.5745239257812 4.781097412109375 263.0127868652344 C 7.219390869140625 265.4510803222656 10.46125793457031 266.7939147949219 13.90948486328125 266.7939147949219 L 187.7782287597656 266.7939147949219 C 191.2264862060547 266.7939147949219 194.4683532714844 265.4510803222656 196.9066162109375 263.0127868652344 C 199.3448944091797 260.5745239257812 200.6877288818359 257.3326721191406 200.6877288818359 253.8844299316406 L 200.6877288818359 52.3436279296875 L 144.8487243652344 0.862091064453125 M 145.2387847900391 -0.138427734375 L 201.6877288818359 51.90545654296875 L 201.6877288818359 253.8844299316406 C 201.6877288818359 261.56640625 195.4602508544922 267.7939147949219 187.7782287597656 267.7939147949219 L 13.90948486328125 267.7939147949219 C 6.227493286132812 267.7939147949219 -1.52587890625e-05 261.56640625 -1.52587890625e-05 253.8844299316406 L -1.52587890625e-05 13.945556640625 C -1.52587890625e-05 6.2635498046875 6.227493286132812 0.03607177734375 13.90948486328125 0.03607177734375 L 145.2387847900391 -0.138427734375 Z" stroke="none" fill="#0f72ee"/></g><g transform="translate(26.081 100.232)"><line x2="153.005" transform="translate(0 92.647)" fill="none" stroke="#0f72ee" stroke-width="1"/><g transform="translate(5.216 31.655)" fill="#c1dafc" stroke="#0f72ee" stroke-width="1"><rect width="17.387" height="61.05" stroke="none"/><rect x="0.5" y="0.5" width="16.387" height="60.05" fill="none"/></g><g transform="translate(29.557 18.089)" fill="#c1dafc" stroke="#0f72ee" stroke-width="1"><rect width="17.387" height="74.616" stroke="none"/><rect x="0.5" y="0.5" width="16.387" height="73.616" fill="none"/></g><g transform="translate(53.898 40.7)" fill="#c1dafc" stroke="#0f72ee" stroke-width="1"><rect width="17.387" height="52.005" stroke="none"/><rect x="0.5" y="0.5" width="16.387" height="51.005" fill="none"/></g><g transform="translate(78.239 29.394)" fill="#c1dafc" stroke="#0f72ee" stroke-width="1"><rect width="17.387" height="63.311" stroke="none"/><rect x="0.5" y="0.5" width="16.387" height="62.311" fill="none"/></g><g transform="translate(102.58 11.305)" fill="#c1dafc" stroke="#0f72ee" stroke-width="1"><rect width="17.387" height="81.399" stroke="none"/><rect x="0.5" y="0.5" width="16.387" height="80.399" fill="none"/></g><g transform="translate(126.925)" fill="#c1dafc" stroke="#0f72ee" stroke-width="1"><rect width="17.387" height="92.705" stroke="none"/><rect x="0.5" y="0.5" width="16.387" height="91.705" fill="none"/></g></g><g transform="translate(145.906 0.142)" fill="#c1dafc"><path d="M 54.50188827514648 51.69305038452148 L 14.05300807952881 51.69305038452148 C 10.47119808197021 51.69305038452148 7.10377836227417 50.29822158813477 4.57105827331543 47.7654914855957 C 2.038338422775269 45.23277282714844 0.6435083746910095 41.86535263061523 0.6435083746910095 38.28355026245117 L 0.6435083746910095 38.27899169921875 L 0.6434283256530762 38.27443313598633 L -0.02950917184352875 1.398988842964172 L 54.50188827514648 51.69305038452148 Z" stroke="none"/><path d="M 0.4917526245117188 2.5599365234375 L 1.143337249755859 38.26529312133789 L 1.143508911132812 38.27442169189453 L 1.143508911132812 38.28354263305664 C 1.143508911132812 41.73179244995117 2.486328125 44.97365188598633 4.924610137939453 47.41193389892578 C 7.362899780273438 49.85022354125977 10.60475921630859 51.19304275512695 14.05300903320312 51.19304275512695 L 53.22225570678711 51.19304275512695 L 0.4917526245117188 2.5599365234375 M -0.55078125 0.2380332946777344 L 55.78149795532227 52.19304275512695 L 14.05300903320312 52.19304275512695 C 6.370998382568359 52.19304275512695 0.1435089111328125 45.96554183959961 0.1435089111328125 38.28354263305664 L -0.55078125 0.2380332946777344 Z" stroke="none" fill="#0f72ee"/></g><line x2="150.412" transform="translate(26.051 212.613)" fill="none" stroke="#0f72ee" stroke-linecap="round" stroke-width="1"/><line x2="150.412" transform="translate(26.051 221.016)" fill="none" stroke="#0f72ee" stroke-linecap="round" stroke-width="1"/><line x2="150.412" transform="translate(26.051 229.42)" fill="none" stroke="#0f72ee" stroke-linecap="round" stroke-width="1"/><line x2="45.38" transform="translate(26.051 237.823)" fill="none" stroke="#0f72ee" stroke-linecap="round" stroke-width="1"/><text transform="translate(52.828 88.851)" fill="#c1dafc" font-size="82" font-family="Poppins-Regular, Poppins"><tspan x="-21.484" y="0">?</tspan></text><text transform="translate(52.828 88.851)" fill="#0f72ee" font-size="82" font-family="Poppins-Regular, Poppins" opacity="0.5"><tspan x="-21.484" y="0">?</tspan></text></g></g><g transform="translate(24 -5)"><path d="M-83.94-16.7V-4.272L-92.172-16.7h-2.736V0h2.736V-12.456L-83.94,0H-81.2V-16.7ZM-65.2-6.624A6.521,6.521,0,0,0-71.94-13.44a6.521,6.521,0,0,0-6.744,6.816A6.447,6.447,0,0,0-72.06.216,6.624,6.624,0,0,0-65.2-6.624Zm-10.7,0c0-3,1.848-4.44,3.912-4.44,2.04,0,3.984,1.44,3.984,4.44S-70.02-2.16-72.06-2.16C-74.124-2.16-75.9-3.624-75.9-6.624Zm22.008-.336c0-2.808,1.248-3.648,3.264-3.648h.7V-13.44a4.307,4.307,0,0,0-3.96,2.136v-1.92h-2.736V0h2.736Zm11.856-4.176A3.434,3.434,0,0,1-38.34-7.8h-7.32A3.6,3.6,0,0,1-42.036-11.136Zm6.192,7.2H-38.8a3.2,3.2,0,0,1-3.12,1.848,3.638,3.638,0,0,1-3.768-3.5h10.1a8.44,8.44,0,0,0,.1-1.344,6.167,6.167,0,0,0-6.432-6.5c-3.912,0-6.6,2.664-6.6,6.816s2.808,6.84,6.6,6.84A6.043,6.043,0,0,0-35.844-3.936Zm12.72.24c-.144-4.776-7.608-3.288-7.608-5.952,0-.888.768-1.488,2.232-1.488a2.187,2.187,0,0,1,2.472,1.944h2.736c-.144-2.64-2.112-4.248-5.112-4.248-3.12,0-5.088,1.7-5.088,3.816,0,4.848,7.68,3.36,7.68,5.952,0,.912-.84,1.584-2.424,1.584a2.413,2.413,0,0,1-2.64-1.968h-2.832c.12,2.4,2.352,4.272,5.52,4.272C-25.068.216-23.124-1.464-23.124-3.7Zm14.736-9.528h-2.736v7.368c0,2.424-1.32,3.672-3.336,3.672-1.992,0-3.312-1.248-3.312-3.672v-7.368h-2.712v7.776c0,3.7,2.352,5.64,5.448,5.64a4.922,4.922,0,0,0,3.912-1.776V0h2.736ZM-4.98,0h2.736V-17.76H-4.98ZM1.6-3.672C1.6-.984,3.06,0,5.412,0h2.16V-2.28H5.892c-1.152,0-1.536-.408-1.536-1.392v-7.32H7.572v-2.232H4.356v-3.288H1.6v3.288H.036v2.232H1.6ZM19.764-3.7c-.144-4.776-7.608-3.288-7.608-5.952,0-.888.768-1.488,2.232-1.488A2.187,2.187,0,0,1,16.86-9.192H19.6c-.144-2.64-2.112-4.248-5.112-4.248-3.12,0-5.088,1.7-5.088,3.816,0,4.848,7.68,3.36,7.68,5.952,0,.912-.84,1.584-2.424,1.584a2.413,2.413,0,0,1-2.64-1.968H9.18C9.3-1.656,11.532.216,14.7.216,17.82.216,19.764-1.464,19.764-3.7ZM28.908,0h2.76V-10.992h2.448v-2.232H31.668v-.936c0-1.512.576-2.088,2.256-2.088v-2.28c-3.456,0-5.016,1.32-5.016,4.368v.936h-1.56v2.232h1.56Zm20.04-6.624A6.521,6.521,0,0,0,42.2-13.44,6.521,6.521,0,0,0,35.46-6.624,6.447,6.447,0,0,0,42.084.216,6.624,6.624,0,0,0,48.948-6.624Zm-10.7,0c0-3,1.848-4.44,3.912-4.44,2.04,0,3.984,1.44,3.984,4.44S44.124-2.16,42.084-2.16C40.02-2.16,38.244-3.624,38.244-6.624Zm25.2-6.6H60.708v7.368c0,2.424-1.32,3.672-3.336,3.672-1.992,0-3.312-1.248-3.312-3.672v-7.368H51.348v7.776c0,3.7,2.352,5.64,5.448,5.64a4.922,4.922,0,0,0,3.912-1.776V0h2.736ZM76.236,0h2.712V-7.8c0-3.7-2.328-5.64-5.424-5.64a5.087,5.087,0,0,0-3.936,1.728v-1.512H66.852V0h2.736V-7.392c0-2.424,1.32-3.672,3.336-3.672,1.992,0,3.312,1.248,3.312,3.672Zm5.088-6.672c0,4.08,2.76,6.888,6.24,6.888a5.483,5.483,0,0,0,4.584-2.208V0h2.76V-17.76h-2.76v6.384a6.091,6.091,0,0,0-4.56-2.064C84.084-13.44,81.324-10.752,81.324-6.672Zm10.824.048c0,2.856-1.944,4.464-4.008,4.464-2.04,0-4.008-1.656-4.008-4.512a4.057,4.057,0,0,1,4.008-4.392A4.1,4.1,0,0,1,92.148-6.624Z" transform="translate(-22578 12516)" fill="#0f72ee"/><g transform="translate(-22723 12487)"><g transform="translate(0 0)"><path d="M39.756,38.577,27.585,26.407a15.894,15.894,0,1,0-1.178,1.178L38.577,39.756a.833.833,0,1,0,1.178-1.178ZM15.833,30A14.167,14.167,0,1,1,30,15.833,14.183,14.183,0,0,1,15.833,30Z" transform="translate(0 0)" fill="#0f72ee"/></g></g></g></g></g></svg>