<svg xmlns="http://www.w3.org/2000/svg" xmlns:xlink="http://www.w3.org/1999/xlink" width="85" height="85" viewBox="0 0 85 85"><defs><style>.a{fill:#0f72ee;opacity:0.998;}.b{clip-path:url(#a);}.c{fill:#e3f8fa;}.d{fill:#26c6da;}.e{fill:#8ce1eb;}</style><clipPath id="a"><rect class="a" width="85" height="85" rx="2" transform="translate(-0.392 0.304)"/></clipPath></defs><g class="b" transform="translate(0.392 -0.304)"><g transform="translate(0)"><path class="c" d="M69.031,84.961H15.93A15.929,15.929,0,0,1,0,69.031V15.93A15.929,15.929,0,0,1,15.93,0h53.1a15.929,15.929,0,0,1,15.93,15.93v53.1A15.929,15.929,0,0,1,69.031,84.961Z"/><path class="d" d="M46.261,24.043A17.8,17.8,0,0,0,34.68,12.467a18.065,18.065,0,0,0-10.636,0A17.681,17.681,0,1,0,46.261,24.043ZM31.138,29.366a1.772,1.772,0,0,1-1.771,1.771H20.518a1.771,1.771,0,1,1,0-3.542H27.6V20.514a1.77,1.77,0,0,1,3.539,0Z" transform="translate(13.113 13.115)"/><g transform="translate(21.24 21.24)"><path class="e" d="M22.884,12.652A19.6,19.6,0,0,1,35.628,25.383c.029.09.048.183.074.276A9.247,9.247,0,0,0,22.629,12.583c.085.024.17.042.255.069Z" transform="translate(4.195 -10)"/><path class="e" d="M12.652,25.4A19.6,19.6,0,0,1,25.383,12.658c.09-.029.183-.048.276-.074A9.247,9.247,0,0,0,12.583,25.657c.024-.085.042-.17.069-.255Z" transform="translate(-10 -10)"/><path class="e" d="M27.184,27.235A19.622,19.622,0,0,1,24.2,29.149l1.959,3.128a1.769,1.769,0,1,0,3-1.88Z" transform="translate(5.967 9.373)"/><path class="e" d="M15.583,27.235,13.6,30.4a1.771,1.771,0,0,0,3,1.88l1.959-3.128A19.316,19.316,0,0,1,15.583,27.235Z" transform="translate(-6.254 9.373)"/></g></g></g></svg>