<svg xmlns="http://www.w3.org/2000/svg" width="272.667" height="556.104" viewBox="0 0 272.667 556.104"><g transform="translate(-616.055 -155.113)"><path d="M-21011.574,4007.113s-55.227,56.459-60.73,127.924,22.121,111.648,22.121,111.648,17.895,8.333,38.088,8.333,40.8-8.333,40.8-8.333,28.336-38.962,22.865-111.648S-21011.574,4007.113-21011.574,4007.113Z" transform="translate(21773.209 -3851)" fill="#fafcff"/><path d="M-21011.574,4007.113s-55.227,56.459-60.73,127.924,22.121,111.648,22.121,111.648,17.895,8.333,38.088,8.333,40.8-8.333,40.8-8.333,28.336-38.962,22.865-111.648S-21011.574,4007.113-21011.574,4007.113Z" transform="translate(21773.209 -3851)" fill="none" stroke="#0f72ee" stroke-linecap="round" stroke-linejoin="round" stroke-width="2"/><path d="M-21024.244,4020.3l-10.7,13.738" transform="translate(21784.721 -3847.013)" fill="none" stroke="#0f72ee" stroke-linecap="round" stroke-width="2"/><circle cx="26" cy="26" r="26" transform="translate(736.572 242.927)" fill="#edf4ff"/><path d="M-21041.68,4037.742s10.641,4.932,21.2,4.932,21.047-4.932,21.047-4.932" transform="translate(21782.684 -3841.743)" fill="none" stroke="#0f72ee" stroke-linecap="round" stroke-linejoin="round" stroke-width="2"/><path d="M-21042.18,4051.347s-11.5,21.706-17.105,44.228-5.3,45.861-5.3,45.861" transform="translate(21775.76 -3837.63)" fill="none" stroke="#0f72ee" stroke-linecap="round" stroke-linejoin="round" stroke-width="2"/><g transform="translate(736.572 242.927)" fill="none" stroke="#0f72ee" stroke-linecap="round" stroke-linejoin="round" stroke-width="2"><circle cx="26" cy="26" r="26" stroke="none"/><circle cx="26" cy="26" r="25" fill="none"/></g><g transform="translate(726.572 232.927)" fill="none" stroke="#0f72ee" stroke-linecap="round" stroke-linejoin="round" stroke-width="2"><circle cx="36.5" cy="36.5" r="36.5" stroke="none"/><circle cx="36.5" cy="36.5" r="35.5" fill="none"/></g><path d="M-21041.344,4202.77l-10.262,41.2s4.785,6.6,34.211,7.216,34.27-7.216,34.27-7.216l-10.049-41.2a111.571,111.571,0,0,1-24.221,3.139A107.573,107.573,0,0,1-21041.344,4202.77Z" transform="translate(21779.684 -3791.862)" fill="#edf4ff"/><path d="M-21024.066,4063.734v5.553l17.85,5.784,3.506-3.636Z" transform="translate(21788.008 -3833.886)" fill="#fff"/><path d="M-21004.152,4080.032l4.973-3.159,2.459,6.811-4.572,1.148Z" transform="translate(21794.027 -3829.914)" fill="#fff"/><path d="M-21064.586,4125.736l.369,6.689.475,8.6" transform="translate(21775.76 -3815.146)" fill="none" stroke="#0f72ee" stroke-linecap="round" stroke-linejoin="round" stroke-width="2"/><path d="M-21077.8,4135.125s2.16,23.228,7.09,40.368a104.3,104.3,0,0,0,12.623,28.192s-12.824.655-16.336,1.976c-3.131,3.743-9.611,18.409-9.611,18.409s-10.658-20.693-9.1-42.93S-21077.8,4135.125-21077.8,4135.125Z" transform="translate(21767.084 -3812.308)" fill="#edf4ff"/><path d="M-21060.322,4153.831s3.262,11.045,6.813,20.947,7.393,18.662,7.393,18.662a57.109,57.109,0,0,0,6.676,3.006c3.775,1.414,8.416,2.65,8.416,2.65" transform="translate(21776.746 -3806.654)" fill="none" stroke="#0f72ee" stroke-linecap="round" stroke-linejoin="round" stroke-width="2"/><path d="M-21077.8,4135.125s2.16,23.228,7.09,40.368a104.3,104.3,0,0,0,12.623,28.192s-12.824.655-16.336,1.976c-3.131,3.743-9.611,18.409-9.611,18.409s-10.658-20.693-9.1-42.93S-21077.8,4135.125-21077.8,4135.125Z" transform="translate(21767.084 -3812.308)" fill="none" stroke="#0f72ee" stroke-linecap="round" stroke-linejoin="round" stroke-width="2"/><path d="M-21054.34,4198.132l-13,31.356a36.649,36.649,0,0,0,5.721,1.977,35.442,35.442,0,0,0,5.928.832" transform="translate(21774.928 -3793.265)" fill="none" stroke="#0f72ee" stroke-linecap="round" stroke-linejoin="round" stroke-width="2"/><path d="M-21041.344,4202.77l-10.262,41.2s4.785,6.6,34.211,7.216,34.27-7.216,34.27-7.216l-10.049-41.2" transform="translate(21779.684 -3791.862)" fill="none" stroke="#0f72ee" stroke-linecap="round" stroke-linejoin="round" stroke-width="2"/><path d="M-21054.408,4245.43s-16.318,20.244-11.975,44.795,29.064,48.741,42.891,75.6,11.156,25.3,11.156,25.3,4.873-10.584,10.826-21.457,12.992-22.032,12.992-22.032,21-24.3,27.389-47.271-1.834-44.624-1.834-44.624a34.75,34.75,0,0,0,2.818-9.373,19.661,19.661,0,0,0-.984-8.156s-23.041,10.166-46.361,11.969S-21054.408,4245.43-21054.408,4245.43Z" transform="translate(21774.998 -3778.968)" fill="#fafcff"/><path d="M-21034.092,4204.378l-7.121,33.248a98.5,98.5,0,0,0,11.193,1.349,83.659,83.659,0,0,0,10.729-.21" transform="translate(21782.824 -3791.376)" fill="none" stroke="#0f72ee" stroke-linecap="round" stroke-linejoin="round" stroke-width="2"/><path d="M-21064.629,4233.1s-10.324-.191-14.932,11.972,2.174,20.146,2.174,20.146" transform="translate(21770.928 -3782.695)" fill="none" stroke="#0f72ee" stroke-linecap="round" stroke-linejoin="round" stroke-width="2"/><path d="M-21136.58,4321.865s4.625-8.072,12.416-10.763,18.744,0,18.744,0-15.207-21.006-2.182-38.43,35.512-7.631,35.512-7.631" transform="translate(21754 -3773.87)" fill="none" stroke="#0f72ee" stroke-linecap="round" stroke-linejoin="round" stroke-width="2"/><path d="M-21076.359,4279.044s-21.6,3.357-22.4,23.322,16.59,24.912,16.59,24.912" transform="translate(21765.422 -3768.808)" fill="none" stroke="#0f72ee" stroke-linecap="round" stroke-linejoin="round" stroke-width="2"/><path d="M-21067.342,4198.132l13,31.356a36.562,36.562,0,0,1-5.721,1.977,35.442,35.442,0,0,1-5.928.832" transform="translate(21872.285 -3793.265)" fill="none" stroke="#0f72ee" stroke-linecap="round" stroke-linejoin="round" stroke-width="2"/><path d="M-21073.578,4135.125s-2.162,23.228-7.092,40.368a104.3,104.3,0,0,1-12.623,28.192s12.824.655,16.336,1.976c3.133,3.743,9.613,18.409,9.613,18.409s10.656-20.693,9.1-42.93S-21073.578,4135.125-21073.578,4135.125Z" transform="translate(21910.332 -3812.308)" fill="#edf4ff"/><path d="M-21080.576,4233.1s11.275.832,14.934,11.972a25.116,25.116,0,0,1-2.176,20.146" transform="translate(21899.809 -3782.695)" fill="none" stroke="#0f72ee" stroke-linecap="round" stroke-linejoin="round" stroke-width="2"/><path d="M-21090.766,4308.936c-3.309.414-11.723,1.395-11.723,1.395s11-19.543-2.656-35.535-33.963-7.885-33.963-7.885" transform="translate(21971.627 -3775.701)" fill="none" stroke="#0f72ee" stroke-linecap="round" stroke-linejoin="round" stroke-width="2"/><path d="M-21101.383,4284.836s22.594-1.09,23.4,18.875-14.207,21.82-14.207,21.82" transform="translate(21929.264 -3760.55)" fill="none" stroke="#0f72ee" stroke-linecap="round" stroke-linejoin="round" stroke-width="2"/><path d="M-21054.408,4245.43s-16.318,20.244-11.975,44.795,29.064,48.741,42.891,75.6,11.156,25.3,11.156,25.3,4.873-10.584,10.826-21.457,12.992-22.032,12.992-22.032" transform="translate(21774.998 -3778.968)" fill="none" stroke="#0f72ee" stroke-linecap="round" stroke-linejoin="round" stroke-width="2"/><path d="M-20999.02,4336.2s14.084-19.215,18.6-38.559-3.186-39.192-3.186-39.192a27.385,27.385,0,0,0,2.588-8.446,38.916,38.916,0,0,0-.4-9.827" transform="translate(21795.578 -3780.555)" fill="none" stroke="#0f72ee" stroke-linecap="round" stroke-linejoin="round" stroke-width="2"/><path d="M-21000.873,4247.7a54.031,54.031,0,0,1,6.133,12.7,78.415,78.415,0,0,1,2.854,15.532" transform="translate(21795.018 -3778.282)" fill="none" stroke="#0f72ee" stroke-linecap="round" stroke-linejoin="round" stroke-width="2"/><path d="M-21050.785,4254.458s-5.379,14.454-2.871,30.04,12.9,32.3,12.9,32.3" transform="translate(21778.863 -3776.239)" fill="none" stroke="#0f72ee" stroke-linecap="round" stroke-linejoin="round" stroke-width="2"/><path d="M-21035.865,4248.084s-10.334,14.288-6.26,35.188,22.564,48.413,22.564,48.413,19.256-27.513,22.965-48.413a45.827,45.827,0,0,0-8.129-35.188,67.468,67.468,0,0,1-15.34,2.03A74.254,74.254,0,0,1-21035.865,4248.084Z" transform="translate(21782.262 -3778.166)" fill="#edf4ff"/><path d="M-21038.34,4311.329s3.611,5.316,6.711,10.835,5.68,11.241,5.68,11.241" transform="translate(21783.693 -3759.05)" fill="none" stroke="#0f72ee" stroke-linecap="round" stroke-linejoin="round" stroke-width="2"/><path d="M-21035.865,4248.084s-10.334,14.288-6.26,35.188,22.564,48.413,22.564,48.413,19.256-27.513,22.965-48.413a45.827,45.827,0,0,0-8.129-35.188" transform="translate(21782.262 -3778.166)" fill="none" stroke="#0f72ee" stroke-linecap="round" stroke-linejoin="round" stroke-width="2"/><path d="M-21073.578,4135.125s-2.162,23.228-7.092,40.368a104.3,104.3,0,0,1-12.623,28.192s12.824.655,16.336,1.976c3.133,3.743,9.613,18.409,9.613,18.409s10.656-20.693,9.1-42.93S-21073.578,4135.125-21073.578,4135.125Z" transform="translate(21910.332 -3812.308)" fill="none" stroke="#0f72ee" stroke-linecap="round" stroke-linejoin="round" stroke-width="2"/><path d="M-21036.363,4088.408l20.9,21.118" transform="translate(21784.291 -3826.429)" fill="none" stroke="#0f72ee" stroke-linecap="round" stroke-width="2"/><path d="M-21025,4089.934l12.75,13.224" transform="translate(21787.725 -3825.967)" fill="none" stroke="#0f72ee" stroke-linecap="round" stroke-width="2"/><line x2="249.732" transform="translate(637.99 692.306)" fill="none" stroke="#0f72ee" stroke-linecap="round" stroke-width="2"/><line x2="107.323" transform="translate(753.568 710.216)" fill="none" stroke="#0f72ee" stroke-linecap="round" stroke-width="2"/><line x2="35.086" transform="translate(662.758 710.216)" fill="none" stroke="#0f72ee" stroke-linecap="round" stroke-width="2"/><line x2="6.192" transform="translate(712.291 710.216)" fill="none" stroke="#0f72ee" stroke-linecap="round" stroke-width="2"/><line x2="6.192" transform="translate(732.93 710.216)" fill="none" stroke="#0f72ee" stroke-linecap="round" stroke-width="2"/></g></svg>