<svg xmlns="http://www.w3.org/2000/svg" width="243.763" height="220.613" viewBox="0 0 243.763 220.613"><defs><style>.a{fill:#00ceff;}.b{fill:#fff;}</style></defs><g transform="translate(-1021 -1834.111)"><path class="a" d="M-12.36-25.831c36.282-30.606,213.493,26.9,213.493,89.108S181.9,189.013,103.894,182.644s-90.13-21.611-119.542-61.287S-48.642,4.775-12.36-25.831Z" transform="translate(1222.133 2020.418) rotate(180)"/><g transform="matrix(-0.719, -0.695, 0.695, -0.719, 1194.008, 2025.874)"><path class="b" d="M0,0A50.233,50.233,0,0,0,4.191,4.019H69.068A50.238,50.238,0,0,0,73.258,0Z" transform="translate(13.335 83.931)"/><path class="b" d="M0,0Q1.289,2.009,2.762,3.884H81.377Q82.848,2.011,84.14,0Z" transform="translate(7.894 76.903)"/><path class="b" d="M49.962,4.153A49.945,49.945,0,0,0,57.1,0H0A49.929,49.929,0,0,0,7.132,4.153Z" transform="translate(21.417 90.959)"/><path class="b" d="M27.969,2A49.931,49.931,0,0,0,0,2Z" transform="translate(35.98)"/><path class="b" d="M0,0Q.833,1.917,1.815,3.751H89.842Q90.828,1.921,91.657,0Z" transform="translate(4.136 69.874)"/><path class="b" d="M0,1.174C0,1.9.025,2.627.055,3.347H99.874c.03-.721.055-1.444.055-2.173,0-.393-.021-.783-.03-1.174H.03C.021.392,0,.781,0,1.174Z" transform="translate(0 48.788)"/><path class="b" d="M0,2.678H73.881C73.037,1.749,72.148.862,71.235,0H2.648C1.734.862.846,1.749,0,2.678Z" transform="translate(13.023 13.646)"/><path class="b" d="M1.359,0C.877.966.419,1.945,0,2.946H92.18c-.419-1-.879-1.98-1.36-2.946Z" transform="translate(3.874 27.703)"/><path class="b" d="M0,0C.326,1.225.7,2.43,1.117,3.616H95.442Q96.065,1.837,96.558,0Z" transform="translate(1.685 62.846)"/><path class="b" d="M1.9,0Q.9,1.372,0,2.811H84.731q-.9-1.438-1.9-2.811Z" transform="translate(7.599 20.674)"/><path class="b" d="M0,0A49.938,49.938,0,0,0,13.778,1.939,49.945,49.945,0,0,0,27.556,0Z" transform="translate(36.186 97.988)"/><path class="b" d="M3.982,0Q1.927,1.178,0,2.543H57.637Q55.71,1.179,53.656,0Z" transform="translate(21.146 6.618)"/><path class="b" d="M0,0Q.206,1.762.532,3.482h98.16q.326-1.721.531-3.482Z" transform="translate(0.352 55.816)"/><path class="b" d="M.433,0C.257,1.06.107,2.13,0,3.213H99.431C99.323,2.13,99.172,1.06,99,0Z" transform="translate(0.249 41.76)"/><path class="b" d="M.876,0Q.391,1.52,0,3.081H96.936Q96.546,1.519,96.058,0Z" transform="translate(1.496 34.731)"/></g><g transform="matrix(0.259, -0.966, 0.966, 0.259, 657.73, 1966.604)"><path class="a" d="M182.509,526.3a50.2,50.2,0,0,0,4.186,4.014h64.8a50.2,50.2,0,0,0,4.186-4.014Z" transform="translate(3.624 22.807)"/><path class="a" d="M178.553,521.185q1.288,2.007,2.758,3.879h78.524q1.469-1.871,2.76-3.879Z" transform="translate(2.145 20.898)"/><path class="a" d="M238.289,535.554a49.888,49.888,0,0,0,7.126-4.149H188.385a49.872,49.872,0,0,0,7.124,4.149Z" transform="translate(5.82 24.717)"/><path class="a" d="M226.91,467.265a49.874,49.874,0,0,0-27.936,0Z" transform="translate(9.777 0)"/><path class="a" d="M175.82,516.074q.832,1.914,1.813,3.746h87.924q.985-1.828,1.813-3.746Z" transform="translate(1.124 18.988)"/><path class="a" d="M172.813,501.916c0,.728.025,1.451.055,2.171h99.7c.03-.72.055-1.442.055-2.171,0-.393-.021-.782-.03-1.173H172.843C172.834,501.135,172.813,501.523,172.813,501.916Z" transform="translate(0 13.258)"/><path class="a" d="M182.282,477.866h73.8c-.843-.927-1.731-1.813-2.643-2.675H184.926C184.014,476.052,183.127,476.938,182.282,477.866Z" transform="translate(3.539 3.708)"/><path class="a" d="M176.987,485.412c-.481.964-.938,1.942-1.357,2.943H267.7c-.419-1-.878-1.978-1.359-2.943Z" transform="translate(1.053 7.528)"/><path class="a" d="M174.038,510.964c.326,1.224.7,2.427,1.116,3.612H269.37q.622-1.776,1.114-3.612Z" transform="translate(0.458 17.078)"/><path class="a" d="M180.232,480.3q-.993,1.37-1.894,2.808h84.633q-.9-1.436-1.9-2.808Z" transform="translate(2.065 5.618)"/><path class="a" d="M199.124,536.516a49.857,49.857,0,0,0,27.524,0Z" transform="translate(9.833 26.627)"/><path class="a" d="M192.165,470.081q-2.052,1.177-3.977,2.54h57.57q-1.925-1.362-3.977-2.54Z" transform="translate(5.746 1.798)"/><path class="a" d="M173.069,505.853q.206,1.76.532,3.478h98.046q.326-1.719.53-3.478Z" transform="translate(0.096 15.168)"/><path class="a" d="M173.427,495.633c-.176,1.059-.326,2.128-.433,3.209h99.315c-.107-1.081-.258-2.15-.433-3.209Z" transform="translate(0.068 11.348)"/><path class="a" d="M174.776,490.522q-.484,1.519-.875,3.077h96.823q-.389-1.56-.876-3.077Z" transform="translate(0.407 9.438)"/></g><g transform="translate(1021.04 1966.07)"><g transform="translate(0 0)"><path class="a" d="M-879.726,11.408h-.008a1.79,1.79,0,0,0-1.79,1.793,1.8,1.8,0,0,0,1.8,1.793,1.794,1.794,0,0,0,1.793-1.793A1.794,1.794,0,0,0-879.726,11.408Zm0,11.257h-.008a1.79,1.79,0,0,0-1.79,1.793,1.8,1.8,0,0,0,1.8,1.793,1.794,1.794,0,0,0,1.793-1.793A1.794,1.794,0,0,0-879.726,22.665Zm0,22.515h-.008a1.79,1.79,0,0,0-1.79,1.793,1.8,1.8,0,0,0,1.8,1.793,1.793,1.793,0,0,0,1.793-1.793A1.794,1.794,0,0,0-879.726,45.18Zm0-11.258h-.008a1.79,1.79,0,0,0-1.79,1.793,1.8,1.8,0,0,0,1.8,1.793,1.794,1.794,0,0,0,1.793-1.793A1.794,1.794,0,0,0-879.726,33.922Zm12.82-56.289h-.01a1.789,1.789,0,0,0-1.788,1.793,1.8,1.8,0,0,0,1.8,1.793,1.794,1.794,0,0,0,1.793-1.793A1.793,1.793,0,0,0-866.906-22.366ZM-879.726.15h-.008a1.79,1.79,0,0,0-1.79,1.792,1.8,1.8,0,0,0,1.8,1.795,1.8,1.8,0,0,0,1.793-1.795A1.793,1.793,0,0,0-879.726.15Zm-12.82,26.1a1.793,1.793,0,0,0,1.793-1.793,1.793,1.793,0,0,0-1.793-1.793h-.009a1.79,1.79,0,0,0-1.79,1.793A1.8,1.8,0,0,0-892.546,26.251Zm0,11.258a1.793,1.793,0,0,0,1.793-1.793,1.793,1.793,0,0,0-1.793-1.793h-.009a1.79,1.79,0,0,0-1.79,1.793A1.8,1.8,0,0,0-892.546,37.509Zm12.82-71.133h-.008a1.79,1.79,0,0,0-1.79,1.793,1.8,1.8,0,0,0,1.8,1.793,1.794,1.794,0,0,0,1.793-1.793A1.794,1.794,0,0,0-879.726-33.624Zm0,11.258h-.008a1.79,1.79,0,0,0-1.79,1.793,1.8,1.8,0,0,0,1.8,1.793,1.794,1.794,0,0,0,1.793-1.793A1.793,1.793,0,0,0-879.726-22.366Zm0,11.258h-.008a1.79,1.79,0,0,0-1.79,1.793,1.8,1.8,0,0,0,1.8,1.792,1.793,1.793,0,0,0,1.793-1.792A1.793,1.793,0,0,0-879.726-11.109Zm38.46,26.1a1.794,1.794,0,0,0,1.793-1.793,1.794,1.794,0,0,0-1.793-1.793h-.01a1.789,1.789,0,0,0-1.788,1.793A1.8,1.8,0,0,0-841.266,14.995Zm0-11.258a1.8,1.8,0,0,0,1.793-1.795A1.794,1.794,0,0,0-841.266.15h-.01a1.789,1.789,0,0,0-1.788,1.792A1.8,1.8,0,0,0-841.266,3.737Zm-.7-11.4a1.787,1.787,0,0,0,.7.141,1.766,1.766,0,0,0,.73-.163c.007,0,.012-.01.019-.012a1.786,1.786,0,0,0,.567-.423h0a1.774,1.774,0,0,0,.476-1.195,1.794,1.794,0,0,0-1.793-1.793h-.01a1.789,1.789,0,0,0-1.788,1.793h0A1.793,1.793,0,0,0-841.966-7.664Zm-49.312,53.37a1.978,1.978,0,0,0-.185-.125,1.759,1.759,0,0,0-1.083-.4h-.01a1.789,1.789,0,0,0-1.788,1.793,1.78,1.78,0,0,0,.515,1.25h0a1.787,1.787,0,0,0,1.282.543,1.8,1.8,0,0,0,.268-.054h0a1.759,1.759,0,0,0,1.063-.568,1.809,1.809,0,0,0,.106-.159,1.707,1.707,0,0,0,.22-.356,1.725,1.725,0,0,0,.132-.646v-.009a1.776,1.776,0,0,0-.462-1.175C-891.241,45.77-891.251,45.732-891.278,45.706Zm-1.268-30.711a1.793,1.793,0,0,0,1.793-1.793,1.793,1.793,0,0,0-1.793-1.793h-.009a1.79,1.79,0,0,0-1.79,1.793A1.8,1.8,0,0,0-892.546,14.995Zm25.64,18.928h-.01a1.789,1.789,0,0,0-1.788,1.793,1.8,1.8,0,0,0,1.8,1.793,1.793,1.793,0,0,0,1.793-1.793A1.793,1.793,0,0,0-866.906,33.922Zm0-33.772h-.01A1.789,1.789,0,0,0-868.7,1.943a1.8,1.8,0,0,0,1.8,1.795,1.8,1.8,0,0,0,1.793-1.795A1.793,1.793,0,0,0-866.906.15Zm0,11.258h-.01A1.789,1.789,0,0,0-868.7,13.2a1.8,1.8,0,0,0,1.8,1.793,1.793,1.793,0,0,0,1.793-1.793A1.793,1.793,0,0,0-866.906,11.408Zm0,11.257h-.01a1.789,1.789,0,0,0-1.788,1.793,1.8,1.8,0,0,0,1.8,1.793,1.793,1.793,0,0,0,1.793-1.793A1.793,1.793,0,0,0-866.906,22.665Zm0-33.773h-.01A1.789,1.789,0,0,0-868.7-9.315a1.8,1.8,0,0,0,1.8,1.792,1.793,1.793,0,0,0,1.793-1.792A1.793,1.793,0,0,0-866.906-11.109Zm12.82-11.258h-.01a1.789,1.789,0,0,0-1.788,1.793,1.8,1.8,0,0,0,1.8,1.793,1.794,1.794,0,0,0,1.793-1.793A1.793,1.793,0,0,0-854.086-22.366Zm-12.82-7.671a1.793,1.793,0,0,0,1.793-1.793v0a1.736,1.736,0,0,0-.209-.8c-.012-.023-.028-.04-.042-.062a1.762,1.762,0,0,0-.523-.574h0a1.745,1.745,0,0,0-1.017-.356h-.01a1.789,1.789,0,0,0-1.788,1.793A1.8,1.8,0,0,0-866.906-30.037Zm12.82,52.7h-.01a1.789,1.789,0,0,0-1.788,1.793,1.8,1.8,0,0,0,1.8,1.793,1.794,1.794,0,0,0,1.793-1.793A1.794,1.794,0,0,0-854.086,22.665Zm0,11.258h-.01a1.789,1.789,0,0,0-1.788,1.793,1.8,1.8,0,0,0,1.8,1.793,1.794,1.794,0,0,0,1.793-1.793A1.794,1.794,0,0,0-854.086,33.922Zm0-45.031h-.01a1.789,1.789,0,0,0-1.788,1.793,1.8,1.8,0,0,0,1.8,1.792,1.793,1.793,0,0,0,1.793-1.792A1.793,1.793,0,0,0-854.086-11.109Zm0,22.517h-.01a1.789,1.789,0,0,0-1.788,1.793,1.8,1.8,0,0,0,1.8,1.793,1.794,1.794,0,0,0,1.793-1.793A1.794,1.794,0,0,0-854.086,11.408Zm-64.1-22.517h-.01a1.564,1.564,0,0,0-.571.114,1.742,1.742,0,0,0-.439.238h0a1.762,1.762,0,0,0-.775,1.439,1.642,1.642,0,0,0,.044.215h0l0,0a1.755,1.755,0,0,0,.566,1.1c.041.038.095.06.14.095a1.734,1.734,0,0,0,.386.24,1.7,1.7,0,0,0,.661.134,1.8,1.8,0,0,0,1.653-1.095,1.8,1.8,0,0,0,.14-.7,1.8,1.8,0,0,0-.14-.7A1.8,1.8,0,0,0-918.186-11.109ZM-854.086.15h-.01a1.789,1.789,0,0,0-1.788,1.792,1.8,1.8,0,0,0,1.8,1.795,1.8,1.8,0,0,0,1.793-1.795A1.793,1.793,0,0,0-854.086.15Zm-64.1,22.514h-.01a1.7,1.7,0,0,0-.632.128,1.759,1.759,0,0,0-.273.153,1.92,1.92,0,0,0-.22.15,1.727,1.727,0,0,0-.3.332c-.017.026-.034.05-.051.077a1.716,1.716,0,0,0-.218.488h0a1.75,1.75,0,0,0-.092.465,1.78,1.78,0,0,0,1.016,1.6h0a1.756,1.756,0,0,0,.771.193l.009,0a1.793,1.793,0,0,0,1.793-1.793,1.806,1.806,0,0,0-.14-.7A1.8,1.8,0,0,0-918.186,22.665Zm0-22.514h-.01a1.79,1.79,0,0,0-1.789,1.792,1.8,1.8,0,0,0,1.8,1.795,1.794,1.794,0,0,0,1.793-1.795A1.792,1.792,0,0,0-918.186.15Zm0,11.258h-.01a1.79,1.79,0,0,0-1.789,1.793,1.8,1.8,0,0,0,1.8,1.793,1.793,1.793,0,0,0,1.793-1.793A1.793,1.793,0,0,0-918.186,11.408ZM-905.365.15h-.01a1.789,1.789,0,0,0-1.789,1.792,1.8,1.8,0,0,0,1.8,1.795,1.8,1.8,0,0,0,1.793-1.795A1.794,1.794,0,0,0-905.365.15Zm12.819-30.188a1.793,1.793,0,0,0,1.793-1.793,1.793,1.793,0,0,0-1.793-1.793h-.009a1.79,1.79,0,0,0-1.79,1.793A1.8,1.8,0,0,0-892.546-30.037Zm0,22.514a1.793,1.793,0,0,0,1.793-1.792,1.793,1.793,0,0,0-1.793-1.793h-.009a1.79,1.79,0,0,0-1.79,1.793A1.8,1.8,0,0,0-892.546-7.523Zm0-11.257a1.794,1.794,0,0,0,1.793-1.793,1.793,1.793,0,0,0-1.793-1.793h-.009a1.79,1.79,0,0,0-1.79,1.793A1.8,1.8,0,0,0-892.546-18.78Zm-12.819,41.444h-.01a1.789,1.789,0,0,0-1.789,1.793,1.8,1.8,0,0,0,1.8,1.793,1.794,1.794,0,0,0,1.793-1.793A1.794,1.794,0,0,0-905.365,22.665Zm0-11.257h-.01a1.789,1.789,0,0,0-1.789,1.793,1.8,1.8,0,0,0,1.8,1.793,1.794,1.794,0,0,0,1.793-1.793A1.794,1.794,0,0,0-905.365,11.408Zm0-33.774h-.01a1.789,1.789,0,0,0-1.789,1.793,1.8,1.8,0,0,0,1.8,1.793,1.8,1.8,0,0,0,1.793-1.793A1.793,1.793,0,0,0-905.365-22.366Zm12.819,26.1a1.794,1.794,0,0,0,1.793-1.795A1.793,1.793,0,0,0-892.546.15h-.009a1.79,1.79,0,0,0-1.79,1.792A1.8,1.8,0,0,0-892.546,3.737Zm-12.819,30.185h-.01a1.789,1.789,0,0,0-1.789,1.793,1.8,1.8,0,0,0,1.8,1.793,1.794,1.794,0,0,0,1.793-1.793A1.794,1.794,0,0,0-905.365,33.922Zm0-45.031h-.01a1.789,1.789,0,0,0-1.789,1.793,1.8,1.8,0,0,0,1.8,1.792,1.794,1.794,0,0,0,1.793-1.792A1.793,1.793,0,0,0-905.365-11.109ZM-840.6,22.8a1.734,1.734,0,0,0-.566-.114c-.034,0-.065-.021-.1-.021h-.01a1.789,1.789,0,0,0-1.788,1.793,1.736,1.736,0,0,0,.139.676,1.736,1.736,0,0,0,.254.392c.038.047.06.106.1.15a1.774,1.774,0,0,0,1.169.548l.007,0h0c.045,0,.083.026.128.026a1.793,1.793,0,0,0,1.793-1.793A1.786,1.786,0,0,0-840.6,22.8Zm-26.305,22.38h-.01a1.746,1.746,0,0,0-1.081.4,1.734,1.734,0,0,0-.184.124,1.786,1.786,0,0,0-.494,1.128c0,.049-.029.091-.029.14h0a1.713,1.713,0,0,0,.128.624,1.463,1.463,0,0,0,.084.176,1.858,1.858,0,0,0,.24.355,1.721,1.721,0,0,0,.14.155,1.781,1.781,0,0,0,.483.325h0a1.782,1.782,0,0,0,.724.158,1.774,1.774,0,0,0,1.685-1.254,1.519,1.519,0,0,0,.106-.528l0-.011A1.793,1.793,0,0,0-866.906,45.18Z" transform="translate(919.984 33.624)"/></g></g></g></svg>