<svg xmlns="http://www.w3.org/2000/svg" width="243.763" height="220.613" viewBox="0 0 243.763 220.613">
  <g id="bg" transform="translate(-1021 -1834.111)">
    <path id="Path_5416" data-name="Path 5416" d="M-12.36-25.831c36.282-30.606,213.493,26.9,213.493,89.108S181.9,189.013,103.894,182.644s-90.13-21.611-119.542-61.287S-48.642,4.775-12.36-25.831Z" transform="translate(1222.133 2020.418) rotate(180)" fill="#00ceff"/>
    <g id="Group_3358" data-name="Group 3358" transform="matrix(0.259, -0.966, 0.966, 0.259, 657.73, 1966.604)">
      <path id="Path_5397" data-name="Path 5397" d="M182.509,526.3a50.2,50.2,0,0,0,4.186,4.014h64.8a50.2,50.2,0,0,0,4.186-4.014Z" transform="translate(3.624 22.807)" fill="#00ceff"/>
      <path id="Path_5398" data-name="Path 5398" d="M178.553,521.185q1.288,2.007,2.758,3.879h78.524q1.469-1.871,2.76-3.879Z" transform="translate(2.145 20.898)" fill="#00ceff"/>
      <path id="Path_5399" data-name="Path 5399" d="M238.289,535.554a49.888,49.888,0,0,0,7.126-4.149H188.385a49.872,49.872,0,0,0,7.124,4.149Z" transform="translate(5.82 24.717)" fill="#00ceff"/>
      <path id="Path_5400" data-name="Path 5400" d="M226.91,467.265a49.874,49.874,0,0,0-27.936,0Z" transform="translate(9.777 0)" fill="#00ceff"/>
      <path id="Path_5401" data-name="Path 5401" d="M175.82,516.074q.832,1.914,1.813,3.746h87.924q.985-1.828,1.813-3.746Z" transform="translate(1.124 18.988)" fill="#00ceff"/>
      <path id="Path_5402" data-name="Path 5402" d="M172.813,501.916c0,.728.025,1.451.055,2.171h99.7c.03-.72.055-1.442.055-2.171,0-.393-.021-.782-.03-1.173H172.843C172.834,501.135,172.813,501.523,172.813,501.916Z" transform="translate(0 13.258)" fill="#00ceff"/>
      <path id="Path_5403" data-name="Path 5403" d="M182.282,477.866h73.8c-.843-.927-1.731-1.813-2.643-2.675H184.926C184.014,476.052,183.127,476.938,182.282,477.866Z" transform="translate(3.539 3.708)" fill="#00ceff"/>
      <path id="Path_5404" data-name="Path 5404" d="M176.987,485.412c-.481.964-.938,1.942-1.357,2.943H267.7c-.419-1-.878-1.978-1.359-2.943Z" transform="translate(1.053 7.528)" fill="#00ceff"/>
      <path id="Path_5405" data-name="Path 5405" d="M174.038,510.964c.326,1.224.7,2.427,1.116,3.612H269.37q.622-1.776,1.114-3.612Z" transform="translate(0.458 17.078)" fill="#00ceff"/>
      <path id="Path_5406" data-name="Path 5406" d="M180.232,480.3q-.993,1.37-1.894,2.808h84.633q-.9-1.436-1.9-2.808Z" transform="translate(2.065 5.618)" fill="#00ceff"/>
      <path id="Path_5407" data-name="Path 5407" d="M199.124,536.516a49.857,49.857,0,0,0,27.524,0Z" transform="translate(9.833 26.627)" fill="#00ceff"/>
      <path id="Path_5408" data-name="Path 5408" d="M192.165,470.081q-2.052,1.177-3.977,2.54h57.57q-1.925-1.362-3.977-2.54Z" transform="translate(5.746 1.798)" fill="#00ceff"/>
      <path id="Path_5409" data-name="Path 5409" d="M173.069,505.853q.206,1.76.532,3.478h98.046q.326-1.719.53-3.478Z" transform="translate(0.096 15.168)" fill="#00ceff"/>
      <path id="Path_5410" data-name="Path 5410" d="M173.427,495.633c-.176,1.059-.326,2.128-.433,3.209h99.315c-.107-1.081-.258-2.15-.433-3.209Z" transform="translate(0.068 11.348)" fill="#00ceff"/>
      <path id="Path_5411" data-name="Path 5411" d="M174.776,490.522q-.484,1.519-.875,3.077h96.823q-.389-1.56-.876-3.077Z" transform="translate(0.407 9.438)" fill="#00ceff"/>
    </g>
    <g id="Group_3320" data-name="Group 3320" transform="translate(1021.04 1966.07)">
      <g id="Group_2725" data-name="Group 2725" transform="translate(0 0)">
        <path id="Path_4950" data-name="Path 4950" d="M-879.726,11.408h-.008a1.79,1.79,0,0,0-1.79,1.793,1.8,1.8,0,0,0,1.8,1.793,1.794,1.794,0,0,0,1.793-1.793A1.794,1.794,0,0,0-879.726,11.408Zm0,11.257h-.008a1.79,1.79,0,0,0-1.79,1.793,1.8,1.8,0,0,0,1.8,1.793,1.794,1.794,0,0,0,1.793-1.793A1.794,1.794,0,0,0-879.726,22.665Zm0,22.515h-.008a1.79,1.79,0,0,0-1.79,1.793,1.8,1.8,0,0,0,1.8,1.793,1.793,1.793,0,0,0,1.793-1.793A1.794,1.794,0,0,0-879.726,45.18Zm0-11.258h-.008a1.79,1.79,0,0,0-1.79,1.793,1.8,1.8,0,0,0,1.8,1.793,1.794,1.794,0,0,0,1.793-1.793A1.794,1.794,0,0,0-879.726,33.922Zm12.82-56.289h-.01a1.789,1.789,0,0,0-1.788,1.793,1.8,1.8,0,0,0,1.8,1.793,1.794,1.794,0,0,0,1.793-1.793A1.793,1.793,0,0,0-866.906-22.366ZM-879.726.15h-.008a1.79,1.79,0,0,0-1.79,1.792,1.8,1.8,0,0,0,1.8,1.795,1.8,1.8,0,0,0,1.793-1.795A1.793,1.793,0,0,0-879.726.15Zm-12.82,26.1a1.793,1.793,0,0,0,1.793-1.793,1.793,1.793,0,0,0-1.793-1.793h-.009a1.79,1.79,0,0,0-1.79,1.793A1.8,1.8,0,0,0-892.546,26.251Zm0,11.258a1.793,1.793,0,0,0,1.793-1.793,1.793,1.793,0,0,0-1.793-1.793h-.009a1.79,1.79,0,0,0-1.79,1.793A1.8,1.8,0,0,0-892.546,37.509Zm12.82-71.133h-.008a1.79,1.79,0,0,0-1.79,1.793,1.8,1.8,0,0,0,1.8,1.793,1.794,1.794,0,0,0,1.793-1.793A1.794,1.794,0,0,0-879.726-33.624Zm0,11.258h-.008a1.79,1.79,0,0,0-1.79,1.793,1.8,1.8,0,0,0,1.8,1.793,1.794,1.794,0,0,0,1.793-1.793A1.793,1.793,0,0,0-879.726-22.366Zm0,11.258h-.008a1.79,1.79,0,0,0-1.79,1.793,1.8,1.8,0,0,0,1.8,1.792,1.793,1.793,0,0,0,1.793-1.792A1.793,1.793,0,0,0-879.726-11.109Zm38.46,26.1a1.794,1.794,0,0,0,1.793-1.793,1.794,1.794,0,0,0-1.793-1.793h-.01a1.789,1.789,0,0,0-1.788,1.793A1.8,1.8,0,0,0-841.266,14.995Zm0-11.258a1.8,1.8,0,0,0,1.793-1.795A1.794,1.794,0,0,0-841.266.15h-.01a1.789,1.789,0,0,0-1.788,1.792A1.8,1.8,0,0,0-841.266,3.737Zm-.7-11.4a1.787,1.787,0,0,0,.7.141,1.766,1.766,0,0,0,.73-.163c.007,0,.012-.01.019-.012a1.786,1.786,0,0,0,.567-.423h0a1.774,1.774,0,0,0,.476-1.195,1.794,1.794,0,0,0-1.793-1.793h-.01a1.789,1.789,0,0,0-1.788,1.793h0A1.793,1.793,0,0,0-841.966-7.664Zm-49.312,53.37a1.978,1.978,0,0,0-.185-.125,1.759,1.759,0,0,0-1.083-.4h-.01a1.789,1.789,0,0,0-1.788,1.793,1.78,1.78,0,0,0,.515,1.25h0a1.787,1.787,0,0,0,1.282.543,1.8,1.8,0,0,0,.268-.054h0a1.759,1.759,0,0,0,1.063-.568,1.809,1.809,0,0,0,.106-.159,1.707,1.707,0,0,0,.22-.356,1.725,1.725,0,0,0,.132-.646v-.009a1.776,1.776,0,0,0-.462-1.175C-891.241,45.77-891.251,45.732-891.278,45.706Zm-1.268-30.711a1.793,1.793,0,0,0,1.793-1.793,1.793,1.793,0,0,0-1.793-1.793h-.009a1.79,1.79,0,0,0-1.79,1.793A1.8,1.8,0,0,0-892.546,14.995Zm25.64,18.928h-.01a1.789,1.789,0,0,0-1.788,1.793,1.8,1.8,0,0,0,1.8,1.793,1.793,1.793,0,0,0,1.793-1.793A1.793,1.793,0,0,0-866.906,33.922Zm0-33.772h-.01A1.789,1.789,0,0,0-868.7,1.943a1.8,1.8,0,0,0,1.8,1.795,1.8,1.8,0,0,0,1.793-1.795A1.793,1.793,0,0,0-866.906.15Zm0,11.258h-.01A1.789,1.789,0,0,0-868.7,13.2a1.8,1.8,0,0,0,1.8,1.793,1.793,1.793,0,0,0,1.793-1.793A1.793,1.793,0,0,0-866.906,11.408Zm0,11.257h-.01a1.789,1.789,0,0,0-1.788,1.793,1.8,1.8,0,0,0,1.8,1.793,1.793,1.793,0,0,0,1.793-1.793A1.793,1.793,0,0,0-866.906,22.665Zm0-33.773h-.01A1.789,1.789,0,0,0-868.7-9.315a1.8,1.8,0,0,0,1.8,1.792,1.793,1.793,0,0,0,1.793-1.792A1.793,1.793,0,0,0-866.906-11.109Zm12.82-11.258h-.01a1.789,1.789,0,0,0-1.788,1.793,1.8,1.8,0,0,0,1.8,1.793,1.794,1.794,0,0,0,1.793-1.793A1.793,1.793,0,0,0-854.086-22.366Zm-12.82-7.671a1.793,1.793,0,0,0,1.793-1.793v0a1.736,1.736,0,0,0-.209-.8c-.012-.023-.028-.04-.042-.062a1.762,1.762,0,0,0-.523-.574h0a1.745,1.745,0,0,0-1.017-.356h-.01a1.789,1.789,0,0,0-1.788,1.793A1.8,1.8,0,0,0-866.906-30.037Zm12.82,52.7h-.01a1.789,1.789,0,0,0-1.788,1.793,1.8,1.8,0,0,0,1.8,1.793,1.794,1.794,0,0,0,1.793-1.793A1.794,1.794,0,0,0-854.086,22.665Zm0,11.258h-.01a1.789,1.789,0,0,0-1.788,1.793,1.8,1.8,0,0,0,1.8,1.793,1.794,1.794,0,0,0,1.793-1.793A1.794,1.794,0,0,0-854.086,33.922Zm0-45.031h-.01a1.789,1.789,0,0,0-1.788,1.793,1.8,1.8,0,0,0,1.8,1.792,1.793,1.793,0,0,0,1.793-1.792A1.793,1.793,0,0,0-854.086-11.109Zm0,22.517h-.01a1.789,1.789,0,0,0-1.788,1.793,1.8,1.8,0,0,0,1.8,1.793,1.794,1.794,0,0,0,1.793-1.793A1.794,1.794,0,0,0-854.086,11.408Zm-64.1-22.517h-.01a1.564,1.564,0,0,0-.571.114,1.742,1.742,0,0,0-.439.238h0a1.762,1.762,0,0,0-.775,1.439,1.642,1.642,0,0,0,.044.215h0l0,0a1.755,1.755,0,0,0,.566,1.1c.041.038.095.06.14.095a1.734,1.734,0,0,0,.386.24,1.7,1.7,0,0,0,.661.134,1.8,1.8,0,0,0,1.653-1.095,1.8,1.8,0,0,0,.14-.7,1.8,1.8,0,0,0-.14-.7A1.8,1.8,0,0,0-918.186-11.109ZM-854.086.15h-.01a1.789,1.789,0,0,0-1.788,1.792,1.8,1.8,0,0,0,1.8,1.795,1.8,1.8,0,0,0,1.793-1.795A1.793,1.793,0,0,0-854.086.15Zm-64.1,22.514h-.01a1.7,1.7,0,0,0-.632.128,1.759,1.759,0,0,0-.273.153,1.92,1.92,0,0,0-.22.15,1.727,1.727,0,0,0-.3.332c-.017.026-.034.05-.051.077a1.716,1.716,0,0,0-.218.488h0a1.75,1.75,0,0,0-.092.465,1.78,1.78,0,0,0,1.016,1.6h0a1.756,1.756,0,0,0,.771.193l.009,0a1.793,1.793,0,0,0,1.793-1.793,1.806,1.806,0,0,0-.14-.7A1.8,1.8,0,0,0-918.186,22.665Zm0-22.514h-.01a1.79,1.79,0,0,0-1.789,1.792,1.8,1.8,0,0,0,1.8,1.795,1.794,1.794,0,0,0,1.793-1.795A1.792,1.792,0,0,0-918.186.15Zm0,11.258h-.01a1.79,1.79,0,0,0-1.789,1.793,1.8,1.8,0,0,0,1.8,1.793,1.793,1.793,0,0,0,1.793-1.793A1.793,1.793,0,0,0-918.186,11.408ZM-905.365.15h-.01a1.789,1.789,0,0,0-1.789,1.792,1.8,1.8,0,0,0,1.8,1.795,1.8,1.8,0,0,0,1.793-1.795A1.794,1.794,0,0,0-905.365.15Zm12.819-30.188a1.793,1.793,0,0,0,1.793-1.793,1.793,1.793,0,0,0-1.793-1.793h-.009a1.79,1.79,0,0,0-1.79,1.793A1.8,1.8,0,0,0-892.546-30.037Zm0,22.514a1.793,1.793,0,0,0,1.793-1.792,1.793,1.793,0,0,0-1.793-1.793h-.009a1.79,1.79,0,0,0-1.79,1.793A1.8,1.8,0,0,0-892.546-7.523Zm0-11.257a1.794,1.794,0,0,0,1.793-1.793,1.793,1.793,0,0,0-1.793-1.793h-.009a1.79,1.79,0,0,0-1.79,1.793A1.8,1.8,0,0,0-892.546-18.78Zm-12.819,41.444h-.01a1.789,1.789,0,0,0-1.789,1.793,1.8,1.8,0,0,0,1.8,1.793,1.794,1.794,0,0,0,1.793-1.793A1.794,1.794,0,0,0-905.365,22.665Zm0-11.257h-.01a1.789,1.789,0,0,0-1.789,1.793,1.8,1.8,0,0,0,1.8,1.793,1.794,1.794,0,0,0,1.793-1.793A1.794,1.794,0,0,0-905.365,11.408Zm0-33.774h-.01a1.789,1.789,0,0,0-1.789,1.793,1.8,1.8,0,0,0,1.8,1.793,1.8,1.8,0,0,0,1.793-1.793A1.793,1.793,0,0,0-905.365-22.366Zm12.819,26.1a1.794,1.794,0,0,0,1.793-1.795A1.793,1.793,0,0,0-892.546.15h-.009a1.79,1.79,0,0,0-1.79,1.792A1.8,1.8,0,0,0-892.546,3.737Zm-12.819,30.185h-.01a1.789,1.789,0,0,0-1.789,1.793,1.8,1.8,0,0,0,1.8,1.793,1.794,1.794,0,0,0,1.793-1.793A1.794,1.794,0,0,0-905.365,33.922Zm0-45.031h-.01a1.789,1.789,0,0,0-1.789,1.793,1.8,1.8,0,0,0,1.8,1.792,1.794,1.794,0,0,0,1.793-1.792A1.793,1.793,0,0,0-905.365-11.109ZM-840.6,22.8a1.734,1.734,0,0,0-.566-.114c-.034,0-.065-.021-.1-.021h-.01a1.789,1.789,0,0,0-1.788,1.793,1.736,1.736,0,0,0,.139.676,1.736,1.736,0,0,0,.254.392c.038.047.06.106.1.15a1.774,1.774,0,0,0,1.169.548l.007,0h0c.045,0,.083.026.128.026a1.793,1.793,0,0,0,1.793-1.793A1.786,1.786,0,0,0-840.6,22.8Zm-26.305,22.38h-.01a1.746,1.746,0,0,0-1.081.4,1.734,1.734,0,0,0-.184.124,1.786,1.786,0,0,0-.494,1.128c0,.049-.029.091-.029.14h0a1.713,1.713,0,0,0,.128.624,1.463,1.463,0,0,0,.084.176,1.858,1.858,0,0,0,.24.355,1.721,1.721,0,0,0,.14.155,1.781,1.781,0,0,0,.483.325h0a1.782,1.782,0,0,0,.724.158,1.774,1.774,0,0,0,1.685-1.254,1.519,1.519,0,0,0,.106-.528l0-.011A1.793,1.793,0,0,0-866.906,45.18Z" transform="translate(919.984 33.624)" fill="#00ceff"/>
      </g>
    </g>
  </g>
</svg>
