<svg xmlns="http://www.w3.org/2000/svg" width="356.283" height="287.388" viewBox="0 0 356.283 287.388"><g transform="translate(-967.757 -778.298)"><path d="M-3.512-23.882C45.066-63.1,162.979-1.428,226.236,51.135S253.7,154.866,195.046,184.114,31.011,218.964-8.367,168.126-52.089,15.333-3.512-23.882Z" transform="translate(1031.801 829.234)" fill="#00ceff"/><g transform="translate(967.757 937.058)"><g transform="translate(0 0)"><path d="M-857.134,36.68h-.013a2.8,2.8,0,0,0-2.794,2.8,2.807,2.807,0,0,0,2.807,2.8,2.8,2.8,0,0,0,2.8-2.8A2.8,2.8,0,0,0-857.134,36.68Zm0,17.574h-.013a2.8,2.8,0,0,0-2.794,2.8,2.807,2.807,0,0,0,2.807,2.8,2.8,2.8,0,0,0,2.8-2.8A2.8,2.8,0,0,0-857.134,54.254Zm0,35.151h-.013a2.8,2.8,0,0,0-2.794,2.8,2.805,2.805,0,0,0,2.807,2.8,2.8,2.8,0,0,0,2.8-2.8A2.8,2.8,0,0,0-857.134,89.405Zm0-17.576h-.013a2.8,2.8,0,0,0-2.794,2.8,2.807,2.807,0,0,0,2.807,2.8,2.8,2.8,0,0,0,2.8-2.8A2.8,2.8,0,0,0-857.134,71.83Zm20.015-87.878h-.015a2.792,2.792,0,0,0-2.792,2.8,2.808,2.808,0,0,0,2.807,2.8,2.8,2.8,0,0,0,2.8-2.8A2.8,2.8,0,0,0-837.119-16.048ZM-857.134,19.1h-.013a2.8,2.8,0,0,0-2.794,2.8,2.808,2.808,0,0,0,2.807,2.8,2.8,2.8,0,0,0,2.8-2.8A2.8,2.8,0,0,0-857.134,19.1Zm-20.014,40.749a2.8,2.8,0,0,0,2.8-2.8,2.8,2.8,0,0,0-2.8-2.8h-.013a2.8,2.8,0,0,0-2.794,2.8A2.807,2.807,0,0,0-877.148,59.854Zm0,17.576a2.8,2.8,0,0,0,2.8-2.8,2.8,2.8,0,0,0-2.8-2.8h-.013a2.8,2.8,0,0,0-2.794,2.8A2.807,2.807,0,0,0-877.148,77.429Zm20.014-111.053h-.013a2.8,2.8,0,0,0-2.794,2.8,2.807,2.807,0,0,0,2.807,2.8,2.8,2.8,0,0,0,2.8-2.8A2.8,2.8,0,0,0-857.134-33.624Zm0,17.576h-.013a2.794,2.794,0,0,0-2.794,2.8,2.808,2.808,0,0,0,2.807,2.8,2.8,2.8,0,0,0,2.8-2.8A2.8,2.8,0,0,0-857.134-16.048Zm0,17.576h-.013a2.794,2.794,0,0,0-2.794,2.8,2.806,2.806,0,0,0,2.807,2.8,2.8,2.8,0,0,0,2.8-2.8A2.8,2.8,0,0,0-857.134,1.527ZM-797.09,42.28a2.8,2.8,0,0,0,2.8-2.8,2.8,2.8,0,0,0-2.8-2.8h-.015a2.793,2.793,0,0,0-2.792,2.8A2.806,2.806,0,0,0-797.09,42.28Zm0-17.576a2.8,2.8,0,0,0,2.8-2.8,2.8,2.8,0,0,0-2.8-2.8h-.015a2.793,2.793,0,0,0-2.792,2.8A2.808,2.808,0,0,0-797.09,24.7Zm-1.092-17.8a2.789,2.789,0,0,0,1.092.22,2.757,2.757,0,0,0,1.14-.255c.011,0,.019-.015.03-.019a2.791,2.791,0,0,0,.885-.661h0a2.77,2.77,0,0,0,.742-1.865,2.8,2.8,0,0,0-2.8-2.8h-.015a2.793,2.793,0,0,0-2.792,2.8h0v0A2.8,2.8,0,0,0-798.182,6.9Zm-76.987,83.321a3.071,3.071,0,0,0-.288-.2,2.746,2.746,0,0,0-1.691-.625h-.015a2.793,2.793,0,0,0-2.792,2.8,2.78,2.78,0,0,0,.8,1.951l0,0a2.79,2.79,0,0,0,2,.847,2.8,2.8,0,0,0,.418-.084h0l.006,0a2.746,2.746,0,0,0,1.66-.887,2.84,2.84,0,0,0,.165-.249,2.674,2.674,0,0,0,.344-.557,2.694,2.694,0,0,0,.205-1.009l0-.013a2.772,2.772,0,0,0-.722-1.835C-875.11,90.326-875.127,90.268-875.169,90.226Zm-1.979-47.946a2.8,2.8,0,0,0,2.8-2.8,2.8,2.8,0,0,0-2.8-2.8h-.013a2.8,2.8,0,0,0-2.794,2.8A2.807,2.807,0,0,0-877.148,42.28Zm40.029,29.55h-.015a2.793,2.793,0,0,0-2.792,2.8,2.807,2.807,0,0,0,2.807,2.8,2.8,2.8,0,0,0,2.8-2.8A2.8,2.8,0,0,0-837.119,71.83Zm0-52.725h-.015a2.793,2.793,0,0,0-2.792,2.8,2.808,2.808,0,0,0,2.807,2.8,2.8,2.8,0,0,0,2.8-2.8A2.8,2.8,0,0,0-837.119,19.1Zm0,17.576h-.015a2.793,2.793,0,0,0-2.792,2.8,2.807,2.807,0,0,0,2.807,2.8,2.8,2.8,0,0,0,2.8-2.8A2.8,2.8,0,0,0-837.119,36.68Zm0,17.574h-.015a2.793,2.793,0,0,0-2.792,2.8,2.807,2.807,0,0,0,2.807,2.8,2.8,2.8,0,0,0,2.8-2.8A2.8,2.8,0,0,0-837.119,54.254Zm0-52.727h-.015a2.792,2.792,0,0,0-2.792,2.8,2.806,2.806,0,0,0,2.807,2.8,2.8,2.8,0,0,0,2.8-2.8A2.8,2.8,0,0,0-837.119,1.527ZM-817.1-16.048h-.015a2.792,2.792,0,0,0-2.792,2.8,2.808,2.808,0,0,0,2.808,2.8,2.8,2.8,0,0,0,2.8-2.8A2.8,2.8,0,0,0-817.1-16.048Zm-20.015-11.976a2.8,2.8,0,0,0,2.8-2.8l0,0a2.712,2.712,0,0,0-.327-1.246c-.019-.036-.044-.063-.065-.1a2.752,2.752,0,0,0-.816-.9h0a2.725,2.725,0,0,0-1.588-.557h-.015a2.793,2.793,0,0,0-2.792,2.8A2.808,2.808,0,0,0-837.119-28.024ZM-817.1,54.254h-.015a2.793,2.793,0,0,0-2.792,2.8,2.806,2.806,0,0,0,2.808,2.8,2.8,2.8,0,0,0,2.8-2.8A2.8,2.8,0,0,0-817.1,54.254Zm0,17.576h-.015a2.793,2.793,0,0,0-2.792,2.8,2.806,2.806,0,0,0,2.808,2.8,2.8,2.8,0,0,0,2.8-2.8A2.8,2.8,0,0,0-817.1,71.83Zm0-70.3h-.015a2.792,2.792,0,0,0-2.792,2.8,2.806,2.806,0,0,0,2.808,2.8,2.8,2.8,0,0,0,2.8-2.8A2.8,2.8,0,0,0-817.1,1.527Zm0,35.153h-.015a2.793,2.793,0,0,0-2.792,2.8,2.806,2.806,0,0,0,2.808,2.8,2.8,2.8,0,0,0,2.8-2.8A2.8,2.8,0,0,0-817.1,36.68ZM-917.177,1.527h-.015a2.44,2.44,0,0,0-.891.179,2.719,2.719,0,0,0-.686.372h0l0,0a2.751,2.751,0,0,0-1.21,2.247,2.562,2.562,0,0,0,.068.336h0l0,.008a2.74,2.74,0,0,0,.883,1.723c.065.059.148.093.218.148a2.705,2.705,0,0,0,.6.374,2.652,2.652,0,0,0,1.031.209,2.8,2.8,0,0,0,2.581-1.71,2.805,2.805,0,0,0,.218-1.088,2.808,2.808,0,0,0-.218-1.09A2.8,2.8,0,0,0-917.177,1.527ZM-817.1,19.1h-.015a2.793,2.793,0,0,0-2.792,2.8,2.808,2.808,0,0,0,2.808,2.8,2.8,2.8,0,0,0,2.8-2.8A2.8,2.8,0,0,0-817.1,19.1ZM-917.177,54.254h-.015a2.655,2.655,0,0,0-.986.2,2.752,2.752,0,0,0-.426.239,3.018,3.018,0,0,0-.344.234,2.7,2.7,0,0,0-.469.519c-.027.04-.054.078-.08.12a2.676,2.676,0,0,0-.34.762l0,0h0a2.734,2.734,0,0,0-.144.726,2.78,2.78,0,0,0,1.586,2.492h0l0,0a2.742,2.742,0,0,0,1.2.3l.013,0a2.8,2.8,0,0,0,2.8-2.8,2.822,2.822,0,0,0-.218-1.09A2.8,2.8,0,0,0-917.177,54.254Zm0-35.149h-.015a2.794,2.794,0,0,0-2.792,2.8,2.809,2.809,0,0,0,2.807,2.8,2.8,2.8,0,0,0,2.8-2.8A2.8,2.8,0,0,0-917.177,19.1Zm0,17.576h-.015a2.8,2.8,0,0,0-2.792,2.8,2.808,2.808,0,0,0,2.807,2.8,2.8,2.8,0,0,0,2.8-2.8A2.8,2.8,0,0,0-917.177,36.68ZM-897.161,19.1h-.015a2.793,2.793,0,0,0-2.792,2.8,2.808,2.808,0,0,0,2.807,2.8,2.8,2.8,0,0,0,2.8-2.8A2.8,2.8,0,0,0-897.161,19.1Zm20.013-47.129a2.8,2.8,0,0,0,2.8-2.8,2.8,2.8,0,0,0-2.8-2.8h-.013a2.8,2.8,0,0,0-2.794,2.8A2.807,2.807,0,0,0-877.148-28.024Zm0,35.149a2.8,2.8,0,0,0,2.8-2.8,2.8,2.8,0,0,0-2.8-2.8h-.013a2.794,2.794,0,0,0-2.794,2.8A2.806,2.806,0,0,0-877.148,7.125Zm0-17.574a2.8,2.8,0,0,0,2.8-2.8,2.8,2.8,0,0,0-2.8-2.8h-.013a2.794,2.794,0,0,0-2.794,2.8A2.808,2.808,0,0,0-877.148-10.449Zm-20.013,64.7h-.015a2.793,2.793,0,0,0-2.792,2.8,2.807,2.807,0,0,0,2.807,2.8,2.8,2.8,0,0,0,2.8-2.8A2.8,2.8,0,0,0-897.161,54.254Zm0-17.574h-.015a2.793,2.793,0,0,0-2.792,2.8,2.807,2.807,0,0,0,2.807,2.8,2.8,2.8,0,0,0,2.8-2.8A2.8,2.8,0,0,0-897.161,36.68Zm0-52.729h-.015a2.792,2.792,0,0,0-2.792,2.8,2.808,2.808,0,0,0,2.807,2.8,2.8,2.8,0,0,0,2.8-2.8A2.8,2.8,0,0,0-897.161-16.048ZM-877.148,24.7a2.8,2.8,0,0,0,2.8-2.8,2.8,2.8,0,0,0-2.8-2.8h-.013a2.8,2.8,0,0,0-2.794,2.8A2.808,2.808,0,0,0-877.148,24.7ZM-897.161,71.83h-.015a2.793,2.793,0,0,0-2.792,2.8,2.807,2.807,0,0,0,2.807,2.8,2.8,2.8,0,0,0,2.8-2.8A2.8,2.8,0,0,0-897.161,71.83Zm0-70.3h-.015a2.792,2.792,0,0,0-2.792,2.8,2.806,2.806,0,0,0,2.807,2.8,2.8,2.8,0,0,0,2.8-2.8A2.8,2.8,0,0,0-897.161,1.527Zm101.11,52.938a2.708,2.708,0,0,0-.883-.179c-.053,0-.1-.032-.156-.032h-.015a2.793,2.793,0,0,0-2.792,2.8,2.711,2.711,0,0,0,.216,1.056,2.717,2.717,0,0,0,.4.612c.059.074.093.165.158.234a2.77,2.77,0,0,0,1.825.855l.011,0h0c.07,0,.129.04.2.04a2.8,2.8,0,0,0,2.8-2.8A2.789,2.789,0,0,0-796.051,54.465Zm-41.068,34.94h-.015a2.726,2.726,0,0,0-1.688.627,2.7,2.7,0,0,0-.287.194,2.789,2.789,0,0,0-.771,1.761c-.007.076-.046.142-.046.218h0a2.677,2.677,0,0,0,.2.974,2.316,2.316,0,0,0,.131.275,2.915,2.915,0,0,0,.374.555,2.7,2.7,0,0,0,.219.241,2.776,2.776,0,0,0,.754.507h0a2.78,2.78,0,0,0,1.13.247,2.77,2.77,0,0,0,2.631-1.958,2.369,2.369,0,0,0,.165-.824l0-.017A2.8,2.8,0,0,0-837.119,89.405Z" transform="translate(919.984 33.624)" fill="#00ceff"/></g></g><g transform="matrix(0.966, 0.259, -0.259, 0.966, 1201.1, 765)"><path d="M0,0A71.778,71.778,0,0,0,5.984,5.739H98.632A71.783,71.783,0,0,0,104.617,0Z" transform="translate(19.043 119.858)" fill="#00ceff"/><path d="M0,0Q1.841,2.869,3.944,5.546H116.211q2.1-2.675,3.946-5.546Z" transform="translate(11.274 109.822)" fill="#00ceff"/><path d="M71.348,5.931A71.325,71.325,0,0,0,81.535,0H0A71.3,71.3,0,0,0,10.186,5.931Z" transform="translate(30.584 129.894)" fill="#00ceff"/><path d="M39.941,2.854A71.3,71.3,0,0,0,0,2.854Z" transform="translate(51.381 0)" fill="#00ceff"/><path d="M0,0Q1.19,2.737,2.593,5.356H128.3Q129.708,2.743,130.892,0Z" transform="translate(5.906 99.783)" fill="#00ceff"/><path d="M0,1.677c0,1.041.035,2.074.079,3.1H142.625c.043-1.029.078-2.062.078-3.1,0-.562-.029-1.118-.043-1.677H.043C.029.56,0,1.116,0,1.677Z" transform="translate(0 69.673)" fill="#00ceff"/><path d="M0,3.824H105.507C104.3,2.5,103.032,1.231,101.728,0H3.781C2.477,1.231,1.208,2.5,0,3.824Z" transform="translate(18.598 19.487)" fill="#00ceff"/><path d="M1.94,0C1.253,1.379.6,2.777,0,4.207H131.638c-.6-1.43-1.255-2.828-1.942-4.207Z" transform="translate(5.533 39.562)" fill="#00ceff"/><path d="M0,0C.465,1.75,1,3.471,1.595,5.164H136.3q.89-2.54,1.593-5.164Z" transform="translate(2.406 89.747)" fill="#00ceff"/><path d="M2.708,0Q1.288,1.959,0,4.015H121Q119.714,1.961,118.291,0Z" transform="translate(10.851 29.524)" fill="#00ceff"/><path d="M0,0A71.313,71.313,0,0,0,19.676,2.769,71.324,71.324,0,0,0,39.352,0Z" transform="translate(51.676 139.932)" fill="#00ceff"/><path d="M5.686,0Q2.752,1.682,0,3.631H82.309Q79.558,1.684,76.623,0Z" transform="translate(30.197 9.451)" fill="#00ceff"/><path d="M0,0Q.295,2.516.76,4.973H140.938Q141.4,2.516,141.7,0Z" transform="translate(0.503 79.709)" fill="#00ceff"/><path d="M.619,0C.367,1.514.153,3.042,0,4.588H141.993c-.153-1.546-.369-3.074-.619-4.588Z" transform="translate(0.355 59.636)" fill="#00ceff"/><path d="M1.251,0Q.559,2.171,0,4.4H138.43q-.557-2.23-1.253-4.4Z" transform="translate(2.137 49.598)" fill="#00ceff"/></g><g transform="translate(1219.588 931.923) rotate(30)"><g transform="translate(0)"><path d="M555.192,25.431a2.824,2.824,0,1,0-2-.827,2.847,2.847,0,0,0,2,.827" transform="translate(-552.369 -8.189)" fill="#fff"/><path d="M575.813,25.431h.014a2.823,2.823,0,1,0,0-5.646h-.014a2.823,2.823,0,1,0,0,5.646Z" transform="translate(-543.885 -8.189)" fill="#fff"/><path d="M565.5,25.431h.014a2.823,2.823,0,0,0,0-5.646H565.5a2.823,2.823,0,1,0,0,5.646Z" transform="translate(-548.128 -8.189)" fill="#fff"/><path d="M555.192,17.215a2.824,2.824,0,1,0-2-.827,2.841,2.841,0,0,0,2,.827" transform="translate(-552.369 -11.569)" fill="#fff"/><path d="M575.813,17.215h.014a2.823,2.823,0,1,0,0-5.646h-.014a2.823,2.823,0,1,0,0,5.646Z" transform="translate(-543.885 -11.569)" fill="#fff"/><path d="M565.5,17.215h.014a2.823,2.823,0,0,0,0-5.646H565.5a2.823,2.823,0,1,0,0,5.646Z" transform="translate(-548.128 -11.569)" fill="#fff"/><path d="M555.192,33.646a2.824,2.824,0,1,0-2-.827,2.841,2.841,0,0,0,2,.827" transform="translate(-552.369 -4.809)" fill="#fff"/><path d="M575.813,33.646h.014a2.823,2.823,0,1,0,0-5.646h-.014a2.823,2.823,0,1,0,0,5.646Z" transform="translate(-543.885 -4.809)" fill="#fff"/><path d="M565.5,33.646h.014a2.823,2.823,0,0,0,0-5.646H565.5a2.823,2.823,0,1,0,0,5.646Z" transform="translate(-548.128 -4.809)" fill="#fff"/></g><g transform="translate(0 35.285)"><path d="M555.192,25.431a2.824,2.824,0,1,0-2-.827,2.847,2.847,0,0,0,2,.827" transform="translate(-552.369 -8.189)" fill="#fff"/><path d="M575.813,25.431h.014a2.823,2.823,0,1,0,0-5.646h-.014a2.823,2.823,0,1,0,0,5.646Z" transform="translate(-543.885 -8.189)" fill="#fff"/><path d="M565.5,25.431h.014a2.823,2.823,0,0,0,0-5.646H565.5a2.823,2.823,0,1,0,0,5.646Z" transform="translate(-548.128 -8.189)" fill="#fff"/><path d="M555.192,17.215a2.824,2.824,0,1,0-2-.827,2.841,2.841,0,0,0,2,.827" transform="translate(-552.369 -11.569)" fill="#fff"/><path d="M575.813,17.215h.014a2.823,2.823,0,1,0,0-5.646h-.014a2.823,2.823,0,1,0,0,5.646Z" transform="translate(-543.885 -11.569)" fill="#fff"/><path d="M565.5,17.215h.014a2.823,2.823,0,0,0,0-5.646H565.5a2.823,2.823,0,1,0,0,5.646Z" transform="translate(-548.128 -11.569)" fill="#fff"/><path d="M555.192,33.646a2.824,2.824,0,1,0-2-.827,2.841,2.841,0,0,0,2,.827" transform="translate(-552.369 -4.809)" fill="#fff"/><path d="M575.813,33.646h.014a2.823,2.823,0,1,0,0-5.646h-.014a2.823,2.823,0,1,0,0,5.646Z" transform="translate(-543.885 -4.809)" fill="#fff"/><path d="M565.5,33.646h.014a2.823,2.823,0,0,0,0-5.646H565.5a2.823,2.823,0,1,0,0,5.646Z" transform="translate(-548.128 -4.809)" fill="#fff"/></g><g transform="translate(42.342)"><path d="M555.192,25.431a2.824,2.824,0,1,0-2-.827,2.847,2.847,0,0,0,2,.827" transform="translate(-552.369 -8.189)" fill="#fff"/><path d="M575.813,25.431h.014a2.823,2.823,0,1,0,0-5.646h-.014a2.823,2.823,0,1,0,0,5.646Z" transform="translate(-543.885 -8.189)" fill="#fff"/><path d="M565.5,25.431h.014a2.823,2.823,0,0,0,0-5.646H565.5a2.823,2.823,0,1,0,0,5.646Z" transform="translate(-548.128 -8.189)" fill="#fff"/><path d="M555.192,17.215a2.824,2.824,0,1,0-2-.827,2.841,2.841,0,0,0,2,.827" transform="translate(-552.369 -11.569)" fill="#fff"/><path d="M575.813,17.215h.014a2.823,2.823,0,1,0,0-5.646h-.014a2.823,2.823,0,1,0,0,5.646Z" transform="translate(-543.885 -11.569)" fill="#fff"/><path d="M565.5,17.215h.014a2.823,2.823,0,0,0,0-5.646H565.5a2.823,2.823,0,1,0,0,5.646Z" transform="translate(-548.128 -11.569)" fill="#fff"/><path d="M555.192,33.646a2.824,2.824,0,1,0-2-.827,2.841,2.841,0,0,0,2,.827" transform="translate(-552.369 -4.809)" fill="#fff"/><path d="M575.813,33.646h.014a2.823,2.823,0,1,0,0-5.646h-.014a2.823,2.823,0,1,0,0,5.646Z" transform="translate(-543.885 -4.809)" fill="#fff"/><path d="M565.5,33.646h.014a2.823,2.823,0,0,0,0-5.646H565.5a2.823,2.823,0,1,0,0,5.646Z" transform="translate(-548.128 -4.809)" fill="#fff"/></g><g transform="translate(42.342 35.285)"><path d="M555.192,25.431a2.824,2.824,0,1,0-2-.827,2.847,2.847,0,0,0,2,.827" transform="translate(-552.369 -8.189)" fill="#fff"/><path d="M575.813,25.431h.014a2.823,2.823,0,1,0,0-5.646h-.014a2.823,2.823,0,1,0,0,5.646Z" transform="translate(-543.885 -8.189)" fill="#fff"/><path d="M565.5,25.431h.014a2.823,2.823,0,0,0,0-5.646H565.5a2.823,2.823,0,1,0,0,5.646Z" transform="translate(-548.128 -8.189)" fill="#fff"/><path d="M555.192,17.215a2.824,2.824,0,1,0-2-.827,2.841,2.841,0,0,0,2,.827" transform="translate(-552.369 -11.569)" fill="#fff"/><path d="M575.813,17.215h.014a2.823,2.823,0,1,0,0-5.646h-.014a2.823,2.823,0,1,0,0,5.646Z" transform="translate(-543.885 -11.569)" fill="#fff"/><path d="M565.5,17.215h.014a2.823,2.823,0,0,0,0-5.646H565.5a2.823,2.823,0,1,0,0,5.646Z" transform="translate(-548.128 -11.569)" fill="#fff"/><path d="M555.192,33.646a2.824,2.824,0,1,0-2-.827,2.841,2.841,0,0,0,2,.827" transform="translate(-552.369 -4.809)" fill="#fff"/><path d="M575.813,33.646h.014a2.823,2.823,0,1,0,0-5.646h-.014a2.823,2.823,0,1,0,0,5.646Z" transform="translate(-543.885 -4.809)" fill="#fff"/><path d="M565.5,33.646h.014a2.823,2.823,0,0,0,0-5.646H565.5a2.823,2.823,0,1,0,0,5.646Z" transform="translate(-548.128 -4.809)" fill="#fff"/></g></g><g transform="translate(1198.309 807.044)"><g transform="translate(0 0)"><path d="M-862.709,30.444h-.012A2.547,2.547,0,0,0-865.267,33a2.558,2.558,0,0,0,2.558,2.551A2.552,2.552,0,0,0-860.157,33,2.552,2.552,0,0,0-862.709,30.444Zm0,16.015h-.012a2.547,2.547,0,0,0-2.546,2.551,2.558,2.558,0,0,0,2.558,2.551,2.552,2.552,0,0,0,2.551-2.551A2.552,2.552,0,0,0-862.709,46.458Zm0,32.033h-.012a2.547,2.547,0,0,0-2.546,2.551,2.556,2.556,0,0,0,2.558,2.551,2.55,2.55,0,0,0,2.551-2.551A2.552,2.552,0,0,0-862.709,78.491Zm0-16.016h-.012a2.547,2.547,0,0,0-2.546,2.551,2.558,2.558,0,0,0,2.558,2.551,2.552,2.552,0,0,0,2.551-2.551A2.552,2.552,0,0,0-862.709,62.475Zm18.239-80.082h-.014a2.545,2.545,0,0,0-2.545,2.551A2.559,2.559,0,0,0-844.47-12.5a2.553,2.553,0,0,0,2.552-2.551A2.551,2.551,0,0,0-844.47-17.608Zm-18.239,32.035h-.012a2.547,2.547,0,0,0-2.546,2.55,2.559,2.559,0,0,0,2.558,2.553,2.553,2.553,0,0,0,2.551-2.553A2.551,2.551,0,0,0-862.709,14.427Zm-18.239,37.134A2.552,2.552,0,0,0-878.4,49.01a2.552,2.552,0,0,0-2.552-2.551h-.012a2.547,2.547,0,0,0-2.546,2.551A2.557,2.557,0,0,0-880.948,51.561Zm0,16.016a2.552,2.552,0,0,0,2.552-2.551,2.552,2.552,0,0,0-2.552-2.551h-.012a2.547,2.547,0,0,0-2.546,2.551A2.557,2.557,0,0,0-880.948,67.578Zm18.239-101.2h-.012a2.547,2.547,0,0,0-2.546,2.551,2.558,2.558,0,0,0,2.558,2.551,2.552,2.552,0,0,0,2.551-2.551A2.552,2.552,0,0,0-862.709-33.624Zm0,16.016h-.012a2.546,2.546,0,0,0-2.546,2.551,2.559,2.559,0,0,0,2.558,2.551,2.553,2.553,0,0,0,2.551-2.551A2.55,2.55,0,0,0-862.709-17.608Zm0,16.016h-.012A2.546,2.546,0,0,0-865.267.96a2.557,2.557,0,0,0,2.558,2.55A2.551,2.551,0,0,0-860.157.96,2.55,2.55,0,0,0-862.709-1.591Zm54.717,37.138A2.553,2.553,0,0,0-805.44,33a2.553,2.553,0,0,0-2.552-2.551h-.014A2.546,2.546,0,0,0-810.55,33,2.558,2.558,0,0,0-807.992,35.546Zm0-16.016a2.554,2.554,0,0,0,2.552-2.553,2.552,2.552,0,0,0-2.552-2.55h-.014a2.545,2.545,0,0,0-2.545,2.55A2.559,2.559,0,0,0-807.992,19.53Zm-1-16.221a2.542,2.542,0,0,0,1,.2,2.513,2.513,0,0,0,1.039-.232c.01,0,.017-.014.028-.017a2.542,2.542,0,0,0,.807-.6h0a2.525,2.525,0,0,0,.677-1.7,2.553,2.553,0,0,0-2.552-2.551h-.014A2.546,2.546,0,0,0-810.55.959h0v0A2.551,2.551,0,0,0-808.987,3.309Zm-70.157,75.93a2.8,2.8,0,0,0-.263-.178,2.5,2.5,0,0,0-1.541-.569h-.014a2.546,2.546,0,0,0-2.544,2.551,2.534,2.534,0,0,0,.732,1.778l0,0a2.543,2.543,0,0,0,1.824.772,2.561,2.561,0,0,0,.381-.076h0l.005,0a2.5,2.5,0,0,0,1.513-.808,2.627,2.627,0,0,0,.15-.227,2.426,2.426,0,0,0,.313-.507,2.45,2.45,0,0,0,.187-.919l0-.012a2.527,2.527,0,0,0-.658-1.672C-879.091,79.331-879.106,79.277-879.144,79.239Zm-1.8-43.693A2.552,2.552,0,0,0-878.4,33a2.552,2.552,0,0,0-2.552-2.551h-.012A2.547,2.547,0,0,0-883.506,33,2.557,2.557,0,0,0-880.948,35.546Zm36.478,26.928h-.014a2.546,2.546,0,0,0-2.545,2.551,2.558,2.558,0,0,0,2.559,2.551,2.552,2.552,0,0,0,2.552-2.551A2.552,2.552,0,0,0-844.47,62.475Zm0-48.048h-.014a2.545,2.545,0,0,0-2.545,2.55,2.559,2.559,0,0,0,2.559,2.553,2.553,2.553,0,0,0,2.552-2.553A2.551,2.551,0,0,0-844.47,14.427Zm0,16.016h-.014A2.546,2.546,0,0,0-847.028,33a2.558,2.558,0,0,0,2.559,2.551A2.552,2.552,0,0,0-841.918,33,2.552,2.552,0,0,0-844.47,30.444Zm0,16.015h-.014a2.546,2.546,0,0,0-2.545,2.551,2.558,2.558,0,0,0,2.559,2.551,2.552,2.552,0,0,0,2.552-2.551A2.552,2.552,0,0,0-844.47,46.458Zm0-48.049h-.014A2.545,2.545,0,0,0-847.028.96a2.557,2.557,0,0,0,2.559,2.55A2.551,2.551,0,0,0-841.918.96,2.551,2.551,0,0,0-844.47-1.591Zm18.239-16.016h-.014a2.544,2.544,0,0,0-2.544,2.551,2.559,2.559,0,0,0,2.558,2.551,2.553,2.553,0,0,0,2.551-2.551A2.551,2.551,0,0,0-826.231-17.608ZM-844.47-28.521a2.552,2.552,0,0,0,2.552-2.551l0,0a2.472,2.472,0,0,0-.3-1.135c-.017-.033-.04-.057-.059-.088a2.509,2.509,0,0,0-.744-.817h0a2.484,2.484,0,0,0-1.447-.507h-.014a2.546,2.546,0,0,0-2.545,2.551A2.559,2.559,0,0,0-844.47-28.521Zm18.239,74.98h-.014a2.546,2.546,0,0,0-2.544,2.551,2.557,2.557,0,0,0,2.558,2.551,2.552,2.552,0,0,0,2.551-2.551A2.552,2.552,0,0,0-826.231,46.458Zm0,16.016h-.014a2.546,2.546,0,0,0-2.544,2.551,2.557,2.557,0,0,0,2.558,2.551,2.552,2.552,0,0,0,2.551-2.551A2.552,2.552,0,0,0-826.231,62.475Zm0-64.066h-.014A2.544,2.544,0,0,0-828.789.96a2.557,2.557,0,0,0,2.558,2.55A2.551,2.551,0,0,0-823.679.96,2.551,2.551,0,0,0-826.231-1.591Zm0,32.035h-.014A2.546,2.546,0,0,0-828.789,33a2.557,2.557,0,0,0,2.558,2.551A2.552,2.552,0,0,0-823.679,33,2.552,2.552,0,0,0-826.231,30.444Zm-91.2-32.035h-.014a2.226,2.226,0,0,0-.812.163,2.483,2.483,0,0,0-.625.339h0l0,0a2.506,2.506,0,0,0-1.1,2.048,2.343,2.343,0,0,0,.062.306h0l0,.007a2.5,2.5,0,0,0,.8,1.57c.059.054.135.085.2.135a2.47,2.47,0,0,0,.549.341,2.417,2.417,0,0,0,.94.19,2.553,2.553,0,0,0,2.352-1.558,2.555,2.555,0,0,0,.2-.992,2.557,2.557,0,0,0-.2-.994A2.553,2.553,0,0,0-917.426-1.591Zm91.2,16.018h-.014a2.545,2.545,0,0,0-2.544,2.55,2.559,2.559,0,0,0,2.558,2.553,2.553,2.553,0,0,0,2.551-2.553A2.551,2.551,0,0,0-826.231,14.427Zm-91.2,32.031h-.014a2.417,2.417,0,0,0-.9.182,2.509,2.509,0,0,0-.388.218,2.773,2.773,0,0,0-.313.213,2.463,2.463,0,0,0-.427.473c-.024.036-.049.071-.073.109a2.44,2.44,0,0,0-.31.694l0,0h0a2.494,2.494,0,0,0-.131.661,2.533,2.533,0,0,0,1.445,2.271h0l0,0a2.5,2.5,0,0,0,1.1.275l.012,0a2.55,2.55,0,0,0,2.551-2.551,2.57,2.57,0,0,0-.2-.994A2.553,2.553,0,0,0-917.426,46.458Zm0-32.031h-.014a2.546,2.546,0,0,0-2.544,2.55,2.56,2.56,0,0,0,2.558,2.553,2.552,2.552,0,0,0,2.551-2.553A2.55,2.55,0,0,0-917.426,14.427Zm0,16.016h-.014A2.547,2.547,0,0,0-919.984,33a2.559,2.559,0,0,0,2.558,2.551A2.55,2.55,0,0,0-914.874,33,2.55,2.55,0,0,0-917.426,30.444Zm18.24-16.016h-.014a2.545,2.545,0,0,0-2.544,2.55,2.559,2.559,0,0,0,2.558,2.553,2.554,2.554,0,0,0,2.552-2.553A2.552,2.552,0,0,0-899.185,14.427Zm18.237-42.948a2.552,2.552,0,0,0,2.552-2.551,2.552,2.552,0,0,0-2.552-2.551h-.012a2.547,2.547,0,0,0-2.546,2.551A2.557,2.557,0,0,0-880.948-28.521Zm0,32.031A2.551,2.551,0,0,0-878.4.96a2.551,2.551,0,0,0-2.552-2.551h-.012A2.546,2.546,0,0,0-883.506.96,2.557,2.557,0,0,0-880.948,3.51Zm0-16.015a2.553,2.553,0,0,0,2.552-2.551,2.551,2.551,0,0,0-2.552-2.551h-.012a2.546,2.546,0,0,0-2.546,2.551A2.558,2.558,0,0,0-880.948-12.5Zm-18.237,58.963h-.014a2.546,2.546,0,0,0-2.544,2.551,2.557,2.557,0,0,0,2.558,2.551,2.553,2.553,0,0,0,2.552-2.551A2.553,2.553,0,0,0-899.185,46.458Zm0-16.015h-.014A2.546,2.546,0,0,0-901.743,33a2.557,2.557,0,0,0,2.558,2.551A2.553,2.553,0,0,0-896.633,33,2.553,2.553,0,0,0-899.185,30.444Zm0-48.051h-.014a2.545,2.545,0,0,0-2.544,2.551,2.559,2.559,0,0,0,2.558,2.551,2.554,2.554,0,0,0,2.552-2.551A2.552,2.552,0,0,0-899.185-17.608Zm18.237,37.138a2.553,2.553,0,0,0,2.552-2.553,2.551,2.551,0,0,0-2.552-2.55h-.012a2.547,2.547,0,0,0-2.546,2.55A2.559,2.559,0,0,0-880.948,19.53Zm-18.237,42.945h-.014a2.546,2.546,0,0,0-2.544,2.551,2.557,2.557,0,0,0,2.558,2.551,2.553,2.553,0,0,0,2.552-2.551A2.553,2.553,0,0,0-899.185,62.475Zm0-64.066h-.014A2.545,2.545,0,0,0-901.743.96a2.557,2.557,0,0,0,2.558,2.55A2.552,2.552,0,0,0-896.633.96,2.552,2.552,0,0,0-899.185-1.591Zm92.14,48.242a2.467,2.467,0,0,0-.8-.163c-.048,0-.092-.029-.142-.029h-.014a2.546,2.546,0,0,0-2.545,2.551,2.471,2.471,0,0,0,.2.962,2.462,2.462,0,0,0,.362.557c.054.068.085.151.144.213a2.525,2.525,0,0,0,1.664.779l.01,0h0c.064,0,.118.036.182.036a2.552,2.552,0,0,0,2.552-2.551A2.542,2.542,0,0,0-807.045,46.651ZM-844.47,78.491h-.014a2.485,2.485,0,0,0-1.539.571,2.473,2.473,0,0,0-.261.177,2.542,2.542,0,0,0-.7,1.6c-.007.069-.042.13-.042.2h0a2.439,2.439,0,0,0,.182.888,2.089,2.089,0,0,0,.119.251,2.645,2.645,0,0,0,.341.505,2.4,2.4,0,0,0,.2.22,2.536,2.536,0,0,0,.687.462h0a2.536,2.536,0,0,0,1.03.225,2.524,2.524,0,0,0,2.4-1.785,2.155,2.155,0,0,0,.151-.751l0-.016A2.552,2.552,0,0,0-844.47,78.491Z" transform="translate(919.984 33.624)" fill="#00ceff"/></g></g></g></svg>