<svg xmlns="http://www.w3.org/2000/svg" width="394.898" height="305.286" viewBox="0 0 394.898 305.286"><g transform="translate(-286.47 -1288)"><path d="M-12.566-32.506C37.322-75.241,291.21,15.434,291.21,102.3S233.958,217.555,126.7,208.662,5.4,160.985-12.566,143.839-62.454,10.229-12.566-32.506Z" transform="translate(353.927 1368.46)" fill="#00ceff"/><g transform="translate(286.47 1288)"><g transform="translate(0 0)"><path d="M-865.228,27.625h-.011a2.435,2.435,0,0,0-2.434,2.439,2.445,2.445,0,0,0,2.446,2.439,2.439,2.439,0,0,0,2.439-2.439A2.439,2.439,0,0,0-865.228,27.625Zm0,15.31h-.011a2.435,2.435,0,0,0-2.434,2.439,2.445,2.445,0,0,0,2.446,2.439,2.439,2.439,0,0,0,2.439-2.439A2.439,2.439,0,0,0-865.228,42.935Zm0,30.624h-.011A2.435,2.435,0,0,0-867.674,76a2.444,2.444,0,0,0,2.446,2.439A2.438,2.438,0,0,0-862.789,76,2.439,2.439,0,0,0-865.228,73.559Zm0-15.312h-.011a2.435,2.435,0,0,0-2.434,2.439,2.445,2.445,0,0,0,2.446,2.439,2.439,2.439,0,0,0,2.439-2.439A2.439,2.439,0,0,0-865.228,58.247Zm17.437-76.559h-.013a2.433,2.433,0,0,0-2.433,2.439,2.446,2.446,0,0,0,2.446,2.439,2.441,2.441,0,0,0,2.439-2.439A2.438,2.438,0,0,0-847.792-18.312Zm-17.437,30.625h-.011a2.435,2.435,0,0,0-2.434,2.438,2.446,2.446,0,0,0,2.446,2.441,2.441,2.441,0,0,0,2.439-2.441A2.439,2.439,0,0,0-865.228,12.313Zm-17.437,35.5a2.439,2.439,0,0,0,2.439-2.439,2.439,2.439,0,0,0-2.439-2.439h-.012a2.435,2.435,0,0,0-2.434,2.439A2.445,2.445,0,0,0-882.665,47.814Zm0,15.312a2.439,2.439,0,0,0,2.439-2.439,2.439,2.439,0,0,0-2.439-2.439h-.012a2.435,2.435,0,0,0-2.434,2.439A2.445,2.445,0,0,0-882.665,63.126Zm17.437-96.75h-.011a2.435,2.435,0,0,0-2.434,2.439,2.445,2.445,0,0,0,2.446,2.439,2.439,2.439,0,0,0,2.439-2.439A2.439,2.439,0,0,0-865.228-33.624Zm0,15.312h-.011a2.434,2.434,0,0,0-2.434,2.439,2.446,2.446,0,0,0,2.446,2.439,2.44,2.44,0,0,0,2.439-2.439A2.438,2.438,0,0,0-865.228-18.312Zm0,15.312h-.011a2.434,2.434,0,0,0-2.434,2.439,2.445,2.445,0,0,0,2.446,2.438,2.439,2.439,0,0,0,2.439-2.438A2.438,2.438,0,0,0-865.228-3Zm52.31,35.5a2.44,2.44,0,0,0,2.439-2.439,2.44,2.44,0,0,0-2.439-2.439h-.013a2.434,2.434,0,0,0-2.433,2.439A2.445,2.445,0,0,0-812.919,32.5Zm0-15.312a2.442,2.442,0,0,0,2.439-2.441,2.44,2.44,0,0,0-2.439-2.438h-.013a2.433,2.433,0,0,0-2.433,2.438A2.446,2.446,0,0,0-812.919,17.192Zm-.951-15.507a2.43,2.43,0,0,0,.951.192,2.4,2.4,0,0,0,.993-.222c.01,0,.016-.013.026-.017a2.428,2.428,0,0,0,.771-.576h0a2.414,2.414,0,0,0,.647-1.625A2.44,2.44,0,0,0-812.919-3h-.013a2.434,2.434,0,0,0-2.433,2.439h0v0A2.438,2.438,0,0,0-813.87,1.684Zm-67.071,72.589a2.7,2.7,0,0,0-.251-.17,2.393,2.393,0,0,0-1.473-.544h-.013A2.434,2.434,0,0,0-885.111,76a2.422,2.422,0,0,0,.7,1.7l0,0a2.431,2.431,0,0,0,1.744.738,2.447,2.447,0,0,0,.364-.073h0l0,0a2.393,2.393,0,0,0,1.447-.773,2.487,2.487,0,0,0,.144-.217,2.322,2.322,0,0,0,.3-.485,2.342,2.342,0,0,0,.179-.879l0-.012a2.415,2.415,0,0,0-.629-1.6C-880.889,74.362-880.9,74.31-880.941,74.274Zm-1.724-41.77a2.439,2.439,0,0,0,2.439-2.439,2.439,2.439,0,0,0-2.439-2.439h-.012a2.435,2.435,0,0,0-2.434,2.439A2.445,2.445,0,0,0-882.665,32.5Zm34.873,25.744h-.013a2.434,2.434,0,0,0-2.433,2.439,2.445,2.445,0,0,0,2.446,2.439,2.439,2.439,0,0,0,2.439-2.439A2.439,2.439,0,0,0-847.792,58.247Zm0-45.934h-.013a2.433,2.433,0,0,0-2.433,2.438,2.446,2.446,0,0,0,2.446,2.441,2.441,2.441,0,0,0,2.439-2.441A2.439,2.439,0,0,0-847.792,12.313Zm0,15.312h-.013a2.434,2.434,0,0,0-2.433,2.439,2.445,2.445,0,0,0,2.446,2.439,2.439,2.439,0,0,0,2.439-2.439A2.439,2.439,0,0,0-847.792,27.625Zm0,15.31h-.013a2.434,2.434,0,0,0-2.433,2.439,2.445,2.445,0,0,0,2.446,2.439,2.439,2.439,0,0,0,2.439-2.439A2.439,2.439,0,0,0-847.792,42.935Zm0-45.936h-.013a2.433,2.433,0,0,0-2.433,2.439,2.445,2.445,0,0,0,2.446,2.438,2.439,2.439,0,0,0,2.439-2.438A2.438,2.438,0,0,0-847.792-3Zm17.437-15.312h-.013a2.433,2.433,0,0,0-2.432,2.439,2.446,2.446,0,0,0,2.446,2.439,2.44,2.44,0,0,0,2.439-2.439A2.438,2.438,0,0,0-830.355-18.312Zm-17.437-10.434a2.439,2.439,0,0,0,2.439-2.439l0,0a2.362,2.362,0,0,0-.285-1.086c-.017-.031-.038-.055-.056-.084a2.4,2.4,0,0,0-.711-.781h0a2.375,2.375,0,0,0-1.383-.485h-.013a2.434,2.434,0,0,0-2.433,2.439A2.446,2.446,0,0,0-847.792-28.746Zm17.437,71.681h-.013a2.434,2.434,0,0,0-2.432,2.439,2.445,2.445,0,0,0,2.446,2.439,2.439,2.439,0,0,0,2.439-2.439A2.439,2.439,0,0,0-830.355,42.935Zm0,15.312h-.013a2.434,2.434,0,0,0-2.432,2.439,2.445,2.445,0,0,0,2.446,2.439,2.439,2.439,0,0,0,2.439-2.439A2.439,2.439,0,0,0-830.355,58.247Zm0-61.247h-.013A2.433,2.433,0,0,0-832.8-.561a2.445,2.445,0,0,0,2.446,2.438,2.439,2.439,0,0,0,2.439-2.438A2.438,2.438,0,0,0-830.355-3Zm0,30.625h-.013a2.434,2.434,0,0,0-2.432,2.439,2.445,2.445,0,0,0,2.446,2.439,2.439,2.439,0,0,0,2.439-2.439A2.439,2.439,0,0,0-830.355,27.625ZM-917.538-3h-.013a2.127,2.127,0,0,0-.776.156,2.369,2.369,0,0,0-.6.324h0l0,0a2.4,2.4,0,0,0-1.054,1.958,2.23,2.23,0,0,0,.06.293h0l0,.007a2.387,2.387,0,0,0,.769,1.5c.056.051.129.081.19.129a2.362,2.362,0,0,0,.525.326,2.31,2.31,0,0,0,.9.182A2.441,2.441,0,0,0-915.289.387a2.442,2.442,0,0,0,.19-.948,2.444,2.444,0,0,0-.19-.95A2.441,2.441,0,0,0-917.538-3Zm87.183,15.314h-.013a2.433,2.433,0,0,0-2.432,2.438,2.446,2.446,0,0,0,2.446,2.441,2.441,2.441,0,0,0,2.439-2.441A2.439,2.439,0,0,0-830.355,12.313Zm-87.183,30.622h-.013a2.311,2.311,0,0,0-.859.174,2.389,2.389,0,0,0-.371.209,2.627,2.627,0,0,0-.3.2,2.356,2.356,0,0,0-.409.452c-.023.035-.046.068-.07.1a2.334,2.334,0,0,0-.3.664l0,0h0a2.383,2.383,0,0,0-.126.632,2.421,2.421,0,0,0,1.382,2.171h0l0,0a2.388,2.388,0,0,0,1.049.263l.012,0a2.438,2.438,0,0,0,2.439-2.439,2.457,2.457,0,0,0-.19-.95A2.441,2.441,0,0,0-917.538,42.935Zm0-30.622h-.013a2.434,2.434,0,0,0-2.433,2.438,2.447,2.447,0,0,0,2.446,2.441,2.44,2.44,0,0,0,2.439-2.441A2.438,2.438,0,0,0-917.538,12.313Zm0,15.312h-.013a2.435,2.435,0,0,0-2.433,2.439,2.446,2.446,0,0,0,2.446,2.439,2.438,2.438,0,0,0,2.439-2.439A2.438,2.438,0,0,0-917.538,27.625ZM-900.1,12.313h-.013a2.433,2.433,0,0,0-2.432,2.438,2.446,2.446,0,0,0,2.446,2.441,2.442,2.442,0,0,0,2.439-2.441A2.44,2.44,0,0,0-900.1,12.313Zm17.435-41.059a2.439,2.439,0,0,0,2.439-2.439,2.439,2.439,0,0,0-2.439-2.439h-.012a2.435,2.435,0,0,0-2.434,2.439A2.445,2.445,0,0,0-882.665-28.746Zm0,30.622a2.439,2.439,0,0,0,2.439-2.438A2.438,2.438,0,0,0-882.665-3h-.012a2.434,2.434,0,0,0-2.434,2.439A2.445,2.445,0,0,0-882.665,1.876Zm0-15.31a2.44,2.44,0,0,0,2.439-2.439,2.438,2.438,0,0,0-2.439-2.439h-.012a2.434,2.434,0,0,0-2.434,2.439A2.446,2.446,0,0,0-882.665-13.434ZM-900.1,42.935h-.013a2.434,2.434,0,0,0-2.432,2.439,2.445,2.445,0,0,0,2.446,2.439,2.441,2.441,0,0,0,2.439-2.439A2.44,2.44,0,0,0-900.1,42.935Zm0-15.31h-.013a2.434,2.434,0,0,0-2.432,2.439A2.445,2.445,0,0,0-900.1,32.5a2.441,2.441,0,0,0,2.439-2.439A2.441,2.441,0,0,0-900.1,27.625Zm0-45.937h-.013a2.433,2.433,0,0,0-2.432,2.439,2.446,2.446,0,0,0,2.446,2.439,2.442,2.442,0,0,0,2.439-2.439A2.439,2.439,0,0,0-900.1-18.312Zm17.435,35.5a2.441,2.441,0,0,0,2.439-2.441,2.439,2.439,0,0,0-2.439-2.438h-.012a2.435,2.435,0,0,0-2.434,2.438A2.446,2.446,0,0,0-882.665,17.192ZM-900.1,58.247h-.013a2.434,2.434,0,0,0-2.432,2.439,2.445,2.445,0,0,0,2.446,2.439,2.44,2.44,0,0,0,2.439-2.439A2.441,2.441,0,0,0-900.1,58.247ZM-900.1-3h-.013a2.433,2.433,0,0,0-2.432,2.439A2.445,2.445,0,0,0-900.1,1.876a2.44,2.44,0,0,0,2.439-2.438A2.439,2.439,0,0,0-900.1-3Zm88.087,46.119a2.359,2.359,0,0,0-.769-.156c-.046,0-.088-.028-.136-.028h-.013a2.434,2.434,0,0,0-2.433,2.439,2.364,2.364,0,0,0,.189.92,2.356,2.356,0,0,0,.346.533c.051.065.081.144.137.2a2.413,2.413,0,0,0,1.59.745l.01,0h0c.061,0,.113.035.174.035a2.439,2.439,0,0,0,2.439-2.439A2.43,2.43,0,0,0-812.013,43.119Zm-35.778,30.44h-.013a2.375,2.375,0,0,0-1.471.546,2.373,2.373,0,0,0-.25.169,2.431,2.431,0,0,0-.672,1.534c-.007.066-.04.124-.04.19h0a2.329,2.329,0,0,0,.174.849,2,2,0,0,0,.114.24,2.533,2.533,0,0,0,.326.483,2.316,2.316,0,0,0,.19.21,2.426,2.426,0,0,0,.657.442h0a2.424,2.424,0,0,0,.985.215,2.413,2.413,0,0,0,2.292-1.706,2.059,2.059,0,0,0,.144-.718l0-.015A2.439,2.439,0,0,0-847.792,73.559Z" transform="translate(919.984 33.624)" fill="#00ceff"/></g></g><g transform="translate(509.726 1453.709)"><g transform="translate(0 0)"><path d="M-887.9,2.264h-.007a1.427,1.427,0,0,0-1.426,1.429A1.433,1.433,0,0,0-887.9,5.122a1.429,1.429,0,0,0,1.429-1.429A1.429,1.429,0,0,0-887.9,2.264Zm0,8.971h-.007a1.427,1.427,0,0,0-1.426,1.429,1.433,1.433,0,0,0,1.433,1.429,1.429,1.429,0,0,0,1.429-1.429A1.429,1.429,0,0,0-887.9,11.234Zm0,17.943h-.007a1.427,1.427,0,0,0-1.426,1.429,1.432,1.432,0,0,0,1.433,1.429,1.429,1.429,0,0,0,1.429-1.429A1.429,1.429,0,0,0-887.9,29.178Zm0-8.972h-.007a1.427,1.427,0,0,0-1.426,1.429,1.433,1.433,0,0,0,1.433,1.429,1.429,1.429,0,0,0,1.429-1.429A1.429,1.429,0,0,0-887.9,20.206Zm10.217-44.858h-.008a1.425,1.425,0,0,0-1.425,1.429,1.433,1.433,0,0,0,1.433,1.429,1.43,1.43,0,0,0,1.429-1.429A1.429,1.429,0,0,0-877.684-24.652ZM-887.9-6.708h-.007a1.427,1.427,0,0,0-1.426,1.428A1.433,1.433,0,0,0-887.9-3.85a1.43,1.43,0,0,0,1.429-1.43A1.429,1.429,0,0,0-887.9-6.708Zm-10.216,20.8a1.429,1.429,0,0,0,1.429-1.429,1.429,1.429,0,0,0-1.429-1.429h-.007a1.427,1.427,0,0,0-1.426,1.429A1.433,1.433,0,0,0-898.118,14.093Zm0,8.972a1.429,1.429,0,0,0,1.429-1.429,1.429,1.429,0,0,0-1.429-1.429h-.007a1.427,1.427,0,0,0-1.426,1.429A1.433,1.433,0,0,0-898.118,23.064ZM-887.9-33.624h-.007a1.427,1.427,0,0,0-1.426,1.429,1.433,1.433,0,0,0,1.433,1.429,1.429,1.429,0,0,0,1.429-1.429A1.429,1.429,0,0,0-887.9-33.624Zm0,8.972h-.007a1.426,1.426,0,0,0-1.426,1.429,1.433,1.433,0,0,0,1.433,1.429,1.43,1.43,0,0,0,1.429-1.429A1.429,1.429,0,0,0-887.9-24.652Zm0,8.972h-.007a1.426,1.426,0,0,0-1.426,1.429,1.432,1.432,0,0,0,1.433,1.428,1.429,1.429,0,0,0,1.429-1.428A1.429,1.429,0,0,0-887.9-15.681Zm30.65,20.8a1.43,1.43,0,0,0,1.429-1.429,1.43,1.43,0,0,0-1.429-1.429h-.008a1.426,1.426,0,0,0-1.425,1.429A1.433,1.433,0,0,0-857.251,5.122Zm0-8.972a1.431,1.431,0,0,0,1.429-1.43,1.43,1.43,0,0,0-1.429-1.428h-.008a1.426,1.426,0,0,0-1.425,1.428A1.433,1.433,0,0,0-857.251-3.85Zm-.557-9.086a1.424,1.424,0,0,0,.557.112,1.407,1.407,0,0,0,.582-.13c.006,0,.01-.008.016-.01a1.423,1.423,0,0,0,.452-.337h0a1.414,1.414,0,0,0,.379-.952,1.43,1.43,0,0,0-1.429-1.429h-.008a1.426,1.426,0,0,0-1.425,1.429h0A1.429,1.429,0,0,0-857.809-12.936Zm-39.3,42.532a1.562,1.562,0,0,0-.147-.1,1.4,1.4,0,0,0-.863-.319h-.008a1.426,1.426,0,0,0-1.425,1.429,1.419,1.419,0,0,0,.41,1h0a1.424,1.424,0,0,0,1.022.432,1.436,1.436,0,0,0,.213-.043h0a1.4,1.4,0,0,0,.848-.453,1.51,1.51,0,0,0,.084-.127,1.362,1.362,0,0,0,.175-.284,1.374,1.374,0,0,0,.1-.515v-.007a1.415,1.415,0,0,0-.368-.937C-897.077,29.648-897.086,29.618-897.107,29.6Zm-1.01-24.474a1.429,1.429,0,0,0,1.429-1.429,1.429,1.429,0,0,0-1.429-1.429h-.007a1.427,1.427,0,0,0-1.426,1.429A1.433,1.433,0,0,0-898.118,5.122Zm20.433,15.084h-.008a1.426,1.426,0,0,0-1.425,1.429,1.433,1.433,0,0,0,1.433,1.429,1.429,1.429,0,0,0,1.429-1.429A1.429,1.429,0,0,0-877.684,20.206Zm0-26.914h-.008a1.426,1.426,0,0,0-1.425,1.428,1.433,1.433,0,0,0,1.433,1.43,1.43,1.43,0,0,0,1.429-1.43A1.429,1.429,0,0,0-877.684-6.708Zm0,8.972h-.008a1.426,1.426,0,0,0-1.425,1.429,1.433,1.433,0,0,0,1.433,1.429,1.429,1.429,0,0,0,1.429-1.429A1.429,1.429,0,0,0-877.684,2.264Zm0,8.971h-.008a1.426,1.426,0,0,0-1.425,1.429,1.433,1.433,0,0,0,1.433,1.429,1.429,1.429,0,0,0,1.429-1.429A1.429,1.429,0,0,0-877.684,11.234Zm0-26.915h-.008a1.425,1.425,0,0,0-1.425,1.429,1.432,1.432,0,0,0,1.433,1.428,1.429,1.429,0,0,0,1.429-1.428A1.429,1.429,0,0,0-877.684-15.681Zm10.217-8.972h-.008a1.425,1.425,0,0,0-1.425,1.429,1.433,1.433,0,0,0,1.433,1.429,1.43,1.43,0,0,0,1.429-1.429A1.429,1.429,0,0,0-867.468-24.652Zm-10.217-6.113a1.429,1.429,0,0,0,1.429-1.429v0a1.384,1.384,0,0,0-.167-.636c-.01-.018-.022-.032-.033-.049a1.406,1.406,0,0,0-.417-.458h0a1.391,1.391,0,0,0-.81-.284h-.008a1.426,1.426,0,0,0-1.425,1.429A1.433,1.433,0,0,0-877.684-30.766Zm10.217,42h-.008a1.426,1.426,0,0,0-1.425,1.429,1.432,1.432,0,0,0,1.433,1.429,1.429,1.429,0,0,0,1.429-1.429A1.429,1.429,0,0,0-867.468,11.234Zm0,8.972h-.008a1.426,1.426,0,0,0-1.425,1.429,1.432,1.432,0,0,0,1.433,1.429,1.429,1.429,0,0,0,1.429-1.429A1.429,1.429,0,0,0-867.468,20.206Zm0-35.887h-.008a1.425,1.425,0,0,0-1.425,1.429,1.432,1.432,0,0,0,1.433,1.428,1.429,1.429,0,0,0,1.429-1.428A1.429,1.429,0,0,0-867.468-15.681Zm0,17.944h-.008A1.426,1.426,0,0,0-868.9,3.693a1.432,1.432,0,0,0,1.433,1.429,1.429,1.429,0,0,0,1.429-1.429A1.429,1.429,0,0,0-867.468,2.264Zm-51.083-17.944h-.008a1.247,1.247,0,0,0-.455.091,1.391,1.391,0,0,0-.35.19h0a1.4,1.4,0,0,0-.618,1.147,1.324,1.324,0,0,0,.035.172h0l0,0a1.4,1.4,0,0,0,.451.879c.033.03.076.048.111.076a1.379,1.379,0,0,0,.307.191,1.354,1.354,0,0,0,.527.107,1.43,1.43,0,0,0,1.318-.873,1.432,1.432,0,0,0,.111-.556,1.433,1.433,0,0,0-.111-.557A1.43,1.43,0,0,0-918.551-15.681Zm51.083,8.973h-.008A1.426,1.426,0,0,0-868.9-5.28a1.433,1.433,0,0,0,1.433,1.43,1.43,1.43,0,0,0,1.429-1.43A1.429,1.429,0,0,0-867.468-6.708Zm-51.083,17.942h-.008a1.354,1.354,0,0,0-.5.1,1.4,1.4,0,0,0-.217.122,1.536,1.536,0,0,0-.175.119,1.38,1.38,0,0,0-.239.265l-.041.061a1.369,1.369,0,0,0-.174.389h0a1.393,1.393,0,0,0-.074.37,1.419,1.419,0,0,0,.81,1.272h0a1.4,1.4,0,0,0,.615.154l.007,0a1.429,1.429,0,0,0,1.429-1.429,1.441,1.441,0,0,0-.111-.557A1.43,1.43,0,0,0-918.551,11.234Zm0-17.942h-.008a1.426,1.426,0,0,0-1.425,1.428,1.434,1.434,0,0,0,1.433,1.43,1.429,1.429,0,0,0,1.429-1.43A1.428,1.428,0,0,0-918.551-6.708Zm0,8.972h-.008a1.427,1.427,0,0,0-1.425,1.429,1.433,1.433,0,0,0,1.433,1.429,1.429,1.429,0,0,0,1.429-1.429A1.429,1.429,0,0,0-918.551,2.264Zm10.217-8.972h-.008a1.426,1.426,0,0,0-1.425,1.428,1.433,1.433,0,0,0,1.433,1.43A1.431,1.431,0,0,0-906.9-5.28,1.43,1.43,0,0,0-908.333-6.708Zm10.216-24.058a1.429,1.429,0,0,0,1.429-1.429,1.429,1.429,0,0,0-1.429-1.429h-.007a1.427,1.427,0,0,0-1.426,1.429A1.433,1.433,0,0,0-898.118-30.766Zm0,17.942a1.429,1.429,0,0,0,1.429-1.428,1.429,1.429,0,0,0-1.429-1.429h-.007a1.426,1.426,0,0,0-1.426,1.429A1.432,1.432,0,0,0-898.118-12.823Zm0-8.971a1.43,1.43,0,0,0,1.429-1.429,1.429,1.429,0,0,0-1.429-1.429h-.007a1.426,1.426,0,0,0-1.426,1.429A1.433,1.433,0,0,0-898.118-21.794Zm-10.216,33.028h-.008a1.426,1.426,0,0,0-1.425,1.429,1.433,1.433,0,0,0,1.433,1.429,1.43,1.43,0,0,0,1.429-1.429A1.43,1.43,0,0,0-908.333,11.234Zm0-8.971h-.008a1.426,1.426,0,0,0-1.425,1.429,1.433,1.433,0,0,0,1.433,1.429A1.43,1.43,0,0,0-906.9,3.693,1.43,1.43,0,0,0-908.333,2.264Zm0-26.916h-.008a1.425,1.425,0,0,0-1.425,1.429,1.433,1.433,0,0,0,1.433,1.429,1.431,1.431,0,0,0,1.429-1.429A1.429,1.429,0,0,0-908.333-24.652Zm10.216,20.8a1.43,1.43,0,0,0,1.429-1.43,1.429,1.429,0,0,0-1.429-1.428h-.007a1.426,1.426,0,0,0-1.426,1.428A1.433,1.433,0,0,0-898.118-3.85Zm-10.216,24.056h-.008a1.426,1.426,0,0,0-1.425,1.429,1.433,1.433,0,0,0,1.433,1.429,1.43,1.43,0,0,0,1.429-1.429A1.43,1.43,0,0,0-908.333,20.206Zm0-35.887h-.008a1.425,1.425,0,0,0-1.425,1.429,1.432,1.432,0,0,0,1.433,1.428,1.43,1.43,0,0,0,1.429-1.428A1.429,1.429,0,0,0-908.333-15.681Zm51.613,27.023a1.384,1.384,0,0,0-.451-.091c-.027,0-.051-.016-.08-.016h-.008a1.426,1.426,0,0,0-1.425,1.429,1.386,1.386,0,0,0,.11.539,1.378,1.378,0,0,0,.2.312c.03.038.047.084.08.119a1.414,1.414,0,0,0,.932.436l.006,0h0c.036,0,.066.02.1.02a1.429,1.429,0,0,0,1.429-1.429A1.424,1.424,0,0,0-856.721,11.342Zm-20.964,17.836h-.008a1.392,1.392,0,0,0-.862.32,1.4,1.4,0,0,0-.146.1,1.424,1.424,0,0,0-.394.9c0,.039-.023.073-.023.111h0a1.364,1.364,0,0,0,.1.5,1.171,1.171,0,0,0,.067.141,1.482,1.482,0,0,0,.191.283,1.348,1.348,0,0,0,.112.123,1.419,1.419,0,0,0,.385.259h0a1.42,1.42,0,0,0,.577.126,1.414,1.414,0,0,0,1.343-1,1.208,1.208,0,0,0,.084-.421l0-.009A1.429,1.429,0,0,0-877.684,29.178Z" transform="translate(919.984 33.624)" fill="#fff"/></g></g><g transform="translate(556.54 1382.357) rotate(-45)"><path d="M0,0A50.823,50.823,0,0,0,4.238,4.065H69.855A50.824,50.824,0,0,0,74.093,0Z" transform="translate(13.487 84.887)" fill="#00ceff"/><path d="M0,0Q1.3,2.032,2.793,3.928H82.3Q83.792,2.034,85.1,0Z" transform="translate(7.984 77.779)" fill="#00ceff"/><path d="M50.531,4.2A50.513,50.513,0,0,0,57.746,0H0A50.5,50.5,0,0,0,7.214,4.2Z" transform="translate(21.661 91.996)" fill="#00ceff"/><path d="M28.287,2.021A50.5,50.5,0,0,0,0,2.021Z" transform="translate(36.39 0)" fill="#00ceff"/><path d="M0,0Q.843,1.938,1.836,3.793h89.03Q91.863,1.943,92.7,0Z" transform="translate(4.183 70.67)" fill="#00ceff"/><path d="M0,1.188c0,.737.025,1.469.056,2.2H101.012c.031-.729.056-1.461.056-2.2,0-.4-.021-.791-.031-1.188H.031C.021.4,0,.79,0,1.188Z" transform="translate(0 49.345)" fill="#00ceff"/><path d="M0,2.708H74.723C73.869,1.769,72.971.872,72.047,0H2.678C1.754.872.855,1.769,0,2.708Z" transform="translate(13.171 13.802)" fill="#00ceff"/><path d="M1.374,0C.887.977.424,1.967,0,2.98H93.231c-.424-1.013-.889-2-1.376-2.98Z" transform="translate(3.918 28.019)" fill="#00ceff"/><path d="M0,0C.33,1.239.709,2.458,1.13,3.657h95.4q.63-1.8,1.128-3.657Z" transform="translate(1.704 63.562)" fill="#00ceff"/><path d="M1.918,0Q.913,1.388,0,2.843H85.7Q84.785,1.389,83.777,0Z" transform="translate(7.685 20.91)" fill="#00ceff"/><path d="M0,0A50.506,50.506,0,0,0,13.935,1.961,50.513,50.513,0,0,0,27.87,0Z" transform="translate(36.599 99.105)" fill="#00ceff"/><path d="M4.027,0Q1.949,1.191,0,2.572H58.294Q56.345,1.193,54.267,0Z" transform="translate(21.387 6.693)" fill="#00ceff"/><path d="M0,0Q.209,1.782.538,3.522H99.817q.33-1.74.537-3.522Z" transform="translate(0.356 56.453)" fill="#00ceff"/><path d="M.438,0C.26,1.072.109,2.155,0,3.249H100.564c-.108-1.095-.261-2.177-.438-3.249Z" transform="translate(0.252 42.236)" fill="#00ceff"/><path d="M.886,0Q.4,1.538,0,3.116H98.041Q97.647,1.536,97.153,0Z" transform="translate(1.513 35.127)" fill="#00ceff"/></g><g transform="translate(568.889 1481.225)"><g transform="translate(0 0)"><path d="M-865.228,27.625h-.011a2.435,2.435,0,0,0-2.434,2.439,2.445,2.445,0,0,0,2.446,2.439,2.439,2.439,0,0,0,2.439-2.439A2.439,2.439,0,0,0-865.228,27.625Zm0,15.31h-.011a2.435,2.435,0,0,0-2.434,2.439,2.445,2.445,0,0,0,2.446,2.439,2.439,2.439,0,0,0,2.439-2.439A2.439,2.439,0,0,0-865.228,42.935Zm0,30.624h-.011A2.435,2.435,0,0,0-867.674,76a2.444,2.444,0,0,0,2.446,2.439A2.438,2.438,0,0,0-862.789,76,2.439,2.439,0,0,0-865.228,73.559Zm0-15.312h-.011a2.435,2.435,0,0,0-2.434,2.439,2.445,2.445,0,0,0,2.446,2.439,2.439,2.439,0,0,0,2.439-2.439A2.439,2.439,0,0,0-865.228,58.247Zm17.437-76.559h-.013a2.433,2.433,0,0,0-2.433,2.439,2.446,2.446,0,0,0,2.446,2.439,2.441,2.441,0,0,0,2.439-2.439A2.438,2.438,0,0,0-847.792-18.312Zm-17.437,30.625h-.011a2.435,2.435,0,0,0-2.434,2.438,2.446,2.446,0,0,0,2.446,2.441,2.441,2.441,0,0,0,2.439-2.441A2.439,2.439,0,0,0-865.228,12.313Zm-17.437,35.5a2.439,2.439,0,0,0,2.439-2.439,2.439,2.439,0,0,0-2.439-2.439h-.012a2.435,2.435,0,0,0-2.434,2.439A2.445,2.445,0,0,0-882.665,47.814Zm0,15.312a2.439,2.439,0,0,0,2.439-2.439,2.439,2.439,0,0,0-2.439-2.439h-.012a2.435,2.435,0,0,0-2.434,2.439A2.445,2.445,0,0,0-882.665,63.126Zm17.437-96.75h-.011a2.435,2.435,0,0,0-2.434,2.439,2.445,2.445,0,0,0,2.446,2.439,2.439,2.439,0,0,0,2.439-2.439A2.439,2.439,0,0,0-865.228-33.624Zm0,15.312h-.011a2.434,2.434,0,0,0-2.434,2.439,2.446,2.446,0,0,0,2.446,2.439,2.44,2.44,0,0,0,2.439-2.439A2.438,2.438,0,0,0-865.228-18.312Zm0,15.312h-.011a2.434,2.434,0,0,0-2.434,2.439,2.445,2.445,0,0,0,2.446,2.438,2.439,2.439,0,0,0,2.439-2.438A2.438,2.438,0,0,0-865.228-3Zm52.31,35.5a2.44,2.44,0,0,0,2.439-2.439,2.44,2.44,0,0,0-2.439-2.439h-.013a2.434,2.434,0,0,0-2.433,2.439A2.445,2.445,0,0,0-812.919,32.5Zm0-15.312a2.442,2.442,0,0,0,2.439-2.441,2.44,2.44,0,0,0-2.439-2.438h-.013a2.433,2.433,0,0,0-2.433,2.438A2.446,2.446,0,0,0-812.919,17.192Zm-.951-15.507a2.43,2.43,0,0,0,.951.192,2.4,2.4,0,0,0,.993-.222c.01,0,.016-.013.026-.017a2.428,2.428,0,0,0,.771-.576h0a2.414,2.414,0,0,0,.647-1.625A2.44,2.44,0,0,0-812.919-3h-.013a2.434,2.434,0,0,0-2.433,2.439h0v0A2.438,2.438,0,0,0-813.87,1.684Zm-67.071,72.589a2.7,2.7,0,0,0-.251-.17,2.393,2.393,0,0,0-1.473-.544h-.013A2.434,2.434,0,0,0-885.111,76a2.422,2.422,0,0,0,.7,1.7l0,0a2.431,2.431,0,0,0,1.744.738,2.447,2.447,0,0,0,.364-.073h0l0,0a2.393,2.393,0,0,0,1.447-.773,2.487,2.487,0,0,0,.144-.217,2.322,2.322,0,0,0,.3-.485,2.342,2.342,0,0,0,.179-.879l0-.012a2.415,2.415,0,0,0-.629-1.6C-880.889,74.362-880.9,74.31-880.941,74.274Zm-1.724-41.77a2.439,2.439,0,0,0,2.439-2.439,2.439,2.439,0,0,0-2.439-2.439h-.012a2.435,2.435,0,0,0-2.434,2.439A2.445,2.445,0,0,0-882.665,32.5Zm34.873,25.744h-.013a2.434,2.434,0,0,0-2.433,2.439,2.445,2.445,0,0,0,2.446,2.439,2.439,2.439,0,0,0,2.439-2.439A2.439,2.439,0,0,0-847.792,58.247Zm0-45.934h-.013a2.433,2.433,0,0,0-2.433,2.438,2.446,2.446,0,0,0,2.446,2.441,2.441,2.441,0,0,0,2.439-2.441A2.439,2.439,0,0,0-847.792,12.313Zm0,15.312h-.013a2.434,2.434,0,0,0-2.433,2.439,2.445,2.445,0,0,0,2.446,2.439,2.439,2.439,0,0,0,2.439-2.439A2.439,2.439,0,0,0-847.792,27.625Zm0,15.31h-.013a2.434,2.434,0,0,0-2.433,2.439,2.445,2.445,0,0,0,2.446,2.439,2.439,2.439,0,0,0,2.439-2.439A2.439,2.439,0,0,0-847.792,42.935Zm0-45.936h-.013a2.433,2.433,0,0,0-2.433,2.439,2.445,2.445,0,0,0,2.446,2.438,2.439,2.439,0,0,0,2.439-2.438A2.438,2.438,0,0,0-847.792-3Zm17.437-15.312h-.013a2.433,2.433,0,0,0-2.432,2.439,2.446,2.446,0,0,0,2.446,2.439,2.44,2.44,0,0,0,2.439-2.439A2.438,2.438,0,0,0-830.355-18.312Zm-17.437-10.434a2.439,2.439,0,0,0,2.439-2.439l0,0a2.362,2.362,0,0,0-.285-1.086c-.017-.031-.038-.055-.056-.084a2.4,2.4,0,0,0-.711-.781h0a2.375,2.375,0,0,0-1.383-.485h-.013a2.434,2.434,0,0,0-2.433,2.439A2.446,2.446,0,0,0-847.792-28.746Zm17.437,71.681h-.013a2.434,2.434,0,0,0-2.432,2.439,2.445,2.445,0,0,0,2.446,2.439,2.439,2.439,0,0,0,2.439-2.439A2.439,2.439,0,0,0-830.355,42.935Zm0,15.312h-.013a2.434,2.434,0,0,0-2.432,2.439,2.445,2.445,0,0,0,2.446,2.439,2.439,2.439,0,0,0,2.439-2.439A2.439,2.439,0,0,0-830.355,58.247Zm0-61.247h-.013A2.433,2.433,0,0,0-832.8-.561a2.445,2.445,0,0,0,2.446,2.438,2.439,2.439,0,0,0,2.439-2.438A2.438,2.438,0,0,0-830.355-3Zm0,30.625h-.013a2.434,2.434,0,0,0-2.432,2.439,2.445,2.445,0,0,0,2.446,2.439,2.439,2.439,0,0,0,2.439-2.439A2.439,2.439,0,0,0-830.355,27.625ZM-917.538-3h-.013a2.127,2.127,0,0,0-.776.156,2.369,2.369,0,0,0-.6.324h0l0,0a2.4,2.4,0,0,0-1.054,1.958,2.23,2.23,0,0,0,.06.293h0l0,.007a2.387,2.387,0,0,0,.769,1.5c.056.051.129.081.19.129a2.362,2.362,0,0,0,.525.326,2.31,2.31,0,0,0,.9.182A2.441,2.441,0,0,0-915.289.387a2.442,2.442,0,0,0,.19-.948,2.444,2.444,0,0,0-.19-.95A2.441,2.441,0,0,0-917.538-3Zm87.183,15.314h-.013a2.433,2.433,0,0,0-2.432,2.438,2.446,2.446,0,0,0,2.446,2.441,2.441,2.441,0,0,0,2.439-2.441A2.439,2.439,0,0,0-830.355,12.313Zm-87.183,30.622h-.013a2.311,2.311,0,0,0-.859.174,2.389,2.389,0,0,0-.371.209,2.627,2.627,0,0,0-.3.2,2.356,2.356,0,0,0-.409.452c-.023.035-.046.068-.07.1a2.334,2.334,0,0,0-.3.664l0,0h0a2.383,2.383,0,0,0-.126.632,2.421,2.421,0,0,0,1.382,2.171h0l0,0a2.388,2.388,0,0,0,1.049.263l.012,0a2.438,2.438,0,0,0,2.439-2.439,2.457,2.457,0,0,0-.19-.95A2.441,2.441,0,0,0-917.538,42.935Zm0-30.622h-.013a2.434,2.434,0,0,0-2.433,2.438,2.447,2.447,0,0,0,2.446,2.441,2.44,2.44,0,0,0,2.439-2.441A2.438,2.438,0,0,0-917.538,12.313Zm0,15.312h-.013a2.435,2.435,0,0,0-2.433,2.439,2.446,2.446,0,0,0,2.446,2.439,2.438,2.438,0,0,0,2.439-2.439A2.438,2.438,0,0,0-917.538,27.625ZM-900.1,12.313h-.013a2.433,2.433,0,0,0-2.432,2.438,2.446,2.446,0,0,0,2.446,2.441,2.442,2.442,0,0,0,2.439-2.441A2.44,2.44,0,0,0-900.1,12.313Zm17.435-41.059a2.439,2.439,0,0,0,2.439-2.439,2.439,2.439,0,0,0-2.439-2.439h-.012a2.435,2.435,0,0,0-2.434,2.439A2.445,2.445,0,0,0-882.665-28.746Zm0,30.622a2.439,2.439,0,0,0,2.439-2.438A2.438,2.438,0,0,0-882.665-3h-.012a2.434,2.434,0,0,0-2.434,2.439A2.445,2.445,0,0,0-882.665,1.876Zm0-15.31a2.44,2.44,0,0,0,2.439-2.439,2.438,2.438,0,0,0-2.439-2.439h-.012a2.434,2.434,0,0,0-2.434,2.439A2.446,2.446,0,0,0-882.665-13.434ZM-900.1,42.935h-.013a2.434,2.434,0,0,0-2.432,2.439,2.445,2.445,0,0,0,2.446,2.439,2.441,2.441,0,0,0,2.439-2.439A2.44,2.44,0,0,0-900.1,42.935Zm0-15.31h-.013a2.434,2.434,0,0,0-2.432,2.439A2.445,2.445,0,0,0-900.1,32.5a2.441,2.441,0,0,0,2.439-2.439A2.441,2.441,0,0,0-900.1,27.625Zm0-45.937h-.013a2.433,2.433,0,0,0-2.432,2.439,2.446,2.446,0,0,0,2.446,2.439,2.442,2.442,0,0,0,2.439-2.439A2.439,2.439,0,0,0-900.1-18.312Zm17.435,35.5a2.441,2.441,0,0,0,2.439-2.441,2.439,2.439,0,0,0-2.439-2.438h-.012a2.435,2.435,0,0,0-2.434,2.438A2.446,2.446,0,0,0-882.665,17.192ZM-900.1,58.247h-.013a2.434,2.434,0,0,0-2.432,2.439,2.445,2.445,0,0,0,2.446,2.439,2.44,2.44,0,0,0,2.439-2.439A2.441,2.441,0,0,0-900.1,58.247ZM-900.1-3h-.013a2.433,2.433,0,0,0-2.432,2.439A2.445,2.445,0,0,0-900.1,1.876a2.44,2.44,0,0,0,2.439-2.438A2.439,2.439,0,0,0-900.1-3Zm88.087,46.119a2.359,2.359,0,0,0-.769-.156c-.046,0-.088-.028-.136-.028h-.013a2.434,2.434,0,0,0-2.433,2.439,2.364,2.364,0,0,0,.189.92,2.356,2.356,0,0,0,.346.533c.051.065.081.144.137.2a2.413,2.413,0,0,0,1.59.745l.01,0h0c.061,0,.113.035.174.035a2.439,2.439,0,0,0,2.439-2.439A2.43,2.43,0,0,0-812.013,43.119Zm-35.778,30.44h-.013a2.375,2.375,0,0,0-1.471.546,2.373,2.373,0,0,0-.25.169,2.431,2.431,0,0,0-.672,1.534c-.007.066-.04.124-.04.19h0a2.329,2.329,0,0,0,.174.849,2,2,0,0,0,.114.24,2.533,2.533,0,0,0,.326.483,2.316,2.316,0,0,0,.19.21,2.426,2.426,0,0,0,.657.442h0a2.424,2.424,0,0,0,.985.215,2.413,2.413,0,0,0,2.292-1.706,2.059,2.059,0,0,0,.144-.718l0-.015A2.439,2.439,0,0,0-847.792,73.559Z" transform="translate(919.984 33.624)" fill="#00ceff"/></g></g></g></svg>