<svg xmlns="http://www.w3.org/2000/svg" width="517.734" height="343.992" viewBox="0 0 517.734 343.992"><defs><style>.a,.i{fill:#edf4ff;}.a,.b,.d,.e,.f,.g{stroke:#0f72ee;}.a,.b,.d,.e,.f{stroke-linecap:round;}.a,.b,.d,.e{stroke-linejoin:round;stroke-width:2.423px;}.b,.c,.d{fill:#fafcff;}.b{stroke-dasharray:7.575;}.e,.g,.h{fill:#0f72ee;}.f{fill:none;stroke-miterlimit:10;stroke-width:2.704px;}</style></defs><g transform="translate(-1023.242 -258.177)"><path class="a" d="M161.7,313.229h.671a26.822,26.822,0,0,0-50.719,0h-2.235a15.058,15.058,0,0,0-15.058,15.058v3.652h82.4v-3.652A15.057,15.057,0,0,0,161.7,313.229Z" transform="translate(930.096 248.568)"/><path class="a" d="M161.7,313.229h.671a26.822,26.822,0,0,0-50.719,0h-2.235a15.058,15.058,0,0,0-15.058,15.058v3.652h82.4v-3.652A15.057,15.057,0,0,0,161.7,313.229Z" transform="translate(1290.096 21.568)"/><g transform="translate(1147.852 354.37)"><path class="b" d="M4.866,0H157.045a4.866,4.866,0,0,1,4.866,4.866V140.708a0,0,0,0,1,0,0H0a0,0,0,0,1,0,0V4.866A4.866,4.866,0,0,1,4.866,0Z" transform="translate(0 42.13)"/><path class="c" d="M4.866,0H157.045a4.866,4.866,0,0,1,4.866,4.866V140.708a0,0,0,0,1,0,0H0a0,0,0,0,1,0,0V4.866A4.866,4.866,0,0,1,4.866,0Z" transform="translate(52.108)"/><path class="d" d="M4.866,0H157.045a4.866,4.866,0,0,1,4.866,4.866V140.708a0,0,0,0,1,0,0H0a0,0,0,0,1,0,0V4.866A4.866,4.866,0,0,1,4.866,0Z" transform="translate(19.956 22.174)"/><path class="e" d="M4.866,0H157.045a4.866,4.866,0,0,1,4.866,4.866V27.306a0,0,0,0,1,0,0H0a0,0,0,0,1,0,0V4.866A4.866,4.866,0,0,1,4.866,0Z" transform="translate(19.956 22.174)"/><g transform="translate(38.361 94.776)"><g transform="translate(36.148 -16)"><g transform="translate(0.766 0.425)"><line class="f" x2="14.703" y2="14.362" transform="translate(0 0.17)"/><line class="f" y1="14.703" x2="14.362" transform="translate(0.17)"/></g><g transform="translate(37.04)"><line class="f" x2="14.703" y2="14.362" transform="translate(0 0.17)"/><line class="f" y1="14.703" x2="14.362" transform="translate(0.17)"/></g><path class="g" d="M255.223,282.942a26.887,26.887,0,0,1,26.57-27.2h0a26.887,26.887,0,0,1,27.2,26.57Z" transform="translate(-255.222 -221.081)"/><path class="e" d="M255.223,282.942a26.887,26.887,0,0,1,26.57-27.2h0a26.887,26.887,0,0,1,27.2,26.57Z" transform="translate(-255.222 -221.081)"/></g></g><g transform="translate(31.843 33.417)"><path class="h" d="M206.367,187.9a3.534,3.534,0,1,1-3.533-3.534A3.533,3.533,0,0,1,206.367,187.9Z" transform="translate(-199.3 -184.369)"/><path class="h" d="M219.536,187.9A3.534,3.534,0,1,1,216,184.369,3.533,3.533,0,0,1,219.536,187.9Z" transform="translate(-195.121 -184.369)"/><path class="h" d="M232.705,187.9a3.534,3.534,0,1,1-3.533-3.534A3.533,3.533,0,0,1,232.705,187.9Z" transform="translate(-190.943 -184.369)"/><path class="i" d="M206.367,187.9a3.534,3.534,0,1,1-3.533-3.534A3.533,3.533,0,0,1,206.367,187.9Z" transform="translate(-199.3 -184.369)"/><path class="i" d="M219.536,187.9A3.534,3.534,0,1,1,216,184.369,3.533,3.533,0,0,1,219.536,187.9Z" transform="translate(-195.121 -184.369)"/><path class="i" d="M232.705,187.9a3.534,3.534,0,1,1-3.533-3.534A3.533,3.533,0,0,1,232.705,187.9Z" transform="translate(-190.943 -184.369)"/></g></g><g transform="translate(1117.131 311.587)"><g transform="translate(0)"><path class="h" d="M152.5,148.892a16.438,16.438,0,0,1-.6-6.4,15.442,15.442,0,0,1,2.021-6.082,17.929,17.929,0,0,1,4.724-5.253,21.881,21.881,0,0,1,7.39-3.957,16.055,16.055,0,0,1,6.3-.565,12.2,12.2,0,0,1,4.954,1.7,12.529,12.529,0,0,1,3.349,2.93,14.9,14.9,0,0,1,2.666,4.906,13.67,13.67,0,0,1,.536,4.252,14.389,14.389,0,0,1-.677,3.82q-.585,1.814-1.034,3.522a13.816,13.816,0,0,0-.458,3.474,7.114,7.114,0,0,0,1.045,3.6l1.616,2.1-7.476,5.74-1.913-2.492a14.307,14.307,0,0,1-2.147-4.688,14.469,14.469,0,0,1-.36-4.08,17.624,17.624,0,0,1,.6-3.582q.47-1.68.773-3.233a9.363,9.363,0,0,0,.12-3,5.72,5.72,0,0,0-1.386-2.9A6.384,6.384,0,0,0,168.4,135.9a5.98,5.98,0,0,0-4.4,1.439,6.744,6.744,0,0,0-2.129,2.558,6.466,6.466,0,0,0-.582,2.91,8.478,8.478,0,0,0,.719,3.057,14.232,14.232,0,0,0,1.813,3.052l-8.14,6.248A19.985,19.985,0,0,1,152.5,148.892Zm34.82,11.025,6.546,8.528-8.694,6.673-6.546-8.528Z" transform="translate(-151.808 -126.524)"/></g><g transform="translate(1.907 51.884)"><path class="h" d="M158.306,185.463a9.861,9.861,0,0,1-2.982-2.471,9.256,9.256,0,0,1-1.732-3.453,10.819,10.819,0,0,1-.227-4.251,13.2,13.2,0,0,1,1.464-4.836,9.719,9.719,0,0,1,2.441-2.924,7.424,7.424,0,0,1,2.835-1.388,7.6,7.6,0,0,1,2.675-.178,8.992,8.992,0,0,1,3.226.954,8.137,8.137,0,0,1,2.042,1.585,8.683,8.683,0,0,1,1.337,1.915q.524,1.024,1.06,1.943a8.373,8.373,0,0,0,1.288,1.674,4.285,4.285,0,0,0,1.977,1.088l1.585.208-.742,5.63-1.876-.248a8.594,8.594,0,0,1-2.913-1.083,8.694,8.694,0,0,1-1.892-1.585,10.581,10.581,0,0,1-1.273-1.78c-.345-.61-.693-1.18-1.049-1.707a5.645,5.645,0,0,0-1.224-1.328,3.455,3.455,0,0,0-1.826-.643,3.849,3.849,0,0,0-2.96.565,3.6,3.6,0,0,0-1.259,2.486,4.063,4.063,0,0,0,.182,2,3.9,3.9,0,0,0,.992,1.489,5.138,5.138,0,0,0,1.608,1,8.663,8.663,0,0,0,2.073.528l-.806,6.131A12,12,0,0,1,158.306,185.463Zm19.534-10.138,6.423.843-.862,6.548-6.423-.844Z" transform="translate(-153.255 -165.911)"/></g><g transform="translate(51.352 15.441)"><path class="h" d="M191.511,144.6a9.888,9.888,0,0,1,2.019-3.308,9.267,9.267,0,0,1,3.167-2.209,10.788,10.788,0,0,1,4.173-.833,13.222,13.222,0,0,1,5,.751,9.709,9.709,0,0,1,3.246,2,7.364,7.364,0,0,1,1.78,2.606,7.571,7.571,0,0,1,.561,2.623,8.971,8.971,0,0,1-.48,3.33A8.22,8.22,0,0,1,209.7,151.8a8.622,8.622,0,0,1-1.7,1.6c-.624.445-1.216.887-1.769,1.329a8.351,8.351,0,0,0-1.474,1.514,4.3,4.3,0,0,0-.792,2.114l.021,1.6-5.676.076-.026-1.893A8.2,8.2,0,0,1,200.226,153a10.836,10.836,0,0,1,1.579-1.515q.834-.64,1.54-1.282a5.71,5.71,0,0,0,1.138-1.4,3.447,3.447,0,0,0,.374-1.9,3.838,3.838,0,0,0-.985-2.848,3.606,3.606,0,0,0-2.641-.889,4.077,4.077,0,0,0-1.95.468,3.925,3.925,0,0,0-1.33,1.195,5.153,5.153,0,0,0-.755,1.736,8.606,8.606,0,0,0-.223,2.126l-6.183.083A12.019,12.019,0,0,1,191.511,144.6Zm12.84,17.876.088,6.477-6.6.09-.087-6.477Z" transform="translate(-190.79 -138.246)"/></g></g><g transform="translate(1489.111 526.416)"><path class="h" d="M465.22,285.813H439.338a1.132,1.132,0,0,0,0,2.264H465.22a1.132,1.132,0,1,0,0-2.264Z" transform="translate(-424.91 -285.809)"/><path class="h" d="M434.3,285.81h-5.057a1.132,1.132,0,1,0,0,2.264H434.3a1.132,1.132,0,1,0,0-2.264Z" transform="translate(-428.113 -285.81)"/><path class="h" d="M456.262,292.932a1.133,1.133,0,0,1-1.133,1.132h-3.237a1.132,1.132,0,1,1,0-2.264h3.237A1.133,1.133,0,0,1,456.262,292.932Zm-8.9,0a1.133,1.133,0,0,1-1.133,1.132h-5.662a1.132,1.132,0,0,1,0-2.264h5.662A1.133,1.133,0,0,1,447.363,292.932Zm-11.324,0a1.132,1.132,0,0,1-1.132,1.132h-5.662a1.132,1.132,0,0,1,0-2.264h5.662A1.133,1.133,0,0,1,436.04,292.932Z" transform="translate(-428.112 -283.91)"/></g><g transform="translate(1527.531 541.701)"><path class="h" d="M462.654,303.544a1.132,1.132,0,0,0-1.132,1.132V307.3a1.132,1.132,0,0,0,2.264,0v-2.628A1.133,1.133,0,0,0,462.654,303.544Z" transform="translate(-455.933 -295.468)"/><path class="h" d="M461.037,301.544h-2.625a1.133,1.133,0,1,0,0,2.266h2.625a1.133,1.133,0,1,0,0-2.266Z" transform="translate(-457.279 -296.102)"/><path class="h" d="M462.654,297.413a1.132,1.132,0,0,0-1.132,1.132v2.625a1.132,1.132,0,1,0,2.264,0v-2.625A1.133,1.133,0,0,0,462.654,297.413Z" transform="translate(-455.933 -297.413)"/><path class="h" d="M467.532,301.407H464.9a1.132,1.132,0,1,0,0,2.264h2.627a1.132,1.132,0,0,0,0-2.264Z" transform="translate(-455.219 -296.146)"/></g><g transform="translate(1096.688 258.177)"><path class="h" d="M159.883,85.278a1.131,1.131,0,0,0-1.132,1.132v2.627a1.132,1.132,0,1,0,2.263,0V86.41A1.131,1.131,0,0,0,159.883,85.278Z" transform="translate(-153.16 -77.202)"/><path class="h" d="M158.267,83.277h-2.628a1.132,1.132,0,0,0,0,2.264h2.628a1.132,1.132,0,0,0,0-2.264Z" transform="translate(-154.507 -77.837)"/><path class="h" d="M159.883,79.147a1.131,1.131,0,0,0-1.132,1.132V82.9a1.132,1.132,0,1,0,2.263,0V80.279A1.131,1.131,0,0,0,159.883,79.147Z" transform="translate(-153.16 -79.147)"/><path class="h" d="M164.76,83.141h-2.627a1.132,1.132,0,1,0,0,2.264h2.627a1.132,1.132,0,0,0,0-2.264Z" transform="translate(-152.447 -77.88)"/></g><g transform="translate(1259.652 260.127)"><path class="h" d="M286.182,76.732h25.883a1.132,1.132,0,1,0,0-2.264H286.182a1.132,1.132,0,0,0,0,2.264Z" transform="translate(-285.05 -66.581)"/><path class="h" d="M312.083,76.735h5.058a1.132,1.132,0,0,0,0-2.264h-5.058a1.132,1.132,0,0,0,0,2.264Z" transform="translate(-276.831 -66.58)"/><path class="h" d="M295.14,69.614a1.133,1.133,0,0,1,1.133-1.133h3.238a1.132,1.132,0,0,1,0,2.264h-3.238A1.132,1.132,0,0,1,295.14,69.614Zm8.9,0a1.133,1.133,0,0,1,1.132-1.133h5.662a1.132,1.132,0,1,1,0,2.264h-5.662A1.132,1.132,0,0,1,304.04,69.614Zm11.322,0a1.133,1.133,0,0,1,1.132-1.133h5.662a1.132,1.132,0,1,1,0,2.264h-5.662A1.132,1.132,0,0,1,315.362,69.614Z" transform="translate(-281.848 -68.481)"/></g><g transform="translate(1483.262 272.555)"><path class="h" d="M435.121,101.785a1.131,1.131,0,0,0,1.132-1.132V98.026a1.132,1.132,0,0,0-2.264,0v2.628A1.132,1.132,0,0,0,435.121,101.785Z" transform="translate(-428.399 -96.894)"/><path class="h" d="M437.37,103.152H440a1.132,1.132,0,0,0,0-2.264H437.37a1.132,1.132,0,0,0,0,2.264Z" transform="translate(-427.685 -95.627)"/><path class="h" d="M435.121,107.916a1.131,1.131,0,0,0,1.132-1.132v-2.625a1.132,1.132,0,1,0-2.264,0v2.625A1.133,1.133,0,0,0,435.121,107.916Z" transform="translate(-428.399 -94.948)"/><path class="h" d="M430.877,103.289H433.5a1.132,1.132,0,0,0,0-2.264h-2.627a1.132,1.132,0,0,0,0,2.264Z" transform="translate(-429.745 -95.583)"/></g><g transform="translate(1049.316 311.854)"><path class="h" d="M117.625,133.545h25.882a1.132,1.132,0,1,0,0-2.264H117.625a1.132,1.132,0,0,0,0,2.264Z" transform="translate(-103.197 -131.281)"/><path class="h" d="M107.532,133.548h5.057a1.132,1.132,0,1,0,0-2.263h-5.057a1.132,1.132,0,0,0,0,2.263Z" transform="translate(-106.4 -131.28)"/></g><path class="h" d="M427.952,173.149s.537,3.844-3.952,3.756c0,0,3.858.04,3.754,3.648a4.378,4.378,0,0,1,3.887-3.472S428.65,177.765,427.952,173.149Z" transform="translate(1051.693 199.857)"/><path class="h" d="M265.952,67.149s.537,3.844-3.952,3.756c0,0,3.858.04,3.754,3.648a4.38,4.38,0,0,1,3.887-3.474S266.65,71.765,265.952,67.149Z" transform="translate(967.289 191.223)"/><path class="h" d="M103.151,172.016s.537,3.844-3.952,3.757c0,0,3.858.04,3.754,3.646a4.378,4.378,0,0,1,3.887-3.472S103.849,176.633,103.151,172.016Z" transform="translate(940.631 193.498)"/><path class="h" d="M129.428,288.008a3.793,3.793,0,1,1,3.794,3.793A3.8,3.8,0,0,1,129.428,288.008Zm1.88,0a1.913,1.913,0,1,0,1.914-1.913A1.916,1.916,0,0,0,131.308,288.008Z" transform="translate(941.223 245.1)"/><path class="h" d="M375.832,231.852a3.793,3.793,0,1,1,3.794,3.793A3.8,3.8,0,0,1,375.832,231.852Zm1.88,0a1.913,1.913,0,1,0,1.914-1.914A1.915,1.915,0,0,0,377.712,231.852Z" transform="translate(1036.408 217.281)"/><path class="h" d="M288.387,317.931a3.793,3.793,0,1,1,3.793,3.793A3.8,3.8,0,0,1,288.387,317.931Zm1.88,0a1.913,1.913,0,1,0,1.913-1.913A1.915,1.915,0,0,0,290.267,317.931Z" transform="translate(1008.662 244.595)"/><path class="h" d="M242.682,123.761a3.793,3.793,0,1,1,3.794,3.794A3.8,3.8,0,0,1,242.682,123.761Zm1.88,0a1.913,1.913,0,1,0,1.914-1.913A1.916,1.916,0,0,0,244.562,123.761Z" transform="translate(994.16 182.983)"/><g transform="translate(1365.004 288.092)"><path class="h" d="M345.112,108.688h-4.2a.94.94,0,1,0,0,1.88h4.2a.94.94,0,0,0,0-1.88Z" transform="translate(-339.974 -108.688)"/><path class="h" d="M370.773,108.691H349.29a.94.94,0,0,0,0,1.88h21.483a.94.94,0,1,0,0-1.88Z" transform="translate(-337.316 -108.687)"/><path class="h" d="M363.337,114.6a.94.94,0,0,1-.939.941h-2.687a.94.94,0,0,1,0-1.88H362.4A.939.939,0,0,1,363.337,114.6Zm-7.386,0a.94.94,0,0,1-.939.941h-4.7a.94.94,0,0,1,0-1.88h4.7A.939.939,0,0,1,355.951,114.6Zm-9.4,0a.94.94,0,0,1-.939.941h-4.7a.94.94,0,0,1,0-1.88h4.7A.939.939,0,0,1,346.553,114.6Z" transform="translate(-339.973 -107.11)"/></g><g transform="translate(1103.877 480.867)"><path class="h" d="M146.205,260.117a.94.94,0,0,0-.939.939v2.181a.94.94,0,0,0,1.88,0v-2.181A.94.94,0,0,0,146.205,260.117Z" transform="translate(-140.628 -253.413)"/><path class="h" d="M144.863,258.458h-2.179a.939.939,0,1,0,0,1.878h2.179a.939.939,0,1,0,0-1.878Z" transform="translate(-141.745 -253.94)"/><path class="h" d="M146.205,255.028a.941.941,0,0,0-.939.941v2.179a.94.94,0,0,0,1.88,0v-2.179A.941.941,0,0,0,146.205,255.028Z" transform="translate(-140.628 -255.028)"/><path class="h" d="M150.253,258.343h-2.18a.94.94,0,0,0,0,1.88h2.18a.94.94,0,0,0,0-1.88Z" transform="translate(-140.035 -253.976)"/></g><g transform="translate(1393.959 408.399)"><path class="h" d="M366.416,205.1a.94.94,0,0,0-.941.941v2.18a.94.94,0,0,0,1.88,0v-2.18A.939.939,0,0,0,366.416,205.1Z" transform="translate(-360.837 -198.402)"/><path class="h" d="M365.073,203.445h-2.18a.939.939,0,0,0,0,1.878h2.18a.939.939,0,1,0,0-1.878Z" transform="translate(-361.954 -198.928)"/><path class="h" d="M366.416,200.016a.94.94,0,0,0-.941.939v2.179a.94.94,0,0,0,1.88,0v-2.179A.939.939,0,0,0,366.416,200.016Z" transform="translate(-360.837 -200.016)"/><path class="h" d="M370.462,203.33h-2.179a.94.94,0,1,0,0,1.88h2.179a.94.94,0,1,0,0-1.88Z" transform="translate(-360.244 -198.964)"/></g><g transform="translate(1278.393 317.76)"><path class="h" d="M278.686,136.3a.94.94,0,0,0-.941.939v2.18a.94.94,0,1,0,1.88,0v-2.18A.939.939,0,0,0,278.686,136.3Z" transform="translate(-273.107 -129.595)"/><path class="h" d="M277.343,134.639h-2.18a.94.94,0,0,0,0,1.88h2.18a.94.94,0,0,0,0-1.88Z" transform="translate(-274.224 -130.122)"/><path class="h" d="M278.686,131.21a.94.94,0,0,0-.941.939v2.179a.94.94,0,1,0,1.88,0v-2.179A.939.939,0,0,0,278.686,131.21Z" transform="translate(-273.107 -131.21)"/><path class="h" d="M282.732,134.525h-2.179a.94.94,0,1,0,0,1.88h2.179a.94.94,0,1,0,0-1.88Z" transform="translate(-272.514 -130.158)"/></g><g transform="translate(1349.873 528.574)"><path class="h" d="M326.876,292.536a.94.94,0,0,0-.941.939v2.181a.94.94,0,0,0,1.88,0v-2.181A.939.939,0,0,0,326.876,292.536Z" transform="translate(-321.297 -285.834)"/><path class="h" d="M325.533,290.877h-2.18a.939.939,0,1,0,0,1.878h2.18a.939.939,0,0,0,0-1.878Z" transform="translate(-322.414 -286.36)"/><path class="h" d="M326.876,287.448a.94.94,0,0,0-.941.939v2.179a.94.94,0,0,0,1.88,0v-2.179A.939.939,0,0,0,326.876,287.448Z" transform="translate(-321.297 -287.448)"/><path class="h" d="M330.922,290.762h-2.179a.94.94,0,1,0,0,1.88h2.179a.94.94,0,1,0,0-1.88Z" transform="translate(-320.704 -286.396)"/></g><g transform="translate(1394.768 503.022)"><path class="h" d="M365.81,269.929h21.483a.939.939,0,1,0,0-1.878H365.81a.939.939,0,1,0,0,1.878Z" transform="translate(-353.836 -268.051)"/><path class="h" d="M357.433,269.932h4.2a.939.939,0,0,0,0-1.879h-4.2a.939.939,0,1,0,0,1.879Z" transform="translate(-356.494 -268.05)"/></g><g transform="translate(1086.377 600.287)"><path class="h" d="M150.684,339.972h21.481a.94.94,0,1,0,0-1.88H150.684a.94.94,0,1,0,0,1.88Z" transform="translate(-138.708 -338.092)"/><path class="h" d="M142.307,339.974h4.2a.939.939,0,1,0,0-1.879h-4.2a.939.939,0,1,0,0,1.879Z" transform="translate(-141.366 -338.091)"/></g><g transform="translate(1357.898 549.254)"><path class="h" d="M333.882,309.278a1.131,1.131,0,0,0-1.132,1.132v2.627a1.132,1.132,0,1,0,2.264,0V310.41A1.132,1.132,0,0,0,333.882,309.278Z" transform="translate(-327.161 -301.202)"/><path class="h" d="M332.265,307.278h-2.627a1.132,1.132,0,0,0,0,2.264h2.627a1.132,1.132,0,0,0,0-2.264Z" transform="translate(-328.507 -301.836)"/><path class="h" d="M333.882,303.147a1.131,1.131,0,0,0-1.132,1.132V306.9a1.132,1.132,0,0,0,2.264,0v-2.625A1.132,1.132,0,0,0,333.882,303.147Z" transform="translate(-327.161 -303.147)"/><path class="h" d="M338.758,307.14h-2.627a1.133,1.133,0,0,0,0,2.266h2.627a1.133,1.133,0,1,0,0-2.266Z" transform="translate(-326.447 -301.88)"/></g></g></svg>