<svg xmlns="http://www.w3.org/2000/svg" width="628.447" height="760.736" viewBox="0 0 628.447 760.736"><g transform="translate(-1110.738 -163.665)"><g transform="translate(1110.738 797.563)"><g transform="translate(0 0)"><path d="M-858.009,35.7h-.013a2.756,2.756,0,0,0-2.755,2.761,2.768,2.768,0,0,0,2.768,2.761,2.761,2.761,0,0,0,2.761-2.761A2.761,2.761,0,0,0-858.009,35.7Zm0,17.329h-.013a2.756,2.756,0,0,0-2.755,2.761,2.768,2.768,0,0,0,2.768,2.761,2.761,2.761,0,0,0,2.761-2.761A2.761,2.761,0,0,0-858.009,53.03Zm0,34.662h-.013a2.756,2.756,0,0,0-2.755,2.761,2.766,2.766,0,0,0,2.768,2.761,2.76,2.76,0,0,0,2.761-2.761A2.761,2.761,0,0,0-858.009,87.691Zm0-17.331h-.013a2.756,2.756,0,0,0-2.755,2.761,2.768,2.768,0,0,0,2.768,2.761,2.761,2.761,0,0,0,2.761-2.761A2.761,2.761,0,0,0-858.009,70.361Zm19.736-86.654h-.015a2.754,2.754,0,0,0-2.754,2.761,2.769,2.769,0,0,0,2.768,2.761,2.762,2.762,0,0,0,2.761-2.761A2.76,2.76,0,0,0-838.273-16.293ZM-858.009,18.37h-.013a2.756,2.756,0,0,0-2.755,2.759,2.769,2.769,0,0,0,2.768,2.763,2.763,2.763,0,0,0,2.761-2.763A2.761,2.761,0,0,0-858.009,18.37Zm-19.736,40.181a2.761,2.761,0,0,0,2.761-2.761,2.761,2.761,0,0,0-2.761-2.761h-.013a2.756,2.756,0,0,0-2.755,2.761A2.767,2.767,0,0,0-877.745,58.551Zm0,17.331a2.761,2.761,0,0,0,2.761-2.761,2.761,2.761,0,0,0-2.761-2.761h-.013a2.756,2.756,0,0,0-2.755,2.761A2.767,2.767,0,0,0-877.745,75.882Zm19.736-109.506h-.013a2.756,2.756,0,0,0-2.755,2.761,2.768,2.768,0,0,0,2.768,2.761,2.761,2.761,0,0,0,2.761-2.761A2.761,2.761,0,0,0-858.009-33.624Zm0,17.331h-.013a2.755,2.755,0,0,0-2.755,2.761,2.769,2.769,0,0,0,2.768,2.761,2.762,2.762,0,0,0,2.761-2.761A2.76,2.76,0,0,0-858.009-16.293Zm0,17.331h-.013A2.755,2.755,0,0,0-860.777,3.8a2.767,2.767,0,0,0,2.768,2.759A2.761,2.761,0,0,0-855.248,3.8,2.76,2.76,0,0,0-858.009,1.038ZM-798.8,41.222a2.762,2.762,0,0,0,2.761-2.761A2.762,2.762,0,0,0-798.8,35.7h-.015a2.754,2.754,0,0,0-2.753,2.761A2.767,2.767,0,0,0-798.8,41.222Zm0-17.331a2.764,2.764,0,0,0,2.761-2.763A2.762,2.762,0,0,0-798.8,18.37h-.015a2.754,2.754,0,0,0-2.753,2.759A2.769,2.769,0,0,0-798.8,23.892ZM-799.879,6.34a2.751,2.751,0,0,0,1.077.217,2.718,2.718,0,0,0,1.124-.251c.011,0,.019-.015.03-.019a2.751,2.751,0,0,0,.873-.652h0a2.732,2.732,0,0,0,.732-1.839A2.762,2.762,0,0,0-798.8,1.036h-.015A2.754,2.754,0,0,0-801.57,3.8h0v0A2.76,2.76,0,0,0-799.879,6.34ZM-875.793,88.5a3.055,3.055,0,0,0-.284-.193,2.708,2.708,0,0,0-1.667-.616h-.015a2.754,2.754,0,0,0-2.753,2.761,2.741,2.741,0,0,0,.792,1.924l0,0a2.751,2.751,0,0,0,1.974.835,2.762,2.762,0,0,0,.412-.082h0l.006,0a2.708,2.708,0,0,0,1.637-.875,2.8,2.8,0,0,0,.163-.245,2.637,2.637,0,0,0,.339-.549,2.657,2.657,0,0,0,.2-.995l0-.013a2.733,2.733,0,0,0-.712-1.809C-875.735,88.6-875.752,88.542-875.793,88.5Zm-1.952-47.278a2.761,2.761,0,0,0,2.761-2.761,2.761,2.761,0,0,0-2.761-2.761h-.013a2.756,2.756,0,0,0-2.755,2.761A2.767,2.767,0,0,0-877.745,41.222Zm39.471,29.138h-.015a2.755,2.755,0,0,0-2.754,2.761,2.767,2.767,0,0,0,2.768,2.761,2.761,2.761,0,0,0,2.761-2.761A2.761,2.761,0,0,0-838.273,70.361Zm0-51.99h-.015a2.754,2.754,0,0,0-2.754,2.759,2.769,2.769,0,0,0,2.768,2.763,2.763,2.763,0,0,0,2.761-2.763A2.761,2.761,0,0,0-838.273,18.37Zm0,17.331h-.015a2.755,2.755,0,0,0-2.754,2.761,2.767,2.767,0,0,0,2.768,2.761,2.761,2.761,0,0,0,2.761-2.761A2.761,2.761,0,0,0-838.273,35.7Zm0,17.329h-.015a2.755,2.755,0,0,0-2.754,2.761,2.767,2.767,0,0,0,2.768,2.761,2.761,2.761,0,0,0,2.761-2.761A2.761,2.761,0,0,0-838.273,53.03Zm0-51.992h-.015A2.754,2.754,0,0,0-841.042,3.8a2.767,2.767,0,0,0,2.768,2.759A2.761,2.761,0,0,0-835.512,3.8,2.76,2.76,0,0,0-838.273,1.038Zm19.736-17.331h-.015a2.753,2.753,0,0,0-2.753,2.761,2.769,2.769,0,0,0,2.768,2.761,2.762,2.762,0,0,0,2.761-2.761A2.76,2.76,0,0,0-818.537-16.293ZM-838.273-28.1a2.761,2.761,0,0,0,2.761-2.761l0,0a2.674,2.674,0,0,0-.322-1.229c-.019-.036-.043-.062-.064-.1a2.713,2.713,0,0,0-.805-.884h0a2.686,2.686,0,0,0-1.566-.549h-.015a2.755,2.755,0,0,0-2.754,2.761A2.769,2.769,0,0,0-838.273-28.1Zm19.736,81.132h-.015a2.754,2.754,0,0,0-2.753,2.761,2.767,2.767,0,0,0,2.768,2.761,2.761,2.761,0,0,0,2.761-2.761A2.761,2.761,0,0,0-818.537,53.03Zm0,17.331h-.015a2.754,2.754,0,0,0-2.753,2.761,2.767,2.767,0,0,0,2.768,2.761,2.761,2.761,0,0,0,2.761-2.761A2.761,2.761,0,0,0-818.537,70.361Zm0-69.323h-.015A2.753,2.753,0,0,0-821.306,3.8a2.767,2.767,0,0,0,2.768,2.759A2.761,2.761,0,0,0-815.777,3.8,2.76,2.76,0,0,0-818.537,1.038Zm0,34.663h-.015a2.754,2.754,0,0,0-2.753,2.761,2.767,2.767,0,0,0,2.768,2.761,2.761,2.761,0,0,0,2.761-2.761A2.761,2.761,0,0,0-818.537,35.7ZM-917.216,1.038h-.015a2.408,2.408,0,0,0-.879.176,2.68,2.68,0,0,0-.676.367h0l0,0A2.712,2.712,0,0,0-919.982,3.8a2.512,2.512,0,0,0,.067.332h0l0,.007a2.7,2.7,0,0,0,.871,1.7c.064.058.146.092.215.146a2.67,2.67,0,0,0,.594.369,2.615,2.615,0,0,0,1.017.206,2.763,2.763,0,0,0,2.545-1.686,2.764,2.764,0,0,0,.215-1.073,2.766,2.766,0,0,0-.215-1.075A2.763,2.763,0,0,0-917.216,1.038Zm98.678,17.333h-.015a2.754,2.754,0,0,0-2.753,2.759,2.769,2.769,0,0,0,2.768,2.763,2.763,2.763,0,0,0,2.761-2.763A2.761,2.761,0,0,0-818.537,18.37Zm-98.678,34.66h-.015a2.618,2.618,0,0,0-.972.2,2.716,2.716,0,0,0-.42.236,2.983,2.983,0,0,0-.339.23,2.661,2.661,0,0,0-.462.511c-.026.039-.053.077-.079.118a2.641,2.641,0,0,0-.335.751l0,0h0a2.694,2.694,0,0,0-.142.715,2.741,2.741,0,0,0,1.564,2.457h0l0,0a2.7,2.7,0,0,0,1.188.3l.013,0a2.76,2.76,0,0,0,2.761-2.761,2.78,2.78,0,0,0-.215-1.075A2.763,2.763,0,0,0-917.216,53.03Zm0-34.66h-.015a2.755,2.755,0,0,0-2.753,2.759,2.77,2.77,0,0,0,2.768,2.763,2.761,2.761,0,0,0,2.761-2.763A2.759,2.759,0,0,0-917.216,18.37Zm0,17.331h-.015a2.756,2.756,0,0,0-2.753,2.761,2.768,2.768,0,0,0,2.768,2.761,2.76,2.76,0,0,0,2.761-2.761A2.76,2.76,0,0,0-917.216,35.7Zm19.737-17.331h-.015a2.754,2.754,0,0,0-2.753,2.759,2.769,2.769,0,0,0,2.768,2.763,2.764,2.764,0,0,0,2.761-2.763A2.762,2.762,0,0,0-897.478,18.37ZM-877.745-28.1a2.761,2.761,0,0,0,2.761-2.761,2.761,2.761,0,0,0-2.761-2.761h-.013a2.756,2.756,0,0,0-2.755,2.761A2.767,2.767,0,0,0-877.745-28.1Zm0,34.66A2.76,2.76,0,0,0-874.984,3.8a2.76,2.76,0,0,0-2.761-2.761h-.013A2.755,2.755,0,0,0-880.513,3.8,2.767,2.767,0,0,0-877.745,6.557Zm0-17.329a2.762,2.762,0,0,0,2.761-2.761,2.76,2.76,0,0,0-2.761-2.761h-.013a2.755,2.755,0,0,0-2.755,2.761A2.769,2.769,0,0,0-877.745-10.772Zm-19.734,63.8h-.015a2.755,2.755,0,0,0-2.753,2.761,2.768,2.768,0,0,0,2.768,2.761,2.762,2.762,0,0,0,2.761-2.761A2.762,2.762,0,0,0-897.478,53.03Zm0-17.329h-.015a2.755,2.755,0,0,0-2.753,2.761,2.768,2.768,0,0,0,2.768,2.761,2.762,2.762,0,0,0,2.761-2.761A2.762,2.762,0,0,0-897.478,35.7Zm0-51.994h-.015a2.754,2.754,0,0,0-2.753,2.761,2.769,2.769,0,0,0,2.768,2.761,2.763,2.763,0,0,0,2.761-2.761A2.761,2.761,0,0,0-897.478-16.293Zm19.734,40.185a2.762,2.762,0,0,0,2.761-2.763,2.76,2.76,0,0,0-2.761-2.759h-.013a2.756,2.756,0,0,0-2.755,2.759A2.769,2.769,0,0,0-877.745,23.892Zm-19.734,46.469h-.015a2.755,2.755,0,0,0-2.753,2.761,2.767,2.767,0,0,0,2.768,2.761,2.762,2.762,0,0,0,2.761-2.761A2.762,2.762,0,0,0-897.478,70.361Zm0-69.323h-.015A2.754,2.754,0,0,0-900.247,3.8a2.767,2.767,0,0,0,2.768,2.759A2.762,2.762,0,0,0-894.718,3.8,2.761,2.761,0,0,0-897.478,1.038Zm99.7,52.2a2.67,2.67,0,0,0-.871-.176c-.052,0-.1-.032-.153-.032h-.015a2.754,2.754,0,0,0-2.753,2.761,2.673,2.673,0,0,0,.214,1.041,2.674,2.674,0,0,0,.391.6c.058.073.092.163.155.23a2.732,2.732,0,0,0,1.8.843l.011,0h0c.069,0,.127.039.2.039a2.761,2.761,0,0,0,2.761-2.761A2.75,2.75,0,0,0-797.777,53.238Zm-40.5,34.454h-.015a2.688,2.688,0,0,0-1.665.618,2.693,2.693,0,0,0-.283.191,2.75,2.75,0,0,0-.76,1.736c-.007.075-.045.14-.045.215h0a2.638,2.638,0,0,0,.2.961,2.259,2.259,0,0,0,.129.272,2.868,2.868,0,0,0,.369.547,2.649,2.649,0,0,0,.216.238,2.74,2.74,0,0,0,.744.5h0a2.741,2.741,0,0,0,1.114.243,2.731,2.731,0,0,0,2.594-1.931,2.337,2.337,0,0,0,.163-.813l0-.017A2.761,2.761,0,0,0-838.273,87.691Z" transform="translate(919.984 33.624)" fill="#00ceff"/></g></g><g transform="translate(1623.252 136.515) rotate(30)"><path d="M0,0A83.675,83.675,0,0,0,6.978,6.692h108.03A83.681,83.681,0,0,0,121.986,0Z" transform="translate(22.205 139.758)" fill="#00ceff"/><path d="M0,0Q2.147,3.346,4.6,6.467H135.505q2.449-3.119,4.6-6.467Z" transform="translate(13.145 128.055)" fill="#00ceff"/><path d="M83.194,6.916A83.166,83.166,0,0,0,95.073,0H0A83.142,83.142,0,0,0,11.877,6.916Z" transform="translate(35.662 151.46)" fill="#00ceff"/><path d="M46.572,3.328A83.142,83.142,0,0,0,0,3.328Z" transform="translate(59.912 0)" fill="#00ceff"/><path d="M0,0Q1.388,3.192,3.023,6.245H149.6Q151.243,3.2,152.624,0Z" transform="translate(6.886 116.35)" fill="#00ceff"/><path d="M0,1.956C0,3.17.041,4.374.092,5.574H166.305c.05-1.2.092-2.4.092-3.618,0-.655-.034-1.3-.05-1.956H.05C.034.653,0,1.3,0,1.956Z" transform="translate(0 81.24)" fill="#00ceff"/><path d="M0,4.459H123.024c-1.406-1.546-2.886-3.023-4.406-4.459H4.409C2.888,1.436,1.408,2.913,0,4.459Z" transform="translate(21.685 22.723)" fill="#00ceff"/><path d="M2.263,0C1.461,1.608.7,3.238,0,4.905H153.494c-.7-1.667-1.463-3.3-2.265-4.905Z" transform="translate(6.451 46.13)" fill="#00ceff"/><path d="M0,0C.543,2.041,1.168,4.047,1.86,6.021H158.926Q159.964,3.06,160.784,0Z" transform="translate(2.805 104.648)" fill="#00ceff"/><path d="M3.158,0Q1.5,2.284,0,4.681H141.091q-1.5-2.394-3.16-4.681Z" transform="translate(12.653 34.425)" fill="#00ceff"/><path d="M0,0A83.154,83.154,0,0,0,22.943,3.229,83.165,83.165,0,0,0,45.885,0Z" transform="translate(60.256 163.165)" fill="#00ceff"/><path d="M6.63,0Q3.208,1.961,0,4.234H95.975Q92.767,1.964,89.345,0Z" transform="translate(35.211 11.02)" fill="#00ceff"/><path d="M0,0Q.344,2.934.886,5.8H164.338q.543-2.865.884-5.8Z" transform="translate(0.586 92.943)" fill="#00ceff"/><path d="M.721,0C.428,1.766.179,3.547,0,5.35H165.568c-.179-1.8-.43-3.584-.721-5.35Z" transform="translate(0.415 69.538)" fill="#00ceff"/><path d="M1.459,0Q.652,2.532,0,5.13H161.413q-.649-2.6-1.461-5.13Z" transform="translate(2.492 57.833)" fill="#00ceff"/></g><path d="M-6.86-21.8C49.859-67.591,196.014,4.415,269.873,65.787S301.937,186.9,233.457,221.053,41.93,261.744-4.049,202.386-63.58,23.985-6.86-21.8Z" transform="translate(1165.098 373.566)" fill="#00ceff"/><path d="M-6.86-21.8C49.859-67.591,196.014,4.415,269.873,65.787S301.937,186.9,233.457,221.053,41.93,261.744-4.049,202.386-63.58,23.985-6.86-21.8Z" transform="translate(1421.098 552.566)" fill="#00ceff"/><g transform="translate(1629.262 684.536)"><g transform="translate(0 0)"><path d="M-883.342,7.364h-.008A1.63,1.63,0,0,0-884.979,9a1.636,1.636,0,0,0,1.637,1.632A1.632,1.632,0,0,0-881.71,9,1.632,1.632,0,0,0-883.342,7.364Zm0,10.245h-.008a1.63,1.63,0,0,0-1.629,1.632,1.636,1.636,0,0,0,1.637,1.632,1.632,1.632,0,0,0,1.632-1.632A1.632,1.632,0,0,0-883.342,17.609Zm0,20.493h-.008a1.63,1.63,0,0,0-1.629,1.632,1.636,1.636,0,0,0,1.637,1.632,1.632,1.632,0,0,0,1.632-1.632A1.632,1.632,0,0,0-883.342,38.1Zm0-10.247h-.008a1.63,1.63,0,0,0-1.629,1.632,1.636,1.636,0,0,0,1.637,1.632,1.632,1.632,0,0,0,1.632-1.632A1.632,1.632,0,0,0-883.342,27.856Zm11.669-51.233h-.009a1.628,1.628,0,0,0-1.628,1.632,1.637,1.637,0,0,0,1.637,1.632,1.633,1.633,0,0,0,1.632-1.632A1.632,1.632,0,0,0-871.674-23.377ZM-883.342-2.883h-.008a1.629,1.629,0,0,0-1.629,1.631A1.637,1.637,0,0,0-883.342.381a1.633,1.633,0,0,0,1.632-1.633A1.632,1.632,0,0,0-883.342-2.883ZM-895.01,20.874a1.632,1.632,0,0,0,1.632-1.632,1.632,1.632,0,0,0-1.632-1.632h-.008a1.629,1.629,0,0,0-1.629,1.632A1.636,1.636,0,0,0-895.01,20.874Zm0,10.247a1.632,1.632,0,0,0,1.632-1.632,1.632,1.632,0,0,0-1.632-1.632h-.008a1.629,1.629,0,0,0-1.629,1.632A1.636,1.636,0,0,0-895.01,31.12Zm11.668-64.744h-.008a1.63,1.63,0,0,0-1.629,1.632,1.636,1.636,0,0,0,1.637,1.632,1.632,1.632,0,0,0,1.632-1.632A1.632,1.632,0,0,0-883.342-33.624Zm0,10.247h-.008a1.629,1.629,0,0,0-1.629,1.632,1.637,1.637,0,0,0,1.637,1.632,1.633,1.633,0,0,0,1.632-1.632A1.632,1.632,0,0,0-883.342-23.377Zm0,10.247h-.008a1.629,1.629,0,0,0-1.629,1.632,1.636,1.636,0,0,0,1.637,1.631A1.632,1.632,0,0,0-881.71-11.5,1.632,1.632,0,0,0-883.342-13.131Zm35.005,23.759A1.633,1.633,0,0,0-846.7,9a1.633,1.633,0,0,0-1.632-1.632h-.009A1.629,1.629,0,0,0-849.973,9,1.636,1.636,0,0,0-848.337,10.628Zm0-10.247A1.634,1.634,0,0,0-846.7-1.252a1.633,1.633,0,0,0-1.632-1.631h-.009a1.628,1.628,0,0,0-1.628,1.631A1.637,1.637,0,0,0-848.337.381ZM-848.973-10a1.626,1.626,0,0,0,.637.128,1.607,1.607,0,0,0,.664-.148c.007,0,.011-.009.018-.011a1.627,1.627,0,0,0,.516-.385h0A1.615,1.615,0,0,0-846.7-11.5a1.633,1.633,0,0,0-1.632-1.632h-.009a1.629,1.629,0,0,0-1.628,1.632h0A1.632,1.632,0,0,0-848.973-10Zm-44.883,48.576a1.8,1.8,0,0,0-.168-.114,1.6,1.6,0,0,0-.986-.364h-.009a1.628,1.628,0,0,0-1.628,1.632,1.621,1.621,0,0,0,.468,1.137h0a1.627,1.627,0,0,0,1.167.494,1.634,1.634,0,0,0,.244-.049h0a1.6,1.6,0,0,0,.968-.517,1.658,1.658,0,0,0,.1-.145,1.559,1.559,0,0,0,.2-.324,1.571,1.571,0,0,0,.12-.588v-.008a1.616,1.616,0,0,0-.421-1.07C-893.822,38.639-893.832,38.6-893.857,38.581Zm-1.154-27.953A1.632,1.632,0,0,0-893.378,9a1.632,1.632,0,0,0-1.632-1.632h-.008A1.629,1.629,0,0,0-896.647,9,1.636,1.636,0,0,0-895.01,10.628Zm23.337,17.228h-.009a1.629,1.629,0,0,0-1.628,1.632,1.636,1.636,0,0,0,1.637,1.632,1.632,1.632,0,0,0,1.632-1.632A1.632,1.632,0,0,0-871.674,27.856Zm0-30.739h-.009a1.628,1.628,0,0,0-1.628,1.631A1.637,1.637,0,0,0-871.674.381a1.633,1.633,0,0,0,1.632-1.633A1.632,1.632,0,0,0-871.674-2.883Zm0,10.247h-.009A1.629,1.629,0,0,0-873.31,9a1.636,1.636,0,0,0,1.637,1.632A1.632,1.632,0,0,0-870.041,9,1.632,1.632,0,0,0-871.674,7.364Zm0,10.245h-.009a1.629,1.629,0,0,0-1.628,1.632,1.636,1.636,0,0,0,1.637,1.632,1.632,1.632,0,0,0,1.632-1.632A1.632,1.632,0,0,0-871.674,17.609Zm0-30.74h-.009A1.628,1.628,0,0,0-873.31-11.5a1.636,1.636,0,0,0,1.637,1.631,1.632,1.632,0,0,0,1.632-1.631A1.632,1.632,0,0,0-871.674-13.131ZM-860-23.377h-.009a1.628,1.628,0,0,0-1.628,1.632A1.637,1.637,0,0,0-860-20.113a1.633,1.633,0,0,0,1.632-1.632A1.632,1.632,0,0,0-860-23.377Zm-11.669-6.982a1.632,1.632,0,0,0,1.632-1.632v0a1.58,1.58,0,0,0-.191-.726c-.011-.021-.025-.037-.038-.056a1.6,1.6,0,0,0-.476-.523h0a1.588,1.588,0,0,0-.926-.324h-.009a1.629,1.629,0,0,0-1.628,1.632A1.637,1.637,0,0,0-871.674-30.359ZM-860,17.609h-.009a1.629,1.629,0,0,0-1.628,1.632A1.636,1.636,0,0,0-860,20.874a1.632,1.632,0,0,0,1.632-1.632A1.632,1.632,0,0,0-860,17.609Zm0,10.247h-.009a1.629,1.629,0,0,0-1.628,1.632A1.636,1.636,0,0,0-860,31.12a1.632,1.632,0,0,0,1.632-1.632A1.632,1.632,0,0,0-860,27.856Zm0-40.986h-.009a1.628,1.628,0,0,0-1.628,1.632A1.636,1.636,0,0,0-860-9.867a1.632,1.632,0,0,0,1.632-1.631A1.632,1.632,0,0,0-860-13.131Zm0,20.494h-.009A1.629,1.629,0,0,0-861.642,9,1.636,1.636,0,0,0-860,10.628,1.632,1.632,0,0,0-858.373,9,1.632,1.632,0,0,0-860,7.364Zm-58.342-20.494h-.009a1.423,1.423,0,0,0-.519.1,1.584,1.584,0,0,0-.4.217h0a1.6,1.6,0,0,0-.705,1.31,1.491,1.491,0,0,0,.04.2h0l0,0a1.6,1.6,0,0,0,.515,1c.038.034.086.054.127.086a1.577,1.577,0,0,0,.351.218,1.546,1.546,0,0,0,.6.122,1.633,1.633,0,0,0,1.5-1,1.633,1.633,0,0,0,.127-.635,1.635,1.635,0,0,0-.127-.636A1.633,1.633,0,0,0-918.347-13.131ZM-860-2.883h-.009a1.628,1.628,0,0,0-1.628,1.631A1.637,1.637,0,0,0-860,.381a1.633,1.633,0,0,0,1.632-1.633A1.632,1.632,0,0,0-860-2.883Zm-58.342,20.492h-.009a1.548,1.548,0,0,0-.575.116,1.6,1.6,0,0,0-.248.14,1.758,1.758,0,0,0-.2.136,1.572,1.572,0,0,0-.273.3c-.016.023-.031.045-.047.07a1.561,1.561,0,0,0-.2.444h0a1.593,1.593,0,0,0-.084.423,1.62,1.62,0,0,0,.925,1.453h0a1.6,1.6,0,0,0,.7.176l.008,0a1.632,1.632,0,0,0,1.632-1.632,1.643,1.643,0,0,0-.127-.636A1.633,1.633,0,0,0-918.347,17.609Zm0-20.492h-.009a1.629,1.629,0,0,0-1.628,1.631A1.638,1.638,0,0,0-918.347.381a1.633,1.633,0,0,0,1.632-1.633A1.631,1.631,0,0,0-918.347-2.883Zm0,10.247h-.009A1.629,1.629,0,0,0-919.984,9a1.637,1.637,0,0,0,1.637,1.632A1.632,1.632,0,0,0-916.715,9,1.632,1.632,0,0,0-918.347,7.364Zm11.669-10.247h-.009a1.628,1.628,0,0,0-1.628,1.631A1.637,1.637,0,0,0-906.678.381a1.634,1.634,0,0,0,1.632-1.633A1.633,1.633,0,0,0-906.678-2.883Zm11.667-27.476a1.632,1.632,0,0,0,1.632-1.632,1.632,1.632,0,0,0-1.632-1.632h-.008a1.629,1.629,0,0,0-1.629,1.632A1.636,1.636,0,0,0-895.01-30.359Zm0,20.492a1.632,1.632,0,0,0,1.632-1.631,1.632,1.632,0,0,0-1.632-1.632h-.008a1.629,1.629,0,0,0-1.629,1.632A1.636,1.636,0,0,0-895.01-9.867Zm0-10.245a1.633,1.633,0,0,0,1.632-1.632,1.632,1.632,0,0,0-1.632-1.632h-.008a1.629,1.629,0,0,0-1.629,1.632A1.637,1.637,0,0,0-895.01-20.113Zm-11.667,37.722h-.009a1.629,1.629,0,0,0-1.628,1.632,1.636,1.636,0,0,0,1.637,1.632,1.633,1.633,0,0,0,1.632-1.632A1.633,1.633,0,0,0-906.678,17.609Zm0-10.245h-.009A1.629,1.629,0,0,0-908.315,9a1.636,1.636,0,0,0,1.637,1.632A1.633,1.633,0,0,0-905.046,9,1.633,1.633,0,0,0-906.678,7.364Zm0-30.741h-.009a1.628,1.628,0,0,0-1.628,1.632,1.637,1.637,0,0,0,1.637,1.632,1.634,1.634,0,0,0,1.632-1.632A1.632,1.632,0,0,0-906.678-23.377ZM-895.01.381a1.633,1.633,0,0,0,1.632-1.633,1.632,1.632,0,0,0-1.632-1.631h-.008a1.629,1.629,0,0,0-1.629,1.631A1.637,1.637,0,0,0-895.01.381Zm-11.667,27.474h-.009a1.629,1.629,0,0,0-1.628,1.632,1.636,1.636,0,0,0,1.637,1.632,1.633,1.633,0,0,0,1.632-1.632A1.633,1.633,0,0,0-906.678,27.856Zm0-40.986h-.009a1.628,1.628,0,0,0-1.628,1.632,1.636,1.636,0,0,0,1.637,1.631,1.633,1.633,0,0,0,1.632-1.631A1.632,1.632,0,0,0-906.678-13.131Zm58.947,30.863a1.579,1.579,0,0,0-.515-.1c-.031,0-.059-.019-.091-.019h-.009a1.629,1.629,0,0,0-1.628,1.632,1.581,1.581,0,0,0,.126.616,1.58,1.58,0,0,0,.231.357c.034.043.054.1.092.136a1.615,1.615,0,0,0,1.064.5l.007,0h0c.041,0,.075.023.116.023a1.632,1.632,0,0,0,1.632-1.632A1.626,1.626,0,0,0-847.731,17.732ZM-871.674,38.1h-.009a1.589,1.589,0,0,0-.984.365,1.584,1.584,0,0,0-.167.113,1.626,1.626,0,0,0-.45,1.027c0,.044-.027.083-.027.127h0a1.559,1.559,0,0,0,.116.568,1.334,1.334,0,0,0,.076.161,1.7,1.7,0,0,0,.218.323,1.57,1.57,0,0,0,.127.141,1.621,1.621,0,0,0,.44.3h0a1.621,1.621,0,0,0,.659.144,1.615,1.615,0,0,0,1.534-1.142,1.382,1.382,0,0,0,.1-.481l0-.01A1.632,1.632,0,0,0-871.674,38.1Z" transform="translate(919.984 33.624)" fill="#fff"/></g></g></g></svg>