<svg xmlns="http://www.w3.org/2000/svg" width="1357.813" height="904.699" viewBox="0 0 1357.813 904.699"><g transform="translate(-791.594 461.85)"><rect width="1279" height="459" rx="229.5" transform="translate(791.594 17.272) rotate(-22)" fill="#0f72ee"/><g transform="translate(900 223.202)"><path d="M-873.924,17.9h-.01a2.048,2.048,0,0,0-2.048,2.052A2.057,2.057,0,0,0-873.924,22a2.052,2.052,0,0,0,2.052-2.052A2.052,2.052,0,0,0-873.924,17.9Zm0,12.879h-.01a2.048,2.048,0,0,0-2.048,2.052,2.057,2.057,0,0,0,2.057,2.052,2.052,2.052,0,0,0,2.052-2.052A2.052,2.052,0,0,0-873.924,30.777Zm0,25.76h-.01a2.048,2.048,0,0,0-2.048,2.052,2.056,2.056,0,0,0,2.057,2.052,2.051,2.051,0,0,0,2.052-2.052A2.052,2.052,0,0,0-873.924,56.538Zm0-12.88h-.01a2.048,2.048,0,0,0-2.048,2.052,2.057,2.057,0,0,0,2.057,2.052,2.052,2.052,0,0,0,2.052-2.052A2.052,2.052,0,0,0-873.924,43.657Zm14.668-64.4h-.011a2.046,2.046,0,0,0-2.046,2.052,2.058,2.058,0,0,0,2.057,2.052,2.053,2.053,0,0,0,2.052-2.052A2.051,2.051,0,0,0-859.256-20.744ZM-873.924,5.018h-.01a2.048,2.048,0,0,0-2.048,2.05,2.058,2.058,0,0,0,2.057,2.053,2.053,2.053,0,0,0,2.052-2.053A2.052,2.052,0,0,0-873.924,5.018Zm-14.667,29.863a2.052,2.052,0,0,0,2.052-2.052,2.052,2.052,0,0,0-2.052-2.052h-.01a2.048,2.048,0,0,0-2.048,2.052A2.057,2.057,0,0,0-888.591,34.881Zm0,12.88a2.052,2.052,0,0,0,2.052-2.052,2.052,2.052,0,0,0-2.052-2.052h-.01a2.048,2.048,0,0,0-2.048,2.052A2.057,2.057,0,0,0-888.591,47.761Zm14.667-81.385h-.01a2.048,2.048,0,0,0-2.048,2.052,2.057,2.057,0,0,0,2.057,2.052,2.052,2.052,0,0,0,2.052-2.052A2.052,2.052,0,0,0-873.924-33.624Zm0,12.88h-.01a2.048,2.048,0,0,0-2.048,2.052,2.058,2.058,0,0,0,2.057,2.052,2.053,2.053,0,0,0,2.052-2.052A2.051,2.051,0,0,0-873.924-20.744Zm0,12.88h-.01a2.048,2.048,0,0,0-2.048,2.052,2.057,2.057,0,0,0,2.057,2.05,2.052,2.052,0,0,0,2.052-2.05A2.051,2.051,0,0,0-873.924-7.864Zm44,29.865a2.053,2.053,0,0,0,2.052-2.052,2.053,2.053,0,0,0-2.052-2.052h-.011a2.047,2.047,0,0,0-2.046,2.052A2.057,2.057,0,0,0-829.921,22Zm0-12.88a2.054,2.054,0,0,0,2.052-2.053,2.052,2.052,0,0,0-2.052-2.05h-.011a2.047,2.047,0,0,0-2.046,2.05A2.058,2.058,0,0,0-829.921,9.122Zm-.8-13.044a2.044,2.044,0,0,0,.8.161,2.021,2.021,0,0,0,.835-.187c.008,0,.014-.011.022-.014a2.045,2.045,0,0,0,.649-.484h0a2.031,2.031,0,0,0,.544-1.367,2.053,2.053,0,0,0-2.052-2.052h-.011a2.047,2.047,0,0,0-2.046,2.052h0A2.051,2.051,0,0,0-830.722-3.923Zm-56.419,61.062a2.25,2.25,0,0,0-.211-.143,2.012,2.012,0,0,0-1.239-.458h-.011a2.047,2.047,0,0,0-2.046,2.052,2.038,2.038,0,0,0,.589,1.43h0a2.045,2.045,0,0,0,1.467.621,2.054,2.054,0,0,0,.306-.061h0a2.013,2.013,0,0,0,1.217-.65,2.063,2.063,0,0,0,.121-.182,1.966,1.966,0,0,0,.252-.408,1.975,1.975,0,0,0,.15-.739v-.01a2.032,2.032,0,0,0-.529-1.345C-887.1,57.213-887.11,57.17-887.141,57.139ZM-888.591,22a2.052,2.052,0,0,0,2.052-2.052,2.052,2.052,0,0,0-2.052-2.052h-.01a2.048,2.048,0,0,0-2.048,2.052A2.057,2.057,0,0,0-888.591,22Zm29.335,21.655h-.011a2.047,2.047,0,0,0-2.046,2.052,2.057,2.057,0,0,0,2.057,2.052,2.052,2.052,0,0,0,2.052-2.052A2.052,2.052,0,0,0-859.256,43.657Zm0-38.639h-.011a2.047,2.047,0,0,0-2.046,2.05,2.058,2.058,0,0,0,2.057,2.053A2.053,2.053,0,0,0-857.2,7.068,2.052,2.052,0,0,0-859.256,5.018Zm0,12.88h-.011a2.047,2.047,0,0,0-2.046,2.052A2.057,2.057,0,0,0-859.256,22,2.052,2.052,0,0,0-857.2,19.95,2.052,2.052,0,0,0-859.256,17.9Zm0,12.879h-.011a2.047,2.047,0,0,0-2.046,2.052,2.057,2.057,0,0,0,2.057,2.052,2.052,2.052,0,0,0,2.052-2.052A2.052,2.052,0,0,0-859.256,30.777Zm0-38.641h-.011a2.046,2.046,0,0,0-2.046,2.052,2.057,2.057,0,0,0,2.057,2.05,2.052,2.052,0,0,0,2.052-2.05A2.051,2.051,0,0,0-859.256-7.864Zm14.668-12.88h-.011a2.046,2.046,0,0,0-2.046,2.052,2.058,2.058,0,0,0,2.057,2.052,2.053,2.053,0,0,0,2.052-2.052A2.051,2.051,0,0,0-844.589-20.744Zm-14.668-8.777a2.052,2.052,0,0,0,2.052-2.052v0a1.987,1.987,0,0,0-.24-.913c-.014-.026-.032-.046-.047-.071a2.016,2.016,0,0,0-.6-.657h0a2,2,0,0,0-1.164-.408h-.011a2.047,2.047,0,0,0-2.046,2.052A2.058,2.058,0,0,0-859.256-29.52Zm14.668,60.3h-.011a2.047,2.047,0,0,0-2.046,2.052,2.057,2.057,0,0,0,2.057,2.052,2.052,2.052,0,0,0,2.052-2.052A2.052,2.052,0,0,0-844.589,30.777Zm0,12.88h-.011a2.047,2.047,0,0,0-2.046,2.052,2.057,2.057,0,0,0,2.057,2.052,2.052,2.052,0,0,0,2.052-2.052A2.052,2.052,0,0,0-844.589,43.657Zm0-51.521h-.011a2.046,2.046,0,0,0-2.046,2.052,2.056,2.056,0,0,0,2.057,2.05,2.052,2.052,0,0,0,2.052-2.05A2.051,2.051,0,0,0-844.589-7.864Zm0,25.762h-.011a2.047,2.047,0,0,0-2.046,2.052A2.057,2.057,0,0,0-844.589,22a2.052,2.052,0,0,0,2.052-2.052A2.052,2.052,0,0,0-844.589,17.9ZM-917.927-7.864h-.011a1.79,1.79,0,0,0-.653.131,1.993,1.993,0,0,0-.5.273h0a2.016,2.016,0,0,0-.887,1.647,1.87,1.87,0,0,0,.05.246h0l0,.006a2.007,2.007,0,0,0,.647,1.263c.047.043.109.068.16.109a1.98,1.98,0,0,0,.441.274,1.943,1.943,0,0,0,.756.153,2.053,2.053,0,0,0,1.892-1.253,2.055,2.055,0,0,0,.16-.8,2.057,2.057,0,0,0-.16-.8A2.053,2.053,0,0,0-917.927-7.864Zm73.338,12.882h-.011a2.047,2.047,0,0,0-2.046,2.05,2.058,2.058,0,0,0,2.057,2.053,2.053,2.053,0,0,0,2.052-2.053A2.052,2.052,0,0,0-844.589,5.018Zm-73.338,25.759h-.011a1.945,1.945,0,0,0-.723.146,2.009,2.009,0,0,0-.312.175,2.209,2.209,0,0,0-.252.171,1.974,1.974,0,0,0-.344.38c-.02.029-.039.057-.059.088a1.965,1.965,0,0,0-.249.558h0a2,2,0,0,0-.106.532,2.037,2.037,0,0,0,1.162,1.826h0a2.01,2.01,0,0,0,.883.221l.01,0a2.051,2.051,0,0,0,2.052-2.052,2.067,2.067,0,0,0-.16-.8A2.053,2.053,0,0,0-917.927,30.777Zm0-25.759h-.011a2.048,2.048,0,0,0-2.046,2.05,2.059,2.059,0,0,0,2.057,2.053,2.052,2.052,0,0,0,2.052-2.053A2.051,2.051,0,0,0-917.927,5.018Zm0,12.88h-.011a2.048,2.048,0,0,0-2.046,2.052A2.058,2.058,0,0,0-917.927,22a2.051,2.051,0,0,0,2.052-2.052A2.051,2.051,0,0,0-917.927,17.9Zm14.669-12.88h-.011a2.047,2.047,0,0,0-2.046,2.05,2.058,2.058,0,0,0,2.057,2.053,2.054,2.054,0,0,0,2.052-2.053A2.052,2.052,0,0,0-903.258,5.018Zm14.666-34.538a2.052,2.052,0,0,0,2.052-2.052,2.052,2.052,0,0,0-2.052-2.052h-.01a2.048,2.048,0,0,0-2.048,2.052A2.057,2.057,0,0,0-888.591-29.52Zm0,25.759a2.052,2.052,0,0,0,2.052-2.05,2.051,2.051,0,0,0-2.052-2.052h-.01a2.047,2.047,0,0,0-2.048,2.052A2.057,2.057,0,0,0-888.591-3.761Zm0-12.879a2.053,2.053,0,0,0,2.052-2.052,2.051,2.051,0,0,0-2.052-2.052h-.01a2.047,2.047,0,0,0-2.048,2.052A2.058,2.058,0,0,0-888.591-16.64Zm-14.666,47.417h-.011a2.047,2.047,0,0,0-2.046,2.052,2.057,2.057,0,0,0,2.057,2.052,2.053,2.053,0,0,0,2.052-2.052A2.053,2.053,0,0,0-903.258,30.777Zm0-12.879h-.011a2.047,2.047,0,0,0-2.046,2.052A2.057,2.057,0,0,0-903.258,22a2.053,2.053,0,0,0,2.052-2.052A2.053,2.053,0,0,0-903.258,17.9Zm0-38.642h-.011a2.046,2.046,0,0,0-2.046,2.052,2.058,2.058,0,0,0,2.057,2.052,2.054,2.054,0,0,0,2.052-2.052A2.052,2.052,0,0,0-903.258-20.744Zm14.666,29.865a2.053,2.053,0,0,0,2.052-2.053,2.052,2.052,0,0,0-2.052-2.05h-.01a2.048,2.048,0,0,0-2.048,2.05A2.058,2.058,0,0,0-888.591,9.122Zm-14.666,34.536h-.011a2.047,2.047,0,0,0-2.046,2.052,2.057,2.057,0,0,0,2.057,2.052,2.053,2.053,0,0,0,2.052-2.052A2.053,2.053,0,0,0-903.258,43.657Zm0-51.521h-.011a2.046,2.046,0,0,0-2.046,2.052,2.056,2.056,0,0,0,2.057,2.05,2.052,2.052,0,0,0,2.052-2.05A2.052,2.052,0,0,0-903.258-7.864Zm74.1,38.8a1.986,1.986,0,0,0-.647-.131c-.039,0-.074-.024-.114-.024h-.011a2.047,2.047,0,0,0-2.046,2.052,1.989,1.989,0,0,0,.158.774,2,2,0,0,0,.291.448c.043.054.068.121.116.171a2.03,2.03,0,0,0,1.338.626l.009,0h0c.052,0,.095.029.146.029a2.052,2.052,0,0,0,2.052-2.052A2.044,2.044,0,0,0-829.16,30.932Zm-30.1,25.606h-.011a2,2,0,0,0-1.237.459,2,2,0,0,0-.21.142,2.044,2.044,0,0,0-.565,1.29c-.005.056-.034.1-.034.16h0a1.961,1.961,0,0,0,.146.714,1.705,1.705,0,0,0,.1.2,2.13,2.13,0,0,0,.274.406,1.968,1.968,0,0,0,.16.177,2.037,2.037,0,0,0,.553.372h0a2.038,2.038,0,0,0,.828.181,2.03,2.03,0,0,0,1.928-1.435,1.74,1.74,0,0,0,.121-.6l0-.013A2.052,2.052,0,0,0-859.256,56.538Z" transform="translate(919.984 33.624)" fill="#fff"/></g><g transform="matrix(0.259, -0.966, 0.966, 0.259, 559.07, 52.038)"><path d="M182.509,526.3A77.841,77.841,0,0,0,189,532.52H289.489a77.843,77.843,0,0,0,6.491-6.225Z" transform="translate(10.959 68.975)" fill="#fff"/><path d="M178.553,521.185q2,3.112,4.278,6.016H304.6q2.278-2.9,4.28-6.016Z" transform="translate(6.488 63.2)" fill="#fff"/><path d="M265.771,537.838a77.353,77.353,0,0,0,11.05-6.433H188.385a77.329,77.329,0,0,0,11.048,6.433Z" transform="translate(17.6 74.751)" fill="#fff"/><path d="M242.295,468.364a77.338,77.338,0,0,0-43.321,0Z" transform="translate(29.569)" fill="#fff"/><path d="M175.82,516.074q1.291,2.969,2.812,5.809H314.977q1.527-2.834,2.812-5.809Z" transform="translate(3.399 57.423)" fill="#fff"/><path d="M172.813,502.562c0,1.129.038,2.25.085,3.366h154.61c.047-1.116.085-2.237.085-3.366,0-.609-.032-1.212-.047-1.819H172.86C172.845,501.35,172.813,501.953,172.813,502.562Z" transform="translate(0 40.095)" fill="#fff"/><path d="M182.282,479.339H296.718c-1.308-1.438-2.684-2.812-4.1-4.148H186.383C184.968,476.527,183.592,477.9,182.282,479.339Z" transform="translate(10.702 11.214)" fill="#fff"/><path d="M177.735,485.412c-.746,1.5-1.455,3.012-2.1,4.563H318.409c-.65-1.551-1.361-3.068-2.107-4.563Z" transform="translate(3.184 22.767)" fill="#fff"/><path d="M174.038,510.964c.5,1.9,1.086,3.764,1.73,5.6h146.1q.965-2.754,1.728-5.6Z" transform="translate(1.385 51.647)" fill="#fff"/><path d="M181.276,480.3q-1.54,2.125-2.938,4.354H309.579q-1.4-2.227-2.94-4.354Z" transform="translate(6.245 16.99)" fill="#fff"/><path d="M199.124,536.516a77.312,77.312,0,0,0,42.682,0Z" transform="translate(29.738 80.528)" fill="#fff"/><path d="M194.355,470.081q-3.183,1.825-6.167,3.939h89.275q-2.984-2.112-6.167-3.939Z" transform="translate(17.378 5.439)" fill="#fff"/><path d="M173.069,505.853q.32,2.729.824,5.394H325.934q.5-2.665.822-5.394Z" transform="translate(0.289 45.871)" fill="#fff"/><path d="M173.665,495.633c-.273,1.642-.5,3.3-.671,4.976H327c-.166-1.677-.4-3.334-.671-4.976Z" transform="translate(0.205 34.319)" fill="#fff"/><path d="M175.258,490.522q-.751,2.355-1.357,4.772H324.046q-.6-2.419-1.359-4.772Z" transform="translate(1.23 28.542)" fill="#fff"/></g></g></svg>