<svg id="logo" xmlns="http://www.w3.org/2000/svg" width="104.562" height="28.212" viewBox="0 0 104.562 28.212">
  <g id="Layer_1-2" data-name="Layer 1-2">
    <path id="Path_3454" data-name="Path 3454" d="M404.107,353.934a6.382,6.382,0,1,1,6.353-6.384V348.9h-9.755a3.65,3.65,0,0,0,5.726,1.48l.247-.206,2.073,1.75-.315.3A6.315,6.315,0,0,1,404.107,353.934Zm3.4-7.74a3.651,3.651,0,0,0-6.8,0Z" transform="translate(-380.607 -333.811)" fill="#0f72ee"/>
    <path id="Path_3455" data-name="Path 3455" d="M704.525,353.791a6.391,6.391,0,1,1,6.353-6.385v1.354h-9.753a3.65,3.65,0,0,0,5.726,1.48l.248-.206,2.073,1.75-.32.3A6.311,6.311,0,0,1,704.525,353.791Zm3.4-7.74a3.652,3.652,0,0,0-6.8,0Z" transform="translate(-667.442 -333.668)" fill="#0f72ee"/>
    <path id="Path_3456" data-name="Path 3456" d="M18.25,199.294V179.17h2.7v17.414h9.722v2.71Z" transform="translate(-18.25 -179.17)" fill="#212121"/>
    <path id="Path_3457" data-name="Path 3457" d="M1094.009,353.7v-6.385a3.658,3.658,0,1,0-7.317,0V353.7H1084V340.929h2.695v1.161a6.352,6.352,0,0,1,10.011,5.224V353.7Z" transform="translate(-1035.831 -333.578)" fill="#212121"/>
    <path id="Path_3458" data-name="Path 3458" d="M1394.6,353.772v-1.161a6.331,6.331,0,0,1-8.4-.976,6.409,6.409,0,0,1,0-8.5,6.331,6.331,0,0,1,8.4-.976V341h2.7v12.772Zm-3.658-10.062a3.676,3.676,0,1,0,3.658,3.676A3.667,3.667,0,0,0,1390.94,343.71Z" transform="translate(-1322.837 -333.649)" fill="#212121"/>
    <path id="Path_3459" data-name="Path 3459" d="M313.98,280.57a1.544,1.544,0,0,1-1.54-1.548V266.1a10.242,10.242,0,0,1,10.2-10.254h13.585a10.254,10.254,0,0,1,0,20.508H322.92a.766.766,0,0,0-.345.081l-7.9,3.967a1.521,1.521,0,0,1-.692.17Zm8.663-22.02a7.536,7.536,0,0,0-7.508,7.546v11.046l6.231-3.132a3.465,3.465,0,0,1,1.554-.368h13.308a7.546,7.546,0,0,0,0-15.092Z" transform="translate(-299.143 -252.358)" fill="#0f72ee"/>
  </g>
  <path id="Path_3460" data-name="Path 3460" d="M1808.966,214.867l-1.986-5.371h-7.6l-1.948,5.371H1794l7.442-19.422h3.538l7.443,19.422Zm-2.844-8.1-1.863-5.266q-.2-.529-.564-1.667t-.5-1.667a29.239,29.239,0,0,1-1.074,3.558l-1.8,5.042Z" transform="translate(-1713.741 -194.707)" fill="#212121"/>
  <path id="Path_3461" data-name="Path 3461" d="M2259.7,216.523V197.18h3.254v19.343Z" transform="translate(-2158.392 -196.362)" fill="#212121"/>
</svg>
