<svg xmlns="http://www.w3.org/2000/svg" width="209.335" height="158.653" viewBox="0 0 209.335 158.653"><g transform="translate(0 0)"><path d="M436.848,423.064c-21.594-.011-39.092-18.345-39.088-40.954s17.5-40.933,39.095-40.941,39.114,18.324,39.121,40.934v8.684H415.9a22.9,22.9,0,0,0,15.325,14.135,21.765,21.765,0,0,0,19.937-4.64l1.522-1.321,12.762,11.229-1.948,1.918A38.064,38.064,0,0,1,436.848,423.064Zm20.945-49.658a22.169,22.169,0,0,0-41.895,0Z" transform="translate(-374.011 -316.301)" fill="#0f72ee"/><path d="M737.3,422.957c-20.789,0-37.949-17.022-39.07-38.757s14.186-40.594,34.855-42.938,39.48,12.642,42.83,34.125a42.3,42.3,0,0,1,.51,6.6v8.691H716.358a22.894,22.894,0,0,0,15.324,14.135,21.759,21.759,0,0,0,19.937-4.64l1.527-1.32,12.761,11.229L763.939,412A38.03,38.03,0,0,1,737.3,422.957ZM758.25,373.3a22.172,22.172,0,0,0-41.889,0Z" transform="translate(-590.807 -316.195)" fill="#0f72ee"/><path d="M321.923,414.493a9.714,9.714,0,0,1-9.483-9.932V321.635c.039-36.314,28.149-65.748,62.837-65.8h83.661c34.7,0,62.836,29.458,62.836,65.8s-28.132,65.795-62.836,65.795H376.981a4.56,4.56,0,0,0-2.124.522L326.188,413.4a9.056,9.056,0,0,1-4.265,1.092Zm53.354-141.271c-25.525.03-46.21,21.688-46.239,48.414V392.5l38.373-20.091a20.651,20.651,0,0,1,9.57-2.361h81.957c25.537,0,46.239-21.676,46.239-48.414s-20.7-48.414-46.239-48.414Z" transform="translate(-312.44 -255.84)" fill="#0f72ee"/></g></svg>