<svg xmlns="http://www.w3.org/2000/svg" xmlns:xlink="http://www.w3.org/1999/xlink" width="429" height="335" viewBox="0 0 429 335"><defs><filter id="a" x="0" y="0" width="429" height="335" filterUnits="userSpaceOnUse"><feOffset dy="6" input="SourceAlpha"/><feGaussianBlur stdDeviation="21" result="b"/><feFlood flood-opacity="0.161"/><feComposite operator="in" in2="b"/><feComposite in="SourceGraphic"/></filter><clipPath id="c"><circle cx="9" cy="9" r="9" transform="translate(-105.809 -46.882)" fill="#0f72ee"/></clipPath><clipPath id="d"><circle cx="11" cy="11" r="11" transform="translate(-106.808 4.119)" fill="#fff"/></clipPath><linearGradient id="e" x1="0.179" y1="0.117" x2="0.821" y2="0.883" gradientUnits="objectBoundingBox"><stop offset="0" stop-color="#eac554"/><stop offset="0.086" stop-color="#ecc855"/><stop offset="0.484" stop-color="#f5d158"/><stop offset="1" stop-color="#f8d55a"/></linearGradient></defs><g transform="translate(182.809 115.882)"><g transform="matrix(1, 0, 0, 1, -182.81, -115.88)" filter="url(#a)"><rect width="303" height="209" rx="16" transform="translate(63 57)" fill="#fff"/></g><path d="M16,0H287a16,16,0,0,1,16,16V52a0,0,0,0,1,0,0H0a0,0,0,0,1,0,0V16A16,16,0,0,1,16,0Z" transform="translate(-119.809 -58.882)" fill="#fff"/><rect width="303" height="52" transform="translate(-119.809 -6.882)" fill="#fff"/><rect width="303" height="52" transform="translate(-119.809 45.118)" fill="#fff"/><path d="M18,0H303a0,0,0,0,1,0,0V34a18,18,0,0,1-18,18H18A18,18,0,0,1,0,34V18A18,18,0,0,1,18,0Z" transform="translate(-119.809 97.118)" fill="#fff"/><path d="M2.592.012,4.128,0l1.86-6.312L7.74,0H9.288L11.76-8.34H10.3L8.556-1.584,6.816-8.34H5.28L3.408-1.548,1.68-8.34H.228Zm16.6-3.324A3.261,3.261,0,0,0,15.816-6.72a3.261,3.261,0,0,0-3.372,3.408A3.224,3.224,0,0,0,15.756.108,3.312,3.312,0,0,0,19.188-3.312Zm-5.352,0a1.97,1.97,0,0,1,1.956-2.22,2,2,0,0,1,1.992,2.22A2.037,2.037,0,0,1,15.756-1.08,1.956,1.956,0,0,1,13.836-3.312Zm8.076-.168c0-1.4.624-1.824,1.632-1.824h.348V-6.72a2.154,2.154,0,0,0-1.98,1.068v-.96H20.544V0h1.368ZM25.152,0H26.52V-2.844L28.968,0h1.848L27.768-3.3l3.048-3.312h-1.9L26.52-3.72V-8.88H25.152Z" transform="translate(-73.809 -28.882)" fill="#0f72ee"/><path d="M.468-7.224H2.7V0H4.068V-7.224h2.22V-8.34H.468Zm9.984,1.656A1.717,1.717,0,0,1,12.3-3.9H8.64A1.8,1.8,0,0,1,10.452-5.568Zm3.1,3.6H12.072a1.6,1.6,0,0,1-1.56.924A1.819,1.819,0,0,1,8.628-2.8H13.68a4.22,4.22,0,0,0,.048-.672A3.084,3.084,0,0,0,10.512-6.72a3.166,3.166,0,0,0-3.3,3.408,3.208,3.208,0,0,0,3.3,3.42A3.021,3.021,0,0,0,13.548-1.968Zm1.068-1.368a3.2,3.2,0,0,0,3.1,3.444A2.846,2.846,0,0,0,20.028-.984V0h1.38V-6.612h-1.38v.96A2.814,2.814,0,0,0,17.736-6.72,3.147,3.147,0,0,0,14.616-3.336Zm5.412.024a2.054,2.054,0,0,1-2,2.232,2.083,2.083,0,0,1-2-2.256,2.029,2.029,0,0,1,2-2.2A2.05,2.05,0,0,1,20.028-3.312ZM32.58,0h1.356V-3.9a2.584,2.584,0,0,0-2.724-2.82,2.589,2.589,0,0,0-2.3,1.308A2.55,2.55,0,0,0,26.532-6.72a2.518,2.518,0,0,0-1.956.864v-.756H23.208V0h1.368V-3.7a1.6,1.6,0,0,1,1.668-1.836c1,0,1.656.624,1.656,1.836V0h1.356V-3.7a1.6,1.6,0,0,1,1.668-1.836c1,0,1.656.624,1.656,1.836Z" transform="translate(-73.809 23.118)" fill="#0f72ee"/><path d="M4.7-8.448a4.172,4.172,0,0,0-4.26,4.26A4.164,4.164,0,0,0,4.7.072,4.112,4.112,0,0,0,8.832-3.5V-4.572h-4.6V-3.48H7.368A2.525,2.525,0,0,1,4.7-1.164,2.8,2.8,0,0,1,1.848-4.188,2.79,2.79,0,0,1,4.7-7.2,2.371,2.371,0,0,1,6.936-5.94H8.58A3.976,3.976,0,0,0,4.7-8.448Zm6.84,4.968c0-1.4.624-1.824,1.632-1.824h.348V-6.72a2.154,2.154,0,0,0-1.98,1.068v-.96H10.176V0h1.368Zm9.54.168A3.261,3.261,0,0,0,17.712-6.72,3.261,3.261,0,0,0,14.34-3.312,3.224,3.224,0,0,0,17.652.108,3.312,3.312,0,0,0,21.084-3.312Zm-5.352,0a1.97,1.97,0,0,1,1.956-2.22,2,2,0,0,1,1.992,2.22A2.037,2.037,0,0,1,17.652-1.08,1.956,1.956,0,0,1,15.732-3.312ZM23.724,0h1.44L26.5-4.884,27.828,0h1.44L31.32-6.612H29.976L28.608-1.32,27.264-6.612H25.836L24.432-1.3l-1.38-5.316H21.66Zm8.832-1.836C32.556-.492,33.288,0,34.464,0h1.08V-1.14H34.7c-.576,0-.768-.2-.768-.7V-5.5h1.608V-6.612H33.936V-8.256h-1.38v1.644h-.78V-5.5h.78ZM36.8,0h1.368V-3.7A1.6,1.6,0,0,1,39.84-5.532c1,0,1.656.624,1.656,1.836V0h1.356V-3.9a2.549,2.549,0,0,0-2.628-2.82,2.621,2.621,0,0,0-2.052.876V-8.88H36.8Z" transform="translate(-73.809 75.118)" fill="#0f72ee"/><path d="M5.832-1.848c-.072-2.388-3.8-1.644-3.8-2.976,0-.444.384-.744,1.116-.744A1.094,1.094,0,0,1,4.38-4.6H5.748A2.267,2.267,0,0,0,3.192-6.72c-1.56,0-2.544.852-2.544,1.908,0,2.424,3.84,1.68,3.84,2.976,0,.456-.42.792-1.212.792a1.206,1.206,0,0,1-1.32-.984H.54A2.5,2.5,0,0,0,3.3.108C4.86.108,5.832-.732,5.832-1.848Zm1.02-1.488A3.2,3.2,0,0,0,9.948.108,2.846,2.846,0,0,0,12.264-.984V0h1.38V-6.612h-1.38v.96A2.814,2.814,0,0,0,9.972-6.72,3.147,3.147,0,0,0,6.852-3.336Zm5.412.024a2.054,2.054,0,0,1-2,2.232,2.083,2.083,0,0,1-2-2.256,2.029,2.029,0,0,1,2-2.2A2.05,2.05,0,0,1,12.264-3.312Zm3.4,1.476C15.66-.492,16.392,0,17.568,0h1.08V-1.14h-.84c-.576,0-.768-.2-.768-.7V-5.5h1.608V-6.612H17.04V-8.256H15.66v1.644h-.78V-5.5h.78ZM19.908,0h1.368V-6.612H19.908Zm.7-7.488a.863.863,0,0,0,.864-.876A.863.863,0,0,0,20.6-9.24a.866.866,0,0,0-.876.876A.866.866,0,0,0,20.6-7.488Zm7.4,5.64c-.072-2.388-3.8-1.644-3.8-2.976,0-.444.384-.744,1.116-.744a1.094,1.094,0,0,1,1.236.972h1.368A2.267,2.267,0,0,0,25.368-6.72c-1.56,0-2.544.852-2.544,1.908,0,2.424,3.84,1.68,3.84,2.976,0,.456-.42.792-1.212.792a1.206,1.206,0,0,1-1.32-.984H22.716A2.5,2.5,0,0,0,25.476.108C27.036.108,28.008-.732,28.008-1.848ZM29.652,0h1.38V-5.5h1.224V-6.612H31.032V-7.08c0-.756.288-1.044,1.128-1.044v-1.14c-1.728,0-2.508.66-2.508,2.184v.468h-.78V-5.5h.78Zm3.36-3.336a3.2,3.2,0,0,0,3.1,3.444A2.846,2.846,0,0,0,38.424-.984V0H39.8V-6.612h-1.38v.96A2.814,2.814,0,0,0,36.132-6.72,3.147,3.147,0,0,0,33.012-3.336Zm5.412.024a2.054,2.054,0,0,1-2,2.232,2.083,2.083,0,0,1-2-2.256,2.029,2.029,0,0,1,2-2.2A2.05,2.05,0,0,1,38.424-3.312Zm2.724,0a3.162,3.162,0,0,0,3.24,3.42,2.97,2.97,0,0,0,3.048-2.2H45.96a1.51,1.51,0,0,1-1.572,1.044c-1.1,0-1.836-.816-1.836-2.268s.732-2.256,1.836-2.256A1.545,1.545,0,0,1,45.96-4.524h1.476a2.876,2.876,0,0,0-3.048-2.2A3.159,3.159,0,0,0,41.148-3.312ZM49.02-1.836C49.02-.492,49.752,0,50.928,0h1.08V-1.14h-.84c-.576,0-.768-.2-.768-.7V-5.5h1.608V-6.612H50.4V-8.256H49.02v1.644h-.78V-5.5h.78ZM53.268,0h1.368V-6.612H53.268Zm.7-7.488a.863.863,0,0,0,.864-.876.863.863,0,0,0-.864-.876.866.866,0,0,0-.876.876A.866.866,0,0,0,53.964-7.488Zm8.772,4.176A3.261,3.261,0,0,0,59.364-6.72a3.261,3.261,0,0,0-3.372,3.408A3.224,3.224,0,0,0,59.3.108,3.312,3.312,0,0,0,62.736-3.312Zm-5.352,0a1.97,1.97,0,0,1,1.956-2.22,2,2,0,0,1,1.992,2.22A2.037,2.037,0,0,1,59.3-1.08,1.956,1.956,0,0,1,57.384-3.312ZM68.784,0H70.14V-3.9a2.575,2.575,0,0,0-2.712-2.82,2.544,2.544,0,0,0-1.968.864v-.756H64.092V0H65.46V-3.7a1.6,1.6,0,0,1,1.668-1.836c1,0,1.656.624,1.656,1.836Z" transform="translate(-73.809 127.118)" fill="#0f72ee"/><g transform="translate(5 4)" clip-path="url(#c)"><g transform="translate(-103.237 -43.239)"><path d="M10.417,4.077a.536.536,0,0,1-.536-.536v-.8H7.738v.8a.536.536,0,0,1-1.071,0v-.8A1.073,1.073,0,0,1,7.738,1.667H9.881a1.073,1.073,0,0,1,1.071,1.071v.8A.536.536,0,0,1,10.417,4.077Z" transform="translate(-2.381 -1.667)" fill="#00ceff"/><path d="M6.809,11.7a1.1,1.1,0,0,1-.38.064,1.174,1.174,0,0,1-.413-.075L0,9.683v4.087a1.472,1.472,0,0,0,1.473,1.473h9.911a1.472,1.472,0,0,0,1.473-1.473V9.683Z" transform="translate(0 -4.53)" fill="#0f72ee"/><path d="M12.857,5.64V6.867l-6.3,2.1a.4.4,0,0,1-.257,0L0,6.867V5.64A1.472,1.472,0,0,1,1.473,4.167h9.911A1.472,1.472,0,0,1,12.857,5.64Z" transform="translate(0 -2.56)" fill="#00ceff"/></g></g><g transform="translate(3.999 3.999)" clip-path="url(#d)"><g transform="translate(-103.142 8.898)"><g transform="translate(11.416 6.717)"><path d="M16.7,10.677H15.566a2.951,2.951,0,0,1,.179,1.014v4.287a1.264,1.264,0,0,1-.073.423h1.875a1.272,1.272,0,0,0,1.27-1.27V12.794A2.12,2.12,0,0,0,16.7,10.677Z" transform="translate(-15.566 -10.677)" fill="#0f72ee"/></g><g transform="translate(0 6.717)"><path d="M3.073,11.691a2.951,2.951,0,0,1,.179-1.014H2.117A2.12,2.12,0,0,0,0,12.794v2.337A1.272,1.272,0,0,0,1.27,16.4H3.146a1.265,1.265,0,0,1-.073-.424Z" transform="translate(0 -10.677)" fill="#0f72ee"/></g><g transform="translate(3.92 5.614)"><path d="M10.056,9.172H7.462A2.12,2.12,0,0,0,5.345,11.29v4.287A.423.423,0,0,0,5.768,16h5.981a.423.423,0,0,0,.423-.423V11.29A2.12,2.12,0,0,0,10.056,9.172Z" transform="translate(-5.345 -9.172)" fill="#00ceff"/></g><g transform="translate(4.788 0)"><path d="M9.074,1.517a2.546,2.546,0,1,0,2.546,2.546A2.549,2.549,0,0,0,9.074,1.517Z" transform="translate(-6.528 -1.517)" fill="#00ceff"/></g><g transform="translate(0.958 2.373)"><path d="M3.211,4.753a1.9,1.9,0,1,0,1.9,1.9A1.907,1.907,0,0,0,3.211,4.753Z" transform="translate(-1.306 -4.753)" fill="#0f72ee"/></g><g transform="translate(9.901 2.373)"><path d="M15.4,4.753a1.9,1.9,0,1,0,1.9,1.9A1.907,1.907,0,0,0,15.4,4.753Z" transform="translate(-13.5 -4.753)" fill="#0f72ee"/></g></g></g><line y2="52" transform="translate(6.691 -58.382)" fill="none" stroke="#0f72ee" stroke-width="1" opacity="0.2"/><line y2="52" transform="translate(6.691 -6.382)" fill="none" stroke="#0f72ee" stroke-width="1" opacity="0.2"/><line y2="52" transform="translate(6.691 45.618)" fill="none" stroke="#0f72ee" stroke-width="1" opacity="0.2"/><line y2="52" transform="translate(6.691 97.618)" fill="none" stroke="#0f72ee" stroke-width="1" opacity="0.2"/><path d="M13.482,1.275A3.938,3.938,0,0,0,10.553,0a3.684,3.684,0,0,0-2.3.794,4.707,4.707,0,0,0-.93.971,4.7,4.7,0,0,0-.93-.971A3.683,3.683,0,0,0,4.091,0,3.938,3.938,0,0,0,1.162,1.275,4.577,4.577,0,0,0,0,4.4,5.45,5.45,0,0,0,1.452,7.969a30.969,30.969,0,0,0,3.636,3.412c.5.429,1.075.916,1.668,1.434a.86.86,0,0,0,1.132,0c.593-.519,1.164-1.005,1.668-1.435a30.955,30.955,0,0,0,3.635-3.412A5.45,5.45,0,0,0,14.644,4.4,4.577,4.577,0,0,0,13.482,1.275Zm0,0" transform="translate(-99.336 116.87)" fill="#0f72ee"/><g transform="translate(-98.809 63.118)"><path d="M32.274,6.8a1.268,1.268,0,0,0,.882-.358l1.257.629a1.248,1.248,0,0,0-.016.154,1.274,1.274,0,1,0,2.549,0,1.259,1.259,0,0,0-.128-.546L38.525,4.97a1.259,1.259,0,0,0,.546.128,1.276,1.276,0,0,0,1.274-1.274,1.255,1.255,0,0,0-.064-.377l1.482-1.111a1.274,1.274,0,1,0-.569-1.06,1.255,1.255,0,0,0,.064.377L39.777,2.763a1.269,1.269,0,0,0-1.852,1.606L36.219,6.075a1.252,1.252,0,0,0-1.428.231l-1.257-.629a1.248,1.248,0,0,0,.016-.154A1.274,1.274,0,1,0,32.274,6.8Zm0,0" transform="translate(-30.122)" fill="#00ceff"/><path d="M14.075,159.4h-.453v-8.978A.425.425,0,0,0,13.2,150H11.5a.425.425,0,0,0-.425.425V159.4h-.85v-6.429a.425.425,0,0,0-.425-.425H8.1a.425.425,0,0,0-.425.425V159.4h-.85v-3.03a.425.425,0,0,0-.425-.425H4.7a.425.425,0,0,0-.425.425v3.03h-.85v-4.729A.425.425,0,0,0,3,154.248H1.3a.425.425,0,0,0-.425.425V159.4H.425a.425.425,0,0,0,0,.85h13.65a.425.425,0,1,0,0-.85Zm0,0" transform="translate(0 -145.752)" fill="#0f72ee"/></g><path d="M1388.419-3119.315c-.592-.518-1.164-1.005-1.668-1.435a30.944,30.944,0,0,1-3.635-3.413,5.45,5.45,0,0,1-1.453-3.568,4.574,4.574,0,0,1,1.162-3.126,3.939,3.939,0,0,1,2.929-1.275,3.689,3.689,0,0,1,2.3.795,4.538,4.538,0,0,1,.635.6v11.581A.857.857,0,0,1,1388.419-3119.315Z" transform="translate(-1481 3249)" fill="#00ceff"/><rect width="96" height="12" rx="4" transform="translate(7.191 -39.882)" fill="#e5f0fd"/><rect width="96" height="12" rx="4" transform="translate(7.191 13.118)" fill="#e5f0fd"/><rect width="96" height="12" rx="4" transform="translate(7.191 65.118)" fill="#e5f0fd"/><rect width="96" height="12" rx="4" transform="translate(7.191 117.118)" fill="#e5f0fd"/><rect width="79" height="12" transform="translate(7.191 -39.882)" fill="#0f72ee"/><rect width="72" height="12" transform="translate(7.191 13.118)" fill="#0f72ee"/><rect width="76" height="12" transform="translate(7.191 65.118)" fill="#0f72ee"/><rect width="82" height="12" transform="translate(7.191 117.118)" fill="#0f72ee"/><path d="M5.712,0H7.28V-2.128h1.3V-3.514H7.28V-10.08H5.348L.644-3.332v1.2H5.712ZM2.478-3.514l3.3-4.942v4.942ZM11.76-.924a1.007,1.007,0,0,0-1.008-1.022A1.01,1.01,0,0,0,9.73-.924,1.01,1.01,0,0,0,10.752.1,1.007,1.007,0,0,0,11.76-.924Zm1.484-6.762H14.8a1.586,1.586,0,0,1,1.736-1.386c1.092,0,1.666.588,1.666,1.47,0,1.092-.882,1.512-2.324,1.526H15.5V-4.76h.364c1.666,0,2.534.462,2.534,1.806a1.6,1.6,0,0,1-1.778,1.68,1.8,1.8,0,0,1-1.974-1.68H13.1c.1,2,1.6,3.01,3.528,3.01,2.128,0,3.276-1.232,3.276-2.856a2.486,2.486,0,0,0-1.75-2.618v-.056a2.384,2.384,0,0,0,1.568-2.31c0-1.484-1.106-2.66-3.136-2.66C14.728-10.444,13.356-9.45,13.244-7.686Z" transform="translate(115.191 -28.882)" fill="#0f72ee"/><path d="M.812-7.686H2.366A1.586,1.586,0,0,1,4.1-9.072c1.092,0,1.666.588,1.666,1.47,0,1.092-.882,1.512-2.324,1.526H3.066V-4.76H3.43c1.666,0,2.534.462,2.534,1.806a1.6,1.6,0,0,1-1.778,1.68,1.8,1.8,0,0,1-1.974-1.68H.672c.1,2,1.6,3.01,3.528,3.01C6.328.056,7.476-1.176,7.476-2.8a2.486,2.486,0,0,0-1.75-2.618v-.056a2.384,2.384,0,0,0,1.568-2.31c0-1.484-1.106-2.66-3.136-2.66C2.3-10.444.924-9.45.812-7.686ZM11.018-.924A1.007,1.007,0,0,0,10.01-1.946,1.01,1.01,0,0,0,8.988-.924,1.01,1.01,0,0,0,10.01.1,1.007,1.007,0,0,0,11.018-.924Zm2.03-1.848a2.93,2.93,0,0,0,3.22,2.758c2.674,0,3.4-1.834,3.4-5.278,0-3.346-.882-5.152-3.514-5.152A3.136,3.136,0,0,0,12.768-7.07a3.051,3.051,0,0,0,3.248,3.262A2.776,2.776,0,0,0,18.284-4.8c0,2.6-.644,3.458-1.918,3.458a1.678,1.678,0,0,1-1.848-1.428ZM16.3-5.152a1.825,1.825,0,0,1-2-1.96,1.835,1.835,0,0,1,1.9-2A1.821,1.821,0,0,1,18.1-7.07,1.737,1.737,0,0,1,16.3-5.152Z" transform="translate(115.191 24.118)" fill="#0f72ee"/><path d="M5.712,0H7.28V-2.128h1.3V-3.514H7.28V-10.08H5.348L.644-3.332v1.2H5.712ZM2.478-3.514l3.3-4.942v4.942ZM11.76-.924a1.007,1.007,0,0,0-1.008-1.022A1.01,1.01,0,0,0,9.73-.924,1.01,1.01,0,0,0,10.752.1,1.007,1.007,0,0,0,11.76-.924Zm1.512-4.312c0,2.968.784,5.208,3.64,5.208s3.64-2.24,3.64-5.208c0-2.912-.784-5.152-3.64-5.152S13.272-8.148,13.272-5.236Zm5.712,0c0,2-.21,3.752-2.072,3.752S14.84-3.234,14.84-5.236c0-1.9.21-3.7,2.072-3.7S18.984-7.14,18.984-5.236Z" transform="translate(115.191 76.118)" fill="#0f72ee"/><path d="M5.712,0H7.28V-2.128h1.3V-3.514H7.28V-10.08H5.348L.644-3.332v1.2H5.712ZM2.478-3.514l3.3-4.942v4.942ZM11.76-.924a1.007,1.007,0,0,0-1.008-1.022A1.01,1.01,0,0,0,9.73-.924,1.01,1.01,0,0,0,10.752.1,1.007,1.007,0,0,0,11.76-.924ZM20.23-7.84a2.93,2.93,0,0,0-3.15-2.618c-2.548,0-3.612,1.932-3.612,5.124,0,3.248.77,5.334,3.738,5.334a3.152,3.152,0,0,0,3.346-3.4,3.041,3.041,0,0,0-3.136-3.36A2.945,2.945,0,0,0,14.84-5.474c.042-2.674.784-3.654,2.226-3.654A1.527,1.527,0,0,1,18.76-7.84ZM17.066-5.418a1.846,1.846,0,0,1,1.96,2.086,1.828,1.828,0,0,1-1.9,2,1.935,1.935,0,0,1-2.1-2.1A1.906,1.906,0,0,1,17.066-5.418Z" transform="translate(115.191 128.118)" fill="#0f72ee"/><g transform="translate(-657.62 -2112.538)"><g transform="translate(799.812 2071.656)"><circle cx="6.594" cy="6.594" r="6.594" fill="url(#e)"/><g transform="translate(2.583 4.396)"><g transform="translate(0.437)"><path d="M815.4,2093.022a.3.3,0,0,1-.3-.3v-.177a.563.563,0,0,0-1.125,0v.177a.3.3,0,1,1-.6,0v-.177a1.168,1.168,0,0,1,2.335,0v.177A.3.3,0,0,1,815.4,2093.022Z" transform="translate(-813.366 -2091.384)" fill="#2e424e"/><g transform="translate(5.061)"><path d="M838.111,2093.022a.3.3,0,0,1-.3-.3v-.177a.563.563,0,0,0-1.126,0v.177a.3.3,0,1,1-.6,0v-.177a1.168,1.168,0,0,1,2.335,0v.177A.3.3,0,0,1,838.111,2093.022Z" transform="translate(-836.078 -2091.384)" fill="#2e424e"/></g></g><g transform="translate(0 2.943)"><path d="M813.906,2107.092c-.029-.07.305,2.586,3.576,2.685,3.271-.1,3.605-2.754,3.576-2.685A15.318,15.318,0,0,1,813.906,2107.092Z" transform="translate(-813.348 -2106.534)" fill="#2e424e"/><path d="M815.54,2108.391h-.017c-3.4-.1-4.125-2.762-4.118-3.248a.561.561,0,0,1,.558-.552.554.554,0,0,1,.161.024,14.836,14.836,0,0,0,6.832,0,.557.557,0,0,1,.719.528c.007.485-.721,3.146-4.118,3.248Zm-2.718-2.5a3.365,3.365,0,0,0,5.436,0A15.928,15.928,0,0,1,812.822,2105.9Z" transform="translate(-811.405 -2104.591)" fill="#2e424e"/><g transform="translate(0.998 0.657)"><path d="M819.019,2108.424a5.552,5.552,0,0,0,3.137-.885,15.313,15.313,0,0,1-6.275,0A5.552,5.552,0,0,0,819.019,2108.424Z" transform="translate(-815.882 -2107.539)" fill="#fff"/></g><g transform="translate(1.849 2.059)"><path d="M824.274,2114.332a5.448,5.448,0,0,0-4.573,0,4.176,4.176,0,0,0,4.573,0Z" transform="translate(-819.701 -2113.829)" fill="#dc6136"/></g></g></g></g></g><g transform="translate(-657.62 -2007.538)"><g transform="translate(799.812 2071.656)"><circle cx="6.594" cy="6.594" r="6.594" fill="url(#e)"/><g transform="translate(2.583 4.396)"><g transform="translate(0.437)"><path d="M815.4,2093.022a.3.3,0,0,1-.3-.3v-.177a.563.563,0,0,0-1.125,0v.177a.3.3,0,1,1-.6,0v-.177a1.168,1.168,0,0,1,2.335,0v.177A.3.3,0,0,1,815.4,2093.022Z" transform="translate(-813.366 -2091.384)" fill="#2e424e"/><g transform="translate(5.061)"><path d="M838.111,2093.022a.3.3,0,0,1-.3-.3v-.177a.563.563,0,0,0-1.126,0v.177a.3.3,0,1,1-.6,0v-.177a1.168,1.168,0,0,1,2.335,0v.177A.3.3,0,0,1,838.111,2093.022Z" transform="translate(-836.078 -2091.384)" fill="#2e424e"/></g></g><g transform="translate(0 2.943)"><path d="M813.906,2107.092c-.029-.07.305,2.586,3.576,2.685,3.271-.1,3.605-2.754,3.576-2.685A15.318,15.318,0,0,1,813.906,2107.092Z" transform="translate(-813.348 -2106.534)" fill="#2e424e"/><path d="M815.54,2108.391h-.017c-3.4-.1-4.125-2.762-4.118-3.248a.561.561,0,0,1,.558-.552.554.554,0,0,1,.161.024,14.836,14.836,0,0,0,6.832,0,.557.557,0,0,1,.719.528c.007.485-.721,3.146-4.118,3.248Zm-2.718-2.5a3.365,3.365,0,0,0,5.436,0A15.928,15.928,0,0,1,812.822,2105.9Z" transform="translate(-811.405 -2104.591)" fill="#2e424e"/><g transform="translate(0.998 0.657)"><path d="M819.019,2108.424a5.552,5.552,0,0,0,3.137-.885,15.313,15.313,0,0,1-6.275,0A5.552,5.552,0,0,0,819.019,2108.424Z" transform="translate(-815.882 -2107.539)" fill="#fff"/></g><g transform="translate(1.849 2.059)"><path d="M824.274,2114.332a5.448,5.448,0,0,0-4.573,0,4.176,4.176,0,0,0,4.573,0Z" transform="translate(-819.701 -2113.829)" fill="#dc6136"/></g></g></g></g></g><g transform="translate(-657.62 -1955.538)"><g transform="translate(799.812 2071.656)"><circle cx="6.594" cy="6.594" r="6.594" fill="url(#e)"/><g transform="translate(2.583 4.396)"><g transform="translate(0.437)"><path d="M815.4,2093.022a.3.3,0,0,1-.3-.3v-.177a.563.563,0,0,0-1.125,0v.177a.3.3,0,1,1-.6,0v-.177a1.168,1.168,0,0,1,2.335,0v.177A.3.3,0,0,1,815.4,2093.022Z" transform="translate(-813.366 -2091.384)" fill="#2e424e"/><g transform="translate(5.061)"><path d="M838.111,2093.022a.3.3,0,0,1-.3-.3v-.177a.563.563,0,0,0-1.126,0v.177a.3.3,0,1,1-.6,0v-.177a1.168,1.168,0,0,1,2.335,0v.177A.3.3,0,0,1,838.111,2093.022Z" transform="translate(-836.078 -2091.384)" fill="#2e424e"/></g></g><g transform="translate(0 2.943)"><path d="M813.906,2107.092c-.029-.07.305,2.586,3.576,2.685,3.271-.1,3.605-2.754,3.576-2.685A15.318,15.318,0,0,1,813.906,2107.092Z" transform="translate(-813.348 -2106.534)" fill="#2e424e"/><path d="M815.54,2108.391h-.017c-3.4-.1-4.125-2.762-4.118-3.248a.561.561,0,0,1,.558-.552.554.554,0,0,1,.161.024,14.836,14.836,0,0,0,6.832,0,.557.557,0,0,1,.719.528c.007.485-.721,3.146-4.118,3.248Zm-2.718-2.5a3.365,3.365,0,0,0,5.436,0A15.928,15.928,0,0,1,812.822,2105.9Z" transform="translate(-811.405 -2104.591)" fill="#2e424e"/><g transform="translate(0.998 0.657)"><path d="M819.019,2108.424a5.552,5.552,0,0,0,3.137-.885,15.313,15.313,0,0,1-6.275,0A5.552,5.552,0,0,0,819.019,2108.424Z" transform="translate(-815.882 -2107.539)" fill="#fff"/></g><g transform="translate(1.849 2.059)"><path d="M824.274,2114.332a5.448,5.448,0,0,0-4.573,0,4.176,4.176,0,0,0,4.573,0Z" transform="translate(-819.701 -2113.829)" fill="#dc6136"/></g></g></g></g></g><g transform="translate(80.988 -2179.909)"><g transform="translate(61.203 2192.028)"><g transform="translate(0 0)"><circle cx="6.622" cy="6.622" r="6.622" transform="translate(0 0.358) rotate(-1.547)" fill="url(#e)"/></g><g transform="translate(8.526 4.581)"><path d="M101.977,2214.515a.32.32,0,0,1-.32-.32v-.187a.6.6,0,0,0-1.19,0v.187a.32.32,0,1,1-.639,0v-.187a1.235,1.235,0,0,1,2.47,0v.187A.32.32,0,0,1,101.977,2214.515Z" transform="translate(-99.827 -2212.783)" fill="#2e424e"/></g><g transform="translate(3.173 4.581)"><path d="M77.727,2214.515a.32.32,0,0,1-.32-.32v-.187a.6.6,0,0,0-1.19,0v.187a.32.32,0,0,1-.64,0v-.187a1.235,1.235,0,0,1,2.47,0v.187A.32.32,0,0,1,77.727,2214.515Z" transform="translate(-75.577 -2212.783)" fill="#2e424e"/></g><g transform="translate(4.565 8.844)"><path d="M84.4,2234.183a2.65,2.65,0,0,1-2.5-1.662.32.32,0,0,1,.6-.216,2.075,2.075,0,0,0,3.8,0,.32.32,0,0,1,.6.214A2.65,2.65,0,0,1,84.4,2234.183Z" transform="translate(-81.884 -2232.094)" fill="#2e424e"/></g></g></g><path d="M16,0H287a16,16,0,0,1,16,16V49a0,0,0,0,1,0,0H0a0,0,0,0,1,0,0V16A16,16,0,0,1,16,0Z" transform="translate(-119.808 -58.882)" fill="#0f72ee" opacity="0.1"/><rect width="303" height="49" transform="translate(-119.808 46.118)" fill="#0f72ee" opacity="0.1"/></g></svg>