<svg xmlns="http://www.w3.org/2000/svg" xmlns:xlink="http://www.w3.org/1999/xlink" width="388" height="290" viewBox="0 0 388 290"><defs><filter id="a" x="0" y="0" width="388" height="290" filterUnits="userSpaceOnUse"><feOffset dy="6" input="SourceAlpha"/><feGaussianBlur stdDeviation="21" result="b"/><feFlood flood-opacity="0.161"/><feComposite operator="in" in2="b"/><feComposite in="SourceGraphic"/></filter></defs><g transform="translate(63.357 57.362)"><g transform="matrix(1, 0, 0, 1, -63.36, -57.36)" filter="url(#a)"><rect width="262" height="164" rx="16" transform="translate(63 57)" fill="#fff"/></g><rect width="22" height="4" transform="translate(119.644 56.638)" fill="#0f72ee" opacity="0.2"/><g transform="translate(38.644 31.638)"><path d="M131.125,85.375h-18A1.125,1.125,0,0,1,112,84.25V74.125a10.125,10.125,0,0,1,20.25,0V84.25A1.125,1.125,0,0,1,131.125,85.375Zm-16.875-2.25H130v-9a7.875,7.875,0,0,0-15.75,0Z" transform="translate(-29.75 -59.5)" fill="#0f72ee"/><path d="M101.375,342.75h-18a3.375,3.375,0,0,1,0-6.75h18a3.375,3.375,0,0,1,0,6.75Zm-18-4.5a1.125,1.125,0,0,0,0,2.25h18a1.125,1.125,0,0,0,0-2.25Z" transform="translate(0 -312.375)" fill="#0f72ee"/><path d="M241.125,6.75A1.125,1.125,0,0,1,240,5.625V2.813a2.813,2.813,0,0,1,5.625,0,1.125,1.125,0,0,1-2.25,0,.563.563,0,0,0-1.125,0V5.625A1.125,1.125,0,0,1,241.125,6.75Z" transform="translate(-148.75)" fill="#0f72ee"/><path d="M196.5,407.875a4.5,4.5,0,0,1-3.353-7.5,1.125,1.125,0,0,1,.838-.374h5.03a1.125,1.125,0,0,1,.838.374,4.5,4.5,0,0,1-3.353,7.5Zm-1.949-5.625a2.25,2.25,0,1,0,3.9,0Z" transform="translate(-104.125 -371.875)" fill="#0f72ee"/><circle cx="1.067" cy="1.067" r="1.067" transform="translate(96.267 19.009)" fill="#0f72ee"/></g><path d="M-92.355-9.03h2.79V0h1.71V-9.03h2.775v-1.4h-7.275Zm9,9.03h1.71V-4.62a2,2,0,0,1,2.085-2.3c1.245,0,2.07.78,2.07,2.3V0H-75.8V-4.875A3.187,3.187,0,0,0-79.08-8.4,3.276,3.276,0,0,0-81.645-7.3v-3.8h-1.71ZM-70.14-6.96a2.146,2.146,0,0,1,2.31,2.085H-72.4A2.251,2.251,0,0,1-70.14-6.96Zm3.87,4.5h-1.845A2,2,0,0,1-70.065-1.3a2.274,2.274,0,0,1-2.355-2.19h6.315a5.275,5.275,0,0,0,.06-.84A3.854,3.854,0,0,0-70.065-8.4,3.958,3.958,0,0,0-74.19-4.14,4.01,4.01,0,0,0-70.065.135,3.777,3.777,0,0,0-66.27-2.46Zm3.615-1.89c0-1.755.78-2.28,2.04-2.28h.435V-8.4a2.692,2.692,0,0,0-2.475,1.335v-1.2h-1.71V0h1.71Zm7.53-2.61a2.146,2.146,0,0,1,2.31,2.085H-57.39A2.251,2.251,0,0,1-55.125-6.96Zm3.87,4.5H-53.1A2,2,0,0,1-55.05-1.3a2.274,2.274,0,0,1-2.355-2.19h6.315a5.275,5.275,0,0,0,.06-.84A3.854,3.854,0,0,0-55.05-8.4a3.958,3.958,0,0,0-4.125,4.26A4.01,4.01,0,0,0-55.05.135,3.777,3.777,0,0,0-51.255-2.46ZM-45.45,0h1.71V-8.265h-1.71Zm.87-9.36a1.079,1.079,0,0,0,1.08-1.095,1.079,1.079,0,0,0-1.08-1.095,1.082,1.082,0,0,0-1.095,1.095A1.082,1.082,0,0,0-44.58-9.36Zm9.255,7.05c-.09-2.985-4.755-2.055-4.755-3.72,0-.555.48-.93,1.4-.93A1.367,1.367,0,0,1-37.14-5.745h1.71c-.09-1.65-1.32-2.655-3.195-2.655-1.95,0-3.18,1.065-3.18,2.385,0,3.03,4.8,2.1,4.8,3.72,0,.57-.525.99-1.515.99a1.508,1.508,0,0,1-1.65-1.23h-1.77c.075,1.5,1.47,2.67,3.45,2.67C-36.54.135-35.325-.915-35.325-2.31Zm5.175-1.86A4,4,0,0,0-26.28.135a3.557,3.557,0,0,0,2.9-1.365V0h1.725V-8.265h-1.725v1.2A3.518,3.518,0,0,0-26.25-8.4,3.934,3.934,0,0,0-30.15-4.17Zm6.765.03a2.568,2.568,0,0,1-2.5,2.79A2.6,2.6,0,0,1-28.4-4.17,2.536,2.536,0,0,1-25.89-6.915,2.563,2.563,0,0,1-23.385-4.14ZM-9.645,0H-7.95V-4.875A3.219,3.219,0,0,0-11.34-8.4,3.18,3.18,0,0,0-13.8-7.32v-.945h-1.71V0h1.71V-4.62a2,2,0,0,1,2.085-2.3c1.245,0,2.07.78,2.07,2.3ZM-2.3-6.96A2.146,2.146,0,0,1,.015-4.875H-4.56A2.251,2.251,0,0,1-2.3-6.96Zm3.87,4.5H-.27A2,2,0,0,1-2.22-1.3a2.274,2.274,0,0,1-2.355-2.19H1.74a5.275,5.275,0,0,0,.06-.84A3.854,3.854,0,0,0-2.22-8.4,3.958,3.958,0,0,0-6.345-4.14,4.01,4.01,0,0,0-2.22.135,3.777,3.777,0,0,0,1.575-2.46ZM5.085,0h1.8L8.55-6.105,10.215,0h1.8L14.58-8.265H12.9L11.19-1.65,9.51-8.265H7.725L5.97-1.62,4.245-8.265H2.5Zm14.1-4.14A3.953,3.953,0,0,0,23.235.135a3.712,3.712,0,0,0,3.81-2.745H25.2a1.888,1.888,0,0,1-1.965,1.3c-1.38,0-2.3-1.02-2.3-2.835s.915-2.82,2.3-2.82a1.932,1.932,0,0,1,1.965,1.3h1.845A3.6,3.6,0,0,0,23.235-8.4,3.948,3.948,0,0,0,19.185-4.14Zm17.445,0A4.076,4.076,0,0,0,32.415-8.4,4.076,4.076,0,0,0,28.2-4.14,4.03,4.03,0,0,0,32.34.135,4.14,4.14,0,0,0,36.63-4.14Zm-6.69,0a2.462,2.462,0,0,1,2.445-2.775,2.5,2.5,0,0,1,2.49,2.775A2.546,2.546,0,0,1,32.34-1.35C31.05-1.35,29.94-2.265,29.94-4.14ZM50.04,0h1.695V-4.875A3.23,3.23,0,0,0,48.33-8.4a3.236,3.236,0,0,0-2.88,1.635A3.188,3.188,0,0,0,42.48-8.4a3.148,3.148,0,0,0-2.445,1.08v-.945h-1.71V0h1.71V-4.62a2,2,0,0,1,2.085-2.3c1.245,0,2.07.78,2.07,2.3V0h1.695V-4.62a2,2,0,0,1,2.085-2.3c1.245,0,2.07.78,2.07,2.3ZM65.625,0h1.7V-4.875A3.23,3.23,0,0,0,63.915-8.4a3.236,3.236,0,0,0-2.88,1.635A3.188,3.188,0,0,0,58.065-8.4,3.148,3.148,0,0,0,55.62-7.32v-.945H53.91V0h1.71V-4.62a2,2,0,0,1,2.085-2.3c1.245,0,2.07.78,2.07,2.3V0H61.47V-4.62a2,2,0,0,1,2.085-2.3c1.245,0,2.07.78,2.07,2.3Zm7.35-6.96a2.146,2.146,0,0,1,2.31,2.085H70.71A2.251,2.251,0,0,1,72.975-6.96Zm3.87,4.5H75A2,2,0,0,1,73.05-1.3a2.274,2.274,0,0,1-2.355-2.19H77.01a5.275,5.275,0,0,0,.06-.84A3.854,3.854,0,0,0,73.05-8.4a3.958,3.958,0,0,0-4.125,4.26A4.01,4.01,0,0,0,73.05.135,3.777,3.777,0,0,0,76.845-2.46ZM84.615,0H86.31V-4.875A3.219,3.219,0,0,0,82.92-8.4a3.18,3.18,0,0,0-2.46,1.08v-.945H78.75V0h1.71V-4.62a2,2,0,0,1,2.085-2.3c1.245,0,2.07.78,2.07,2.3Zm4.14-2.3c0,1.68.915,2.3,2.385,2.3h1.35V-1.425H91.44c-.72,0-.96-.255-.96-.87V-6.87h2.01v-1.4H90.48V-10.32H88.755v2.055H87.78v1.4h.975ZM-78.442,14.86a4.076,4.076,0,0,0-4.215-4.26,4.076,4.076,0,0,0-4.215,4.26,4.03,4.03,0,0,0,4.14,4.275A4.14,4.14,0,0,0-78.442,14.86Zm-6.69,0a2.462,2.462,0,0,1,2.445-2.775A2.5,2.5,0,0,1-80.2,14.86a2.546,2.546,0,0,1-2.535,2.79C-84.022,17.65-85.132,16.735-85.132,14.86ZM-70.882,19h1.695V14.125a3.219,3.219,0,0,0-3.39-3.525,3.18,3.18,0,0,0-2.46,1.08v-.945h-1.71V19h1.71V14.38a2,2,0,0,1,2.085-2.3c1.245,0,2.07.78,2.07,2.3Zm11.025-1.965-2.325-6.3h-1.9l3.255,8.13-1.68,4.02h1.77l5.07-12.15h-1.77Zm13.35-2.175a4.076,4.076,0,0,0-4.215-4.26,4.076,4.076,0,0,0-4.215,4.26,4.03,4.03,0,0,0,4.14,4.275A4.14,4.14,0,0,0-46.507,14.86Zm-6.69,0a2.462,2.462,0,0,1,2.445-2.775,2.5,2.5,0,0,1,2.49,2.775A2.546,2.546,0,0,1-50.8,17.65C-52.088,17.65-53.2,16.735-53.2,14.86Zm15.87-4.125h-1.71V15.34a2,2,0,0,1-2.085,2.3c-1.245,0-2.07-.78-2.07-2.3V10.735h-1.695V15.6a3.23,3.23,0,0,0,3.4,3.525,3.076,3.076,0,0,0,2.445-1.11V19h1.71Zm3.96,3.915c0-1.755.78-2.28,2.04-2.28h.435V10.6a2.692,2.692,0,0,0-2.475,1.335v-1.2h-1.71V19h1.71Zm8.22,2.055c0,1.68.915,2.3,2.385,2.3h1.35V17.575h-1.05c-.72,0-.96-.255-.96-.87V12.13h2.01v-1.4h-2.01V8.68h-1.725v2.055h-.975v1.4h.975Zm5.31,2.3h1.71V10.735h-1.71Zm.87-9.36a1.079,1.079,0,0,0,1.08-1.095,1.079,1.079,0,0,0-1.08-1.095,1.082,1.082,0,0,0-1.1,1.095A1.082,1.082,0,0,0-18.967,9.64Zm2.52,5.22a3.953,3.953,0,0,0,4.05,4.275,3.712,3.712,0,0,0,3.81-2.745h-1.845A1.888,1.888,0,0,1-12.4,17.695c-1.38,0-2.3-1.02-2.3-2.835s.915-2.82,2.3-2.82a1.932,1.932,0,0,1,1.965,1.3h1.845A3.6,3.6,0,0,0-12.4,10.6,3.948,3.948,0,0,0-16.447,14.86ZM-6.877,19h1.71V15.445L-2.107,19H.2l-3.81-4.125L.2,10.735h-2.37l-3,3.615V7.9h-1.71Zm11.79-6.96a2.146,2.146,0,0,1,2.31,2.085H2.648A2.251,2.251,0,0,1,4.913,12.04Zm3.87,4.5H6.938a2,2,0,0,1-1.95,1.155,2.274,2.274,0,0,1-2.355-2.19H8.948a5.275,5.275,0,0,0,.06-.84A3.854,3.854,0,0,0,4.988,10.6,3.958,3.958,0,0,0,.863,14.86a4.01,4.01,0,0,0,4.125,4.275A3.777,3.777,0,0,0,8.783,16.54Zm2.175.165c0,1.68.915,2.3,2.385,2.3h1.35V17.575h-1.05c-.72,0-.96-.255-.96-.87V12.13h2.01v-1.4h-2.01V8.68H10.958v2.055H9.983v1.4h.975Zm15.765-1.98h-2.94l.555-2.6h2.94ZM25.808,19h1.635l.6-2.775h2.3v-1.5h-1.98l.555-2.6h2.31v-1.5H29.228l.585-2.73H28.178l-.585,2.73h-2.94l.585-2.73H23.6l-.585,2.73H20.393v1.5H22.7l-.555,2.6h-2.64v1.5h2.325L21.233,19h1.635l.6-2.775h2.94Zm6.9-9.03H35.5V19h1.71V9.97h2.775v-1.4H32.708ZM47.452,19h2.235l-4.6-5.2,4.53-5.22H47.467l-4.05,4.755V8.575h-1.71V19h1.71V14.335Zm3.21-9.03h2.79V19h1.71V9.97h2.775v-1.4H50.663Zm8.775,3.42c0,3.18.84,5.58,3.9,5.58s3.9-2.4,3.9-5.58c0-3.12-.84-5.52-3.9-5.52S59.438,10.27,59.438,13.39Zm6.12,0c0,2.145-.225,4.02-2.22,4.02s-2.22-1.875-2.22-4.02c0-2.04.225-3.96,2.22-3.96S65.557,11.35,65.557,13.39ZM69.5,8.035V14.35h1.62a2.118,2.118,0,0,1,4.1.87c0,1.35-.66,2.355-2.13,2.355a2.039,2.039,0,0,1-2.16-1.53H69.263c.255,1.71,1.56,2.955,3.81,2.955a3.516,3.516,0,0,0,3.78-3.825,3.332,3.332,0,0,0-3.51-3.645,2.93,2.93,0,0,0-2.265.99V9.535H76.1v-1.5ZM83.857,19h1.68V16.72h1.395V15.235H85.537V8.2h-2.07l-5.04,7.23v1.29h5.43Zm-3.465-3.765,3.54-5.3v5.3Z" transform="translate(130.644 99.638)" fill="#0f72ee"/></g></svg>