<svg xmlns="http://www.w3.org/2000/svg" xmlns:xlink="http://www.w3.org/1999/xlink" width="129" height="129" viewBox="0 0 129 129"><defs><filter id="a" x="0" y="0" width="129" height="129" filterUnits="userSpaceOnUse"><feOffset dy="16" input="SourceAlpha"/><feGaussianBlur stdDeviation="12" result="b"/><feFlood flood-opacity="0.161"/><feComposite operator="in" in2="b"/><feComposite in="SourceGraphic"/></filter></defs><g transform="translate(-1194.3 -770.038)"><g transform="matrix(1, 0, 0, 1, 1194.3, 770.04)" filter="url(#a)"><path d="M16,0H41A16,16,0,0,1,57,16V41A16,16,0,0,1,41,57H0a0,0,0,0,1,0,0V16A16,16,0,0,1,16,0Z" transform="translate(36 20)" fill="#fff"/></g><g transform="translate(1241.595 801.114)"><ellipse cx="17.322" cy="17.322" rx="17.322" ry="17.322" fill="#0f72ee"/><rect width="17.322" height="17.322" transform="translate(0 17.322)" fill="#0f72ee"/><g transform="translate(9.275 11.138)"><line x2="14.647" transform="translate(0.052 2)" fill="none" stroke="#fff" stroke-linecap="round" stroke-width="2"/><line x2="14.647" transform="translate(0.052 6.524)" fill="none" stroke="#fff" stroke-linecap="round" stroke-width="2"/><line x2="7.837" transform="translate(0.23 11.048)" fill="none" stroke="#fff" stroke-linecap="round" stroke-width="2"/></g></g></g></svg>