<svg xmlns="http://www.w3.org/2000/svg" xmlns:xlink="http://www.w3.org/1999/xlink" width="427" height="308" viewBox="0 0 427 308"><defs><filter id="a" x="0" y="0" width="427" height="308" filterUnits="userSpaceOnUse"><feOffset dy="6" input="SourceAlpha"/><feGaussianBlur stdDeviation="21" result="b"/><feFlood flood-opacity="0.161"/><feComposite operator="in" in2="b"/><feComposite in="SourceGraphic"/></filter></defs><g transform="translate(62.809 43.882)"><g transform="matrix(1, 0, 0, 1, -62.81, -43.88)" filter="url(#a)"><rect width="301" height="182" rx="16" transform="translate(63 57)" fill="#fff"/></g><path d="M0,0H301a0,0,0,0,1,0,0V37a14,14,0,0,1-14,14H16A16,16,0,0,1,0,35V0A0,0,0,0,1,0,0Z" transform="translate(0.191 144.118)" fill="#e5f0fd"/><path d="M.481-4.537A4.511,4.511,0,0,0,5.1.078a4.3,4.3,0,0,0,4.2-2.7H7.514A2.524,2.524,0,0,1,5.1-1.209,3.049,3.049,0,0,1,2-4.537,3.038,3.038,0,0,1,5.1-7.852,2.524,2.524,0,0,1,7.514-6.435H9.3A4.307,4.307,0,0,0,5.1-9.152,4.519,4.519,0,0,0,.481-4.537Zm10.049.923A3.463,3.463,0,0,0,13.884.117a3.083,3.083,0,0,0,2.509-1.183V0h1.5V-7.163h-1.5v1.04A3.049,3.049,0,0,0,13.91-7.28,3.409,3.409,0,0,0,10.53-3.614Zm5.863.026A2.225,2.225,0,0,1,14.222-1.17a2.257,2.257,0,0,1-2.171-2.444,2.2,2.2,0,0,1,2.171-2.379A2.221,2.221,0,0,1,16.393-3.588ZM24.921,0H26.39V-4.225A2.789,2.789,0,0,0,23.452-7.28a2.756,2.756,0,0,0-2.132.936v-.819H19.838V0H21.32V-4a1.736,1.736,0,0,1,1.807-1.989c1.079,0,1.794.676,1.794,1.989Zm9.555-1.7-2.015-5.46H30.81L33.631-.117,32.175,3.367h1.534L38.1-7.163H36.569Zm11.57-1.885A3.532,3.532,0,0,0,42.393-7.28,3.532,3.532,0,0,0,38.74-3.588a3.492,3.492,0,0,0,3.588,3.7A3.588,3.588,0,0,0,46.046-3.588Zm-5.8,0a2.134,2.134,0,0,1,2.119-2.405,2.167,2.167,0,0,1,2.158,2.405,2.206,2.206,0,0,1-2.2,2.418A2.119,2.119,0,0,1,40.248-3.588ZM54-7.163H52.52v3.991a1.736,1.736,0,0,1-1.807,1.989c-1.079,0-1.794-.676-1.794-1.989V-7.163H47.45v4.212A2.8,2.8,0,0,0,50.4.1,2.666,2.666,0,0,0,52.52-.858V0H54ZM59.332,0h1.482V-4a1.736,1.736,0,0,1,1.807-1.989c1.079,0,1.794.676,1.794,1.989V0h1.469V-4.225A2.762,2.762,0,0,0,63.037-7.28a2.839,2.839,0,0,0-2.223.949V-9.62H59.332ZM70.785-6.032a1.86,1.86,0,0,1,2,1.807H68.822A1.951,1.951,0,0,1,70.785-6.032Zm3.354,3.9h-1.6a1.734,1.734,0,0,1-1.69,1,1.97,1.97,0,0,1-2.041-1.9h5.473a4.572,4.572,0,0,0,.052-.728A3.341,3.341,0,0,0,70.85-7.28a3.43,3.43,0,0,0-3.575,3.692A3.475,3.475,0,0,0,70.85.117,3.273,3.273,0,0,0,74.139-2.132ZM75.79,0h1.482V-9.62H75.79ZM80.7-6.11V-7.163H79.222V3.406H80.7V-1.04A3.238,3.238,0,0,0,83.2.117a3.457,3.457,0,0,0,3.367-3.731A3.4,3.4,0,0,0,83.2-7.28,3.125,3.125,0,0,0,80.7-6.11Zm4.355,2.5A2.259,2.259,0,0,1,82.875-1.17,2.233,2.233,0,0,1,80.7-3.588a2.229,2.229,0,0,1,2.171-2.405A2.2,2.2,0,0,1,85.059-3.614ZM101.569,0h1.469V-4.225a2.8,2.8,0,0,0-2.951-3.055,2.8,2.8,0,0,0-2.5,1.417A2.763,2.763,0,0,0,95.017-7.28a2.728,2.728,0,0,0-2.119.936v-.819H91.416V0H92.9V-4a1.736,1.736,0,0,1,1.807-1.989c1.079,0,1.794.676,1.794,1.989V0h1.469V-4a1.736,1.736,0,0,1,1.807-1.989c1.079,0,1.794.676,1.794,1.989Zm6.37-6.032a1.86,1.86,0,0,1,2,1.807h-3.965A1.951,1.951,0,0,1,107.939-6.032Zm3.354,3.9h-1.6a1.734,1.734,0,0,1-1.69,1,1.97,1.97,0,0,1-2.041-1.9h5.473a4.572,4.572,0,0,0,.052-.728A3.341,3.341,0,0,0,108-7.28a3.43,3.43,0,0,0-3.575,3.692A3.475,3.475,0,0,0,108,.117,3.273,3.273,0,0,0,111.293-2.132Z" transform="translate(42.191 174.118)" fill="#0f72ee"/><path d="M.559-4.537A4.445,4.445,0,0,0,5.083.078a4.261,4.261,0,0,0,4.2-2.717H7.865A2.86,2.86,0,0,1,5.083-.949,3.286,3.286,0,0,1,1.768-4.537a3.291,3.291,0,0,1,3.315-3.6,2.851,2.851,0,0,1,2.782,1.7H9.282a4.265,4.265,0,0,0-4.2-2.743A4.467,4.467,0,0,0,.559-4.537ZM10.6-3.588a3.426,3.426,0,0,0,3.367,3.7,2.975,2.975,0,0,0,2.665-1.443V0h1.2V-7.124h-1.2v1.3a2.956,2.956,0,0,0-2.652-1.417A3.376,3.376,0,0,0,10.6-3.588Zm6.032.013A2.438,2.438,0,0,1,14.209-.923a2.44,2.44,0,0,1-2.4-2.665,2.4,2.4,0,0,1,2.4-2.626A2.441,2.441,0,0,1,16.627-3.575ZM25.038,0h1.17V-4.2A2.764,2.764,0,0,0,23.3-7.254,2.632,2.632,0,0,0,21.008-6.11V-7.124H19.825V0h1.183V-3.939c0-1.534.832-2.288,2.041-2.288s1.989.741,1.989,2.2ZM34.32-1.352,32.084-7.124H30.771L33.644-.078l-1.4,3.432h1.222l4.29-10.478H36.53ZM45.695-3.575a3.477,3.477,0,0,0-3.6-3.666,3.484,3.484,0,0,0-3.6,3.666A3.458,3.458,0,0,0,42.042.117,3.532,3.532,0,0,0,45.695-3.575Zm-5.993,0a2.362,2.362,0,0,1,2.379-2.639,2.393,2.393,0,0,1,2.405,2.639A2.418,2.418,0,0,1,42.042-.923,2.346,2.346,0,0,1,39.7-3.575ZM53.573-7.124H52.39v3.913c0,1.534-.819,2.288-2.041,2.288A1.911,1.911,0,0,1,48.36-3.107V-7.124H47.19v4.173A2.779,2.779,0,0,0,50.115.1,2.619,2.619,0,0,0,52.39-1.053V0h1.183ZM59.046,0h1.183V-3.939c0-1.534.832-2.288,2.041-2.288s1.989.741,1.989,2.2V0h1.17V-4.2a2.748,2.748,0,0,0-2.847-3.055A2.681,2.681,0,0,0,60.229-6.1V-9.62H59.046ZM70.395-6.24a2.09,2.09,0,0,1,2.249,2.158h-4.5A2.206,2.206,0,0,1,70.395-6.24ZM73.723-2.2H72.449a1.958,1.958,0,0,1-2,1.313A2.239,2.239,0,0,1,68.133-3.12h5.694a6.412,6.412,0,0,0,.039-.715,3.266,3.266,0,0,0-3.419-3.406,3.39,3.39,0,0,0-3.523,3.666A3.432,3.432,0,0,0,70.447.117,3.2,3.2,0,0,0,73.723-2.2Zm1.7,2.2h1.183V-9.62H75.426Zm4.381-5.811V-7.124H78.624V3.38h1.183V-1.313A3.082,3.082,0,0,0,82.472.117a3.428,3.428,0,0,0,3.38-3.7,3.376,3.376,0,0,0-3.38-3.653A3.009,3.009,0,0,0,79.807-5.811Zm4.836,2.223A2.442,2.442,0,0,1,82.225-.923a2.445,2.445,0,0,1-2.418-2.652,2.448,2.448,0,0,1,2.418-2.639A2.408,2.408,0,0,1,84.643-3.588ZM101.166,0h1.17V-4.2A2.757,2.757,0,0,0,99.45-7.254a2.637,2.637,0,0,0-2.522,1.586,2.681,2.681,0,0,0-2.613-1.586A2.575,2.575,0,0,0,92.066-6.1V-7.124H90.883V0h1.183V-3.926c0-1.534.819-2.3,2.015-2.3,1.17,0,1.95.741,1.95,2.2V0H97.2V-3.926c0-1.534.819-2.3,2.015-2.3,1.17,0,1.95.741,1.95,2.2ZM107.3-6.24a2.09,2.09,0,0,1,2.249,2.158h-4.5A2.206,2.206,0,0,1,107.3-6.24ZM110.63-2.2h-1.274a1.958,1.958,0,0,1-2,1.313A2.239,2.239,0,0,1,105.04-3.12h5.694a6.412,6.412,0,0,0,.039-.715,3.266,3.266,0,0,0-3.419-3.406,3.39,3.39,0,0,0-3.523,3.666A3.432,3.432,0,0,0,107.354.117,3.2,3.2,0,0,0,110.63-2.2ZM116.922,0H118.9l1.313-5.031L121.524,0h1.963l2.106-7.2h-1.742l-1.274,5.473L121.225-7.2H119.3l-1.378,5.486L116.649-7.2H114.8Zm9.659,0h1.82V-7.2h-1.82Zm.923-8.06a1.075,1.075,0,0,0,1.118-1.066,1.075,1.075,0,0,0-1.118-1.066,1.067,1.067,0,0,0-1.118,1.066A1.067,1.067,0,0,0,127.5-8.06Zm2.977,5.824c0,1.651.923,2.236,2.3,2.236h1.144V-1.534h-.845c-.572,0-.767-.208-.767-.689V-5.707h1.612V-7.2h-1.612V-8.983h-1.833V-7.2h-.858v1.495h.858ZM135.239,0h1.82V-3.978a1.564,1.564,0,0,1,1.625-1.781,1.558,1.558,0,0,1,1.6,1.781V0h1.82V-4.225a2.749,2.749,0,0,0-2.808-3.081,2.767,2.767,0,0,0-2.236,1V-9.62h-1.82Zm13.507-3.588c0-1.391.65-1.807,1.729-1.807h.481V-7.306a2.5,2.5,0,0,0-2.21,1.222V-7.2h-1.82V0h1.82Zm6.526-2.236a1.6,1.6,0,0,1,1.716,1.547h-3.419A1.672,1.672,0,0,1,155.272-5.824Zm3.419,3.562h-1.963a1.484,1.484,0,0,1-1.443.871,1.685,1.685,0,0,1-1.729-1.664h5.265a4.254,4.254,0,0,0,.052-.7,3.381,3.381,0,0,0-3.549-3.562A3.46,3.46,0,0,0,151.71-3.6,3.488,3.488,0,0,0,155.324.117,3.347,3.347,0,0,0,158.691-2.262Zm1.04-1.352A3.445,3.445,0,0,0,163.046.1,2.953,2.953,0,0,0,165.4-.988v4.42h1.833V-7.2H165.4v.936a2.9,2.9,0,0,0-2.314-1.04A3.428,3.428,0,0,0,159.731-3.614ZM165.4-3.6a1.953,1.953,0,0,1-1.911,2.119,1.963,1.963,0,0,1-1.9-2.132,1.939,1.939,0,0,1,1.9-2.106A1.953,1.953,0,0,1,165.4-3.6Zm10.413-3.6h-1.833v3.965c0,1.157-.624,1.781-1.612,1.781a1.558,1.558,0,0,1-1.6-1.781V-7.2h-1.82v4.225A2.775,2.775,0,0,0,171.834.091a2.656,2.656,0,0,0,2.145-1V0h1.833ZM177.606,0h1.82V-7.2h-1.82Zm.923-8.06a1.075,1.075,0,0,0,1.118-1.066,1.075,1.075,0,0,0-1.118-1.066,1.067,1.067,0,0,0-1.118,1.066A1.067,1.067,0,0,0,178.529-8.06Zm8.281,6.006c-.052-2.639-4.043-1.82-4.043-3.133,0-.416.351-.689,1.027-.689A1.073,1.073,0,0,1,185-4.94h1.742a2.58,2.58,0,0,0-2.9-2.379c-1.781,0-2.847.962-2.847,2.158,0,2.639,4.069,1.82,4.069,3.107,0,.416-.39.741-1.1.741a1.2,1.2,0,0,1-1.3-.962H180.83c.078,1.339,1.339,2.392,3.146,2.392C185.731.117,186.81-.819,186.81-2.054ZM188.305,0h1.82V-7.2h-1.82Zm.923-8.06a1.075,1.075,0,0,0,1.118-1.066,1.075,1.075,0,0,0-1.118-1.066,1.067,1.067,0,0,0-1.118,1.066A1.067,1.067,0,0,0,189.228-8.06Zm2.977,5.824c0,1.651.923,2.236,2.3,2.236h1.144V-1.534h-.845c-.572,0-.767-.208-.767-.689V-5.707h1.612V-7.2h-1.612V-8.983h-1.833V-7.2h-.858v1.495h.858ZM196.963,0h1.82V-7.2h-1.82Zm.923-8.06A1.075,1.075,0,0,0,199-9.126a1.075,1.075,0,0,0-1.118-1.066,1.067,1.067,0,0,0-1.118,1.066A1.067,1.067,0,0,0,197.886-8.06ZM207.532-3.6a3.559,3.559,0,0,0-3.705-3.718A3.559,3.559,0,0,0,200.122-3.6,3.525,3.525,0,0,0,203.775.117,3.6,3.6,0,0,0,207.532-3.6Zm-5.564,0A1.875,1.875,0,0,1,203.8-5.733,1.892,1.892,0,0,1,205.66-3.6a1.917,1.917,0,0,1-1.885,2.132C202.8-1.469,201.968-2.171,201.968-3.6ZM213.915,0h1.82V-4.225a2.77,2.77,0,0,0-2.873-3.081,2.69,2.69,0,0,0-2.171,1v-.9h-1.82V0h1.82V-3.978a1.564,1.564,0,0,1,1.625-1.781,1.558,1.558,0,0,1,1.6,1.781Zm8.307-.975a1.064,1.064,0,0,0-1.1-1.066,1.071,1.071,0,0,0-1.131,1.066A1.071,1.071,0,0,0,221.117.091,1.064,1.064,0,0,0,222.222-.975Zm2.86,0a1.064,1.064,0,0,0-1.1-1.066,1.071,1.071,0,0,0-1.131,1.066A1.071,1.071,0,0,0,223.977.091,1.064,1.064,0,0,0,225.082-.975Zm-5.707,0a1.064,1.064,0,0,0-1.1-1.066,1.071,1.071,0,0,0-1.131,1.066A1.071,1.071,0,0,0,218.27.091,1.064,1.064,0,0,0,219.375-.975Z" transform="translate(15.191 127.118)" fill="#0f72ee"/><path d="M.559-4.537A4.445,4.445,0,0,0,5.083.078a4.261,4.261,0,0,0,4.2-2.717H7.865A2.86,2.86,0,0,1,5.083-.949,3.286,3.286,0,0,1,1.768-4.537a3.291,3.291,0,0,1,3.315-3.6,2.851,2.851,0,0,1,2.782,1.7H9.282a4.265,4.265,0,0,0-4.2-2.743A4.467,4.467,0,0,0,.559-4.537ZM10.6-3.588a3.426,3.426,0,0,0,3.367,3.7,2.975,2.975,0,0,0,2.665-1.443V0h1.2V-7.124h-1.2v1.3a2.956,2.956,0,0,0-2.652-1.417A3.376,3.376,0,0,0,10.6-3.588Zm6.032.013A2.438,2.438,0,0,1,14.209-.923a2.44,2.44,0,0,1-2.4-2.665,2.4,2.4,0,0,1,2.4-2.626A2.441,2.441,0,0,1,16.627-3.575ZM25.038,0h1.17V-4.2A2.764,2.764,0,0,0,23.3-7.254,2.632,2.632,0,0,0,21.008-6.11V-7.124H19.825V0h1.183V-3.939c0-1.534.832-2.288,2.041-2.288s1.989.741,1.989,2.2ZM34.32-1.352,32.084-7.124H30.771L33.644-.078l-1.4,3.432h1.222l4.29-10.478H36.53ZM45.695-3.575a3.477,3.477,0,0,0-3.6-3.666,3.484,3.484,0,0,0-3.6,3.666A3.458,3.458,0,0,0,42.042.117,3.532,3.532,0,0,0,45.695-3.575Zm-5.993,0a2.362,2.362,0,0,1,2.379-2.639,2.393,2.393,0,0,1,2.405,2.639A2.418,2.418,0,0,1,42.042-.923,2.346,2.346,0,0,1,39.7-3.575ZM53.573-7.124H52.39v3.913c0,1.534-.819,2.288-2.041,2.288A1.911,1.911,0,0,1,48.36-3.107V-7.124H47.19v4.173A2.779,2.779,0,0,0,50.115.1,2.619,2.619,0,0,0,52.39-1.053V0h1.183ZM59.046,0h1.183V-3.939c0-1.534.832-2.288,2.041-2.288s1.989.741,1.989,2.2V0h1.17V-4.2a2.748,2.748,0,0,0-2.847-3.055A2.681,2.681,0,0,0,60.229-6.1V-9.62H59.046ZM70.395-6.24a2.09,2.09,0,0,1,2.249,2.158h-4.5A2.206,2.206,0,0,1,70.395-6.24ZM73.723-2.2H72.449a1.958,1.958,0,0,1-2,1.313A2.239,2.239,0,0,1,68.133-3.12h5.694a6.412,6.412,0,0,0,.039-.715,3.266,3.266,0,0,0-3.419-3.406,3.39,3.39,0,0,0-3.523,3.666A3.432,3.432,0,0,0,70.447.117,3.2,3.2,0,0,0,73.723-2.2Zm1.7,2.2h1.183V-9.62H75.426Zm4.381-5.811V-7.124H78.624V3.38h1.183V-1.313A3.082,3.082,0,0,0,82.472.117a3.428,3.428,0,0,0,3.38-3.7,3.376,3.376,0,0,0-3.38-3.653A3.009,3.009,0,0,0,79.807-5.811Zm4.836,2.223A2.442,2.442,0,0,1,82.225-.923a2.445,2.445,0,0,1-2.418-2.652,2.448,2.448,0,0,1,2.418-2.639A2.408,2.408,0,0,1,84.643-3.588ZM101.166,0h1.17V-4.2A2.757,2.757,0,0,0,99.45-7.254a2.637,2.637,0,0,0-2.522,1.586,2.681,2.681,0,0,0-2.613-1.586A2.575,2.575,0,0,0,92.066-6.1V-7.124H90.883V0h1.183V-3.926c0-1.534.819-2.3,2.015-2.3,1.17,0,1.95.741,1.95,2.2V0H97.2V-3.926c0-1.534.819-2.3,2.015-2.3,1.17,0,1.95.741,1.95,2.2ZM107.3-6.24a2.09,2.09,0,0,1,2.249,2.158h-4.5A2.206,2.206,0,0,1,107.3-6.24ZM110.63-2.2h-1.274a1.958,1.958,0,0,1-2,1.313A2.239,2.239,0,0,1,105.04-3.12h5.694a6.412,6.412,0,0,0,.039-.715,3.266,3.266,0,0,0-3.419-3.406,3.39,3.39,0,0,0-3.523,3.666A3.432,3.432,0,0,0,107.354.117,3.2,3.2,0,0,0,110.63-2.2ZM116.922,0H118.9l1.313-5.031L121.524,0h1.963l2.106-7.2h-1.742l-1.274,5.473L121.225-7.2H119.3l-1.378,5.486L116.649-7.2H114.8Zm9.659,0h1.82V-7.2h-1.82Zm.923-8.06a1.075,1.075,0,0,0,1.118-1.066,1.075,1.075,0,0,0-1.118-1.066,1.067,1.067,0,0,0-1.118,1.066A1.067,1.067,0,0,0,127.5-8.06Zm2.977,5.824c0,1.651.923,2.236,2.3,2.236h1.144V-1.534h-.845c-.572,0-.767-.208-.767-.689V-5.707h1.612V-7.2h-1.612V-8.983h-1.833V-7.2h-.858v1.495h.858ZM135.239,0h1.82V-3.978a1.564,1.564,0,0,1,1.625-1.781,1.558,1.558,0,0,1,1.6,1.781V0h1.82V-4.225a2.749,2.749,0,0,0-2.808-3.081,2.767,2.767,0,0,0-2.236,1V-9.62h-1.82Zm13.507-4.953V-7.592h1.443c1.027,0,1.482.494,1.482,1.326,0,.806-.455,1.313-1.482,1.313Zm4.8-1.313c0-1.573-1.092-2.808-3.276-2.808h-3.341V0h1.82V-3.484h1.521C152.607-3.484,153.543-4.888,153.543-6.266Zm.819,2.639c0,2.249,1.456,3.744,3.276,3.744a2.84,2.84,0,0,0,2.392-1.17V0h1.833V-7.2H160.03v1.027a2.848,2.848,0,0,0-2.379-1.144A3.373,3.373,0,0,0,154.362-3.627Zm5.668.026a1.939,1.939,0,0,1-1.911,2.119,1.968,1.968,0,0,1-1.9-2.145,1.921,1.921,0,0,1,1.9-2.093A1.939,1.939,0,0,1,160.03-3.6Zm6.682,1.43L164.853-7.2h-2.041L165.7-.182l-1.56,3.588h1.937L170.534-7.2H168.6Zm6.617-1.417c0-1.391.65-1.807,1.729-1.807h.481V-7.306a2.5,2.5,0,0,0-2.21,1.222V-7.2h-1.82V0h1.82ZM183.716-3.6a3.559,3.559,0,0,0-3.705-3.718A3.559,3.559,0,0,0,176.306-3.6,3.525,3.525,0,0,0,179.959.117,3.6,3.6,0,0,0,183.716-3.6Zm-5.564,0a1.875,1.875,0,0,1,1.833-2.132A1.892,1.892,0,0,1,181.844-3.6a1.917,1.917,0,0,1-1.885,2.132C178.984-1.469,178.152-2.171,178.152-3.6Zm6.9,3.6h1.82V-9.62h-1.82Zm3.614,0h1.82V-9.62h-1.82Zm8.372-.975a1.064,1.064,0,0,0-1.1-1.066,1.071,1.071,0,0,0-1.131,1.066A1.071,1.071,0,0,0,195.936.091,1.064,1.064,0,0,0,197.041-.975Zm2.86,0a1.064,1.064,0,0,0-1.1-1.066,1.071,1.071,0,0,0-1.131,1.066A1.071,1.071,0,0,0,198.8.091,1.064,1.064,0,0,0,199.9-.975Zm-5.707,0a1.064,1.064,0,0,0-1.1-1.066,1.071,1.071,0,0,0-1.131,1.066A1.071,1.071,0,0,0,193.089.091,1.064,1.064,0,0,0,194.194-.975Z" transform="translate(15.191 84.118)" fill="#0f72ee"/><path d="M.559-4.537A4.445,4.445,0,0,0,5.083.078a4.261,4.261,0,0,0,4.2-2.717H7.865A2.86,2.86,0,0,1,5.083-.949,3.286,3.286,0,0,1,1.768-4.537a3.291,3.291,0,0,1,3.315-3.6,2.851,2.851,0,0,1,2.782,1.7H9.282a4.265,4.265,0,0,0-4.2-2.743A4.467,4.467,0,0,0,.559-4.537ZM10.6-3.588a3.426,3.426,0,0,0,3.367,3.7,2.975,2.975,0,0,0,2.665-1.443V0h1.2V-7.124h-1.2v1.3a2.956,2.956,0,0,0-2.652-1.417A3.376,3.376,0,0,0,10.6-3.588Zm6.032.013A2.438,2.438,0,0,1,14.209-.923a2.44,2.44,0,0,1-2.4-2.665,2.4,2.4,0,0,1,2.4-2.626A2.441,2.441,0,0,1,16.627-3.575ZM25.038,0h1.17V-4.2A2.764,2.764,0,0,0,23.3-7.254,2.632,2.632,0,0,0,21.008-6.11V-7.124H19.825V0h1.183V-3.939c0-1.534.832-2.288,2.041-2.288s1.989.741,1.989,2.2ZM34.32-1.352,32.084-7.124H30.771L33.644-.078l-1.4,3.432h1.222l4.29-10.478H36.53ZM45.695-3.575a3.477,3.477,0,0,0-3.6-3.666,3.484,3.484,0,0,0-3.6,3.666A3.458,3.458,0,0,0,42.042.117,3.532,3.532,0,0,0,45.695-3.575Zm-5.993,0a2.362,2.362,0,0,1,2.379-2.639,2.393,2.393,0,0,1,2.405,2.639A2.418,2.418,0,0,1,42.042-.923,2.346,2.346,0,0,1,39.7-3.575ZM53.573-7.124H52.39v3.913c0,1.534-.819,2.288-2.041,2.288A1.911,1.911,0,0,1,48.36-3.107V-7.124H47.19v4.173A2.779,2.779,0,0,0,50.115.1,2.619,2.619,0,0,0,52.39-1.053V0h1.183ZM59.046,0h1.183V-3.939c0-1.534.832-2.288,2.041-2.288s1.989.741,1.989,2.2V0h1.17V-4.2a2.748,2.748,0,0,0-2.847-3.055A2.681,2.681,0,0,0,60.229-6.1V-9.62H59.046ZM70.395-6.24a2.09,2.09,0,0,1,2.249,2.158h-4.5A2.206,2.206,0,0,1,70.395-6.24ZM73.723-2.2H72.449a1.958,1.958,0,0,1-2,1.313A2.239,2.239,0,0,1,68.133-3.12h5.694a6.412,6.412,0,0,0,.039-.715,3.266,3.266,0,0,0-3.419-3.406,3.39,3.39,0,0,0-3.523,3.666A3.432,3.432,0,0,0,70.447.117,3.2,3.2,0,0,0,73.723-2.2Zm1.7,2.2h1.183V-9.62H75.426Zm4.381-5.811V-7.124H78.624V3.38h1.183V-1.313A3.082,3.082,0,0,0,82.472.117a3.428,3.428,0,0,0,3.38-3.7,3.376,3.376,0,0,0-3.38-3.653A3.009,3.009,0,0,0,79.807-5.811Zm4.836,2.223A2.442,2.442,0,0,1,82.225-.923a2.445,2.445,0,0,1-2.418-2.652,2.448,2.448,0,0,1,2.418-2.639A2.408,2.408,0,0,1,84.643-3.588ZM101.166,0h1.17V-4.2A2.757,2.757,0,0,0,99.45-7.254a2.637,2.637,0,0,0-2.522,1.586,2.681,2.681,0,0,0-2.613-1.586A2.575,2.575,0,0,0,92.066-6.1V-7.124H90.883V0h1.183V-3.926c0-1.534.819-2.3,2.015-2.3,1.17,0,1.95.741,1.95,2.2V0H97.2V-3.926c0-1.534.819-2.3,2.015-2.3,1.17,0,1.95.741,1.95,2.2ZM107.3-6.24a2.09,2.09,0,0,1,2.249,2.158h-4.5A2.206,2.206,0,0,1,107.3-6.24ZM110.63-2.2h-1.274a1.958,1.958,0,0,1-2,1.313A2.239,2.239,0,0,1,105.04-3.12h5.694a6.412,6.412,0,0,0,.039-.715,3.266,3.266,0,0,0-3.419-3.406,3.39,3.39,0,0,0-3.523,3.666A3.432,3.432,0,0,0,107.354.117,3.2,3.2,0,0,0,110.63-2.2ZM117.013,0h1.976L120.3-5.031,121.615,0h1.963l2.106-7.2h-1.742l-1.274,5.473L121.316-7.2h-1.924l-1.378,5.486L116.74-7.2h-1.846Zm9.659,0h1.82V-7.2h-1.82Zm.923-8.06a1.075,1.075,0,0,0,1.118-1.066,1.075,1.075,0,0,0-1.118-1.066,1.067,1.067,0,0,0-1.118,1.066A1.067,1.067,0,0,0,127.6-8.06Zm2.977,5.824c0,1.651.923,2.236,2.3,2.236h1.144V-1.534h-.845c-.572,0-.767-.208-.767-.689V-5.707h1.612V-7.2h-1.612V-8.983h-1.833V-7.2h-.858v1.495h.858ZM135.33,0h1.82V-3.978a1.564,1.564,0,0,1,1.625-1.781,1.558,1.558,0,0,1,1.6,1.781V0h1.82V-4.225a2.749,2.749,0,0,0-2.808-3.081,2.767,2.767,0,0,0-2.236,1V-9.62h-1.82Zm13.507-3.588c0-1.391.65-1.807,1.729-1.807h.481V-7.306a2.5,2.5,0,0,0-2.21,1.222V-7.2h-1.82V0h1.82Zm2.964-.039c0,2.249,1.456,3.744,3.276,3.744a2.84,2.84,0,0,0,2.392-1.17V0H159.3V-7.2h-1.833v1.027a2.848,2.848,0,0,0-2.379-1.144A3.373,3.373,0,0,0,151.8-3.627Zm5.668.026a1.939,1.939,0,0,1-1.911,2.119,1.968,1.968,0,0,1-1.9-2.145,1.921,1.921,0,0,1,1.9-2.093A1.939,1.939,0,0,1,157.469-3.6ZM161.083,0h1.82V-7.2h-1.82Zm.923-8.06a1.075,1.075,0,0,0,1.118-1.066,1.075,1.075,0,0,0-1.118-1.066,1.067,1.067,0,0,0-1.118,1.066A1.067,1.067,0,0,0,162.006-8.06Zm8.281,6.006c-.052-2.639-4.043-1.82-4.043-3.133,0-.416.351-.689,1.027-.689a1.073,1.073,0,0,1,1.209.936h1.742a2.58,2.58,0,0,0-2.9-2.379c-1.781,0-2.847.962-2.847,2.158,0,2.639,4.069,1.82,4.069,3.107,0,.416-.39.741-1.1.741a1.2,1.2,0,0,1-1.3-.962h-1.833c.078,1.339,1.339,2.392,3.146,2.392C169.208.117,170.287-.819,170.287-2.054ZM171.782,0h1.82V-7.2h-1.82Zm.923-8.06a1.075,1.075,0,0,0,1.118-1.066,1.075,1.075,0,0,0-1.118-1.066,1.067,1.067,0,0,0-1.118,1.066A1.067,1.067,0,0,0,172.705-8.06ZM180.44,0h1.82V-4.225a2.77,2.77,0,0,0-2.873-3.081,2.69,2.69,0,0,0-2.171,1v-.9H175.4V0h1.82V-3.978a1.564,1.564,0,0,1,1.625-1.781,1.558,1.558,0,0,1,1.6,1.781Zm3.081-3.627c0,2.249,1.456,3.744,3.289,3.744a2.841,2.841,0,0,0,2.379-1.183V.052a1.861,1.861,0,0,1-3.549.832h-1.807c.182,1.651,1.6,2.665,3.627,2.665a3.292,3.292,0,0,0,3.562-3.5V-7.2h-1.833v1.027a2.818,2.818,0,0,0-2.379-1.144A3.373,3.373,0,0,0,183.521-3.627Zm5.668.026a1.939,1.939,0,0,1-1.911,2.119,1.968,1.968,0,0,1-1.9-2.145,1.921,1.921,0,0,1,1.9-2.093A1.939,1.939,0,0,1,189.189-3.6Zm6.24-.026c0,2.249,1.456,3.744,3.276,3.744a2.84,2.84,0,0,0,2.392-1.17V0h1.833V-7.2H201.1v1.027a2.848,2.848,0,0,0-2.379-1.144A3.373,3.373,0,0,0,195.429-3.627ZM201.1-3.6a1.939,1.939,0,0,1-1.911,2.119,1.968,1.968,0,0,1-1.9-2.145,1.921,1.921,0,0,1,1.9-2.093A1.939,1.939,0,0,1,201.1-3.6Zm6.994,1.365c0,1.651.923,2.236,2.3,2.236h1.144V-1.534h-.845c-.572,0-.767-.208-.767-.689V-5.707h1.612V-7.2h-1.612V-8.983h-1.833V-7.2h-.858v1.495h.858ZM212.849,0h1.82V-7.2h-1.82Zm.923-8.06a1.075,1.075,0,0,0,1.118-1.066,1.075,1.075,0,0,0-1.118-1.066,1.067,1.067,0,0,0-1.118,1.066A1.067,1.067,0,0,0,213.772-8.06ZM215.995-3.6A3.455,3.455,0,0,0,219.557.117a3.285,3.285,0,0,0,3.393-2.548h-1.963a1.373,1.373,0,0,1-1.443.988c-1.014,0-1.69-.754-1.69-2.158s.676-2.171,1.69-2.171a1.415,1.415,0,0,1,1.443,1h1.963a3.213,3.213,0,0,0-3.393-2.548A3.455,3.455,0,0,0,215.995-3.6ZM224.289,0h1.82V-3.068L228.553,0h2.366l-3.2-3.588L230.893-7.2h-2.366l-2.418,3.055V-9.62h-1.82Zm10.686-5.824a1.6,1.6,0,0,1,1.716,1.547h-3.419A1.672,1.672,0,0,1,234.975-5.824Zm3.419,3.562h-1.963a1.484,1.484,0,0,1-1.443.871,1.685,1.685,0,0,1-1.729-1.664h5.265a4.254,4.254,0,0,0,.052-.7,3.381,3.381,0,0,0-3.549-3.562A3.46,3.46,0,0,0,231.413-3.6,3.488,3.488,0,0,0,235.027.117,3.347,3.347,0,0,0,238.394-2.262Zm1.794.026c0,1.651.923,2.236,2.3,2.236h1.144V-1.534h-.845c-.572,0-.767-.208-.767-.689V-5.707h1.612V-7.2h-1.612V-8.983h-1.833V-7.2h-.858v1.495h.858Zm6.669,1.261a1.064,1.064,0,0,0-1.1-1.066,1.071,1.071,0,0,0-1.131,1.066A1.071,1.071,0,0,0,245.752.091,1.064,1.064,0,0,0,246.857-.975Zm3.38,0a1.064,1.064,0,0,0-1.1-1.066A1.071,1.071,0,0,0,248-.975,1.071,1.071,0,0,0,249.132.091,1.064,1.064,0,0,0,250.237-.975Z" transform="translate(15.191 41.118)" fill="#0f72ee"/><g transform="translate(38)"><circle cx="14.5" cy="14.5" r="14.5" transform="translate(217.191 155.118)" fill="#0f72ee"/><path d="M.473,14.594,6.488,12.84,12.5,14.594a.239.239,0,0,0,.11.018.335.335,0,0,0,.276-.125.321.321,0,0,0,.055-.376L6.819.215a.363.363,0,0,0-.662,0L.031,14.111a.353.353,0,0,0,.055.376A.4.4,0,0,0,.473,14.594ZM6.488,1.271l5.463,12.41-5.1-1.486V7.718a.368.368,0,0,0-.736,0v4.477l-5.1,1.486Z" transform="translate(240.337 163.901) rotate(90)" fill="#fff" stroke="#fff" stroke-width="0.25"/></g><line x2="301" transform="translate(0.191 58.118)" fill="none" stroke="#0f72ee" stroke-width="1" opacity="0.2"/><line x2="301" transform="translate(0.191 101.118)" fill="none" stroke="#0f72ee" stroke-width="1" opacity="0.2"/><line x2="301" transform="translate(0.191 144.118)" fill="none" stroke="#0f72ee" stroke-width="1" opacity="0.2"/><g transform="translate(0.191 147.118)"><path d="M23,16a7,7,0,1,0,7,7A7.021,7.021,0,0,0,23,16Zm0,13.176A6.176,6.176,0,1,1,29.176,23,6.195,6.195,0,0,1,23,29.176Z" fill="#0f72ee"/><path d="M40.578,60.112a2.808,2.808,0,0,1-3.945,0,.368.368,0,0,0-.521.521,3.5,3.5,0,0,0,4.987,0,.368.368,0,0,0-.521-.521Z" transform="translate(-15.605 -34.808)" fill="#0f72ee"/><circle cx="0.93" cy="0.93" r="0.93" transform="translate(19.977 20.395)" fill="#0f72ee"/><circle cx="0.93" cy="0.93" r="0.93" transform="translate(24.163 20.395)" fill="#0f72ee"/></g><path d="M0,0V15" transform="translate(160.691 162.618)" fill="none" stroke="#0f72ee" stroke-linecap="round" stroke-width="1"/></g></svg>