<svg xmlns="http://www.w3.org/2000/svg" xmlns:xlink="http://www.w3.org/1999/xlink" width="391" height="157" viewBox="0 0 391 157"><defs><filter id="a" x="0" y="0" width="391" height="157" filterUnits="userSpaceOnUse"><feOffset dy="16" input="SourceAlpha"/><feGaussianBlur stdDeviation="12" result="b"/><feFlood flood-opacity="0.161"/><feComposite operator="in" in2="b"/><feComposite in="SourceGraphic"/></filter></defs><g transform="translate(35.54 19.884)"><g transform="matrix(1, 0, 0, 1, -35.54, -19.88)" filter="url(#a)"><rect width="319" height="85" rx="20" transform="translate(36 20)" fill="#fff"/></g><g transform="translate(23.509 18.398)"><circle cx="26.5" cy="26.5" r="26.5" transform="translate(-0.048 -0.282)" fill="#0f72ee"/><g transform="translate(11.562 15.404)"><path d="M403.27,352.25a5.54,5.54,0,1,1,5.515-5.542v1.173h-8.468a3.168,3.168,0,0,0,4.971,1.285l.215-.179,1.8,1.52-.274.259A5.481,5.481,0,0,1,403.27,352.25Zm2.952-6.719a3.169,3.169,0,0,0-5.905,0Z" transform="translate(-394.412 -337.806)" fill="#fff"/><path d="M703.687,352.106a5.548,5.548,0,1,1,5.515-5.543v1.176h-8.466a3.168,3.168,0,0,0,4.971,1.285l.215-.179,1.8,1.519-.277.26A5.478,5.478,0,0,1,703.687,352.106Zm2.952-6.719a3.17,3.17,0,0,0-5.9,0Z" transform="translate(-683.038 -337.662)" fill="#fff"/><path d="M313.777,277.308a1.34,1.34,0,0,1-1.337-1.344V264.744a8.891,8.891,0,0,1,8.857-8.9H333.09a8.9,8.9,0,0,1,0,17.8H321.537a.664.664,0,0,0-.3.07l-6.86,3.444a1.321,1.321,0,0,1-.6.148Zm7.52-19.115a6.542,6.542,0,0,0-6.518,6.551v9.589l5.409-2.719a3.008,3.008,0,0,1,1.349-.319H333.09a6.551,6.551,0,0,0,0-13.1Z" transform="translate(-312.44 -255.842)" fill="#fff"/></g></g><g transform="translate(95.056 23.508)"><g transform="translate(0 0)"><path d="M.546-8.428h2.6V0h1.6V-8.428h2.59v-1.3H.546ZM8.946,0h1.6V-7.714h-1.6Zm.812-8.736a1.007,1.007,0,0,0,1.008-1.022A1.007,1.007,0,0,0,9.758-10.78,1.01,1.01,0,0,0,8.736-9.758,1.01,1.01,0,0,0,9.758-8.736ZM12.11-3.864A3.689,3.689,0,0,0,15.89.126a3.465,3.465,0,0,0,3.556-2.562H17.724A1.762,1.762,0,0,1,15.89-1.218c-1.288,0-2.142-.952-2.142-2.646S14.6-6.5,15.89-6.5a1.8,1.8,0,0,1,1.834,1.218h1.722A3.356,3.356,0,0,0,15.89-7.84,3.685,3.685,0,0,0,12.11-3.864ZM21.042,0h1.6V-3.318L25.494,0H27.65L24.094-3.85,27.65-7.714H25.438l-2.8,3.374v-6.02h-1.6Zm11-6.5A2,2,0,0,1,34.2-4.55h-4.27A2.1,2.1,0,0,1,32.046-6.5Zm3.612,4.2H33.936a1.868,1.868,0,0,1-1.82,1.078,2.122,2.122,0,0,1-2.2-2.044h5.894a4.923,4.923,0,0,0,.056-.784A3.6,3.6,0,0,0,32.116-7.84a3.694,3.694,0,0,0-3.85,3.976,3.743,3.743,0,0,0,3.85,3.99A3.525,3.525,0,0,0,35.658-2.3Zm2.03.154C37.688-.574,38.542,0,39.914,0h1.26V-1.33h-.98c-.672,0-.9-.238-.9-.812v-4.27h1.876v-1.3H39.3V-9.632h-1.61v1.918h-.91v1.3h.91ZM47.88-4.06c0-1.638.728-2.128,1.9-2.128h.406V-7.84a2.513,2.513,0,0,0-2.31,1.246v-1.12h-1.6V0h1.6Zm3.248.168A3.729,3.729,0,0,0,54.74.126a3.32,3.32,0,0,0,2.7-1.274V0h1.61V-7.714h-1.61v1.12A3.283,3.283,0,0,0,54.768-7.84,3.672,3.672,0,0,0,51.128-3.892Zm6.314.028A2.4,2.4,0,0,1,55.1-1.26a2.43,2.43,0,0,1-2.338-2.632A2.367,2.367,0,0,1,55.1-6.454,2.392,2.392,0,0,1,57.442-3.864ZM61.152,0h1.6V-7.714h-1.6Zm.812-8.736a1.007,1.007,0,0,0,1.008-1.022,1.007,1.007,0,0,0-1.008-1.022,1.01,1.01,0,0,0-1.022,1.022A1.01,1.01,0,0,0,61.964-8.736ZM70.6-2.156c-.084-2.786-4.438-1.918-4.438-3.472,0-.518.448-.868,1.3-.868a1.276,1.276,0,0,1,1.442,1.134h1.6C70.42-6.9,69.272-7.84,67.522-7.84c-1.82,0-2.968.994-2.968,2.226,0,2.828,4.48,1.96,4.48,3.472,0,.532-.49.924-1.414.924a1.407,1.407,0,0,1-1.54-1.148H64.428C64.5-.966,65.8.126,67.648.126,69.468.126,70.6-.854,70.6-2.156Zm4.97-4.34A2,2,0,0,1,77.728-4.55h-4.27A2.1,2.1,0,0,1,75.572-6.5Zm3.612,4.2H77.462a1.868,1.868,0,0,1-1.82,1.078,2.122,2.122,0,0,1-2.2-2.044h5.894a4.923,4.923,0,0,0,.056-.784A3.6,3.6,0,0,0,75.642-7.84a3.694,3.694,0,0,0-3.85,3.976,3.743,3.743,0,0,0,3.85,3.99A3.525,3.525,0,0,0,79.184-2.3Zm1.246-1.6A3.733,3.733,0,0,0,84.07.126a3.2,3.2,0,0,0,2.674-1.288V0h1.61V-10.36h-1.61v3.724a3.553,3.553,0,0,0-2.66-1.2A3.674,3.674,0,0,0,80.43-3.892Zm6.314.028a2.4,2.4,0,0,1-2.338,2.6,2.43,2.43,0,0,1-2.338-2.632,2.367,2.367,0,0,1,2.338-2.562A2.392,2.392,0,0,1,86.744-3.864Zm13.1,1.708c-.084-2.786-4.438-1.918-4.438-3.472,0-.518.448-.868,1.3-.868a1.276,1.276,0,0,1,1.442,1.134h1.6C99.666-6.9,98.518-7.84,96.768-7.84c-1.82,0-2.968.994-2.968,2.226,0,2.828,4.48,1.96,4.48,3.472,0,.532-.49.924-1.414.924a1.407,1.407,0,0,1-1.54-1.148H93.674c.07,1.4,1.372,2.492,3.22,2.492C98.714.126,99.848-.854,99.848-2.156Zm8.708-5.558h-1.6v4.3a1.87,1.87,0,0,1-1.946,2.142c-1.162,0-1.932-.728-1.932-2.142v-4.3H101.5v4.536a3.014,3.014,0,0,0,3.178,3.29A2.871,2.871,0,0,0,106.96-.924V0h1.6Zm1.568,3.85A3.689,3.689,0,0,0,113.9.126a3.465,3.465,0,0,0,3.556-2.562h-1.722A1.762,1.762,0,0,1,113.9-1.218c-1.288,0-2.142-.952-2.142-2.646S112.616-6.5,113.9-6.5a1.8,1.8,0,0,1,1.834,1.218h1.722A3.356,3.356,0,0,0,113.9-7.84,3.685,3.685,0,0,0,110.124-3.864Zm8.4,0A3.689,3.689,0,0,0,122.3.126a3.465,3.465,0,0,0,3.556-2.562h-1.722A1.762,1.762,0,0,1,122.3-1.218c-1.288,0-2.142-.952-2.142-2.646S121.016-6.5,122.3-6.5a1.8,1.8,0,0,1,1.834,1.218h1.722A3.356,3.356,0,0,0,122.3-7.84,3.685,3.685,0,0,0,118.524-3.864ZM130.7-6.5A2,2,0,0,1,132.86-4.55h-4.27A2.1,2.1,0,0,1,130.7-6.5Zm3.612,4.2h-1.722a1.867,1.867,0,0,1-1.82,1.078,2.122,2.122,0,0,1-2.2-2.044h5.894a4.924,4.924,0,0,0,.056-.784,3.6,3.6,0,0,0-3.752-3.794,3.694,3.694,0,0,0-3.85,3.976,3.743,3.743,0,0,0,3.85,3.99A3.525,3.525,0,0,0,134.316-2.3Zm7.532.14c-.084-2.786-4.438-1.918-4.438-3.472,0-.518.448-.868,1.3-.868a1.276,1.276,0,0,1,1.442,1.134h1.6c-.084-1.54-1.232-2.478-2.982-2.478-1.82,0-2.968.994-2.968,2.226,0,2.828,4.48,1.96,4.48,3.472,0,.532-.49.924-1.414.924a1.407,1.407,0,0,1-1.54-1.148h-1.652c.07,1.4,1.372,2.492,3.22,2.492C140.714.126,141.848-.854,141.848-2.156Zm7.476,0c-.084-2.786-4.438-1.918-4.438-3.472,0-.518.448-.868,1.3-.868a1.276,1.276,0,0,1,1.442,1.134h1.6c-.084-1.54-1.232-2.478-2.982-2.478-1.82,0-2.968.994-2.968,2.226,0,2.828,4.48,1.96,4.48,3.472,0,.532-.49.924-1.414.924a1.407,1.407,0,0,1-1.54-1.148H143.15c.07,1.4,1.372,2.492,3.22,2.492C148.19.126,149.324-.854,149.324-2.156ZM151.242,0h1.61V-6.412h1.428v-1.3h-1.428V-8.26c0-.882.336-1.218,1.316-1.218v-1.33c-2.016,0-2.926.77-2.926,2.548v.546h-.91v1.3h.91ZM162.68-7.714h-1.6v4.3a1.87,1.87,0,0,1-1.946,2.142c-1.162,0-1.932-.728-1.932-2.142v-4.3h-1.582v4.536A3.014,3.014,0,0,0,158.8.112a2.871,2.871,0,0,0,2.282-1.036V0h1.6ZM164.78,0h1.6V-10.36h-1.6Zm3.7,0h1.6V-10.36h-1.6Zm6.734-1.834-2.17-5.88h-1.778L174.3-.126l-1.568,3.752h1.652l4.732-11.34h-1.652Zm5.6-1.106h1.33l.182-6.79h-1.694Zm1.722,2.016a1.007,1.007,0,0,0-1.008-1.022A1.01,1.01,0,0,0,180.5-.924,1.01,1.01,0,0,0,181.524.1,1.007,1.007,0,0,0,182.532-.924Z" transform="translate(0.405 14.608)" fill="#0f72ee"/><path d="M.408-.064H4.256V-.672H1.5c1.032-.84,2.584-2.064,2.584-3.5A1.627,1.627,0,0,0,2.3-5.888,1.772,1.772,0,0,0,.432-4.016h.7A1.144,1.144,0,0,1,2.3-5.264a.977.977,0,0,1,1.064,1.12c0,1.184-1.44,2.336-2.96,3.56Zm5.52-.384a.485.485,0,0,0-.48-.5.488.488,0,0,0-.5.5.488.488,0,0,0,.5.5A.485.485,0,0,0,5.928-.448Zm0-3.424a.485.485,0,0,0-.48-.5.488.488,0,0,0-.5.5.488.488,0,0,0,.5.5A.485.485,0,0,0,5.928-3.872ZM6.712-.064H10.56V-.672H7.808c1.032-.84,2.584-2.064,2.584-3.5A1.627,1.627,0,0,0,8.6-5.888,1.772,1.772,0,0,0,6.736-4.016h.7A1.144,1.144,0,0,1,8.608-5.264a.977.977,0,0,1,1.064,1.12c0,1.184-1.44,2.336-2.96,3.56ZM14.184,0h.72V-1.288h.8V-1.92h-.8V-5.728h-.872L11.224-1.84v.552h2.96Zm-2.12-1.92,2.152-3.048V-1.92Zm7.352-1.008V-4.976h1.072c.832,0,1.184.384,1.184,1.032,0,.624-.352,1.016-1.184,1.016Zm3-1.016c0-.912-.616-1.632-1.928-1.632h-1.8V0h.728V-2.328h1.072C21.872-2.328,22.416-3.1,22.416-3.944ZM23.32,0h.728V-4.136L25.9,0h.512l1.84-4.128V0h.728V-5.536H28.2L26.152-.96,24.1-5.536H23.32Z" transform="translate(0.405 34.607)" fill="#0f72ee"/></g></g></g></svg>