<svg xmlns="http://www.w3.org/2000/svg" xmlns:xlink="http://www.w3.org/1999/xlink" width="508.999" height="150" viewBox="0 0 508.999 150"><defs><filter id="a" x="0" y="0" width="237" height="150" filterUnits="userSpaceOnUse"><feOffset dy="6" input="SourceAlpha"/><feGaussianBlur stdDeviation="18" result="b"/><feFlood flood-opacity="0.161"/><feComposite operator="in" in2="b"/><feComposite in="SourceGraphic"/></filter><filter id="c" x="135.999" y="0" width="271" height="150" filterUnits="userSpaceOnUse"><feOffset dy="6" input="SourceAlpha"/><feGaussianBlur stdDeviation="18" result="d"/><feFlood flood-opacity="0.161"/><feComposite operator="in" in2="d"/><feComposite in="SourceGraphic"/></filter><filter id="e" x="304.999" y="0" width="204" height="150" filterUnits="userSpaceOnUse"><feOffset dy="6" input="SourceAlpha"/><feGaussianBlur stdDeviation="18" result="f"/><feFlood flood-opacity="0.161"/><feComposite operator="in" in2="f"/><feComposite in="SourceGraphic"/></filter></defs><g transform="translate(-884 -977.702)"><g transform="translate(937.655 1025.996)"><g transform="matrix(1, 0, 0, 1, -53.65, -48.29)" filter="url(#a)"><path d="M16,0h97a16,16,0,0,1,16,16V26a16,16,0,0,1-16,16H0a0,0,0,0,1,0,0V16A16,16,0,0,1,16,0Z" transform="translate(54 48)" fill="#0f72ee"/></g><path d="M6.216-6.818c0,.966-.56,1.652-1.806,1.652H2.646V-8.428H4.41C5.656-8.428,6.216-7.8,6.216-6.818ZM1.05-9.73V0h1.6V-3.892H3.864L6.1,0h1.9L5.6-4.032A2.769,2.769,0,0,0,7.854-6.818C7.854-8.4,6.72-9.73,4.41-9.73ZM9.366-3.892A3.729,3.729,0,0,0,12.978.126a3.32,3.32,0,0,0,2.7-1.274V0h1.61V-7.714H15.68v1.12A3.283,3.283,0,0,0,13.006-7.84,3.672,3.672,0,0,0,9.366-3.892Zm6.314.028a2.4,2.4,0,0,1-2.338,2.6A2.43,2.43,0,0,1,11-3.892a2.367,2.367,0,0,1,2.338-2.562A2.392,2.392,0,0,1,15.68-3.864ZM19.39,0h1.6V-7.714h-1.6ZM20.2-8.736A1.007,1.007,0,0,0,21.21-9.758,1.007,1.007,0,0,0,20.2-10.78,1.01,1.01,0,0,0,19.18-9.758,1.01,1.01,0,0,0,20.2-8.736Zm8.638,6.58C28.756-4.942,24.4-4.074,24.4-5.628c0-.518.448-.868,1.3-.868a1.276,1.276,0,0,1,1.442,1.134h1.6C28.658-6.9,27.51-7.84,25.76-7.84c-1.82,0-2.968.994-2.968,2.226,0,2.828,4.48,1.96,4.48,3.472,0,.532-.49.924-1.414.924a1.407,1.407,0,0,1-1.54-1.148H22.666c.07,1.4,1.372,2.492,3.22,2.492C27.706.126,28.84-.854,28.84-2.156ZM33.81-6.5A2,2,0,0,1,35.966-4.55H31.7A2.1,2.1,0,0,1,33.81-6.5Zm3.612,4.2H35.7a1.868,1.868,0,0,1-1.82,1.078,2.122,2.122,0,0,1-2.2-2.044h5.894a4.923,4.923,0,0,0,.056-.784A3.6,3.6,0,0,0,33.88-7.84a3.694,3.694,0,0,0-3.85,3.976A3.743,3.743,0,0,0,33.88.126,3.525,3.525,0,0,0,37.422-2.3Zm4.914-6.132h2.6V0h1.6V-8.428h2.59v-1.3h-6.79ZM50.736,0h1.6V-7.714h-1.6Zm.812-8.736a1.007,1.007,0,0,0,1.008-1.022,1.007,1.007,0,0,0-1.008-1.022,1.01,1.01,0,0,0-1.022,1.022A1.01,1.01,0,0,0,51.548-8.736ZM53.9-3.864A3.689,3.689,0,0,0,57.68.126a3.465,3.465,0,0,0,3.556-2.562H59.514A1.762,1.762,0,0,1,57.68-1.218c-1.288,0-2.142-.952-2.142-2.646S56.392-6.5,57.68-6.5a1.8,1.8,0,0,1,1.834,1.218h1.722A3.356,3.356,0,0,0,57.68-7.84,3.685,3.685,0,0,0,53.9-3.864ZM62.832,0h1.6V-3.318L67.284,0H69.44L65.884-3.85,69.44-7.714H67.228l-2.8,3.374v-6.02h-1.6Zm11-6.5A2,2,0,0,1,75.992-4.55h-4.27A2.1,2.1,0,0,1,73.836-6.5Zm3.612,4.2H75.726a1.868,1.868,0,0,1-1.82,1.078,2.122,2.122,0,0,1-2.2-2.044H77.6a4.923,4.923,0,0,0,.056-.784A3.6,3.6,0,0,0,73.906-7.84a3.694,3.694,0,0,0-3.85,3.976,3.743,3.743,0,0,0,3.85,3.99A3.525,3.525,0,0,0,77.448-2.3Zm2.03.154C79.478-.574,80.332,0,81.7,0h1.26V-1.33h-.98c-.672,0-.9-.238-.9-.812v-4.27h1.876v-1.3H81.088V-9.632h-1.61v1.918h-.91v1.3h.91Z" transform="translate(20.345 25.707)" fill="#fff"/></g><g transform="translate(1073.595 1025.996)"><g transform="matrix(1, 0, 0, 1, -189.59, -48.29)" filter="url(#c)"><path d="M16,0H147a16,16,0,0,1,16,16V26a16,16,0,0,1-16,16H0a0,0,0,0,1,0,0V16A16,16,0,0,1,16,0Z" transform="translate(190 48)" fill="#0f72ee"/></g><path d="M6.216-6.818c0,.966-.56,1.652-1.806,1.652H2.646V-8.428H4.41C5.656-8.428,6.216-7.8,6.216-6.818ZM1.05-9.73V0h1.6V-3.892H3.864L6.1,0h1.9L5.6-4.032A2.769,2.769,0,0,0,7.854-6.818C7.854-8.4,6.72-9.73,4.41-9.73ZM9.366-3.892A3.729,3.729,0,0,0,12.978.126a3.32,3.32,0,0,0,2.7-1.274V0h1.61V-7.714H15.68v1.12A3.283,3.283,0,0,0,13.006-7.84,3.672,3.672,0,0,0,9.366-3.892Zm6.314.028a2.4,2.4,0,0,1-2.338,2.6A2.43,2.43,0,0,1,11-3.892a2.367,2.367,0,0,1,2.338-2.562A2.392,2.392,0,0,1,15.68-3.864ZM19.39,0h1.6V-7.714h-1.6ZM20.2-8.736A1.007,1.007,0,0,0,21.21-9.758,1.007,1.007,0,0,0,20.2-10.78,1.01,1.01,0,0,0,19.18-9.758,1.01,1.01,0,0,0,20.2-8.736Zm8.638,6.58C28.756-4.942,24.4-4.074,24.4-5.628c0-.518.448-.868,1.3-.868a1.276,1.276,0,0,1,1.442,1.134h1.6C28.658-6.9,27.51-7.84,25.76-7.84c-1.82,0-2.968.994-2.968,2.226,0,2.828,4.48,1.96,4.48,3.472,0,.532-.49.924-1.414.924a1.407,1.407,0,0,1-1.54-1.148H22.666c.07,1.4,1.372,2.492,3.22,2.492C27.706.126,28.84-.854,28.84-2.156ZM33.81-6.5A2,2,0,0,1,35.966-4.55H31.7A2.1,2.1,0,0,1,33.81-6.5Zm3.612,4.2H35.7a1.868,1.868,0,0,1-1.82,1.078,2.122,2.122,0,0,1-2.2-2.044h5.894a4.923,4.923,0,0,0,.056-.784A3.6,3.6,0,0,0,33.88-7.84a3.694,3.694,0,0,0-3.85,3.976A3.743,3.743,0,0,0,33.88.126,3.525,3.525,0,0,0,37.422-2.3ZM48.006-6.818c0,.966-.56,1.652-1.806,1.652H44.436V-8.428H46.2C47.446-8.428,48.006-7.8,48.006-6.818ZM42.84-9.73V0h1.6V-3.892h1.218L47.894,0h1.9L47.39-4.032a2.769,2.769,0,0,0,2.254-2.786C49.644-8.4,48.51-9.73,46.2-9.73ZM54.936-6.5A2,2,0,0,1,57.092-4.55h-4.27A2.1,2.1,0,0,1,54.936-6.5Zm3.612,4.2H56.826a1.868,1.868,0,0,1-1.82,1.078,2.122,2.122,0,0,1-2.2-2.044H58.7a4.923,4.923,0,0,0,.056-.784A3.6,3.6,0,0,0,55.006-7.84a3.694,3.694,0,0,0-3.85,3.976,3.743,3.743,0,0,0,3.85,3.99A3.525,3.525,0,0,0,58.548-2.3Zm1.246-1.6a3.727,3.727,0,0,0,3.6,4.018A3.413,3.413,0,0,0,66.108-1.12V3.668h1.61V-7.714h-1.61v1.12a3.254,3.254,0,0,0-2.66-1.246A3.674,3.674,0,0,0,59.794-3.892Zm6.314.028a2.4,2.4,0,0,1-2.338,2.6,2.43,2.43,0,0,1-2.338-2.632A2.367,2.367,0,0,1,63.77-6.454,2.392,2.392,0,0,1,66.108-3.864Zm10.7-3.85h-1.6v4.3a1.87,1.87,0,0,1-1.946,2.142C72.1-1.274,71.33-2,71.33-3.416v-4.3H69.748v4.536A3.014,3.014,0,0,0,72.926.112,2.871,2.871,0,0,0,75.208-.924V0h1.6ZM78.9,0h1.6V-7.714H78.9Zm.812-8.736a1.007,1.007,0,0,0,1.008-1.022,1.007,1.007,0,0,0-1.008-1.022,1.01,1.01,0,0,0-1.022,1.022A1.01,1.01,0,0,0,79.716-8.736Zm8.638,6.58c-.084-2.786-4.438-1.918-4.438-3.472,0-.518.448-.868,1.3-.868A1.276,1.276,0,0,1,86.66-5.362h1.6C88.172-6.9,87.024-7.84,85.274-7.84c-1.82,0-2.968.994-2.968,2.226,0,2.828,4.48,1.96,4.48,3.472,0,.532-.49.924-1.414.924a1.407,1.407,0,0,1-1.54-1.148H82.18C82.25-.966,83.552.126,85.4.126,87.22.126,88.354-.854,88.354-2.156ZM90.076,0h1.6V-7.714h-1.6Zm.812-8.736A1.007,1.007,0,0,0,91.9-9.758a1.007,1.007,0,0,0-1.008-1.022,1.01,1.01,0,0,0-1.022,1.022A1.01,1.01,0,0,0,90.888-8.736Zm3.136,6.594C94.024-.574,94.878,0,96.25,0h1.26V-1.33h-.98c-.672,0-.9-.238-.9-.812v-4.27H97.51v-1.3H95.634V-9.632h-1.61v1.918h-.91v1.3h.91ZM98.98,0h1.6V-7.714h-1.6Zm.812-8.736A1.007,1.007,0,0,0,100.8-9.758a1.007,1.007,0,0,0-1.008-1.022A1.01,1.01,0,0,0,98.77-9.758,1.01,1.01,0,0,0,99.792-8.736Zm10.234,4.872a3.8,3.8,0,0,0-3.934-3.976,3.8,3.8,0,0,0-3.934,3.976,3.761,3.761,0,0,0,3.864,3.99A3.864,3.864,0,0,0,110.026-3.864Zm-6.244,0a2.3,2.3,0,0,1,2.282-2.59,2.334,2.334,0,0,1,2.324,2.59,2.376,2.376,0,0,1-2.366,2.6C104.818-1.26,103.782-2.114,103.782-3.864ZM117.082,0h1.582V-4.55A3,3,0,0,0,115.5-7.84a2.968,2.968,0,0,0-2.3,1.008v-.882h-1.6V0h1.6V-4.312a1.87,1.87,0,0,1,1.946-2.142c1.162,0,1.932.728,1.932,2.142Z" transform="translate(22.405 24.707)" fill="#fff"/></g><g transform="translate(1243.265 1025.996)"><g transform="matrix(1, 0, 0, 1, -359.26, -48.29)" filter="url(#e)"><path d="M16,0H80A16,16,0,0,1,96,16V26A16,16,0,0,1,80,42H0a0,0,0,0,1,0,0V16A16,16,0,0,1,16,0Z" transform="translate(359 48)" fill="#0f72ee"/></g><path d="M1.05,0h1.6V-6.664L5.628,0H6.734L9.7-6.664V0h1.6V-9.73H9.59L6.188-2.1,2.772-9.73H1.05Zm15.6-6.5A2,2,0,0,1,18.8-4.55h-4.27A2.1,2.1,0,0,1,16.646-6.5Zm3.612,4.2H18.536a1.868,1.868,0,0,1-1.82,1.078,2.122,2.122,0,0,1-2.2-2.044h5.894a4.923,4.923,0,0,0,.056-.784A3.6,3.6,0,0,0,16.716-7.84a3.694,3.694,0,0,0-3.85,3.976,3.743,3.743,0,0,0,3.85,3.99A3.525,3.525,0,0,0,20.258-2.3Zm5.026-4.2A2,2,0,0,1,27.44-4.55H23.17A2.1,2.1,0,0,1,25.284-6.5ZM28.9-2.3H27.174a1.868,1.868,0,0,1-1.82,1.078,2.122,2.122,0,0,1-2.2-2.044H29.05a4.923,4.923,0,0,0,.056-.784A3.6,3.6,0,0,0,25.354-7.84,3.694,3.694,0,0,0,21.5-3.864a3.743,3.743,0,0,0,3.85,3.99A3.525,3.525,0,0,0,28.9-2.3Zm2.03.154C30.926-.574,31.78,0,33.152,0h1.26V-1.33h-.98c-.672,0-.9-.238-.9-.812v-4.27h1.876v-1.3H32.536V-9.632h-1.61v1.918h-.91v1.3h.91ZM35.882,0h1.6V-7.714h-1.6Zm.812-8.736A1.007,1.007,0,0,0,37.7-9.758a1.007,1.007,0,0,0-1.008-1.022,1.01,1.01,0,0,0-1.022,1.022A1.01,1.01,0,0,0,36.694-8.736ZM45.052,0h1.582V-4.55A3,3,0,0,0,43.47-7.84a2.968,2.968,0,0,0-2.3,1.008v-.882h-1.6V0h1.6V-4.312A1.87,1.87,0,0,1,43.12-6.454c1.162,0,1.932.728,1.932,2.142Zm3.08-3.892A3.733,3.733,0,0,0,51.772.126a3.311,3.311,0,0,0,2.674-1.288V.126a2.055,2.055,0,0,1-2.156,2.3,2.15,2.15,0,0,1-2.2-1.344H48.51c.2,1.708,1.722,2.73,3.78,2.73A3.5,3.5,0,0,0,56.056.126v-7.84h-1.61v1.12A3.268,3.268,0,0,0,51.772-7.84,3.672,3.672,0,0,0,48.132-3.892Zm6.314.028a2.4,2.4,0,0,1-2.338,2.6A2.43,2.43,0,0,1,49.77-3.892a2.367,2.367,0,0,1,2.338-2.562A2.392,2.392,0,0,1,54.446-3.864Z" transform="translate(18.735 24.707)" fill="#fff"/></g></g></svg>