<svg xmlns="http://www.w3.org/2000/svg" xmlns:xlink="http://www.w3.org/1999/xlink" width="311" height="320" viewBox="0 0 311 320"><defs><filter id="a" x="0" y="0" width="311" height="320" filterUnits="userSpaceOnUse"><feOffset dy="16" input="SourceAlpha"/><feGaussianBlur stdDeviation="12" result="b"/><feFlood flood-opacity="0.161"/><feComposite operator="in" in2="b"/><feComposite in="SourceGraphic"/></filter></defs><g transform="translate(36.357 20.362)"><g transform="matrix(1, 0, 0, 1, -36.36, -20.36)" filter="url(#a)"><rect width="239" height="248" rx="16" transform="translate(36 20)" fill="#fff"/></g><g transform="translate(17.705 18.636)"><g transform="translate(0 67.09)"><g transform="translate(0 0)"><g transform="translate(-0.062 -0.088)" fill="#0f72ee" stroke="#fff" stroke-miterlimit="10" stroke-width="2" opacity="0.1"><ellipse cx="19" cy="19.5" rx="19" ry="19.5" stroke="none"/><ellipse cx="19" cy="19.5" rx="18" ry="18.5" fill="none"/></g><path d="M-1.157,0h1.5L1.976-9.23h-2.7L-.975-7.878H.234Z" transform="translate(18.939 23.912)" fill="#0f72ee"/></g></g><g transform="translate(82.93 112.748)"><g transform="translate(0 0)"><g transform="translate(0.009 0.254)" fill="#0f72ee" stroke="#fff" stroke-miterlimit="10" stroke-width="2" opacity="0.1"><ellipse cx="19" cy="20" rx="19" ry="20" stroke="none"/><ellipse cx="19" cy="20" rx="18" ry="19" fill="none"/></g><path d="M-1.666-5.474a3.265,3.265,0,0,0-2.156,2.59C-4.172-.952-2.87.252-.77.252A3.987,3.987,0,0,0,3.416-2.884a2.165,2.165,0,0,0-1.274-2.59A3.167,3.167,0,0,0,4-7.77c.266-1.47-.616-2.758-2.87-2.758S-2.45-9.254-2.716-7.77A2.012,2.012,0,0,0-1.666-5.474ZM.9-9.2c1.12,0,1.736.574,1.554,1.624a2.068,2.068,0,0,1-2.114,1.6c-1.064,0-1.708-.658-1.54-1.582A1.941,1.941,0,0,1,.9-9.2ZM.112-4.774c1.2,0,1.96.616,1.736,1.834A2.26,2.26,0,0,1-.532-1.078c-1.3,0-1.96-.756-1.764-1.862A2.23,2.23,0,0,1,.112-4.774Z" transform="translate(19.009 25.254)" fill="#0f72ee"/></g></g><g transform="translate(41.93 67.09)"><g transform="translate(0 0)"><g transform="translate(0.009 -0.088)" fill="#0f72ee" stroke="#fff" stroke-miterlimit="10" stroke-width="2" opacity="0.1"><circle cx="19.5" cy="19.5" r="19.5" stroke="none"/><circle cx="19.5" cy="19.5" r="18.5" fill="none"/></g><path d="M-3.163-.11H2.183l.187-1.045H-1.116C.38-2.332,2.623-3.817,2.953-5.7,3.2-7.084,2.447-8.063.819-8.063A3.012,3.012,0,0,0-2.227-5.478h1.21A1.7,1.7,0,0,1,.632-7c.935,0,1.2.572,1.067,1.353C1.436-4.136-.819-2.684-3-1.023Z" transform="translate(19.009 21.912)" fill="#0f72ee"/></g></g><g transform="translate(123.929 112.748)"><g transform="translate(0 0)"><g transform="translate(0.011 0.254)" fill="#0f72ee" stroke="#fff" stroke-miterlimit="10" stroke-width="2" opacity="0.1"><ellipse cx="19.5" cy="20" rx="19.5" ry="20" stroke="none"/><ellipse cx="19.5" cy="20" rx="18.5" ry="19" fill="none"/></g><path d="M-3.325-2.772C-3.451-1.316-2.7-.014-.581-.014c2.674,0,3.724-1.834,4.326-5.278.588-3.346.028-5.152-2.6-5.152A3.879,3.879,0,0,0-2.849-7.07,2.516,2.516,0,0,0-.175-3.808,3.334,3.334,0,0,0,2.275-4.8C1.813-2.2,1.015-1.344-.259-1.344c-1.064,0-1.568-.518-1.6-1.428ZM.343-5.152a1.508,1.508,0,0,1-1.652-1.96,2.267,2.267,0,0,1,2.254-2c1.162,0,1.778.742,1.54,2.044A2.138,2.138,0,0,1,.343-5.152Z" transform="translate(19.01 25.254)" fill="#0f72ee"/></g></g><g transform="translate(82.93 67.09)"><g transform="translate(0 0)"><g transform="translate(0.009 -0.088)" fill="#0f72ee" stroke="#fff" stroke-miterlimit="10" stroke-width="2" opacity="0.1"><ellipse cx="19" cy="19.5" rx="19" ry="19.5" stroke="none"/><ellipse cx="19" cy="19.5" rx="18" ry="18.5" fill="none"/></g><path d="M-2.134-6.039H-.913A1.551,1.551,0,0,1,.649-7.128c.858,0,1.221.462,1.1,1.155-.154.858-.9,1.188-2.035,1.2h-.3L-.77-3.74h.286c1.309,0,1.925.363,1.749,1.419A1.56,1.56,0,0,1-.374-1c-.946,0-1.386-.572-1.309-1.32h-1.21C-3.1-.748-2.057.044-.539.044A2.791,2.791,0,0,0,2.431-2.2c.187-1.111-.22-1.8-1.012-2.057V-4.3A2.335,2.335,0,0,0,2.97-6.116c.209-1.166-.495-2.09-2.09-2.09A2.9,2.9,0,0,0-2.134-6.039Z" transform="translate(18.009 21.912)" fill="#0f72ee"/></g></g><g transform="translate(164.928 112.748)"><g transform="translate(0 0)"><g transform="translate(0.011 0.254)" fill="#0f72ee" stroke="#fff" stroke-miterlimit="10" stroke-width="2" opacity="0.1"><ellipse cx="19.5" cy="20" rx="19.5" ry="20" stroke="none"/><ellipse cx="19.5" cy="20" rx="18.5" ry="19" fill="none"/></g><path d="M-5.324,0h1.5l1.638-9.23h-2.7l-.247,1.352h1.209ZM-.942-4.758c-.468,2.652-.1,4.732,2.548,4.732s3.744-2.08,4.212-4.732.1-4.719-2.548-4.719S-.475-7.4-.942-4.758Zm5.3,0C4.049-3,3.569-1.378,1.839-1.378S.2-3,.513-4.758s.793-3.367,2.522-3.367S4.661-6.5,4.362-4.758Z" transform="translate(19.011 24.254)" fill="#0f72ee"/></g></g><g transform="translate(123.929 67.09)"><g transform="translate(0 0)"><g transform="translate(0.011 -0.088)" fill="#0f72ee" stroke="#fff" stroke-miterlimit="10" stroke-width="2" opacity="0.1"><circle cx="19.5" cy="19.5" r="19.5" stroke="none"/><circle cx="19.5" cy="19.5" r="18.5" fill="none"/></g><path d="M.423,0H1.878l.351-1.976H3.438l.234-1.287H2.464L3.53-9.36H1.735L-3.738-3.094l-.195,1.118H.773ZM-2-3.263,1.878-7.852,1.072-3.263Z" transform="translate(19.01 23.912)" fill="#0f72ee"/></g></g><g transform="translate(0.932 160.27)"><g transform="translate(0 0)"><g transform="translate(0.008 -0.268)" fill="#0f72ee" stroke="#fff" stroke-miterlimit="10" stroke-width="2" opacity="0.1"><circle cx="19" cy="19" r="19" stroke="none"/><circle cx="19" cy="19" r="18" fill="none"/></g><path d="M-3.168,0h1.38L-.276-8.52h-2.5L-3-7.272h1.116Zm4.2,0h1.38L3.924-8.52h-2.5L1.2-7.272H2.316Z" transform="translate(19.007 21.732)" fill="#0f72ee"/></g></g><g transform="translate(164.928 67.09)"><g transform="translate(0 0)"><g transform="translate(0.011 -0.088)" fill="#0f72ee" stroke="#fff" stroke-miterlimit="10" stroke-width="2"><circle cx="19.5" cy="19.5" r="19.5" stroke="none"/><circle cx="19.5" cy="19.5" r="18.5" fill="none"/></g><path d="M-2.135-10.234-3.171-4.34h1.512A2.289,2.289,0,0,1,.4-5.614c1.33,0,1.862.756,1.624,2.086a2.372,2.372,0,0,1-2.38,2.2c-1.078,0-1.708-.56-1.764-1.428H-3.675C-3.717-1.162-2.709,0-.609,0A4.041,4.041,0,0,0,3.549-3.57c.28-1.54-.168-3.4-2.674-3.4a3.25,3.25,0,0,0-2.268.924L-.9-8.834h4.69l.238-1.4Z" transform="translate(19.011 24.912)" fill="#fff"/><g transform="translate(25.011 2.912)" fill="#fff" stroke="#0f72ee" stroke-width="1"><circle cx="5" cy="5" r="5" stroke="none"/><circle cx="5" cy="5" r="4.5" fill="none"/></g><path d="M7.694,68.552l-4.3,4.3L1.049,70.515,0,71.564l3.39,3.39L8.743,69.6Z" transform="translate(27.833 -65.298)" fill="#0f72ee"/></g></g><g transform="translate(41.93 160.27)"><g transform="translate(0 0)"><g transform="translate(0.009 -0.268)" fill="#0f72ee" stroke="#fff" stroke-miterlimit="10" stroke-width="2" opacity="0.1"><ellipse cx="19.5" cy="19" rx="19.5" ry="19" stroke="none"/><ellipse cx="19.5" cy="19" rx="18.5" ry="18" fill="none"/></g><path d="M-5.285,0h1.61l1.764-9.94H-4.823l-.266,1.456h1.3Zm3.71-.14h6.8l.238-1.33H1.029c1.9-1.5,4.76-3.388,5.18-5.782.308-1.764-.644-3.01-2.716-3.01A3.833,3.833,0,0,0-.385-6.972h1.54A2.161,2.161,0,0,1,3.255-8.9c1.19,0,1.526.728,1.358,1.722C4.277-5.264,1.407-3.416-1.365-1.3Z" transform="translate(18.009 23.732)" fill="#0f72ee"/></g></g><g transform="translate(0 112.748)"><g transform="translate(0 0)"><g transform="translate(-0.062 0.254)" fill="#0f72ee" stroke="#fff" stroke-miterlimit="10" stroke-width="2" opacity="0.1"><ellipse cx="19" cy="20" rx="19" ry="20" stroke="none"/><ellipse cx="19" cy="20" rx="18" ry="19" fill="none"/></g><path d="M3.962-7.84a2.387,2.387,0,0,0-2.688-2.618c-2.548,0-3.948,1.932-4.508,5.124C-3.808-2.086-3.416,0-.448,0A3.891,3.891,0,0,0,3.5-3.4c.378-2.128-.7-3.36-2.534-3.36A3.6,3.6,0,0,0-1.848-5.474C-1.33-8.148-.42-9.128,1.022-9.128c1.008,0,1.414.462,1.47,1.288ZM.378-5.418c1.344,0,1.806.868,1.582,2.086a2.254,2.254,0,0,1-2.254,2,1.6,1.6,0,0,1-1.722-2.1A2.352,2.352,0,0,1,.378-5.418Z" transform="translate(18.939 25.254)" fill="#0f72ee"/></g></g><g transform="translate(83.862 160.27)"><g transform="translate(0 0)"><g transform="translate(0.077 -0.268)" fill="#0f72ee" stroke="#fff" stroke-miterlimit="10" stroke-width="2" opacity="0.1"><ellipse cx="19.5" cy="19" rx="19.5" ry="19" stroke="none"/><ellipse cx="19.5" cy="19" rx="18.5" ry="18" fill="none"/></g><path d="M-5.018,0h1.5l1.638-9.23h-2.7l-.247,1.352h1.209ZM-.247-7.137H1.2A1.833,1.833,0,0,1,3.042-8.424c1.014,0,1.443.546,1.3,1.365-.182,1.014-1.066,1.4-2.4,1.417H1.586L1.365-4.42H1.7c1.547,0,2.275.429,2.067,1.677a1.843,1.843,0,0,1-1.937,1.56C.715-1.183.195-1.859.286-2.743h-1.43c-.247,1.859.988,2.8,2.782,2.8A3.3,3.3,0,0,0,5.148-2.6c.221-1.313-.26-2.132-1.2-2.431v-.052A2.759,2.759,0,0,0,5.785-7.228C6.032-8.606,5.2-9.7,3.315-9.7A3.433,3.433,0,0,0-.247-7.137Z" transform="translate(18.077 22.732)" fill="#0f72ee"/></g></g><g transform="translate(41.93 112.748)"><g transform="translate(0 0)"><g transform="translate(0.009 0.254)" fill="#0f72ee" stroke="#fff" stroke-miterlimit="10" stroke-width="2"><ellipse cx="19.5" cy="20" rx="19.5" ry="20" stroke="none"/><ellipse cx="19.5" cy="20" rx="18.5" ry="19" fill="none"/></g><path d="M-2.868-8.724v1.44h4.1L-1.98,0h1.7L2.916-7.476V-8.724Z" transform="translate(19.009 23.254)" fill="#fff"/><g transform="translate(27.009 4.254)" fill="#fff" stroke="#0f72ee" stroke-width="1"><ellipse cx="5" cy="5.5" rx="5" ry="5.5" stroke="none"/><ellipse cx="5" cy="5.5" rx="4.5" ry="5" fill="none"/></g><path d="M7.694,68.552l-4.3,4.3L1.049,70.515,0,71.564l3.39,3.39L8.743,69.6Z" transform="translate(29.769 -62.989)" fill="#0f72ee"/></g></g><g transform="translate(124.861 160.27)"><g transform="translate(0 0)"><g transform="translate(0.078 -0.268)" fill="#0f72ee" stroke="#fff" stroke-miterlimit="10" stroke-width="2" opacity="0.1"><ellipse cx="19.5" cy="19" rx="19.5" ry="19" stroke="none"/><ellipse cx="19.5" cy="19" rx="18.5" ry="18" fill="none"/></g><path d="M-5.363,0h1.5L-2.23-9.23h-2.7l-.247,1.352h1.209ZM2.7,0H4.154L4.5-1.976H5.714l.234-1.287H4.739L5.8-9.36H4.01L-1.463-3.094l-.195,1.118H3.048ZM.28-3.263,4.154-7.852,3.347-3.263Z" transform="translate(19.077 22.732)" fill="#0f72ee"/></g></g><g transform="translate(0.932 0)"><circle cx="24" cy="24" r="24" transform="translate(0.008 0.002)" fill="#0f72ee"/><path d="M8.16-2.955c0-3.81-5.52-2.34-5.52-4.695,0-1.005.765-1.485,1.755-1.455A1.631,1.631,0,0,1,6.15-7.725H8.04C7.89-9.51,6.48-10.56,4.485-10.56,2.355-10.56.9-9.42.9-7.59c0,3.84,5.535,2.2,5.535,4.725,0,.885-.675,1.53-1.875,1.53A1.673,1.673,0,0,1,2.7-2.88H.87C.87-1.035,2.475.105,4.56.105,6.885.105,8.16-1.395,8.16-2.955ZM13.665-6.96a2.146,2.146,0,0,1,2.31,2.085H11.4A2.251,2.251,0,0,1,13.665-6.96Zm3.87,4.5H15.69A2,2,0,0,1,13.74-1.3a2.274,2.274,0,0,1-2.355-2.19H17.7a5.275,5.275,0,0,0,.06-.84A3.854,3.854,0,0,0,13.74-8.4,3.958,3.958,0,0,0,9.615-4.14,4.01,4.01,0,0,0,13.74.135,3.777,3.777,0,0,0,17.535-2.46ZM21.15-7.05V-8.265H19.44V3.93h1.71V-1.2A3.737,3.737,0,0,0,24.03.135,3.989,3.989,0,0,0,27.915-4.17,3.923,3.923,0,0,0,24.03-8.4,3.606,3.606,0,0,0,21.15-7.05Zm5.025,2.88a2.606,2.606,0,0,1-2.52,2.82,2.576,2.576,0,0,1-2.5-2.79,2.572,2.572,0,0,1,2.5-2.775A2.538,2.538,0,0,1,26.175-4.17ZM33.15-.15h7.29V-1.575H35.685C37.44-3.18,40.14-5.2,40.14-7.86a3.147,3.147,0,0,0-3.48-3.3,3.317,3.317,0,0,0-3.525,3.525h1.65c.045-1.23.69-2.07,1.89-2.07,1.275,0,1.77.78,1.77,1.92,0,2.145-2.715,4.125-5.3,6.39Zm8.79-5.46c0,3.18.84,5.58,3.9,5.58s3.9-2.4,3.9-5.58c0-3.12-.84-5.52-3.9-5.52S41.94-8.73,41.94-5.61Zm6.12,0c0,2.145-.225,4.02-2.22,4.02s-2.22-1.875-2.22-4.02c0-2.04.225-3.96,2.22-3.96S48.06-7.65,48.06-5.61ZM51.42-.15h7.29V-1.575H53.955C55.71-3.18,58.41-5.2,58.41-7.86a3.147,3.147,0,0,0-3.48-3.3A3.317,3.317,0,0,0,51.4-7.635h1.65c.045-1.23.69-2.07,1.89-2.07,1.275,0,1.77.78,1.77,1.92,0,2.145-2.715,4.125-5.3,6.39Zm8.79-5.46c0,3.18.84,5.58,3.9,5.58s3.9-2.4,3.9-5.58c0-3.12-.84-5.52-3.9-5.52S60.21-8.73,60.21-5.61Zm6.12,0c0,2.145-.225,4.02-2.22,4.02s-2.22-1.875-2.22-4.02c0-2.04.225-3.96,2.22-3.96S66.33-7.65,66.33-5.61Z" transform="translate(62.008 29.002)" fill="#0f72ee"/></g><g transform="translate(14.361 15.041)"><g transform="translate(0 0)"><path d="M17.478,17.478H2.185A2.187,2.187,0,0,1,0,15.293V2.185A2.187,2.187,0,0,1,2.185,0H3.277V0H7.647V0h4.369V0h4.369V0h1.093a2.187,2.187,0,0,1,2.184,2.185V15.293A2.187,2.187,0,0,1,17.478,17.478Z" transform="translate(0 0)" fill="none" stroke="#fff" stroke-linecap="round" stroke-linejoin="round" stroke-miterlimit="10" stroke-width="1.5"/></g></g></g></g></svg>