<svg xmlns="http://www.w3.org/2000/svg" xmlns:xlink="http://www.w3.org/1999/xlink" width="334" height="331" viewBox="0 0 334 331"><defs><filter id="a" x="0" y="0" width="334" height="331" filterUnits="userSpaceOnUse"><feOffset dy="16" input="SourceAlpha"/><feGaussianBlur stdDeviation="12" result="b"/><feFlood flood-opacity="0.161"/><feComposite operator="in" in2="b"/><feComposite in="SourceGraphic"/></filter><filter id="c" x="27" y="237" width="280" height="54" filterUnits="userSpaceOnUse"><feOffset dy="3" input="SourceAlpha"/><feGaussianBlur stdDeviation="3" result="d"/><feFlood flood-opacity="0.161"/><feComposite operator="in" in2="d"/><feComposite in="SourceGraphic"/></filter></defs><g transform="translate(35.809 83.882)"><g transform="matrix(1, 0, 0, 1, -35.81, -83.88)" filter="url(#a)"><rect width="262" height="259" rx="16" transform="translate(36 20)" fill="#fff"/></g><g transform="translate(101.566 22.363)"><g transform="translate(0 0)"><path d="M.585-9.03h2.79V0h1.71V-9.03H7.86v-1.4H.585ZM12.84-1.965l-2.325-6.3H8.61l3.255,8.13-1.68,4.02h1.77l5.07-12.15h-1.77ZM20.025-7.05V-8.265h-1.71V3.93h1.71V-1.2A3.737,3.737,0,0,0,22.905.135,3.989,3.989,0,0,0,26.79-4.17,3.923,3.923,0,0,0,22.905-8.4,3.606,3.606,0,0,0,20.025-7.05ZM25.05-4.17a2.606,2.606,0,0,1-2.52,2.82,2.576,2.576,0,0,1-2.5-2.79,2.572,2.572,0,0,1,2.5-2.775A2.538,2.538,0,0,1,25.05-4.17Zm6.915-2.79a2.146,2.146,0,0,1,2.31,2.085H29.7A2.251,2.251,0,0,1,31.965-6.96Zm3.87,4.5H33.99A2,2,0,0,1,32.04-1.3a2.274,2.274,0,0,1-2.355-2.19H36a5.275,5.275,0,0,0,.06-.84A3.854,3.854,0,0,0,32.04-8.4a3.958,3.958,0,0,0-4.125,4.26A4.01,4.01,0,0,0,32.04.135,3.777,3.777,0,0,0,35.835-2.46Zm13.68-1.68A4.076,4.076,0,0,0,45.3-8.4a4.076,4.076,0,0,0-4.215,4.26A4.03,4.03,0,0,0,45.225.135,4.14,4.14,0,0,0,49.515-4.14Zm-6.69,0A2.462,2.462,0,0,1,45.27-6.915,2.5,2.5,0,0,1,47.76-4.14a2.546,2.546,0,0,1-2.535,2.79C43.935-1.35,42.825-2.265,42.825-4.14ZM51.42,0h1.725V-6.87h1.53v-1.4h-1.53V-8.85c0-.945.36-1.305,1.41-1.305V-11.58c-2.16,0-3.135.825-3.135,2.73v.585h-.975v1.4h.975Zm8.67,0H61.8V-11.1H60.09Zm7.44-6.96a2.146,2.146,0,0,1,2.31,2.085H65.265A2.251,2.251,0,0,1,67.53-6.96Zm3.87,4.5H69.555A2,2,0,0,1,67.6-1.3a2.274,2.274,0,0,1-2.355-2.19h6.315a5.275,5.275,0,0,0,.06-.84A3.854,3.854,0,0,0,67.6-8.4,3.958,3.958,0,0,0,63.48-4.14,4.01,4.01,0,0,0,67.6.135,3.777,3.777,0,0,0,71.4-2.46Zm1.335-1.71A4,4,0,0,0,76.605.135,3.557,3.557,0,0,0,79.5-1.23V0h1.725V-8.265H79.5v1.2A3.518,3.518,0,0,0,76.635-8.4,3.934,3.934,0,0,0,72.735-4.17Zm6.765.03A2.568,2.568,0,0,1,77-1.35,2.6,2.6,0,0,1,74.49-4.17,2.536,2.536,0,0,1,77-6.915,2.563,2.563,0,0,1,79.5-4.14Zm3-4.125L85.635,0h2.04l3.15-8.265H89.01L86.67-1.53,84.33-8.265ZM95.6-6.96A2.146,2.146,0,0,1,97.9-4.875H93.33A2.251,2.251,0,0,1,95.6-6.96Zm3.87,4.5H97.62A2,2,0,0,1,95.67-1.3a2.274,2.274,0,0,1-2.355-2.19H99.63a5.275,5.275,0,0,0,.06-.84A3.854,3.854,0,0,0,95.67-8.4a3.958,3.958,0,0,0-4.125,4.26A4.01,4.01,0,0,0,95.67.135,3.777,3.777,0,0,0,99.465-2.46Z" transform="translate(-80.375 -45.245)" fill="#0f72ee"/><path d="M6.66-7.3c0,1.035-.6,1.77-1.935,1.77H2.835V-9.03h1.89C6.06-9.03,6.66-8.355,6.66-7.3Zm-5.535-3.12V0h1.71V-4.17h1.3L6.54,0H8.58L6-4.32A2.967,2.967,0,0,0,8.415-7.3c0-1.7-1.215-3.12-3.69-3.12ZM14.085-6.96A2.146,2.146,0,0,1,16.4-4.875H11.82A2.251,2.251,0,0,1,14.085-6.96Zm3.87,4.5H16.11A2,2,0,0,1,14.16-1.3,2.274,2.274,0,0,1,11.8-3.495H18.12a5.275,5.275,0,0,0,.06-.84A3.854,3.854,0,0,0,14.16-8.4a3.958,3.958,0,0,0-4.125,4.26A4.01,4.01,0,0,0,14.16.135,3.777,3.777,0,0,0,17.955-2.46ZM19.29-4.17A4,4,0,0,0,23.16.135a3.557,3.557,0,0,0,2.9-1.365V0H27.78V-8.265H26.055v1.2A3.518,3.518,0,0,0,23.19-8.4,3.934,3.934,0,0,0,19.29-4.17Zm6.765.03a2.568,2.568,0,0,1-2.5,2.79,2.6,2.6,0,0,1-2.505-2.82A2.536,2.536,0,0,1,23.55-6.915,2.563,2.563,0,0,1,26.055-4.14Zm10.14,1.83C36.1-5.295,31.44-4.365,31.44-6.03c0-.555.48-.93,1.395-.93A1.367,1.367,0,0,1,34.38-5.745h1.71C36-7.395,34.77-8.4,32.9-8.4c-1.95,0-3.18,1.065-3.18,2.385,0,3.03,4.8,2.1,4.8,3.72,0,.57-.525.99-1.515.99a1.508,1.508,0,0,1-1.65-1.23H29.58c.075,1.5,1.47,2.67,3.45,2.67C34.98.135,36.195-.915,36.195-2.31Zm9.72-1.83A4.076,4.076,0,0,0,41.7-8.4a4.076,4.076,0,0,0-4.215,4.26A4.03,4.03,0,0,0,41.625.135,4.14,4.14,0,0,0,45.915-4.14Zm-6.69,0A2.462,2.462,0,0,1,41.67-6.915,2.5,2.5,0,0,1,44.16-4.14a2.546,2.546,0,0,1-2.535,2.79C40.335-1.35,39.225-2.265,39.225-4.14ZM53.475,0H55.17V-4.875A3.219,3.219,0,0,0,51.78-8.4a3.18,3.18,0,0,0-2.46,1.08v-.945H47.61V0h1.71V-4.62a2,2,0,0,1,2.085-2.3c1.245,0,2.07.78,2.07,2.3Z" transform="translate(-80.375 38.755)" fill="#0f72ee"/><rect width="70" height="30" rx="4" transform="translate(-80.375 -27.245)" fill="#0f72ee"/><rect width="70" height="30" rx="4" transform="translate(-4.375 -27.245)" fill="#e5f0fd"/><rect width="222" height="63" rx="4" transform="translate(-80.375 49.755)" fill="#e5f0fd"/><rect width="70" height="30" rx="4" transform="translate(71.625 -27.245)" fill="#e5f0fd"/><path d="M.975,0H2.457V-3.952h2.99V-5.161H2.457V-7.826H6.292V-9.035H.975ZM14.157-7.163H12.675v3.991a1.736,1.736,0,0,1-1.807,1.989c-1.079,0-1.794-.676-1.794-1.989V-7.163H7.605v4.212A2.8,2.8,0,0,0,10.556.1a2.666,2.666,0,0,0,2.119-.962V0h1.482ZM16.107,0h1.482V-9.62H16.107Zm3.432,0h1.482V-9.62H19.539Zm6.318-3.614A3.467,3.467,0,0,0,29.237.117a2.97,2.97,0,0,0,2.483-1.2V0h1.5V-9.62h-1.5v3.458A3.3,3.3,0,0,0,29.25-7.28,3.412,3.412,0,0,0,25.857-3.614Zm5.863.026A2.225,2.225,0,0,1,29.549-1.17a2.257,2.257,0,0,1-2.171-2.444,2.2,2.2,0,0,1,2.171-2.379A2.221,2.221,0,0,1,31.72-3.588Zm2.951-.026A3.463,3.463,0,0,0,38.025.117a3.083,3.083,0,0,0,2.509-1.183V0h1.5V-7.163h-1.5v1.04A3.049,3.049,0,0,0,38.051-7.28,3.409,3.409,0,0,0,34.671-3.614Zm5.863.026A2.225,2.225,0,0,1,38.363-1.17a2.257,2.257,0,0,1-2.171-2.444,2.2,2.2,0,0,1,2.171-2.379A2.221,2.221,0,0,1,40.534-3.588ZM46.8-1.7l-2.015-5.46H43.134L45.955-.117,44.5,3.367h1.534l4.394-10.53H48.893Z" transform="translate(-71.375 -7.245)" fill="#fff"/><path d="M1.794,0H3.289V-9.477H.585v1.352H1.794Zm9.074-2C10.79-4.589,6.747-3.783,6.747-5.226c0-.481.416-.806,1.209-.806A1.185,1.185,0,0,1,9.3-4.979h1.482a2.456,2.456,0,0,0-2.769-2.3c-1.69,0-2.756.923-2.756,2.067,0,2.626,4.16,1.82,4.16,3.224,0,.494-.455.858-1.313.858A1.307,1.307,0,0,1,6.669-2.2H5.135C5.2-.9,6.409.117,8.125.117,9.815.117,10.868-.793,10.868-2Zm1.833.013C12.7-.533,13.494,0,14.768,0h1.17V-1.235h-.91c-.624,0-.832-.221-.832-.754V-5.954h1.742V-7.163H14.2V-8.944H12.7v1.781h-.845v1.209H12.7ZM20.683,0h1.482V-4a1.736,1.736,0,0,1,1.807-1.989c1.079,0,1.794.676,1.794,1.989V0h1.469V-4.225A2.762,2.762,0,0,0,24.388-7.28a2.839,2.839,0,0,0-2.223.949V-9.62H20.683Zm7.943-3.614A3.463,3.463,0,0,0,31.98.117a3.083,3.083,0,0,0,2.509-1.183V0h1.5V-7.163h-1.5v1.04A3.049,3.049,0,0,0,32.006-7.28,3.409,3.409,0,0,0,28.626-3.614Zm5.863.026A2.225,2.225,0,0,1,32.318-1.17a2.257,2.257,0,0,1-2.171-2.444,2.2,2.2,0,0,1,2.171-2.379A2.221,2.221,0,0,1,34.489-3.588ZM37.934,0h1.482V-9.62H37.934Zm3.614,0h1.495V-5.954h1.326V-7.163H43.043V-7.67c0-.819.312-1.131,1.222-1.131v-1.235c-1.872,0-2.717.715-2.717,2.366v.507H40.7v1.209h.845Z" transform="translate(8.625 -7.245)" fill="#0f72ee"/><path d="M3.926-9.035H.975V0H3.926c2.9,0,4.8-1.7,4.8-4.485S6.825-9.035,3.926-9.035ZM2.457-1.209V-7.826H3.926A3.015,3.015,0,0,1,7.2-4.485,2.972,2.972,0,0,1,3.926-1.209ZM13.208-6.032a1.86,1.86,0,0,1,2,1.807H11.245A1.951,1.951,0,0,1,13.208-6.032Zm3.354,3.9h-1.6a1.734,1.734,0,0,1-1.69,1,1.97,1.97,0,0,1-2.041-1.9H16.7a4.572,4.572,0,0,0,.052-.728A3.341,3.341,0,0,0,13.273-7.28,3.43,3.43,0,0,0,9.7-3.588a3.475,3.475,0,0,0,3.575,3.7A3.273,3.273,0,0,0,16.562-2.132ZM23.556-2c-.078-2.587-4.121-1.781-4.121-3.224,0-.481.416-.806,1.209-.806a1.185,1.185,0,0,1,1.339,1.053h1.482A2.456,2.456,0,0,0,20.7-7.28c-1.69,0-2.756.923-2.756,2.067,0,2.626,4.16,1.82,4.16,3.224,0,.494-.455.858-1.313.858A1.307,1.307,0,0,1,19.357-2.2H17.823C17.888-.9,19.1.117,20.813.117,22.5.117,23.556-.793,23.556-2Zm1.105-1.586a3.426,3.426,0,0,0,3.51,3.7,3.217,3.217,0,0,0,3.3-2.379h-1.6a1.636,1.636,0,0,1-1.7,1.131c-1.2,0-1.989-.884-1.989-2.457s.793-2.444,1.989-2.444a1.674,1.674,0,0,1,1.7,1.131h1.6a3.116,3.116,0,0,0-3.3-2.379A3.422,3.422,0,0,0,24.661-3.588Zm9.776-.182c0-1.521.676-1.976,1.768-1.976h.377V-7.28a2.333,2.333,0,0,0-2.145,1.157v-1.04H32.955V0h1.482ZM37.947,0h1.482V-7.163H37.947ZM38.7-8.112a.935.935,0,0,0,.936-.949.935.935,0,0,0-.936-.949.938.938,0,0,0-.949.949A.938.938,0,0,0,38.7-8.112ZM42.861-6.1V-9.62H41.379V0h1.482V-1.04a3.044,3.044,0,0,0,2.5,1.157,3.457,3.457,0,0,0,3.367-3.731A3.392,3.392,0,0,0,45.357-7.28,3.062,3.062,0,0,0,42.861-6.1Zm4.355,2.483A2.259,2.259,0,0,1,45.032-1.17a2.233,2.233,0,0,1-2.171-2.418,2.229,2.229,0,0,1,2.171-2.405A2.2,2.2,0,0,1,47.216-3.614Zm5.993-2.418a1.86,1.86,0,0,1,2,1.807H51.246A1.951,1.951,0,0,1,53.209-6.032Zm3.354,3.9h-1.6a1.734,1.734,0,0,1-1.69,1,1.97,1.97,0,0,1-2.041-1.9h5.473a4.572,4.572,0,0,0,.052-.728A3.341,3.341,0,0,0,53.274-7.28,3.43,3.43,0,0,0,49.7-3.588a3.475,3.475,0,0,0,3.575,3.7A3.273,3.273,0,0,0,56.563-2.132Zm7.852.429L62.4-7.163H60.749L63.57-.117,62.114,3.367h1.534l4.394-10.53H66.508Zm11.57-1.885A3.532,3.532,0,0,0,72.332-7.28a3.532,3.532,0,0,0-3.653,3.692,3.492,3.492,0,0,0,3.588,3.7A3.588,3.588,0,0,0,75.985-3.588Zm-5.8,0a2.134,2.134,0,0,1,2.119-2.405,2.167,2.167,0,0,1,2.158,2.405,2.206,2.206,0,0,1-2.2,2.418A2.119,2.119,0,0,1,70.187-3.588ZM83.941-7.163H82.459v3.991a1.736,1.736,0,0,1-1.807,1.989c-1.079,0-1.794-.676-1.794-1.989V-7.163H77.389v4.212A2.8,2.8,0,0,0,80.34.1a2.666,2.666,0,0,0,2.119-.962V0h1.482ZM87.373-3.77c0-1.521.676-1.976,1.768-1.976h.377V-7.28a2.333,2.333,0,0,0-2.145,1.157v-1.04H85.891V0h1.482Zm8.372,0c0-1.521.676-1.976,1.768-1.976h.377V-7.28a2.333,2.333,0,0,0-2.145,1.157v-1.04H94.263V0h1.482Zm6.526-2.262a1.86,1.86,0,0,1,2,1.807h-3.965A1.951,1.951,0,0,1,102.271-6.032Zm3.354,3.9h-1.6a1.734,1.734,0,0,1-1.69,1,1.97,1.97,0,0,1-2.041-1.9h5.473a4.572,4.572,0,0,0,.052-.728,3.341,3.341,0,0,0-3.484-3.523,3.43,3.43,0,0,0-3.575,3.692,3.475,3.475,0,0,0,3.575,3.7A3.273,3.273,0,0,0,105.625-2.132Zm1.157-1.482A3.463,3.463,0,0,0,110.136.117a3.083,3.083,0,0,0,2.509-1.183V0h1.495V-7.163h-1.495v1.04a3.049,3.049,0,0,0-2.483-1.157A3.409,3.409,0,0,0,106.782-3.614Zm5.863.026a2.225,2.225,0,0,1-2.171,2.418A2.257,2.257,0,0,1,108.3-3.614a2.2,2.2,0,0,1,2.171-2.379A2.221,2.221,0,0,1,112.645-3.588ZM121.433-2c-.078-2.587-4.121-1.781-4.121-3.224,0-.481.416-.806,1.209-.806a1.185,1.185,0,0,1,1.339,1.053h1.482a2.456,2.456,0,0,0-2.769-2.3c-1.69,0-2.756.923-2.756,2.067,0,2.626,4.16,1.82,4.16,3.224,0,.494-.455.858-1.313.858a1.307,1.307,0,0,1-1.43-1.066H115.7c.065,1.3,1.274,2.314,2.99,2.314C120.38.117,121.433-.793,121.433-2Zm8.424-1.586A3.532,3.532,0,0,0,126.2-7.28a3.532,3.532,0,0,0-3.653,3.692,3.492,3.492,0,0,0,3.588,3.7A3.588,3.588,0,0,0,129.857-3.588Zm-5.8,0a2.134,2.134,0,0,1,2.119-2.405,2.167,2.167,0,0,1,2.158,2.405,2.206,2.206,0,0,1-2.2,2.418A2.119,2.119,0,0,1,124.059-3.588ZM136.409,0h1.469V-4.225A2.789,2.789,0,0,0,134.94-7.28a2.756,2.756,0,0,0-2.132.936v-.819h-1.482V0h1.482V-4a1.736,1.736,0,0,1,1.807-1.989c1.079,0,1.794.676,1.794,1.989Z" transform="translate(-71.375 72.755)" fill="#0f72ee" opacity="0.5"/><path d="M.663-.13H6.981V-1.365H2.86C4.381-2.756,6.721-4.511,6.721-6.812A2.727,2.727,0,0,0,3.7-9.672,2.875,2.875,0,0,0,.65-6.617H2.08c.039-1.066.6-1.794,1.638-1.794,1.1,0,1.534.676,1.534,1.664C5.252-4.888,2.9-3.172.663-1.209Zm12.9.13h1.469V-4.225A2.789,2.789,0,0,0,12.09-7.28a2.756,2.756,0,0,0-2.132.936v-.819H8.476V0H9.958V-4a1.736,1.736,0,0,1,1.807-1.989c1.079,0,1.794.676,1.794,1.989Zm2.86-3.614A3.467,3.467,0,0,0,19.8.117a2.97,2.97,0,0,0,2.483-1.2V0h1.5V-9.62h-1.5v3.458a3.3,3.3,0,0,0-2.47-1.118A3.412,3.412,0,0,0,16.419-3.614Zm5.863.026A2.225,2.225,0,0,1,20.111-1.17,2.257,2.257,0,0,1,17.94-3.614a2.2,2.2,0,0,1,2.171-2.379A2.221,2.221,0,0,1,22.282-3.588ZM29.107,0h1.482V-4A1.736,1.736,0,0,1,32.4-5.993c1.079,0,1.794.676,1.794,1.989V0h1.469V-4.225A2.762,2.762,0,0,0,32.812-7.28a2.839,2.839,0,0,0-2.223.949V-9.62H29.107ZM37.05-3.614A3.463,3.463,0,0,0,40.4.117a3.083,3.083,0,0,0,2.509-1.183V0h1.495V-7.163H42.913v1.04A3.049,3.049,0,0,0,40.43-7.28,3.409,3.409,0,0,0,37.05-3.614Zm5.863.026A2.225,2.225,0,0,1,40.742-1.17a2.257,2.257,0,0,1-2.171-2.444,2.2,2.2,0,0,1,2.171-2.379A2.221,2.221,0,0,1,42.913-3.588ZM46.358,0H47.84V-9.62H46.358Zm3.614,0h1.495V-5.954h1.326V-7.163H51.467V-7.67c0-.819.312-1.131,1.222-1.131v-1.235c-1.872,0-2.717.715-2.717,2.366v.507h-.845v1.209h.845Z" transform="translate(80.625 -7.245)" fill="#0f72ee"/></g></g><g transform="matrix(1, 0, 0, 1, -35.81, -83.88)" filter="url(#c)"><path d="M0,0H262a0,0,0,0,1,0,0V21a15,15,0,0,1-15,15H16A16,16,0,0,1,0,20V0A0,0,0,0,1,0,0Z" transform="translate(36 243)" fill="#0f72ee"/></g><path d="M6.528-2.364c0-3.048-4.416-1.872-4.416-3.756,0-.8.612-1.188,1.4-1.164a1.3,1.3,0,0,1,1.4,1.1H6.432A2.543,2.543,0,0,0,3.588-8.448c-1.7,0-2.868.912-2.868,2.376C.72-3,5.148-4.308,5.148-2.292c0,.708-.54,1.224-1.5,1.224A1.338,1.338,0,0,1,2.16-2.3H.7C.7-.828,1.98.084,3.648.084A2.591,2.591,0,0,0,6.528-2.364Zm7.608-4.248H12.768v3.684A1.6,1.6,0,0,1,11.1-1.092c-1,0-1.656-.624-1.656-1.836V-6.612H8.088v3.888A2.584,2.584,0,0,0,10.812.1a2.461,2.461,0,0,0,1.956-.888V0h1.368Zm3.168.984V-8.88H15.936V0H17.3V-.96a2.81,2.81,0,0,0,2.3,1.068,3.191,3.191,0,0,0,3.108-3.444A3.131,3.131,0,0,0,19.608-6.72,2.827,2.827,0,0,0,17.3-5.628Zm4.02,2.292A2.085,2.085,0,0,1,19.308-1.08a2.061,2.061,0,0,1-2-2.232,2.057,2.057,0,0,1,2-2.22A2.031,2.031,0,0,1,21.324-3.336ZM33.444,0H34.8V-3.9a2.584,2.584,0,0,0-2.724-2.82,2.589,2.589,0,0,0-2.3,1.308A2.55,2.55,0,0,0,27.4-6.72a2.518,2.518,0,0,0-1.956.864v-.756H24.072V0H25.44V-3.7a1.6,1.6,0,0,1,1.668-1.836c1,0,1.656.624,1.656,1.836V0H30.12V-3.7a1.6,1.6,0,0,1,1.668-1.836c1,0,1.656.624,1.656,1.836Zm3.1,0h1.368V-6.612H36.54Zm.7-7.488a.863.863,0,0,0,.864-.876.863.863,0,0,0-.864-.876.866.866,0,0,0-.876.876A.866.866,0,0,0,37.236-7.488Zm2.688,5.652C39.924-.492,40.656,0,41.832,0h1.08V-1.14h-.84c-.576,0-.768-.2-.768-.7V-5.5h1.608V-6.612H41.3V-8.256h-1.38v1.644h-.78V-5.5h.78ZM47.292,0H48.66V-8.88H47.292Zm5.952-5.568A1.717,1.717,0,0,1,55.092-3.9h-3.66A1.8,1.8,0,0,1,53.244-5.568Zm3.1,3.6H54.864a1.6,1.6,0,0,1-1.56.924A1.819,1.819,0,0,1,51.42-2.8h5.052a4.22,4.22,0,0,0,.048-.672A3.084,3.084,0,0,0,53.3-6.72,3.166,3.166,0,0,0,50-3.312,3.208,3.208,0,0,0,53.3.108,3.021,3.021,0,0,0,56.34-1.968Zm1.068-1.368A3.2,3.2,0,0,0,60.5.108,2.846,2.846,0,0,0,62.82-.984V0H64.2V-6.612H62.82v.96A2.814,2.814,0,0,0,60.528-6.72,3.147,3.147,0,0,0,57.408-3.336Zm5.412.024a2.054,2.054,0,0,1-2,2.232,2.083,2.083,0,0,1-2-2.256,2.029,2.029,0,0,1,2-2.2A2.05,2.05,0,0,1,62.82-3.312Zm2.4-3.3L67.728,0H69.36l2.52-6.612H70.428L68.556-1.224,66.684-6.612ZM75.7-5.568A1.717,1.717,0,0,1,77.544-3.9h-3.66A1.8,1.8,0,0,1,75.7-5.568Zm3.1,3.6H77.316a1.6,1.6,0,0,1-1.56.924A1.819,1.819,0,0,1,73.872-2.8h5.052a4.221,4.221,0,0,0,.048-.672A3.084,3.084,0,0,0,75.756-6.72a3.166,3.166,0,0,0-3.3,3.408,3.208,3.208,0,0,0,3.3,3.42A3.021,3.021,0,0,0,78.792-1.968ZM84.8-3.48c0-1.4.624-1.824,1.632-1.824h.348V-6.72A2.154,2.154,0,0,0,84.8-5.652v-.96H83.436V0H84.8Zm6.024-2.088A1.717,1.717,0,0,1,92.676-3.9h-3.66A1.8,1.8,0,0,1,90.828-5.568Zm3.1,3.6H92.448a1.6,1.6,0,0,1-1.56.924A1.819,1.819,0,0,1,89-2.8h5.052a4.221,4.221,0,0,0,.048-.672A3.084,3.084,0,0,0,90.888-6.72a3.166,3.166,0,0,0-3.3,3.408,3.208,3.208,0,0,0,3.3,3.42A3.021,3.021,0,0,0,93.924-1.968Zm1.068-1.368A3.194,3.194,0,0,0,98.076.108,2.925,2.925,0,0,0,100.4-.96v4.1h1.38V-6.612H100.4v.96a2.789,2.789,0,0,0-2.28-1.068A3.149,3.149,0,0,0,94.992-3.336Zm5.412.024a2.054,2.054,0,0,1-2,2.232,2.083,2.083,0,0,1-2-2.256,2.029,2.029,0,0,1,2-2.2A2.05,2.05,0,0,1,100.4-3.312Zm9.168-3.3H108.2v3.684a1.6,1.6,0,0,1-1.668,1.836c-1,0-1.656-.624-1.656-1.836V-6.612h-1.356v3.888A2.584,2.584,0,0,0,106.248.1,2.461,2.461,0,0,0,108.2-.792V0h1.368Zm4.584,1.044A1.717,1.717,0,0,1,116-3.9h-3.66A1.8,1.8,0,0,1,114.156-5.568Zm3.1,3.6h-1.476a1.6,1.6,0,0,1-1.56.924A1.819,1.819,0,0,1,112.332-2.8h5.052a4.221,4.221,0,0,0,.048-.672,3.084,3.084,0,0,0-3.216-3.252,3.166,3.166,0,0,0-3.3,3.408,3.208,3.208,0,0,0,3.3,3.42A3.021,3.021,0,0,0,117.252-1.968Zm6.456.12c-.072-2.388-3.8-1.644-3.8-2.976,0-.444.384-.744,1.116-.744a1.094,1.094,0,0,1,1.236.972h1.368a2.267,2.267,0,0,0-2.556-2.124c-1.56,0-2.544.852-2.544,1.908,0,2.424,3.84,1.68,3.84,2.976,0,.456-.42.792-1.212.792a1.206,1.206,0,0,1-1.32-.984h-1.416a2.5,2.5,0,0,0,2.76,2.136C122.736.108,123.708-.732,123.708-1.848Zm1.692.012c0,1.344.732,1.836,1.908,1.836h1.08V-1.14h-.84c-.576,0-.768-.2-.768-.7V-5.5h1.608V-6.612H126.78V-8.256H125.4v1.644h-.78V-5.5h.78Z" transform="translate(67.191 181.118)" fill="#fff"/></g></svg>