<svg xmlns="http://www.w3.org/2000/svg" width="57" height="57" viewBox="0 0 57 57"><g transform="translate(-1230.3 -790.038)"><path d="M16,0H41A16,16,0,0,1,57,16V41A16,16,0,0,1,41,57H0a0,0,0,0,1,0,0V16A16,16,0,0,1,16,0Z" transform="translate(1230.3 790.038)" fill="#fff"/><g transform="translate(1241.595 801.114)"><ellipse cx="17.322" cy="17.322" rx="17.322" ry="17.322" fill="#0f72ee"/><rect width="17.322" height="17.322" transform="translate(0 17.322)" fill="#0f72ee"/><g transform="translate(9.275 11.138)"><line x2="14.647" transform="translate(0.052 2)" fill="none" stroke="#fff" stroke-linecap="round" stroke-width="2"/><line x2="14.647" transform="translate(0.052 6.524)" fill="none" stroke="#fff" stroke-linecap="round" stroke-width="2"/><line x2="7.837" transform="translate(0.23 11.048)" fill="none" stroke="#fff" stroke-linecap="round" stroke-width="2"/></g></g></g></svg>