<svg xmlns="http://www.w3.org/2000/svg" xmlns:xlink="http://www.w3.org/1999/xlink" width="342" height="126" viewBox="0 0 342 126"><defs><filter id="a" x="0" y="0" width="193" height="85" filterUnits="userSpaceOnUse"><feOffset input="SourceAlpha"/><feGaussianBlur stdDeviation="8" result="b"/><feFlood flood-opacity="0.122"/><feComposite operator="in" in2="b"/><feComposite in="SourceGraphic"/></filter><filter id="c" x="147" y="0" width="195" height="85" filterUnits="userSpaceOnUse"><feOffset input="SourceAlpha"/><feGaussianBlur stdDeviation="8" result="d"/><feFlood flood-opacity="0.122"/><feComposite operator="in" in2="d"/><feComposite in="SourceGraphic"/></filter><filter id="e" x="0" y="41" width="193" height="85" filterUnits="userSpaceOnUse"><feOffset input="SourceAlpha"/><feGaussianBlur stdDeviation="8" result="f"/><feFlood flood-opacity="0.122"/><feComposite operator="in" in2="f"/><feComposite in="SourceGraphic"/></filter><filter id="g" x="146.998" y="41" width="195" height="85" filterUnits="userSpaceOnUse"><feOffset input="SourceAlpha"/><feGaussianBlur stdDeviation="8" result="h"/><feFlood flood-opacity="0.122"/><feComposite operator="in" in2="h"/><feComposite in="SourceGraphic"/></filter></defs><g transform="translate(34.887 -213.289)"><g transform="translate(-1.066 237.29)"><g transform="translate(0 0)"><g transform="matrix(1, 0, 0, 1, -33.82, -24)" filter="url(#a)"><rect width="145" height="37" rx="18.5" transform="translate(24 24)" fill="#0f72ee"/></g><path d="M2.976-2.916V0h1.68V-2.916l2.832-5.46H5.616L3.828-4.548l-1.8-3.828H.132Zm8.34-2.46A1.477,1.477,0,0,1,12.9-3.948H9.744A1.544,1.544,0,0,1,11.316-5.376Zm3.156,3.288H12.66a1.37,1.37,0,0,1-1.332.8,1.555,1.555,0,0,1-1.6-1.536h4.86a3.927,3.927,0,0,0,.048-.648,3.121,3.121,0,0,0-3.276-3.288A3.194,3.194,0,0,0,8.028-3.324,3.22,3.22,0,0,0,11.364.108,3.09,3.09,0,0,0,14.472-2.088Zm6.552.192c-.048-2.436-3.732-1.68-3.732-2.892,0-.384.324-.636.948-.636a.99.99,0,0,1,1.116.864h1.608a2.382,2.382,0,0,0-2.676-2.2c-1.644,0-2.628.888-2.628,1.992,0,2.436,3.756,1.68,3.756,2.868,0,.384-.36.684-1.02.684A1.1,1.1,0,0,1,17.2-2.1H15.5C15.576-.864,16.74.108,18.408.108,20.028.108,21.024-.756,21.024-1.9Zm.7,3.624h1.092L24.3-1.848H22.524Zm6.168-5.052A3.189,3.189,0,0,0,31.176.108a3.032,3.032,0,0,0,3.132-2.352H32.5a1.268,1.268,0,0,1-1.332.912c-.936,0-1.56-.7-1.56-1.992s.624-2,1.56-2A1.306,1.306,0,0,1,32.5-4.4h1.812a2.966,2.966,0,0,0-3.132-2.352A3.189,3.189,0,0,0,27.888-3.324Zm14.076,0a3.285,3.285,0,0,0-3.42-3.432,3.285,3.285,0,0,0-3.42,3.432A3.254,3.254,0,0,0,38.5.108,3.324,3.324,0,0,0,41.964-3.324Zm-5.136,0A1.73,1.73,0,0,1,38.52-5.292a1.747,1.747,0,0,1,1.716,1.968A1.77,1.77,0,0,1,38.5-1.356C37.6-1.356,36.828-2,36.828-3.324ZM52.5,0h1.68V-3.9a2.586,2.586,0,0,0-2.724-2.844,2.632,2.632,0,0,0-2.28,1.272,2.545,2.545,0,0,0-2.34-1.272,2.421,2.421,0,0,0-1.956.9v-.8H43.2V0h1.68V-3.672a1.42,1.42,0,0,1,1.5-1.608,1.414,1.414,0,0,1,1.476,1.608V0h1.68V-3.672A1.417,1.417,0,0,1,51.024-5.28,1.414,1.414,0,0,1,52.5-3.672Zm4.956-5.688v-.96h-1.68V3.168h1.68V-.948a2.714,2.714,0,0,0,2.2,1.056,3.149,3.149,0,0,0,3.036-3.456,3.106,3.106,0,0,0-3.036-3.408A2.656,2.656,0,0,0,57.456-5.688Zm3.516,2.34a1.818,1.818,0,0,1-1.764,1.98,1.8,1.8,0,0,1-1.752-1.956A1.8,1.8,0,0,1,59.208-5.28,1.775,1.775,0,0,1,60.972-3.348ZM63.912,0h1.68V-8.88h-1.68ZM70.1-5.376a1.477,1.477,0,0,1,1.584,1.428H68.532A1.544,1.544,0,0,1,70.1-5.376ZM73.26-2.088H71.448a1.37,1.37,0,0,1-1.332.8,1.555,1.555,0,0,1-1.6-1.536h4.86a3.926,3.926,0,0,0,.048-.648,3.121,3.121,0,0,0-3.276-3.288,3.194,3.194,0,0,0-3.336,3.432A3.22,3.22,0,0,0,70.152.108,3.09,3.09,0,0,0,73.26-2.088Zm1.656.024C74.916-.54,75.768,0,77.04,0H78.1V-1.416h-.78c-.528,0-.708-.192-.708-.636V-5.268H78.1v-1.38H76.608V-8.292H74.916v1.644h-.792v1.38h.792Zm7.248-3.312a1.477,1.477,0,0,1,1.584,1.428H80.592A1.544,1.544,0,0,1,82.164-5.376ZM85.32-2.088H83.508a1.37,1.37,0,0,1-1.332.8,1.555,1.555,0,0,1-1.6-1.536h4.86a3.926,3.926,0,0,0,.048-.648,3.121,3.121,0,0,0-3.276-3.288,3.194,3.194,0,0,0-3.336,3.432A3.22,3.22,0,0,0,82.212.108,3.09,3.09,0,0,0,85.32-2.088ZM86.712,0h1.68V-8.88h-1.68ZM92.88-2,91.164-6.648H89.28l2.664,6.48L90.5,3.144h1.788l4.116-9.792H94.62Z" transform="translate(14.179 23)" fill="#fff"/></g></g><g transform="translate(136.023 237.29)"><g transform="translate(0 0)"><g transform="matrix(1, 0, 0, 1, -170.91, -24)" filter="url(#c)"><rect width="147" height="37" rx="18.5" transform="translate(171 24)" fill="#0f72ee"/></g><path d="M.8-3.2A3.1,3.1,0,0,0,4.152.084,3.155,3.155,0,0,0,7.572-3.2V-8.376H5.88v5.184a1.558,1.558,0,0,1-1.7,1.752A1.554,1.554,0,0,1,2.484-3.192V-8.376H.8ZM10.872-5.688v-.96H9.192V3.168h1.68V-.948a2.714,2.714,0,0,0,2.2,1.056A3.149,3.149,0,0,0,16.1-3.348a3.106,3.106,0,0,0-3.036-3.408A2.656,2.656,0,0,0,10.872-5.688Zm3.516,2.34a1.818,1.818,0,0,1-1.764,1.98,1.8,1.8,0,0,1-1.752-1.956A1.8,1.8,0,0,1,12.624-5.28,1.775,1.775,0,0,1,14.388-3.348Zm3.2,1.284C17.592-.54,18.444,0,19.716,0h1.056V-1.416h-.78c-.528,0-.708-.192-.708-.636V-5.268h1.488v-1.38H19.284V-8.292H17.592v1.644H16.8v1.38h.792ZM28.4-3.324a3.285,3.285,0,0,0-3.42-3.432,3.285,3.285,0,0,0-3.42,3.432A3.254,3.254,0,0,0,24.936.108,3.324,3.324,0,0,0,28.4-3.324Zm-5.136,0A1.73,1.73,0,0,1,24.96-5.292a1.747,1.747,0,0,1,1.716,1.968,1.77,1.77,0,0,1-1.74,1.968C24.036-1.356,23.268-2,23.268-3.324Zm8.8-.024A3.155,3.155,0,0,0,35.088.108,2.622,2.622,0,0,0,37.3-.972V0h1.692V-6.648H37.3V-5.7a2.629,2.629,0,0,0-2.2-1.056A3.113,3.113,0,0,0,32.064-3.348Zm5.232.024a1.79,1.79,0,0,1-1.764,1.956,1.817,1.817,0,0,1-1.752-1.98A1.773,1.773,0,0,1,35.532-5.28,1.79,1.79,0,0,1,37.3-3.324ZM43.488,0h1.68V-8.88h-1.68Zm2.9-3.348A3.155,3.155,0,0,0,49.416.108a2.622,2.622,0,0,0,2.208-1.08V0h1.692V-6.648H51.624V-5.7a2.629,2.629,0,0,0-2.2-1.056A3.113,3.113,0,0,0,46.392-3.348Zm5.232.024A1.79,1.79,0,0,1,49.86-1.368a1.817,1.817,0,0,1-1.752-1.98A1.773,1.773,0,0,1,49.86-5.28,1.79,1.79,0,0,1,51.624-3.324Zm5.016.012c0-1.284.6-1.668,1.6-1.668h.444V-6.744a2.306,2.306,0,0,0-2.04,1.128V-6.648H54.96V0h1.68Zm2.736-.036A3.156,3.156,0,0,0,62.412.108a2.622,2.622,0,0,0,2.2-1.092V.048a1.717,1.717,0,0,1-3.276.768H59.664c.168,1.524,1.476,2.46,3.348,2.46A3.038,3.038,0,0,0,66.3.048v-6.7H64.608V-5.7a2.6,2.6,0,0,0-2.2-1.056A3.113,3.113,0,0,0,59.376-3.348Zm5.232.024a1.79,1.79,0,0,1-1.764,1.956,1.817,1.817,0,0,1-1.752-1.98A1.773,1.773,0,0,1,62.844-5.28,1.79,1.79,0,0,1,64.608-3.324ZM70.8-5.376a1.477,1.477,0,0,1,1.584,1.428H69.228A1.544,1.544,0,0,1,70.8-5.376Zm3.156,3.288H72.144a1.37,1.37,0,0,1-1.332.8,1.555,1.555,0,0,1-1.6-1.536h4.86a3.926,3.926,0,0,0,.048-.648,3.121,3.121,0,0,0-3.276-3.288,3.194,3.194,0,0,0-3.336,3.432A3.22,3.22,0,0,0,70.848.108,3.09,3.09,0,0,0,73.956-2.088Zm7.1-3.288a1.477,1.477,0,0,1,1.584,1.428H79.488A1.544,1.544,0,0,1,81.06-5.376Zm3.156,3.288H82.4a1.37,1.37,0,0,1-1.332.8,1.555,1.555,0,0,1-1.6-1.536h4.86a3.926,3.926,0,0,0,.048-.648,3.121,3.121,0,0,0-3.276-3.288,3.194,3.194,0,0,0-3.336,3.432A3.22,3.22,0,0,0,81.108.108,3.09,3.09,0,0,0,84.216-2.088ZM89.28,0h1.9L88.968-3.336l2.184-3.312h-1.8L88.128-4.6,86.772-6.648h-1.9l2.2,3.312L84.9,0h1.8l1.212-2.064Zm3.072-2.064C92.352-.54,93.2,0,94.476,0h1.056V-1.416h-.78c-.528,0-.708-.192-.708-.636V-5.268h1.488v-1.38H94.044V-8.292H92.352v1.644H91.56v1.38h.792ZM99.6-5.376a1.477,1.477,0,0,1,1.584,1.428H98.028A1.544,1.544,0,0,1,99.6-5.376Zm3.156,3.288h-1.812a1.37,1.37,0,0,1-1.332.8,1.555,1.555,0,0,1-1.6-1.536h4.86a3.926,3.926,0,0,0,.048-.648,3.121,3.121,0,0,0-3.276-3.288,3.194,3.194,0,0,0-3.336,3.432A3.22,3.22,0,0,0,99.648.108,3.09,3.09,0,0,0,102.756-2.088ZM108.8,0h1.68V-3.9a2.557,2.557,0,0,0-2.652-2.844,2.483,2.483,0,0,0-2,.924v-.828h-1.68V0h1.68V-3.672a1.443,1.443,0,0,1,1.5-1.644A1.438,1.438,0,0,1,108.8-3.672Zm3.54-2.064C112.344-.54,113.2,0,114.468,0h1.056V-1.416h-.78c-.528,0-.708-.192-.708-.636V-5.268h1.488v-1.38h-1.488V-8.292h-1.692v1.644h-.792v1.38h.792Z" transform="translate(15.091 23)" fill="#fff"/></g></g><g transform="translate(-1.796 278.653)"><g transform="translate(0 0)"><g transform="matrix(1, 0, 0, 1, -33.09, -65.36)" filter="url(#e)"><rect width="145" height="37" rx="18.5" transform="translate(24 65)" fill="#0f72ee"/></g><path d="M.384-7.02H2.616V0H4.3V-7.02H6.528V-8.376H.384Zm13.788,3.7a3.285,3.285,0,0,0-3.42-3.432,3.285,3.285,0,0,0-3.42,3.432A3.254,3.254,0,0,0,10.7.108,3.324,3.324,0,0,0,14.172-3.324Zm-5.136,0a1.73,1.73,0,0,1,1.692-1.968,1.747,1.747,0,0,1,1.716,1.968A1.77,1.77,0,0,1,10.7-1.356C9.8-1.356,9.036-2,9.036-3.324Zm8.8-.024A3.155,3.155,0,0,0,20.856.108a2.622,2.622,0,0,0,2.208-1.08V0h1.692V-6.648H23.064V-5.7a2.629,2.629,0,0,0-2.2-1.056A3.113,3.113,0,0,0,17.832-3.348Zm5.232.024A1.79,1.79,0,0,1,21.3-1.368a1.817,1.817,0,0,1-1.752-1.98A1.773,1.773,0,0,1,21.3-5.28,1.79,1.79,0,0,1,23.064-3.324ZM29.256,0h1.68V-8.88h-1.68Zm3.336,0h1.68V-6.648h-1.68Zm.852-7.44a.992.992,0,0,0,1.032-.984.992.992,0,0,0-1.032-.984.985.985,0,0,0-1.032.984A.985.985,0,0,0,33.444-7.44Zm2.748,5.376C36.192-.54,37.044,0,38.316,0h1.056V-1.416h-.78c-.528,0-.708-.192-.708-.636V-5.268h1.488v-1.38H37.884V-8.292H36.192v1.644H35.4v1.38h.792Zm4.656,0C40.848-.54,41.7,0,42.972,0h1.056V-1.416h-.78c-.528,0-.708-.192-.708-.636V-5.268h1.488v-1.38H42.54V-8.292H40.848v1.644h-.792v1.38h.792ZM45.24,0h1.68V-8.88H45.24Zm6.192-5.376a1.477,1.477,0,0,1,1.584,1.428H49.86A1.544,1.544,0,0,1,51.432-5.376Zm3.156,3.288H52.776a1.37,1.37,0,0,1-1.332.8,1.555,1.555,0,0,1-1.6-1.536h4.86a3.926,3.926,0,0,0,.048-.648A3.121,3.121,0,0,0,51.48-6.756a3.194,3.194,0,0,0-3.336,3.432A3.22,3.22,0,0,0,51.48.108,3.09,3.09,0,0,0,54.588-2.088Zm7.1-3.288a1.477,1.477,0,0,1,1.584,1.428H60.12A1.544,1.544,0,0,1,61.692-5.376Zm3.156,3.288H63.036a1.37,1.37,0,0,1-1.332.8,1.555,1.555,0,0,1-1.6-1.536h4.86a3.927,3.927,0,0,0,.048-.648A3.121,3.121,0,0,0,61.74-6.756,3.194,3.194,0,0,0,58.4-3.324,3.22,3.22,0,0,0,61.74.108,3.09,3.09,0,0,0,64.848-2.088ZM69.912,0h1.9L69.6-3.336l2.184-3.312h-1.8L68.76-4.6,67.4-6.648h-1.9l2.2,3.312L65.532,0h1.8l1.212-2.064Zm3.072-2.064C72.984-.54,73.836,0,75.108,0h1.056V-1.416h-.78c-.528,0-.708-.192-.708-.636V-5.268h1.488v-1.38H74.676V-8.292H72.984v1.644h-.792v1.38h.792Zm7.248-3.312a1.477,1.477,0,0,1,1.584,1.428H78.66A1.544,1.544,0,0,1,80.232-5.376Zm3.156,3.288H81.576a1.37,1.37,0,0,1-1.332.8,1.555,1.555,0,0,1-1.6-1.536h4.86a3.926,3.926,0,0,0,.048-.648A3.121,3.121,0,0,0,80.28-6.756a3.194,3.194,0,0,0-3.336,3.432A3.22,3.22,0,0,0,80.28.108,3.09,3.09,0,0,0,83.388-2.088ZM89.436,0h1.68V-3.9a2.557,2.557,0,0,0-2.652-2.844,2.483,2.483,0,0,0-2,.924v-.828H84.78V0h1.68V-3.672a1.443,1.443,0,0,1,1.5-1.644,1.438,1.438,0,0,1,1.476,1.644Zm3.54-2.064C92.976-.54,93.828,0,95.1,0h1.056V-1.416h-.78c-.528,0-.708-.192-.708-.636V-5.268h1.488v-1.38H94.668V-8.292H92.976v1.644h-.792v1.38h.792Z" transform="translate(14.909 22.637)" fill="#fff"/></g></g><g transform="translate(161.022 278.653)"><g transform="translate(0 0)"><g transform="matrix(1, 0, 0, 1, -195.91, -65.36)" filter="url(#g)"><rect width="147" height="37" rx="18.5" transform="translate(171 65)" fill="#0f72ee"/></g><path d="M6.312-8.388v5.76l-3.8-5.76H.828V0h1.68V-5.748L6.312,0h1.68V-8.388Zm9.756,5.064a3.285,3.285,0,0,0-3.42-3.432,3.285,3.285,0,0,0-3.42,3.432A3.254,3.254,0,0,0,12.6.108,3.324,3.324,0,0,0,16.068-3.324Zm-5.136,0a1.73,1.73,0,0,1,1.692-1.968A1.747,1.747,0,0,1,14.34-3.324,1.77,1.77,0,0,1,12.6-1.356C11.7-1.356,10.932-2,10.932-3.324Zm6.636,1.26C17.568-.54,18.42,0,19.692,0h1.056V-1.416h-.78c-.528,0-.708-.192-.708-.636V-5.268h1.488v-1.38H19.26V-8.292H17.568v1.644h-.792v1.38h.792Zm6.816-1.284A3.155,3.155,0,0,0,27.408.108a2.622,2.622,0,0,0,2.208-1.08V0h1.692V-6.648H29.616V-5.7a2.629,2.629,0,0,0-2.2-1.056A3.113,3.113,0,0,0,24.384-3.348Zm5.232.024a1.79,1.79,0,0,1-1.764,1.956A1.817,1.817,0,0,1,26.1-3.348,1.773,1.773,0,0,1,27.852-5.28,1.79,1.79,0,0,1,29.616-3.324Zm3.6,1.26C33.216-.54,34.068,0,35.34,0H36.4V-1.416h-.78c-.528,0-.708-.192-.708-.636V-5.268H36.4v-1.38H34.908V-8.292H33.216v1.644h-.792v1.38h.792Zm6.816-1.284A3.155,3.155,0,0,0,43.056.108a2.622,2.622,0,0,0,2.208-1.08V0h1.692V-6.648H45.264V-5.7a2.629,2.629,0,0,0-2.2-1.056A3.113,3.113,0,0,0,40.032-3.348Zm5.232.024A1.79,1.79,0,0,1,43.5-1.368a1.817,1.817,0,0,1-1.752-1.98A1.773,1.773,0,0,1,43.5-5.28,1.79,1.79,0,0,1,45.264-3.324ZM48.6,0h1.68V-8.88H48.6Zm3.336,0h1.68V-8.88h-1.68Z" transform="translate(21.091 22.637)" fill="#fff"/></g></g></g></svg>