<svg xmlns="http://www.w3.org/2000/svg" xmlns:xlink="http://www.w3.org/1999/xlink" width="253" height="232" viewBox="0 0 253 232"><defs><filter id="a" x="0" y="0" width="253" height="232" filterUnits="userSpaceOnUse"><feOffset dy="16" input="SourceAlpha"/><feGaussianBlur stdDeviation="12" result="b"/><feFlood flood-opacity="0.161"/><feComposite operator="in" in2="b"/><feComposite in="SourceGraphic"/></filter></defs><g transform="translate(-195 -133)"><g transform="matrix(1, 0, 0, 1, 195, 133)" filter="url(#a)"><rect width="181" height="160" rx="16" transform="translate(36 20)" fill="#fff"/></g><rect width="72" height="6" rx="3" transform="translate(264 284) rotate(-90)" fill="#0f72ee" opacity="0.2"/><rect width="8" height="6" rx="3" transform="translate(264 297) rotate(-90)" fill="#eee"/><rect width="85" height="6" rx="3" transform="translate(286 284) rotate(-90)" fill="#0f72ee"/><rect width="8" height="6" rx="3" transform="translate(286 297) rotate(-90)" fill="#eee"/><rect width="64" height="6" rx="3" transform="translate(308 284) rotate(-90)" fill="#0f72ee" opacity="0.2"/><rect width="8" height="6" rx="3" transform="translate(308 297) rotate(-90)" fill="#eee"/><rect width="72" height="6" rx="3" transform="translate(330 284) rotate(-90)" fill="#0f72ee" opacity="0.2"/><rect width="8" height="6" rx="3" transform="translate(330 297) rotate(-90)" fill="#eee"/><rect width="76" height="6" rx="3" transform="translate(352 284) rotate(-90)" fill="#0f72ee" opacity="0.2"/><rect width="8" height="6" rx="3" transform="translate(352 297) rotate(-90)" fill="#eee"/><rect width="82" height="6" rx="3" transform="translate(374 284) rotate(-90)" fill="#0f72ee" opacity="0.2"/><rect width="8" height="6" rx="3" transform="translate(374 297) rotate(-90)" fill="#eee"/><rect width="8" height="84" rx="4" transform="translate(252 181) rotate(-90)" fill="#0f72ee" opacity="0.1"/></g></svg>