<svg xmlns="http://www.w3.org/2000/svg" xmlns:xlink="http://www.w3.org/1999/xlink" width="228" height="111" viewBox="0 0 228 111"><defs><filter id="a" x="0" y="0" width="228" height="111" filterUnits="userSpaceOnUse"><feOffset dy="16" input="SourceAlpha"/><feGaussianBlur stdDeviation="12" result="b"/><feFlood flood-opacity="0.161"/><feComposite operator="in" in2="b"/><feComposite in="SourceGraphic"/></filter></defs><g transform="translate(-1095 -1954)"><g transform="matrix(1, 0, 0, 1, 1095, 1954)" filter="url(#a)"><path d="M16,0H140a16,16,0,0,1,16,16v7a16,16,0,0,1-16,16H0a0,0,0,0,1,0,0V16A16,16,0,0,1,16,0Z" transform="translate(36 20)" fill="#0f72ee"/></g><path d="M6.426-9.744H1.05V0H6.426V-1.3H2.646V-4.284h3.36v-1.3H2.646V-8.442h3.78ZM19.32,0H20.9V-4.55a3.014,3.014,0,0,0-3.178-3.29,3.02,3.02,0,0,0-2.688,1.526A2.975,2.975,0,0,0,12.264-7.84,2.938,2.938,0,0,0,9.982-6.832v-.882h-1.6V0h1.6V-4.312a1.87,1.87,0,0,1,1.946-2.142c1.162,0,1.932.728,1.932,2.142V0h1.582V-4.312a1.87,1.87,0,0,1,1.946-2.142c1.162,0,1.932.728,1.932,2.142Zm5.208-6.58V-7.714h-1.6V3.668h1.6V-1.12A3.488,3.488,0,0,0,27.216.126a3.723,3.723,0,0,0,3.626-4.018A3.661,3.661,0,0,0,27.216-7.84,3.366,3.366,0,0,0,24.528-6.58Zm4.69,2.688A2.432,2.432,0,0,1,26.866-1.26a2.4,2.4,0,0,1-2.338-2.6,2.4,2.4,0,0,1,2.338-2.59A2.369,2.369,0,0,1,29.218-3.892ZM32.424,0h1.6V-10.36h-1.6ZM43.47-3.864A3.8,3.8,0,0,0,39.536-7.84,3.8,3.8,0,0,0,35.6-3.864,3.761,3.761,0,0,0,39.466.126,3.864,3.864,0,0,0,43.47-3.864Zm-6.244,0a2.3,2.3,0,0,1,2.282-2.59,2.334,2.334,0,0,1,2.324,2.59,2.376,2.376,0,0,1-2.366,2.6C38.262-1.26,37.226-2.114,37.226-3.864ZM48.09-1.834l-2.17-5.88H44.142L47.18-.126,45.612,3.626h1.652L52-7.714H50.344ZM56.448-6.5A2,2,0,0,1,58.6-4.55h-4.27A2.1,2.1,0,0,1,56.448-6.5ZM60.06-2.3H58.338a1.868,1.868,0,0,1-1.82,1.078,2.122,2.122,0,0,1-2.2-2.044h5.894a4.923,4.923,0,0,0,.056-.784A3.6,3.6,0,0,0,56.518-7.84a3.694,3.694,0,0,0-3.85,3.976,3.743,3.743,0,0,0,3.85,3.99A3.525,3.525,0,0,0,60.06-2.3Zm5.026-4.2A2,2,0,0,1,67.242-4.55h-4.27A2.1,2.1,0,0,1,65.086-6.5ZM68.7-2.3H66.976a1.868,1.868,0,0,1-1.82,1.078,2.122,2.122,0,0,1-2.2-2.044h5.894a4.923,4.923,0,0,0,.056-.784A3.6,3.6,0,0,0,65.156-7.84a3.694,3.694,0,0,0-3.85,3.976,3.743,3.743,0,0,0,3.85,3.99A3.525,3.525,0,0,0,68.7-2.3Zm11.984-.462c0-3.556-5.152-2.184-5.152-4.382,0-.938.714-1.386,1.638-1.358A1.522,1.522,0,0,1,78.806-7.21H80.57c-.14-1.666-1.456-2.646-3.318-2.646-1.988,0-3.346,1.064-3.346,2.772,0,3.584,5.166,2.058,5.166,4.41,0,.826-.63,1.428-1.75,1.428a1.561,1.561,0,0,1-1.736-1.442H73.878C73.878-.966,75.376.1,77.322.1,79.492.1,80.682-1.3,80.682-2.758ZM85.82-6.5A2,2,0,0,1,87.976-4.55h-4.27A2.1,2.1,0,0,1,85.82-6.5Zm3.612,4.2H87.71a1.868,1.868,0,0,1-1.82,1.078,2.122,2.122,0,0,1-2.2-2.044h5.894a4.923,4.923,0,0,0,.056-.784A3.6,3.6,0,0,0,85.89-7.84a3.694,3.694,0,0,0-3.85,3.976A3.743,3.743,0,0,0,85.89.126,3.525,3.525,0,0,0,89.432-2.3Zm1.246-1.6A3.729,3.729,0,0,0,94.29.126a3.32,3.32,0,0,0,2.7-1.274V0H98.6V-7.714h-1.61v1.12A3.283,3.283,0,0,0,94.318-7.84,3.672,3.672,0,0,0,90.678-3.892Zm6.314.028a2.4,2.4,0,0,1-2.338,2.6,2.43,2.43,0,0,1-2.338-2.632,2.367,2.367,0,0,1,2.338-2.562A2.392,2.392,0,0,1,96.992-3.864Zm5.306-.2c0-1.638.728-2.128,1.9-2.128h.406V-7.84a2.513,2.513,0,0,0-2.31,1.246v-1.12h-1.6V0h1.6Zm3.248.2a3.689,3.689,0,0,0,3.78,3.99,3.465,3.465,0,0,0,3.556-2.562H111.16a1.762,1.762,0,0,1-1.834,1.218c-1.288,0-2.142-.952-2.142-2.646s.854-2.632,2.142-2.632a1.8,1.8,0,0,1,1.834,1.218h1.722a3.356,3.356,0,0,0-3.556-2.562A3.685,3.685,0,0,0,105.546-3.864ZM114.478,0h1.6V-4.312a1.87,1.87,0,0,1,1.946-2.142c1.162,0,1.932.728,1.932,2.142V0h1.582V-4.55a2.974,2.974,0,0,0-3.066-3.29,3.058,3.058,0,0,0-2.394,1.022V-10.36h-1.6Z" transform="translate(1147 1999)" fill="#fff"/></g></svg>