<svg xmlns="http://www.w3.org/2000/svg" xmlns:xlink="http://www.w3.org/1999/xlink" width="150" height="150" viewBox="0 0 150 150"><defs><filter id="a" x="0" y="0" width="150" height="150" filterUnits="userSpaceOnUse"><feOffset dy="6" input="SourceAlpha"/><feGaussianBlur stdDeviation="18" result="b"/><feFlood flood-opacity="0.161"/><feComposite operator="in" in2="b"/><feComposite in="SourceGraphic"/></filter></defs><g transform="translate(-1176.302 -742.038)"><g transform="matrix(1, 0, 0, 1, 1176.3, 742.04)" filter="url(#a)"><path d="M16,0H26A16,16,0,0,1,42,16V26A16,16,0,0,1,26,42H0a0,0,0,0,1,0,0V16A16,16,0,0,1,16,0Z" transform="translate(54 90) rotate(-90)" fill="#fff"/></g><g transform="translate(1238.622 798.199)"><ellipse cx="12.763" cy="12.763" rx="12.763" ry="12.763" transform="translate(0 25.527) rotate(-90)" fill="#0f72ee"/><rect width="12.763" height="12.763" transform="translate(12.763 25.527) rotate(-90)" fill="#0f72ee"/><g transform="translate(6.872 9.681)"><line x2="10.793" transform="translate(0 0)" fill="none" stroke="#fff" stroke-linecap="round" stroke-width="2"/><line x2="10.793" transform="translate(0 3.334)" fill="none" stroke="#fff" stroke-linecap="round" stroke-width="2"/><line x2="5.774" transform="translate(0.131 6.667)" fill="none" stroke="#fff" stroke-linecap="round" stroke-width="2"/></g></g></g></svg>