<svg xmlns="http://www.w3.org/2000/svg" width="231.729" height="283.18" viewBox="0 0 231.729 283.18"><g transform="translate(-993.928 -1937.675)"><g transform="translate(993.928 2125.109)"><g transform="translate(0 0)"><path d="M-873.2,18.708h-.01a2.081,2.081,0,0,0-2.08,2.084,2.089,2.089,0,0,0,2.09,2.084,2.084,2.084,0,0,0,2.084-2.084A2.084,2.084,0,0,0-873.2,18.708Zm0,13.081h-.01a2.081,2.081,0,0,0-2.08,2.084,2.089,2.089,0,0,0,2.09,2.084,2.084,2.084,0,0,0,2.084-2.084A2.084,2.084,0,0,0-873.2,31.79Zm0,26.165h-.01a2.081,2.081,0,0,0-2.08,2.084,2.088,2.088,0,0,0,2.09,2.084,2.083,2.083,0,0,0,2.084-2.084A2.084,2.084,0,0,0-873.2,57.955Zm0-13.083h-.01a2.081,2.081,0,0,0-2.08,2.084,2.089,2.089,0,0,0,2.09,2.084,2.084,2.084,0,0,0,2.084-2.084A2.084,2.084,0,0,0-873.2,44.872Zm14.9-65.414h-.011a2.078,2.078,0,0,0-2.078,2.084,2.09,2.09,0,0,0,2.09,2.084,2.085,2.085,0,0,0,2.084-2.084A2.083,2.083,0,0,0-858.3-20.541ZM-873.2,5.626h-.01a2.08,2.08,0,0,0-2.08,2.083,2.09,2.09,0,0,0,2.09,2.085,2.085,2.085,0,0,0,2.084-2.085A2.084,2.084,0,0,0-873.2,5.626Zm-14.9,30.332a2.084,2.084,0,0,0,2.084-2.084A2.084,2.084,0,0,0-888.1,31.79h-.01a2.081,2.081,0,0,0-2.08,2.084A2.089,2.089,0,0,0-888.1,35.958Zm0,13.083a2.084,2.084,0,0,0,2.084-2.084,2.084,2.084,0,0,0-2.084-2.084h-.01a2.081,2.081,0,0,0-2.08,2.084A2.089,2.089,0,0,0-888.1,49.04Zm14.9-82.664h-.01a2.081,2.081,0,0,0-2.08,2.084,2.089,2.089,0,0,0,2.09,2.084,2.084,2.084,0,0,0,2.084-2.084A2.084,2.084,0,0,0-873.2-33.624Zm0,13.083h-.01a2.08,2.08,0,0,0-2.08,2.084,2.09,2.09,0,0,0,2.09,2.084,2.085,2.085,0,0,0,2.084-2.084A2.083,2.083,0,0,0-873.2-20.541Zm0,13.083h-.01a2.08,2.08,0,0,0-2.08,2.084,2.089,2.089,0,0,0,2.09,2.083,2.084,2.084,0,0,0,2.084-2.083A2.083,2.083,0,0,0-873.2-7.459Zm44.695,30.335a2.085,2.085,0,0,0,2.084-2.084,2.085,2.085,0,0,0-2.084-2.084h-.011a2.079,2.079,0,0,0-2.078,2.084A2.089,2.089,0,0,0-828.505,22.876Zm0-13.083a2.086,2.086,0,0,0,2.084-2.085,2.085,2.085,0,0,0-2.084-2.083h-.011A2.079,2.079,0,0,0-830.6,7.708,2.09,2.09,0,0,0-828.505,9.794Zm-.813-13.25a2.077,2.077,0,0,0,.813.164,2.051,2.051,0,0,0,.848-.189c.009,0,.014-.011.023-.014a2.078,2.078,0,0,0,.659-.492h0a2.062,2.062,0,0,0,.553-1.388,2.085,2.085,0,0,0-2.084-2.084h-.011A2.079,2.079,0,0,0-830.6-5.376h0A2.083,2.083,0,0,0-829.318-3.456Zm-57.306,62.022a2.316,2.316,0,0,0-.215-.146,2.044,2.044,0,0,0-1.259-.465h-.011a2.079,2.079,0,0,0-2.078,2.084,2.069,2.069,0,0,0,.6,1.452h0a2.077,2.077,0,0,0,1.49.631,2.09,2.09,0,0,0,.311-.062h0a2.044,2.044,0,0,0,1.236-.66,2.088,2.088,0,0,0,.123-.185,1.988,1.988,0,0,0,.256-.414,2.006,2.006,0,0,0,.153-.751v-.01a2.064,2.064,0,0,0-.537-1.366C-886.581,58.641-886.594,58.6-886.625,58.566ZM-888.1,22.876a2.084,2.084,0,0,0,2.084-2.084,2.084,2.084,0,0,0-2.084-2.084h-.01a2.081,2.081,0,0,0-2.08,2.084A2.089,2.089,0,0,0-888.1,22.876Zm29.8,22h-.011a2.079,2.079,0,0,0-2.078,2.084,2.089,2.089,0,0,0,2.09,2.084,2.084,2.084,0,0,0,2.084-2.084A2.084,2.084,0,0,0-858.3,44.872Zm0-39.247h-.011a2.079,2.079,0,0,0-2.078,2.083,2.09,2.09,0,0,0,2.09,2.085,2.085,2.085,0,0,0,2.084-2.085A2.084,2.084,0,0,0-858.3,5.626Zm0,13.083h-.011a2.079,2.079,0,0,0-2.078,2.084,2.089,2.089,0,0,0,2.09,2.084,2.084,2.084,0,0,0,2.084-2.084A2.084,2.084,0,0,0-858.3,18.708Zm0,13.081h-.011a2.079,2.079,0,0,0-2.078,2.084,2.089,2.089,0,0,0,2.09,2.084,2.084,2.084,0,0,0,2.084-2.084A2.084,2.084,0,0,0-858.3,31.79Zm0-39.248h-.011a2.078,2.078,0,0,0-2.078,2.084,2.089,2.089,0,0,0,2.09,2.083,2.084,2.084,0,0,0,2.084-2.083A2.083,2.083,0,0,0-858.3-7.459Zm14.9-13.083h-.011a2.078,2.078,0,0,0-2.078,2.084,2.09,2.09,0,0,0,2.09,2.084,2.085,2.085,0,0,0,2.084-2.084A2.083,2.083,0,0,0-843.4-20.541Zm-14.9-8.915a2.084,2.084,0,0,0,2.084-2.084v0a2.018,2.018,0,0,0-.243-.928c-.014-.027-.032-.047-.048-.072a2.049,2.049,0,0,0-.608-.667h0a2.028,2.028,0,0,0-1.182-.414h-.011a2.079,2.079,0,0,0-2.078,2.084A2.09,2.09,0,0,0-858.3-29.456Zm14.9,61.245h-.011a2.079,2.079,0,0,0-2.078,2.084,2.089,2.089,0,0,0,2.09,2.084,2.084,2.084,0,0,0,2.084-2.084A2.084,2.084,0,0,0-843.4,31.79Zm0,13.083h-.011a2.079,2.079,0,0,0-2.078,2.084,2.089,2.089,0,0,0,2.09,2.084,2.084,2.084,0,0,0,2.084-2.084A2.084,2.084,0,0,0-843.4,44.872Zm0-52.331h-.011a2.078,2.078,0,0,0-2.078,2.084,2.089,2.089,0,0,0,2.09,2.083,2.084,2.084,0,0,0,2.084-2.083A2.083,2.083,0,0,0-843.4-7.459Zm0,26.167h-.011a2.079,2.079,0,0,0-2.078,2.084,2.089,2.089,0,0,0,2.09,2.084,2.084,2.084,0,0,0,2.084-2.084A2.084,2.084,0,0,0-843.4,18.708ZM-917.894-7.459h-.011a1.818,1.818,0,0,0-.663.133,2.023,2.023,0,0,0-.51.277h0a2.047,2.047,0,0,0-.9,1.673,1.908,1.908,0,0,0,.051.25h0l0,.006a2.04,2.04,0,0,0,.657,1.282c.048.044.11.069.163.11a2.01,2.01,0,0,0,.448.279,1.974,1.974,0,0,0,.768.156,2.086,2.086,0,0,0,1.921-1.272,2.086,2.086,0,0,0,.163-.81,2.087,2.087,0,0,0-.163-.812A2.086,2.086,0,0,0-917.894-7.459ZM-843.4,5.626h-.011a2.079,2.079,0,0,0-2.078,2.083,2.09,2.09,0,0,0,2.09,2.085,2.085,2.085,0,0,0,2.084-2.085A2.084,2.084,0,0,0-843.4,5.626ZM-917.894,31.79h-.011a1.975,1.975,0,0,0-.734.148,2.045,2.045,0,0,0-.317.178,2.243,2.243,0,0,0-.256.174,2.007,2.007,0,0,0-.349.386c-.02.03-.04.058-.06.089a2,2,0,0,0-.253.567h0a2.034,2.034,0,0,0-.107.54,2.069,2.069,0,0,0,1.181,1.855h0a2.041,2.041,0,0,0,.9.225l.01,0a2.083,2.083,0,0,0,2.084-2.084,2.1,2.1,0,0,0-.163-.812A2.086,2.086,0,0,0-917.894,31.79Zm0-26.164h-.011a2.08,2.08,0,0,0-2.078,2.083,2.091,2.091,0,0,0,2.09,2.085,2.084,2.084,0,0,0,2.084-2.085A2.083,2.083,0,0,0-917.894,5.626Zm0,13.083h-.011a2.08,2.08,0,0,0-2.078,2.084,2.09,2.09,0,0,0,2.09,2.084,2.083,2.083,0,0,0,2.084-2.084A2.083,2.083,0,0,0-917.894,18.708Zm14.9-13.083h-.011a2.079,2.079,0,0,0-2.078,2.083,2.09,2.09,0,0,0,2.09,2.085,2.086,2.086,0,0,0,2.084-2.085A2.085,2.085,0,0,0-902.995,5.626Zm14.9-35.081a2.084,2.084,0,0,0,2.084-2.084,2.084,2.084,0,0,0-2.084-2.084h-.01a2.081,2.081,0,0,0-2.08,2.084A2.089,2.089,0,0,0-888.1-29.456Zm0,26.164a2.084,2.084,0,0,0,2.084-2.083A2.083,2.083,0,0,0-888.1-7.459h-.01a2.08,2.08,0,0,0-2.08,2.084A2.089,2.089,0,0,0-888.1-3.292Zm0-13.081a2.085,2.085,0,0,0,2.084-2.084,2.083,2.083,0,0,0-2.084-2.084h-.01a2.08,2.08,0,0,0-2.08,2.084A2.09,2.09,0,0,0-888.1-16.373Zm-14.9,48.163h-.011a2.079,2.079,0,0,0-2.078,2.084,2.089,2.089,0,0,0,2.09,2.084,2.085,2.085,0,0,0,2.084-2.084A2.085,2.085,0,0,0-902.995,31.79Zm0-13.081h-.011a2.079,2.079,0,0,0-2.078,2.084,2.089,2.089,0,0,0,2.09,2.084,2.085,2.085,0,0,0,2.084-2.084A2.085,2.085,0,0,0-902.995,18.708Zm0-39.25h-.011a2.079,2.079,0,0,0-2.078,2.084,2.09,2.09,0,0,0,2.09,2.084,2.086,2.086,0,0,0,2.084-2.084A2.084,2.084,0,0,0-902.995-20.541Zm14.9,30.335a2.085,2.085,0,0,0,2.084-2.085A2.084,2.084,0,0,0-888.1,5.626h-.01a2.08,2.08,0,0,0-2.08,2.083A2.09,2.09,0,0,0-888.1,9.794Zm-14.9,35.079h-.011a2.079,2.079,0,0,0-2.078,2.084,2.089,2.089,0,0,0,2.09,2.084,2.085,2.085,0,0,0,2.084-2.084A2.085,2.085,0,0,0-902.995,44.872Zm0-52.331h-.011a2.079,2.079,0,0,0-2.078,2.084,2.089,2.089,0,0,0,2.09,2.083,2.085,2.085,0,0,0,2.084-2.083A2.084,2.084,0,0,0-902.995-7.459Zm75.263,39.405a2.016,2.016,0,0,0-.657-.133c-.04,0-.075-.024-.116-.024h-.011a2.079,2.079,0,0,0-2.078,2.084,2.018,2.018,0,0,0,.161.786,2.016,2.016,0,0,0,.3.455c.044.055.069.123.117.174a2.062,2.062,0,0,0,1.359.636l.009,0h0c.052,0,.1.03.148.03a2.084,2.084,0,0,0,2.084-2.084A2.076,2.076,0,0,0-827.732,31.946ZM-858.3,57.955h-.011a2.029,2.029,0,0,0-1.257.467,2.016,2.016,0,0,0-.214.144,2.076,2.076,0,0,0-.574,1.311c-.005.057-.034.106-.034.163h0a1.992,1.992,0,0,0,.149.725,1.714,1.714,0,0,0,.1.205,2.169,2.169,0,0,0,.279.413,1.978,1.978,0,0,0,.163.18,2.068,2.068,0,0,0,.561.378h0a2.069,2.069,0,0,0,.841.184,2.062,2.062,0,0,0,1.958-1.458,1.764,1.764,0,0,0,.123-.614l0-.013A2.084,2.084,0,0,0-858.3,57.955Z" transform="translate(919.984 33.624)" fill="#00ceff"/></g></g><g transform="translate(1123.297 1916.807) rotate(30)"><path d="M0,0A64.317,64.317,0,0,0,5.364,5.144H88.4A64.322,64.322,0,0,0,93.766,0Z" transform="translate(17.068 107.427)" fill="#00ceff"/><path d="M0,0Q1.65,2.572,3.535,4.971H104.158q1.883-2.4,3.537-4.971Z" transform="translate(10.104 98.431)" fill="#00ceff"/><path d="M63.948,5.316A63.926,63.926,0,0,0,73.079,0H0A63.908,63.908,0,0,0,9.129,5.316Z" transform="translate(27.412 116.422)" fill="#00ceff"/><path d="M35.8,2.558a63.908,63.908,0,0,0-35.8,0Z" transform="translate(46.052 0)" fill="#00ceff"/><path d="M0,0Q1.067,2.453,2.324,4.8H114.992q1.262-2.342,2.324-4.8Z" transform="translate(5.293 89.434)" fill="#00ceff"/><path d="M0,1.5c0,.933.032,1.859.07,2.781H127.832c.039-.922.07-1.848.07-2.781,0-.5-.026-1-.039-1.5H.039C.026.5,0,1,0,1.5Z" transform="translate(0 62.446)" fill="#00ceff"/><path d="M0,3.427H94.564C93.483,2.239,92.346,1.1,91.177,0H3.389C2.22,1.1,1.083,2.239,0,3.427Z" transform="translate(16.669 17.466)" fill="#00ceff"/><path d="M1.739,0C1.123,1.236.537,2.489,0,3.771H117.985c-.537-1.281-1.125-2.535-1.741-3.771Z" transform="translate(4.959 35.459)" fill="#00ceff"/><path d="M0,0C.417,1.569.9,3.111,1.429,4.628H122.161q.8-2.276,1.428-4.628Z" transform="translate(2.156 80.439)" fill="#00ceff"/><path d="M2.427,0Q1.155,1.756,0,3.6H108.451Q107.3,1.758,106.022,0Z" transform="translate(9.726 26.461)" fill="#00ceff"/><path d="M0,0A63.917,63.917,0,0,0,17.635,2.482,63.926,63.926,0,0,0,35.27,0Z" transform="translate(46.316 125.419)" fill="#00ceff"/><path d="M5.1,0Q2.466,1.508,0,3.255H73.772Q71.306,1.51,68.676,0Z" transform="translate(27.065 8.471)" fill="#00ceff"/><path d="M0,0Q.264,2.255.681,4.457H126.32q.417-2.2.68-4.457Z" transform="translate(0.451 71.442)" fill="#00ceff"/><path d="M.555,0C.329,1.357.137,2.727,0,4.112H127.266c-.137-1.385-.331-2.755-.554-4.112Z" transform="translate(0.319 53.451)" fill="#00ceff"/><path d="M1.121,0Q.5,1.946,0,3.943H124.072q-.5-2-1.123-3.943Z" transform="translate(1.915 44.454)" fill="#00ceff"/></g><path d="M-20.677-26.473C15.061-57.5,107.149-8.707,153.686,32.881s20.2,82.071-22.945,105.211S10.065,165.665-18.905,125.443-56.414,4.554-20.677-26.473Z" transform="translate(1047.403 2014.218)" fill="#00ceff"/></g></svg>