<svg xmlns="http://www.w3.org/2000/svg" width="72" height="72" viewBox="0 0 72 72"><defs><style>.a{fill:#fff;}.b{fill:#00ceff;}.c{fill:#0f72ee;}</style></defs><g transform="translate(-3811 -842.077)"><rect class="a" width="72" height="72" transform="translate(3811 842.077)"/><g transform="translate(3815.505 849.511)"><g transform="translate(12.013 7.508)"><circle class="b" cx="25.526" cy="25.526" r="25.526"/><rect class="b" width="25.526" height="25.526" transform="translate(0 25.526)"/></g><circle class="c" cx="23.274" cy="23.274" r="23.274"/><rect class="c" width="22.523" height="24.025" transform="translate(0 22.523)"/><path class="a" d="M10.51,39.027v.012H0V25.526A25.545,25.545,0,0,1,28.542.176,23.273,23.273,0,0,1,11.261,39.039C11.01,39.039,10.76,39.035,10.51,39.027Z" transform="translate(12.012 7.508)"/><g transform="translate(19.032 19.967)"><path class="c" d="M18.36,68.552,8.089,78.823,2.5,73.236,0,75.739l8.089,8.089L20.863,71.055Z" transform="translate(0 -68.552)"/></g></g></g></svg>