<svg xmlns="http://www.w3.org/2000/svg" width="124.248" height="131.242" viewBox="0 0 124.248 131.242"><path d="M10002.215,2412.747l34.9-130.242h7.3l-34.824,129.964c-2.372.18-4.759.278-7.159.278Zm-13.912-1.036,34.621-129.206h7.029l-34.822,129.961Q9991.722,2412.211,9988.3,2411.71Zm63-129.206h7.57l-34.2,127.647q-3.945.932-7.98,1.526Zm-74.2,126.916c-.207-.056-.411-.114-.615-.174v-6.382l32.251-120.36h6.756l-34.271,127.907C9979.847,2410.1,9978.474,2409.788,9977.1,2409.421Zm88.389-126.916h7.84l-32.8,122.4q-4.269,1.823-8.707,3.24Zm14.188,0h8.11l-30.3,113.078a98.285,98.285,0,0,1-9.683,5.864Zm14.186,0h.167a97.4,97.4,0,0,1,4.126,15.266l-21.613,80.666a97.479,97.479,0,0,1-11.423,11.336Zm-117.377,67.416,18.063-67.416h6.486l-24.55,91.624Zm123.231-36.317a97.288,97.288,0,0,1-13.9,51.9Zm-123.231-16.64,3.874-14.458h6.22l-10.094,37.672Z" transform="translate(-9975.985 -2282.005)" fill="#fff" stroke="rgba(0,0,0,0)" stroke-miterlimit="10" stroke-width="1"/></svg>