<svg xmlns="http://www.w3.org/2000/svg" width="113.622" height="123.513" viewBox="0 0 113.622 123.513"><path d="M11786.853,2509.817a3.661,3.661,0,0,1,3.659-3.669h.021a3.669,3.669,0,1,1-3.681,3.669Zm-26.232,0a3.664,3.664,0,0,1,3.663-3.669h.018a3.669,3.669,0,1,1-3.681,3.669Zm-26.231,0a3.663,3.663,0,0,1,3.662-3.669h.019a3.669,3.669,0,1,1-3.681,3.669Zm-26.229,0a3.662,3.662,0,0,1,3.66-3.669h.021a3.669,3.669,0,1,1-3.681,3.669Zm-22.571,3.666a3.635,3.635,0,0,1-1.579-.4l0,0a3.341,3.341,0,0,1-1.888-4.219l0,0a3.449,3.449,0,0,1,.445-1c.033-.057.068-.1.1-.158a3.536,3.536,0,0,1,.615-.681,3.6,3.6,0,0,1,.449-.3,3.561,3.561,0,0,1,.559-.315,3.448,3.448,0,0,1,1.291-.262h.021a3.669,3.669,0,1,1,0,7.338Zm101.265-26.7a3.661,3.661,0,0,1,3.659-3.669h.021a3.669,3.669,0,1,1-3.681,3.669Zm-26.232,0a3.664,3.664,0,0,1,3.663-3.669h.018a3.669,3.669,0,1,1-3.681,3.669Zm-26.231,0a3.663,3.663,0,0,1,3.662-3.669h.019a3.669,3.669,0,1,1-3.681,3.669Zm-26.229,0a3.662,3.662,0,0,1,3.66-3.669h.021a3.669,3.669,0,1,1-3.681,3.669Zm-26.234,0a3.665,3.665,0,0,1,3.66-3.669h.021a3.669,3.669,0,1,1-3.681,3.669Zm104.928-23.039a3.66,3.66,0,0,1,3.659-3.666h.021a3.669,3.669,0,1,1-3.681,3.666Zm-26.232,0a3.664,3.664,0,0,1,3.663-3.666h.018a3.669,3.669,0,1,1-3.681,3.666Zm-26.231,0a3.663,3.663,0,0,1,3.662-3.666h.019a3.669,3.669,0,1,1-3.681,3.666Zm-26.229,0a3.661,3.661,0,0,1,3.66-3.666h.021a3.669,3.669,0,1,1-3.681,3.666Zm-26.234,0a3.664,3.664,0,0,1,3.66-3.666h.021a3.669,3.669,0,1,1-3.681,3.666Zm104.928-23.033a3.66,3.66,0,0,1,3.659-3.672h.021a3.669,3.669,0,1,1-3.681,3.672Zm-26.232,0a3.663,3.663,0,0,1,3.663-3.672h.018a3.669,3.669,0,1,1-3.681,3.672Zm-26.231,0a3.662,3.662,0,0,1,3.662-3.672h.019a3.669,3.669,0,1,1-3.681,3.672Zm-26.229,0a3.66,3.66,0,0,1,3.66-3.672h.021a3.669,3.669,0,1,1-3.681,3.672Zm-23.906,3.392a3.479,3.479,0,0,1-.788-.49c-.092-.071-.2-.116-.288-.193a3.6,3.6,0,0,1-1.157-2.26l-.006-.009h0a3.767,3.767,0,0,1-.089-.44,3.61,3.61,0,0,1,1.588-2.946v0h0a3.607,3.607,0,0,1,.9-.488,3.219,3.219,0,0,1,1.166-.235h.021a3.669,3.669,0,1,1,0,7.338A3.464,3.464,0,0,1,11684.253,2444.105Zm102.6-26.428a3.659,3.659,0,0,1,3.659-3.669h.021a3.669,3.669,0,1,1-3.681,3.669Zm-26.232,0a3.662,3.662,0,0,1,3.663-3.669h.018a3.669,3.669,0,1,1-3.681,3.669Zm-26.231,0a3.662,3.662,0,0,1,3.662-3.669h.019a3.669,3.669,0,1,1-3.681,3.669Zm-26.229,0a3.66,3.66,0,0,1,3.66-3.669h.021a3.669,3.669,0,1,1-3.681,3.669Zm78.693-23.036a3.661,3.661,0,0,1,3.659-3.669h.021a3.579,3.579,0,0,1,2.081.729h0a3.607,3.607,0,0,1,1.067,1.174c.029.048.063.08.086.128a3.564,3.564,0,0,1,.431,1.632v.006a3.674,3.674,0,0,1-7.349,0Zm-26.232,0a3.664,3.664,0,0,1,3.663-3.669h.018a3.669,3.669,0,1,1-3.681,3.669Zm-26.231,0a3.663,3.663,0,0,1,3.662-3.669h.019a3.669,3.669,0,1,1-3.681,3.669Z" transform="translate(-11681.079 -2390.473)" fill="#fff" stroke="rgba(0,0,0,0)" stroke-miterlimit="10" stroke-width="1"/></svg>