<svg xmlns="http://www.w3.org/2000/svg" width="465.033" height="227.327" viewBox="0 0 465.033 227.327"><defs><style>.a{fill:#0f72ee;}.b,.d{fill:#00ceff;}.c{fill:#fff;}.d{opacity:0.8;}</style></defs><g transform="translate(-1010.007 -358.591)"><g transform="translate(1108.274 450.428) rotate(-24)"><path class="a" d="M225.79,0a112.9,112.9,0,0,1-112.9,112.9A112.9,112.9,0,0,1,0,0Z" transform="translate(0 0)"/><ellipse class="b" cx="31.958" cy="31.958" rx="31.958" ry="31.958" transform="translate(90.202 88.886)"/><path class="c" d="M0,22.036a31.97,31.97,0,0,1,58.911-4.507,112.687,112.687,0,0,1-37.788,6.479A113.5,113.5,0,0,1,0,22.036Z" transform="translate(91.773 88.887)"/></g><circle class="b" cx="20.933" cy="20.933" r="20.933" transform="translate(1010.368 498.205)"/><circle class="b" cx="20.933" cy="20.933" r="20.933" transform="translate(1055.431 544.052)"/><ellipse class="d" cx="21.251" cy="21.252" rx="21.251" ry="21.252" transform="translate(1136.973 399.408) rotate(-24)"/><circle class="b" cx="20.933" cy="20.933" r="20.933" transform="translate(1010.007 543.827)"/><path class="c" d="M0,13.353,29.99,0A21.209,21.209,0,0,1,18.148,13.758,21.184,21.184,0,0,1,9.516,15.6,21.315,21.315,0,0,1,0,13.353Z" transform="translate(1155.526 415.834)"/><circle class="b" cx="20.933" cy="20.933" r="20.933" transform="translate(1474.679 540.072) rotate(180)"/><circle class="b" cx="20.933" cy="20.933" r="20.933" transform="translate(1429.617 585.919) rotate(180)"/><circle class="b" cx="20.933" cy="20.933" r="20.933" transform="translate(1475.04 585.694) rotate(180)"/></g></svg>