<svg xmlns="http://www.w3.org/2000/svg" width="404" height="404" viewBox="0 0 404 404"><defs><style>.a{fill:#00ceff;}.b{fill:#fff;}.c{fill:#0f72ee;}.d{fill:#103577;}.e{fill:none;stroke:#fff;stroke-linecap:round;stroke-width:65px;}</style></defs><g transform="translate(1206 2358) rotate(180)"><rect class="a" width="404" height="404" rx="4" transform="translate(802 1954)"/><rect class="b" width="143" height="64" transform="translate(925 2198)"/><rect class="b" width="155" height="64" transform="translate(802 2050)"/><rect class="b" width="155" height="64" transform="translate(802 2272)"/><rect class="c" width="93" height="64" transform="translate(1075 2124)"/><rect class="c" width="93" height="64" transform="translate(865 1976)"/><rect class="c" width="78" height="64" transform="translate(802 2124)"/><circle class="c" cx="32" cy="32" r="32" transform="translate(1036 2198)"/><circle class="c" cx="32" cy="32" r="32" transform="translate(925 2050)"/><circle class="c" cx="32" cy="32" r="32" transform="translate(925 2272)"/><circle class="d" cx="32" cy="32" r="32" transform="translate(1136 2124)"/><circle class="d" cx="32" cy="32" r="32" transform="translate(926 1976)"/><circle class="d" cx="32" cy="32" r="32" transform="translate(848 2124)"/><path class="e" d="M1206,2102.229"/><circle class="d" cx="32" cy="32" r="32" transform="translate(898 2198)"/><circle class="b" cx="32" cy="32" r="32" transform="translate(1043 2124)"/><circle class="b" cx="32" cy="32" r="32" transform="translate(833 1976)"/><rect class="c" width="58" height="64" transform="translate(1206 2336) rotate(180)"/><rect class="c" width="168" height="64" transform="translate(1206 2040) rotate(180)"/><circle class="d" cx="32" cy="32" r="32" transform="translate(1180 2336) rotate(180)"/><circle class="d" cx="32" cy="32" r="32" transform="translate(1070 2040) rotate(180)"/></g></svg>