<svg xmlns="http://www.w3.org/2000/svg" width="64" height="64" viewBox="0 0 64 64"><defs><style>.a{fill:#fff;}.b{fill:#0f72ee;}.c{fill:#00ceff;}</style></defs><g transform="translate(-1161 -1730)"><path class="a" d="M0,0H64V64H0Z" transform="translate(1161 1730)"/><g transform="translate(1 3)"><path class="b" d="M7.555,3.235a.4.4,0,0,0-.347-.277l-2.186-.2L4.158.736a.4.4,0,0,0-.74,0L2.553,2.76l-2.187.2a.4.4,0,0,0-.229.7L1.79,5.112,1.3,7.259a.4.4,0,0,0,.6.435L3.788,6.567,5.673,7.694a.4.4,0,0,0,.6-.435L5.785,5.112,7.437,3.663A.4.4,0,0,0,7.555,3.235Zm0,0" transform="translate(1179.556 1738.748)"/><path class="c" d="M7.555,3.235a.4.4,0,0,0-.347-.277l-2.186-.2L4.158.736a.4.4,0,0,0-.74,0L2.553,2.76l-2.187.2a.4.4,0,0,0-.229.7L1.79,5.112,1.3,7.259a.4.4,0,0,0,.6.435L3.788,6.567,5.673,7.694a.4.4,0,0,0,.6-.435L5.785,5.112,7.437,3.663A.4.4,0,0,0,7.555,3.235Zm0,0" transform="translate(1189.455 1736.769)"/><path class="b" d="M7.555,3.235a.4.4,0,0,0-.347-.277l-2.186-.2L4.158.736a.4.4,0,0,0-.74,0L2.553,2.76l-2.187.2a.4.4,0,0,0-.229.7L1.79,5.112,1.3,7.259a.4.4,0,0,0,.6.435L3.788,6.567,5.673,7.694a.4.4,0,0,0,.6-.435L5.785,5.112,7.437,3.663A.4.4,0,0,0,7.555,3.235Zm0,0" transform="translate(1199.354 1738.748)"/></g><g transform="translate(1184.065 1752.051)"><ellipse class="b" cx="6.31" cy="6.31" rx="6.31" ry="6.31" transform="translate(4.347)"/><path class="c" d="M10,0h1.04a10,10,0,0,1,10,10V21.04a0,0,0,0,1,0,0H0a0,0,0,0,1,0,0V10A10,10,0,0,1,10,0Z" transform="translate(0 12.893)"/></g><g transform="translate(1169.065 1757.776)"><ellipse class="c" cx="5.245" cy="5.245" rx="5.245" ry="5.245" transform="translate(3.613)"/><path class="b" d="M8.745,0h0A8.745,8.745,0,0,1,17.49,8.745V17.49a0,0,0,0,1,0,0H0a0,0,0,0,1,0,0V8.745A8.745,8.745,0,0,1,8.745,0Z" transform="translate(0 10.718)"/></g><g transform="translate(1200.065 1757.776)"><ellipse class="c" cx="5.245" cy="5.245" rx="5.245" ry="5.245" transform="translate(3.613)"/><path class="b" d="M8.745,0h0A8.745,8.745,0,0,1,17.49,8.745V17.49a0,0,0,0,1,0,0H0a0,0,0,0,1,0,0V8.745A8.745,8.745,0,0,1,8.745,0Z" transform="translate(0 10.718)"/></g></g></svg>