<svg xmlns="http://www.w3.org/2000/svg" width="64" height="64" viewBox="0 0 64 64"><defs><style>.a{fill:#fff;}.b,.g{fill:#0f72ee;}.c,.d{fill:#00ceff;}.d{opacity:0.5;}.e,.f{fill:none;stroke:#fff;}.e,.f,.g{stroke-width:0.5px;}.f{stroke-linecap:round;stroke-linejoin:round;}.g{stroke:#00ceff;}</style></defs><g transform="translate(-3748 -841.893)"><g transform="translate(3748 842)"><rect class="a" width="64" height="64" transform="translate(0 -0.107)"/><g transform="translate(7.987 6.655)"><circle class="b" cx="23.96" cy="23.96" r="23.96"/><rect class="b" width="23.96" height="23.96" transform="translate(23.96 23.96)"/></g></g><circle class="a" cx="2.662" cy="2.662" r="2.662" transform="translate(3758.648 867.291)"/><circle class="a" cx="2.662" cy="2.662" r="2.662" transform="translate(3769.298 869.953)"/><circle class="a" cx="2.662" cy="2.662" r="2.662" transform="translate(3783.939 853.98)"/><circle class="a" cx="2.662" cy="2.662" r="2.662" transform="translate(3771.96 852.649)"/><circle class="a" cx="2.662" cy="2.662" r="2.662" transform="translate(3779.946 865.96)"/><circle class="c" cx="2.662" cy="2.662" r="2.662" transform="translate(3753.325 848.655)"/><g transform="translate(3750.661 845.993)"><circle class="d" cx="3.993" cy="3.993" r="3.993" transform="translate(1.331 1.331)"/><circle class="d" cx="5.324" cy="5.324" r="5.324"/></g><path class="e" d="M3768.671,882.129l-9.8-15,11,2.882-2.683-10.239,14.092,6.429,3.253-12.118-30.618-4.63" transform="translate(1.957 2.466)"/><path class="f" d="M3753.789,849.436l13.87,11.152-8.267,7.364Z" transform="translate(1.919 2.462)"/><path class="g" d="M3763.954,850.973l-10.22-1.591" transform="translate(1.902 2.444)"/><circle class="a" cx="2.662" cy="2.662" r="2.662" transform="translate(3766.635 860.635)"/><circle class="a" cx="2.662" cy="2.662" r="2.662" transform="translate(3767.966 881.933)"/><path class="g" d="M3760,854.4l-6.267-5.015" transform="translate(1.902 2.444)"/><path class="g" d="M3756.907,859.753l-3.33-11.078" transform="translate(1.85 2.21)"/><path class="e" d="M4660.023,862.539l1.027-10.8" transform="translate(-889.178 20.769)"/></g></svg>