<svg xmlns="http://www.w3.org/2000/svg" width="202" height="430" viewBox="0 0 202 430"><defs><style>.a,.d,.f,.h{fill:#fff;}.a{stroke:#707070;}.b{fill:#0f72ee;}.c{fill:#f6f6f6;}.e{fill:#212121;}.e,.f{font-size:10px;}.e,.f,.h{font-family:Poppins-SemiBold, Poppins;font-weight:600;letter-spacing:0.011em;}.g{fill:#103577;}.h{font-size:8px;}.i{stroke:none;}.j{fill:none;}</style></defs><g transform="translate(-583 -815)"><g class="a" transform="translate(586 815)"><rect class="i" width="199" height="430" rx="22"/><rect class="j" x="0.5" y="0.5" width="198" height="429" rx="21.5"/></g><rect class="b" width="201" height="22" transform="translate(583 815)"/><g transform="translate(0 43)"><circle class="b" cx="12.5" cy="12.5" r="12.5" transform="translate(595 868)"/><circle class="b" cx="12.5" cy="12.5" r="12.5" transform="translate(599 1011)"/><circle class="b" cx="12.5" cy="12.5" r="12.5" transform="translate(747 821)"/><circle class="b" cx="12.5" cy="12.5" r="12.5" transform="translate(747 948)"/><g transform="translate(-4)"><path class="c" d="M0,0H31.5A12.5,12.5,0,0,1,44,12.5v0A12.5,12.5,0,0,1,31.5,25h-19A12.5,12.5,0,0,1,0,12.5V0A0,0,0,0,1,0,0Z" transform="translate(630 868)"/><rect class="c" width="124" height="25" rx="12.5" transform="translate(630 895)"/><path class="d" d="M400.937,347.558a3.194,3.194,0,1,1,3.18-3.195v.677h-4.882a1.827,1.827,0,0,0,2.866.741l.124-.1,1.037.876-.158.15A3.16,3.16,0,0,1,400.937,347.558Zm1.7-3.874a1.827,1.827,0,0,0-3.4,0Z" transform="translate(206.888 535.38)"/><path class="d" d="M701.351,347.412a3.2,3.2,0,1,1,3.179-3.2v.678H699.65a1.827,1.827,0,0,0,2.866.741l.124-.1,1.037.876-.16.15A3.159,3.159,0,0,1,701.351,347.412Zm1.7-3.874a1.828,1.828,0,0,0-3.4,0Z" transform="translate(-86.729 535.526)"/><path class="d" d="M313.211,268.218a.773.773,0,0,1-.771-.775v-6.469a5.126,5.126,0,0,1,5.106-5.132h6.8a5.132,5.132,0,0,1,0,10.264h-6.66a.383.383,0,0,0-.172.041l-3.955,1.985a.762.762,0,0,1-.347.085Zm4.336-11.02a3.771,3.771,0,0,0-3.758,3.777V266.5l3.118-1.567a1.733,1.733,0,0,1,.778-.184h6.66a3.777,3.777,0,0,0,0-7.553Z" transform="translate(290.278 618.768)"/><text class="e" transform="translate(637 883)"><tspan x="0" y="0">Hello </tspan></text><text class="e" transform="translate(637 910)"><tspan x="0" y="0">How can I help you?</tspan></text></g><g transform="translate(0 143)"><path class="c" d="M0,0H27.5A12.5,12.5,0,0,1,40,12.5v0A12.5,12.5,0,0,1,27.5,25h-15A12.5,12.5,0,0,1,0,12.5V0A0,0,0,0,1,0,0Z" transform="translate(630 868)"/><rect class="c" width="106" height="45" rx="13" transform="translate(630 895)"/><rect class="b" width="135" height="24" rx="12" transform="translate(630 948)"/><path class="d" d="M400.937,347.558a3.194,3.194,0,1,1,3.18-3.195v.677h-4.882a1.827,1.827,0,0,0,2.866.741l.124-.1,1.037.876-.158.15A3.16,3.16,0,0,1,400.937,347.558Zm1.7-3.874a1.827,1.827,0,0,0-3.4,0Z" transform="translate(206.888 535.38)"/><path class="d" d="M701.351,347.412a3.2,3.2,0,1,1,3.179-3.2v.678H699.65a1.827,1.827,0,0,0,2.866.741l.124-.1,1.037.876-.16.15A3.159,3.159,0,0,1,701.351,347.412Zm1.7-3.874a1.828,1.828,0,0,0-3.4,0Z" transform="translate(-86.729 535.526)"/><path class="d" d="M313.211,268.218a.773.773,0,0,1-.771-.775v-6.469a5.126,5.126,0,0,1,5.106-5.132h6.8a5.132,5.132,0,0,1,0,10.264h-6.66a.383.383,0,0,0-.172.041l-3.955,1.985a.762.762,0,0,1-.347.085Zm4.336-11.02a3.771,3.771,0,0,0-3.758,3.777V266.5l3.118-1.567a1.733,1.733,0,0,1,.778-.184h6.66a3.777,3.777,0,0,0,0-7.553Z" transform="translate(290.278 618.768)"/><text class="e" transform="translate(638 883)"><tspan x="0" y="0">Sure</tspan></text><text class="e" transform="translate(638 913)"><tspan x="0" y="0">Click this button</tspan><tspan x="0" y="16">to apply a leave</tspan></text><text class="f" transform="translate(664 963)"><tspan x="0" y="0">Apply Leave</tspan></text></g><path class="c" d="M12.5,0H79a0,0,0,0,1,0,0V12.5A12.5,12.5,0,0,1,66.5,25h-54A12.5,12.5,0,0,1,0,12.5v0A12.5,12.5,0,0,1,12.5,0Z" transform="translate(662 821)"/><path class="c" d="M13,0h87a0,0,0,0,1,0,0V26A13,13,0,0,1,87,39H13A13,13,0,0,1,0,26V13A13,13,0,0,1,13,0Z" transform="translate(641 948)"/><text class="e" transform="translate(676 836)"><tspan x="0" y="0">Hey Leena</tspan></text><text class="e" transform="translate(733 963)"><tspan x="-76.616" y="0">I want to apply</tspan><tspan x="-54.411" y="16">for a leave</tspan></text><g transform="translate(0.745 86.136)"><circle class="d" cx="2.5" cy="2.5" r="2.5" transform="translate(756.256 868.864)"/><circle class="g" cx="3.5" cy="3.5" r="3.5" transform="translate(755.256 873.864)"/><rect class="g" width="7" height="4" transform="translate(755.256 876.864)"/></g></g><g transform="translate(744 760.335)"><g transform="translate(3.258 65.302)"><path class="d" d="M210.2,358.88a.681.681,0,1,0,.684.681A.683.683,0,0,0,210.2,358.88Z" transform="translate(-209.516 -358.88)"/></g><g transform="translate(2.143 63.684)"><path class="d" d="M141.274,255.523a2.361,2.361,0,0,0-3.332,0,.46.46,0,0,0,.651.65,1.437,1.437,0,0,1,2.028,0,.46.46,0,0,0,.653-.648Z" transform="translate(-137.807 -254.833)"/></g><g transform="translate(0 60.665)"><g transform="translate(0)"><path class="d" d="M7.752,62.239a5.4,5.4,0,0,0-7.617,0,.46.46,0,0,0,.651.65,4.476,4.476,0,0,1,6.314,0,.46.46,0,1,0,.652-.649Z" transform="translate(0 -60.665)"/></g></g><g transform="translate(1.098 62.213)"><g transform="translate(0 0)"><path class="d" d="M76.183,161.32a3.842,3.842,0,0,0-5.42,0,.46.46,0,0,0,.651.65,2.918,2.918,0,0,1,4.117,0,.46.46,0,1,0,.652-.649Z" transform="translate(-70.628 -160.2)"/></g></g></g><g transform="translate(756 693)"><g transform="translate(0 128)"><path class="d" d="M11.625,129.875H11.25V129.5a.375.375,0,0,0-.375-.375H10.5v-.375a.75.75,0,0,0-.75-.75h-9a.75.75,0,0,0-.75.75v4.5a.75.75,0,0,0,.75.75h9a.75.75,0,0,0,.75-.75v-.375h.375a.375.375,0,0,0,.375-.375v-.375h.375A.375.375,0,0,0,12,131.75v-1.5A.375.375,0,0,0,11.625,129.875ZM9.75,133.25h-9v-4.5h9Z" transform="translate(0 -128)"/><rect class="d" width="0.75" height="3" transform="translate(1.5 1.5)"/><rect class="d" width="0.75" height="3" transform="translate(3 1.5)"/></g></g><text class="h" transform="translate(599 828)"><tspan x="0" y="0">12:30</tspan></text><g transform="translate(0.744 1.136)"><circle class="d" cx="2.5" cy="2.5" r="2.5" transform="translate(756.256 868.864)"/><circle class="g" cx="3.5" cy="3.5" r="3.5" transform="translate(755.256 873.864)"/><rect class="g" width="7" height="4" transform="translate(755.256 876.864)"/></g></g></svg>