<svg xmlns="http://www.w3.org/2000/svg" width="64" height="64" viewBox="0 0 64 64"><defs><style>.a{fill:#fff;}.b{fill:#00ceff;}.c{fill:#0f72ee;}</style></defs><g transform="translate(-3811 -841.975)"><rect class="a" width="64" height="64" transform="translate(3811 841.975)"/><g transform="translate(3814.999 848.664)"><g transform="translate(10.663 6.664)"><circle class="b" cx="22.658" cy="22.658" r="22.658"/><rect class="b" width="22.658" height="22.658" transform="translate(0 22.658)"/></g><circle class="c" cx="20.659" cy="20.659" r="20.659"/><rect class="c" width="19.992" height="21.325" transform="translate(0 19.992)"/><path class="a" d="M9.329,34.641v.011H0V22.658A22.675,22.675,0,0,1,25.335.157,20.658,20.658,0,0,1,10,34.652C9.773,34.652,9.551,34.649,9.329,34.641Z" transform="translate(10.663 6.665)"/><g transform="translate(16.893 17.723)"><path class="c" d="M16.3,68.552,7.18,77.669,2.221,72.71,0,74.931l7.18,7.18L18.518,70.773Z" transform="translate(0 -68.552)"/></g></g></g></svg>