<svg xmlns="http://www.w3.org/2000/svg" width="64" height="64" viewBox="0 0 64 64"><defs><style>.a{fill:#fff;}.b{fill:#0f72ee;}.c{fill:#00ceff;}.d{fill:none;stroke:#fff;stroke-linecap:round;stroke-width:0.5px;}</style></defs><g transform="translate(-3811 -842.039)"><rect class="a" width="64" height="64" transform="translate(3811 842.039)"/><g transform="translate(3820.653 848.861)"><circle class="b" cx="6.861" cy="6.861" r="6.861" transform="translate(4.765 15.152)"/><circle class="c" cx="8.577" cy="8.577" r="8.577" transform="translate(23.062 6.004)"/><path class="c" d="M10,0h2.681a10,10,0,0,1,10,10V22.681a0,0,0,0,1,0,0H0a0,0,0,0,1,0,0V10A10,10,0,0,1,10,0Z" transform="translate(0 27.159)"/><path class="b" d="M10,0h8.6a10,10,0,0,1,10,10V28.6a0,0,0,0,1,0,0H0a0,0,0,0,1,0,0V10A10,10,0,0,1,10,0Z" transform="translate(17.153 21.242)"/><path class="a" d="M0,20.719V2.121A10,10,0,0,1,.4-.695,10,10,0,0,1,5.528,8.039v12.68Z" transform="translate(17.153 29.121)"/><g transform="translate(24.746 29.121)"><path class="a" d="M13.288,68.552,5.854,75.986,1.811,71.942,0,73.753l5.854,5.854L15.1,70.363Z" transform="translate(0 -68.552)"/></g><g transform="translate(1.875 36.513)"><path class="a" d="M9.9,68.552,4.362,74.091,1.349,71.078,0,72.427,4.362,76.79,11.25,69.9Z" transform="translate(0 -68.552)"/></g><g transform="translate(1.782)"><circle class="b" cx="6.065" cy="6.065" r="6.065"/><rect class="b" width="5.87" height="6.261" transform="translate(6.261 5.87)"/><line class="d" x2="6.861" transform="translate(2.982 4.86)"/><line class="d" x2="6.861" transform="translate(2.982 6.004)"/><line class="d" x2="3.431" transform="translate(2.982 7.147)"/></g></g></g></svg>