<svg xmlns="http://www.w3.org/2000/svg" width="64" height="64" viewBox="0 0 64 64"><defs><style>.a{fill:#fff;}.b{fill:#0f72ee;}.c{fill:#00ceff;}</style></defs><g transform="translate(-3834 -919.111)"><g transform="translate(3834 919)"><rect class="a" width="64" height="64" transform="translate(0 0.111)"/><g transform="translate(6.869 27.755)"><circle class="b" cx="15.059" cy="15.059" r="15.059" transform="translate(0 0)"/><rect class="b" width="15.059" height="15.059" transform="translate(0 15.059)"/></g><circle class="b" cx="3.5" cy="3.5" r="3.5" transform="translate(10 7.111)"/><g transform="translate(12.593 40.07)"><ellipse class="a" cx="2" cy="2.5" rx="2" ry="2.5" transform="translate(0.407 1.042)"/><circle class="a" cx="2.5" cy="2.5" r="2.5" transform="translate(6.407 0.042)"/><circle class="a" cx="2.5" cy="2.5" r="2.5" transform="translate(13.407 1.042)"/></g><ellipse class="c" cx="3" cy="3.5" rx="3" ry="3.5" transform="translate(52 17.111)"/><path class="c" d="M3,0H23a3,3,0,0,1,3,3V4a3,3,0,0,1-3,3H0A0,0,0,0,1,0,7V3A3,3,0,0,1,3,0Z" transform="translate(18 7.111)"/><path class="b" d="M3,0H21a3,3,0,0,1,3,3V7a0,0,0,0,1,0,0H3A3,3,0,0,1,0,4V3A3,3,0,0,1,3,0Z" transform="translate(26 17.111)"/></g></g></svg>