<svg xmlns="http://www.w3.org/2000/svg" width="64" height="64" viewBox="0 0 64 64"><defs><style>.a{fill:#fff;}.b{fill:#00ceff;}.c{fill:#0f72ee;}</style></defs><g transform="translate(-3834 -841.624)"><g transform="translate(3834 841.624)"><g transform="translate(0 0)"><rect class="a" width="64" height="64"/><g transform="translate(6.628 3.021)"><g transform="translate(0)"><g transform="translate(2.651 5.302)"><circle class="b" cx="23.861" cy="23.861" r="23.861" transform="translate(0 0)"/><rect class="b" width="22.536" height="23.861" transform="translate(0 23.861)"/></g><circle class="a" cx="20.547" cy="20.547" r="20.547"/><rect class="a" width="19.884" height="21.21" transform="translate(0 19.884)"/><circle class="b" cx="2.651" cy="2.651" r="2.651" transform="translate(21.21 3.977)"/><circle class="c" cx="2.651" cy="2.651" r="2.651" transform="translate(6.628 23.861) rotate(90)"/><circle class="b" cx="2.651" cy="2.651" r="2.651" transform="translate(7.611 32.833) rotate(60)"/><circle class="b" cx="2.651" cy="2.651" r="2.651" transform="translate(10.263 15.6) rotate(120)"/><circle class="c" cx="2.651" cy="2.651" r="2.651" transform="translate(17.541 10.263) rotate(150)"/><circle class="c" cx="2.651" cy="2.651" r="2.651" transform="translate(32.833 5.671) rotate(30)"/><rect class="c" width="14.582" height="2.651" rx="1" transform="translate(25.187 11.931) rotate(90)"/><circle class="b" cx="3.977" cy="3.977" r="3.977" transform="translate(19.884 22.536)"/></g></g></g></g></g></svg>