<svg xmlns="http://www.w3.org/2000/svg" width="205.339" height="231.125" viewBox="0 0 205.339 231.125"><defs><style>.a{fill:#fff;}.b{fill:none;stroke:#b0d1fa;opacity:0.2;}.c{fill:#e5f0fd;}</style></defs><g transform="translate(-980.556 -2430.857)"><g transform="translate(1037.332 2430.857) rotate(17)"><rect class="a" width="155.352" height="194.19" rx="4" transform="translate(0)"/><line class="b" x2="143.087" transform="translate(12.776 37.305)"/><line class="b" x2="143.087" transform="translate(12.776 49.57)"/><line class="b" x2="143.087" transform="translate(12.776 61.834)"/><line class="b" x2="143.087" transform="translate(12.776 74.099)"/><line class="b" x2="143.087" transform="translate(12.776 86.363)"/><line class="b" x2="143.087" transform="translate(12.776 98.628)"/><line class="b" x2="143.087" transform="translate(12.776 110.893)"/><line class="b" x2="143.087" transform="translate(12.776 123.157)"/><line class="b" x2="143.087" transform="translate(12.776 135.422)"/><line class="b" x2="143.087" transform="translate(12.776 147.686)"/><line class="b" x2="143.087" transform="translate(12.776 159.951)"/><line class="b" x2="143.087" transform="translate(12.776 172.216)"/><line class="b" x2="143.087" transform="translate(12.776 184.48)"/><line class="b" y2="147.175" transform="translate(12.776 37.305)"/><line class="b" y2="147.175" transform="translate(103.738 37.305)"/><rect class="c" width="37.816" height="3.066" rx="1.533" transform="translate(22.485 41.904)"/><rect class="c" width="25.551" height="3.066" rx="1.533" transform="translate(22.485 26.573)"/><rect class="c" width="25.551" height="3.066" rx="1.533" transform="translate(52.125 26.573)"/><rect class="c" width="25.551" height="3.066" rx="1.533" transform="translate(81.764 26.573)"/><rect class="c" width="25.551" height="3.066" rx="1.533" transform="translate(111.404 26.573)"/><rect class="c" width="87.896" height="5.11" rx="2.555" transform="translate(22.485 15.331)"/><rect class="c" width="14.309" height="3.066" rx="1.533" transform="translate(22.485 54.169)"/><rect class="c" width="28.617" height="3.066" rx="1.533" transform="translate(22.485 66.433)"/><rect class="c" width="48.036" height="3.066" rx="1.533" transform="translate(22.485 78.698)"/><rect class="c" width="66.433" height="3.066" rx="1.533" transform="translate(22.485 90.963)"/><rect class="c" width="48.036" height="3.066" rx="1.533" transform="translate(22.485 103.227)"/><rect class="c" width="33.728" height="3.066" rx="1.533" transform="translate(22.485 115.492)"/><rect class="c" width="21.463" height="3.066" rx="1.533" transform="translate(22.485 127.756)"/><rect class="c" width="21.463" height="3.066" rx="1.533" transform="translate(22.485 152.286)"/><rect class="c" width="14.309" height="3.066" rx="1.533" transform="translate(22.485 140.021)"/><rect class="c" width="14.309" height="3.066" rx="1.533" transform="translate(22.485 164.55)"/><rect class="c" width="28.617" height="3.066" rx="1.533" transform="translate(53.147 66.433)"/><rect class="c" width="28.617" height="3.066" rx="1.533" transform="translate(113.448 66.433)"/><rect class="c" width="28.617" height="3.066" rx="1.533" transform="translate(113.448 115.492)"/><rect class="c" width="13.287" height="3.066" rx="1.533" transform="translate(113.448 90.963)"/><rect class="c" width="13.287" height="3.066" rx="1.533" transform="translate(113.448 103.227)"/><rect class="c" width="13.287" height="3.066" rx="1.533" transform="translate(130.823 103.227)"/></g><g transform="translate(1005.539 2449.4)"><rect class="a" width="155" height="195" rx="4" transform="translate(-0.098 -0.41)"/><line class="b" x2="143.087" transform="translate(12.776 37.305)"/><line class="b" x2="143.087" transform="translate(12.776 49.57)"/><line class="b" x2="143.087" transform="translate(12.776 61.834)"/><line class="b" x2="143.087" transform="translate(12.776 74.099)"/><line class="b" x2="143.087" transform="translate(12.776 86.363)"/><line class="b" x2="143.087" transform="translate(12.776 98.628)"/><line class="b" x2="143.087" transform="translate(12.776 110.893)"/><line class="b" x2="143.087" transform="translate(12.776 123.157)"/><line class="b" x2="143.087" transform="translate(12.776 135.422)"/><line class="b" x2="143.087" transform="translate(12.776 147.686)"/><line class="b" x2="143.087" transform="translate(12.776 159.951)"/><line class="b" x2="143.087" transform="translate(12.776 172.216)"/><line class="b" x2="143.087" transform="translate(12.776 184.48)"/><line class="b" y2="147.175" transform="translate(12.776 37.305)"/><line class="b" y2="147.175" transform="translate(103.738 37.305)"/><rect class="c" width="37" height="3" rx="1.5" transform="translate(22.902 41.59)"/><rect class="c" width="25" height="3" rx="1.5" transform="translate(22.902 26.59)"/><rect class="c" width="26" height="3" rx="1.5" transform="translate(51.902 26.59)"/><rect class="c" width="25" height="3" rx="1.5" transform="translate(81.902 26.59)"/><rect class="c" width="25" height="3" rx="1.5" transform="translate(111.902 26.59)"/><rect class="c" width="87" height="5" rx="2.5" transform="translate(22.902 15.59)"/><rect class="c" width="14" height="3" rx="1.5" transform="translate(22.902 54.59)"/><rect class="c" width="28" height="3" rx="1.5" transform="translate(22.902 66.59)"/><rect class="c" width="48" height="3" rx="1.5" transform="translate(22.902 78.59)"/><rect class="c" width="66" height="3" rx="1.5" transform="translate(22.902 90.59)"/><rect class="c" width="48" height="3" rx="1.5" transform="translate(22.902 103.59)"/><rect class="c" width="33" height="3" rx="1.5" transform="translate(22.902 115.59)"/><rect class="c" width="21" height="3" rx="1.5" transform="translate(22.902 127.59)"/><rect class="c" width="21" height="3" rx="1.5" transform="translate(22.902 152.59)"/><rect class="c" width="14" height="3" rx="1.5" transform="translate(22.902 139.59)"/><rect class="c" width="14" height="3" rx="1.5" transform="translate(22.902 164.59)"/><rect class="c" width="29" height="3" rx="1.5" transform="translate(52.902 66.59)"/><rect class="c" width="28" height="3" rx="1.5" transform="translate(113.902 66.59)"/><rect class="c" width="28" height="3" rx="1.5" transform="translate(113.902 115.59)"/><rect class="c" width="13" height="3" rx="1.5" transform="translate(113.902 90.59)"/><rect class="c" width="13" height="3" rx="1.5" transform="translate(113.902 103.59)"/><rect class="c" width="13" height="3" rx="1.5" transform="translate(130.902 103.59)"/></g></g></svg>