<svg xmlns="http://www.w3.org/2000/svg" xmlns:xlink="http://www.w3.org/1999/xlink" width="277.339" height="303.125" viewBox="0 0 277.339 303.125"><defs><filter id="a" x="0" y="0" width="277.339" height="303.125" filterUnits="userSpaceOnUse"><feOffset dy="16" input="SourceAlpha"/><feGaussianBlur stdDeviation="12" result="b"/><feFlood flood-opacity="0.161"/><feComposite operator="in" in2="b"/><feComposite in="SourceGraphic"/></filter></defs><g transform="translate(-944.556 -2410.857)"><g transform="translate(1037.332 2430.857) rotate(17)"><g transform="matrix(0.96, -0.29, 0.29, 0.96, -94.57, 8)" filter="url(#a)"><rect width="155.352" height="194.19" rx="4" transform="translate(92.78 20) rotate(17)" fill="#fff"/></g><line x2="143.087" transform="translate(12.776 37.305)" fill="none" stroke="#b0d1fa" stroke-width="1" opacity="0.2"/><line x2="143.087" transform="translate(12.776 49.57)" fill="none" stroke="#b0d1fa" stroke-width="1" opacity="0.2"/><line x2="143.087" transform="translate(12.776 61.834)" fill="none" stroke="#b0d1fa" stroke-width="1" opacity="0.2"/><line x2="143.087" transform="translate(12.776 74.099)" fill="none" stroke="#b0d1fa" stroke-width="1" opacity="0.2"/><line x2="143.087" transform="translate(12.776 86.363)" fill="none" stroke="#b0d1fa" stroke-width="1" opacity="0.2"/><line x2="143.087" transform="translate(12.776 98.628)" fill="none" stroke="#b0d1fa" stroke-width="1" opacity="0.2"/><line x2="143.087" transform="translate(12.776 110.893)" fill="none" stroke="#b0d1fa" stroke-width="1" opacity="0.2"/><line x2="143.087" transform="translate(12.776 123.157)" fill="none" stroke="#b0d1fa" stroke-width="1" opacity="0.2"/><line x2="143.087" transform="translate(12.776 135.422)" fill="none" stroke="#b0d1fa" stroke-width="1" opacity="0.2"/><line x2="143.087" transform="translate(12.776 147.686)" fill="none" stroke="#b0d1fa" stroke-width="1" opacity="0.2"/><line x2="143.087" transform="translate(12.776 159.951)" fill="none" stroke="#b0d1fa" stroke-width="1" opacity="0.2"/><line x2="143.087" transform="translate(12.776 172.216)" fill="none" stroke="#b0d1fa" stroke-width="1" opacity="0.2"/><line x2="143.087" transform="translate(12.776 184.48)" fill="none" stroke="#b0d1fa" stroke-width="1" opacity="0.2"/><line y2="147.175" transform="translate(12.776 37.305)" fill="none" stroke="#b0d1fa" stroke-width="1" opacity="0.2"/><line y2="147.175" transform="translate(103.738 37.305)" fill="none" stroke="#b0d1fa" stroke-width="1" opacity="0.2"/><rect width="37.816" height="3.066" rx="1.533" transform="translate(22.485 41.904)" fill="#e5f0fd"/><rect width="25.551" height="3.066" rx="1.533" transform="translate(22.485 26.573)" fill="#e5f0fd"/><rect width="25.551" height="3.066" rx="1.533" transform="translate(52.125 26.573)" fill="#e5f0fd"/><rect width="25.551" height="3.066" rx="1.533" transform="translate(81.764 26.573)" fill="#e5f0fd"/><rect width="25.551" height="3.066" rx="1.533" transform="translate(111.404 26.573)" fill="#e5f0fd"/><rect width="87.896" height="5.11" rx="2.555" transform="translate(22.485 15.331)" fill="#e5f0fd"/><rect width="14.309" height="3.066" rx="1.533" transform="translate(22.485 54.169)" fill="#e5f0fd"/><rect width="28.617" height="3.066" rx="1.533" transform="translate(22.485 66.433)" fill="#e5f0fd"/><rect width="48.036" height="3.066" rx="1.533" transform="translate(22.485 78.698)" fill="#e5f0fd"/><rect width="66.433" height="3.066" rx="1.533" transform="translate(22.485 90.963)" fill="#e5f0fd"/><rect width="48.036" height="3.066" rx="1.533" transform="translate(22.485 103.227)" fill="#e5f0fd"/><rect width="33.728" height="3.066" rx="1.533" transform="translate(22.485 115.492)" fill="#e5f0fd"/><rect width="21.463" height="3.066" rx="1.533" transform="translate(22.485 127.756)" fill="#e5f0fd"/><rect width="21.463" height="3.066" rx="1.533" transform="translate(22.485 152.286)" fill="#e5f0fd"/><rect width="14.309" height="3.066" rx="1.533" transform="translate(22.485 140.021)" fill="#e5f0fd"/><rect width="14.309" height="3.066" rx="1.533" transform="translate(22.485 164.55)" fill="#e5f0fd"/><rect width="28.617" height="3.066" rx="1.533" transform="translate(53.147 66.433)" fill="#e5f0fd"/><rect width="28.617" height="3.066" rx="1.533" transform="translate(113.448 66.433)" fill="#e5f0fd"/><rect width="28.617" height="3.066" rx="1.533" transform="translate(113.448 115.492)" fill="#e5f0fd"/><rect width="13.287" height="3.066" rx="1.533" transform="translate(113.448 90.963)" fill="#e5f0fd"/><rect width="13.287" height="3.066" rx="1.533" transform="translate(113.448 103.227)" fill="#e5f0fd"/><rect width="13.287" height="3.066" rx="1.533" transform="translate(130.823 103.227)" fill="#e5f0fd"/></g><g transform="translate(1005.539 2449.4)"><rect width="155" height="195" rx="4" transform="translate(-0.098 -0.41)" fill="#fff"/><line x2="143.087" transform="translate(12.776 37.305)" fill="none" stroke="#b0d1fa" stroke-width="1" opacity="0.2"/><line x2="143.087" transform="translate(12.776 49.57)" fill="none" stroke="#b0d1fa" stroke-width="1" opacity="0.2"/><line x2="143.087" transform="translate(12.776 61.834)" fill="none" stroke="#b0d1fa" stroke-width="1" opacity="0.2"/><line x2="143.087" transform="translate(12.776 74.099)" fill="none" stroke="#b0d1fa" stroke-width="1" opacity="0.2"/><line x2="143.087" transform="translate(12.776 86.363)" fill="none" stroke="#b0d1fa" stroke-width="1" opacity="0.2"/><line x2="143.087" transform="translate(12.776 98.628)" fill="none" stroke="#b0d1fa" stroke-width="1" opacity="0.2"/><line x2="143.087" transform="translate(12.776 110.893)" fill="none" stroke="#b0d1fa" stroke-width="1" opacity="0.2"/><line x2="143.087" transform="translate(12.776 123.157)" fill="none" stroke="#b0d1fa" stroke-width="1" opacity="0.2"/><line x2="143.087" transform="translate(12.776 135.422)" fill="none" stroke="#b0d1fa" stroke-width="1" opacity="0.2"/><line x2="143.087" transform="translate(12.776 147.686)" fill="none" stroke="#b0d1fa" stroke-width="1" opacity="0.2"/><line x2="143.087" transform="translate(12.776 159.951)" fill="none" stroke="#b0d1fa" stroke-width="1" opacity="0.2"/><line x2="143.087" transform="translate(12.776 172.216)" fill="none" stroke="#b0d1fa" stroke-width="1" opacity="0.2"/><line x2="143.087" transform="translate(12.776 184.48)" fill="none" stroke="#b0d1fa" stroke-width="1" opacity="0.2"/><line y2="147.175" transform="translate(12.776 37.305)" fill="none" stroke="#b0d1fa" stroke-width="1" opacity="0.2"/><line y2="147.175" transform="translate(103.738 37.305)" fill="none" stroke="#b0d1fa" stroke-width="1" opacity="0.2"/><rect width="37" height="3" rx="1.5" transform="translate(22.902 41.59)" fill="#e5f0fd"/><rect width="25" height="3" rx="1.5" transform="translate(22.902 26.59)" fill="#e5f0fd"/><rect width="26" height="3" rx="1.5" transform="translate(51.902 26.59)" fill="#e5f0fd"/><rect width="25" height="3" rx="1.5" transform="translate(81.902 26.59)" fill="#e5f0fd"/><rect width="25" height="3" rx="1.5" transform="translate(111.902 26.59)" fill="#e5f0fd"/><rect width="87" height="5" rx="2.5" transform="translate(22.902 15.59)" fill="#e5f0fd"/><rect width="14" height="3" rx="1.5" transform="translate(22.902 54.59)" fill="#e5f0fd"/><rect width="28" height="3" rx="1.5" transform="translate(22.902 66.59)" fill="#e5f0fd"/><rect width="48" height="3" rx="1.5" transform="translate(22.902 78.59)" fill="#e5f0fd"/><rect width="66" height="3" rx="1.5" transform="translate(22.902 90.59)" fill="#e5f0fd"/><rect width="48" height="3" rx="1.5" transform="translate(22.902 103.59)" fill="#e5f0fd"/><rect width="33" height="3" rx="1.5" transform="translate(22.902 115.59)" fill="#e5f0fd"/><rect width="21" height="3" rx="1.5" transform="translate(22.902 127.59)" fill="#e5f0fd"/><rect width="21" height="3" rx="1.5" transform="translate(22.902 152.59)" fill="#e5f0fd"/><rect width="14" height="3" rx="1.5" transform="translate(22.902 139.59)" fill="#e5f0fd"/><rect width="14" height="3" rx="1.5" transform="translate(22.902 164.59)" fill="#e5f0fd"/><rect width="29" height="3" rx="1.5" transform="translate(52.902 66.59)" fill="#e5f0fd"/><rect width="28" height="3" rx="1.5" transform="translate(113.902 66.59)" fill="#e5f0fd"/><rect width="28" height="3" rx="1.5" transform="translate(113.902 115.59)" fill="#e5f0fd"/><rect width="13" height="3" rx="1.5" transform="translate(113.902 90.59)" fill="#e5f0fd"/><rect width="13" height="3" rx="1.5" transform="translate(113.902 103.59)" fill="#e5f0fd"/><rect width="13" height="3" rx="1.5" transform="translate(130.902 103.59)" fill="#e5f0fd"/></g></g></svg>