<svg xmlns="http://www.w3.org/2000/svg" xmlns:xlink="http://www.w3.org/1999/xlink" width="135" height="135" viewBox="0 0 135 135"><defs><filter id="a" x="0" y="0" width="135" height="135" filterUnits="userSpaceOnUse"><feOffset dy="16" input="SourceAlpha"/><feGaussianBlur stdDeviation="12" result="b"/><feFlood flood-opacity="0.161"/><feComposite operator="in" in2="b"/><feComposite in="SourceGraphic"/></filter></defs><g transform="translate(-1194.611 -770.35)"><g transform="matrix(1, 0, 0, 1, 1194.61, 770.35)" filter="url(#a)"><path d="M16,0H47A16,16,0,0,1,63,16V47A16,16,0,0,1,47,63H0a0,0,0,0,1,0,0V16A16,16,0,0,1,16,0Z" transform="translate(36 20)" fill="#fff"/></g><g transform="translate(1242.907 802.401)"><ellipse cx="19.334" cy="19.334" rx="19.334" ry="19.334" fill="#0f72ee"/><rect width="19.334" height="19.334" transform="translate(0 19.334)" fill="#0f72ee"/><g transform="translate(10.41 14.664)"><line x2="16.349" transform="translate(0 0)" fill="none" stroke="#fff" stroke-linecap="round" stroke-width="2"/><line x2="16.349" transform="translate(0 5.05)" fill="none" stroke="#fff" stroke-linecap="round" stroke-width="2"/><line x2="8.747" transform="translate(0.199 10.1)" fill="none" stroke="#fff" stroke-linecap="round" stroke-width="2"/></g></g></g></svg>