<svg xmlns="http://www.w3.org/2000/svg" width="63" height="63" viewBox="0 0 63 63"><defs><style>.a{fill:#fff;}.b{fill:#0f72ee;}.c{fill:none;stroke:#fff;stroke-linecap:round;stroke-width:2px;}</style></defs><g transform="translate(-1230.611 -790.35)"><path class="a" d="M16,0H47A16,16,0,0,1,63,16V47A16,16,0,0,1,47,63H0a0,0,0,0,1,0,0V16A16,16,0,0,1,16,0Z" transform="translate(1230.611 790.35)"/><g transform="translate(1242.907 802.401)"><ellipse class="b" cx="19.334" cy="19.334" rx="19.334" ry="19.334"/><rect class="b" width="19.334" height="19.334" transform="translate(0 19.334)"/><g transform="translate(10.41 14.664)"><line class="c" x2="16.349" transform="translate(0 0)"/><line class="c" x2="16.349" transform="translate(0 5.05)"/><line class="c" x2="8.747" transform="translate(0.199 10.1)"/></g></g></g></svg>