<svg xmlns="http://www.w3.org/2000/svg" width="301" height="182" viewBox="0 0 301 182"><defs><style>.a,.h{fill:#fff;}.b{fill:#e5f0fd;}.c,.d,.g{fill:#0f72ee;}.c,.d{font-size:13px;}.c,.e{font-family:Poppins-Medium, Poppins;font-weight:500;}.d{font-family:Poppins-Regular, Poppins;}.f{font-family:Poppins-SemiBold, Poppins;font-weight:600;}.h{stroke:#fff;stroke-width:0.25px;}.i,.j{fill:none;stroke:#0f72ee;}.i{opacity:0.2;}.j{stroke-linecap:round;}</style></defs><g transform="translate(-0.191 -13.118)"><rect class="a" width="301" height="182" rx="16" transform="translate(0.191 13.118)"/><path class="b" d="M0,0H301a0,0,0,0,1,0,0V37a14,14,0,0,1-14,14H16A16,16,0,0,1,0,35V0A0,0,0,0,1,0,0Z" transform="translate(0.191 144.118)"/><text class="c" transform="translate(42.191 174.118)"><tspan x="0" y="0">Can you help me</tspan></text><text class="d" transform="translate(15.191 127.118)"><tspan x="0" y="0">Can you help me</tspan><tspan class="e" y="0"> </tspan><tspan class="f" y="0">with requisition…</tspan></text><text class="d" transform="translate(15.191 84.118)"><tspan x="0" y="0">Can you help me</tspan><tspan class="e" y="0"> </tspan><tspan class="f" y="0">with Payroll…</tspan></text><text class="d" transform="translate(15.191 41.118)"><tspan x="0" y="0">Can you help me </tspan><tspan class="f" y="0">with HR Policies.</tspan></text><g transform="translate(38)"><circle class="g" cx="14.5" cy="14.5" r="14.5" transform="translate(217.191 155.118)"/><path class="h" d="M.473,14.594,6.488,12.84,12.5,14.594a.239.239,0,0,0,.11.018.335.335,0,0,0,.276-.125.321.321,0,0,0,.055-.376L6.819.215a.363.363,0,0,0-.662,0L.031,14.111a.353.353,0,0,0,.055.376A.4.4,0,0,0,.473,14.594ZM6.488,1.271l5.463,12.41-5.1-1.486V7.718a.368.368,0,0,0-.736,0v4.477l-5.1,1.486Z" transform="translate(240.337 163.901) rotate(90)"/></g><line class="i" x2="301" transform="translate(0.191 58.118)"/><line class="i" x2="301" transform="translate(0.191 101.118)"/><line class="i" x2="301" transform="translate(0.191 144.118)"/><g transform="translate(0.191 147.118)"><path class="g" d="M23,16a7,7,0,1,0,7,7A7.021,7.021,0,0,0,23,16Zm0,13.176A6.176,6.176,0,1,1,29.176,23,6.195,6.195,0,0,1,23,29.176Z"/><path class="g" d="M40.578,60.112a2.808,2.808,0,0,1-3.945,0,.368.368,0,0,0-.521.521,3.5,3.5,0,0,0,4.987,0,.368.368,0,0,0-.521-.521Z" transform="translate(-15.605 -34.808)"/><circle class="g" cx="0.93" cy="0.93" r="0.93" transform="translate(19.977 20.395)"/><circle class="g" cx="0.93" cy="0.93" r="0.93" transform="translate(24.163 20.395)"/></g><line class="j" y2="15" transform="translate(160.691 162.618)"/></g></svg>