<svg xmlns="http://www.w3.org/2000/svg" xmlns:xlink="http://www.w3.org/1999/xlink" width="415" height="373" viewBox="0 0 415 373"><defs><filter id="a" x="0" y="0" width="415" height="373" filterUnits="userSpaceOnUse"><feOffset dy="6" input="SourceAlpha"/><feGaussianBlur stdDeviation="21" result="b"/><feFlood flood-opacity="0.161"/><feComposite operator="in" in2="b"/><feComposite in="SourceGraphic"/></filter></defs><g transform="translate(63.476 70.318)"><g transform="matrix(1, 0, 0, 1, -63.48, -70.32)" filter="url(#a)"><rect width="289" height="247" rx="20" transform="translate(63 57)" fill="#fff"/></g><g transform="translate(21.884 92.292)"><g transform="translate(0 0)"><path d="M-74.272-3.78V0h1.71V-3.78l3.45-6.645H-71L-73.417-5.31l-2.415-5.115h-1.9Zm14.385-.36A4.076,4.076,0,0,0-64.1-8.4a4.076,4.076,0,0,0-4.215,4.26A4.03,4.03,0,0,0-64.177.135,4.14,4.14,0,0,0-59.887-4.14Zm-6.69,0a2.462,2.462,0,0,1,2.445-2.775,2.5,2.5,0,0,1,2.49,2.775,2.546,2.546,0,0,1-2.535,2.79C-65.467-1.35-66.577-2.265-66.577-4.14Zm15.87-4.125h-1.71V-3.66a2,2,0,0,1-2.085,2.3c-1.245,0-2.07-.78-2.07-2.3V-8.265h-1.695V-3.4A3.23,3.23,0,0,0-54.862.12,3.076,3.076,0,0,0-52.417-.99V0h1.71Zm3.96,3.915c0-1.755.78-2.28,2.04-2.28h.435V-8.4a2.692,2.692,0,0,0-2.475,1.335v-1.2h-1.71V0h1.71Zm8.22,2.055c0,1.68.915,2.3,2.385,2.3h1.35V-1.425h-1.05c-.72,0-.96-.255-.96-.87V-6.87h2.01v-1.4H-36.8V-10.32h-1.725v2.055H-39.5v1.4h.975Zm5.31,2.3h1.71V-8.265h-1.71Zm.87-9.36a1.079,1.079,0,0,0,1.08-1.095,1.079,1.079,0,0,0-1.08-1.095,1.082,1.082,0,0,0-1.095,1.095A1.082,1.082,0,0,0-32.347-9.36Zm2.52,5.22A3.953,3.953,0,0,0-25.777.135a3.712,3.712,0,0,0,3.81-2.745h-1.845a1.888,1.888,0,0,1-1.965,1.3c-1.38,0-2.3-1.02-2.3-2.835s.915-2.82,2.3-2.82a1.932,1.932,0,0,1,1.965,1.3h1.845A3.6,3.6,0,0,0-25.777-8.4,3.948,3.948,0,0,0-29.827-4.14ZM-20.257,0h1.71V-3.555L-15.487,0h2.31l-3.81-4.125,3.81-4.14h-2.37l-3,3.615V-11.1h-1.71Zm11.79-6.96a2.146,2.146,0,0,1,2.31,2.085h-4.575A2.251,2.251,0,0,1-8.467-6.96Zm3.87,4.5H-6.442A2,2,0,0,1-8.392-1.3a2.274,2.274,0,0,1-2.355-2.19h6.315a5.275,5.275,0,0,0,.06-.84A3.854,3.854,0,0,0-8.392-8.4a3.958,3.958,0,0,0-4.125,4.26A4.01,4.01,0,0,0-8.392.135,3.777,3.777,0,0,0-4.6-2.46Zm2.175.165c0,1.68.915,2.3,2.385,2.3h1.35V-1.425H.263c-.72,0-.96-.255-.96-.87V-6.87h2.01v-1.4H-.7V-10.32H-2.422v2.055H-3.4v1.4h.975Zm15.765-1.98H10.4l.555-2.595H13.9ZM12.428,0h1.635l.6-2.775h2.3v-1.5h-1.98l.555-2.595h2.31v-1.5H15.848l.585-2.73H14.8l-.585,2.73h-2.94l.585-2.73H10.223L9.638-8.37H7.013v1.5h2.31L8.768-4.275H6.128v1.5H8.453L7.853,0H9.488l.6-2.775h2.94Zm6.9-9.03h2.79V0h1.71V-9.03H26.6v-1.4H19.328ZM34.073,0h2.235L31.7-5.2l4.53-5.22H34.088L30.038-5.67v-4.755h-1.71V0h1.71V-4.665Zm3.21-9.03h2.79V0h1.71V-9.03h2.775v-1.4H37.283Zm8.775,3.42c0,3.18.84,5.58,3.9,5.58s3.9-2.4,3.9-5.58c0-3.12-.84-5.52-3.9-5.52S46.058-8.73,46.058-5.61Zm6.12,0c0,2.145-.225,4.02-2.22,4.02s-2.22-1.875-2.22-4.02c0-2.04.225-3.96,2.22-3.96S52.178-7.65,52.178-5.61Zm3.945-5.355V-4.65h1.62a1.973,1.973,0,0,1,1.965-1.365,1.955,1.955,0,0,1,2.13,2.235c0,1.35-.66,2.355-2.13,2.355a2.039,2.039,0,0,1-2.16-1.53H55.883C56.138-1.245,57.443,0,59.693,0a3.516,3.516,0,0,0,3.78-3.825,3.332,3.332,0,0,0-3.51-3.645,2.93,2.93,0,0,0-2.265.99V-9.465h5.025v-1.5ZM70.478,0h1.68V-2.28h1.395V-3.765H72.158V-10.8h-2.07l-5.04,7.23v1.29h5.43ZM67.013-3.765l3.54-5.295v5.295ZM-88.71,19h1.8l1.665-6.1L-83.58,19h1.8l2.565-8.265H-80.9l-1.71,6.615-1.68-6.615H-86.07l-1.755,6.645-1.725-6.645h-1.74Zm10.2-4.17a4,4,0,0,0,3.87,4.305,3.557,3.557,0,0,0,2.895-1.365V19h1.725V10.735h-1.725v1.2A3.518,3.518,0,0,0-74.61,10.6,3.934,3.934,0,0,0-78.51,14.83Zm6.765.03a2.568,2.568,0,0,1-2.5,2.79,2.6,2.6,0,0,1-2.505-2.82,2.536,2.536,0,0,1,2.505-2.745A2.563,2.563,0,0,1-71.745,14.86Zm10.14,1.83c-.09-2.985-4.755-2.055-4.755-3.72,0-.555.48-.93,1.395-.93a1.367,1.367,0,0,1,1.545,1.215h1.71c-.09-1.65-1.32-2.655-3.2-2.655-1.95,0-3.18,1.065-3.18,2.385,0,3.03,4.8,2.1,4.8,3.72,0,.57-.525.99-1.515.99a1.508,1.508,0,0,1-1.65-1.23h-1.77c.075,1.5,1.47,2.67,3.45,2.67C-62.82,19.135-61.605,18.085-61.605,16.69Zm7.455-2.04c0-1.755.78-2.28,2.04-2.28h.435V10.6a2.692,2.692,0,0,0-2.475,1.335v-1.2h-1.71V19h1.71Zm3.48.18a4,4,0,0,0,3.87,4.305,3.557,3.557,0,0,0,2.9-1.365V19h1.725V10.735h-1.725v1.2A3.518,3.518,0,0,0-46.77,10.6,3.934,3.934,0,0,0-50.67,14.83Zm6.765.03a2.568,2.568,0,0,1-2.505,2.79,2.6,2.6,0,0,1-2.5-2.82,2.536,2.536,0,0,1,2.5-2.745A2.563,2.563,0,0,1-43.905,14.86ZM-39.93,19h1.71V10.735h-1.71Zm.87-9.36a1.079,1.079,0,0,0,1.08-1.095A1.079,1.079,0,0,0-39.06,7.45a1.082,1.082,0,0,0-1.095,1.095A1.082,1.082,0,0,0-39.06,9.64Zm9.255,7.05c-.09-2.985-4.755-2.055-4.755-3.72,0-.555.48-.93,1.4-.93a1.367,1.367,0,0,1,1.545,1.215h1.71C-30,11.6-31.23,10.6-33.1,10.6c-1.95,0-3.18,1.065-3.18,2.385,0,3.03,4.8,2.1,4.8,3.72,0,.57-.525.99-1.515.99a1.508,1.508,0,0,1-1.65-1.23h-1.77c.075,1.5,1.47,2.67,3.45,2.67C-31.02,19.135-29.805,18.085-29.805,16.69Zm5.325-4.65a2.146,2.146,0,0,1,2.31,2.085h-4.575A2.251,2.251,0,0,1-24.48,12.04Zm3.87,4.5h-1.845a2,2,0,0,1-1.95,1.155,2.274,2.274,0,0,1-2.355-2.19h6.315a5.275,5.275,0,0,0,.06-.84,3.854,3.854,0,0,0-4.02-4.065,3.958,3.958,0,0,0-4.125,4.26,4.01,4.01,0,0,0,4.125,4.275A3.777,3.777,0,0,0-20.61,16.54Zm1.335-1.71a4,4,0,0,0,3.9,4.305,3.427,3.427,0,0,0,2.865-1.38V19h1.725V7.9H-12.51v3.99a3.807,3.807,0,0,0-2.85-1.29A3.937,3.937,0,0,0-19.275,14.83Zm6.765.03a2.568,2.568,0,0,1-2.5,2.79,2.6,2.6,0,0,1-2.505-2.82,2.536,2.536,0,0,1,2.505-2.745A2.563,2.563,0,0,1-12.51,14.86ZM1.53,16.69c-.09-2.985-4.755-2.055-4.755-3.72,0-.555.48-.93,1.395-.93A1.367,1.367,0,0,1-.285,13.255h1.71C1.335,11.6.1,10.6-1.77,10.6c-1.95,0-3.18,1.065-3.18,2.385,0,3.03,4.8,2.1,4.8,3.72,0,.57-.525.99-1.515.99a1.508,1.508,0,0,1-1.65-1.23h-1.77c.075,1.5,1.47,2.67,3.45,2.67C.315,19.135,1.53,18.085,1.53,16.69Zm9.33-5.955H9.15V15.34a2,2,0,0,1-2.085,2.3c-1.245,0-2.07-.78-2.07-2.3V10.735H3.3V15.6A3.23,3.23,0,0,0,6.7,19.12,3.076,3.076,0,0,0,9.15,18.01V19h1.71Zm1.68,4.125a3.953,3.953,0,0,0,4.05,4.275A3.712,3.712,0,0,0,20.4,16.39H18.555a1.888,1.888,0,0,1-1.965,1.305c-1.38,0-2.3-1.02-2.3-2.835s.915-2.82,2.3-2.82a1.932,1.932,0,0,1,1.965,1.3H20.4A3.6,3.6,0,0,0,16.59,10.6,3.948,3.948,0,0,0,12.54,14.86Zm9,0a3.953,3.953,0,0,0,4.05,4.275A3.712,3.712,0,0,0,29.4,16.39H27.555a1.888,1.888,0,0,1-1.965,1.305c-1.38,0-2.3-1.02-2.3-2.835s.915-2.82,2.3-2.82a1.932,1.932,0,0,1,1.965,1.3H29.4A3.6,3.6,0,0,0,25.59,10.6,3.948,3.948,0,0,0,21.54,14.86Zm13.05-2.82a2.146,2.146,0,0,1,2.31,2.085H32.325A2.251,2.251,0,0,1,34.59,12.04Zm3.87,4.5H36.615a2,2,0,0,1-1.95,1.155,2.274,2.274,0,0,1-2.355-2.19h6.315a5.275,5.275,0,0,0,.06-.84,3.854,3.854,0,0,0-4.02-4.065,3.958,3.958,0,0,0-4.125,4.26,4.01,4.01,0,0,0,4.125,4.275A3.777,3.777,0,0,0,38.46,16.54Zm8.07.15c-.09-2.985-4.755-2.055-4.755-3.72,0-.555.48-.93,1.4-.93a1.367,1.367,0,0,1,1.545,1.215h1.71C46.335,11.6,45.1,10.6,43.23,10.6c-1.95,0-3.18,1.065-3.18,2.385,0,3.03,4.8,2.1,4.8,3.72,0,.57-.525.99-1.515.99a1.508,1.508,0,0,1-1.65-1.23h-1.77c.075,1.5,1.47,2.67,3.45,2.67C45.315,19.135,46.53,18.085,46.53,16.69Zm8.01,0c-.09-2.985-4.755-2.055-4.755-3.72,0-.555.48-.93,1.4-.93a1.367,1.367,0,0,1,1.545,1.215h1.71c-.09-1.65-1.32-2.655-3.195-2.655-1.95,0-3.18,1.065-3.18,2.385,0,3.03,4.8,2.1,4.8,3.72,0,.57-.525.99-1.515.99a1.508,1.508,0,0,1-1.65-1.23h-1.77c.075,1.5,1.47,2.67,3.45,2.67C53.325,19.135,54.54,18.085,54.54,16.69ZM56.595,19H58.32V12.13h1.53v-1.4H58.32V10.15c0-.945.36-1.305,1.41-1.305V7.42c-2.16,0-3.135.825-3.135,2.73v.585H55.62v1.4h.975ZM68.85,10.735H67.14V15.34a2,2,0,0,1-2.085,2.3c-1.245,0-2.07-.78-2.07-2.3V10.735H61.29V15.6a3.23,3.23,0,0,0,3.405,3.525,3.076,3.076,0,0,0,2.445-1.11V19h1.71ZM71.1,19h1.71V7.9H71.1Zm3.96,0h1.71V7.9H75.06Zm7.215-1.965-2.325-6.3h-1.9l3.255,8.13-1.68,4.02h1.77l5.07-12.15H84.69Zm6-1.185H89.7l.195-7.275H88.08Zm1.845,2.16A1.088,1.088,0,1,0,89.04,19.1,1.079,1.079,0,0,0,90.12,18.01Z" transform="translate(121.641 10.39)" fill="#0f72ee"/><path d="M-108.468,0h1.092V-8.364h-1.092Zm7.44,0H-99.9l1.584-5.22L-96.732,0H-95.6l2.052-6.576h-1.08L-96.12-1.044l-1.6-5.532h-1.116l-1.632,5.52-1.512-5.52h-1.116Zm8.556,0h1.092V-6.576h-1.092Zm.564-7.644a.728.728,0,0,0,.72-.744.728.728,0,0,0-.72-.744.733.733,0,0,0-.744.744A.733.733,0,0,0-91.908-7.644ZM-89.52,0h1.092V-8.88H-89.52Zm2.952,0h1.092V-8.88h-1.092Zm6.4-1.8c0,1.32.66,1.8,1.824,1.8h.984V-.924h-.8c-.672,0-.912-.228-.912-.876V-5.676h1.716v-.9H-79.08V-8.232h-1.092v1.656h-.852v.9h.852Zm5.22-1.776c0-1.524.792-1.992,1.836-1.992h.288V-6.7a2.215,2.215,0,0,0-2.124,1.188V-6.576h-1.092V0h1.092Zm5.88,2.328-2.064-5.328h-1.212l2.652,6.5-1.3,3.168h1.128l3.96-9.672h-1.128Zm7.7-.552c0,1.32.66,1.8,1.824,1.8h.984V-.924h-.8c-.672,0-.912-.228-.912-.876V-5.676h1.716v-.9h-1.716V-8.232h-1.092v1.656h-.852v.9h.852ZM-51-3.3a3.21,3.21,0,0,0-3.324-3.384A3.216,3.216,0,0,0-57.648-3.3,3.192,3.192,0,0,0-54.372.108,3.261,3.261,0,0,0-51-3.3Zm-5.532,0a2.18,2.18,0,0,1,2.2-2.436A2.209,2.209,0,0,1-52.116-3.3,2.232,2.232,0,0,1-54.372-.852,2.166,2.166,0,0,1-56.532-3.3Zm11.268-.276c0-1.524.792-1.992,1.836-1.992h.288V-6.7a2.215,2.215,0,0,0-2.124,1.188V-6.576h-1.092V0h1.092Zm6.18-2.184a1.93,1.93,0,0,1,2.076,1.992H-41.16A2.037,2.037,0,0,1-39.084-5.76Zm3.072,3.732h-1.176A1.807,1.807,0,0,1-39.036-.816,2.067,2.067,0,0,1-41.172-2.88h5.256a5.92,5.92,0,0,0,.036-.66,3.014,3.014,0,0,0-3.156-3.144A3.129,3.129,0,0,0-42.288-3.3,3.168,3.168,0,0,0-39.036.108,2.957,2.957,0,0,0-36.012-2.028Zm6.3.24c-.048-2.352-3.864-1.5-3.864-3.06,0-.528.48-.912,1.284-.912a1.265,1.265,0,0,1,1.428,1.14h1.092a2.206,2.206,0,0,0-2.484-2.064c-1.464,0-2.412.828-2.412,1.836,0,2.448,3.888,1.6,3.888,3.06,0,.54-.48.972-1.344.972-.924,0-1.488-.48-1.548-1.116H-34.8c.072,1.2,1.152,2.04,2.688,2.04C-30.66.108-29.712-.708-29.712-1.788ZM-21.936-3.3A3.21,3.21,0,0,0-25.26-6.684,3.216,3.216,0,0,0-28.584-3.3,3.192,3.192,0,0,0-25.308.108,3.261,3.261,0,0,0-21.936-3.3Zm-5.532,0a2.18,2.18,0,0,1,2.2-2.436A2.209,2.209,0,0,1-23.052-3.3,2.232,2.232,0,0,1-25.308-.852,2.166,2.166,0,0,1-27.468-3.3ZM-20.5,0H-19.4V-8.88H-20.5Zm2.172-6.576L-15.744,0h1.272l2.58-6.576h-1.164L-15.1-1.008l-2.052-5.568Zm10.308.816A1.93,1.93,0,0,1-5.94-3.768h-4.152A2.037,2.037,0,0,1-8.016-5.76Zm3.072,3.732H-6.12A1.807,1.807,0,0,1-7.968-.816,2.067,2.067,0,0,1-10.1-2.88h5.256a5.92,5.92,0,0,0,.036-.66A3.014,3.014,0,0,0-7.968-6.684,3.129,3.129,0,0,0-11.22-3.3,3.168,3.168,0,0,0-7.968.108,2.957,2.957,0,0,0-4.944-2.028Zm7.272.78L.264-6.576H-.948L1.7-.072.408,3.1H1.536L5.5-6.576H4.368ZM12.828-3.3A3.21,3.21,0,0,0,9.5-6.684,3.216,3.216,0,0,0,6.18-3.3,3.192,3.192,0,0,0,9.456.108,3.261,3.261,0,0,0,12.828-3.3ZM7.3-3.3a2.18,2.18,0,0,1,2.2-2.436A2.209,2.209,0,0,1,11.712-3.3,2.232,2.232,0,0,1,9.456-.852,2.166,2.166,0,0,1,7.3-3.3ZM20.1-6.576H19.008v3.612c0,1.416-.756,2.112-1.884,2.112a1.764,1.764,0,0,1-1.836-2.016V-6.576h-1.08v3.852A2.565,2.565,0,0,0,16.908.1a2.418,2.418,0,0,0,2.1-1.068V0H20.1Zm2.94,3c0-1.524.792-1.992,1.836-1.992h.288V-6.7A2.215,2.215,0,0,0,23.04-5.508V-6.576H21.948V0H23.04ZM29.628,0H30.72V-6.576H29.628Zm.564-7.644a.728.728,0,0,0,.72-.744.728.728,0,0,0-.72-.744.733.733,0,0,0-.744.744A.733.733,0,0,0,30.192-7.644Zm7.116,5.856c-.048-2.352-3.864-1.5-3.864-3.06,0-.528.48-.912,1.284-.912a1.265,1.265,0,0,1,1.428,1.14h1.092a2.206,2.206,0,0,0-2.484-2.064c-1.464,0-2.412.828-2.412,1.836,0,2.448,3.888,1.6,3.888,3.06,0,.54-.48.972-1.344.972-.924,0-1.488-.48-1.548-1.116H32.22c.072,1.2,1.152,2.04,2.688,2.04C36.36.108,37.308-.708,37.308-1.788Zm6.264,0c-.048-2.352-3.864-1.5-3.864-3.06,0-.528.48-.912,1.284-.912A1.265,1.265,0,0,1,42.42-4.62h1.092a2.206,2.206,0,0,0-2.484-2.064c-1.464,0-2.412.828-2.412,1.836,0,2.448,3.888,1.6,3.888,3.06,0,.54-.48.972-1.344.972-.924,0-1.488-.48-1.548-1.116H38.484c.072,1.2,1.152,2.04,2.688,2.04C42.624.108,43.572-.708,43.572-1.788ZM50.94-6.576H49.848v3.612c0,1.416-.756,2.112-1.884,2.112a1.764,1.764,0,0,1-1.836-2.016V-6.576h-1.08v3.852A2.565,2.565,0,0,0,47.748.1a2.418,2.418,0,0,0,2.1-1.068V0H50.94Zm4.644.816A1.93,1.93,0,0,1,57.66-3.768H53.508A2.037,2.037,0,0,1,55.584-5.76Zm3.072,3.732H57.48A1.807,1.807,0,0,1,55.632-.816,2.067,2.067,0,0,1,53.5-2.88h5.256a5.92,5.92,0,0,0,.036-.66,3.014,3.014,0,0,0-3.156-3.144A3.129,3.129,0,0,0,52.38-3.3,3.168,3.168,0,0,0,55.632.108,2.957,2.957,0,0,0,58.656-2.028Zm4.368-1.284A3.163,3.163,0,0,0,66.132.108a2.746,2.746,0,0,0,2.46-1.332V0h1.1V-6.576h-1.1v1.2a2.729,2.729,0,0,0-2.448-1.308A3.116,3.116,0,0,0,63.024-3.312Zm5.568.012A2.25,2.25,0,0,1,66.36-.852a2.252,2.252,0,0,1-2.22-2.46,2.22,2.22,0,0,1,2.22-2.424A2.253,2.253,0,0,1,68.592-3.3Zm7.68,1.512c-.048-2.352-3.864-1.5-3.864-3.06,0-.528.48-.912,1.284-.912A1.265,1.265,0,0,1,75.12-4.62h1.092a2.206,2.206,0,0,0-2.484-2.064c-1.464,0-2.412.828-2.412,1.836,0,2.448,3.888,1.6,3.888,3.06,0,.54-.48.972-1.344.972-.924,0-1.488-.48-1.548-1.116H71.184c.072,1.2,1.152,2.04,2.688,2.04C75.324.108,76.272-.708,76.272-1.788Zm9.468,0c-.048-2.352-3.864-1.5-3.864-3.06,0-.528.48-.912,1.284-.912a1.265,1.265,0,0,1,1.428,1.14H85.68A2.206,2.206,0,0,0,83.2-6.684c-1.464,0-2.412.828-2.412,1.836,0,2.448,3.888,1.6,3.888,3.06,0,.54-.48.972-1.344.972-.924,0-1.488-.48-1.548-1.116H80.652C80.724-.732,81.8.108,83.34.108,84.792.108,85.74-.708,85.74-1.788ZM93.516-3.3a3.21,3.21,0,0,0-3.324-3.384A3.216,3.216,0,0,0,86.868-3.3,3.192,3.192,0,0,0,90.144.108,3.261,3.261,0,0,0,93.516-3.3Zm-5.532,0a2.18,2.18,0,0,1,2.2-2.436A2.209,2.209,0,0,1,92.4-3.3,2.232,2.232,0,0,1,90.144-.852,2.166,2.166,0,0,1,87.984-3.3Zm13.212,0a3.21,3.21,0,0,0-3.324-3.384A3.216,3.216,0,0,0,94.548-3.3,3.192,3.192,0,0,0,97.824.108,3.261,3.261,0,0,0,101.2-3.3Zm-5.532,0a2.18,2.18,0,0,1,2.2-2.436A2.209,2.209,0,0,1,100.08-3.3,2.232,2.232,0,0,1,97.824-.852,2.166,2.166,0,0,1,95.664-3.3ZM107.448,0h1.08V-3.876A2.551,2.551,0,0,0,105.84-6.7a2.429,2.429,0,0,0-2.112,1.056v-.936h-1.092V0h1.092V-3.636c0-1.416.768-2.112,1.884-2.112s1.836.684,1.836,2.028ZM-112.158,14.688a3.163,3.163,0,0,0,3.108,3.42,2.746,2.746,0,0,0,2.46-1.332V18h1.1V11.424h-1.1v1.2a2.729,2.729,0,0,0-2.448-1.308A3.116,3.116,0,0,0-112.158,14.688Zm5.568.012a2.25,2.25,0,0,1-2.232,2.448,2.252,2.252,0,0,1-2.22-2.46,2.22,2.22,0,0,1,2.22-2.424A2.253,2.253,0,0,1-106.59,14.7Zm7.68,1.512c-.048-2.352-3.864-1.5-3.864-3.06,0-.528.48-.912,1.284-.912a1.265,1.265,0,0,1,1.428,1.14h1.092a2.206,2.206,0,0,0-2.484-2.064c-1.464,0-2.412.828-2.412,1.836,0,2.448,3.888,1.6,3.888,3.06,0,.54-.48.972-1.344.972-.924,0-1.488-.48-1.548-1.116H-104c.072,1.2,1.152,2.04,2.688,2.04C-99.858,18.108-98.91,17.292-98.91,16.212Zm5.832-3.576V11.424H-94.17v9.7h1.092V16.788a2.845,2.845,0,0,0,2.46,1.32,3.165,3.165,0,0,0,3.12-3.42,3.116,3.116,0,0,0-3.12-3.372A2.778,2.778,0,0,0-93.078,12.636Zm4.464,2.052a2.254,2.254,0,0,1-2.232,2.46A2.257,2.257,0,0,1-93.078,14.7a2.26,2.26,0,0,1,2.232-2.436A2.223,2.223,0,0,1-88.614,14.688Zm8.8.012a3.21,3.21,0,0,0-3.324-3.384A3.216,3.216,0,0,0-86.466,14.7a3.192,3.192,0,0,0,3.276,3.408A3.261,3.261,0,0,0-79.818,14.7Zm-5.532,0a2.18,2.18,0,0,1,2.2-2.436,2.209,2.209,0,0,1,2.22,2.436,2.232,2.232,0,0,1-2.256,2.448A2.166,2.166,0,0,1-85.35,14.7Zm11.7,1.512c-.048-2.352-3.864-1.5-3.864-3.06,0-.528.48-.912,1.284-.912A1.265,1.265,0,0,1-74.8,13.38h1.092a2.206,2.206,0,0,0-2.484-2.064c-1.464,0-2.412.828-2.412,1.836,0,2.448,3.888,1.6,3.888,3.06,0,.54-.48.972-1.344.972-.924,0-1.488-.48-1.548-1.116h-1.128c.072,1.2,1.152,2.04,2.688,2.04C-74.6,18.108-73.65,17.292-73.65,16.212Zm6.264,0c-.048-2.352-3.864-1.5-3.864-3.06,0-.528.48-.912,1.284-.912a1.265,1.265,0,0,1,1.428,1.14h1.092a2.206,2.206,0,0,0-2.484-2.064c-1.464,0-2.412.828-2.412,1.836,0,2.448,3.888,1.6,3.888,3.06,0,.54-.48.972-1.344.972-.924,0-1.488-.48-1.548-1.116h-1.128c.072,1.2,1.152,2.04,2.688,2.04C-68.334,18.108-67.386,17.292-67.386,16.212ZM-65.85,18h1.092V11.424H-65.85Zm.564-7.644a.728.728,0,0,0,.72-.744.728.728,0,0,0-.72-.744.733.733,0,0,0-.744.744A.733.733,0,0,0-65.286,10.356Zm3.48,2.292V9.12H-62.9V18h1.092V16.788a2.744,2.744,0,0,0,2.46,1.32,3.165,3.165,0,0,0,3.12-3.42,3.11,3.11,0,0,0-3.12-3.372A2.786,2.786,0,0,0-61.806,12.648Zm4.464,2.04a2.254,2.254,0,0,1-2.232,2.46A2.257,2.257,0,0,1-61.806,14.7a2.26,2.26,0,0,1,2.232-2.436A2.223,2.223,0,0,1-57.342,14.688ZM-54.786,18h1.092V9.12h-1.092Zm5.748-5.76a1.93,1.93,0,0,1,2.076,1.992h-4.152A2.037,2.037,0,0,1-49.038,12.24Zm3.072,3.732h-1.176a1.807,1.807,0,0,1-1.848,1.212,2.067,2.067,0,0,1-2.136-2.064h5.256a5.92,5.92,0,0,0,.036-.66,3.014,3.014,0,0,0-3.156-3.144A3.129,3.129,0,0,0-52.242,14.7a3.168,3.168,0,0,0,3.252,3.408A2.957,2.957,0,0,0-45.966,15.972Zm2.64,1.356a.728.728,0,0,0-.72-.744.733.733,0,0,0-.744.744.733.733,0,0,0,.744.744A.728.728,0,0,0-43.326,17.328ZM-38.67,18h1.092V9.636H-38.67Zm7.44,0H-30.1l1.584-5.22L-26.934,18h1.128l2.052-6.576h-1.08l-1.488,5.532-1.6-5.532h-1.116l-1.632,5.52-1.512-5.52h-1.116Zm8.556,0h1.092V11.424h-1.092Zm.564-7.644a.728.728,0,0,0,.72-.744.728.728,0,0,0-.72-.744.733.733,0,0,0-.744.744A.733.733,0,0,0-22.11,10.356ZM-19.722,18h1.092V9.12h-1.092Zm2.952,0h1.092V9.12H-16.77Zm5.748-3.312a3.165,3.165,0,0,0,3.12,3.42,2.7,2.7,0,0,0,2.448-1.344V18h1.1V9.12h-1.1V12.6A2.868,2.868,0,0,0-7.89,11.316,3.119,3.119,0,0,0-11.022,14.688Zm5.568.012a2.25,2.25,0,0,1-2.232,2.448,2.252,2.252,0,0,1-2.22-2.46,2.22,2.22,0,0,1,2.22-2.424A2.253,2.253,0,0,1-5.454,14.7Zm4.044-.276c0-1.524.792-1.992,1.836-1.992H.714V11.3A2.215,2.215,0,0,0-1.41,12.492V11.424H-2.5V18H-1.41Zm9.624.276A3.21,3.21,0,0,0,4.89,11.316,3.216,3.216,0,0,0,1.566,14.7a3.192,3.192,0,0,0,3.276,3.408A3.261,3.261,0,0,0,8.214,14.7Zm-5.532,0a2.18,2.18,0,0,1,2.2-2.436A2.209,2.209,0,0,1,7.1,14.7a2.232,2.232,0,0,1-2.256,2.448A2.166,2.166,0,0,1,2.682,14.7Zm8.064-2.064V11.424H9.654v9.7h1.092V16.788a2.845,2.845,0,0,0,2.46,1.32,3.165,3.165,0,0,0,3.12-3.42,3.116,3.116,0,0,0-3.12-3.372A2.778,2.778,0,0,0,10.746,12.636Zm4.464,2.052a2.242,2.242,0,1,1-4.464.012,2.26,2.26,0,0,1,2.232-2.436A2.223,2.223,0,0,1,15.21,14.688Zm8.256,2.064L21.4,11.424H20.19l2.652,6.5-1.3,3.168h1.128l3.96-9.672H25.506Zm10.5-2.052a3.325,3.325,0,1,0-6.648,0,3.192,3.192,0,0,0,3.276,3.408A3.261,3.261,0,0,0,33.966,14.7Zm-5.532,0a2.18,2.18,0,0,1,2.2-2.436A2.209,2.209,0,0,1,32.85,14.7a2.232,2.232,0,0,1-2.256,2.448A2.166,2.166,0,0,1,28.434,14.7Zm12.8-3.276H40.146v3.612c0,1.416-.756,2.112-1.884,2.112a1.764,1.764,0,0,1-1.836-2.016V11.424h-1.08v3.852a2.565,2.565,0,0,0,2.7,2.82,2.418,2.418,0,0,0,2.1-1.068V18h1.092Zm4.644,3.264a3.163,3.163,0,0,0,3.108,3.42,2.746,2.746,0,0,0,2.46-1.332V18h1.1V11.424h-1.1v1.2A2.729,2.729,0,0,0,49,11.316,3.116,3.116,0,0,0,45.882,14.688Zm5.568.012A2.237,2.237,0,1,1,47,14.688a2.22,2.22,0,0,1,2.22-2.424A2.253,2.253,0,0,1,51.45,14.7ZM67.1,18h1.08V14.124a2.545,2.545,0,0,0-2.664-2.82,2.434,2.434,0,0,0-2.328,1.464A2.474,2.474,0,0,0,60.774,11.3,2.377,2.377,0,0,0,58.7,12.372v-.948H57.606V18H58.7V14.376c0-1.416.756-2.124,1.86-2.124,1.08,0,1.8.684,1.8,2.028V18h1.08V14.376c0-1.416.756-2.124,1.86-2.124,1.08,0,1.8.684,1.8,2.028Zm5.664-5.76a1.93,1.93,0,0,1,2.076,1.992H70.686A2.037,2.037,0,0,1,72.762,12.24Zm3.072,3.732H74.658a1.807,1.807,0,0,1-1.848,1.212,2.067,2.067,0,0,1-2.136-2.064H75.93a5.919,5.919,0,0,0,.036-.66,3.014,3.014,0,0,0-3.156-3.144A3.129,3.129,0,0,0,69.558,14.7a3.168,3.168,0,0,0,3.252,3.408A2.957,2.957,0,0,0,75.834,15.972Zm6.3.24c-.048-2.352-3.864-1.5-3.864-3.06,0-.528.48-.912,1.284-.912a1.265,1.265,0,0,1,1.428,1.14h1.092a2.206,2.206,0,0,0-2.484-2.064c-1.464,0-2.412.828-2.412,1.836,0,2.448,3.888,1.6,3.888,3.06,0,.54-.48.972-1.344.972-.924,0-1.488-.48-1.548-1.116H77.046c.072,1.2,1.152,2.04,2.688,2.04C81.186,18.108,82.134,17.292,82.134,16.212Zm6.264,0c-.048-2.352-3.864-1.5-3.864-3.06,0-.528.48-.912,1.284-.912a1.265,1.265,0,0,1,1.428,1.14h1.092a2.206,2.206,0,0,0-2.484-2.064c-1.464,0-2.412.828-2.412,1.836,0,2.448,3.888,1.6,3.888,3.06,0,.54-.48.972-1.344.972-.924,0-1.488-.48-1.548-1.116H83.31c.072,1.2,1.152,2.04,2.688,2.04C87.45,18.108,88.4,17.292,88.4,16.212Zm1.128-1.524a3.163,3.163,0,0,0,3.108,3.42,2.746,2.746,0,0,0,2.46-1.332V18h1.1V11.424h-1.1v1.2a2.729,2.729,0,0,0-2.448-1.308A3.116,3.116,0,0,0,89.526,14.688Zm5.568.012a2.237,2.237,0,1,1-4.452-.012,2.22,2.22,0,0,1,2.22-2.424A2.253,2.253,0,0,1,95.094,14.7Zm2.544-.012a3.165,3.165,0,0,0,3.12,3.42,2.748,2.748,0,0,0,2.448-1.344v1.38a1.952,1.952,0,0,1-2.04,2.148,2.042,2.042,0,0,1-2.1-1.332h-1.08c.216,1.4,1.452,2.28,3.18,2.28a2.948,2.948,0,0,0,3.144-3.1v-6.72h-1.1v1.2a2.71,2.71,0,0,0-2.448-1.308A3.116,3.116,0,0,0,97.638,14.688Zm5.568.012a2.237,2.237,0,1,1-4.452-.012,2.22,2.22,0,0,1,2.22-2.424A2.253,2.253,0,0,1,103.206,14.7Zm5.748-2.46a1.93,1.93,0,0,1,2.076,1.992h-4.152A2.037,2.037,0,0,1,108.954,12.24Zm3.072,3.732H110.85A1.807,1.807,0,0,1,109,17.184a2.067,2.067,0,0,1-2.136-2.064h5.256a5.919,5.919,0,0,0,.036-.66A3.014,3.014,0,0,0,109,11.316,3.129,3.129,0,0,0,105.75,14.7,3.168,3.168,0,0,0,109,18.108,2.957,2.957,0,0,0,112.026,15.972ZM-62.736,36h1.092V32.364c0-1.416.768-2.112,1.884-2.112s1.836.684,1.836,2.028V36h1.08V32.124a2.537,2.537,0,0,0-2.628-2.82,2.474,2.474,0,0,0-2.172,1.068V27.12h-1.092Zm10.476-5.76a1.93,1.93,0,0,1,2.076,1.992h-4.152A2.037,2.037,0,0,1-52.26,30.24Zm3.072,3.732h-1.176a1.807,1.807,0,0,1-1.848,1.212,2.067,2.067,0,0,1-2.136-2.064h5.256a5.92,5.92,0,0,0,.036-.66,3.014,3.014,0,0,0-3.156-3.144A3.129,3.129,0,0,0-55.464,32.7a3.168,3.168,0,0,0,3.252,3.408A2.957,2.957,0,0,0-49.188,33.972Zm2.664-1.548c0-1.524.792-1.992,1.836-1.992h.288V29.3a2.215,2.215,0,0,0-2.124,1.188V29.424h-1.092V36h1.092Zm6.18-2.184a1.93,1.93,0,0,1,2.076,1.992H-42.42A2.037,2.037,0,0,1-40.344,30.24Zm3.072,3.732h-1.176A1.807,1.807,0,0,1-40.3,35.184a2.067,2.067,0,0,1-2.136-2.064h5.256a5.92,5.92,0,0,0,.036-.66A3.014,3.014,0,0,0-40.3,29.316,3.129,3.129,0,0,0-43.548,32.7,3.168,3.168,0,0,0-40.3,36.108,2.957,2.957,0,0,0-37.272,33.972ZM-31.212,36h1.128l1.584-5.22L-26.916,36h1.128l2.052-6.576h-1.08L-26.3,34.956l-1.6-5.532h-1.116l-1.632,5.52-1.512-5.52h-1.116Zm8.556,0h1.092V29.424h-1.092Zm.564-7.644a.728.728,0,0,0,.72-.744.728.728,0,0,0-.72-.744.733.733,0,0,0-.744.744A.733.733,0,0,0-22.092,28.356Zm2.628,5.844c0,1.32.66,1.8,1.824,1.8h.984v-.924h-.8c-.672,0-.912-.228-.912-.876V30.324h1.716v-.9h-1.716V27.768h-1.092v1.656h-.852v.9h.852Zm4.128,1.8h1.092V32.364c0-1.416.768-2.112,1.884-2.112s1.836.684,1.836,2.028V36h1.08V32.124a2.537,2.537,0,0,0-2.628-2.82,2.474,2.474,0,0,0-2.172,1.068V27.12h-1.092Zm11.124-1.8c0,1.32.66,1.8,1.824,1.8H-1.4v-.924h-.8c-.672,0-.912-.228-.912-.876V30.324H-1.4v-.9H-3.12V27.768H-4.212v1.656h-.852v.9h.852ZM-.084,36H1.008V32.364c0-1.416.768-2.112,1.884-2.112s1.836.684,1.836,2.028V36h1.08V32.124A2.537,2.537,0,0,0,3.18,29.3a2.474,2.474,0,0,0-2.172,1.068V27.12H-.084Zm10.476-5.76a1.93,1.93,0,0,1,2.076,1.992H8.316A2.037,2.037,0,0,1,10.392,30.24Zm3.072,3.732H12.288a1.807,1.807,0,0,1-1.848,1.212A2.067,2.067,0,0,1,8.3,33.12H13.56a5.92,5.92,0,0,0,.036-.66,3.014,3.014,0,0,0-3.156-3.144A3.129,3.129,0,0,0,7.188,32.7a3.168,3.168,0,0,0,3.252,3.408A2.957,2.957,0,0,0,13.464,33.972Zm10.608-4.548H22.98v3.612c0,1.416-.756,2.112-1.884,2.112a1.764,1.764,0,0,1-1.836-2.016V29.424H18.18v3.852a2.565,2.565,0,0,0,2.7,2.82,2.418,2.418,0,0,0,2.1-1.068V36h1.092Zm2.94,1.212V29.424H25.92v9.7h1.092V34.788a2.845,2.845,0,0,0,2.46,1.32,3.165,3.165,0,0,0,3.12-3.42,3.116,3.116,0,0,0-3.12-3.372A2.778,2.778,0,0,0,27.012,30.636Zm4.464,2.052a2.242,2.242,0,1,1-4.464.012,2.26,2.26,0,0,1,2.232-2.436A2.223,2.223,0,0,1,31.476,32.688Zm2.148,0a3.165,3.165,0,0,0,3.12,3.42,2.7,2.7,0,0,0,2.448-1.344V36h1.1V27.12h-1.1V30.6a2.868,2.868,0,0,0-2.436-1.284A3.119,3.119,0,0,0,33.624,32.688Zm5.568.012a2.237,2.237,0,1,1-4.452-.012,2.22,2.22,0,0,1,2.22-2.424A2.253,2.253,0,0,1,39.192,32.7Zm2.544-.012a3.163,3.163,0,0,0,3.108,3.42,2.746,2.746,0,0,0,2.46-1.332V36h1.1V29.424H47.3v1.2a2.729,2.729,0,0,0-2.448-1.308A3.116,3.116,0,0,0,41.736,32.688ZM47.3,32.7a2.237,2.237,0,1,1-4.452-.012,2.22,2.22,0,0,1,2.22-2.424A2.253,2.253,0,0,1,47.3,32.7ZM50.5,34.2c0,1.32.66,1.8,1.824,1.8H53.3v-.924h-.8c-.672,0-.912-.228-.912-.876V30.324H53.3v-.9H51.588V27.768H50.5v1.656h-.852v.9H50.5Zm6.924-3.96A1.93,1.93,0,0,1,59.5,32.232H55.344A2.037,2.037,0,0,1,57.42,30.24Zm3.072,3.732H59.316a1.807,1.807,0,0,1-1.848,1.212,2.067,2.067,0,0,1-2.136-2.064h5.256a5.92,5.92,0,0,0,.036-.66,3.014,3.014,0,0,0-3.156-3.144A3.129,3.129,0,0,0,54.216,32.7a3.168,3.168,0,0,0,3.252,3.408A2.957,2.957,0,0,0,60.492,33.972Zm2.64,1.356a.732.732,0,1,0-.72.744A.728.728,0,0,0,63.132,35.328Z" transform="translate(121.641 59.39)" fill="#0f72ee"/></g></g><g transform="translate(97.524 26.682)"><g transform="translate(31 6.471)"><g transform="translate(0)"><path d="M62.183,107.071a3.2,3.2,0,0,0-2.383-5.333H53.589a20.683,20.683,0,0,0,.878-5.405V95.267A4.272,4.272,0,0,0,50.2,91H49.133a1.066,1.066,0,0,0-1.035.808l-.581,2.325c-.814,3.255-3.4,6.847-6.074,7.5A3.2,3.2,0,0,0,38.467,99.6h-6.4A1.067,1.067,0,0,0,31,100.671v19.2a1.067,1.067,0,0,0,1.067,1.067h6.4a3.2,3.2,0,0,0,2.889-1.824l3.665,1.222a11.708,11.708,0,0,0,3.711.6h8.936a3.2,3.2,0,0,0,2.975-4.379,3.2,3.2,0,0,0,1.541-5.221,3.194,3.194,0,0,0,0-4.267Zm-22.65,10.667a1.068,1.068,0,0,1-1.067,1.067H33.133V101.738h5.333a1.068,1.068,0,0,1,1.067,1.067Zm18.133-9.6H59.8a1.067,1.067,0,0,1,0,2.133H57.667a1.067,1.067,0,1,0,0,2.133H59.8a1.067,1.067,0,0,1,0,2.133H57.667a1.067,1.067,0,0,0,0,2.133,1.067,1.067,0,1,1,0,2.133H48.731a9.579,9.579,0,0,1-3.036-.493l-4.028-1.343v-13.2a8.6,8.6,0,0,0,4.789-3.112,15.564,15.564,0,0,0,3.131-6.008l.379-1.517H50.2a2.136,2.136,0,0,1,2.133,2.133v1.066a16.879,16.879,0,0,1-1.021,5.405H49.133a1.067,1.067,0,0,0,0,2.133H59.8a1.067,1.067,0,1,1,0,2.133H57.667a1.067,1.067,0,0,0,0,2.133Z" transform="translate(-31 -91)" fill="#0f72ee"/></g></g><g transform="translate(35.267 30.009)"><g transform="translate(0)"><circle cx="1.067" cy="1.067" r="1.067" fill="#0f72ee"/></g></g><g transform="translate(50.2)"><g transform="translate(0)"><path d="M302.067,0A1.067,1.067,0,0,0,301,1.067v2.2a1.067,1.067,0,0,0,2.133,0v-2.2A1.067,1.067,0,0,0,302.067,0Z" transform="translate(-301)" fill="#0f72ee"/></g></g><g transform="translate(43.412 2.883)"><path d="M208.87,42.362l-1.509-1.508a1.067,1.067,0,1,0-1.508,1.508l1.508,1.508a1.067,1.067,0,0,0,1.509-1.508Z" transform="translate(-205.54 -40.542)" fill="#0f72ee"/></g><g transform="translate(55.48 2.883)"><g transform="translate(0)"><path d="M378.576,40.854a1.067,1.067,0,0,0-1.508,0l-1.508,1.508a1.067,1.067,0,0,0,1.508,1.509l1.508-1.508A1.067,1.067,0,0,0,378.576,40.854Z" transform="translate(-375.247 -40.542)" fill="#0f72ee"/></g></g></g></g></svg>