<svg xmlns="http://www.w3.org/2000/svg" xmlns:xlink="http://www.w3.org/1999/xlink" width="135" height="135" viewBox="0 0 135 135"><defs><filter id="a" x="0" y="0" width="135" height="135" filterUnits="userSpaceOnUse"><feOffset dy="16" input="SourceAlpha"/><feGaussianBlur stdDeviation="12" result="b"/><feFlood flood-opacity="0.161"/><feComposite operator="in" in2="b"/><feComposite in="SourceGraphic"/></filter></defs><g transform="translate(-1194.611 -770.35)"><g transform="matrix(1, 0, 0, 1, 1194.61, 770.35)" filter="url(#a)"><path d="M16,0H47A16,16,0,0,1,63,16V47A16,16,0,0,1,47,63H0a0,0,0,0,1,0,0V16A16,16,0,0,1,16,0Z" transform="translate(36 20)" fill="#fff"/></g><g transform="translate(1169.611 801.35)"><path d="M131.125,85.375h-18A1.125,1.125,0,0,1,112,84.25V74.125a10.125,10.125,0,0,1,20.25,0V84.25A1.125,1.125,0,0,1,131.125,85.375Zm-16.875-2.25H130v-9a7.875,7.875,0,0,0-15.75,0Z" transform="translate(-29.75 -59.5)" fill="#0f72ee"/><path d="M101.375,342.75h-18a3.375,3.375,0,0,1,0-6.75h18a3.375,3.375,0,0,1,0,6.75Zm-18-4.5a1.125,1.125,0,0,0,0,2.25h18a1.125,1.125,0,0,0,0-2.25Z" transform="translate(0 -312.375)" fill="#0f72ee"/><path d="M241.125,6.75A1.125,1.125,0,0,1,240,5.625V2.813a2.813,2.813,0,0,1,5.625,0,1.125,1.125,0,0,1-2.25,0,.563.563,0,0,0-1.125,0V5.625A1.125,1.125,0,0,1,241.125,6.75Z" transform="translate(-148.75)" fill="#0f72ee"/><path d="M196.5,407.875a4.5,4.5,0,0,1-3.353-7.5,1.125,1.125,0,0,1,.838-.374h5.03a1.125,1.125,0,0,1,.838.374,4.5,4.5,0,0,1-3.353,7.5Zm-1.949-5.625a2.25,2.25,0,1,0,3.9,0Z" transform="translate(-104.125 -371.875)" fill="#0f72ee"/><circle cx="1.067" cy="1.067" r="1.067" transform="translate(96.267 19.009)" fill="#0f72ee"/></g><rect width="22" height="4" transform="translate(1251.611 826.35)" fill="#0f72ee" opacity="0.1"/></g></svg>