<svg xmlns="http://www.w3.org/2000/svg" xmlns:xlink="http://www.w3.org/1999/xlink" width="395" height="161" viewBox="0 0 395 161"><defs><filter id="a" x="0" y="0" width="395" height="161" filterUnits="userSpaceOnUse"><feOffset dy="16" input="SourceAlpha"/><feGaussianBlur stdDeviation="12" result="b"/><feFlood flood-opacity="0.161"/><feComposite operator="in" in2="b"/><feComposite in="SourceGraphic"/></filter></defs><g transform="translate(36.357 -50.638)"><g transform="matrix(1, 0, 0, 1, -36.36, 50.64)" filter="url(#a)"><rect width="323" height="89" rx="16" transform="translate(36 20)" fill="#fff"/></g><path d="M.585-9.03h2.79V0h1.71V-9.03H7.86v-1.4H.585Zm9,9.03H11.3V-4.62a2,2,0,0,1,2.085-2.3c1.245,0,2.07.78,2.07,2.3V0h1.7V-4.875A3.187,3.187,0,0,0,13.86-8.4,3.276,3.276,0,0,0,11.3-7.3v-3.8H9.585ZM22.8-6.96a2.146,2.146,0,0,1,2.31,2.085H20.535A2.251,2.251,0,0,1,22.8-6.96Zm3.87,4.5H24.825A2,2,0,0,1,22.875-1.3a2.274,2.274,0,0,1-2.355-2.19h6.315a5.275,5.275,0,0,0,.06-.84A3.854,3.854,0,0,0,22.875-8.4,3.958,3.958,0,0,0,18.75-4.14,4.01,4.01,0,0,0,22.875.135,3.777,3.777,0,0,0,26.67-2.46Zm3.615-1.89c0-1.755.78-2.28,2.04-2.28h.435V-8.4a2.692,2.692,0,0,0-2.475,1.335v-1.2h-1.71V0h1.71Zm7.53-2.61a2.146,2.146,0,0,1,2.31,2.085H35.55A2.251,2.251,0,0,1,37.815-6.96Zm3.87,4.5H39.84A2,2,0,0,1,37.89-1.3a2.274,2.274,0,0,1-2.355-2.19H41.85a5.275,5.275,0,0,0,.06-.84A3.854,3.854,0,0,0,37.89-8.4a3.958,3.958,0,0,0-4.125,4.26A4.01,4.01,0,0,0,37.89.135,3.777,3.777,0,0,0,41.685-2.46ZM47.49,0H49.2V-8.265H47.49Zm.87-9.36a1.079,1.079,0,0,0,1.08-1.095,1.079,1.079,0,0,0-1.08-1.095,1.082,1.082,0,0,0-1.095,1.095A1.082,1.082,0,0,0,48.36-9.36Zm9.255,7.05c-.09-2.985-4.755-2.055-4.755-3.72,0-.555.48-.93,1.4-.93A1.367,1.367,0,0,1,55.8-5.745h1.71C57.42-7.395,56.19-8.4,54.315-8.4c-1.95,0-3.18,1.065-3.18,2.385,0,3.03,4.8,2.1,4.8,3.72,0,.57-.525.99-1.515.99a1.508,1.508,0,0,1-1.65-1.23H51c.075,1.5,1.47,2.67,3.45,2.67C56.4.135,57.615-.915,57.615-2.31ZM62.79-4.17A4,4,0,0,0,66.66.135,3.557,3.557,0,0,0,69.555-1.23V0H71.28V-8.265H69.555v1.2A3.518,3.518,0,0,0,66.69-8.4,3.934,3.934,0,0,0,62.79-4.17Zm6.765.03a2.568,2.568,0,0,1-2.5,2.79,2.6,2.6,0,0,1-2.505-2.82A2.536,2.536,0,0,1,67.05-6.915,2.563,2.563,0,0,1,69.555-4.14ZM83.295,0H84.99V-4.875A3.219,3.219,0,0,0,81.6-8.4a3.18,3.18,0,0,0-2.46,1.08v-.945H77.43V0h1.71V-4.62a2,2,0,0,1,2.085-2.3c1.245,0,2.07.78,2.07,2.3Zm7.35-6.96a2.146,2.146,0,0,1,2.31,2.085H88.38A2.251,2.251,0,0,1,90.645-6.96Zm3.87,4.5H92.67A2,2,0,0,1,90.72-1.3a2.274,2.274,0,0,1-2.355-2.19H94.68a5.275,5.275,0,0,0,.06-.84A3.854,3.854,0,0,0,90.72-8.4,3.958,3.958,0,0,0,86.6-4.14,4.01,4.01,0,0,0,90.72.135,3.777,3.777,0,0,0,94.515-2.46ZM98.025,0h1.8l1.665-6.105L103.155,0h1.8l2.565-8.265h-1.68L104.13-1.65l-1.68-6.615h-1.785L98.91-1.62,97.185-8.265h-1.74Zm14.1-4.14a3.953,3.953,0,0,0,4.05,4.275,3.712,3.712,0,0,0,3.81-2.745H118.14a1.888,1.888,0,0,1-1.965,1.3c-1.38,0-2.3-1.02-2.3-2.835s.915-2.82,2.3-2.82a1.932,1.932,0,0,1,1.965,1.3h1.845a3.6,3.6,0,0,0-3.81-2.745A3.948,3.948,0,0,0,112.125-4.14Zm17.445,0a4.076,4.076,0,0,0-4.215-4.26,4.076,4.076,0,0,0-4.215,4.26A4.03,4.03,0,0,0,125.28.135,4.14,4.14,0,0,0,129.57-4.14Zm-6.69,0a2.462,2.462,0,0,1,2.445-2.775,2.5,2.5,0,0,1,2.49,2.775,2.546,2.546,0,0,1-2.535,2.79C123.99-1.35,122.88-2.265,122.88-4.14ZM142.98,0h1.7V-4.875a3.23,3.23,0,0,0-3.4-3.525,3.236,3.236,0,0,0-2.88,1.635A3.188,3.188,0,0,0,135.42-8.4a3.148,3.148,0,0,0-2.445,1.08v-.945h-1.71V0h1.71V-4.62a2,2,0,0,1,2.085-2.3c1.245,0,2.07.78,2.07,2.3V0h1.695V-4.62a2,2,0,0,1,2.085-2.3c1.245,0,2.07.78,2.07,2.3Zm15.585,0h1.7V-4.875a3.23,3.23,0,0,0-3.4-3.525,3.236,3.236,0,0,0-2.88,1.635,3.188,3.188,0,0,0-2.97-1.635,3.148,3.148,0,0,0-2.445,1.08v-.945h-1.71V0h1.71V-4.62a2,2,0,0,1,2.085-2.3c1.245,0,2.07.78,2.07,2.3V0h1.695V-4.62a2,2,0,0,1,2.085-2.3c1.245,0,2.07.78,2.07,2.3Zm7.35-6.96a2.146,2.146,0,0,1,2.31,2.085H163.65A2.251,2.251,0,0,1,165.915-6.96Zm3.87,4.5H167.94A2,2,0,0,1,165.99-1.3a2.274,2.274,0,0,1-2.355-2.19h6.315a5.275,5.275,0,0,0,.06-.84A3.854,3.854,0,0,0,165.99-8.4a3.958,3.958,0,0,0-4.125,4.26A4.01,4.01,0,0,0,165.99.135,3.777,3.777,0,0,0,169.785-2.46ZM177.555,0h1.695V-4.875A3.219,3.219,0,0,0,175.86-8.4a3.18,3.18,0,0,0-2.46,1.08v-.945h-1.71V0h1.71V-4.62a2,2,0,0,1,2.085-2.3c1.245,0,2.07.78,2.07,2.3Zm4.14-2.3c0,1.68.915,2.3,2.385,2.3h1.35V-1.425h-1.05c-.72,0-.96-.255-.96-.87V-6.87h2.01v-1.4h-2.01V-10.32H181.7v2.055h-.975v1.4h.975ZM198.78-4.14a4.076,4.076,0,0,0-4.215-4.26,4.076,4.076,0,0,0-4.215,4.26A4.03,4.03,0,0,0,194.49.135,4.14,4.14,0,0,0,198.78-4.14Zm-6.69,0a2.462,2.462,0,0,1,2.445-2.775,2.5,2.5,0,0,1,2.49,2.775,2.546,2.546,0,0,1-2.535,2.79C193.2-1.35,192.09-2.265,192.09-4.14ZM206.34,0h1.695V-4.875a3.219,3.219,0,0,0-3.39-3.525,3.18,3.18,0,0,0-2.46,1.08v-.945h-1.71V0h1.71V-4.62a2,2,0,0,1,2.085-2.3c1.245,0,2.07.78,2.07,2.3ZM4.38,17.035l-2.325-6.3H.15L3.4,18.865l-1.68,4.02h1.77l5.07-12.15H6.8ZM17.73,14.86a4.076,4.076,0,0,0-4.215-4.26A4.076,4.076,0,0,0,9.3,14.86a4.03,4.03,0,0,0,4.14,4.275A4.14,4.14,0,0,0,17.73,14.86Zm-6.69,0a2.462,2.462,0,0,1,2.445-2.775,2.5,2.5,0,0,1,2.49,2.775,2.546,2.546,0,0,1-2.535,2.79C12.15,17.65,11.04,16.735,11.04,14.86Zm15.87-4.125H25.2V15.34a2,2,0,0,1-2.085,2.3c-1.245,0-2.07-.78-2.07-2.3V10.735H19.35V15.6a3.23,3.23,0,0,0,3.405,3.525A3.076,3.076,0,0,0,25.2,18.01V19h1.71Zm3.96,3.915c0-1.755.78-2.28,2.04-2.28h.435V10.6a2.692,2.692,0,0,0-2.475,1.335v-1.2H29.16V19h1.71ZM39.09,16.7c0,1.68.915,2.3,2.385,2.3h1.35V17.575h-1.05c-.72,0-.96-.255-.96-.87V12.13h2.01v-1.4h-2.01V8.68H39.09v2.055h-.975v1.4h.975ZM44.4,19h1.71V10.735H44.4Zm.87-9.36a1.095,1.095,0,1,0-1.095-1.095A1.079,1.079,0,0,0,45.27,9.64Zm2.52,5.22a3.953,3.953,0,0,0,4.05,4.275,3.712,3.712,0,0,0,3.81-2.745H53.805a1.888,1.888,0,0,1-1.965,1.305c-1.38,0-2.295-1.02-2.295-2.835s.915-2.82,2.295-2.82a1.932,1.932,0,0,1,1.965,1.3H55.65A3.6,3.6,0,0,0,51.84,10.6,3.948,3.948,0,0,0,47.79,14.86ZM57.36,19h1.71V15.445L62.13,19h2.31l-3.81-4.125,3.81-4.14H62.07l-3,3.615V7.9H57.36Zm11.79-6.96a2.146,2.146,0,0,1,2.31,2.085H66.885A2.251,2.251,0,0,1,69.15,12.04Zm3.87,4.5H71.175a2,2,0,0,1-1.95,1.155,2.274,2.274,0,0,1-2.355-2.19h6.315a5.275,5.275,0,0,0,.06-.84,3.854,3.854,0,0,0-4.02-4.065A3.958,3.958,0,0,0,65.1,14.86a4.01,4.01,0,0,0,4.125,4.275A3.777,3.777,0,0,0,73.02,16.54Zm2.175.165c0,1.68.915,2.3,2.385,2.3h1.35V17.575H77.88c-.72,0-.96-.255-.96-.87V12.13h2.01v-1.4H76.92V8.68H75.195v2.055H74.22v1.4h.975Zm15.765-1.98H88.02l.555-2.6h2.94ZM90.045,19H91.68l.6-2.775h2.295v-1.5H92.6l.555-2.6h2.31v-1.5h-2L94.05,7.9H92.415l-.585,2.73H88.89l.585-2.73H87.84l-.585,2.73H84.63v1.5h2.31l-.555,2.6h-2.64v1.5H86.07L85.47,19H87.1l.6-2.775h2.94Zm6.9-9.03h2.79V19h1.71V9.97h2.775v-1.4H96.945ZM111.69,19h2.235l-4.605-5.2,4.53-5.22h-2.145l-4.05,4.755V8.575h-1.71V19h1.71V14.335Zm3.21-9.03h2.79V19h1.71V9.97h2.775v-1.4H114.9Zm8.775,3.42c0,3.18.84,5.58,3.9,5.58s3.9-2.4,3.9-5.58c0-3.12-.84-5.52-3.9-5.52S123.675,10.27,123.675,13.39Zm6.12,0c0,2.145-.225,4.02-2.22,4.02s-2.22-1.875-2.22-4.02c0-2.04.225-3.96,2.22-3.96S129.795,11.35,129.795,13.39Zm3.945-5.355V14.35h1.62a2.118,2.118,0,0,1,4.1.87c0,1.35-.66,2.355-2.13,2.355a2.039,2.039,0,0,1-2.16-1.53H133.5c.255,1.71,1.56,2.955,3.81,2.955a3.516,3.516,0,0,0,3.78-3.825,3.332,3.332,0,0,0-3.51-3.645,2.93,2.93,0,0,0-2.265.99V9.535h5.025v-1.5ZM148.1,19h1.68V16.72h1.4V15.235h-1.4V8.2h-2.07l-5.04,7.23v1.29h5.43Zm-3.465-3.765,3.54-5.3v5.3Z" transform="translate(85.644 104.638)" fill="#0f72ee"/><g transform="translate(15.36 83.926)"><circle cx="26" cy="26" r="26" transform="translate(4.283 4.415)" fill="#0f72ee"/><g transform="translate(15.894 20.1)"><path d="M403.27,352.25a5.54,5.54,0,1,1,5.515-5.542v1.173h-8.468a3.168,3.168,0,0,0,4.971,1.285l.215-.179,1.8,1.52-.274.259A5.481,5.481,0,0,1,403.27,352.25Zm2.952-6.719a3.169,3.169,0,0,0-5.905,0Z" transform="translate(-394.412 -337.806)" fill="#fff"/><path d="M703.687,352.106a5.548,5.548,0,1,1,5.515-5.543v1.176h-8.466a3.168,3.168,0,0,0,4.971,1.285l.215-.179,1.8,1.519-.277.26A5.478,5.478,0,0,1,703.687,352.106Zm2.952-6.719a3.17,3.17,0,0,0-5.9,0Z" transform="translate(-683.038 -337.662)" fill="#fff"/><path d="M313.777,277.308a1.34,1.34,0,0,1-1.337-1.344V264.744a8.891,8.891,0,0,1,8.857-8.9H333.09a8.9,8.9,0,0,1,0,17.8H321.537a.664.664,0,0,0-.3.07l-6.86,3.444a1.321,1.321,0,0,1-.6.148Zm7.52-19.115a6.542,6.542,0,0,0-6.518,6.551v9.589l5.409-2.719a3.008,3.008,0,0,1,1.349-.319H333.09a6.551,6.551,0,0,0,0-13.1Z" transform="translate(-312.44 -255.842)" fill="#fff"/></g></g><path d="M.51-.08H5.32V-.84H1.88C3.17-1.89,5.11-3.42,5.11-5.22A2.034,2.034,0,0,0,2.87-7.36,2.215,2.215,0,0,0,.54-5.02h.88A1.429,1.429,0,0,1,2.88-6.58a1.221,1.221,0,0,1,1.33,1.4c0,1.48-1.8,2.92-3.7,4.45Zm6.9-.48a.606.606,0,0,0-.6-.62.611.611,0,0,0-.62.62.611.611,0,0,0,.62.62A.606.606,0,0,0,7.41-.56Zm0-4.28a.606.606,0,0,0-.6-.62.611.611,0,0,0-.62.62.611.611,0,0,0,.62.62A.606.606,0,0,0,7.41-4.84ZM8.39-.08H13.2V-.84H9.76c1.29-1.05,3.23-2.58,3.23-4.38a2.034,2.034,0,0,0-2.24-2.14A2.215,2.215,0,0,0,8.42-5.02H9.3a1.429,1.429,0,0,1,1.46-1.56,1.221,1.221,0,0,1,1.33,1.4c0,1.48-1.8,2.92-3.7,4.45ZM17.73,0h.9V-1.61h1V-2.4h-1V-7.16H17.54L14.03-2.3v.69h3.7ZM15.08-2.4l2.69-3.81V-2.4Zm9.19-1.26V-6.22h1.34c1.04,0,1.48.48,1.48,1.29,0,.78-.44,1.27-1.48,1.27Zm3.75-1.27c0-1.14-.77-2.04-2.41-2.04H23.36V0h.91V-2.91h1.34C27.34-2.91,28.02-3.87,28.02-4.93ZM29.15,0h.91V-5.17L32.37,0h.64l2.3-5.16V0h.91V-6.92h-.97L32.69-1.2,30.13-6.92h-.98Z" transform="translate(85.643 145.341)" fill="#0f72ee"/></g></svg>