<svg xmlns="http://www.w3.org/2000/svg" xmlns:xlink="http://www.w3.org/1999/xlink" width="388" height="297" viewBox="0 0 388 297"><defs><filter id="a" x="0" y="0" width="388" height="297" filterUnits="userSpaceOnUse"><feOffset dy="6" input="SourceAlpha"/><feGaussianBlur stdDeviation="21" result="b"/><feFlood flood-opacity="0.161"/><feComposite operator="in" in2="b"/><feComposite in="SourceGraphic"/></filter></defs><g transform="translate(63.357 57.362)"><g transform="matrix(1, 0, 0, 1, -63.36, -57.36)" filter="url(#a)"><rect width="262" height="171" rx="16" transform="translate(63 57)" fill="#fff"/></g><rect width="22" height="4" transform="translate(119.644 56.638)" fill="#0f72ee" opacity="0.2"/><g transform="translate(38.644 31.638)"><path d="M131.125,85.375h-18A1.125,1.125,0,0,1,112,84.25V74.125a10.125,10.125,0,0,1,20.25,0V84.25A1.125,1.125,0,0,1,131.125,85.375Zm-16.875-2.25H130v-9a7.875,7.875,0,0,0-15.75,0Z" transform="translate(-29.75 -59.5)" fill="#0f72ee"/><path d="M101.375,342.75h-18a3.375,3.375,0,0,1,0-6.75h18a3.375,3.375,0,0,1,0,6.75Zm-18-4.5a1.125,1.125,0,0,0,0,2.25h18a1.125,1.125,0,0,0,0-2.25Z" transform="translate(0 -312.375)" fill="#0f72ee"/><path d="M241.125,6.75A1.125,1.125,0,0,1,240,5.625V2.813a2.813,2.813,0,0,1,5.625,0,1.125,1.125,0,0,1-2.25,0,.563.563,0,0,0-1.125,0V5.625A1.125,1.125,0,0,1,241.125,6.75Z" transform="translate(-148.75)" fill="#0f72ee"/><path d="M196.5,407.875a4.5,4.5,0,0,1-3.353-7.5,1.125,1.125,0,0,1,.838-.374h5.03a1.125,1.125,0,0,1,.838.374,4.5,4.5,0,0,1-3.353,7.5Zm-1.949-5.625a2.25,2.25,0,1,0,3.9,0Z" transform="translate(-104.125 -371.875)" fill="#0f72ee"/><circle cx="1.067" cy="1.067" r="1.067" transform="translate(96.267 19.009)" fill="#0f72ee"/></g><path d="M-94.433-10.425V0H-89.2V-1.38h-3.525v-9.045Zm10.14,3.465a2.146,2.146,0,0,1,2.31,2.085h-4.575A2.251,2.251,0,0,1-84.293-6.96Zm3.87,4.5h-1.845A2,2,0,0,1-84.218-1.3a2.274,2.274,0,0,1-2.355-2.19h6.315a5.275,5.275,0,0,0,.06-.84A3.854,3.854,0,0,0-84.218-8.4a3.958,3.958,0,0,0-4.125,4.26A4.01,4.01,0,0,0-84.218.135,3.777,3.777,0,0,0-80.423-2.46Zm5.385-4.5a2.146,2.146,0,0,1,2.31,2.085H-77.3A2.251,2.251,0,0,1-75.037-6.96Zm3.87,4.5h-1.845A2,2,0,0,1-74.963-1.3a2.274,2.274,0,0,1-2.355-2.19H-71a5.275,5.275,0,0,0,.06-.84A3.854,3.854,0,0,0-74.963-8.4a3.958,3.958,0,0,0-4.125,4.26A4.01,4.01,0,0,0-74.963.135,3.777,3.777,0,0,0-71.168-2.46ZM-63.4,0H-61.7V-4.875A3.219,3.219,0,0,0-65.093-8.4a3.18,3.18,0,0,0-2.46,1.08v-.945h-1.71V0h1.71V-4.62a2,2,0,0,1,2.085-2.3c1.245,0,2.07.78,2.07,2.3Zm3.3-4.17A4,4,0,0,0-56.228.135a3.557,3.557,0,0,0,2.9-1.365V0h1.725V-8.265h-1.725v1.2A3.518,3.518,0,0,0-56.2-8.4,3.934,3.934,0,0,0-60.1-4.17Zm6.765.03a2.568,2.568,0,0,1-2.505,2.79,2.6,2.6,0,0,1-2.5-2.82,2.536,2.536,0,0,1,2.5-2.745A2.563,2.563,0,0,1-53.333-4.14ZM-38.423,0h1.8l-3.735-10.44h-1.98L-46.073,0h1.785l.75-2.13h4.365Zm-1.23-3.525h-3.4l1.71-4.845ZM-35,0h1.71V-10.425H-35Zm7.86,0h1.71V-8.265h-1.71Zm.87-9.36a1.079,1.079,0,0,0,1.08-1.095,1.079,1.079,0,0,0-1.08-1.095,1.082,1.082,0,0,0-1.1,1.095A1.082,1.082,0,0,0-26.273-9.36Zm9.255,7.05c-.09-2.985-4.755-2.055-4.755-3.72,0-.555.48-.93,1.4-.93a1.367,1.367,0,0,1,1.545,1.215h1.71c-.09-1.65-1.32-2.655-3.195-2.655-1.95,0-3.18,1.065-3.18,2.385,0,3.03,4.8,2.1,4.8,3.72,0,.57-.525.99-1.515.99a1.508,1.508,0,0,1-1.65-1.23h-1.77c.075,1.5,1.47,2.67,3.45,2.67C-18.233.135-17.018-.915-17.018-2.31Zm5.175-1.86A4,4,0,0,0-7.972.135a3.557,3.557,0,0,0,2.9-1.365V0h1.725V-8.265H-5.077v1.2A3.518,3.518,0,0,0-7.942-8.4,3.934,3.934,0,0,0-11.842-4.17Zm6.765.03A2.568,2.568,0,0,1-7.582-1.35a2.6,2.6,0,0,1-2.505-2.82A2.536,2.536,0,0,1-7.582-6.915,2.563,2.563,0,0,1-5.077-4.14Zm3.4-.03A4,4,0,0,0,2.227.135a3.427,3.427,0,0,0,2.865-1.38V0H6.817V-11.1H5.092v3.99A3.807,3.807,0,0,0,2.242-8.4,3.937,3.937,0,0,0-1.673-4.17Zm6.765.03A2.568,2.568,0,0,1,2.587-1.35,2.6,2.6,0,0,1,.082-4.17,2.536,2.536,0,0,1,2.587-6.915,2.563,2.563,0,0,1,5.092-4.14Zm3.4-.03A4,4,0,0,0,12.4.135a3.427,3.427,0,0,0,2.865-1.38V0h1.725V-11.1H15.262v3.99a3.807,3.807,0,0,0-2.85-1.29A3.937,3.937,0,0,0,8.5-4.17Zm6.765.03a2.568,2.568,0,0,1-2.5,2.79,2.6,2.6,0,0,1-2.505-2.82,2.536,2.536,0,0,1,2.505-2.745A2.563,2.563,0,0,1,15.262-4.14ZM19.237,0h1.71V-8.265h-1.71Zm.87-9.36a1.079,1.079,0,0,0,1.08-1.095,1.079,1.079,0,0,0-1.08-1.095,1.082,1.082,0,0,0-1.1,1.095A1.082,1.082,0,0,0,20.107-9.36ZM29.062,0h1.695V-4.875A3.219,3.219,0,0,0,27.367-8.4a3.18,3.18,0,0,0-2.46,1.08v-.945H23.2V0h1.71V-4.62a2,2,0,0,1,2.085-2.3c1.245,0,2.07.78,2.07,2.3Zm3.3-4.17a4,4,0,0,0,3.9,4.305,3.548,3.548,0,0,0,2.865-1.38V.135a2.2,2.2,0,0,1-2.31,2.46,2.3,2.3,0,0,1-2.355-1.44H32.767c.21,1.83,1.845,2.925,4.05,2.925A3.748,3.748,0,0,0,40.852.135v-8.4H39.127v1.2A3.5,3.5,0,0,0,36.262-8.4,3.934,3.934,0,0,0,32.362-4.17Zm6.765.03a2.568,2.568,0,0,1-2.505,2.79,2.6,2.6,0,0,1-2.5-2.82,2.536,2.536,0,0,1,2.5-2.745A2.563,2.563,0,0,1,39.127-4.14ZM52.867,0h1.695V-4.875A3.219,3.219,0,0,0,51.172-8.4a3.18,3.18,0,0,0-2.46,1.08v-.945H47V0h1.71V-4.62a2,2,0,0,1,2.085-2.3c1.245,0,2.07.78,2.07,2.3Zm7.35-6.96a2.146,2.146,0,0,1,2.31,2.085H57.952A2.251,2.251,0,0,1,60.217-6.96Zm3.87,4.5H62.242A2,2,0,0,1,60.292-1.3a2.274,2.274,0,0,1-2.355-2.19h6.315a5.275,5.275,0,0,0,.06-.84A3.854,3.854,0,0,0,60.292-8.4a3.958,3.958,0,0,0-4.125,4.26A4.01,4.01,0,0,0,60.292.135,3.777,3.777,0,0,0,64.087-2.46ZM67.6,0h1.8l1.665-6.105L72.728,0h1.8l2.565-8.265h-1.68L73.7-1.65l-1.68-6.615H70.238L68.482-1.62,66.757-8.265h-1.74ZM89.3,0h1.8L87.367-10.44h-1.98L81.652,0h1.785l.75-2.13h4.365Zm-1.23-3.525h-3.4l1.71-4.845ZM92.722,0h1.71V-10.425h-1.71Zm-192.1,14.83a4,4,0,0,0,3.87,4.305A3.557,3.557,0,0,0-92.61,17.77V19h1.725V10.735H-92.61v1.2A3.518,3.518,0,0,0-95.475,10.6,3.934,3.934,0,0,0-99.375,14.83Zm6.765.03a2.568,2.568,0,0,1-2.5,2.79,2.6,2.6,0,0,1-2.505-2.82,2.536,2.536,0,0,1,2.505-2.745A2.563,2.563,0,0,1-92.61,14.86Zm10.14,1.83c-.09-2.985-4.755-2.055-4.755-3.72,0-.555.48-.93,1.395-.93a1.367,1.367,0,0,1,1.545,1.215h1.71c-.09-1.65-1.32-2.655-3.195-2.655-1.95,0-3.18,1.065-3.18,2.385,0,3.03,4.8,2.1,4.8,3.72,0,.57-.525.99-1.515.99a1.508,1.508,0,0,1-1.65-1.23h-1.77c.075,1.5,1.47,2.67,3.45,2.67C-83.685,19.135-82.47,18.085-82.47,16.69Zm8.01,0c-.09-2.985-4.755-2.055-4.755-3.72,0-.555.48-.93,1.395-.93a1.367,1.367,0,0,1,1.545,1.215h1.71c-.09-1.65-1.32-2.655-3.195-2.655-1.95,0-3.18,1.065-3.18,2.385,0,3.03,4.8,2.1,4.8,3.72,0,.57-.525.99-1.515.99a1.508,1.508,0,0,1-1.65-1.23h-1.77c.075,1.5,1.47,2.67,3.45,2.67C-75.675,19.135-74.46,18.085-74.46,16.69ZM-72.615,19h1.71V10.735h-1.71Zm.87-9.36a1.079,1.079,0,0,0,1.08-1.095,1.079,1.079,0,0,0-1.08-1.095,1.082,1.082,0,0,0-1.1,1.095A1.082,1.082,0,0,0-71.745,9.64Zm9.255,7.05c-.09-2.985-4.755-2.055-4.755-3.72,0-.555.48-.93,1.395-.93a1.367,1.367,0,0,1,1.545,1.215h1.71c-.09-1.65-1.32-2.655-3.2-2.655-1.95,0-3.18,1.065-3.18,2.385,0,3.03,4.8,2.1,4.8,3.72,0,.57-.525.99-1.515.99a1.508,1.508,0,0,1-1.65-1.23H-69.1c.075,1.5,1.47,2.67,3.45,2.67C-63.7,19.135-62.49,18.085-62.49,16.69Zm2.115.015c0,1.68.915,2.3,2.385,2.3h1.35V17.575h-1.05c-.72,0-.96-.255-.96-.87V12.13h2.01v-1.4h-2.01V8.68h-1.725v2.055h-.975v1.4h.975Zm4.74-1.875a4,4,0,0,0,3.87,4.305,3.557,3.557,0,0,0,2.9-1.365V19h1.725V10.735H-48.87v1.2A3.518,3.518,0,0,0-51.735,10.6,3.934,3.934,0,0,0-55.635,14.83Zm6.765.03a2.568,2.568,0,0,1-2.505,2.79,2.6,2.6,0,0,1-2.5-2.82,2.536,2.536,0,0,1,2.5-2.745A2.563,2.563,0,0,1-48.87,14.86ZM-39.03,19h1.695V14.125a3.219,3.219,0,0,0-3.39-3.525,3.18,3.18,0,0,0-2.46,1.08v-.945H-44.9V19h1.71V14.38a2,2,0,0,1,2.085-2.3c1.245,0,2.07.78,2.07,2.3Zm4.14-2.3c0,1.68.915,2.3,2.385,2.3h1.35V17.575H-32.2c-.72,0-.96-.255-.96-.87V12.13h2.01v-1.4h-2.01V8.68H-34.89v2.055h-.975v1.4h.975Zm9.48,0c0,1.68.915,2.3,2.385,2.3h1.35V17.575h-1.05c-.72,0-.96-.255-.96-.87V12.13h2.01v-1.4h-2.01V8.68H-25.41v2.055h-.975v1.4h.975Zm13.185-1.845A4.076,4.076,0,0,0-16.44,10.6a4.076,4.076,0,0,0-4.215,4.26,4.03,4.03,0,0,0,4.14,4.275A4.14,4.14,0,0,0-12.225,14.86Zm-6.69,0a2.462,2.462,0,0,1,2.445-2.775,2.5,2.5,0,0,1,2.49,2.775,2.546,2.546,0,0,1-2.535,2.79C-17.8,17.65-18.915,16.735-18.915,14.86Zm20.16,0A4.076,4.076,0,0,0-2.97,10.6a4.076,4.076,0,0,0-4.215,4.26,4.03,4.03,0,0,0,4.14,4.275A4.14,4.14,0,0,0,1.245,14.86Zm-6.69,0A2.462,2.462,0,0,1-3,12.085,2.5,2.5,0,0,1-.51,14.86a2.546,2.546,0,0,1-2.535,2.79C-4.335,17.65-5.445,16.735-5.445,14.86Zm15.87-4.125H8.715V15.34a2,2,0,0,1-2.085,2.3c-1.245,0-2.07-.78-2.07-2.3V10.735H2.865V15.6a3.23,3.23,0,0,0,3.4,3.525,3.076,3.076,0,0,0,2.445-1.11V19h1.71Zm3.96,3.915c0-1.755.78-2.28,2.04-2.28h.435V10.6a2.692,2.692,0,0,0-2.475,1.335v-1.2h-1.71V19h1.71ZM22.6,16.7c0,1.68.915,2.3,2.385,2.3h1.35V17.575H25.29c-.72,0-.96-.255-.96-.87V12.13h2.01v-1.4H24.33V8.68H22.6v2.055H21.63v1.4H22.6ZM31.4,12.04a2.146,2.146,0,0,1,2.31,2.085H29.13A2.251,2.251,0,0,1,31.4,12.04Zm3.87,4.5H33.42a2,2,0,0,1-1.95,1.155,2.274,2.274,0,0,1-2.355-2.19H35.43a5.275,5.275,0,0,0,.06-.84A3.854,3.854,0,0,0,31.47,10.6a3.958,3.958,0,0,0-4.125,4.26,4.01,4.01,0,0,0,4.125,4.275A3.777,3.777,0,0,0,35.265,16.54ZM36.6,14.83a4,4,0,0,0,3.87,4.305,3.557,3.557,0,0,0,2.9-1.365V19H45.09V10.735H43.365v1.2A3.518,3.518,0,0,0,40.5,10.6,3.934,3.934,0,0,0,36.6,14.83Zm6.765.03a2.568,2.568,0,0,1-2.505,2.79,2.6,2.6,0,0,1-2.5-2.82,2.536,2.536,0,0,1,2.5-2.745A2.563,2.563,0,0,1,43.365,14.86ZM59.055,19H60.75V14.125a3.388,3.388,0,0,0-6.285-1.89A3.188,3.188,0,0,0,51.5,10.6a3.148,3.148,0,0,0-2.445,1.08v-.945H47.34V19h1.71V14.38a2,2,0,0,1,2.085-2.3c1.245,0,2.07.78,2.07,2.3V19H54.9V14.38a2,2,0,0,1,2.085-2.3c1.245,0,2.07.78,2.07,2.3Zm7.2-4.14a3.953,3.953,0,0,0,4.05,4.275,3.712,3.712,0,0,0,3.81-2.745H72.27a1.888,1.888,0,0,1-1.965,1.305c-1.38,0-2.3-1.02-2.3-2.835s.915-2.82,2.3-2.82a1.932,1.932,0,0,1,1.965,1.3h1.845a3.6,3.6,0,0,0-3.81-2.745A3.948,3.948,0,0,0,66.255,14.86ZM75.825,19h1.71V7.9h-1.71Zm3.96,0h1.71V10.735h-1.71Zm.87-9.36a1.095,1.095,0,1,0-1.1-1.095A1.079,1.079,0,0,0,80.655,9.64Zm2.52,5.22a3.953,3.953,0,0,0,4.05,4.275,3.712,3.712,0,0,0,3.81-2.745H89.19a1.888,1.888,0,0,1-1.965,1.305c-1.38,0-2.3-1.02-2.3-2.835s.915-2.82,2.3-2.82a1.932,1.932,0,0,1,1.965,1.3h1.845a3.6,3.6,0,0,0-3.81-2.745A3.948,3.948,0,0,0,83.175,14.86ZM92.745,19h1.71V15.445L97.515,19h2.31l-3.81-4.125,3.81-4.14h-2.37l-3,3.615V7.9h-1.71ZM-51.847,35.705c0,1.68.915,2.295,2.385,2.295h1.35V36.575h-1.05c-.72,0-.96-.255-.96-.87V31.13h2.01v-1.4h-2.01V27.68h-1.725v2.055h-.975v1.4h.975Zm13.185-1.845a4.076,4.076,0,0,0-4.215-4.26,4.076,4.076,0,0,0-4.215,4.26,4.03,4.03,0,0,0,4.14,4.275A4.14,4.14,0,0,0-38.662,33.86Zm-6.69,0a2.462,2.462,0,0,1,2.445-2.775,2.5,2.5,0,0,1,2.49,2.775,2.546,2.546,0,0,1-2.535,2.79C-44.243,36.65-45.352,35.735-45.352,33.86ZM-33.068,38h1.71V34.445L-28.3,38h2.31l-3.81-4.125,3.81-4.14h-2.37l-3,3.615V26.9h-1.71Zm14.175,0H-17.2V33.125a3.219,3.219,0,0,0-3.39-3.525,3.18,3.18,0,0,0-2.46,1.08v-.945h-1.71V38h1.71V33.38a2,2,0,0,1,2.085-2.3c1.245,0,2.07.78,2.07,2.3Zm11.745-4.14a4.076,4.076,0,0,0-4.215-4.26,4.076,4.076,0,0,0-4.215,4.26,4.03,4.03,0,0,0,4.14,4.275A4.14,4.14,0,0,0-7.147,33.86Zm-6.69,0a2.462,2.462,0,0,1,2.445-2.775A2.5,2.5,0,0,1-8.9,33.86a2.546,2.546,0,0,1-2.535,2.79C-12.727,36.65-13.837,35.735-13.837,33.86ZM-3.847,38h1.8l1.665-6.1L1.283,38h1.8l2.565-8.265H3.968L2.258,36.35.578,29.735H-1.207L-2.962,36.38l-1.725-6.645h-1.74Zm26.385,0h1.695V33.125a3.23,3.23,0,0,0-3.4-3.525,3.236,3.236,0,0,0-2.88,1.635,3.188,3.188,0,0,0-2.97-1.635,3.148,3.148,0,0,0-2.445,1.08v-.945h-1.71V38h1.71V33.38a2,2,0,0,1,2.085-2.3c1.245,0,2.07.78,2.07,2.3V38h1.695V33.38a2,2,0,0,1,2.085-2.3c1.245,0,2.07.78,2.07,2.3Zm11.745-4.14a4.215,4.215,0,1,0-8.43,0,4.03,4.03,0,0,0,4.14,4.275A4.14,4.14,0,0,0,34.283,33.86Zm-6.69,0a2.462,2.462,0,0,1,2.445-2.775,2.5,2.5,0,0,1,2.49,2.775,2.546,2.546,0,0,1-2.535,2.79C28.7,36.65,27.593,35.735,27.593,33.86Zm10.095-.21c0-1.755.78-2.28,2.04-2.28h.435V29.6a2.692,2.692,0,0,0-2.475,1.335v-1.2h-1.71V38h1.71Zm7.53-2.61a2.146,2.146,0,0,1,2.31,2.085H42.953A2.251,2.251,0,0,1,45.218,31.04Zm3.87,4.5H47.243a2,2,0,0,1-1.95,1.155,2.274,2.274,0,0,1-2.355-2.19h6.315a5.275,5.275,0,0,0,.06-.84,3.854,3.854,0,0,0-4.02-4.065,3.958,3.958,0,0,0-4.125,4.26,4.01,4.01,0,0,0,4.125,4.275A3.777,3.777,0,0,0,49.088,35.54Zm.855,4.545h1.11l1.815-4.14h-1.86Z" transform="translate(130.644 99.638)" fill="#0f72ee"/></g></svg>