<svg xmlns="http://www.w3.org/2000/svg" xmlns:xlink="http://www.w3.org/1999/xlink" width="341" height="346" viewBox="0 0 341 346"><defs><filter id="a" x="0" y="0" width="341" height="346" filterUnits="userSpaceOnUse"><feOffset dy="6" input="SourceAlpha"/><feGaussianBlur stdDeviation="21" result="b"/><feFlood flood-opacity="0.161"/><feComposite operator="in" in2="b"/><feComposite in="SourceGraphic"/></filter><filter id="c" x="54" y="230" width="233" height="59" filterUnits="userSpaceOnUse"><feOffset dy="3" input="SourceAlpha"/><feGaussianBlur stdDeviation="3" result="d"/><feFlood flood-opacity="0.161"/><feComposite operator="in" in2="d"/><feComposite in="SourceGraphic"/></filter></defs><g transform="translate(62.858 56.731)"><g transform="matrix(1, 0, 0, 1, -62.86, -56.73)" filter="url(#a)"><rect width="215" height="220" rx="16" transform="translate(63 57)" fill="#fff"/></g><g transform="translate(26.877 21.502)"><g transform="translate(0 0)"><g transform="translate(0 0)"><g transform="translate(128.265 -0.233)" fill="#0f72ee" stroke="#fff" stroke-miterlimit="10" stroke-width="2" opacity="0.1"><ellipse cx="17" cy="17.5" rx="17" ry="17.5" stroke="none"/><ellipse cx="17" cy="17.5" rx="16" ry="16.5" fill="none"/></g><path d="M-43.245-3.75V-6.02h1.26c.89,0,1.29.42,1.29,1.14,0,.7-.4,1.13-1.29,1.13Zm3.72-1.13c0-1.13-.81-2.07-2.46-2.07h-2.4V0h1.14V-2.82h1.26C-40.175-2.82-39.525-3.89-39.525-4.88Zm.71,2.1A2.663,2.663,0,0,0-36.235.09a2.372,2.372,0,0,0,1.93-.91V0h1.15V-5.51h-1.15v.8a2.345,2.345,0,0,0-1.91-.89A2.623,2.623,0,0,0-38.815-2.78Zm4.51.02A1.712,1.712,0,0,1-35.975-.9a1.736,1.736,0,0,1-1.67-1.88,1.69,1.69,0,0,1,1.67-1.83A1.709,1.709,0,0,1-34.305-2.76Zm4.82,1.45-1.55-4.2h-1.27l2.17,5.42-1.12,2.68h1.18l3.38-8.1h-1.18Zm7.76-.23c-.06-1.99-3.17-1.37-3.17-2.48,0-.37.32-.62.93-.62a.911.911,0,0,1,1.03.81h1.14a1.889,1.889,0,0,0-2.13-1.77c-1.3,0-2.12.71-2.12,1.59,0,2.02,3.2,1.4,3.2,2.48,0,.38-.35.66-1.01.66a1,1,0,0,1-1.1-.82h-1.18a2.079,2.079,0,0,0,2.3,1.78C-22.535.09-21.725-.61-21.725-1.54ZM-20.5,0h1.14V-7.4H-20.5Zm2.64,0h1.14V-5.51h-1.14Zm.58-6.24a.719.719,0,0,0,.72-.73.719.719,0,0,0-.72-.73.721.721,0,0,0-.73.73A.721.721,0,0,0-17.275-6.24Zm3.2,1.54v-.81h-1.14V2.62h1.14V-.8a2.491,2.491,0,0,0,1.92.89,2.659,2.659,0,0,0,2.59-2.87,2.615,2.615,0,0,0-2.59-2.82A2.4,2.4,0,0,0-14.075-4.7Zm3.35,1.92A1.737,1.737,0,0,1-12.405-.9a1.718,1.718,0,0,1-1.67-1.86,1.714,1.714,0,0,1,1.67-1.85A1.692,1.692,0,0,1-10.725-2.78Zm5.01-.36h4.11V-4.1h-4.11Zm8.37,1.2c0,.58-.29,1-.9,1s-.89-.42-.9-1H-.3A1.905,1.905,0,0,0,1.755.07,1.905,1.905,0,0,0,3.8-1.94V-6.95H2.655Zm2.62-.84A2.663,2.663,0,0,0,7.855.09a2.372,2.372,0,0,0,1.93-.91V0h1.15V-5.51H9.785v.8a2.345,2.345,0,0,0-1.91-.89A2.623,2.623,0,0,0,5.275-2.78Zm4.51.02A1.712,1.712,0,0,1,8.115-.9a1.736,1.736,0,0,1-1.67-1.88,1.69,1.69,0,0,1,1.67-1.83A1.709,1.709,0,0,1,9.785-2.76ZM16.345,0h1.13V-3.25a2.146,2.146,0,0,0-2.26-2.35,2.12,2.12,0,0,0-1.64.72v-.63h-1.14V0h1.14V-3.08a1.336,1.336,0,0,1,1.39-1.53c.83,0,1.38.52,1.38,1.53Zm4.94-.1h4.86v-.95h-3.17c1.17-1.07,2.97-2.42,2.97-4.19a2.1,2.1,0,0,0-2.32-2.2,2.212,2.212,0,0,0-2.35,2.35h1.1c.03-.82.46-1.38,1.26-1.38.85,0,1.18.52,1.18,1.28,0,1.43-1.81,2.75-3.53,4.26Zm5.86-3.64c0,2.12.56,3.72,2.6,3.72s2.6-1.6,2.6-3.72c0-2.08-.56-3.68-2.6-3.68S27.145-5.82,27.145-3.74Zm4.08,0c0,1.43-.15,2.68-1.48,2.68s-1.48-1.25-1.48-2.68c0-1.36.15-2.64,1.48-2.64S31.225-5.1,31.225-3.74ZM33.465-.1h4.86v-.95h-3.17c1.17-1.07,2.97-2.42,2.97-4.19a2.1,2.1,0,0,0-2.32-2.2,2.212,2.212,0,0,0-2.35,2.35h1.1c.03-.82.46-1.38,1.26-1.38.85,0,1.18.52,1.18,1.28,0,1.43-1.81,2.75-3.53,4.26Zm5.86-3.64c0,2.12.56,3.72,2.6,3.72s2.6-1.6,2.6-3.72c0-2.08-.56-3.68-2.6-3.68S39.325-5.82,39.325-3.74Zm4.08,0c0,1.43-.15,2.68-1.48,2.68s-1.48-1.25-1.48-2.68c0-1.36.15-2.64,1.48-2.64S43.4-5.1,43.4-3.74ZM-45.135,1h12.918V2H-45.135Zm16.723,0h12.2V2h-12.2Zm15.337,0h58.21V2h-58.21Z" transform="translate(45.265 18.767)" fill="#0f72ee"/><g transform="translate(140.461 12.386)"><g transform="translate(2.033)"><g transform="translate(0)"><path d="M132.618,4.236a.29.29,0,0,0-.264-.17h-1.162V.29A.291.291,0,0,0,130.9,0H129.74a.29.29,0,0,0-.29.29V4.065h-1.162a.29.29,0,0,0-.218.481L130.1,6.87a.29.29,0,0,0,.437,0l2.033-2.323A.289.289,0,0,0,132.618,4.236Z" transform="translate(-127.998)" fill="#0f72ee"/></g></g><g transform="translate(0 6.389)"><g transform="translate(0)"><path d="M23.55,352v1.742H17.162V352H16v2.323a.581.581,0,0,0,.581.581h7.55a.58.58,0,0,0,.581-.581V352Z" transform="translate(-16 -352)" fill="#0f72ee"/></g></g></g></g></g></g><g transform="translate(26.877 58.055)"><g transform="translate(0 0)"><g transform="translate(0 0)"><g transform="translate(128.265 0.214)" fill="#0f72ee" stroke="#fff" stroke-miterlimit="10" stroke-width="2" opacity="0.1"><circle cx="17" cy="17" r="17" stroke="none"/><circle cx="17" cy="17" r="16" fill="none"/></g><path d="M-42.84-3.75V-6.02h1.26c.89,0,1.29.42,1.29,1.14,0,.7-.4,1.13-1.29,1.13Zm3.72-1.13c0-1.13-.81-2.07-2.46-2.07h-2.4V0h1.14V-2.82h1.26C-39.77-2.82-39.12-3.89-39.12-4.88Zm.71,2.1A2.663,2.663,0,0,0-35.83.09,2.372,2.372,0,0,0-33.9-.82V0h1.15V-5.51H-33.9v.8a2.345,2.345,0,0,0-1.91-.89A2.623,2.623,0,0,0-38.41-2.78Zm4.51.02A1.712,1.712,0,0,1-35.57-.9a1.736,1.736,0,0,1-1.67-1.88,1.69,1.69,0,0,1,1.67-1.83A1.709,1.709,0,0,1-33.9-2.76Zm4.82,1.45-1.55-4.2H-31.9l2.17,5.42-1.12,2.68h1.18l3.38-8.1h-1.18Zm7.76-.23c-.06-1.99-3.17-1.37-3.17-2.48,0-.37.32-.62.93-.62a.911.911,0,0,1,1.03.81h1.14A1.889,1.889,0,0,0-23.52-5.6c-1.3,0-2.12.71-2.12,1.59,0,2.02,3.2,1.4,3.2,2.48,0,.38-.35.66-1.01.66a1,1,0,0,1-1.1-.82h-1.18A2.079,2.079,0,0,0-23.43.09C-22.13.09-21.32-.61-21.32-1.54ZM-20.09,0h1.14V-7.4h-1.14Zm2.64,0h1.14V-5.51h-1.14Zm.58-6.24a.719.719,0,0,0,.72-.73.719.719,0,0,0-.72-.73.721.721,0,0,0-.73.73A.721.721,0,0,0-16.87-6.24Zm3.2,1.54v-.81h-1.14V2.62h1.14V-.8a2.491,2.491,0,0,0,1.92.89A2.659,2.659,0,0,0-9.16-2.78,2.615,2.615,0,0,0-11.75-5.6,2.4,2.4,0,0,0-13.67-4.7Zm3.35,1.92A1.737,1.737,0,0,1-12-.9a1.718,1.718,0,0,1-1.67-1.86A1.714,1.714,0,0,1-12-4.61,1.692,1.692,0,0,1-10.32-2.78Zm5.01-.36H-1.2V-4.1H-5.31ZM.42,0H1.56V-3.04h2.3v-.93H1.56V-6.02H4.51v-.93H.42ZM7.89-4.64A1.431,1.431,0,0,1,9.43-3.25H6.38A1.5,1.5,0,0,1,7.89-4.64Zm2.58,3H9.24a1.334,1.334,0,0,1-1.3.77A1.516,1.516,0,0,1,6.37-2.33h4.21a3.517,3.517,0,0,0,.04-.56A2.57,2.57,0,0,0,7.94-5.6,2.639,2.639,0,0,0,5.19-2.76,2.673,2.673,0,0,0,7.94.09,2.518,2.518,0,0,0,10.47-1.64Zm2.41-3.05V-7.4H11.74V0h1.14V-.8A2.342,2.342,0,0,0,14.8.09a2.659,2.659,0,0,0,2.59-2.87A2.609,2.609,0,0,0,14.8-5.6,2.356,2.356,0,0,0,12.88-4.69Zm3.35,1.91A1.737,1.737,0,0,1,14.55-.9a1.718,1.718,0,0,1-1.67-1.86,1.714,1.714,0,0,1,1.67-1.85A1.692,1.692,0,0,1,16.23-2.78ZM20.88-.1h4.86v-.95H22.57c1.17-1.07,2.97-2.42,2.97-4.19a2.1,2.1,0,0,0-2.32-2.2,2.212,2.212,0,0,0-2.35,2.35h1.1c.03-.82.46-1.38,1.26-1.38.85,0,1.18.52,1.18,1.28,0,1.43-1.81,2.75-3.53,4.26Zm5.86-3.64c0,2.12.56,3.72,2.6,3.72s2.6-1.6,2.6-3.72c0-2.08-.56-3.68-2.6-3.68S26.74-5.82,26.74-3.74Zm4.08,0c0,1.43-.15,2.68-1.48,2.68s-1.48-1.25-1.48-2.68c0-1.36.15-2.64,1.48-2.64S30.82-5.1,30.82-3.74ZM33.06-.1h4.86v-.95H34.75c1.17-1.07,2.97-2.42,2.97-4.19a2.1,2.1,0,0,0-2.32-2.2,2.212,2.212,0,0,0-2.35,2.35h1.1c.03-.82.46-1.38,1.26-1.38.85,0,1.18.52,1.18,1.28,0,1.43-1.81,2.75-3.53,4.26Zm5.86-3.64c0,2.12.56,3.72,2.6,3.72s2.6-1.6,2.6-3.72c0-2.08-.56-3.68-2.6-3.68S38.92-5.82,38.92-3.74Zm4.08,0c0,1.43-.15,2.68-1.48,2.68s-1.48-1.25-1.48-2.68c0-1.36.15-2.64,1.48-2.64S43-5.1,43-3.74ZM-44.73,1h12.918V2H-44.73Zm16.723,0h12.2V2h-12.2ZM-12.67,1h57.4V2h-57.4Z" transform="translate(45.265 19.215)" fill="#0f72ee"/><g transform="translate(140.461 12.751)"><g transform="translate(2.033)"><g transform="translate(0)"><path d="M132.618,4.236a.29.29,0,0,0-.264-.17h-1.162V.29A.291.291,0,0,0,130.9,0H129.74a.29.29,0,0,0-.29.29V4.065h-1.162a.29.29,0,0,0-.218.481L130.1,6.87a.29.29,0,0,0,.437,0l2.033-2.323A.289.289,0,0,0,132.618,4.236Z" transform="translate(-127.998)" fill="#0f72ee"/></g></g><g transform="translate(0 6.389)"><g transform="translate(0)"><path d="M23.55,352v1.742H17.162V352H16v2.323a.581.581,0,0,0,.581.581h7.55a.58.58,0,0,0,.581-.581V352Z" transform="translate(-16 -352)" fill="#0f72ee"/></g></g></g></g></g></g><g transform="translate(26.877 95.682)"><g transform="translate(0 0)"><g transform="translate(0 0)"><g transform="translate(128.265 -0.413)" fill="#0f72ee" stroke="#fff" stroke-miterlimit="10" stroke-width="2" opacity="0.1"><ellipse cx="17" cy="17.5" rx="17" ry="17.5" stroke="none"/><ellipse cx="17" cy="17.5" rx="16" ry="16.5" fill="none"/></g><path d="M-43.51-3.75V-6.02h1.26c.89,0,1.29.42,1.29,1.14,0,.7-.4,1.13-1.29,1.13Zm3.72-1.13c0-1.13-.81-2.07-2.46-2.07h-2.4V0h1.14V-2.82h1.26C-40.44-2.82-39.79-3.89-39.79-4.88Zm.71,2.1A2.663,2.663,0,0,0-36.5.09a2.372,2.372,0,0,0,1.93-.91V0h1.15V-5.51h-1.15v.8a2.345,2.345,0,0,0-1.91-.89A2.623,2.623,0,0,0-39.08-2.78Zm4.51.02A1.712,1.712,0,0,1-36.24-.9a1.736,1.736,0,0,1-1.67-1.88,1.69,1.69,0,0,1,1.67-1.83A1.709,1.709,0,0,1-34.57-2.76Zm4.82,1.45-1.55-4.2h-1.27L-30.4-.09l-1.12,2.68h1.18l3.38-8.1h-1.18Zm7.76-.23c-.06-1.99-3.17-1.37-3.17-2.48,0-.37.32-.62.93-.62a.911.911,0,0,1,1.03.81h1.14A1.889,1.889,0,0,0-24.19-5.6c-1.3,0-2.12.71-2.12,1.59,0,2.02,3.2,1.4,3.2,2.48,0,.38-.35.66-1.01.66a1,1,0,0,1-1.1-.82H-26.4A2.079,2.079,0,0,0-24.1.09C-22.8.09-21.99-.61-21.99-1.54ZM-20.76,0h1.14V-7.4h-1.14Zm2.64,0h1.14V-5.51h-1.14Zm.58-6.24a.719.719,0,0,0,.72-.73.719.719,0,0,0-.72-.73.721.721,0,0,0-.73.73A.721.721,0,0,0-17.54-6.24Zm3.2,1.54v-.81h-1.14V2.62h1.14V-.8a2.491,2.491,0,0,0,1.92.89A2.659,2.659,0,0,0-9.83-2.78,2.615,2.615,0,0,0-12.42-5.6,2.4,2.4,0,0,0-14.34-4.7Zm3.35,1.92A1.737,1.737,0,0,1-12.67-.9a1.718,1.718,0,0,1-1.67-1.86,1.714,1.714,0,0,1,1.67-1.85A1.692,1.692,0,0,1-10.99-2.78Zm5.01-.36h4.11V-4.1H-5.98ZM-.25,0H.89V-4.76L3.02,0h.79L5.93-4.76V0H7.07V-6.95H5.85L3.42-1.5.98-6.95H-.25ZM8.19-2.78A2.663,2.663,0,0,0,10.77.09,2.372,2.372,0,0,0,12.7-.82V0h1.15V-5.51H12.7v.8a2.345,2.345,0,0,0-1.91-.89A2.623,2.623,0,0,0,8.19-2.78Zm4.51.02A1.712,1.712,0,0,1,11.03-.9,1.736,1.736,0,0,1,9.36-2.78a1.69,1.69,0,0,1,1.67-1.83A1.709,1.709,0,0,1,12.7-2.76Zm3.79-.14c0-1.17.52-1.52,1.36-1.52h.29V-5.6a1.8,1.8,0,0,0-1.65.89v-.8H15.35V0h1.14ZM21.55-.1h4.86v-.95H23.24c1.17-1.07,2.97-2.42,2.97-4.19a2.1,2.1,0,0,0-2.32-2.2,2.212,2.212,0,0,0-2.35,2.35h1.1c.03-.82.46-1.38,1.26-1.38.85,0,1.18.52,1.18,1.28,0,1.43-1.81,2.75-3.53,4.26Zm5.86-3.64c0,2.12.56,3.72,2.6,3.72s2.6-1.6,2.6-3.72c0-2.08-.56-3.68-2.6-3.68S27.41-5.82,27.41-3.74Zm4.08,0c0,1.43-.15,2.68-1.48,2.68s-1.48-1.25-1.48-2.68c0-1.36.15-2.64,1.48-2.64S31.49-5.1,31.49-3.74ZM33.73-.1h4.86v-.95H35.42c1.17-1.07,2.97-2.42,2.97-4.19a2.1,2.1,0,0,0-2.32-2.2,2.212,2.212,0,0,0-2.35,2.35h1.1c.03-.82.46-1.38,1.26-1.38.85,0,1.18.52,1.18,1.28,0,1.43-1.81,2.75-3.53,4.26Zm5.86-3.64c0,2.12.56,3.72,2.6,3.72s2.6-1.6,2.6-3.72c0-2.08-.56-3.68-2.6-3.68S39.59-5.82,39.59-3.74Zm4.08,0c0,1.43-.15,2.68-1.48,2.68s-1.48-1.25-1.48-2.68c0-1.36.15-2.64,1.48-2.64S43.67-5.1,43.67-3.74ZM-45.4,1h12.918V2H-45.4Zm16.723,0h12.2V2h-12.2ZM-13.34,1H45.4V2H-13.34Z" transform="translate(45.265 18.587)" fill="#0f72ee"/><g transform="translate(140.461 12.041)"><g transform="translate(2.033)"><g transform="translate(0)"><path d="M132.618,4.236a.29.29,0,0,0-.264-.17h-1.162V.29A.291.291,0,0,0,130.9,0H129.74a.29.29,0,0,0-.29.29V4.065h-1.162a.29.29,0,0,0-.218.481L130.1,6.87a.29.29,0,0,0,.437,0l2.033-2.323A.289.289,0,0,0,132.618,4.236Z" transform="translate(-127.998)" fill="#0f72ee"/></g></g><g transform="translate(0 6.389)"><g transform="translate(0)"><path d="M23.55,352v1.742H17.162V352H16v2.323a.581.581,0,0,0,.581.581h7.55a.58.58,0,0,0,.581-.581V352Z" transform="translate(-16 -352)" fill="#0f72ee"/></g></g></g></g></g></g><g transform="translate(25.801 132.235)"><g transform="translate(0 0)"><g transform="translate(0 0)"><g transform="translate(129.34 0.034)" fill="#0f72ee" stroke="#fff" stroke-miterlimit="10" stroke-width="2" opacity="0.1"><circle cx="17" cy="17" r="17" stroke="none"/><circle cx="17" cy="17" r="16" fill="none"/></g><path d="M-42.585-3.75V-6.02h1.26c.89,0,1.29.42,1.29,1.14,0,.7-.4,1.13-1.29,1.13Zm3.72-1.13c0-1.13-.81-2.07-2.46-2.07h-2.4V0h1.14V-2.82h1.26C-39.515-2.82-38.865-3.89-38.865-4.88Zm.71,2.1A2.663,2.663,0,0,0-35.575.09a2.372,2.372,0,0,0,1.93-.91V0h1.15V-5.51h-1.15v.8a2.345,2.345,0,0,0-1.91-.89A2.623,2.623,0,0,0-38.155-2.78Zm4.51.02A1.712,1.712,0,0,1-35.315-.9a1.736,1.736,0,0,1-1.67-1.88,1.69,1.69,0,0,1,1.67-1.83A1.709,1.709,0,0,1-33.645-2.76Zm4.82,1.45-1.55-4.2h-1.27l2.17,5.42L-30.6,2.59h1.18l3.38-8.1h-1.18Zm7.76-.23c-.06-1.99-3.17-1.37-3.17-2.48,0-.37.32-.62.93-.62a.911.911,0,0,1,1.03.81h1.14a1.889,1.889,0,0,0-2.13-1.77c-1.3,0-2.12.71-2.12,1.59,0,2.02,3.2,1.4,3.2,2.48,0,.38-.35.66-1.01.66a1,1,0,0,1-1.1-.82h-1.18a2.079,2.079,0,0,0,2.3,1.78C-21.875.09-21.065-.61-21.065-1.54ZM-19.835,0h1.14V-7.4h-1.14Zm2.64,0h1.14V-5.51H-17.2Zm.58-6.24a.719.719,0,0,0,.72-.73.719.719,0,0,0-.72-.73.721.721,0,0,0-.73.73A.721.721,0,0,0-16.615-6.24Zm3.2,1.54v-.81h-1.14V2.62h1.14V-.8A2.491,2.491,0,0,0-11.5.09a2.659,2.659,0,0,0,2.59-2.87A2.615,2.615,0,0,0-11.5-5.6,2.4,2.4,0,0,0-13.415-4.7Zm3.35,1.92A1.737,1.737,0,0,1-11.745-.9a1.718,1.718,0,0,1-1.67-1.86,1.714,1.714,0,0,1,1.67-1.85A1.692,1.692,0,0,1-10.065-2.78Zm5.01-.36h4.11V-4.1h-4.11ZM5.365,0h1.2L4.075-6.96H2.755L.265,0h1.19l.5-1.42h2.91Zm-.82-2.35H2.275l1.14-3.23ZM8.785-4.7v-.81H7.645V2.62h1.14V-.8A2.491,2.491,0,0,0,10.7.09a2.659,2.659,0,0,0,2.59-2.87A2.615,2.615,0,0,0,10.7-5.6,2.4,2.4,0,0,0,8.785-4.7Zm3.35,1.92A1.737,1.737,0,0,1,10.455-.9a1.718,1.718,0,0,1-1.67-1.86,1.714,1.714,0,0,1,1.67-1.85A1.692,1.692,0,0,1,12.135-2.78Zm3.43-.12c0-1.17.52-1.52,1.36-1.52h.29V-5.6a1.8,1.8,0,0,0-1.65.89v-.8h-1.14V0h1.14Zm5.06,2.8h4.86v-.95h-3.17c1.17-1.07,2.97-2.42,2.97-4.19a2.1,2.1,0,0,0-2.32-2.2,2.212,2.212,0,0,0-2.35,2.35h1.1c.03-.82.46-1.38,1.26-1.38.85,0,1.18.52,1.18,1.28,0,1.43-1.81,2.75-3.53,4.26Zm5.86-3.64c0,2.12.56,3.72,2.6,3.72s2.6-1.6,2.6-3.72c0-2.08-.56-3.68-2.6-3.68S26.485-5.82,26.485-3.74Zm4.08,0c0,1.43-.15,2.68-1.48,2.68S27.6-2.31,27.6-3.74c0-1.36.15-2.64,1.48-2.64S30.565-5.1,30.565-3.74ZM32.8-.1h4.86v-.95h-3.17c1.17-1.07,2.97-2.42,2.97-4.19a2.1,2.1,0,0,0-2.32-2.2,2.212,2.212,0,0,0-2.35,2.35h1.1c.03-.82.46-1.38,1.26-1.38.85,0,1.18.52,1.18,1.28,0,1.43-1.81,2.75-3.53,4.26Zm5.86-3.64c0,2.12.56,3.72,2.6,3.72s2.6-1.6,2.6-3.72c0-2.08-.56-3.68-2.6-3.68S38.665-5.82,38.665-3.74Zm4.08,0c0,1.43-.15,2.68-1.48,2.68s-1.48-1.25-1.48-2.68c0-1.36.15-2.64,1.48-2.64S42.745-5.1,42.745-3.74ZM-44.475,1h12.918V2H-44.475Zm16.723,0h12.2V2h-12.2Zm15.337,0H6.645V2h-19.06Zm22.2,0h34.69V2H9.785Z" transform="translate(44.34 21.034)" fill="#0f72ee"/><g transform="translate(141.536 12.406)"><g transform="translate(2.033)"><g transform="translate(0)"><path d="M132.618,4.236a.29.29,0,0,0-.264-.17h-1.162V.29A.291.291,0,0,0,130.9,0H129.74a.29.29,0,0,0-.29.29V4.065h-1.162a.29.29,0,0,0-.218.481L130.1,6.87a.29.29,0,0,0,.437,0l2.033-2.323A.289.289,0,0,0,132.618,4.236Z" transform="translate(-127.998)" fill="#0f72ee"/></g></g><g transform="translate(0 6.389)"><g transform="translate(0)"><path d="M23.55,352v1.742H17.162V352H16v2.323a.581.581,0,0,0,.581.581h7.55a.58.58,0,0,0,.581-.581V352Z" transform="translate(-16 -352)" fill="#0f72ee"/></g></g></g></g></g></g><g transform="matrix(1, 0, 0, 1, -62.86, -56.73)" filter="url(#c)"><path d="M0,0H215a0,0,0,0,1,0,0V26a15,15,0,0,1-15,15H16A16,16,0,0,1,0,25V0A0,0,0,0,1,0,0Z" transform="translate(63 236)" fill="#0f72ee"/></g><path d="M3.926-9.035H.975V0H3.926c2.9,0,4.8-1.7,4.8-4.485S6.825-9.035,3.926-9.035ZM2.457-1.209V-7.826H3.926A3.015,3.015,0,0,1,7.2-4.485,2.972,2.972,0,0,1,3.926-1.209Zm14.56-2.379A3.532,3.532,0,0,0,13.364-7.28,3.532,3.532,0,0,0,9.711-3.588,3.492,3.492,0,0,0,13.3.117,3.588,3.588,0,0,0,17.017-3.588Zm-5.8,0a2.134,2.134,0,0,1,2.119-2.405A2.167,2.167,0,0,1,15.5-3.588,2.206,2.206,0,0,1,13.3-1.17,2.119,2.119,0,0,1,11.219-3.588ZM19.877,0h1.56L22.88-5.291,24.323,0h1.56l2.223-7.163H26.65L25.168-1.43,23.712-7.163H22.165L20.644-1.4,19.149-7.163H17.641ZM34.294,0h1.469V-4.225A2.789,2.789,0,0,0,32.825-7.28a2.756,2.756,0,0,0-2.132.936v-.819H29.211V0h1.482V-4A1.736,1.736,0,0,1,32.5-5.993c1.079,0,1.794.676,1.794,1.989Zm3.354,0H39.13V-9.62H37.648ZM47.9-3.588A3.532,3.532,0,0,0,44.252-7.28,3.532,3.532,0,0,0,40.6-3.588a3.492,3.492,0,0,0,3.588,3.7A3.588,3.588,0,0,0,47.9-3.588Zm-5.8,0a2.134,2.134,0,0,1,2.119-2.405,2.167,2.167,0,0,1,2.158,2.405,2.206,2.206,0,0,1-2.2,2.418A2.119,2.119,0,0,1,42.107-3.588Zm6.773-.026A3.463,3.463,0,0,0,52.234.117a3.083,3.083,0,0,0,2.509-1.183V0h1.5V-7.163h-1.5v1.04A3.049,3.049,0,0,0,52.26-7.28,3.409,3.409,0,0,0,48.88-3.614Zm5.863.026A2.225,2.225,0,0,1,52.572-1.17,2.257,2.257,0,0,1,50.4-3.614a2.2,2.2,0,0,1,2.171-2.379A2.221,2.221,0,0,1,54.743-3.588Zm2.951-.026A3.467,3.467,0,0,0,61.074.117a2.97,2.97,0,0,0,2.483-1.2V0h1.5V-9.62h-1.5v3.458a3.3,3.3,0,0,0-2.47-1.118A3.412,3.412,0,0,0,57.694-3.614Zm5.863.026A2.225,2.225,0,0,1,61.386-1.17a2.257,2.257,0,0,1-2.171-2.444,2.2,2.2,0,0,1,2.171-2.379A2.221,2.221,0,0,1,63.557-3.588Zm6.331-.026A3.463,3.463,0,0,0,73.242.117a3.083,3.083,0,0,0,2.509-1.183V0h1.495V-7.163H75.751v1.04A3.049,3.049,0,0,0,73.268-7.28,3.409,3.409,0,0,0,69.888-3.614Zm5.863.026A2.225,2.225,0,0,1,73.58-1.17a2.257,2.257,0,0,1-2.171-2.444A2.2,2.2,0,0,1,73.58-5.993,2.221,2.221,0,0,1,75.751-3.588ZM79.2,0h1.482V-9.62H79.2Zm3.432,0H84.11V-9.62H82.628ZM0,1H85.085V2H0Z" transform="translate(61.142 204.269)" fill="#fff"/></g></svg>