<svg xmlns="http://www.w3.org/2000/svg" xmlns:xlink="http://www.w3.org/1999/xlink" width="138" height="91" viewBox="0 0 138 91"><defs><filter id="a" x="0" y="0" width="138" height="91" filterUnits="userSpaceOnUse"><feOffset input="SourceAlpha"/><feGaussianBlur stdDeviation="8" result="b"/><feFlood flood-opacity="0.122"/><feComposite operator="in" in2="b"/><feComposite in="SourceGraphic"/></filter></defs><g transform="translate(31.745 39.904)"><g transform="matrix(1, 0, 0, 1, -31.75, -39.9)" filter="url(#a)"><path d="M17,0H72A18,18,0,0,1,90,18v7A18,18,0,0,1,72,43H0a0,0,0,0,1,0,0V17A17,17,0,0,1,17,0Z" transform="translate(24 24)" fill="#0f72ee"/></g><path d="M2.646-5.25V-8.428H4.41c1.246,0,1.806.588,1.806,1.6,0,.98-.56,1.582-1.806,1.582ZM7.854-6.832c0-1.582-1.134-2.9-3.444-2.9H1.05V0h1.6V-3.948H4.41C6.944-3.948,7.854-5.446,7.854-6.832Zm.994,2.94A3.729,3.729,0,0,0,12.46.126a3.32,3.32,0,0,0,2.7-1.274V0h1.61V-7.714h-1.61v1.12A3.283,3.283,0,0,0,12.488-7.84,3.672,3.672,0,0,0,8.848-3.892Zm6.314.028a2.4,2.4,0,0,1-2.338,2.6,2.43,2.43,0,0,1-2.338-2.632,2.367,2.367,0,0,1,2.338-2.562A2.392,2.392,0,0,1,15.162-3.864Zm6.748,2.03-2.17-5.88H17.962L21-.126,19.432,3.626h1.652l4.732-11.34H24.164Zm10.864-.322c-.084-2.786-4.438-1.918-4.438-3.472,0-.518.448-.868,1.3-.868A1.276,1.276,0,0,1,31.08-5.362h1.6C32.592-6.9,31.444-7.84,29.694-7.84c-1.82,0-2.968.994-2.968,2.226,0,2.828,4.48,1.96,4.48,3.472,0,.532-.49.924-1.414.924a1.407,1.407,0,0,1-1.54-1.148H26.6c.07,1.4,1.372,2.492,3.22,2.492C31.64.126,32.774-.854,32.774-2.156ZM34.5,0h1.6V-10.36H34.5Zm3.7,0h1.6V-7.714h-1.6ZM39-8.736a1.007,1.007,0,0,0,1.008-1.022A1.007,1.007,0,0,0,39-10.78a1.01,1.01,0,0,0-1.022,1.022A1.01,1.01,0,0,0,39-8.736Zm4.48,2.156V-7.714h-1.6V3.668h1.6V-1.12A3.488,3.488,0,0,0,46.172.126,3.723,3.723,0,0,0,49.8-3.892,3.661,3.661,0,0,0,46.172-7.84,3.366,3.366,0,0,0,43.484-6.58Zm4.69,2.688A2.432,2.432,0,0,1,45.822-1.26a2.4,2.4,0,0,1-2.338-2.6,2.4,2.4,0,0,1,2.338-2.59A2.369,2.369,0,0,1,48.174-3.892ZM0,1H18.9V2H0ZM23.18,1H40.888V2H23.18Zm21.3,0H50.33V2H44.484Z" transform="translate(12.255 11.096)" fill="#fff"/></g></svg>