<svg xmlns="http://www.w3.org/2000/svg" xmlns:xlink="http://www.w3.org/1999/xlink" width="257" height="284" viewBox="0 0 257 284"><defs><filter id="a" x="0" y="0" width="257" height="284" filterUnits="userSpaceOnUse"><feOffset dy="6" input="SourceAlpha"/><feGaussianBlur stdDeviation="21" result="b"/><feFlood flood-opacity="0.161"/><feComposite operator="in" in2="b"/><feComposite in="SourceGraphic"/></filter></defs><g transform="translate(63.009 56.747)"><g transform="translate(-0.009 0.253)"><g transform="matrix(1, 0, 0, 1, -63, -57)" filter="url(#a)"><rect width="131" height="158" rx="20" transform="translate(63 57)" fill="#fff"/></g><g transform="translate(30.311 21.953)"><g transform="translate(9.928 9.813)"><circle cx="25.5" cy="25.5" r="25.5" transform="translate(-0.238 0.233)" fill="#e5f0fd"/><path d="M.63-8.3A2.178,2.178,0,0,0,2.91-5.94,2.178,2.178,0,0,0,5.19-8.3a2.173,2.173,0,0,0-2.28-2.34A2.173,2.173,0,0,0,.63-8.3ZM2.91-9.6c.57,0,.945.375.945,1.3s-.375,1.32-.945,1.32c-.585,0-.945-.39-.945-1.32S2.325-9.6,2.91-9.6ZM2.115,0h1.68L9.78-10.44H8.1Zm4.62-2.16A2.178,2.178,0,0,0,9.015.2,2.174,2.174,0,0,0,11.28-2.16,2.162,2.162,0,0,0,9.015-4.5,2.165,2.165,0,0,0,6.735-2.16ZM9-3.465c.57,0,.945.375.945,1.305S9.57-.855,9-.855s-.945-.375-.945-1.3S8.43-3.465,9-3.465ZM0,1H11.91V2H0Z" transform="translate(18.762 31.233)" fill="#0f72ee"/></g><path d="M0,35.352A35.352,35.352,0,1,0,35.352,0" fill="none" stroke="#0f72ee" stroke-linecap="round" stroke-linejoin="round" stroke-miterlimit="10" stroke-width="2"/></g><rect width="85" height="3" rx="1.5" transform="translate(22.001 109)" fill="#e5f0fd"/><rect width="85" height="4" rx="2" transform="translate(22.001 120)" fill="#e5f0fd"/><path d="M.306-5.607H2.025V0h.819V-5.607h1.71v-.666H.306Zm4.95,3.123A2.372,2.372,0,0,0,7.587.081a2.06,2.06,0,0,0,1.845-1V0h.828V-4.932H9.432v.9A2.047,2.047,0,0,0,7.6-5.013,2.337,2.337,0,0,0,5.256-2.484Zm4.176.009A1.688,1.688,0,0,1,7.758-.639,1.689,1.689,0,0,1,6.093-2.484,1.665,1.665,0,0,1,7.758-4.3,1.69,1.69,0,0,1,9.432-2.475ZM14.22,0h.927L13.554-2.493l1.584-2.439h-.855L13.167-3.105,12-4.932H11.07l1.593,2.484L11.07,0h.855L13.05-1.836Zm4.14,0h.819V-2.826h2.214v-.666H19.179V-5.607h2.727v-.666H18.36Zm6.066-2.367V0h.819V-2.367l2.043-3.906h-.909L24.831-3.1,23.283-6.273h-.909Zm5.958-.585h3.591v-.693H30.384Zm7.3,2.88h4.329V-.756h-3.1C40.077-1.7,41.823-3.078,41.823-4.7a1.831,1.831,0,0,0-2.016-1.926,1.994,1.994,0,0,0-2.1,2.106H38.5a1.286,1.286,0,0,1,1.314-1.4,1.1,1.1,0,0,1,1.2,1.26c0,1.332-1.62,2.628-3.33,4.005Zm5.274-3.249c0,1.89.468,3.321,2.268,3.321s2.259-1.431,2.259-3.321c0-1.863-.468-3.285-2.259-3.285S42.957-5.184,42.957-3.321Zm3.717,0c0,1.4-.171,2.574-1.449,2.574s-1.458-1.17-1.458-2.574c0-1.35.171-2.538,1.458-2.538S46.674-4.671,46.674-3.321ZM49.257,0h.828V-6.507H48.393v.747h.864Zm2.529-1.746A1.852,1.852,0,0,0,53.8.009c1.71,0,2.205-1.215,2.205-3.384,0-2.016-.513-3.258-2.277-3.258a1.985,1.985,0,0,0-2.142,2.142,1.965,1.965,0,0,0,2.088,2.124,1.735,1.735,0,0,0,1.611-.864c.027,1.908-.486,2.556-1.44,2.556a1.2,1.2,0,0,1-1.305-1.071ZM53.811-3.06a1.326,1.326,0,0,1-1.44-1.449,1.321,1.321,0,0,1,1.377-1.44,1.364,1.364,0,0,1,1.44,1.5A1.306,1.306,0,0,1,53.811-3.06ZM0,1H56.6V2H0Z" transform="translate(36 140)" fill="#0f72ee"/></g></g></svg>