<svg xmlns="http://www.w3.org/2000/svg" width="309.433" height="277.4" viewBox="0 0 309.433 277.4"><g transform="translate(-316.299 -1391.293)"><path d="M-22.429-36.027C11.888-64.975,186.533-3.554,186.533,55.288s-32.259,90.791-106.038,84.768-71.181,7.692-99-29.834S-56.746-7.079-22.429-36.027Z" transform="translate(396.083 1473.392)" fill="#00ceff"/><g transform="translate(316.299 1391.293)"><g transform="translate(0 0)"><path d="M-866.55,26.147h-.011a2.376,2.376,0,0,0-2.376,2.38,2.386,2.386,0,0,0,2.387,2.38,2.38,2.38,0,0,0,2.38-2.38A2.38,2.38,0,0,0-866.55,26.147Zm0,14.941h-.011a2.376,2.376,0,0,0-2.376,2.38,2.386,2.386,0,0,0,2.387,2.38,2.38,2.38,0,0,0,2.38-2.38A2.38,2.38,0,0,0-866.55,41.087Zm0,29.884h-.011a2.376,2.376,0,0,0-2.376,2.38,2.385,2.385,0,0,0,2.387,2.38,2.379,2.379,0,0,0,2.38-2.38A2.38,2.38,0,0,0-866.55,70.972Zm0-14.942h-.011a2.376,2.376,0,0,0-2.376,2.38,2.386,2.386,0,0,0,2.387,2.38,2.38,2.38,0,0,0,2.38-2.38A2.38,2.38,0,0,0-866.55,56.029Zm17.016-74.711h-.013a2.374,2.374,0,0,0-2.374,2.38,2.387,2.387,0,0,0,2.387,2.38,2.382,2.382,0,0,0,2.38-2.38A2.38,2.38,0,0,0-849.534-18.682ZM-866.55,11.2h-.011a2.376,2.376,0,0,0-2.376,2.379,2.387,2.387,0,0,0,2.387,2.382,2.382,2.382,0,0,0,2.38-2.382A2.38,2.38,0,0,0-866.55,11.2Zm-17.016,34.643a2.38,2.38,0,0,0,2.38-2.38,2.38,2.38,0,0,0-2.38-2.38h-.011a2.376,2.376,0,0,0-2.375,2.38A2.386,2.386,0,0,0-883.566,45.848Zm0,14.942a2.38,2.38,0,0,0,2.38-2.38,2.38,2.38,0,0,0-2.38-2.38h-.011a2.376,2.376,0,0,0-2.375,2.38A2.386,2.386,0,0,0-883.566,60.79Zm17.016-94.414h-.011a2.376,2.376,0,0,0-2.376,2.38,2.386,2.386,0,0,0,2.387,2.38,2.38,2.38,0,0,0,2.38-2.38A2.38,2.38,0,0,0-866.55-33.624Zm0,14.942h-.011a2.375,2.375,0,0,0-2.376,2.38,2.387,2.387,0,0,0,2.387,2.38,2.381,2.381,0,0,0,2.38-2.38A2.379,2.379,0,0,0-866.55-18.682Zm0,14.942h-.011a2.375,2.375,0,0,0-2.376,2.38,2.386,2.386,0,0,0,2.387,2.379,2.38,2.38,0,0,0,2.38-2.379A2.379,2.379,0,0,0-866.55-3.74ZM-815.5,30.907a2.381,2.381,0,0,0,2.38-2.38,2.381,2.381,0,0,0-2.38-2.38h-.013a2.375,2.375,0,0,0-2.374,2.38A2.386,2.386,0,0,0-815.5,30.907Zm0-14.942a2.383,2.383,0,0,0,2.38-2.382A2.381,2.381,0,0,0-815.5,11.2h-.013a2.375,2.375,0,0,0-2.374,2.379A2.387,2.387,0,0,0-815.5,15.965ZM-816.431.832a2.371,2.371,0,0,0,.928.187A2.344,2.344,0,0,0-814.534.8c.01,0,.016-.013.026-.016a2.371,2.371,0,0,0,.753-.562h0a2.355,2.355,0,0,0,.631-1.586,2.381,2.381,0,0,0-2.38-2.38h-.013a2.375,2.375,0,0,0-2.374,2.38h0v0A2.379,2.379,0,0,0-816.431.832Zm-65.452,70.837a2.621,2.621,0,0,0-.245-.166,2.334,2.334,0,0,0-1.437-.531h-.013a2.375,2.375,0,0,0-2.374,2.38,2.363,2.363,0,0,0,.683,1.658l0,0a2.372,2.372,0,0,0,1.7.72,2.387,2.387,0,0,0,.355-.071h0l0,0a2.335,2.335,0,0,0,1.412-.754,2.447,2.447,0,0,0,.141-.212,2.269,2.269,0,0,0,.292-.473,2.288,2.288,0,0,0,.175-.857l0-.011a2.357,2.357,0,0,0-.614-1.56C-881.833,71.755-881.847,71.7-881.883,71.669Zm-1.683-40.762a2.38,2.38,0,0,0,2.38-2.38,2.38,2.38,0,0,0-2.38-2.38h-.011a2.376,2.376,0,0,0-2.375,2.38A2.386,2.386,0,0,0-883.566,30.907Zm34.032,25.122h-.013a2.375,2.375,0,0,0-2.374,2.38,2.386,2.386,0,0,0,2.387,2.38,2.381,2.381,0,0,0,2.38-2.38A2.381,2.381,0,0,0-849.534,56.029Zm0-44.825h-.013a2.375,2.375,0,0,0-2.374,2.379,2.387,2.387,0,0,0,2.387,2.382,2.382,2.382,0,0,0,2.38-2.382A2.38,2.38,0,0,0-849.534,11.2Zm0,14.942h-.013a2.375,2.375,0,0,0-2.374,2.38,2.386,2.386,0,0,0,2.387,2.38,2.381,2.381,0,0,0,2.38-2.38A2.381,2.381,0,0,0-849.534,26.147Zm0,14.941h-.013a2.375,2.375,0,0,0-2.374,2.38,2.386,2.386,0,0,0,2.387,2.38,2.381,2.381,0,0,0,2.38-2.38A2.381,2.381,0,0,0-849.534,41.087Zm0-44.827h-.013a2.374,2.374,0,0,0-2.374,2.38,2.386,2.386,0,0,0,2.387,2.379,2.38,2.38,0,0,0,2.38-2.379A2.38,2.38,0,0,0-849.534-3.74Zm17.016-14.942h-.013a2.374,2.374,0,0,0-2.374,2.38,2.387,2.387,0,0,0,2.387,2.38,2.382,2.382,0,0,0,2.38-2.38A2.379,2.379,0,0,0-832.519-18.682Zm-17.016-10.182a2.381,2.381,0,0,0,2.38-2.38l0,0a2.3,2.3,0,0,0-.278-1.059c-.016-.031-.037-.053-.055-.082a2.341,2.341,0,0,0-.694-.762h0a2.317,2.317,0,0,0-1.35-.473h-.013a2.375,2.375,0,0,0-2.374,2.38A2.387,2.387,0,0,0-849.534-28.863Zm17.016,69.951h-.013a2.375,2.375,0,0,0-2.374,2.38,2.386,2.386,0,0,0,2.387,2.38,2.38,2.38,0,0,0,2.38-2.38A2.38,2.38,0,0,0-832.519,41.087Zm0,14.942h-.013a2.375,2.375,0,0,0-2.374,2.38,2.386,2.386,0,0,0,2.387,2.38,2.38,2.38,0,0,0,2.38-2.38A2.381,2.381,0,0,0-832.519,56.029Zm0-59.769h-.013a2.374,2.374,0,0,0-2.374,2.38,2.386,2.386,0,0,0,2.387,2.379,2.38,2.38,0,0,0,2.38-2.379A2.379,2.379,0,0,0-832.519-3.74Zm0,29.886h-.013a2.375,2.375,0,0,0-2.374,2.38,2.386,2.386,0,0,0,2.387,2.38,2.38,2.38,0,0,0,2.38-2.38A2.38,2.38,0,0,0-832.519,26.147ZM-917.6-3.74h-.013a2.076,2.076,0,0,0-.757.152,2.314,2.314,0,0,0-.583.317h0l0,0a2.339,2.339,0,0,0-1.029,1.91,2.183,2.183,0,0,0,.058.286h0l0,.006A2.329,2.329,0,0,0-919.172.4c.055.05.126.079.186.126a2.3,2.3,0,0,0,.512.318,2.254,2.254,0,0,0,.877.178A2.382,2.382,0,0,0-915.4-.434a2.384,2.384,0,0,0,.186-.925,2.386,2.386,0,0,0-.186-.927A2.382,2.382,0,0,0-917.6-3.74ZM-832.519,11.2h-.013a2.375,2.375,0,0,0-2.374,2.379,2.387,2.387,0,0,0,2.387,2.382,2.382,2.382,0,0,0,2.38-2.382A2.38,2.38,0,0,0-832.519,11.2ZM-917.6,41.087h-.013a2.256,2.256,0,0,0-.838.17,2.333,2.333,0,0,0-.362.2,2.569,2.569,0,0,0-.292.2,2.3,2.3,0,0,0-.4.441c-.023.034-.045.066-.068.1a2.276,2.276,0,0,0-.289.648l0,0h0a2.325,2.325,0,0,0-.123.617,2.363,2.363,0,0,0,1.348,2.119h0l0,0a2.331,2.331,0,0,0,1.024.257l.011,0a2.379,2.379,0,0,0,2.38-2.38,2.4,2.4,0,0,0-.186-.927A2.382,2.382,0,0,0-917.6,41.087Zm0-29.883h-.013a2.376,2.376,0,0,0-2.374,2.379,2.388,2.388,0,0,0,2.387,2.382,2.381,2.381,0,0,0,2.38-2.382A2.379,2.379,0,0,0-917.6,11.2Zm0,14.942h-.013a2.376,2.376,0,0,0-2.374,2.38,2.387,2.387,0,0,0,2.387,2.38,2.379,2.379,0,0,0,2.38-2.38A2.379,2.379,0,0,0-917.6,26.147ZM-900.58,11.2h-.013a2.375,2.375,0,0,0-2.374,2.379,2.387,2.387,0,0,0,2.387,2.382,2.383,2.383,0,0,0,2.381-2.382A2.381,2.381,0,0,0-900.58,11.2Zm17.014-40.068a2.38,2.38,0,0,0,2.38-2.38,2.38,2.38,0,0,0-2.38-2.38h-.011a2.376,2.376,0,0,0-2.375,2.38A2.386,2.386,0,0,0-883.566-28.863Zm0,29.883a2.38,2.38,0,0,0,2.38-2.379,2.379,2.379,0,0,0-2.38-2.38h-.011a2.375,2.375,0,0,0-2.375,2.38A2.386,2.386,0,0,0-883.566,1.019Zm0-14.941a2.381,2.381,0,0,0,2.38-2.38,2.379,2.379,0,0,0-2.38-2.38h-.011a2.375,2.375,0,0,0-2.375,2.38A2.387,2.387,0,0,0-883.566-13.921ZM-900.58,41.087h-.013a2.375,2.375,0,0,0-2.374,2.38,2.386,2.386,0,0,0,2.387,2.38,2.382,2.382,0,0,0,2.381-2.38A2.382,2.382,0,0,0-900.58,41.087Zm0-14.941h-.013a2.375,2.375,0,0,0-2.374,2.38,2.386,2.386,0,0,0,2.387,2.38,2.382,2.382,0,0,0,2.381-2.38A2.382,2.382,0,0,0-900.58,26.147Zm0-44.828h-.013a2.374,2.374,0,0,0-2.374,2.38,2.387,2.387,0,0,0,2.387,2.38A2.383,2.383,0,0,0-898.2-16.3,2.381,2.381,0,0,0-900.58-18.682Zm17.014,34.647a2.382,2.382,0,0,0,2.38-2.382,2.38,2.38,0,0,0-2.38-2.379h-.011a2.376,2.376,0,0,0-2.375,2.379A2.387,2.387,0,0,0-883.566,15.965ZM-900.58,56.029h-.013a2.375,2.375,0,0,0-2.374,2.38,2.386,2.386,0,0,0,2.387,2.38,2.382,2.382,0,0,0,2.381-2.38A2.382,2.382,0,0,0-900.58,56.029Zm0-59.769h-.013a2.374,2.374,0,0,0-2.374,2.38,2.386,2.386,0,0,0,2.387,2.379A2.381,2.381,0,0,0-898.2-1.359,2.381,2.381,0,0,0-900.58-3.74Zm85.96,45.006a2.3,2.3,0,0,0-.751-.152c-.045,0-.086-.027-.133-.027h-.013a2.375,2.375,0,0,0-2.374,2.38,2.306,2.306,0,0,0,.184.9,2.3,2.3,0,0,0,.337.52c.05.063.079.14.134.2a2.355,2.355,0,0,0,1.552.727l.01,0h0c.06,0,.11.034.169.034a2.38,2.38,0,0,0,2.38-2.38A2.371,2.371,0,0,0-814.62,41.266Zm-34.915,29.705h-.013a2.318,2.318,0,0,0-1.435.533,2.306,2.306,0,0,0-.244.165,2.371,2.371,0,0,0-.656,1.5c-.006.065-.039.121-.039.186h0a2.274,2.274,0,0,0,.17.828,1.953,1.953,0,0,0,.111.234,2.471,2.471,0,0,0,.318.472,2.268,2.268,0,0,0,.186.205,2.367,2.367,0,0,0,.641.431h0a2.366,2.366,0,0,0,.961.21,2.354,2.354,0,0,0,2.236-1.665,2.01,2.01,0,0,0,.14-.7l0-.015A2.381,2.381,0,0,0-849.534,70.972Z" transform="translate(919.984 33.624)" fill="#00ceff"/></g></g><g transform="translate(426.842 1559.336)"><g transform="translate(0 0)"><path d="M-866.55,26.147h-.011a2.376,2.376,0,0,0-2.376,2.38,2.386,2.386,0,0,0,2.387,2.38,2.38,2.38,0,0,0,2.38-2.38A2.38,2.38,0,0,0-866.55,26.147Zm0,14.941h-.011a2.376,2.376,0,0,0-2.376,2.38,2.386,2.386,0,0,0,2.387,2.38,2.38,2.38,0,0,0,2.38-2.38A2.38,2.38,0,0,0-866.55,41.087Zm0,29.884h-.011a2.376,2.376,0,0,0-2.376,2.38,2.385,2.385,0,0,0,2.387,2.38,2.379,2.379,0,0,0,2.38-2.38A2.38,2.38,0,0,0-866.55,70.972Zm0-14.942h-.011a2.376,2.376,0,0,0-2.376,2.38,2.386,2.386,0,0,0,2.387,2.38,2.38,2.38,0,0,0,2.38-2.38A2.38,2.38,0,0,0-866.55,56.029Zm17.016-74.711h-.013a2.374,2.374,0,0,0-2.374,2.38,2.387,2.387,0,0,0,2.387,2.38,2.382,2.382,0,0,0,2.38-2.38A2.38,2.38,0,0,0-849.534-18.682ZM-866.55,11.2h-.011a2.376,2.376,0,0,0-2.376,2.379,2.387,2.387,0,0,0,2.387,2.382,2.382,2.382,0,0,0,2.38-2.382A2.38,2.38,0,0,0-866.55,11.2Zm-17.016,34.643a2.38,2.38,0,0,0,2.38-2.38,2.38,2.38,0,0,0-2.38-2.38h-.011a2.376,2.376,0,0,0-2.375,2.38A2.386,2.386,0,0,0-883.566,45.848Zm0,14.942a2.38,2.38,0,0,0,2.38-2.38,2.38,2.38,0,0,0-2.38-2.38h-.011a2.376,2.376,0,0,0-2.375,2.38A2.386,2.386,0,0,0-883.566,60.79Zm17.016-94.414h-.011a2.376,2.376,0,0,0-2.376,2.38,2.386,2.386,0,0,0,2.387,2.38,2.38,2.38,0,0,0,2.38-2.38A2.38,2.38,0,0,0-866.55-33.624Zm0,14.942h-.011a2.375,2.375,0,0,0-2.376,2.38,2.387,2.387,0,0,0,2.387,2.38,2.381,2.381,0,0,0,2.38-2.38A2.379,2.379,0,0,0-866.55-18.682Zm0,14.942h-.011a2.375,2.375,0,0,0-2.376,2.38,2.386,2.386,0,0,0,2.387,2.379,2.38,2.38,0,0,0,2.38-2.379A2.379,2.379,0,0,0-866.55-3.74ZM-815.5,30.907a2.381,2.381,0,0,0,2.38-2.38,2.381,2.381,0,0,0-2.38-2.38h-.013a2.375,2.375,0,0,0-2.374,2.38A2.386,2.386,0,0,0-815.5,30.907Zm0-14.942a2.383,2.383,0,0,0,2.38-2.382A2.381,2.381,0,0,0-815.5,11.2h-.013a2.375,2.375,0,0,0-2.374,2.379A2.387,2.387,0,0,0-815.5,15.965ZM-816.431.832a2.371,2.371,0,0,0,.928.187A2.344,2.344,0,0,0-814.534.8c.01,0,.016-.013.026-.016a2.371,2.371,0,0,0,.753-.562h0a2.355,2.355,0,0,0,.631-1.586,2.381,2.381,0,0,0-2.38-2.38h-.013a2.375,2.375,0,0,0-2.374,2.38h0v0A2.379,2.379,0,0,0-816.431.832Zm-65.452,70.837a2.621,2.621,0,0,0-.245-.166,2.334,2.334,0,0,0-1.437-.531h-.013a2.375,2.375,0,0,0-2.374,2.38,2.363,2.363,0,0,0,.683,1.658l0,0a2.372,2.372,0,0,0,1.7.72,2.387,2.387,0,0,0,.355-.071h0l0,0a2.335,2.335,0,0,0,1.412-.754,2.447,2.447,0,0,0,.141-.212,2.269,2.269,0,0,0,.292-.473,2.288,2.288,0,0,0,.175-.857l0-.011a2.357,2.357,0,0,0-.614-1.56C-881.833,71.755-881.847,71.7-881.883,71.669Zm-1.683-40.762a2.38,2.38,0,0,0,2.38-2.38,2.38,2.38,0,0,0-2.38-2.38h-.011a2.376,2.376,0,0,0-2.375,2.38A2.386,2.386,0,0,0-883.566,30.907Zm34.032,25.122h-.013a2.375,2.375,0,0,0-2.374,2.38,2.386,2.386,0,0,0,2.387,2.38,2.381,2.381,0,0,0,2.38-2.38A2.381,2.381,0,0,0-849.534,56.029Zm0-44.825h-.013a2.375,2.375,0,0,0-2.374,2.379,2.387,2.387,0,0,0,2.387,2.382,2.382,2.382,0,0,0,2.38-2.382A2.38,2.38,0,0,0-849.534,11.2Zm0,14.942h-.013a2.375,2.375,0,0,0-2.374,2.38,2.386,2.386,0,0,0,2.387,2.38,2.381,2.381,0,0,0,2.38-2.38A2.381,2.381,0,0,0-849.534,26.147Zm0,14.941h-.013a2.375,2.375,0,0,0-2.374,2.38,2.386,2.386,0,0,0,2.387,2.38,2.381,2.381,0,0,0,2.38-2.38A2.381,2.381,0,0,0-849.534,41.087Zm0-44.827h-.013a2.374,2.374,0,0,0-2.374,2.38,2.386,2.386,0,0,0,2.387,2.379,2.38,2.38,0,0,0,2.38-2.379A2.38,2.38,0,0,0-849.534-3.74Zm17.016-14.942h-.013a2.374,2.374,0,0,0-2.374,2.38,2.387,2.387,0,0,0,2.387,2.38,2.382,2.382,0,0,0,2.38-2.38A2.379,2.379,0,0,0-832.519-18.682Zm-17.016-10.182a2.381,2.381,0,0,0,2.38-2.38l0,0a2.3,2.3,0,0,0-.278-1.059c-.016-.031-.037-.053-.055-.082a2.341,2.341,0,0,0-.694-.762h0a2.317,2.317,0,0,0-1.35-.473h-.013a2.375,2.375,0,0,0-2.374,2.38A2.387,2.387,0,0,0-849.534-28.863Zm17.016,69.951h-.013a2.375,2.375,0,0,0-2.374,2.38,2.386,2.386,0,0,0,2.387,2.38,2.38,2.38,0,0,0,2.38-2.38A2.38,2.38,0,0,0-832.519,41.087Zm0,14.942h-.013a2.375,2.375,0,0,0-2.374,2.38,2.386,2.386,0,0,0,2.387,2.38,2.38,2.38,0,0,0,2.38-2.38A2.381,2.381,0,0,0-832.519,56.029Zm0-59.769h-.013a2.374,2.374,0,0,0-2.374,2.38,2.386,2.386,0,0,0,2.387,2.379,2.38,2.38,0,0,0,2.38-2.379A2.379,2.379,0,0,0-832.519-3.74Zm0,29.886h-.013a2.375,2.375,0,0,0-2.374,2.38,2.386,2.386,0,0,0,2.387,2.38,2.38,2.38,0,0,0,2.38-2.38A2.38,2.38,0,0,0-832.519,26.147ZM-917.6-3.74h-.013a2.076,2.076,0,0,0-.757.152,2.314,2.314,0,0,0-.583.317h0l0,0a2.339,2.339,0,0,0-1.029,1.91,2.183,2.183,0,0,0,.058.286h0l0,.006A2.329,2.329,0,0,0-919.172.4c.055.05.126.079.186.126a2.3,2.3,0,0,0,.512.318,2.254,2.254,0,0,0,.877.178A2.382,2.382,0,0,0-915.4-.434a2.384,2.384,0,0,0,.186-.925,2.386,2.386,0,0,0-.186-.927A2.382,2.382,0,0,0-917.6-3.74ZM-832.519,11.2h-.013a2.375,2.375,0,0,0-2.374,2.379,2.387,2.387,0,0,0,2.387,2.382,2.382,2.382,0,0,0,2.38-2.382A2.38,2.38,0,0,0-832.519,11.2ZM-917.6,41.087h-.013a2.256,2.256,0,0,0-.838.17,2.333,2.333,0,0,0-.362.2,2.569,2.569,0,0,0-.292.2,2.3,2.3,0,0,0-.4.441c-.023.034-.045.066-.068.1a2.276,2.276,0,0,0-.289.648l0,0h0a2.325,2.325,0,0,0-.123.617,2.363,2.363,0,0,0,1.348,2.119h0l0,0a2.331,2.331,0,0,0,1.024.257l.011,0a2.379,2.379,0,0,0,2.38-2.38,2.4,2.4,0,0,0-.186-.927A2.382,2.382,0,0,0-917.6,41.087Zm0-29.883h-.013a2.376,2.376,0,0,0-2.374,2.379,2.388,2.388,0,0,0,2.387,2.382,2.381,2.381,0,0,0,2.38-2.382A2.379,2.379,0,0,0-917.6,11.2Zm0,14.942h-.013a2.376,2.376,0,0,0-2.374,2.38,2.387,2.387,0,0,0,2.387,2.38,2.379,2.379,0,0,0,2.38-2.38A2.379,2.379,0,0,0-917.6,26.147ZM-900.58,11.2h-.013a2.375,2.375,0,0,0-2.374,2.379,2.387,2.387,0,0,0,2.387,2.382,2.383,2.383,0,0,0,2.381-2.382A2.381,2.381,0,0,0-900.58,11.2Zm17.014-40.068a2.38,2.38,0,0,0,2.38-2.38,2.38,2.38,0,0,0-2.38-2.38h-.011a2.376,2.376,0,0,0-2.375,2.38A2.386,2.386,0,0,0-883.566-28.863Zm0,29.883a2.38,2.38,0,0,0,2.38-2.379,2.379,2.379,0,0,0-2.38-2.38h-.011a2.375,2.375,0,0,0-2.375,2.38A2.386,2.386,0,0,0-883.566,1.019Zm0-14.941a2.381,2.381,0,0,0,2.38-2.38,2.379,2.379,0,0,0-2.38-2.38h-.011a2.375,2.375,0,0,0-2.375,2.38A2.387,2.387,0,0,0-883.566-13.921ZM-900.58,41.087h-.013a2.375,2.375,0,0,0-2.374,2.38,2.386,2.386,0,0,0,2.387,2.38,2.382,2.382,0,0,0,2.381-2.38A2.382,2.382,0,0,0-900.58,41.087Zm0-14.941h-.013a2.375,2.375,0,0,0-2.374,2.38,2.386,2.386,0,0,0,2.387,2.38,2.382,2.382,0,0,0,2.381-2.38A2.382,2.382,0,0,0-900.58,26.147Zm0-44.828h-.013a2.374,2.374,0,0,0-2.374,2.38,2.387,2.387,0,0,0,2.387,2.38A2.383,2.383,0,0,0-898.2-16.3,2.381,2.381,0,0,0-900.58-18.682Zm17.014,34.647a2.382,2.382,0,0,0,2.38-2.382,2.38,2.38,0,0,0-2.38-2.379h-.011a2.376,2.376,0,0,0-2.375,2.379A2.387,2.387,0,0,0-883.566,15.965ZM-900.58,56.029h-.013a2.375,2.375,0,0,0-2.374,2.38,2.386,2.386,0,0,0,2.387,2.38,2.382,2.382,0,0,0,2.381-2.38A2.382,2.382,0,0,0-900.58,56.029Zm0-59.769h-.013a2.374,2.374,0,0,0-2.374,2.38,2.386,2.386,0,0,0,2.387,2.379A2.381,2.381,0,0,0-898.2-1.359,2.381,2.381,0,0,0-900.58-3.74Zm85.96,45.006a2.3,2.3,0,0,0-.751-.152c-.045,0-.086-.027-.133-.027h-.013a2.375,2.375,0,0,0-2.374,2.38,2.306,2.306,0,0,0,.184.9,2.3,2.3,0,0,0,.337.52c.05.063.079.14.134.2a2.355,2.355,0,0,0,1.552.727l.01,0h0c.06,0,.11.034.169.034a2.38,2.38,0,0,0,2.38-2.38A2.371,2.371,0,0,0-814.62,41.266Zm-34.915,29.705h-.013a2.318,2.318,0,0,0-1.435.533,2.306,2.306,0,0,0-.244.165,2.371,2.371,0,0,0-.656,1.5c-.006.065-.039.121-.039.186h0a2.274,2.274,0,0,0,.17.828,1.953,1.953,0,0,0,.111.234,2.471,2.471,0,0,0,.318.472,2.268,2.268,0,0,0,.186.205,2.367,2.367,0,0,0,.641.431h0a2.366,2.366,0,0,0,.961.21,2.354,2.354,0,0,0,2.236-1.665,2.01,2.01,0,0,0,.14-.7l0-.015A2.381,2.381,0,0,0-849.534,70.972Z" transform="translate(919.984 33.624)" fill="#00ceff"/></g></g><g transform="translate(446.962 1520.388)"><g transform="translate(0 0)"><path d="M-888.676,1.4h-.007a1.392,1.392,0,0,0-1.392,1.395,1.4,1.4,0,0,0,1.4,1.395,1.4,1.4,0,0,0,1.395-1.395A1.4,1.4,0,0,0-888.676,1.4Zm0,8.754h-.007a1.392,1.392,0,0,0-1.392,1.395,1.4,1.4,0,0,0,1.4,1.395,1.4,1.4,0,0,0,1.395-1.395A1.4,1.4,0,0,0-888.676,10.151Zm0,17.51h-.007a1.392,1.392,0,0,0-1.392,1.395,1.4,1.4,0,0,0,1.4,1.395,1.394,1.394,0,0,0,1.395-1.395A1.4,1.4,0,0,0-888.676,27.662Zm0-8.755h-.007a1.392,1.392,0,0,0-1.392,1.395,1.4,1.4,0,0,0,1.4,1.395,1.4,1.4,0,0,0,1.395-1.395A1.4,1.4,0,0,0-888.676,18.906Zm9.97-43.775h-.008a1.391,1.391,0,0,0-1.391,1.395,1.4,1.4,0,0,0,1.4,1.395,1.4,1.4,0,0,0,1.395-1.395A1.394,1.394,0,0,0-878.706-24.869Zm-9.97,17.511h-.007a1.392,1.392,0,0,0-1.392,1.394,1.4,1.4,0,0,0,1.4,1.4,1.4,1.4,0,0,0,1.395-1.4A1.4,1.4,0,0,0-888.676-7.358Zm-9.97,20.3a1.4,1.4,0,0,0,1.395-1.395,1.4,1.4,0,0,0-1.395-1.395h-.007a1.392,1.392,0,0,0-1.392,1.395A1.4,1.4,0,0,0-898.646,12.941Zm0,8.755a1.4,1.4,0,0,0,1.395-1.395,1.4,1.4,0,0,0-1.395-1.395h-.007a1.392,1.392,0,0,0-1.392,1.395A1.4,1.4,0,0,0-898.646,21.7Zm9.97-55.32h-.007a1.392,1.392,0,0,0-1.392,1.395,1.4,1.4,0,0,0,1.4,1.395,1.4,1.4,0,0,0,1.395-1.395A1.4,1.4,0,0,0-888.676-33.624Zm0,8.755h-.007a1.392,1.392,0,0,0-1.392,1.395,1.4,1.4,0,0,0,1.4,1.395,1.4,1.4,0,0,0,1.395-1.395A1.394,1.394,0,0,0-888.676-24.869Zm0,8.755h-.007a1.392,1.392,0,0,0-1.392,1.395,1.4,1.4,0,0,0,1.4,1.394,1.4,1.4,0,0,0,1.395-1.394A1.394,1.394,0,0,0-888.676-16.114Zm29.91,20.3a1.4,1.4,0,0,0,1.395-1.395A1.4,1.4,0,0,0-858.766,1.4h-.007a1.391,1.391,0,0,0-1.391,1.395A1.4,1.4,0,0,0-858.766,4.187Zm0-8.755a1.4,1.4,0,0,0,1.395-1.4,1.4,1.4,0,0,0-1.395-1.394h-.007a1.391,1.391,0,0,0-1.391,1.394A1.4,1.4,0,0,0-858.766-4.568Zm-.544-8.867a1.389,1.389,0,0,0,.544.11,1.373,1.373,0,0,0,.568-.127c.006,0,.009-.008.015-.009a1.389,1.389,0,0,0,.441-.329h0a1.38,1.38,0,0,0,.37-.929,1.4,1.4,0,0,0-1.395-1.395h-.007a1.391,1.391,0,0,0-1.391,1.395h0A1.394,1.394,0,0,0-859.31-13.435ZM-897.66,28.07a1.526,1.526,0,0,0-.144-.1,1.368,1.368,0,0,0-.842-.311h-.008a1.391,1.391,0,0,0-1.391,1.395,1.385,1.385,0,0,0,.4.972h0a1.39,1.39,0,0,0,1,.422,1.4,1.4,0,0,0,.208-.042h0a1.368,1.368,0,0,0,.827-.442,1.452,1.452,0,0,0,.082-.124,1.329,1.329,0,0,0,.171-.277,1.341,1.341,0,0,0,.1-.5v-.007a1.381,1.381,0,0,0-.359-.914C-897.63,28.12-897.639,28.091-897.66,28.07Zm-.986-23.884a1.4,1.4,0,0,0,1.395-1.395A1.4,1.4,0,0,0-898.646,1.4h-.007a1.392,1.392,0,0,0-1.392,1.395A1.4,1.4,0,0,0-898.646,4.187Zm19.94,14.72h-.008A1.392,1.392,0,0,0-880.1,20.3a1.4,1.4,0,0,0,1.4,1.395,1.4,1.4,0,0,0,1.395-1.395A1.4,1.4,0,0,0-878.706,18.906Zm0-26.264h-.008A1.391,1.391,0,0,0-880.1-5.964a1.4,1.4,0,0,0,1.4,1.4,1.4,1.4,0,0,0,1.395-1.4A1.4,1.4,0,0,0-878.706-7.358Zm0,8.755h-.008A1.392,1.392,0,0,0-880.1,2.792a1.4,1.4,0,0,0,1.4,1.395,1.4,1.4,0,0,0,1.395-1.395A1.4,1.4,0,0,0-878.706,1.4Zm0,8.754h-.008a1.392,1.392,0,0,0-1.391,1.395,1.4,1.4,0,0,0,1.4,1.395,1.4,1.4,0,0,0,1.395-1.395A1.4,1.4,0,0,0-878.706,10.151Zm0-26.265h-.008a1.391,1.391,0,0,0-1.391,1.395,1.4,1.4,0,0,0,1.4,1.394,1.4,1.4,0,0,0,1.395-1.394A1.394,1.394,0,0,0-878.706-16.114Zm9.97-8.755h-.008a1.391,1.391,0,0,0-1.391,1.395,1.4,1.4,0,0,0,1.4,1.395,1.4,1.4,0,0,0,1.395-1.395A1.394,1.394,0,0,0-868.736-24.869Zm-9.97-5.966a1.4,1.4,0,0,0,1.395-1.395v0a1.351,1.351,0,0,0-.163-.621c-.009-.018-.022-.031-.032-.048a1.372,1.372,0,0,0-.407-.447h0a1.357,1.357,0,0,0-.791-.277h-.008a1.392,1.392,0,0,0-1.391,1.395A1.4,1.4,0,0,0-878.706-30.835Zm9.97,40.986h-.008a1.391,1.391,0,0,0-1.391,1.395,1.4,1.4,0,0,0,1.4,1.395,1.4,1.4,0,0,0,1.395-1.395A1.4,1.4,0,0,0-868.736,10.151Zm0,8.755h-.008a1.391,1.391,0,0,0-1.391,1.395,1.4,1.4,0,0,0,1.4,1.395,1.4,1.4,0,0,0,1.395-1.395A1.4,1.4,0,0,0-868.736,18.906Zm0-35.02h-.008a1.391,1.391,0,0,0-1.391,1.395,1.4,1.4,0,0,0,1.4,1.394,1.4,1.4,0,0,0,1.395-1.394A1.394,1.394,0,0,0-868.736-16.114Zm0,17.511h-.008a1.391,1.391,0,0,0-1.391,1.395,1.4,1.4,0,0,0,1.4,1.395,1.4,1.4,0,0,0,1.395-1.395A1.4,1.4,0,0,0-868.736,1.4Zm-49.85-17.511h-.008a1.217,1.217,0,0,0-.444.089,1.357,1.357,0,0,0-.342.185h0a1.37,1.37,0,0,0-.6,1.119,1.281,1.281,0,0,0,.034.167h0l0,0a1.365,1.365,0,0,0,.44.858c.032.029.074.046.109.074a1.348,1.348,0,0,0,.3.186,1.321,1.321,0,0,0,.514.1,1.4,1.4,0,0,0,1.286-.852,1.4,1.4,0,0,0,.109-.542,1.4,1.4,0,0,0-.109-.543A1.4,1.4,0,0,0-918.586-16.114Zm49.85,8.756h-.008a1.391,1.391,0,0,0-1.391,1.394,1.4,1.4,0,0,0,1.4,1.4,1.4,1.4,0,0,0,1.395-1.4A1.4,1.4,0,0,0-868.736-7.358Zm-49.85,17.509h-.008a1.321,1.321,0,0,0-.491.1,1.364,1.364,0,0,0-.212.119,1.5,1.5,0,0,0-.171.116,1.344,1.344,0,0,0-.234.258l-.04.06a1.335,1.335,0,0,0-.169.379h0a1.362,1.362,0,0,0-.072.361,1.384,1.384,0,0,0,.79,1.241h0a1.366,1.366,0,0,0,.6.15l.007,0a1.394,1.394,0,0,0,1.395-1.395A1.405,1.405,0,0,0-917.3,11,1.4,1.4,0,0,0-918.586,10.151Zm0-17.509h-.008a1.392,1.392,0,0,0-1.391,1.394,1.4,1.4,0,0,0,1.4,1.4,1.4,1.4,0,0,0,1.395-1.4A1.394,1.394,0,0,0-918.586-7.358Zm0,8.755h-.008a1.392,1.392,0,0,0-1.391,1.395,1.4,1.4,0,0,0,1.4,1.395,1.394,1.394,0,0,0,1.395-1.395A1.394,1.394,0,0,0-918.586,1.4Zm9.971-8.755h-.008a1.391,1.391,0,0,0-1.391,1.394,1.4,1.4,0,0,0,1.4,1.4,1.4,1.4,0,0,0,1.395-1.4A1.4,1.4,0,0,0-908.615-7.358Zm9.969-23.477a1.4,1.4,0,0,0,1.395-1.395,1.4,1.4,0,0,0-1.395-1.395h-.007a1.392,1.392,0,0,0-1.392,1.395A1.4,1.4,0,0,0-898.646-30.835Zm0,17.509a1.4,1.4,0,0,0,1.395-1.394,1.394,1.394,0,0,0-1.395-1.395h-.007a1.392,1.392,0,0,0-1.392,1.395A1.4,1.4,0,0,0-898.646-13.325Zm0-8.754a1.4,1.4,0,0,0,1.395-1.395,1.394,1.394,0,0,0-1.395-1.395h-.007a1.392,1.392,0,0,0-1.392,1.395A1.4,1.4,0,0,0-898.646-22.08Zm-9.969,32.231h-.008a1.392,1.392,0,0,0-1.391,1.395,1.4,1.4,0,0,0,1.4,1.395,1.4,1.4,0,0,0,1.395-1.395A1.4,1.4,0,0,0-908.615,10.151Zm0-8.754h-.008a1.392,1.392,0,0,0-1.391,1.395,1.4,1.4,0,0,0,1.4,1.395,1.4,1.4,0,0,0,1.395-1.395A1.4,1.4,0,0,0-908.615,1.4Zm0-26.266h-.008a1.391,1.391,0,0,0-1.391,1.395,1.4,1.4,0,0,0,1.4,1.395,1.4,1.4,0,0,0,1.395-1.395A1.4,1.4,0,0,0-908.615-24.869Zm9.969,20.3a1.4,1.4,0,0,0,1.395-1.4,1.4,1.4,0,0,0-1.395-1.394h-.007a1.392,1.392,0,0,0-1.392,1.394A1.4,1.4,0,0,0-898.646-4.568Zm-9.969,23.475h-.008a1.392,1.392,0,0,0-1.391,1.395,1.4,1.4,0,0,0,1.4,1.395A1.4,1.4,0,0,0-907.22,20.3,1.4,1.4,0,0,0-908.615,18.906Zm0-35.02h-.008a1.391,1.391,0,0,0-1.391,1.395,1.4,1.4,0,0,0,1.4,1.394,1.4,1.4,0,0,0,1.395-1.394A1.4,1.4,0,0,0-908.615-16.114Zm50.367,26.37a1.35,1.35,0,0,0-.44-.089c-.026,0-.05-.016-.078-.016h-.007a1.391,1.391,0,0,0-1.391,1.395,1.352,1.352,0,0,0,.108.526,1.346,1.346,0,0,0,.2.3c.029.037.046.082.079.116a1.38,1.38,0,0,0,.909.426l.006,0h0c.035,0,.064.02.1.02a1.4,1.4,0,0,0,1.395-1.395A1.389,1.389,0,0,0-858.248,10.256Zm-20.458,17.405h-.008a1.358,1.358,0,0,0-.841.312,1.359,1.359,0,0,0-.143.1,1.389,1.389,0,0,0-.384.877c0,.038-.023.071-.023.109h0a1.332,1.332,0,0,0,.1.485,1.15,1.15,0,0,0,.065.137,1.445,1.445,0,0,0,.186.276,1.316,1.316,0,0,0,.109.12,1.386,1.386,0,0,0,.376.253h0a1.386,1.386,0,0,0,.563.123,1.38,1.38,0,0,0,1.31-.976,1.179,1.179,0,0,0,.082-.411l0-.009A1.4,1.4,0,0,0-878.706,27.662Z" transform="translate(919.984 33.624)" fill="#fff"/></g></g><g transform="translate(474.874 1482.758) rotate(-45)"><path d="M0,0A61.421,61.421,0,0,0,5.122,4.912h79.3A61.422,61.422,0,0,0,89.544,0Z" transform="translate(16.3 102.589)" fill="#fff"/><path d="M0,0Q1.576,2.456,3.376,4.747H99.468q1.8-2.29,3.377-4.747Z" transform="translate(9.649 93.999)" fill="#fff"/><path d="M61.068,5.077A61.047,61.047,0,0,0,69.788,0H0A61.029,61.029,0,0,0,8.718,5.077Z" transform="translate(26.178 111.18)" fill="#fff"/><path d="M34.186,2.443A61.03,61.03,0,0,0,0,2.443Z" transform="translate(43.979 0)" fill="#fff"/><path d="M0,0Q1.019,2.343,2.219,4.584h107.6Q111.02,2.348,112.034,0Z" transform="translate(5.055 85.407)" fill="#fff"/><path d="M0,1.436c0,.891.03,1.775.067,2.656H122.076c.037-.881.067-1.765.067-2.656,0-.481-.025-.956-.037-1.436H.037C.025.479,0,.955,0,1.436Z" transform="translate(0 59.634)" fill="#fff"/><path d="M0,3.273H90.306C89.274,2.138,88.188,1.054,87.071,0H3.236C2.12,1.054,1.034,2.138,0,3.273Z" transform="translate(15.918 16.68)" fill="#fff"/><path d="M1.661,0C1.073,1.18.513,2.377,0,3.6H112.672C112.16,2.377,111.6,1.18,111.01,0Z" transform="translate(4.736 33.862)" fill="#fff"/><path d="M0,0C.4,1.5.857,2.971,1.365,4.42H116.66q.761-2.174,1.363-4.42Z" transform="translate(2.059 76.817)" fill="#fff"/><path d="M2.318,0Q1.1,1.677,0,3.436H103.568q-1.1-1.758-2.32-3.436Z" transform="translate(9.288 25.27)" fill="#fff"/><path d="M0,0A61.038,61.038,0,0,0,16.841,2.37,61.047,61.047,0,0,0,33.682,0Z" transform="translate(44.231 119.772)" fill="#fff"/><path d="M4.867,0Q2.355,1.44,0,3.108H70.451Q68.1,1.442,65.584,0Z" transform="translate(25.847 8.089)" fill="#fff"/><path d="M0,0Q.252,2.154.651,4.257H120.632q.4-2.1.649-4.257Z" transform="translate(0.43 68.225)" fill="#fff"/><path d="M.53,0C.314,1.3.131,2.6,0,3.927H121.535C121.4,2.6,121.219,1.3,121.006,0Z" transform="translate(0.304 51.044)" fill="#fff"/><path d="M1.071,0Q.478,1.858,0,3.766H118.486Q118.009,1.857,117.413,0Z" transform="translate(1.829 42.452)" fill="#fff"/></g></g></svg>