<svg xmlns="http://www.w3.org/2000/svg" width="18.001" height="18" viewBox="0 0 18.001 18"><defs><style>.a{fill:#eee;}</style></defs><g transform="translate(0 -0.016)"><g transform="translate(0 0.016)"><path class="a" d="M10.983,9.016l6.73-6.731a.986.986,0,0,0,0-1.392L17.124.3a.987.987,0,0,0-1.393,0L9,7.034,2.27.3A.986.986,0,0,0,.878.3l-.59.59a.985.985,0,0,0,0,1.392L7.019,9.016.288,15.746a.987.987,0,0,0,0,1.393l.59.59a.986.986,0,0,0,1.392,0L9,11l6.73,6.73a.977.977,0,0,0,.7.287h0a.977.977,0,0,0,.7-.287l.59-.59a.987.987,0,0,0,0-1.392Z" transform="translate(0 -0.016)"/></g></g></svg>