<svg xmlns="http://www.w3.org/2000/svg" width="48" height="48.001" viewBox="0 0 48 48.001"><defs><style>.a{fill:#0f72ee;}</style></defs><g transform="translate(-0.003 0.001)"><g transform="translate(4.003 4.8)"><rect class="a" width="10.4" height="1.6"/></g><g transform="translate(4.003 8)"><rect class="a" width="10.4" height="1.6"/></g><g transform="translate(4.003 11.2)"><rect class="a" width="7.2" height="1.6"/></g><g transform="translate(4.003 14.4)"><rect class="a" width="7.2" height="1.6"/></g><g transform="translate(0.003 46.4)"><g transform="translate(0)"><rect class="a" width="48" height="1.6"/></g></g><g transform="translate(3.135 -0.001)"><g transform="translate(0 0)"><path class="a" d="M74.507,6.843l-3.2-6.4A.8.8,0,0,0,70.234.084h0l-6.4,3.2a.8.8,0,0,0,.715,1.432L69.184,2.4,67.919,6.011A42.692,42.692,0,0,1,31.323,34.4l.136,1.6A44.293,44.293,0,0,0,69.43,6.539l1.291-3.69,2.354,4.708a.8.8,0,0,0,1.432-.715Z" transform="translate(-31.323 0.001)"/></g></g><g transform="translate(3.203 38.4)"><path class="a" d="M38.4,384.006H32.8a.8.8,0,0,0-.8.8v4.8a.8.8,0,0,0,.8.8h5.6a.8.8,0,0,0,.8-.8v-4.8A.8.8,0,0,0,38.4,384.006Zm-.8,4.8h-4v-3.2h4Z" transform="translate(-32.003 -384.006)"/></g><g transform="translate(12.003 36)"><path class="a" d="M126.4,360.006h-5.6a.8.8,0,0,0-.8.8v7.2a.8.8,0,0,0,.8.8h5.6a.8.8,0,0,0,.8-.8v-7.2A.8.8,0,0,0,126.4,360.006Zm-.8,7.2h-4v-5.6h4Z" transform="translate(-120.003 -360.006)"/></g><g transform="translate(20.803 32)"><path class="a" d="M214.4,320.006h-5.6a.8.8,0,0,0-.8.8v11.2a.8.8,0,0,0,.8.8h5.6a.8.8,0,0,0,.8-.8v-11.2A.8.8,0,0,0,214.4,320.006Zm-.8,11.2h-4v-9.6h4Z" transform="translate(-208.003 -320.006)"/></g><g transform="translate(29.603 26.4)"><path class="a" d="M302.4,264.006h-5.6a.8.8,0,0,0-.8.8v16.8a.8.8,0,0,0,.8.8h5.6a.8.8,0,0,0,.8-.8v-16.8A.8.8,0,0,0,302.4,264.006Zm-.8,16.8h-4v-15.2h4Z" transform="translate(-296.003 -264.006)"/></g><g transform="translate(38.403 15.2)"><path class="a" d="M390.4,152.006h-5.6a.8.8,0,0,0-.8.8v28a.8.8,0,0,0,.8.8h5.6a.8.8,0,0,0,.8-.8v-28A.8.8,0,0,0,390.4,152.006Zm-.8,28h-4v-26.4h4Z" transform="translate(-384.003 -152.006)"/></g></g></svg>