<svg xmlns="http://www.w3.org/2000/svg" width="48" height="49.267" viewBox="0 0 48 49.267"><defs><style>.a{fill:#0f72ee;}</style></defs><g transform="translate(-6.583 0)"><path class="a" d="M43.333,343.976l-7.085,3.639a3.374,3.374,0,0,0-2.4-1H28.966a1.6,1.6,0,0,1-.321-.019c-.044-.03-.155-.134-.244-.218l-.047-.044c-3.974-3.742-7.331-3.5-11.15-2a2.523,2.523,0,0,1-1.2.263H14.927a2.45,2.45,0,0,0-2.307-1.635H9.029a2.45,2.45,0,0,0-2.446,2.449v9.421a2.449,2.449,0,0,0,2.446,2.446h3.592a2.45,2.45,0,0,0,2.307-1.634H16.9a2.8,2.8,0,0,1,.654.136l9.289,2.484c.407.11.78.219,1.141.324a11.764,11.764,0,0,0,3.259.642,7.154,7.154,0,0,0,4.065-1.464l.024-.017,11.453-8.156a3.3,3.3,0,0,0-3.456-5.618ZM13.142,354.833a.528.528,0,0,1-.521.522H9.029a.528.528,0,0,1-.521-.522v-9.421a.53.53,0,0,1,.521-.524h3.592a.53.53,0,0,1,.521.524Zm32.529-6.806-11.44,8.146c-2.329,1.55-3.319,1.262-5.708.568-.369-.107-.751-.218-1.178-.334l-9.291-2.484a4.61,4.61,0,0,0-1.152-.2H15.067v-7.2l1.024,0a4.28,4.28,0,0,0,1.82-.4c3.31-1.306,5.864-1.462,9.125,1.609l.046.043a2.245,2.245,0,0,0,1.884.76h4.882a1.458,1.458,0,1,1,0,2.917H25.933a.962.962,0,0,0,0,1.924h7.915a3.383,3.383,0,0,0,3.314-4.07l7.052-3.622a1.38,1.38,0,1,1,1.458,2.34Z" transform="translate(0 -309.964)"/><path class="a" d="M188.686,22.759a3.122,3.122,0,0,0,.333,5.758V29.95a3.185,3.185,0,0,0,3.179,3.182h4.263a3.186,3.186,0,0,0,3.182-3.182V28.517a3.122,3.122,0,0,0,.333-5.758,11.743,11.743,0,0,1,2.174-3.953c1.382-1.881,2.948-4.012,2.945-7.767,0-.335-.014-.679-.041-1.023a.962.962,0,1,0-1.918.153c.023.293.035.585.035.871,0,3.124-1.247,4.825-2.571,6.627a13.113,13.113,0,0,0-2.531,4.779h-7.476a13.11,13.11,0,0,0-2.531-4.779c-1.324-1.8-2.575-3.5-2.571-6.627a9,9,0,0,1,2.628-6.612,8.717,8.717,0,0,1,6.2-2.5h.028a8.714,8.714,0,0,1,5.275,1.713.962.962,0,1,0,1.144-1.547,10.915,10.915,0,0,0-14,.966,10.936,10.936,0,0,0-3.2,7.981c-.005,3.756,1.562,5.888,2.945,7.769a11.74,11.74,0,0,1,2.174,3.953Zm9.034,7.191a1.259,1.259,0,0,1-1.258,1.258H192.2a1.258,1.258,0,0,1-1.255-1.258V28.692h6.776Zm-7.67-5.581h8.564a1.2,1.2,0,1,1,0,2.4H190.05a1.2,1.2,0,1,1,0-2.4Z" transform="translate(-159.956 0)"/><path class="a" d="M287.364,64.013a.962.962,0,1,0-1.924,0v5.968a.962.962,0,1,0,1.924,0Z" transform="translate(-252.026 -56.984)"/><path class="a" d="M286.4,170.311a.962.962,0,0,0-.962.962v.005a.962.962,0,1,0,.962-.968Z" transform="translate(-252.026 -153.924)"/><path class="a" d="M449.7,114.64h-3.908a.962.962,0,1,0,0,1.924H449.7a.962.962,0,1,0,0-1.924Z" transform="translate(-396.075 -103.609)"/><path class="a" d="M428.977,11.706a.957.957,0,0,0,.535-.163l3.243-2.176a.962.962,0,1,0-1.072-1.6L428.44,9.945a.962.962,0,0,0,.537,1.761Z" transform="translate(-380.881 -6.873)"/><path class="a" d="M432.756,201.393l-3.243-2.176a.962.962,0,1,0-1.072,1.6l3.243,2.176a.962.962,0,0,0,1.072-1.6Z" transform="translate(-380.882 -179.9)"/><path class="a" d="M86.4,116.564h3.906a.962.962,0,1,0,0-1.924H86.4a.962.962,0,0,0,0,1.924Z" transform="translate(-71.268 -103.609)"/><path class="a" d="M109.588,9.367l3.243,2.176a.962.962,0,1,0,1.072-1.6L110.66,7.77a.962.962,0,1,0-1.072,1.6Z" transform="translate(-92.709 -6.874)"/><path class="a" d="M112.832,199.217l-3.243,2.176a.962.962,0,1,0,1.072,1.6l3.243-2.176a.962.962,0,1,0-1.072-1.6Z" transform="translate(-92.71 -179.9)"/><path class="a" d="M374.785,53.783a.962.962,0,1,0,0-1.364.956.956,0,0,0,0,1.364Z" transform="translate(-332.516 -47.12)"/></g></svg>