<svg xmlns="http://www.w3.org/2000/svg" width="69.078" height="65.057" viewBox="0 0 69.078 65.057"><defs><style>.a{fill:#0f72ee;}</style></defs><g transform="translate(0 -5.619)"><path class="a" d="M39.793,44.416C37.4,32.105,26.125,26.511,14.616,28.691c1.32-6.907,7.786-12.555,11.988-17.8.6-.744.9-2.054,0-2.755a8.068,8.068,0,0,0-6.187-1.985.734.734,0,0,0-.936-.488C12.721,7.787,8.343,15.008,5.415,20.992A53.408,53.408,0,0,0,.065,46.811C.781,60.648,13.136,73.842,27.847,70,38.587,67.2,41.635,53.9,39.793,44.416ZM12.268,55.488s0-.008.005-.012c.067-.259.125-.521.186-.783a5.5,5.5,0,0,1,.539.853,6.818,6.818,0,0,1-.733.059C12.264,55.564,12.269,55.528,12.268,55.488ZM9.156,23.016a1.864,1.864,0,0,0,.562.142q-.862,1.729-1.582,3.524a2.091,2.091,0,0,0-.583-.085C8.038,25.383,8.582,24.193,9.156,23.016ZM7.68,58.14c.462.478.958.936,1.475,1.377a1.868,1.868,0,0,0-.2.32A15.3,15.3,0,0,1,7.68,58.14Zm13.269-.048a7.983,7.983,0,0,1-1.322-2.561.545.545,0,0,0-.067-.206,7.42,7.42,0,0,1-.2-.991,27.491,27.491,0,0,1,2.478,4.281A5.265,5.265,0,0,1,20.949,58.092Z" transform="translate(0)"/><path class="a" d="M96.643,29.083c1.3-5.255,4.849-8.882,7.427-13.622a1.747,1.747,0,0,0-.623-2.377c-1.6-.746-3.047-1.573-4.651-2.186a1.95,1.95,0,0,0-3.074-.7A37.438,37.438,0,0,0,89.84,16.84a21.055,21.055,0,0,0-4.492,9.522,2.068,2.068,0,0,0,.155,1.144l-.249.429a1.567,1.567,0,0,0,.557,2.123A23.133,23.133,0,0,1,97.906,51.7a8.6,8.6,0,0,0-.386,3.948A35.923,35.923,0,0,1,92.8,68.235a1.827,1.827,0,0,0,.188,2.3,1.441,1.441,0,0,0,1.148.972c13.931,3.147,27.946-3.52,29.457-18.719C125,38.642,110.267,26.722,96.643,29.083Zm5.3,39.3c.049-.046.093-.1.141-.144a8.054,8.054,0,0,0,3.441-1.037c.011.049.019.095.031.145a1.737,1.737,0,0,0,.157.356A26.659,26.659,0,0,1,101.943,68.386ZM111.824,41.8c-.132.242-.248.486-.365.729-.009-.068-.011-.138-.021-.206a7.233,7.233,0,0,1,.243-1.55l.046.029q.105.437.172.891C111.876,41.725,111.846,41.756,111.824,41.8Zm6.655,15.252c.005-.332,0-.667-.012-1a10.548,10.548,0,0,0,.591-1.145A15.413,15.413,0,0,1,118.479,57.047Z" transform="translate(-54.608 -2.618)"/></g></svg>