<svg xmlns="http://www.w3.org/2000/svg" width="48" height="47.626" viewBox="0 0 48 47.626"><defs><style>.a{fill:#0f72ee;}</style></defs><path class="a" d="M480,476.137h1.548v1.548H480Zm0,0" transform="translate(-433.548 -430.059)"/><path class="a" d="M0,476.137H1.548v1.548H0Zm0,0" transform="translate(0 -430.059)"/><path class="a" d="M39.426,35.5a7.332,7.332,0,0,0-5.171-4.692L30.689,18.578a7,7,0,0,0-5.915-4.967V10.237L36.957,5.885,23.226,0V13.61a6.9,6.9,0,0,0-1.365.295,5.47,5.47,0,0,0-4.692-.931A6.963,6.963,0,0,0,3.924,16.72a4.642,4.642,0,0,0,.722,9.228H15.161L14.71,27.5a7,7,0,0,0-6.688,5.016L4.065,46.078H2.323v1.548H44.9V46.078H43.13ZM24.774,2.349l7.946,3.4L24.774,8.592Zm1.24,36.668a2.456,2.456,0,0,0,1.853.867c1.639,0,2.4-1.525,3.015-2.751.588-1.178.993-1.894,1.63-1.894s1.042.716,1.631,1.894c.614,1.226,1.376,2.751,3.017,2.751a2.462,2.462,0,0,0,1.858-.87l2.472,7.064H23.543Zm11.951-3.009.422,1.206c-.454.808-.8,1.122-1.228,1.122-.637,0-1.042-.716-1.631-1.895-.613-1.226-1.377-2.75-3.017-2.75s-2.4,1.525-3.015,2.75c-.589,1.178-.993,1.895-1.629,1.895-.425,0-.77-.312-1.223-1.118l.423-1.21a5.774,5.774,0,0,1,10.9,0Zm-5.449-5.414a7.331,7.331,0,0,0-6.911,4.9l-1.819,5.2L21.4,32.513a7.01,7.01,0,0,0-5.13-4.833l1.214-4.161a2.455,2.455,0,0,0,1.867.882c1.639,0,2.4-1.525,3.015-2.751.588-1.178.993-1.894,1.63-1.894s1.042.716,1.631,1.894C26.24,22.875,27,24.4,28.643,24.4a2.465,2.465,0,0,0,1.873-.886L32.581,30.6C32.56,30.6,32.538,30.594,32.516,30.594ZM29.2,19.012l.749,2.569c-.5.928-.859,1.271-1.309,1.271-.637,0-1.042-.716-1.631-1.895-.613-1.226-1.377-2.751-3.017-2.751s-2.4,1.525-3.015,2.751c-.589,1.178-.993,1.895-1.629,1.895-.448,0-.8-.342-1.3-1.266l.751-2.574a5.42,5.42,0,0,1,10.405,0ZM4.645,24.4a3.1,3.1,0,1,1,3.1-3.1H9.29a4.651,4.651,0,0,0-3.8-4.564,5.414,5.414,0,0,1,10.49-2.546l.267.809.78-.341a3.917,3.917,0,0,1,3.17.041,6.967,6.967,0,0,0-2.89,3.876l-1.7,5.823ZM14.71,29.045a5.448,5.448,0,0,1,5.2,3.9l.448,1.537c-.43.654-.738.755-1.008.755-.637,0-1.042-.716-1.631-1.895-.613-1.226-1.377-2.751-3.017-2.751s-2.4,1.525-3.015,2.751c-.589,1.178-.993,1.895-1.629,1.895-.268,0-.575-.1-1-.75l.449-1.541A5.448,5.448,0,0,1,14.71,29.045ZM8.548,36.236a2.323,2.323,0,0,0,1.512.551c1.639,0,2.4-1.525,3.015-2.751.588-1.178.993-1.894,1.63-1.894s1.042.716,1.631,1.894c.614,1.226,1.376,2.751,3.017,2.751a2.357,2.357,0,0,0,1.517-.56l2.037,6.982-1,2.868H5.677Zm0,0"/></svg>