<svg xmlns="http://www.w3.org/2000/svg" width="48" height="48" viewBox="0 0 48 48"><defs><style>.a{fill:#0f72ee;}</style></defs><g transform="translate(0 0)"><path class="a" d="M26.109,48H21.891a2.813,2.813,0,0,1-.7-5.536V41.3a.565.565,0,0,0-.461-.55,16.894,16.894,0,0,1-6.25-2.589.568.568,0,0,0-.719.061l-.832.832a2.807,2.807,0,0,1-4.4,3.41L5.538,39.479a2.813,2.813,0,0,1,3.418-4.412l.825-.825a.568.568,0,0,0,.061-.719,16.894,16.894,0,0,1-2.589-6.25.565.565,0,0,0-.55-.461H5.537A2.817,2.817,0,0,1,2.711,28.92,2.825,2.825,0,0,1,0,26.065V21.891A2.812,2.812,0,0,1,2.908,19.08a2.848,2.848,0,0,1,2.616,2.108H6.7a.565.565,0,0,0,.55-.461,16.894,16.894,0,0,1,2.589-6.25.568.568,0,0,0-.061-.719l-.825-.825A2.813,2.813,0,0,1,5.538,8.521L8.521,5.538a2.813,2.813,0,0,1,4.412,3.418l.825.825a.568.568,0,0,0,.719.061,16.9,16.9,0,0,1,6.25-2.589.565.565,0,0,0,.461-.55V5.536A2.813,2.813,0,0,1,21.891,0h4.219a2.813,2.813,0,0,1,.7,5.536V6.7a.565.565,0,0,0,.461.55,16.894,16.894,0,0,1,6.25,2.589.568.568,0,0,0,.719-.061l.825-.825a2.813,2.813,0,0,1,4.412-3.417l2.983,2.983a2.813,2.813,0,0,1-3.418,4.413l-.825.825a.568.568,0,0,0-.061.719,16.894,16.894,0,0,1,2.589,6.25.565.565,0,0,0,.55.461h1.177a2.839,2.839,0,0,1,2.461-2.1h0A2.813,2.813,0,0,1,48,21.891v4.219a2.807,2.807,0,0,1-5.526.7H41.3a.565.565,0,0,0-.55.461,16.894,16.894,0,0,1-2.589,6.25.568.568,0,0,0,.061.719l.825.825a2.813,2.813,0,0,1,3.418,4.412l-2.983,2.983a2.807,2.807,0,0,1-4.4-3.41l-.832-.832a.568.568,0,0,0-.719-.061,16.9,16.9,0,0,1-6.25,2.589.565.565,0,0,0-.461.55v1.167a2.813,2.813,0,0,1-.7,5.536ZM14.153,36.185a2.451,2.451,0,0,1,1.372.419,15.028,15.028,0,0,0,5.56,2.3,2.443,2.443,0,0,1,1.978,2.39v1.781a1.173,1.173,0,0,1-1.172,1.172.938.938,0,0,0,0,1.875h4.219a.938.938,0,0,0,0-1.875,1.173,1.173,0,0,1-1.172-1.172V41.3a2.443,2.443,0,0,1,1.978-2.39,15.031,15.031,0,0,0,5.56-2.3,2.446,2.446,0,0,1,3.092.29l1.29,1.29a1.131,1.131,0,0,1,0,1.6.966.966,0,0,0-.09,1.291.938.938,0,0,0,1.385.065l2.983-2.983a.937.937,0,1,0-1.326-1.326l-.03.03a1.131,1.131,0,0,1-1.6,0l-1.29-1.29a2.446,2.446,0,0,1-.29-3.092,15.029,15.029,0,0,0,2.3-5.56,2.443,2.443,0,0,1,2.39-1.978H43.12a1.131,1.131,0,0,1,1.13,1.13.965.965,0,0,0,.85.976.938.938,0,0,0,1.025-.934V21.891a.938.938,0,0,0-1.025-.934.965.965,0,0,0-.85.976,1.131,1.131,0,0,1-1.13,1.13H41.3a2.443,2.443,0,0,1-2.39-1.978,15.031,15.031,0,0,0-2.3-5.56,2.446,2.446,0,0,1,.29-3.092l1.26-1.26a1.173,1.173,0,0,1,1.657,0,.938.938,0,0,0,1.326-1.326L38.153,6.864a.937.937,0,0,0-1.326,1.326,1.173,1.173,0,0,1,0,1.657l-1.26,1.26a2.447,2.447,0,0,1-3.092.29,15.028,15.028,0,0,0-5.56-2.3A2.443,2.443,0,0,1,24.938,6.7V4.922A1.173,1.173,0,0,1,26.109,3.75a.938.938,0,0,0,0-1.875H21.891a.938.938,0,1,0,0,1.875,1.173,1.173,0,0,1,1.172,1.172V6.7a2.443,2.443,0,0,1-1.978,2.39,15.031,15.031,0,0,0-5.56,2.3,2.446,2.446,0,0,1-3.092-.29l-1.26-1.26a1.172,1.172,0,0,1,0-1.658A.938.938,0,0,0,9.847,6.864L6.864,9.847a.938.938,0,0,0,1.326,1.326,1.173,1.173,0,0,1,1.657,0l1.26,1.26a2.446,2.446,0,0,1,.29,3.092,15.029,15.029,0,0,0-2.3,5.56A2.443,2.443,0,0,1,6.7,23.063H4.873A1.124,1.124,0,0,1,3.75,21.94a.971.971,0,0,0-.9-.986.938.938,0,0,0-.971.937v4.174a.969.969,0,0,0,.9.982.938.938,0,0,0,.973-.937,1.173,1.173,0,0,1,1.172-1.172H6.7a2.443,2.443,0,0,1,2.39,1.978,15.031,15.031,0,0,0,2.3,5.56,2.446,2.446,0,0,1-.29,3.092l-1.29,1.29a1.131,1.131,0,0,1-1.6,0l-.03-.03a.937.937,0,0,0-1.326,1.326l2.983,2.983a.938.938,0,0,0,1.385-.065.966.966,0,0,0-.089-1.291,1.131,1.131,0,0,1,0-1.6l1.29-1.29a2.428,2.428,0,0,1,1.72-.709Z" transform="translate(0 0)"/></g><g transform="translate(16.441 12.176)"><path class="a" d="M179.311,137.753a3.938,3.938,0,1,1,3.938-3.937A3.942,3.942,0,0,1,179.311,137.753Zm0-6a2.063,2.063,0,1,0,2.063,2.063A2.065,2.065,0,0,0,179.311,131.753Z" transform="translate(-175.374 -129.878)"/></g><g transform="translate(14.313 26.544)"><path class="a" d="M156.073,289.951a3.406,3.406,0,1,1,3.406-3.406A3.41,3.41,0,0,1,156.073,289.951Zm0-4.938a1.531,1.531,0,1,0,1.531,1.531A1.533,1.533,0,0,0,156.073,285.013Z" transform="translate(-152.667 -283.138)"/></g><g transform="translate(24.79 20.874)"><path class="a" d="M270.182,234.2a5.787,5.787,0,0,1-5.751-5.113.937.937,0,1,1,1.862-.217,3.915,3.915,0,1,0,4.324-4.351.937.937,0,0,1,.206-1.864,5.79,5.79,0,0,1-.641,11.545Z" transform="translate(-264.426 -222.653)"/></g><g transform="translate(28.406 15.176)"><path class="a" d="M303.938,163.755a.938.938,0,1,1,.663-.275A.945.945,0,0,1,303.938,163.755Z" transform="translate(-303 -161.88)"/></g><g transform="translate(23.063 34.219)"><path class="a" d="M246.938,366.875a.938.938,0,1,1,.663-.275A.944.944,0,0,1,246.938,366.875Z" transform="translate(-246 -365)"/></g><g transform="translate(12.532 23.075)"><path class="a" d="M134.607,248.005a.938.938,0,1,1,.663-.275A.943.943,0,0,1,134.607,248.005Z" transform="translate(-133.67 -246.13)"/></g><g transform="translate(26.168 22.277)"><path class="a" d="M280.057,239.495a.938.938,0,1,1,.663-.275A.944.944,0,0,1,280.057,239.495Z" transform="translate(-279.12 -237.62)"/></g></svg>