<svg xmlns="http://www.w3.org/2000/svg" xmlns:xlink="http://www.w3.org/1999/xlink" width="168" height="102" viewBox="0 0 168 102"><defs><style>.a{fill:#fff;}.b{fill:#0f72ee;}.c{fill:#212121;font-size:18px;font-family:Poppins-SemiBold, Poppins;font-weight:600;letter-spacing:-0.008em;}.d{font-size:10px;font-family:Poppins-Light, Poppins;font-weight:300;}.e{clip-path:url(#a);}</style><clipPath id="a"><rect class="a" width="16" height="16"/></clipPath></defs><g transform="translate(0.175 -0.184)"><rect class="a" width="168" height="102" rx="8" transform="translate(-0.175 0.184)"/><ellipse class="b" cx="16.5" cy="17" rx="16.5" ry="17" transform="translate(25.825 34.184)"/><text class="c" transform="translate(66.825 51.184)"><tspan x="0" y="0">Website</tspan><tspan class="d"><tspan x="0" y="16">Integration</tspan></tspan></text><g class="e" transform="translate(34.825 43.184)"><g transform="translate(-1.095 1.393)"><g transform="translate(1.357 0)"><path class="a" d="M1.4,2.1V12.182H16.135V2.1Zm13.377,8.143H2.757V3.457h12.02v6.786Z" transform="translate(-1.4 -2.1)"/></g><g transform="translate(0 11.051)"><path class="a" d="M10.663,13.5v.969H6.786V13.5H0v.388a1.944,1.944,0,0,0,1.939,1.939H15.51a1.944,1.944,0,0,0,1.939-1.939V13.5Z" transform="translate(0 -13.5)"/></g></g></g></g></svg>