<svg xmlns="http://www.w3.org/2000/svg" xmlns:xlink="http://www.w3.org/1999/xlink" width="347" height="227" viewBox="0 0 347 227"><defs><filter id="a" x="0" y="0" width="347" height="227" filterUnits="userSpaceOnUse"><feOffset dy="16" input="SourceAlpha"/><feGaussianBlur stdDeviation="12" result="b"/><feFlood flood-opacity="0.161"/><feComposite operator="in" in2="b"/><feComposite in="SourceGraphic"/></filter></defs><g transform="translate(36.357 2.361)"><g transform="matrix(1, 0, 0, 1, -36.36, -2.36)" filter="url(#a)"><rect width="275" height="155" rx="16" transform="translate(36 20)" fill="#fff"/></g><path d="M1.035-10.47V0h5.55V-1.665H3.135V-10.47ZM11.49-6.72a1.846,1.846,0,0,1,1.98,1.785H9.525A1.93,1.93,0,0,1,11.49-6.72Zm3.945,4.11H13.17a1.712,1.712,0,0,1-1.665,1A1.944,1.944,0,0,1,9.51-3.525h6.075a4.908,4.908,0,0,0,.06-.81,3.9,3.9,0,0,0-4.1-4.11,3.993,3.993,0,0,0-4.17,4.29A4.025,4.025,0,0,0,11.55.135,3.862,3.862,0,0,0,15.435-2.61Zm5.31-4.11a1.846,1.846,0,0,1,1.98,1.785H18.78A1.93,1.93,0,0,1,20.745-6.72ZM24.69-2.61H22.425a1.712,1.712,0,0,1-1.665,1,1.944,1.944,0,0,1-1.995-1.92H24.84a4.909,4.909,0,0,0,.06-.81,3.9,3.9,0,0,0-4.095-4.11,3.993,3.993,0,0,0-4.17,4.29,4.025,4.025,0,0,0,4.17,4.29A3.862,3.862,0,0,0,24.69-2.61ZM32.25,0h2.1V-4.875c0-2.295-1.38-3.555-3.315-3.555a3.1,3.1,0,0,0-2.5,1.155V-8.31h-2.1V0h2.1V-4.59a1.8,1.8,0,0,1,1.875-2.055A1.8,1.8,0,0,1,32.25-4.59Zm3.555-4.185c0,2.6,1.68,4.32,3.78,4.32a3.277,3.277,0,0,0,2.76-1.35V0H44.46V-8.31H42.345v1.185A3.286,3.286,0,0,0,39.6-8.445C37.485-8.445,35.805-6.78,35.805-4.185Zm6.54.03A2.237,2.237,0,0,1,40.14-1.71a2.271,2.271,0,0,1-2.19-2.475A2.216,2.216,0,0,1,40.14-6.6,2.237,2.237,0,0,1,42.345-4.155ZM57.195,0h2.22L55.65-10.485H53.2L49.44,0h2.205l.69-2H56.5Zm-1.26-3.675H52.9l1.515-4.38ZM60.825,0h2.1V-10.47h-2.1Z" transform="translate(70.644 55.638)" fill="#0f72ee"/><path d="M.51-.08H5.32V-.84H1.88C3.17-1.89,5.11-3.42,5.11-5.22A2.034,2.034,0,0,0,2.87-7.36,2.215,2.215,0,0,0,.54-5.02h.88A1.429,1.429,0,0,1,2.88-6.58a1.221,1.221,0,0,1,1.33,1.4c0,1.48-1.8,2.92-3.7,4.45Zm6.9-.48a.606.606,0,0,0-.6-.62.611.611,0,0,0-.62.62.611.611,0,0,0,.62.62A.606.606,0,0,0,7.41-.56Zm0-4.28a.606.606,0,0,0-.6-.62.611.611,0,0,0-.62.62.611.611,0,0,0,.62.62A.606.606,0,0,0,7.41-4.84ZM8.39-.08H13.2V-.84H9.76c1.29-1.05,3.23-2.58,3.23-4.38a2.034,2.034,0,0,0-2.24-2.14A2.215,2.215,0,0,0,8.42-5.02H9.3a1.429,1.429,0,0,1,1.46-1.56,1.221,1.221,0,0,1,1.33,1.4c0,1.48-1.8,2.92-3.7,4.45ZM17.73,0h.9V-1.61h1V-2.4h-1V-7.16H17.54L14.03-2.3v.69h3.7ZM15.08-2.4l2.69-3.81V-2.4Zm9.19-1.26V-6.22h1.34c1.04,0,1.48.48,1.48,1.29,0,.78-.44,1.27-1.48,1.27Zm3.75-1.27c0-1.14-.77-2.04-2.41-2.04H23.36V0h.91V-2.91h1.34C27.34-2.91,28.02-3.87,28.02-4.93ZM29.15,0h.91V-5.17L32.37,0h.64l2.3-5.16V0h.91V-6.92h-.97L32.69-1.2,30.13-6.92h-.98Z" transform="translate(142.643 55.341)" fill="#0f72ee"/><line x2="275.5" transform="translate(-0.356 128.638)" fill="none" stroke="#0f72ee" stroke-width="1" opacity="0.2"/><line y2="44" transform="translate(123.644 128.638)" fill="none" stroke="#0f72ee" stroke-width="1" opacity="0.2"/><path d="M3.69-3.78V0H5.4V-3.78l3.45-6.645H6.96L4.545-5.31,2.13-10.425H.225Zm9.99-3.18a2.146,2.146,0,0,1,2.31,2.085H11.415A2.251,2.251,0,0,1,13.68-6.96Zm3.87,4.5H15.7A2,2,0,0,1,13.755-1.3,2.274,2.274,0,0,1,11.4-3.495h6.315a5.275,5.275,0,0,0,.06-.84A3.854,3.854,0,0,0,13.755-8.4,3.958,3.958,0,0,0,9.63-4.14,4.01,4.01,0,0,0,13.755.135,3.777,3.777,0,0,0,17.55-2.46Zm8.07.15c-.09-2.985-4.755-2.055-4.755-3.72,0-.555.48-.93,1.4-.93a1.367,1.367,0,0,1,1.545,1.215h1.71c-.09-1.65-1.32-2.655-3.195-2.655-1.95,0-3.18,1.065-3.18,2.385,0,3.03,4.8,2.1,4.8,3.72,0,.57-.525.99-1.515.99a1.508,1.508,0,0,1-1.65-1.23H19c.075,1.5,1.47,2.67,3.45,2.67C24.4.135,25.62-.915,25.62-2.31Z" transform="translate(41.644 154.638)" fill="#0f72ee"/><path d="M3.27.015,4.785,0,7.3-8.415,9.735,0h1.53L14.3-10.455h-1.47L10.53-1.62l-2.4-8.835H6.6L4.08-1.59,1.8-10.455H.345ZM23.6-4.125a4.012,4.012,0,0,0-4.155-4.23,4.02,4.02,0,0,0-4.155,4.23,3.991,3.991,0,0,0,4.1,4.26A4.076,4.076,0,0,0,23.6-4.125Zm-6.915,0A2.725,2.725,0,0,1,19.425-7.17,2.762,2.762,0,0,1,22.2-4.125a2.791,2.791,0,0,1-2.82,3.06C17.955-1.065,16.68-2.04,16.68-4.125ZM32.685-8.22H31.32V-3.7c0,1.77-.945,2.64-2.355,2.64a2.2,2.2,0,0,1-2.3-2.52V-8.22H25.32V-3.4A3.207,3.207,0,0,0,28.695.12,3.022,3.022,0,0,0,31.32-1.215V0h1.365ZM34.995,0H36.36V-11.1H34.995Zm3.18-4.14a3.956,3.956,0,0,0,3.9,4.275,3.376,3.376,0,0,0,3.06-1.68V0h1.38V-11.1h-1.38v4.35a3.585,3.585,0,0,0-3.045-1.6A3.9,3.9,0,0,0,38.175-4.14Zm6.96.015a2.813,2.813,0,0,1-2.79,3.06A2.815,2.815,0,0,1,39.57-4.14a2.775,2.775,0,0,1,2.775-3.03A2.816,2.816,0,0,1,45.135-4.125ZM55.95-1.56,53.37-8.22H51.855L55.17-.09,53.55,3.87h1.41L59.91-8.22H58.5ZM69.075-4.125a4.012,4.012,0,0,0-4.155-4.23,4.02,4.02,0,0,0-4.155,4.23,3.991,3.991,0,0,0,4.1,4.26A4.076,4.076,0,0,0,69.075-4.125Zm-6.915,0A2.725,2.725,0,0,1,64.9-7.17,2.762,2.762,0,0,1,67.68-4.125a2.791,2.791,0,0,1-2.82,3.06C63.435-1.065,62.16-2.04,62.16-4.125ZM78.165-8.22H76.8V-3.7c0,1.77-.945,2.64-2.355,2.64a2.2,2.2,0,0,1-2.295-2.52V-8.22H70.8V-3.4A3.207,3.207,0,0,0,74.175.12,3.022,3.022,0,0,0,76.8-1.215V0h1.365ZM84.48,0h1.365V-11.1H84.48Zm3.69,0h1.365V-8.22H88.17Zm.705-9.555a.91.91,0,0,0,.9-.93.91.91,0,0,0-.9-.93.916.916,0,0,0-.93.93A.916.916,0,0,0,88.875-9.555ZM91.86,0h1.365V-3.63L96.45,0h1.86L94.425-4.125l3.87-4.095h-1.9L93.225-4.575V-11.1H91.86Zm11.22-7.2a2.412,2.412,0,0,1,2.6,2.49h-5.19A2.546,2.546,0,0,1,103.08-7.2Zm3.84,4.665h-1.47a2.259,2.259,0,0,1-2.31,1.515,2.584,2.584,0,0,1-2.67-2.58h6.57a7.4,7.4,0,0,0,.045-.825,3.768,3.768,0,0,0-3.945-3.93,3.911,3.911,0,0,0-4.065,4.23A3.96,3.96,0,0,0,103.14.135,3.7,3.7,0,0,0,106.92-2.535Zm6.27.285c0,1.65.825,2.25,2.28,2.25h1.23V-1.155h-1c-.84,0-1.14-.285-1.14-1.1V-7.095H116.7V-8.22h-2.145v-2.07H113.19v2.07h-1.065v1.125h1.065Zm12.96-1.875A4.012,4.012,0,0,0,122-8.355a4.02,4.02,0,0,0-4.155,4.23,3.991,3.991,0,0,0,4.1,4.26A4.076,4.076,0,0,0,126.15-4.125Zm-6.915,0A2.725,2.725,0,0,1,121.98-7.17a2.762,2.762,0,0,1,2.775,3.045,2.791,2.791,0,0,1-2.82,3.06C120.51-1.065,119.235-2.04,119.235-4.125Zm12.21-.015A3.953,3.953,0,0,0,135.33.135,3.433,3.433,0,0,0,138.4-1.53V0h1.38V-8.22H138.4v1.5a3.411,3.411,0,0,0-3.06-1.635A3.9,3.9,0,0,0,131.445-4.14Zm6.96.015a2.813,2.813,0,0,1-2.79,3.06A2.815,2.815,0,0,1,132.84-4.14a2.775,2.775,0,0,1,2.775-3.03A2.816,2.816,0,0,1,138.4-4.125ZM148.11,0h1.35V-4.845A3.189,3.189,0,0,0,146.1-8.37a3.037,3.037,0,0,0-2.64,1.32V-8.22H142.1V0h1.365V-4.545c0-1.77.96-2.64,2.355-2.64s2.295.855,2.295,2.535ZM157.6-2.235c-.06-2.94-4.83-1.875-4.83-3.825,0-.66.6-1.14,1.6-1.14a1.581,1.581,0,0,1,1.785,1.425h1.365c-.09-1.605-1.29-2.58-3.105-2.58S151.41-7.32,151.41-6.06c0,3.06,4.86,2,4.86,3.825,0,.675-.6,1.215-1.68,1.215-1.155,0-1.86-.6-1.935-1.395h-1.41c.09,1.5,1.44,2.55,3.36,2.55C156.42.135,157.6-.885,157.6-2.235ZM161.13,0h1.41l1.98-6.525L166.5,0h1.41l2.565-8.22h-1.35L167.265-1.3l-2-6.915h-1.395l-2.04,6.9-1.89-6.9h-1.4Zm14.19-7.2a2.412,2.412,0,0,1,2.6,2.49h-5.19A2.546,2.546,0,0,1,175.32-7.2Zm3.84,4.665h-1.47a2.259,2.259,0,0,1-2.31,1.515,2.584,2.584,0,0,1-2.67-2.58h6.57a7.4,7.4,0,0,0,.045-.825,3.768,3.768,0,0,0-3.945-3.93,3.911,3.911,0,0,0-4.065,4.23A3.96,3.96,0,0,0,175.38.135,3.7,3.7,0,0,0,179.16-2.535Zm3.33-1.935c0-1.9.99-2.49,2.295-2.49h.36V-8.37a2.768,2.768,0,0,0-2.655,1.485V-8.22h-1.365V0h1.365ZM3.27,19.015,4.785,19,7.3,10.585,9.735,19h1.53L14.3,8.545h-1.47l-2.3,8.835L8.13,8.545H6.6L4.08,17.41,1.8,8.545H.345ZM15.8,19H17.16V14.29h3.69V13.18H17.16V9.655H21.7V8.545H15.8Zm14.25,0H31.41V8.545H30.045v4.59H24.72V8.545H23.355V19H24.72V14.26h5.325Zm7.935,0h1.365V11.905H41.07V10.78H39.345v-.585c0-1.065.4-1.515,1.635-1.515V7.54c-2.1,0-3,.825-3,2.655v.585H36.915v1.125H37.98Zm8.175-7.2a2.412,2.412,0,0,1,2.595,2.49H43.56A2.546,2.546,0,0,1,46.155,11.8ZM50,16.465h-1.47a2.259,2.259,0,0,1-2.31,1.515,2.584,2.584,0,0,1-2.67-2.58h6.57a7.4,7.4,0,0,0,.045-.825,3.768,3.768,0,0,0-3.945-3.93,3.911,3.911,0,0,0-4.065,4.23,3.96,3.96,0,0,0,4.065,4.26A3.7,3.7,0,0,0,50,16.465Zm5.46-4.665a2.412,2.412,0,0,1,2.595,2.49H52.86A2.546,2.546,0,0,1,55.455,11.8Zm3.84,4.665h-1.47a2.259,2.259,0,0,1-2.31,1.515,2.584,2.584,0,0,1-2.67-2.58h6.57a7.4,7.4,0,0,0,.045-.825,3.768,3.768,0,0,0-3.945-3.93,3.911,3.911,0,0,0-4.065,4.23,3.96,3.96,0,0,0,4.065,4.26A3.7,3.7,0,0,0,59.295,16.465Zm1.455-1.6a3.956,3.956,0,0,0,3.9,4.275,3.376,3.376,0,0,0,3.06-1.68V19h1.38V7.9H67.71v4.35a3.585,3.585,0,0,0-3.045-1.6A3.9,3.9,0,0,0,60.75,14.86Zm6.96.015a2.8,2.8,0,1,1-5.565-.015,2.775,2.775,0,0,1,2.775-3.03A2.816,2.816,0,0,1,67.71,14.875Zm5.055-2.565V7.9H71.4V19h1.365V17.485a3.43,3.43,0,0,0,3.075,1.65,3.956,3.956,0,0,0,3.9-4.275,3.887,3.887,0,0,0-3.9-4.215A3.482,3.482,0,0,0,72.765,12.31Zm5.58,2.55a2.8,2.8,0,1,1-5.58.015,2.825,2.825,0,0,1,2.79-3.045A2.778,2.778,0,0,1,78.345,14.86Zm2.685,0a3.953,3.953,0,0,0,3.885,4.275A3.433,3.433,0,0,0,87.99,17.47V19h1.38V10.78H87.99v1.5a3.411,3.411,0,0,0-3.06-1.635A3.9,3.9,0,0,0,81.03,14.86Zm6.96.015a2.8,2.8,0,1,1-5.565-.015A2.775,2.775,0,0,1,85.2,11.83,2.816,2.816,0,0,1,87.99,14.875Zm3.18,0a3.915,3.915,0,0,0,4.005,4.26A3.656,3.656,0,0,0,98.97,16.36H97.5a2.205,2.205,0,0,1-2.325,1.62c-1.5,0-2.61-1.065-2.61-3.1,0-2.01,1.11-3.075,2.61-3.075A2.239,2.239,0,0,1,97.5,13.42h1.47a3.572,3.572,0,0,0-3.795-2.775A3.905,3.905,0,0,0,91.17,14.875ZM100.785,19h1.365V15.37L105.375,19h1.86l-3.885-4.125,3.87-4.095h-1.9l-3.165,3.645V7.9h-1.365Zm17.745,0h1.35V14.155a3.189,3.189,0,0,0-3.36-3.525,3.037,3.037,0,0,0-2.64,1.32V10.78h-1.365V19h1.365V14.455c0-1.77.96-2.64,2.355-2.64s2.295.855,2.295,2.535Zm11.385-4.125a4.156,4.156,0,1,0-8.31,0,3.991,3.991,0,0,0,4.1,4.26A4.076,4.076,0,0,0,129.915,14.875Zm-6.915,0a2.725,2.725,0,0,1,2.745-3.045,2.762,2.762,0,0,1,2.775,3.045,2.791,2.791,0,0,1-2.82,3.06C124.275,17.935,123,16.96,123,14.875ZM133.32,19h1.41l1.98-6.525L138.69,19h1.41l2.565-8.22h-1.35l-1.86,6.915-2-6.915h-1.395l-2.04,6.9-1.89-6.9h-1.4Zm10.1-7.575h1.29A1.791,1.791,0,0,1,146.7,9.55a1.839,1.839,0,0,1,2,1.95c0,1.815-1.455,2.145-3.165,2.145H145.1l.06,2.37h1.185l.045-1.425c2.1,0,3.615-.9,3.615-3.09a3.016,3.016,0,0,0-3.315-3.09A2.963,2.963,0,0,0,143.415,11.425Zm3.225,6.735a.915.915,0,1,0-.9.93A.91.91,0,0,0,146.64,18.16Z" transform="translate(70.643 82.639)" fill="#0f72ee"/><path d="M1.125,0h1.71V-7.14L6.03,0H7.215L10.4-7.14V0H12.1V-10.425h-1.83L6.63-2.25,2.97-10.425H1.125Zm12.66-4.17A4,4,0,0,0,17.655.135a3.557,3.557,0,0,0,2.9-1.365V0h1.725V-8.265H20.55v1.2A3.518,3.518,0,0,0,17.685-8.4,3.934,3.934,0,0,0,13.785-4.17Zm6.765.03a2.568,2.568,0,0,1-2.5,2.79A2.6,2.6,0,0,1,15.54-4.17a2.536,2.536,0,0,1,2.505-2.745A2.563,2.563,0,0,1,20.55-4.14Zm7.23,2.175-2.325-6.3H23.55l3.255,8.13-1.68,4.02H26.9l5.07-12.15h-1.77Zm7.185-5.07V-11.1h-1.71V0h1.71V-1.2A3.513,3.513,0,0,0,37.845.135,3.989,3.989,0,0,0,41.73-4.17,3.914,3.914,0,0,0,37.845-8.4,3.533,3.533,0,0,0,34.965-7.035ZM39.99-4.17a2.606,2.606,0,0,1-2.52,2.82,2.576,2.576,0,0,1-2.505-2.79A2.572,2.572,0,0,1,37.47-6.915,2.538,2.538,0,0,1,39.99-4.17ZM46.9-6.96a2.146,2.146,0,0,1,2.31,2.085H44.64A2.251,2.251,0,0,1,46.9-6.96Zm3.87,4.5H48.93A2,2,0,0,1,46.98-1.3a2.274,2.274,0,0,1-2.355-2.19H50.94a5.275,5.275,0,0,0,.06-.84A3.854,3.854,0,0,0,46.98-8.4a3.958,3.958,0,0,0-4.125,4.26A4.01,4.01,0,0,0,46.98.135,3.777,3.777,0,0,0,50.775-2.46ZM56.58,0h1.71V-11.1H56.58Zm3.39-4.17A4,4,0,0,0,63.84.135a3.557,3.557,0,0,0,2.9-1.365V0H68.46V-8.265H66.735v1.2A3.518,3.518,0,0,0,63.87-8.4,3.934,3.934,0,0,0,59.97-4.17Zm6.765.03a2.568,2.568,0,0,1-2.5,2.79,2.6,2.6,0,0,1-2.505-2.82A2.536,2.536,0,0,1,64.23-6.915,2.563,2.563,0,0,1,66.735-4.14ZM70.98-2.3c0,1.68.915,2.3,2.385,2.3h1.35V-1.425h-1.05c-.72,0-.96-.255-.96-.87V-6.87h2.01v-1.4h-2.01V-10.32H70.98v2.055H70v1.4h.975ZM79.77-6.96a2.146,2.146,0,0,1,2.31,2.085H77.505A2.251,2.251,0,0,1,79.77-6.96Zm3.87,4.5H81.795A2,2,0,0,1,79.845-1.3a2.274,2.274,0,0,1-2.355-2.19h6.315a5.275,5.275,0,0,0,.06-.84A3.854,3.854,0,0,0,79.845-8.4,3.958,3.958,0,0,0,75.72-4.14,4.01,4.01,0,0,0,79.845.135,3.777,3.777,0,0,0,83.64-2.46Zm3.615-1.89c0-1.755.78-2.28,2.04-2.28h.435V-8.4a2.692,2.692,0,0,0-2.475,1.335v-1.2h-1.71V0h1.71Z" transform="translate(155.643 154.639)" fill="#0f72ee"/><g transform="translate(8.68 33.677)"><rect width="36" height="36" rx="2" transform="translate(11.963 8.961)" fill="#0f72ee"/><g transform="translate(17.974 17.588)"><path d="M402.468,350.638a4.734,4.734,0,1,1,4.712-4.735v1h-7.236a2.707,2.707,0,0,0,4.247,1.1l.183-.153,1.537,1.3-.234.222A4.684,4.684,0,0,1,402.468,350.638Zm2.523-5.741a2.708,2.708,0,0,0-5.046,0Z" transform="translate(-394.9 -338.296)" fill="#fff"/><path d="M702.884,350.493a4.74,4.74,0,1,1,4.712-4.736v1h-7.234a2.707,2.707,0,0,0,4.247,1.1l.184-.153,1.537,1.3-.237.222A4.681,4.681,0,0,1,702.884,350.493Zm2.523-5.741a2.709,2.709,0,0,0-5.045,0Z" transform="translate(-685.241 -338.15)" fill="#fff"/><path d="M313.582,274.184a1.145,1.145,0,0,1-1.142-1.148v-9.588a7.6,7.6,0,0,1,7.568-7.606h10.076a7.606,7.606,0,0,1,0,15.212h-9.871a.568.568,0,0,0-.256.06l-5.862,2.942a1.129,1.129,0,0,1-.514.126Zm6.426-16.333a5.589,5.589,0,0,0-5.569,5.6v8.193l4.622-2.323a2.57,2.57,0,0,1,1.153-.273h9.871a5.6,5.6,0,0,0,0-11.194Z" transform="translate(-312.44 -255.842)" fill="#fff"/></g></g></g></svg>