<svg xmlns="http://www.w3.org/2000/svg" xmlns:xlink="http://www.w3.org/1999/xlink" width="401" height="281" viewBox="0 0 401 281"><defs><filter id="a" x="0" y="0" width="401" height="281" filterUnits="userSpaceOnUse"><feOffset dy="6" input="SourceAlpha"/><feGaussianBlur stdDeviation="21" result="b"/><feFlood flood-opacity="0.161"/><feComposite operator="in" in2="b"/><feComposite in="SourceGraphic"/></filter></defs><g transform="translate(63.357 39.362)"><g transform="matrix(1, 0, 0, 1, -63.36, -39.36)" filter="url(#a)"><rect width="275" height="155" rx="16" transform="translate(63 57)" fill="#fff"/></g><path d="M4.41-10.455H1.155V0H4.41C7.845,0,9.96-1.965,9.96-5.2S7.845-10.455,4.41-10.455ZM2.52-1.125v-8.22H4.41A3.771,3.771,0,0,1,8.565-5.2c0,2.55-1.425,4.08-4.155,4.08Zm17.04-3A4.012,4.012,0,0,0,15.4-8.355a4.02,4.02,0,0,0-4.155,4.23A3.991,3.991,0,0,0,15.345.135,4.076,4.076,0,0,0,19.56-4.125Zm-6.915,0A2.725,2.725,0,0,1,15.39-7.17a2.762,2.762,0,0,1,2.775,3.045,2.791,2.791,0,0,1-2.82,3.06C13.92-1.065,12.645-2.04,12.645-4.125ZM28.485-1.56,25.9-8.22H24.39L27.7-.09l-1.62,3.96h1.41l4.95-12.09h-1.41ZM41.61-4.125a4.012,4.012,0,0,0-4.155-4.23A4.02,4.02,0,0,0,33.3-4.125,3.991,3.991,0,0,0,37.4.135,4.076,4.076,0,0,0,41.61-4.125Zm-6.915,0A2.725,2.725,0,0,1,37.44-7.17a2.762,2.762,0,0,1,2.775,3.045,2.791,2.791,0,0,1-2.82,3.06C35.97-1.065,34.695-2.04,34.695-4.125ZM50.7-8.22H49.335V-3.7c0,1.77-.945,2.64-2.355,2.64a2.2,2.2,0,0,1-2.295-2.52V-8.22h-1.35V-3.4A3.207,3.207,0,0,0,46.71.12a3.022,3.022,0,0,0,2.625-1.335V0H50.7ZM57.015,0H58.38V-4.545c0-1.77.96-2.64,2.355-2.64S63.03-6.33,63.03-4.65V0h1.35V-4.845A3.171,3.171,0,0,0,61.1-8.37,3.093,3.093,0,0,0,58.38-7.035V-11.1H57.015ZM66.1-4.14A3.953,3.953,0,0,0,69.99.135,3.433,3.433,0,0,0,73.065-1.53V0h1.38V-8.22h-1.38v1.5A3.411,3.411,0,0,0,70-8.355,3.9,3.9,0,0,0,66.1-4.14Zm6.96.015a2.813,2.813,0,0,1-2.79,3.06A2.815,2.815,0,0,1,67.5-4.14a2.775,2.775,0,0,1,2.775-3.03A2.816,2.816,0,0,1,73.065-4.125ZM75.78-8.22,79,0H80.6L83.82-8.22H82.365l-2.55,6.96L77.25-8.22ZM88.665-7.2a2.412,2.412,0,0,1,2.6,2.49H86.07A2.546,2.546,0,0,1,88.665-7.2ZM92.5-2.535h-1.47a2.259,2.259,0,0,1-2.31,1.515,2.584,2.584,0,0,1-2.67-2.58h6.57a7.4,7.4,0,0,0,.045-.825,3.768,3.768,0,0,0-3.945-3.93,3.911,3.911,0,0,0-4.065,4.23A3.96,3.96,0,0,0,88.725.135,3.7,3.7,0,0,0,92.5-2.535ZM101.97-7.2a2.412,2.412,0,0,1,2.6,2.49h-5.19A2.546,2.546,0,0,1,101.97-7.2Zm3.84,4.665h-1.47a2.259,2.259,0,0,1-2.31,1.515A2.584,2.584,0,0,1,99.36-3.6h6.57a7.4,7.4,0,0,0,.045-.825,3.768,3.768,0,0,0-3.945-3.93,3.911,3.911,0,0,0-4.065,4.23A3.96,3.96,0,0,0,102.03.135,3.7,3.7,0,0,0,105.81-2.535ZM113.79,0h1.35V-4.845a3.189,3.189,0,0,0-3.36-3.525,3.037,3.037,0,0,0-2.64,1.32V-8.22h-1.365V0h1.365V-4.545c0-1.77.96-2.64,2.355-2.64s2.295.855,2.295,2.535Zm11.385-4.125a4.012,4.012,0,0,0-4.155-4.23,4.02,4.02,0,0,0-4.155,4.23,3.991,3.991,0,0,0,4.1,4.26A4.076,4.076,0,0,0,125.175-4.125Zm-6.915,0a2.725,2.725,0,0,1,2.745-3.045,2.762,2.762,0,0,1,2.775,3.045,2.791,2.791,0,0,1-2.82,3.06C119.535-1.065,118.26-2.04,118.26-4.125Zm16-4.095H132.9V-3.7c0,1.77-.945,2.64-2.355,2.64a2.2,2.2,0,0,1-2.295-2.52V-8.22H126.9V-3.4A3.207,3.207,0,0,0,130.275.12,3.022,3.022,0,0,0,132.9-1.215V0h1.365Zm1.8,4.08a3.956,3.956,0,0,0,3.9,4.275,3.435,3.435,0,0,0,3.06-1.68V.18a2.44,2.44,0,0,1-2.55,2.685A2.552,2.552,0,0,1,137.85,1.2H136.5c.27,1.755,1.815,2.85,3.975,2.85A3.685,3.685,0,0,0,144.4.18v-8.4h-1.38v1.5a3.388,3.388,0,0,0-3.06-1.635A3.9,3.9,0,0,0,136.065-4.14Zm6.96.015a2.813,2.813,0,0,1-2.79,3.06A2.815,2.815,0,0,1,137.46-4.14a2.775,2.775,0,0,1,2.775-3.03A2.816,2.816,0,0,1,143.025-4.125ZM146.715,0h1.365V-4.545c0-1.77.96-2.64,2.355-2.64s2.295.855,2.295,2.535V0h1.35V-4.845a3.171,3.171,0,0,0-3.285-3.525,3.093,3.093,0,0,0-2.715,1.335V-11.1h-1.365ZM2.52,14.53c0-1.9.99-2.49,2.3-2.49h.36V10.63A2.768,2.768,0,0,0,2.52,12.115V10.78H1.155V19H2.52Zm7.725-2.73a2.412,2.412,0,0,1,2.6,2.49H7.65A2.546,2.546,0,0,1,10.245,11.8Zm3.84,4.665h-1.47a2.259,2.259,0,0,1-2.31,1.515,2.584,2.584,0,0,1-2.67-2.58H14.2a7.4,7.4,0,0,0,.045-.825,3.768,3.768,0,0,0-3.945-3.93,3.911,3.911,0,0,0-4.065,4.23,3.96,3.96,0,0,0,4.065,4.26A3.7,3.7,0,0,0,14.085,16.465Zm7.875.3c-.06-2.94-4.83-1.875-4.83-3.825,0-.66.6-1.14,1.6-1.14a1.581,1.581,0,0,1,1.785,1.425h1.365c-.09-1.605-1.29-2.58-3.1-2.58s-3.015,1.035-3.015,2.295c0,3.06,4.86,1.995,4.86,3.825,0,.675-.6,1.215-1.68,1.215-1.155,0-1.86-.6-1.935-1.4H15.6c.09,1.5,1.44,2.55,3.36,2.55C20.775,19.135,21.96,18.115,21.96,16.765Zm9.72-1.89a4.012,4.012,0,0,0-4.155-4.23,4.02,4.02,0,0,0-4.155,4.23,3.991,3.991,0,0,0,4.095,4.26A4.076,4.076,0,0,0,31.68,14.875Zm-6.915,0A2.725,2.725,0,0,1,27.51,11.83a2.762,2.762,0,0,1,2.775,3.045,2.791,2.791,0,0,1-2.82,3.06C26.04,17.935,24.765,16.96,24.765,14.875Zm16-4.095H39.4V15.3c0,1.77-.945,2.64-2.355,2.64a2.2,2.2,0,0,1-2.295-2.52V10.78H33.4V15.6A3.207,3.207,0,0,0,36.78,19.12,3.022,3.022,0,0,0,39.4,17.785V19H40.77Zm3.675,3.75c0-1.9.99-2.49,2.295-2.49h.36V10.63a2.768,2.768,0,0,0-2.655,1.485V10.78H43.08V19h1.365Zm3.72.345a3.915,3.915,0,0,0,4.005,4.26,3.656,3.656,0,0,0,3.795-2.775h-1.47a2.205,2.205,0,0,1-2.325,1.62c-1.5,0-2.61-1.065-2.61-3.1,0-2.01,1.11-3.075,2.61-3.075a2.239,2.239,0,0,1,2.325,1.62h1.47a3.572,3.572,0,0,0-3.795-2.775A3.905,3.905,0,0,0,48.165,14.875ZM61.275,11.8a2.412,2.412,0,0,1,2.595,2.49H58.68A2.546,2.546,0,0,1,61.275,11.8Zm3.84,4.665h-1.47a2.259,2.259,0,0,1-2.31,1.515,2.584,2.584,0,0,1-2.67-2.58h6.57a7.4,7.4,0,0,0,.045-.825,3.768,3.768,0,0,0-3.945-3.93,3.911,3.911,0,0,0-4.065,4.23,3.96,3.96,0,0,0,4.065,4.26A3.7,3.7,0,0,0,65.115,16.465Zm7.875.3c-.06-2.94-4.83-1.875-4.83-3.825,0-.66.6-1.14,1.6-1.14a1.581,1.581,0,0,1,1.785,1.425h1.365c-.09-1.605-1.29-2.58-3.1-2.58-1.83,0-3.015,1.035-3.015,2.295,0,3.06,4.86,1.995,4.86,3.825,0,.675-.6,1.215-1.68,1.215-1.155,0-1.86-.6-1.935-1.4H66.63c.09,1.5,1.44,2.55,3.36,2.55C71.805,19.135,72.99,18.115,72.99,16.765Zm6.225-.015c0,1.65.825,2.25,2.28,2.25h1.23V17.845H81.72c-.84,0-1.14-.285-1.14-1.095V11.905h2.145V10.78H80.58V8.71H79.215v2.07H78.15v1.125h1.065Zm12.96-1.875a4.156,4.156,0,1,0-8.31,0,3.991,3.991,0,0,0,4.1,4.26A4.076,4.076,0,0,0,92.175,14.875Zm-6.915,0a2.725,2.725,0,0,1,2.745-3.045,2.762,2.762,0,0,1,2.775,3.045,2.791,2.791,0,0,1-2.82,3.06C86.535,17.935,85.26,16.96,85.26,14.875Zm14.835,4.14L101.61,19l2.52-8.415L106.56,19h1.53l3.03-10.455h-1.47l-2.295,8.835-2.4-8.835h-1.53L100.9,17.41l-2.28-8.865H97.17ZM112.62,19h1.365V14.29h3.69V13.18h-3.69V9.655h4.545V8.545h-5.91Zm14.25,0h1.365V8.545H126.87v4.59h-5.325V8.545H120.18V19h1.365V14.26h5.325Zm3.075-7.575h1.29A1.791,1.791,0,0,1,133.23,9.55a1.839,1.839,0,0,1,2,1.95c0,1.815-1.455,2.145-3.165,2.145h-.435l.06,2.37h1.185l.045-1.425c2.1,0,3.615-.9,3.615-3.09a3.016,3.016,0,0,0-3.315-3.09A2.963,2.963,0,0,0,129.945,11.425Zm3.225,6.735a.915.915,0,1,0-.9.93A.91.91,0,0,0,133.17,18.16Z" transform="translate(70.644 82.638)" fill="#0f72ee"/><path d="M1.035-10.47V0h5.55V-1.665H3.135V-10.47ZM11.49-6.72a1.846,1.846,0,0,1,1.98,1.785H9.525A1.93,1.93,0,0,1,11.49-6.72Zm3.945,4.11H13.17a1.712,1.712,0,0,1-1.665,1A1.944,1.944,0,0,1,9.51-3.525h6.075a4.908,4.908,0,0,0,.06-.81,3.9,3.9,0,0,0-4.1-4.11,3.993,3.993,0,0,0-4.17,4.29A4.025,4.025,0,0,0,11.55.135,3.862,3.862,0,0,0,15.435-2.61Zm5.31-4.11a1.846,1.846,0,0,1,1.98,1.785H18.78A1.93,1.93,0,0,1,20.745-6.72ZM24.69-2.61H22.425a1.712,1.712,0,0,1-1.665,1,1.944,1.944,0,0,1-1.995-1.92H24.84a4.909,4.909,0,0,0,.06-.81,3.9,3.9,0,0,0-4.095-4.11,3.993,3.993,0,0,0-4.17,4.29,4.025,4.025,0,0,0,4.17,4.29A3.862,3.862,0,0,0,24.69-2.61ZM32.25,0h2.1V-4.875c0-2.295-1.38-3.555-3.315-3.555a3.1,3.1,0,0,0-2.5,1.155V-8.31h-2.1V0h2.1V-4.59a1.8,1.8,0,0,1,1.875-2.055A1.8,1.8,0,0,1,32.25-4.59Zm3.555-4.185c0,2.6,1.68,4.32,3.78,4.32a3.277,3.277,0,0,0,2.76-1.35V0H44.46V-8.31H42.345v1.185A3.286,3.286,0,0,0,39.6-8.445C37.485-8.445,35.805-6.78,35.805-4.185Zm6.54.03A2.237,2.237,0,0,1,40.14-1.71a2.271,2.271,0,0,1-2.19-2.475A2.216,2.216,0,0,1,40.14-6.6,2.237,2.237,0,0,1,42.345-4.155ZM57.195,0h2.22L55.65-10.485H53.2L49.44,0h2.205l.69-2H56.5Zm-1.26-3.675H52.9l1.515-4.38ZM60.825,0h2.1V-10.47h-2.1Z" transform="translate(70.644 55.638)" fill="#0f72ee"/><path d="M.51-.08H5.32V-.84H1.88C3.17-1.89,5.11-3.42,5.11-5.22A2.034,2.034,0,0,0,2.87-7.36,2.215,2.215,0,0,0,.54-5.02h.88A1.429,1.429,0,0,1,2.88-6.58a1.221,1.221,0,0,1,1.33,1.4c0,1.48-1.8,2.92-3.7,4.45Zm6.9-.48a.606.606,0,0,0-.6-.62.611.611,0,0,0-.62.62.611.611,0,0,0,.62.62A.606.606,0,0,0,7.41-.56Zm0-4.28a.606.606,0,0,0-.6-.62.611.611,0,0,0-.62.62.611.611,0,0,0,.62.62A.606.606,0,0,0,7.41-4.84ZM8.39-.08H13.2V-.84H9.76c1.29-1.05,3.23-2.58,3.23-4.38a2.034,2.034,0,0,0-2.24-2.14A2.215,2.215,0,0,0,8.42-5.02H9.3a1.429,1.429,0,0,1,1.46-1.56,1.221,1.221,0,0,1,1.33,1.4c0,1.48-1.8,2.92-3.7,4.45ZM17.73,0h.9V-1.61h1V-2.4h-1V-7.16H17.54L14.03-2.3v.69h3.7ZM15.08-2.4l2.69-3.81V-2.4Zm9.19-1.26V-6.22h1.34c1.04,0,1.48.48,1.48,1.29,0,.78-.44,1.27-1.48,1.27Zm3.75-1.27c0-1.14-.77-2.04-2.41-2.04H23.36V0h.91V-2.91h1.34C27.34-2.91,28.02-3.87,28.02-4.93ZM29.15,0h.91V-5.17L32.37,0h.64l2.3-5.16V0h.91V-6.92h-.97L32.69-1.2,30.13-6.92h-.98Z" transform="translate(142.643 55.341)" fill="#0f72ee"/><line x2="275.5" transform="translate(-0.356 128.638)" fill="none" stroke="#0f72ee" stroke-width="1" opacity="0.2"/><line y2="44" transform="translate(142.644 128.638)" fill="none" stroke="#0f72ee" stroke-width="1" opacity="0.2"/><path d="M3.69-3.78V0H5.4V-3.78l3.45-6.645H6.96L4.545-5.31,2.13-10.425H.225Zm9.99-3.18a2.146,2.146,0,0,1,2.31,2.085H11.415A2.251,2.251,0,0,1,13.68-6.96Zm3.87,4.5H15.7A2,2,0,0,1,13.755-1.3,2.274,2.274,0,0,1,11.4-3.495h6.315a5.275,5.275,0,0,0,.06-.84A3.854,3.854,0,0,0,13.755-8.4,3.958,3.958,0,0,0,9.63-4.14,4.01,4.01,0,0,0,13.755.135,3.777,3.777,0,0,0,17.55-2.46Zm8.07.15c-.09-2.985-4.755-2.055-4.755-3.72,0-.555.48-.93,1.4-.93a1.367,1.367,0,0,1,1.545,1.215h1.71c-.09-1.65-1.32-2.655-3.195-2.655-1.95,0-3.18,1.065-3.18,2.385,0,3.03,4.8,2.1,4.8,3.72,0,.57-.525.99-1.515.99a1.508,1.508,0,0,1-1.65-1.23H19c.075,1.5,1.47,2.67,3.45,2.67C24.4.135,25.62-.915,25.62-2.31Z" transform="translate(41.644 154.638)" fill="#0f72ee"/><path d="M7.98-10.44v7.77L2.835-10.44H1.125V0h1.71V-7.785L7.98,0H9.69V-10.44Zm11.835,6.3A4.076,4.076,0,0,0,15.6-8.4a4.076,4.076,0,0,0-4.215,4.26A4.03,4.03,0,0,0,15.525.135,4.14,4.14,0,0,0,19.815-4.14Zm-6.69,0A2.462,2.462,0,0,1,15.57-6.915,2.5,2.5,0,0,1,18.06-4.14a2.546,2.546,0,0,1-2.535,2.79C14.235-1.35,13.125-2.265,13.125-4.14Z" transform="translate(196.644 154.638)" fill="#0f72ee"/><g transform="translate(8.68 33.677)"><rect width="36" height="36" rx="2" transform="translate(11.963 8.961)" fill="#0f72ee"/><g transform="translate(17.974 17.588)"><path d="M402.468,350.638a4.734,4.734,0,1,1,4.712-4.735v1h-7.236a2.707,2.707,0,0,0,4.247,1.1l.183-.153,1.537,1.3-.234.222A4.684,4.684,0,0,1,402.468,350.638Zm2.523-5.741a2.708,2.708,0,0,0-5.046,0Z" transform="translate(-394.9 -338.296)" fill="#fff"/><path d="M702.884,350.493a4.74,4.74,0,1,1,4.712-4.736v1h-7.234a2.707,2.707,0,0,0,4.247,1.1l.184-.153,1.537,1.3-.237.222A4.681,4.681,0,0,1,702.884,350.493Zm2.523-5.741a2.709,2.709,0,0,0-5.045,0Z" transform="translate(-685.241 -338.15)" fill="#fff"/><path d="M313.582,274.184a1.145,1.145,0,0,1-1.142-1.148v-9.588a7.6,7.6,0,0,1,7.568-7.606h10.076a7.606,7.606,0,0,1,0,15.212h-9.871a.568.568,0,0,0-.256.06l-5.862,2.942a1.129,1.129,0,0,1-.514.126Zm6.426-16.333a5.589,5.589,0,0,0-5.569,5.6v8.193l4.622-2.323a2.57,2.57,0,0,1,1.153-.273h9.871a5.6,5.6,0,0,0,0-11.194Z" transform="translate(-312.44 -255.842)" fill="#fff"/></g></g></g></svg>