<svg xmlns="http://www.w3.org/2000/svg" xmlns:xlink="http://www.w3.org/1999/xlink" width="429" height="161" viewBox="0 0 429 161"><defs><filter id="a" x="0" y="0" width="429" height="161" filterUnits="userSpaceOnUse"><feOffset dy="16" input="SourceAlpha"/><feGaussianBlur stdDeviation="12" result="b"/><feFlood flood-opacity="0.161"/><feComposite operator="in" in2="b"/><feComposite in="SourceGraphic"/></filter></defs><g transform="translate(36.357 -50.639)"><g transform="matrix(1, 0, 0, 1, -36.36, 50.64)" filter="url(#a)"><rect width="357" height="89" rx="16" transform="translate(36 20)" fill="#fff"/></g><path d="M4.53-10.425h-3.4V0h3.4c3.345,0,5.535-1.965,5.535-5.175S7.875-10.425,4.53-10.425ZM2.835-1.395V-9.03H4.53c2.46,0,3.78,1.47,3.78,3.855a3.429,3.429,0,0,1-3.78,3.78Zm16.8-2.745A4.076,4.076,0,0,0,15.42-8.4,4.076,4.076,0,0,0,11.2-4.14,4.03,4.03,0,0,0,15.345.135,4.14,4.14,0,0,0,19.635-4.14Zm-6.69,0A2.462,2.462,0,0,1,15.39-6.915,2.5,2.5,0,0,1,17.88-4.14a2.546,2.546,0,0,1-2.535,2.79C14.055-1.35,12.945-2.265,12.945-4.14Zm15.54,2.175-2.325-6.3H24.255L27.51-.135l-1.68,4.02H27.6l5.07-12.15H30.9ZM41.835-4.14A4.076,4.076,0,0,0,37.62-8.4,4.076,4.076,0,0,0,33.4-4.14,4.03,4.03,0,0,0,37.545.135,4.14,4.14,0,0,0,41.835-4.14Zm-6.69,0A2.462,2.462,0,0,1,37.59-6.915,2.5,2.5,0,0,1,40.08-4.14a2.546,2.546,0,0,1-2.535,2.79C36.255-1.35,35.145-2.265,35.145-4.14Zm15.87-4.125h-1.71V-3.66a2,2,0,0,1-2.085,2.3c-1.245,0-2.07-.78-2.07-2.3V-8.265H43.455V-3.4A3.23,3.23,0,0,0,46.86.12,3.076,3.076,0,0,0,49.305-.99V0h1.71ZM57.165,0h1.71V-4.62a2,2,0,0,1,2.085-2.3c1.245,0,2.07.78,2.07,2.3V0h1.695V-4.875A3.187,3.187,0,0,0,61.44-8.4,3.276,3.276,0,0,0,58.875-7.3v-3.8h-1.71ZM66.33-4.17A4,4,0,0,0,70.2.135,3.557,3.557,0,0,0,73.1-1.23V0H74.82V-8.265H73.1v1.2A3.518,3.518,0,0,0,70.23-8.4,3.934,3.934,0,0,0,66.33-4.17Zm6.765.03a2.568,2.568,0,0,1-2.5,2.79,2.6,2.6,0,0,1-2.505-2.82A2.536,2.536,0,0,1,70.59-6.915,2.563,2.563,0,0,1,73.1-4.14Zm3-4.125L79.23,0h2.04l3.15-8.265H82.6L80.265-1.53l-2.34-6.735ZM89.19-6.96A2.146,2.146,0,0,1,91.5-4.875H86.925A2.251,2.251,0,0,1,89.19-6.96Zm3.87,4.5H91.215A2,2,0,0,1,89.265-1.3a2.274,2.274,0,0,1-2.355-2.19h6.315a5.275,5.275,0,0,0,.06-.84A3.854,3.854,0,0,0,89.265-8.4,3.958,3.958,0,0,0,85.14-4.14,4.01,4.01,0,0,0,89.265.135,3.777,3.777,0,0,0,93.06-2.46Zm5.235-1.71a4,4,0,0,0,3.87,4.305A3.557,3.557,0,0,0,105.06-1.23V0h1.725V-8.265H105.06v1.2A3.518,3.518,0,0,0,102.195-8.4,3.934,3.934,0,0,0,98.295-4.17Zm6.765.03a2.568,2.568,0,0,1-2.5,2.79,2.6,2.6,0,0,1-2.505-2.82,2.536,2.536,0,0,1,2.505-2.745A2.563,2.563,0,0,1,105.06-4.14Zm3.405-.03a4,4,0,0,0,3.9,4.305,3.427,3.427,0,0,0,2.865-1.38V0h1.725V-11.1H115.23v3.99a3.807,3.807,0,0,0-2.85-1.29A3.937,3.937,0,0,0,108.465-4.17Zm6.765.03a2.568,2.568,0,0,1-2.5,2.79,2.6,2.6,0,0,1-2.505-2.82,2.536,2.536,0,0,1,2.505-2.745A2.563,2.563,0,0,1,115.23-4.14Zm7.455-2.82A2.146,2.146,0,0,1,125-4.875H120.42A2.251,2.251,0,0,1,122.685-6.96Zm3.87,4.5H124.71A2,2,0,0,1,122.76-1.3a2.274,2.274,0,0,1-2.355-2.19h6.315a5.275,5.275,0,0,0,.06-.84A3.854,3.854,0,0,0,122.76-8.4a3.958,3.958,0,0,0-4.125,4.26A4.01,4.01,0,0,0,122.76.135,3.777,3.777,0,0,0,126.555-2.46Zm1.335-1.71A3.993,3.993,0,0,0,131.745.135a3.657,3.657,0,0,0,2.91-1.335V3.93h1.725v-12.2h-1.725v1.2A3.486,3.486,0,0,0,131.8-8.4,3.937,3.937,0,0,0,127.89-4.17Zm6.765.03a2.568,2.568,0,0,1-2.505,2.79,2.6,2.6,0,0,1-2.5-2.82,2.536,2.536,0,0,1,2.5-2.745A2.563,2.563,0,0,1,134.655-4.14Zm11.46-4.125H144.4V-3.66a2,2,0,0,1-2.085,2.3c-1.245,0-2.07-.78-2.07-2.3V-8.265h-1.695V-3.4A3.23,3.23,0,0,0,141.96.12,3.076,3.076,0,0,0,144.4-.99V0h1.71Zm1.68,4.1a4,4,0,0,0,3.87,4.305,3.557,3.557,0,0,0,2.9-1.365V0h1.725V-8.265H154.56v1.2A3.518,3.518,0,0,0,151.7-8.4,3.934,3.934,0,0,0,147.795-4.17Zm6.765.03a2.568,2.568,0,0,1-2.505,2.79,2.6,2.6,0,0,1-2.505-2.82,2.536,2.536,0,0,1,2.505-2.745A2.563,2.563,0,0,1,154.56-4.14ZM158.805-2.3c0,1.68.915,2.3,2.385,2.3h1.35V-1.425h-1.05c-.72,0-.96-.255-.96-.87V-6.87h2.01v-1.4h-2.01V-10.32h-1.725v2.055h-.975v1.4h.975ZM167.6-6.96a2.146,2.146,0,0,1,2.31,2.085H165.33A2.251,2.251,0,0,1,167.6-6.96Zm3.87,4.5H169.62A2,2,0,0,1,167.67-1.3a2.274,2.274,0,0,1-2.355-2.19h6.315a5.275,5.275,0,0,0,.06-.84A3.854,3.854,0,0,0,167.67-8.4a3.958,3.958,0,0,0-4.125,4.26A4.01,4.01,0,0,0,167.67.135,3.777,3.777,0,0,0,171.465-2.46Zm6.075.165c0,1.68.915,2.3,2.385,2.3h1.35V-1.425h-1.05c-.72,0-.96-.255-.96-.87V-6.87h2.01v-1.4h-2.01V-10.32H177.54v2.055h-.975v1.4h.975ZM190.725-4.14A4.076,4.076,0,0,0,186.51-8.4,4.076,4.076,0,0,0,182.3-4.14a4.03,4.03,0,0,0,4.14,4.275A4.14,4.14,0,0,0,190.725-4.14Zm-6.69,0a2.462,2.462,0,0,1,2.445-2.775,2.5,2.5,0,0,1,2.49,2.775,2.546,2.546,0,0,1-2.535,2.79C185.145-1.35,184.035-2.265,184.035-4.14Zm16.26,0A4.076,4.076,0,0,0,196.08-8.4a4.076,4.076,0,0,0-4.215,4.26,4.03,4.03,0,0,0,4.14,4.275A4.14,4.14,0,0,0,200.295-4.14Zm-6.69,0a2.462,2.462,0,0,1,2.445-2.775,2.5,2.5,0,0,1,2.49,2.775,2.546,2.546,0,0,1-2.535,2.79C194.715-1.35,193.6-2.265,193.6-4.14ZM201.99,0h1.71V-11.1h-1.71Zm10.125-2.31c-.09-2.985-4.755-2.055-4.755-3.72,0-.555.48-.93,1.395-.93A1.367,1.367,0,0,1,210.3-5.745h1.71c-.09-1.65-1.32-2.655-3.195-2.655-1.95,0-3.18,1.065-3.18,2.385,0,3.03,4.8,2.1,4.8,3.72,0,.57-.525.99-1.515.99a1.508,1.508,0,0,1-1.65-1.23H205.5c.075,1.5,1.47,2.67,3.45,2.67C210.9.135,212.115-.915,212.115-2.31ZM.555,14.83a4,4,0,0,0,3.87,4.305,3.557,3.557,0,0,0,2.9-1.365V19H9.045V10.735H7.32v1.2A3.518,3.518,0,0,0,4.455,10.6,3.934,3.934,0,0,0,.555,14.83Zm6.765.03a2.568,2.568,0,0,1-2.505,2.79A2.6,2.6,0,0,1,2.31,14.83a2.536,2.536,0,0,1,2.505-2.745A2.563,2.563,0,0,1,7.32,14.86ZM17.16,19h1.695V14.125a3.219,3.219,0,0,0-3.39-3.525,3.18,3.18,0,0,0-2.46,1.08v-.945H11.3V19h1.71V14.38a2,2,0,0,1,2.085-2.3c1.245,0,2.07.78,2.07,2.3Zm3.3-4.17a4,4,0,0,0,3.9,4.305,3.427,3.427,0,0,0,2.865-1.38V19H28.95V7.9H27.225v3.99a3.807,3.807,0,0,0-2.85-1.29A3.937,3.937,0,0,0,20.46,14.83Zm6.765.03a2.568,2.568,0,0,1-2.5,2.79,2.6,2.6,0,0,1-2.505-2.82,2.536,2.536,0,0,1,2.505-2.745A2.563,2.563,0,0,1,27.225,14.86Zm9.585-.21c0-1.755.78-2.28,2.04-2.28h.435V10.6a2.692,2.692,0,0,0-2.475,1.335v-1.2H35.1V19h1.71Zm7.53-2.61a2.146,2.146,0,0,1,2.31,2.085H42.075A2.251,2.251,0,0,1,44.34,12.04Zm3.87,4.5H46.365a2,2,0,0,1-1.95,1.155,2.274,2.274,0,0,1-2.355-2.19h6.315a5.275,5.275,0,0,0,.06-.84,3.854,3.854,0,0,0-4.02-4.065,3.958,3.958,0,0,0-4.125,4.26,4.01,4.01,0,0,0,4.125,4.275A3.777,3.777,0,0,0,48.21,16.54Zm8.07.15c-.09-2.985-4.755-2.055-4.755-3.72,0-.555.48-.93,1.4-.93a1.367,1.367,0,0,1,1.545,1.215h1.71c-.09-1.65-1.32-2.655-3.195-2.655-1.95,0-3.18,1.065-3.18,2.385,0,3.03,4.8,2.1,4.8,3.72,0,.57-.525.99-1.515.99a1.508,1.508,0,0,1-1.65-1.23h-1.77c.075,1.5,1.47,2.67,3.45,2.67C55.065,19.135,56.28,18.085,56.28,16.69ZM66,14.86a4.215,4.215,0,1,0-8.43,0,4.03,4.03,0,0,0,4.14,4.275A4.14,4.14,0,0,0,66,14.86Zm-6.69,0a2.462,2.462,0,0,1,2.445-2.775,2.5,2.5,0,0,1,2.49,2.775,2.546,2.546,0,0,1-2.535,2.79C60.42,17.65,59.31,16.735,59.31,14.86Zm15.87-4.125H73.47V15.34a2,2,0,0,1-2.085,2.3c-1.245,0-2.07-.78-2.07-2.3V10.735H67.62V15.6a3.23,3.23,0,0,0,3.4,3.525,3.076,3.076,0,0,0,2.445-1.11V19h1.71Zm3.96,3.915c0-1.755.78-2.28,2.04-2.28h.435V10.6a2.692,2.692,0,0,0-2.475,1.335v-1.2H77.43V19h1.71Zm3.48.21a3.953,3.953,0,0,0,4.05,4.275,3.712,3.712,0,0,0,3.81-2.745H88.635a1.888,1.888,0,0,1-1.965,1.305c-1.38,0-2.3-1.02-2.3-2.835s.915-2.82,2.3-2.82a1.931,1.931,0,0,1,1.965,1.3H90.48A3.6,3.6,0,0,0,86.67,10.6,3.948,3.948,0,0,0,82.62,14.86Zm13.05-2.82a2.146,2.146,0,0,1,2.31,2.085H93.4A2.251,2.251,0,0,1,95.67,12.04Zm3.87,4.5H97.695a2,2,0,0,1-1.95,1.155,2.274,2.274,0,0,1-2.355-2.19h6.315a5.275,5.275,0,0,0,.06-.84,3.854,3.854,0,0,0-4.02-4.065,3.958,3.958,0,0,0-4.125,4.26,4.01,4.01,0,0,0,4.125,4.275A3.777,3.777,0,0,0,99.54,16.54Zm8.07.15c-.09-2.985-4.755-2.055-4.755-3.72,0-.555.48-.93,1.395-.93a1.367,1.367,0,0,1,1.545,1.215h1.71c-.09-1.65-1.32-2.655-3.195-2.655-1.95,0-3.18,1.065-3.18,2.385,0,3.03,4.8,2.1,4.8,3.72,0,.57-.525.99-1.515.99a1.508,1.508,0,0,1-1.65-1.23H101c.075,1.5,1.47,2.67,3.45,2.67C106.395,19.135,107.61,18.085,107.61,16.69Zm6.015.015c0,1.68.915,2.3,2.385,2.3h1.35V17.575h-1.05c-.72,0-.96-.255-.96-.87V12.13h2.01v-1.4h-2.01V8.68h-1.725v2.055h-.975v1.4h.975ZM126.81,14.86a4.215,4.215,0,1,0-8.43,0,4.03,4.03,0,0,0,4.14,4.275A4.14,4.14,0,0,0,126.81,14.86Zm-6.69,0a2.462,2.462,0,0,1,2.445-2.775,2.5,2.5,0,0,1,2.49,2.775,2.546,2.546,0,0,1-2.535,2.79C121.23,17.65,120.12,16.735,120.12,14.86Zm14.4,4.155L136.44,19l2.325-7.89,2.19,7.89h1.935l3.09-10.425h-1.83l-2.175,8.445L139.8,8.575h-1.92l-2.34,8.49-2.16-8.49h-1.815ZM147.39,19h1.71V14.44h3.45v-1.4H149.1V9.97h4.425v-1.4H147.39Zm14.34,0h1.71V8.575h-1.71v4.47h-4.9V8.575h-1.71V19h1.71V14.44h4.9Zm3.435-7.485h1.6a1.734,1.734,0,0,1,3.465.045c0,1.575-1.3,1.875-3,1.875h-.495l.075,2.355H168.3l.06-1.185c2.01,0,3.51-.93,3.51-3.045a3.362,3.362,0,0,0-6.7-.045Zm3.45,6.5a1.088,1.088,0,1,0-1.08,1.095A1.079,1.079,0,0,0,168.615,18.01Z" transform="translate(85.644 104.638)" fill="#0f72ee"/><g transform="translate(15.36 83.926)"><circle cx="26" cy="26" r="26" transform="translate(4.283 4.415)" fill="#0f72ee"/><g transform="translate(15.894 20.1)"><path d="M403.27,352.25a5.54,5.54,0,1,1,5.515-5.542v1.173h-8.468a3.168,3.168,0,0,0,4.971,1.285l.215-.179,1.8,1.52-.274.259A5.481,5.481,0,0,1,403.27,352.25Zm2.952-6.719a3.169,3.169,0,0,0-5.905,0Z" transform="translate(-394.412 -337.806)" fill="#fff"/><path d="M703.687,352.106a5.548,5.548,0,1,1,5.515-5.543v1.176h-8.466a3.168,3.168,0,0,0,4.971,1.285l.215-.179,1.8,1.519-.277.26A5.478,5.478,0,0,1,703.687,352.106Zm2.952-6.719a3.17,3.17,0,0,0-5.9,0Z" transform="translate(-683.038 -337.662)" fill="#fff"/><path d="M313.777,277.308a1.34,1.34,0,0,1-1.337-1.344V264.744a8.891,8.891,0,0,1,8.857-8.9H333.09a8.9,8.9,0,0,1,0,17.8H321.537a.664.664,0,0,0-.3.07l-6.86,3.444a1.321,1.321,0,0,1-.6.148Zm7.52-19.115a6.542,6.542,0,0,0-6.518,6.551v9.589l5.409-2.719a3.008,3.008,0,0,1,1.349-.319H333.09a6.551,6.551,0,0,0,0-13.1Z" transform="translate(-312.44 -255.842)" fill="#fff"/></g></g><path d="M.51-.08H5.32V-.84H1.88C3.17-1.89,5.11-3.42,5.11-5.22A2.034,2.034,0,0,0,2.87-7.36,2.215,2.215,0,0,0,.54-5.02h.88A1.429,1.429,0,0,1,2.88-6.58a1.221,1.221,0,0,1,1.33,1.4c0,1.48-1.8,2.92-3.7,4.45Zm6.9-.48a.606.606,0,0,0-.6-.62.611.611,0,0,0-.62.62.611.611,0,0,0,.62.62A.606.606,0,0,0,7.41-.56Zm0-4.28a.606.606,0,0,0-.6-.62.611.611,0,0,0-.62.62.611.611,0,0,0,.62.62A.606.606,0,0,0,7.41-4.84ZM8.39-.08H13.2V-.84H9.76c1.29-1.05,3.23-2.58,3.23-4.38a2.034,2.034,0,0,0-2.24-2.14A2.215,2.215,0,0,0,8.42-5.02H9.3a1.429,1.429,0,0,1,1.46-1.56,1.221,1.221,0,0,1,1.33,1.4c0,1.48-1.8,2.92-3.7,4.45ZM17.73,0h.9V-1.61h1V-2.4h-1V-7.16H17.54L14.03-2.3v.69h3.7ZM15.08-2.4l2.69-3.81V-2.4Zm9.19-1.26V-6.22h1.34c1.04,0,1.48.48,1.48,1.29,0,.78-.44,1.27-1.48,1.27Zm3.75-1.27c0-1.14-.77-2.04-2.41-2.04H23.36V0h.91V-2.91h1.34C27.34-2.91,28.02-3.87,28.02-4.93ZM29.15,0h.91V-5.17L32.37,0h.64l2.3-5.16V0h.91V-6.92h-.97L32.69-1.2,30.13-6.92h-.98Z" transform="translate(85.643 145.341)" fill="#0f72ee"/></g></svg>