<svg xmlns="http://www.w3.org/2000/svg" xmlns:xlink="http://www.w3.org/1999/xlink" width="483" height="215" viewBox="0 0 483 215"><defs><filter id="a" x="0" y="0" width="483" height="215" filterUnits="userSpaceOnUse"><feOffset dy="6" input="SourceAlpha"/><feGaussianBlur stdDeviation="21" result="b"/><feFlood flood-opacity="0.161"/><feComposite operator="in" in2="b"/><feComposite in="SourceGraphic"/></filter></defs><g transform="translate(63.357 -13.638)"><g transform="matrix(1, 0, 0, 1, -63.36, 13.64)" filter="url(#a)"><rect width="357" height="89" rx="16" transform="translate(63 57)" fill="#fff"/></g><path d="M8.16,0h1.8L6.225-10.44H4.245L.51,0H2.3l.75-2.13H7.41ZM6.93-3.525H3.525L5.235-8.37Zm6.36-.825c0-1.755.78-2.28,2.04-2.28h.435V-8.4A2.692,2.692,0,0,0,13.29-7.065v-1.2H11.58V0h1.71Zm7.53-2.61a2.146,2.146,0,0,1,2.31,2.085H18.555A2.251,2.251,0,0,1,20.82-6.96Zm3.87,4.5H22.845A2,2,0,0,1,20.9-1.3a2.274,2.274,0,0,1-2.355-2.19h6.315a5.275,5.275,0,0,0,.06-.84A3.854,3.854,0,0,0,20.9-8.4,3.958,3.958,0,0,0,16.77-4.14,4.01,4.01,0,0,0,20.9.135,3.777,3.777,0,0,0,24.69-2.46Zm9.06.5-2.325-6.3H29.52l3.255,8.13L31.1,3.885h1.77l5.07-12.15h-1.77ZM47.1-4.14A4.076,4.076,0,0,0,42.885-8.4,4.076,4.076,0,0,0,38.67-4.14,4.03,4.03,0,0,0,42.81.135,4.14,4.14,0,0,0,47.1-4.14Zm-6.69,0a2.462,2.462,0,0,1,2.445-2.775,2.5,2.5,0,0,1,2.49,2.775A2.546,2.546,0,0,1,42.81-1.35C41.52-1.35,40.41-2.265,40.41-4.14ZM56.28-8.265H54.57V-3.66a2,2,0,0,1-2.085,2.3c-1.245,0-2.07-.78-2.07-2.3V-8.265H48.72V-3.4A3.23,3.23,0,0,0,52.125.12,3.076,3.076,0,0,0,54.57-.99V0h1.71Zm5.58,4.1A4,4,0,0,0,65.76.135a3.548,3.548,0,0,0,2.865-1.38V.135a2.2,2.2,0,0,1-2.31,2.46,2.3,2.3,0,0,1-2.355-1.44H62.265c.21,1.83,1.845,2.925,4.05,2.925A3.748,3.748,0,0,0,70.35.135v-8.4H68.625v1.2A3.5,3.5,0,0,0,65.76-8.4,3.934,3.934,0,0,0,61.86-4.17Zm6.765.03a2.568,2.568,0,0,1-2.5,2.79,2.6,2.6,0,0,1-2.505-2.82A2.536,2.536,0,0,1,66.12-6.915,2.563,2.563,0,0,1,68.625-4.14ZM76.08-6.96a2.146,2.146,0,0,1,2.31,2.085H73.815A2.251,2.251,0,0,1,76.08-6.96Zm3.87,4.5H78.1A2,2,0,0,1,76.155-1.3,2.274,2.274,0,0,1,73.8-3.495h6.315a5.275,5.275,0,0,0,.06-.84A3.854,3.854,0,0,0,76.155-8.4,3.958,3.958,0,0,0,72.03-4.14,4.01,4.01,0,0,0,76.155.135,3.777,3.777,0,0,0,79.95-2.46Zm2.175.165c0,1.68.915,2.3,2.385,2.3h1.35V-1.425H84.81c-.72,0-.96-.255-.96-.87V-6.87h2.01v-1.4H83.85V-10.32H82.125v2.055H81.15v1.4h.975Zm5.58,0c0,1.68.915,2.3,2.385,2.3h1.35V-1.425H90.39c-.72,0-.96-.255-.96-.87V-6.87h2.01v-1.4H89.43V-10.32H87.7v2.055H86.73v1.4H87.7ZM93.015,0h1.71V-8.265h-1.71Zm.87-9.36a1.079,1.079,0,0,0,1.08-1.095,1.079,1.079,0,0,0-1.08-1.095,1.082,1.082,0,0,0-1.1,1.095A1.082,1.082,0,0,0,93.885-9.36ZM102.84,0h1.695V-4.875a3.219,3.219,0,0,0-3.39-3.525,3.18,3.18,0,0,0-2.46,1.08v-.945h-1.71V0h1.71V-4.62a2,2,0,0,1,2.085-2.3c1.245,0,2.07.78,2.07,2.3Zm3.3-4.17a4,4,0,0,0,3.9,4.305,3.548,3.548,0,0,0,2.865-1.38V.135a2.2,2.2,0,0,1-2.31,2.46,2.3,2.3,0,0,1-2.355-1.44h-1.695c.21,1.83,1.845,2.925,4.05,2.925A3.748,3.748,0,0,0,114.63.135v-8.4H112.9v1.2A3.5,3.5,0,0,0,110.04-8.4,3.934,3.934,0,0,0,106.14-4.17Zm6.765.03a2.568,2.568,0,0,1-2.5,2.79,2.6,2.6,0,0,1-2.505-2.82A2.536,2.536,0,0,1,110.4-6.915,2.563,2.563,0,0,1,112.9-4.14Zm7.305,0A3.953,3.953,0,0,0,124.26.135a3.712,3.712,0,0,0,3.81-2.745h-1.845a1.888,1.888,0,0,1-1.965,1.3c-1.38,0-2.3-1.02-2.3-2.835s.915-2.82,2.3-2.82a1.931,1.931,0,0,1,1.965,1.3h1.845A3.6,3.6,0,0,0,124.26-8.4,3.948,3.948,0,0,0,120.21-4.14Zm17.445,0A4.076,4.076,0,0,0,133.44-8.4a4.076,4.076,0,0,0-4.215,4.26,4.03,4.03,0,0,0,4.14,4.275A4.14,4.14,0,0,0,137.655-4.14Zm-6.69,0a2.462,2.462,0,0,1,2.445-2.775A2.5,2.5,0,0,1,135.9-4.14a2.546,2.546,0,0,1-2.535,2.79C132.075-1.35,130.965-2.265,130.965-4.14ZM145.215,0h1.695V-4.875A3.219,3.219,0,0,0,143.52-8.4a3.18,3.18,0,0,0-2.46,1.08v-.945h-1.71V0h1.71V-4.62a2,2,0,0,1,2.085-2.3c1.245,0,2.07.78,2.07,2.3Zm4.14-2.3c0,1.68.915,2.3,2.385,2.3h1.35V-1.425h-1.05c-.72,0-.96-.255-.96-.87V-6.87h2.01v-1.4h-2.01V-10.32h-1.725v2.055h-.975v1.4h.975Zm5.31,2.3h1.71V-8.265h-1.71Zm.87-9.36a1.079,1.079,0,0,0,1.08-1.095,1.079,1.079,0,0,0-1.08-1.095,1.082,1.082,0,0,0-1.1,1.095A1.082,1.082,0,0,0,155.535-9.36ZM164.49,0h1.695V-4.875a3.219,3.219,0,0,0-3.39-3.525,3.18,3.18,0,0,0-2.46,1.08v-.945h-1.71V0h1.71V-4.62a2,2,0,0,1,2.085-2.3c1.245,0,2.07.78,2.07,2.3Zm11.355-8.265h-1.71V-3.66a2,2,0,0,1-2.085,2.3c-1.245,0-2.07-.78-2.07-2.3V-8.265h-1.695V-3.4A3.23,3.23,0,0,0,171.69.12a3.076,3.076,0,0,0,2.445-1.11V0h1.71ZM185.97-4.14a4.076,4.076,0,0,0-4.215-4.26,4.076,4.076,0,0,0-4.215,4.26A4.03,4.03,0,0,0,181.68.135,4.14,4.14,0,0,0,185.97-4.14Zm-6.69,0a2.462,2.462,0,0,1,2.445-2.775,2.5,2.5,0,0,1,2.49,2.775,2.546,2.546,0,0,1-2.535,2.79C180.39-1.35,179.28-2.265,179.28-4.14Zm15.87-4.125h-1.71V-3.66a2,2,0,0,1-2.085,2.3c-1.245,0-2.07-.78-2.07-2.3V-8.265H187.59V-3.4a3.23,3.23,0,0,0,3.4,3.525A3.076,3.076,0,0,0,193.44-.99V0h1.71Zm8.415,5.955c-.09-2.985-4.755-2.055-4.755-3.72,0-.555.48-.93,1.395-.93a1.367,1.367,0,0,1,1.545,1.215h1.71c-.09-1.65-1.32-2.655-3.195-2.655-1.95,0-3.18,1.065-3.18,2.385,0,3.03,4.8,2.1,4.8,3.72,0,.57-.525.99-1.515.99a1.508,1.508,0,0,1-1.65-1.23h-1.77c.075,1.5,1.47,2.67,3.45,2.67C202.35.135,203.565-.915,203.565-2.31ZM7.29,16.69C7.2,13.7,2.535,14.635,2.535,12.97c0-.555.48-.93,1.395-.93a1.367,1.367,0,0,1,1.545,1.215h1.71C7.095,11.6,5.865,10.6,3.99,10.6,2.04,10.6.81,11.665.81,12.985c0,3.03,4.8,2.1,4.8,3.72,0,.57-.525.99-1.515.99a1.508,1.508,0,0,1-1.65-1.23H.675c.075,1.5,1.47,2.67,3.45,2.67C6.075,19.135,7.29,18.085,7.29,16.69Zm9.33-5.955H14.91V15.34a2,2,0,0,1-2.085,2.3c-1.245,0-2.07-.78-2.07-2.3V10.735H9.06V15.6a3.23,3.23,0,0,0,3.4,3.525,3.076,3.076,0,0,0,2.445-1.11V19h1.71Zm3.96,1.215V10.735H18.87v12.2h1.71V17.8a3.737,3.737,0,0,0,2.88,1.335,3.989,3.989,0,0,0,3.885-4.305A3.923,3.923,0,0,0,23.46,10.6,3.606,3.606,0,0,0,20.58,11.95ZM25.6,14.83a2.606,2.606,0,0,1-2.52,2.82,2.576,2.576,0,0,1-2.5-2.79,2.572,2.572,0,0,1,2.5-2.775A2.538,2.538,0,0,1,25.6,14.83Zm5.145-2.88V10.735H29.04v12.2h1.71V17.8a3.737,3.737,0,0,0,2.88,1.335,3.989,3.989,0,0,0,3.885-4.305A3.923,3.923,0,0,0,33.63,10.6,3.606,3.606,0,0,0,30.75,11.95Zm5.025,2.88a2.606,2.606,0,0,1-2.52,2.82,2.576,2.576,0,0,1-2.505-2.79,2.572,2.572,0,0,1,2.505-2.775A2.538,2.538,0,0,1,35.775,14.83Zm11.31.03a4.215,4.215,0,1,0-8.43,0,4.03,4.03,0,0,0,4.14,4.275A4.14,4.14,0,0,0,47.085,14.86Zm-6.69,0a2.462,2.462,0,0,1,2.445-2.775,2.5,2.5,0,0,1,2.49,2.775,2.546,2.546,0,0,1-2.535,2.79C41.5,17.65,40.4,16.735,40.4,14.86Zm10.095-.21c0-1.755.78-2.28,2.04-2.28h.435V10.6a2.692,2.692,0,0,0-2.475,1.335v-1.2H48.78V19h1.71ZM54.81,16.7c0,1.68.915,2.3,2.385,2.3h1.35V17.575H57.5c-.72,0-.96-.255-.96-.87V12.13h2.01v-1.4h-2.01V8.68H54.81v2.055h-.975v1.4h.975Zm10.92-4.74V7.9H64.02V19h1.71V17.8a3.513,3.513,0,0,0,2.88,1.335A3.989,3.989,0,0,0,72.5,14.83,3.914,3.914,0,0,0,68.61,10.6,3.533,3.533,0,0,0,65.73,11.965Zm5.025,2.865a2.606,2.606,0,0,1-2.52,2.82,2.576,2.576,0,0,1-2.5-2.79,2.572,2.572,0,0,1,2.5-2.775A2.538,2.538,0,0,1,70.755,14.83Zm6.69,2.2-2.325-6.3h-1.9l3.255,8.13-1.68,4.02h1.77l5.07-12.15H79.86Zm12.63,0-2.325-6.3h-1.9l3.255,8.13-1.68,4.02h1.77l5.07-12.15H92.49Zm13.35-2.175a4.215,4.215,0,1,0-8.43,0,4.03,4.03,0,0,0,4.14,4.275A4.14,4.14,0,0,0,103.425,14.86Zm-6.69,0a2.462,2.462,0,0,1,2.445-2.775,2.5,2.5,0,0,1,2.49,2.775,2.546,2.546,0,0,1-2.535,2.79C97.845,17.65,96.735,16.735,96.735,14.86Zm15.87-4.125H110.9V15.34a2,2,0,0,1-2.085,2.3c-1.245,0-2.07-.78-2.07-2.3V10.735h-1.695V15.6a3.23,3.23,0,0,0,3.4,3.525,3.076,3.076,0,0,0,2.445-1.11V19h1.71Zm3.96,3.915c0-1.755.78-2.28,2.04-2.28h.435V10.6a2.692,2.692,0,0,0-2.475,1.335v-1.2h-1.71V19h1.71ZM136.23,19h1.7V14.125a3.388,3.388,0,0,0-6.285-1.89,3.188,3.188,0,0,0-2.97-1.635,3.148,3.148,0,0,0-2.445,1.08v-.945h-1.71V19h1.71V14.38a2,2,0,0,1,2.085-2.3c1.245,0,2.07.78,2.07,2.3V19h1.695V14.38a2,2,0,0,1,2.085-2.3c1.245,0,2.07.78,2.07,2.3Zm3.3-4.17a4,4,0,0,0,3.87,4.305,3.557,3.557,0,0,0,2.9-1.365V19h1.725V10.735H146.3v1.2A3.518,3.518,0,0,0,143.43,10.6,3.934,3.934,0,0,0,139.53,14.83Zm6.765.03a2.568,2.568,0,0,1-2.505,2.79,2.6,2.6,0,0,1-2.505-2.82,2.536,2.536,0,0,1,2.505-2.745A2.563,2.563,0,0,1,146.3,14.86Zm9.84,4.14h1.695V14.125a3.219,3.219,0,0,0-3.39-3.525,3.18,3.18,0,0,0-2.46,1.08v-.945h-1.71V19h1.71V14.38a2,2,0,0,1,2.085-2.3c1.245,0,2.07.78,2.07,2.3Zm3.3-4.17a4,4,0,0,0,3.87,4.305,3.557,3.557,0,0,0,2.9-1.365V19h1.725V10.735H166.2v1.2a3.518,3.518,0,0,0-2.865-1.335A3.934,3.934,0,0,0,159.435,14.83Zm6.765.03a2.568,2.568,0,0,1-2.505,2.79,2.6,2.6,0,0,1-2.505-2.82,2.536,2.536,0,0,1,2.505-2.745A2.563,2.563,0,0,1,166.2,14.86Zm3.4-.03a4,4,0,0,0,3.9,4.305,3.548,3.548,0,0,0,2.865-1.38v1.38a2.2,2.2,0,0,1-2.31,2.46,2.3,2.3,0,0,1-2.355-1.44H170.01c.21,1.83,1.845,2.925,4.05,2.925a3.748,3.748,0,0,0,4.035-3.945v-8.4H176.37v1.2a3.5,3.5,0,0,0-2.865-1.335A3.934,3.934,0,0,0,169.6,14.83Zm6.765.03a2.568,2.568,0,0,1-2.505,2.79,2.6,2.6,0,0,1-2.505-2.82,2.536,2.536,0,0,1,2.505-2.745A2.563,2.563,0,0,1,176.37,14.86Zm7.455-2.82a2.146,2.146,0,0,1,2.31,2.085H181.56A2.251,2.251,0,0,1,183.825,12.04Zm3.87,4.5H185.85a2,2,0,0,1-1.95,1.155,2.274,2.274,0,0,1-2.355-2.19h6.315a5.275,5.275,0,0,0,.06-.84A3.854,3.854,0,0,0,183.9,10.6a3.958,3.958,0,0,0-4.125,4.26,4.01,4.01,0,0,0,4.125,4.275A3.777,3.777,0,0,0,187.7,16.54Zm3.615-1.89c0-1.755.78-2.28,2.04-2.28h.435V10.6a2.692,2.692,0,0,0-2.475,1.335v-1.2H189.6V19h1.71Zm3.84,6.975h1.68L200.91,4.84h-1.7Zm8.19-4.92c0,1.68.915,2.3,2.385,2.3h1.35V17.575h-1.05c-.72,0-.96-.255-.96-.87V12.13h2.01v-1.4h-2.01V8.68H203.34v2.055h-.975v1.4h.975Zm8.79-4.665a2.146,2.146,0,0,1,2.31,2.085h-4.575A2.251,2.251,0,0,1,212.13,12.04Zm3.87,4.5h-1.845a2,2,0,0,1-1.95,1.155,2.274,2.274,0,0,1-2.355-2.19h6.315a5.275,5.275,0,0,0,.06-.84A3.854,3.854,0,0,0,212.2,10.6a3.958,3.958,0,0,0-4.125,4.26,4.01,4.01,0,0,0,4.125,4.275A3.777,3.777,0,0,0,216,16.54Zm1.335-1.71a4,4,0,0,0,3.87,4.305,3.557,3.557,0,0,0,2.9-1.365V19h1.725V10.735H224.1v1.2a3.518,3.518,0,0,0-2.865-1.335A3.934,3.934,0,0,0,217.335,14.83Zm6.765.03a2.568,2.568,0,0,1-2.505,2.79,2.6,2.6,0,0,1-2.505-2.82,2.536,2.536,0,0,1,2.505-2.745A2.563,2.563,0,0,1,224.1,14.86ZM239.79,19h1.7V14.125a3.388,3.388,0,0,0-6.285-1.89,3.188,3.188,0,0,0-2.97-1.635,3.148,3.148,0,0,0-2.445,1.08v-.945h-1.71V19h1.71V14.38a2,2,0,0,1,2.085-2.3c1.245,0,2.07.78,2.07,2.3V19h1.695V14.38a2,2,0,0,1,2.085-2.3c1.245,0,2.07.78,2.07,2.3Zm3.345-7.485h1.6a1.734,1.734,0,0,1,3.465.045c0,1.575-1.3,1.875-3,1.875h-.495l.075,2.355h1.485l.06-1.185c2.01,0,3.51-.93,3.51-3.045a3.362,3.362,0,0,0-6.7-.045Zm3.45,6.5a1.088,1.088,0,1,0-1.08,1.095A1.079,1.079,0,0,0,246.585,18.01Z" transform="translate(85.644 104.638)" fill="#0f72ee"/><g transform="translate(15.36 83.926)"><circle cx="26" cy="26" r="26" transform="translate(4.283 4.415)" fill="#0f72ee"/><g transform="translate(15.894 20.1)"><path d="M403.27,352.25a5.54,5.54,0,1,1,5.515-5.542v1.173h-8.468a3.168,3.168,0,0,0,4.971,1.285l.215-.179,1.8,1.52-.274.259A5.481,5.481,0,0,1,403.27,352.25Zm2.952-6.719a3.169,3.169,0,0,0-5.905,0Z" transform="translate(-394.412 -337.806)" fill="#fff"/><path d="M703.687,352.106a5.548,5.548,0,1,1,5.515-5.543v1.176h-8.466a3.168,3.168,0,0,0,4.971,1.285l.215-.179,1.8,1.519-.277.26A5.478,5.478,0,0,1,703.687,352.106Zm2.952-6.719a3.17,3.17,0,0,0-5.9,0Z" transform="translate(-683.038 -337.662)" fill="#fff"/><path d="M313.777,277.308a1.34,1.34,0,0,1-1.337-1.344V264.744a8.891,8.891,0,0,1,8.857-8.9H333.09a8.9,8.9,0,0,1,0,17.8H321.537a.664.664,0,0,0-.3.07l-6.86,3.444a1.321,1.321,0,0,1-.6.148Zm7.52-19.115a6.542,6.542,0,0,0-6.518,6.551v9.589l5.409-2.719a3.008,3.008,0,0,1,1.349-.319H333.09a6.551,6.551,0,0,0,0-13.1Z" transform="translate(-312.44 -255.842)" fill="#fff"/></g></g><path d="M.51-.08H5.32V-.84H1.88C3.17-1.89,5.11-3.42,5.11-5.22A2.034,2.034,0,0,0,2.87-7.36,2.215,2.215,0,0,0,.54-5.02h.88A1.429,1.429,0,0,1,2.88-6.58a1.221,1.221,0,0,1,1.33,1.4c0,1.48-1.8,2.92-3.7,4.45Zm6.9-.48a.606.606,0,0,0-.6-.62.611.611,0,0,0-.62.62.611.611,0,0,0,.62.62A.606.606,0,0,0,7.41-.56Zm0-4.28a.606.606,0,0,0-.6-.62.611.611,0,0,0-.62.62.611.611,0,0,0,.62.62A.606.606,0,0,0,7.41-4.84ZM8.39-.08H13.2V-.84H9.76c1.29-1.05,3.23-2.58,3.23-4.38a2.034,2.034,0,0,0-2.24-2.14A2.215,2.215,0,0,0,8.42-5.02H9.3a1.429,1.429,0,0,1,1.46-1.56,1.221,1.221,0,0,1,1.33,1.4c0,1.48-1.8,2.92-3.7,4.45ZM17.73,0h.9V-1.61h1V-2.4h-1V-7.16H17.54L14.03-2.3v.69h3.7ZM15.08-2.4l2.69-3.81V-2.4Zm9.19-1.26V-6.22h1.34c1.04,0,1.48.48,1.48,1.29,0,.78-.44,1.27-1.48,1.27Zm3.75-1.27c0-1.14-.77-2.04-2.41-2.04H23.36V0h.91V-2.91h1.34C27.34-2.91,28.02-3.87,28.02-4.93ZM29.15,0h.91V-5.17L32.37,0h.64l2.3-5.16V0h.91V-6.92h-.97L32.69-1.2,30.13-6.92h-.98Z" transform="translate(85.643 145.341)" fill="#0f72ee"/></g></svg>