<svg xmlns="http://www.w3.org/2000/svg" xmlns:xlink="http://www.w3.org/1999/xlink" width="342" height="126" viewBox="0 0 342 126"><defs><filter id="a" x="0" y="0" width="193" height="85" filterUnits="userSpaceOnUse"><feOffset input="SourceAlpha"/><feGaussianBlur stdDeviation="8" result="b"/><feFlood flood-opacity="0.122"/><feComposite operator="in" in2="b"/><feComposite in="SourceGraphic"/></filter><filter id="c" x="147" y="0" width="195" height="85" filterUnits="userSpaceOnUse"><feOffset input="SourceAlpha"/><feGaussianBlur stdDeviation="8" result="d"/><feFlood flood-opacity="0.122"/><feComposite operator="in" in2="d"/><feComposite in="SourceGraphic"/></filter><filter id="e" x="0" y="41" width="193" height="85" filterUnits="userSpaceOnUse"><feOffset input="SourceAlpha"/><feGaussianBlur stdDeviation="8" result="f"/><feFlood flood-opacity="0.122"/><feComposite operator="in" in2="f"/><feComposite in="SourceGraphic"/></filter><filter id="g" x="146.998" y="41" width="195" height="85" filterUnits="userSpaceOnUse"><feOffset input="SourceAlpha"/><feGaussianBlur stdDeviation="8" result="h"/><feFlood flood-opacity="0.122"/><feComposite operator="in" in2="h"/><feComposite in="SourceGraphic"/></filter></defs><g transform="translate(34.887 -213.289)"><g transform="translate(-1.066 237.29)"><g transform="translate(0 0)"><g transform="matrix(1, 0, 0, 1, -33.82, -24)" filter="url(#a)"><rect width="145" height="37" rx="18.5" transform="translate(24 24)" fill="#0f72ee"/></g><path d="M2.976-2.916V0h1.68V-2.916l2.832-5.46H5.616L3.828-4.548l-1.8-3.828H.132Zm8.34-2.46A1.477,1.477,0,0,1,12.9-3.948H9.744A1.544,1.544,0,0,1,11.316-5.376Zm3.156,3.288H12.66a1.37,1.37,0,0,1-1.332.8,1.555,1.555,0,0,1-1.6-1.536h4.86a3.927,3.927,0,0,0,.048-.648,3.121,3.121,0,0,0-3.276-3.288A3.194,3.194,0,0,0,8.028-3.324,3.22,3.22,0,0,0,11.364.108,3.09,3.09,0,0,0,14.472-2.088Zm6.552.192c-.048-2.436-3.732-1.68-3.732-2.892,0-.384.324-.636.948-.636a.99.99,0,0,1,1.116.864h1.608a2.382,2.382,0,0,0-2.676-2.2c-1.644,0-2.628.888-2.628,1.992,0,2.436,3.756,1.68,3.756,2.868,0,.384-.36.684-1.02.684A1.1,1.1,0,0,1,17.2-2.1H15.5C15.576-.864,16.74.108,18.408.108,20.028.108,21.024-.756,21.024-1.9Zm.7,3.624h1.092L24.3-1.848H22.524Zm6.168-5.076A3.155,3.155,0,0,0,30.912.108,2.622,2.622,0,0,0,33.12-.972V0h1.692V-6.648H33.12V-5.7a2.629,2.629,0,0,0-2.2-1.056A3.113,3.113,0,0,0,27.888-3.348Zm5.232.024a1.79,1.79,0,0,1-1.764,1.956A1.817,1.817,0,0,1,29.6-3.348,1.773,1.773,0,0,1,31.356-5.28,1.79,1.79,0,0,1,33.12-3.324Zm5.016-2.352v-3.2h-1.68V0h1.68V-.948a2.618,2.618,0,0,0,2.2,1.056,3.149,3.149,0,0,0,3.036-3.456,3.106,3.106,0,0,0-3.036-3.408A2.591,2.591,0,0,0,38.136-5.676Zm3.516,2.328a1.818,1.818,0,0,1-1.764,1.98,1.8,1.8,0,0,1-1.752-1.956A1.8,1.8,0,0,1,39.888-5.28,1.775,1.775,0,0,1,41.652-3.348Zm8.1,1.452C49.7-4.332,46.02-3.576,46.02-4.788c0-.384.324-.636.948-.636a.99.99,0,0,1,1.116.864h1.608a2.382,2.382,0,0,0-2.676-2.2c-1.644,0-2.628.888-2.628,1.992,0,2.436,3.756,1.68,3.756,2.868,0,.384-.36.684-1.02.684a1.1,1.1,0,0,1-1.2-.888H44.232C44.3-.864,45.468.108,47.136.108,48.756.108,49.752-.756,49.752-1.9Zm7.8-1.428a3.285,3.285,0,0,0-3.42-3.432,3.285,3.285,0,0,0-3.42,3.432A3.254,3.254,0,0,0,54.084.108,3.324,3.324,0,0,0,57.552-3.324Zm-5.136,0a1.73,1.73,0,0,1,1.692-1.968,1.747,1.747,0,0,1,1.716,1.968,1.77,1.77,0,0,1-1.74,1.968C53.184-1.356,52.416-2,52.416-3.324ZM58.788,0h1.68V-8.88h-1.68ZM68.4-6.648H66.708v3.66c0,1.068-.576,1.644-1.488,1.644a1.438,1.438,0,0,1-1.476-1.644v-3.66h-1.68v3.9A2.562,2.562,0,0,0,64.728.084a2.452,2.452,0,0,0,1.98-.924V0H68.4Zm1.92,4.584C70.32-.54,71.172,0,72.444,0H73.5V-1.416h-.78c-.528,0-.708-.192-.708-.636V-5.268H73.5v-1.38H72.012V-8.292H70.32v1.644h-.792v1.38h.792Zm7.248-3.312a1.477,1.477,0,0,1,1.584,1.428H76A1.544,1.544,0,0,1,77.568-5.376Zm3.156,3.288H78.912a1.37,1.37,0,0,1-1.332.8,1.555,1.555,0,0,1-1.6-1.536h4.86a3.926,3.926,0,0,0,.048-.648,3.121,3.121,0,0,0-3.276-3.288A3.194,3.194,0,0,0,74.28-3.324,3.22,3.22,0,0,0,77.616.108,3.09,3.09,0,0,0,80.724-2.088ZM82.116,0H83.8V-8.88h-1.68Zm6.168-2L86.568-6.648H84.684l2.664,6.48-1.44,3.312H87.7l4.116-9.792H90.024Z" transform="translate(17.179 23)" fill="#fff"/></g></g><g transform="translate(136.023 237.29)"><g transform="translate(0 0)"><g transform="matrix(1, 0, 0, 1, -170.91, -24)" filter="url(#c)"><rect width="147" height="37" rx="18.5" transform="translate(171 24)" fill="#0f72ee"/></g><path d="M.828,0h1.68V-5.448L4.764,0H6.036L8.28-5.448V0H9.96V-8.376h-1.9L5.4-2.148,2.736-8.376H.828ZM18.036-3.324a3.285,3.285,0,0,0-3.42-3.432A3.285,3.285,0,0,0,11.2-3.324,3.254,3.254,0,0,0,14.568.108,3.324,3.324,0,0,0,18.036-3.324Zm-5.136,0a1.73,1.73,0,0,1,1.692-1.968,1.747,1.747,0,0,1,1.716,1.968,1.77,1.77,0,0,1-1.74,1.968C13.668-1.356,12.9-2,12.9-3.324ZM24.432-1.9C24.384-4.332,20.7-3.576,20.7-4.788c0-.384.324-.636.948-.636a.99.99,0,0,1,1.116.864h1.608a2.382,2.382,0,0,0-2.676-2.2c-1.644,0-2.628.888-2.628,1.992,0,2.436,3.756,1.68,3.756,2.868,0,.384-.36.684-1.02.684A1.1,1.1,0,0,1,20.6-2.1H18.912c.072,1.236,1.236,2.208,2.9,2.208C23.436.108,24.432-.756,24.432-1.9Zm1.644-.168C26.076-.54,26.928,0,28.2,0h1.056V-1.416h-.78c-.528,0-.708-.192-.708-.636V-5.268h1.488v-1.38H27.768V-8.292H26.076v1.644h-.792v1.38h.792Zm13.668-1.26a3.285,3.285,0,0,0-3.42-3.432A3.285,3.285,0,0,0,32.9-3.324,3.254,3.254,0,0,0,36.276.108,3.324,3.324,0,0,0,39.744-3.324Zm-5.136,0A1.73,1.73,0,0,1,36.3-5.292a1.747,1.747,0,0,1,1.716,1.968,1.77,1.77,0,0,1-1.74,1.968C35.376-1.356,34.608-2,34.608-3.324ZM41.16,0h1.7V-5.268h1.164v-1.38H42.864v-.276c0-.744.276-1.008,1.092-.984V-9.324c-1.872-.048-2.8.708-2.8,2.34v.336H40.4v1.38h.756Zm7.08-2.064C48.24-.54,49.092,0,50.364,0H51.42V-1.416h-.78c-.528,0-.708-.192-.708-.636V-5.268H51.42v-1.38H49.932V-8.292H48.24v1.644h-.792v1.38h.792ZM52.632,0h1.68V-3.672a1.443,1.443,0,0,1,1.5-1.644,1.438,1.438,0,0,1,1.476,1.644V0h1.68V-3.9a2.538,2.538,0,0,0-2.592-2.844,2.555,2.555,0,0,0-2.064.924V-8.88h-1.68ZM63.42-5.376A1.477,1.477,0,0,1,65-3.948H61.848A1.544,1.544,0,0,1,63.42-5.376Zm3.156,3.288H64.764a1.37,1.37,0,0,1-1.332.8,1.555,1.555,0,0,1-1.6-1.536H66.7a3.926,3.926,0,0,0,.048-.648,3.121,3.121,0,0,0-3.276-3.288,3.194,3.194,0,0,0-3.336,3.432A3.22,3.22,0,0,0,63.468.108,3.09,3.09,0,0,0,66.576-2.088ZM77.268,0h1.68V-3.9a2.586,2.586,0,0,0-2.724-2.844,2.632,2.632,0,0,0-2.28,1.272A2.545,2.545,0,0,0,71.6-6.744a2.421,2.421,0,0,0-1.956.9v-.8h-1.68V0h1.68V-3.672a1.42,1.42,0,0,1,1.5-1.608,1.414,1.414,0,0,1,1.476,1.608V0H74.3V-3.672A1.417,1.417,0,0,1,75.792-5.28a1.414,1.414,0,0,1,1.476,1.608Z" transform="translate(34.091 23)" fill="#fff"/></g></g><g transform="translate(-1.796 278.653)"><g transform="translate(0 0)"><g transform="matrix(1, 0, 0, 1, -33.09, -65.36)" filter="url(#e)"><rect width="145" height="37" rx="18.5" transform="translate(24 65)" fill="#0f72ee"/></g><path d="M-48.036-2.424c0-2.952-4.3-2.016-4.3-3.7,0-.684.492-1.008,1.152-.984a1.106,1.106,0,0,1,1.2,1h1.848c-.108-1.512-1.284-2.388-3-2.388s-2.952.912-2.952,2.424c-.012,3.036,4.308,1.944,4.308,3.756,0,.6-.468,1.02-1.26,1.02a1.15,1.15,0,0,1-1.272-1.116h-1.8C-54.084-.828-52.74.084-51,.084-49.092.084-48.036-1.1-48.036-2.424Zm7.872-.9a3.285,3.285,0,0,0-3.42-3.432A3.285,3.285,0,0,0-47-3.324,3.254,3.254,0,0,0-43.632.108,3.324,3.324,0,0,0-40.164-3.324Zm-5.136,0a1.73,1.73,0,0,1,1.692-1.968,1.747,1.747,0,0,1,1.716,1.968,1.77,1.77,0,0,1-1.74,1.968C-44.532-1.356-45.3-2-45.3-3.324ZM-29.628,0h1.68V-3.9a2.586,2.586,0,0,0-2.724-2.844,2.632,2.632,0,0,0-2.28,1.272,2.545,2.545,0,0,0-2.34-1.272,2.421,2.421,0,0,0-1.956.9v-.8h-1.68V0h1.68V-3.672a1.42,1.42,0,0,1,1.5-1.608,1.414,1.414,0,0,1,1.476,1.608V0h1.68V-3.672A1.417,1.417,0,0,1-31.1-5.28a1.414,1.414,0,0,1,1.476,1.608ZM-23.5-5.376a1.477,1.477,0,0,1,1.584,1.428h-3.156A1.544,1.544,0,0,1-23.5-5.376Zm3.156,3.288h-1.812a1.37,1.37,0,0,1-1.332.8,1.555,1.555,0,0,1-1.6-1.536h4.86a3.927,3.927,0,0,0,.048-.648,3.121,3.121,0,0,0-3.276-3.288,3.194,3.194,0,0,0-3.336,3.432A3.22,3.22,0,0,0-23.448.108,3.09,3.09,0,0,0-20.34-2.088Zm3.816-1.26A3.155,3.155,0,0,0-13.5.108a2.622,2.622,0,0,0,2.208-1.08V0H-9.6V-6.648h-1.692V-5.7a2.629,2.629,0,0,0-2.2-1.056A3.113,3.113,0,0,0-16.524-3.348Zm5.232.024a1.79,1.79,0,0,1-1.764,1.956,1.817,1.817,0,0,1-1.752-1.98A1.773,1.773,0,0,1-13.056-5.28,1.79,1.79,0,0,1-11.292-3.324Zm5.016.012c0-1.284.6-1.668,1.6-1.668h.444V-6.744a2.306,2.306,0,0,0-2.04,1.128V-6.648h-1.68V0h1.68ZM-.252-5.376A1.477,1.477,0,0,1,1.332-3.948H-1.824A1.544,1.544,0,0,1-.252-5.376ZM2.9-2.088H1.092a1.37,1.37,0,0,1-1.332.8,1.555,1.555,0,0,1-1.6-1.536h4.86a3.927,3.927,0,0,0,.048-.648A3.121,3.121,0,0,0-.2-6.756,3.194,3.194,0,0,0-3.54-3.324,3.22,3.22,0,0,0-.2.108,3.09,3.09,0,0,0,2.9-2.088ZM16.452,0h1.68V-3.9a2.586,2.586,0,0,0-2.724-2.844,2.632,2.632,0,0,0-2.28,1.272,2.545,2.545,0,0,0-2.34-1.272,2.421,2.421,0,0,0-1.956.9v-.8H7.152V0h1.68V-3.672a1.42,1.42,0,0,1,1.5-1.608,1.414,1.414,0,0,1,1.476,1.608V0h1.68V-3.672A1.417,1.417,0,0,1,14.976-5.28a1.414,1.414,0,0,1,1.476,1.608Zm3.276,0h1.68V-6.648h-1.68Zm.852-7.44a.992.992,0,0,0,1.032-.984.992.992,0,0,0-1.032-.984.985.985,0,0,0-1.032.984A.985.985,0,0,0,20.58-7.44ZM28.224-1.9c-.048-2.436-3.732-1.68-3.732-2.892,0-.384.324-.636.948-.636a.99.99,0,0,1,1.116.864h1.608a2.382,2.382,0,0,0-2.676-2.2c-1.644,0-2.628.888-2.628,1.992,0,2.436,3.756,1.68,3.756,2.868,0,.384-.36.684-1.02.684A1.1,1.1,0,0,1,24.4-2.1H22.7C22.776-.864,23.94.108,25.608.108,27.228.108,28.224-.756,28.224-1.9Zm6.54,0c-.048-2.436-3.732-1.68-3.732-2.892,0-.384.324-.636.948-.636A.99.99,0,0,1,33.1-4.56H34.7a2.382,2.382,0,0,0-2.676-2.2c-1.644,0-2.628.888-2.628,1.992,0,2.436,3.756,1.68,3.756,2.868,0,.384-.36.684-1.02.684a1.1,1.1,0,0,1-1.2-.888H29.244C29.316-.864,30.48.108,32.148.108,33.768.108,34.764-.756,34.764-1.9ZM36.144,0h1.68V-6.648h-1.68ZM37-7.44a.992.992,0,0,0,1.032-.984A.992.992,0,0,0,37-9.408a.985.985,0,0,0-1.032.984A.985.985,0,0,0,37-7.44ZM44.136,0h1.68V-3.9a2.557,2.557,0,0,0-2.652-2.844,2.483,2.483,0,0,0-2,.924v-.828H39.48V0h1.68V-3.672a1.443,1.443,0,0,1,1.5-1.644,1.438,1.438,0,0,1,1.476,1.644ZM46.98-3.348A3.156,3.156,0,0,0,50.016.108a2.622,2.622,0,0,0,2.2-1.092V.048a1.717,1.717,0,0,1-3.276.768H47.268c.168,1.524,1.476,2.46,3.348,2.46A3.038,3.038,0,0,0,53.9.048v-6.7H52.212V-5.7a2.6,2.6,0,0,0-2.2-1.056A3.113,3.113,0,0,0,46.98-3.348Zm5.232.024a1.79,1.79,0,0,1-1.764,1.956A1.817,1.817,0,0,1,48.7-3.348,1.773,1.773,0,0,1,50.448-5.28,1.79,1.79,0,0,1,52.212-3.324Z" transform="translate(62.909 22.637)" fill="#fff"/></g></g><g transform="translate(161.022 278.653)"><g transform="translate(0 0)"><g transform="matrix(1, 0, 0, 1, -195.91, -65.36)" filter="url(#g)"><rect width="147" height="37" rx="18.5" transform="translate(171 65)" fill="#0f72ee"/></g><path d="M-60.668,0h1.68V-5.448L-56.732,0h1.272l2.244-5.448V0h1.68V-8.376h-1.9L-56.1-2.148-58.76-8.376h-1.908ZM-43.46-3.324a3.285,3.285,0,0,0-3.42-3.432A3.285,3.285,0,0,0-50.3-3.324,3.254,3.254,0,0,0-46.928.108,3.324,3.324,0,0,0-43.46-3.324Zm-5.136,0A1.73,1.73,0,0,1-46.9-5.292a1.747,1.747,0,0,1,1.716,1.968,1.77,1.77,0,0,1-1.74,1.968C-47.828-1.356-48.6-2-48.6-3.324ZM-37.064-1.9c-.048-2.436-3.732-1.68-3.732-2.892,0-.384.324-.636.948-.636a.99.99,0,0,1,1.116.864h1.608a2.382,2.382,0,0,0-2.676-2.2c-1.644,0-2.628.888-2.628,1.992,0,2.436,3.756,1.68,3.756,2.868,0,.384-.36.684-1.02.684a1.1,1.1,0,0,1-1.2-.888h-1.692c.072,1.236,1.236,2.208,2.9,2.208C-38.06.108-37.064-.756-37.064-1.9Zm1.644-.168C-35.42-.54-34.568,0-33.3,0h1.056V-1.416h-.78c-.528,0-.708-.192-.708-.636V-5.268h1.488v-1.38h-1.488V-8.292H-35.42v1.644h-.792v1.38h.792ZM-28.6-3.348A3.155,3.155,0,0,0-25.58.108a2.622,2.622,0,0,0,2.208-1.08V0h1.692V-6.648h-1.692V-5.7a2.629,2.629,0,0,0-2.2-1.056A3.113,3.113,0,0,0-28.6-3.348Zm5.232.024a1.79,1.79,0,0,1-1.764,1.956,1.817,1.817,0,0,1-1.752-1.98A1.773,1.773,0,0,1-25.136-5.28,1.79,1.79,0,0,1-23.372-3.324Zm5.016.012c0-1.284.6-1.668,1.6-1.668h.444V-6.744a2.306,2.306,0,0,0-2.04,1.128V-6.648h-1.68V0h1.68Zm6.024-2.064a1.477,1.477,0,0,1,1.584,1.428H-13.9A1.544,1.544,0,0,1-12.332-5.376Zm3.156,3.288h-1.812a1.37,1.37,0,0,1-1.332.8,1.555,1.555,0,0,1-1.6-1.536h4.86a3.927,3.927,0,0,0,.048-.648,3.121,3.121,0,0,0-3.276-3.288A3.194,3.194,0,0,0-15.62-3.324,3.22,3.22,0,0,0-12.284.108,3.09,3.09,0,0,0-9.176-2.088ZM4.372,0h1.68V-3.9A2.586,2.586,0,0,0,3.328-6.744a2.632,2.632,0,0,0-2.28,1.272,2.545,2.545,0,0,0-2.34-1.272,2.421,2.421,0,0,0-1.956.9v-.8h-1.68V0h1.68V-3.672a1.42,1.42,0,0,1,1.5-1.608A1.414,1.414,0,0,1-.272-3.672V0h1.68V-3.672A1.417,1.417,0,0,1,2.9-5.28,1.414,1.414,0,0,1,4.372-3.672ZM7.648,0h1.68V-6.648H7.648ZM8.5-7.44a.992.992,0,0,0,1.032-.984A.992.992,0,0,0,8.5-9.408a.985.985,0,0,0-1.032.984A.985.985,0,0,0,8.5-7.44ZM16.144-1.9c-.048-2.436-3.732-1.68-3.732-2.892,0-.384.324-.636.948-.636a.99.99,0,0,1,1.116.864h1.608a2.382,2.382,0,0,0-2.676-2.2c-1.644,0-2.628.888-2.628,1.992,0,2.436,3.756,1.68,3.756,2.868,0,.384-.36.684-1.02.684a1.1,1.1,0,0,1-1.2-.888H10.624C10.7-.864,11.86.108,13.528.108,15.148.108,16.144-.756,16.144-1.9Zm6.54,0c-.048-2.436-3.732-1.68-3.732-2.892,0-.384.324-.636.948-.636a.99.99,0,0,1,1.116.864h1.608a2.382,2.382,0,0,0-2.676-2.2c-1.644,0-2.628.888-2.628,1.992,0,2.436,3.756,1.68,3.756,2.868,0,.384-.36.684-1.02.684a1.1,1.1,0,0,1-1.2-.888H17.164C17.236-.864,18.4.108,20.068.108,21.688.108,22.684-.756,22.684-1.9ZM24.064,0h1.68V-6.648h-1.68Zm.852-7.44a.992.992,0,0,0,1.032-.984.992.992,0,0,0-1.032-.984.985.985,0,0,0-1.032.984A.985.985,0,0,0,24.916-7.44ZM32.056,0h1.68V-3.9a2.557,2.557,0,0,0-2.652-2.844,2.483,2.483,0,0,0-2,.924v-.828H27.4V0h1.68V-3.672a1.443,1.443,0,0,1,1.5-1.644,1.438,1.438,0,0,1,1.476,1.644ZM34.9-3.348A3.156,3.156,0,0,0,37.936.108a2.622,2.622,0,0,0,2.2-1.092V.048a1.717,1.717,0,0,1-3.276.768H35.188c.168,1.524,1.476,2.46,3.348,2.46A3.038,3.038,0,0,0,41.824.048v-6.7H40.132V-5.7a2.6,2.6,0,0,0-2.2-1.056A3.113,3.113,0,0,0,34.9-3.348Zm5.232.024a1.79,1.79,0,0,1-1.764,1.956,1.817,1.817,0,0,1-1.752-1.98A1.773,1.773,0,0,1,38.368-5.28,1.79,1.79,0,0,1,40.132-3.324Z" transform="translate(58.091 23.637)" fill="#fff"/></g></g></g></svg>