<svg xmlns="http://www.w3.org/2000/svg" xmlns:xlink="http://www.w3.org/1999/xlink" width="334" height="243" viewBox="0 0 334 243"><defs><filter id="a" x="0" y="0" width="334" height="243" filterUnits="userSpaceOnUse"><feOffset dy="16" input="SourceAlpha"/><feGaussianBlur stdDeviation="12" result="b"/><feFlood flood-opacity="0.161"/><feComposite operator="in" in2="b"/><feComposite in="SourceGraphic"/></filter></defs><g transform="translate(36.357 20.362)"><g transform="matrix(1, 0, 0, 1, -36.36, -20.36)" filter="url(#a)"><rect width="262" height="171" rx="16" transform="translate(36 20)" fill="#fff"/></g><rect width="22" height="4" transform="translate(119.644 49.638)" fill="#0f72ee" opacity="0.2"/><g transform="translate(38.644 24.638)"><path d="M131.125,85.375h-18A1.125,1.125,0,0,1,112,84.25V74.125a10.125,10.125,0,0,1,20.25,0V84.25A1.125,1.125,0,0,1,131.125,85.375Zm-16.875-2.25H130v-9a7.875,7.875,0,0,0-15.75,0Z" transform="translate(-29.75 -59.5)" fill="#0f72ee"/><path d="M101.375,342.75h-18a3.375,3.375,0,0,1,0-6.75h18a3.375,3.375,0,0,1,0,6.75Zm-18-4.5a1.125,1.125,0,0,0,0,2.25h18a1.125,1.125,0,0,0,0-2.25Z" transform="translate(0 -312.375)" fill="#0f72ee"/><path d="M241.125,6.75A1.125,1.125,0,0,1,240,5.625V2.813a2.813,2.813,0,0,1,5.625,0,1.125,1.125,0,0,1-2.25,0,.563.563,0,0,0-1.125,0V5.625A1.125,1.125,0,0,1,241.125,6.75Z" transform="translate(-148.75)" fill="#0f72ee"/><path d="M196.5,407.875a4.5,4.5,0,0,1-3.353-7.5,1.125,1.125,0,0,1,.838-.374h5.03a1.125,1.125,0,0,1,.838.374,4.5,4.5,0,0,1-3.353,7.5Zm-1.949-5.625a2.25,2.25,0,1,0,3.9,0Z" transform="translate(-104.125 -371.875)" fill="#0f72ee"/><circle cx="1.067" cy="1.067" r="1.067" transform="translate(96.267 19.009)" fill="#0f72ee"/></g><path d="M-94.433-10.425V0H-89.2V-1.38h-3.525v-9.045Zm10.14,3.465a2.146,2.146,0,0,1,2.31,2.085h-4.575A2.251,2.251,0,0,1-84.293-6.96Zm3.87,4.5h-1.845A2,2,0,0,1-84.218-1.3a2.274,2.274,0,0,1-2.355-2.19h6.315a5.275,5.275,0,0,0,.06-.84A3.854,3.854,0,0,0-84.218-8.4a3.958,3.958,0,0,0-4.125,4.26A4.01,4.01,0,0,0-84.218.135,3.777,3.777,0,0,0-80.423-2.46Zm5.385-4.5a2.146,2.146,0,0,1,2.31,2.085H-77.3A2.251,2.251,0,0,1-75.037-6.96Zm3.87,4.5h-1.845A2,2,0,0,1-74.963-1.3a2.274,2.274,0,0,1-2.355-2.19H-71a5.275,5.275,0,0,0,.06-.84A3.854,3.854,0,0,0-74.963-8.4a3.958,3.958,0,0,0-4.125,4.26A4.01,4.01,0,0,0-74.963.135,3.777,3.777,0,0,0-71.168-2.46ZM-63.4,0H-61.7V-4.875A3.219,3.219,0,0,0-65.093-8.4a3.18,3.18,0,0,0-2.46,1.08v-.945h-1.71V0h1.71V-4.62a2,2,0,0,1,2.085-2.3c1.245,0,2.07.78,2.07,2.3Zm3.3-4.17A4,4,0,0,0-56.228.135a3.557,3.557,0,0,0,2.9-1.365V0h1.725V-8.265h-1.725v1.2A3.518,3.518,0,0,0-56.2-8.4,3.934,3.934,0,0,0-60.1-4.17Zm6.765.03a2.568,2.568,0,0,1-2.505,2.79,2.6,2.6,0,0,1-2.5-2.82,2.536,2.536,0,0,1,2.5-2.745A2.563,2.563,0,0,1-53.333-4.14ZM-38.423,0h1.8l-3.735-10.44h-1.98L-46.073,0h1.785l.75-2.13h4.365Zm-1.23-3.525h-3.4l1.71-4.845ZM-35,0h1.71V-10.425H-35Zm7.86,0h1.71V-8.265h-1.71Zm.87-9.36a1.079,1.079,0,0,0,1.08-1.095,1.079,1.079,0,0,0-1.08-1.095,1.082,1.082,0,0,0-1.1,1.095A1.082,1.082,0,0,0-26.273-9.36Zm9.255,7.05c-.09-2.985-4.755-2.055-4.755-3.72,0-.555.48-.93,1.4-.93a1.367,1.367,0,0,1,1.545,1.215h1.71c-.09-1.65-1.32-2.655-3.195-2.655-1.95,0-3.18,1.065-3.18,2.385,0,3.03,4.8,2.1,4.8,3.72,0,.57-.525.99-1.515.99a1.508,1.508,0,0,1-1.65-1.23h-1.77c.075,1.5,1.47,2.67,3.45,2.67C-18.233.135-17.018-.915-17.018-2.31Zm5.175-1.86A4,4,0,0,0-7.972.135a3.557,3.557,0,0,0,2.9-1.365V0h1.725V-8.265H-5.077v1.2A3.518,3.518,0,0,0-7.942-8.4,3.934,3.934,0,0,0-11.842-4.17Zm6.765.03A2.568,2.568,0,0,1-7.582-1.35a2.6,2.6,0,0,1-2.505-2.82A2.536,2.536,0,0,1-7.582-6.915,2.563,2.563,0,0,1-5.077-4.14Zm3.4-.03A4,4,0,0,0,2.227.135a3.427,3.427,0,0,0,2.865-1.38V0H6.817V-11.1H5.092v3.99A3.807,3.807,0,0,0,2.242-8.4,3.937,3.937,0,0,0-1.673-4.17Zm6.765.03A2.568,2.568,0,0,1,2.587-1.35,2.6,2.6,0,0,1,.082-4.17,2.536,2.536,0,0,1,2.587-6.915,2.563,2.563,0,0,1,5.092-4.14Zm3.4-.03A4,4,0,0,0,12.4.135a3.427,3.427,0,0,0,2.865-1.38V0h1.725V-11.1H15.262v3.99a3.807,3.807,0,0,0-2.85-1.29A3.937,3.937,0,0,0,8.5-4.17Zm6.765.03a2.568,2.568,0,0,1-2.5,2.79,2.6,2.6,0,0,1-2.505-2.82,2.536,2.536,0,0,1,2.505-2.745A2.563,2.563,0,0,1,15.262-4.14ZM19.237,0h1.71V-8.265h-1.71Zm.87-9.36a1.079,1.079,0,0,0,1.08-1.095,1.079,1.079,0,0,0-1.08-1.095,1.082,1.082,0,0,0-1.1,1.095A1.082,1.082,0,0,0,20.107-9.36ZM29.062,0h1.695V-4.875A3.219,3.219,0,0,0,27.367-8.4a3.18,3.18,0,0,0-2.46,1.08v-.945H23.2V0h1.71V-4.62a2,2,0,0,1,2.085-2.3c1.245,0,2.07.78,2.07,2.3Zm3.3-4.17a4,4,0,0,0,3.9,4.305,3.548,3.548,0,0,0,2.865-1.38V.135a2.2,2.2,0,0,1-2.31,2.46,2.3,2.3,0,0,1-2.355-1.44H32.767c.21,1.83,1.845,2.925,4.05,2.925A3.748,3.748,0,0,0,40.852.135v-8.4H39.127v1.2A3.5,3.5,0,0,0,36.262-8.4,3.934,3.934,0,0,0,32.362-4.17Zm6.765.03a2.568,2.568,0,0,1-2.505,2.79,2.6,2.6,0,0,1-2.5-2.82,2.536,2.536,0,0,1,2.5-2.745A2.563,2.563,0,0,1,39.127-4.14ZM52.867,0h1.695V-4.875A3.219,3.219,0,0,0,51.172-8.4a3.18,3.18,0,0,0-2.46,1.08v-.945H47V0h1.71V-4.62a2,2,0,0,1,2.085-2.3c1.245,0,2.07.78,2.07,2.3Zm7.35-6.96a2.146,2.146,0,0,1,2.31,2.085H57.952A2.251,2.251,0,0,1,60.217-6.96Zm3.87,4.5H62.242A2,2,0,0,1,60.292-1.3a2.274,2.274,0,0,1-2.355-2.19h6.315a5.275,5.275,0,0,0,.06-.84A3.854,3.854,0,0,0,60.292-8.4a3.958,3.958,0,0,0-4.125,4.26A4.01,4.01,0,0,0,60.292.135,3.777,3.777,0,0,0,64.087-2.46ZM67.6,0h1.8l1.665-6.105L72.728,0h1.8l2.565-8.265h-1.68L73.7-1.65l-1.68-6.615H70.238L68.482-1.62,66.757-8.265h-1.74ZM89.3,0h1.8L87.367-10.44h-1.98L81.652,0h1.785l.75-2.13h4.365Zm-1.23-3.525h-3.4l1.71-4.845ZM92.722,0h1.71V-10.425h-1.71ZM-82.118,14.83a4,4,0,0,0,3.87,4.305,3.557,3.557,0,0,0,2.895-1.365V19h1.725V10.735h-1.725v1.2A3.518,3.518,0,0,0-78.217,10.6,3.934,3.934,0,0,0-82.118,14.83Zm6.765.03a2.568,2.568,0,0,1-2.5,2.79,2.6,2.6,0,0,1-2.505-2.82,2.536,2.536,0,0,1,2.505-2.745A2.563,2.563,0,0,1-75.353,14.86Zm10.14,1.83c-.09-2.985-4.755-2.055-4.755-3.72,0-.555.48-.93,1.395-.93a1.367,1.367,0,0,1,1.545,1.215h1.71c-.09-1.65-1.32-2.655-3.195-2.655-1.95,0-3.18,1.065-3.18,2.385,0,3.03,4.8,2.1,4.8,3.72,0,.57-.525.99-1.515.99a1.508,1.508,0,0,1-1.65-1.23h-1.77c.075,1.5,1.47,2.67,3.45,2.67C-66.428,19.135-65.213,18.085-65.213,16.69Zm8.01,0c-.09-2.985-4.755-2.055-4.755-3.72,0-.555.48-.93,1.4-.93a1.367,1.367,0,0,1,1.545,1.215h1.71C-57.4,11.6-58.627,10.6-60.5,10.6c-1.95,0-3.18,1.065-3.18,2.385,0,3.03,4.8,2.1,4.8,3.72,0,.57-.525.99-1.515.99a1.508,1.508,0,0,1-1.65-1.23h-1.77c.075,1.5,1.47,2.67,3.45,2.67C-58.417,19.135-57.2,18.085-57.2,16.69ZM-55.357,19h1.71V10.735h-1.71Zm.87-9.36a1.079,1.079,0,0,0,1.08-1.095,1.079,1.079,0,0,0-1.08-1.095,1.082,1.082,0,0,0-1.095,1.095A1.082,1.082,0,0,0-54.487,9.64Zm9.255,7.05c-.09-2.985-4.755-2.055-4.755-3.72,0-.555.48-.93,1.4-.93a1.367,1.367,0,0,1,1.545,1.215h1.71c-.09-1.65-1.32-2.655-3.195-2.655-1.95,0-3.18,1.065-3.18,2.385,0,3.03,4.8,2.1,4.8,3.72,0,.57-.525.99-1.515.99a1.508,1.508,0,0,1-1.65-1.23h-1.77c.075,1.5,1.47,2.67,3.45,2.67C-46.447,19.135-45.232,18.085-45.232,16.69Zm2.115.015c0,1.68.915,2.3,2.385,2.3h1.35V17.575h-1.05c-.72,0-.96-.255-.96-.87V12.13h2.01v-1.4h-2.01V8.68h-1.725v2.055h-.975v1.4h.975Zm4.74-1.875a4,4,0,0,0,3.87,4.305,3.557,3.557,0,0,0,2.9-1.365V19h1.725V10.735h-1.725v1.2A3.518,3.518,0,0,0-34.478,10.6,3.934,3.934,0,0,0-38.377,14.83Zm6.765.03a2.568,2.568,0,0,1-2.505,2.79,2.6,2.6,0,0,1-2.5-2.82,2.536,2.536,0,0,1,2.5-2.745A2.563,2.563,0,0,1-31.612,14.86Zm9.84,4.14h1.695V14.125a3.219,3.219,0,0,0-3.39-3.525,3.18,3.18,0,0,0-2.46,1.08v-.945h-1.71V19h1.71V14.38a2,2,0,0,1,2.085-2.3c1.245,0,2.07.78,2.07,2.3Zm4.14-2.3c0,1.68.915,2.3,2.385,2.3h1.35V17.575h-1.05c-.72,0-.96-.255-.96-.87V12.13h2.01v-1.4h-2.01V8.68h-1.725v2.055h-.975v1.4h.975Zm9.48,0c0,1.68.915,2.3,2.385,2.3h1.35V17.575h-1.05c-.72,0-.96-.255-.96-.87V12.13h2.01v-1.4h-2.01V8.68H-8.153v2.055h-.975v1.4h.975ZM5.033,14.86A4.076,4.076,0,0,0,.818,10.6,4.076,4.076,0,0,0-3.4,14.86a4.03,4.03,0,0,0,4.14,4.275A4.14,4.14,0,0,0,5.033,14.86Zm-6.69,0A2.462,2.462,0,0,1,.788,12.085a2.5,2.5,0,0,1,2.49,2.775A2.546,2.546,0,0,1,.743,17.65C-.547,17.65-1.657,16.735-1.657,14.86Zm20.16,0a4.076,4.076,0,0,0-4.215-4.26,4.076,4.076,0,0,0-4.215,4.26,4.03,4.03,0,0,0,4.14,4.275A4.14,4.14,0,0,0,18.5,14.86Zm-6.69,0a2.462,2.462,0,0,1,2.445-2.775,2.5,2.5,0,0,1,2.49,2.775,2.546,2.546,0,0,1-2.535,2.79C12.923,17.65,11.813,16.735,11.813,14.86Zm15.87-4.125h-1.71V15.34a2,2,0,0,1-2.085,2.3c-1.245,0-2.07-.78-2.07-2.3V10.735H20.123V15.6a3.23,3.23,0,0,0,3.405,3.525,3.076,3.076,0,0,0,2.445-1.11V19h1.71Zm3.96,3.915c0-1.755.78-2.28,2.04-2.28h.435V10.6a2.692,2.692,0,0,0-2.475,1.335v-1.2h-1.71V19h1.71Zm8.22,2.055c0,1.68.915,2.3,2.385,2.3H43.6V17.575h-1.05c-.72,0-.96-.255-.96-.87V12.13H43.6v-1.4h-2.01V8.68H39.862v2.055h-.975v1.4h.975Zm8.79-4.665a2.146,2.146,0,0,1,2.31,2.085H46.388A2.251,2.251,0,0,1,48.653,12.04Zm3.87,4.5H50.678a2,2,0,0,1-1.95,1.155,2.274,2.274,0,0,1-2.355-2.19h6.315a5.275,5.275,0,0,0,.06-.84,3.854,3.854,0,0,0-4.02-4.065A3.958,3.958,0,0,0,44.6,14.86a4.01,4.01,0,0,0,4.125,4.275A3.777,3.777,0,0,0,52.522,16.54Zm1.335-1.71a4,4,0,0,0,3.87,4.305,3.557,3.557,0,0,0,2.9-1.365V19h1.725V10.735H60.623v1.2A3.518,3.518,0,0,0,57.758,10.6,3.934,3.934,0,0,0,53.858,14.83Zm6.765.03a2.568,2.568,0,0,1-2.505,2.79,2.6,2.6,0,0,1-2.5-2.82,2.536,2.536,0,0,1,2.5-2.745A2.563,2.563,0,0,1,60.623,14.86ZM76.313,19h1.7V14.125a3.388,3.388,0,0,0-6.285-1.89,3.188,3.188,0,0,0-2.97-1.635,3.148,3.148,0,0,0-2.445,1.08v-.945H64.6V19h1.71V14.38a2,2,0,0,1,2.085-2.3c1.245,0,2.07.78,2.07,2.3V19h1.695V14.38a2,2,0,0,1,2.085-2.3c1.245,0,2.07.78,2.07,2.3Zm5.64-.99a1.088,1.088,0,1,0-1.08,1.095A1.079,1.079,0,0,0,81.952,18.01Z" transform="translate(130.644 92.638)" fill="#0f72ee"/><path d="M-57.09-4.188A4.164,4.164,0,0,0-52.83.072a3.966,3.966,0,0,0,3.876-2.5H-50.6A2.33,2.33,0,0,1-52.83-1.116a2.815,2.815,0,0,1-2.856-3.072,2.8,2.8,0,0,1,2.856-3.06A2.33,2.33,0,0,1-50.6-5.94h1.644A3.976,3.976,0,0,0-52.83-8.448,4.172,4.172,0,0,0-57.09-4.188ZM-47.358,0h1.368V-8.88h-1.368Zm3.168,0h1.368V-6.612H-44.19Zm.7-7.488a.863.863,0,0,0,.864-.876.863.863,0,0,0-.864-.876.866.866,0,0,0-.876.876A.866.866,0,0,0-43.494-7.488Zm2.016,4.176a3.162,3.162,0,0,0,3.24,3.42,2.97,2.97,0,0,0,3.048-2.2h-1.476a1.51,1.51,0,0,1-1.572,1.044c-1.1,0-1.836-.816-1.836-2.268s.732-2.256,1.836-2.256a1.545,1.545,0,0,1,1.572,1.044h1.476a2.876,2.876,0,0,0-3.048-2.2A3.159,3.159,0,0,0-41.478-3.312ZM-33.822,0h1.368V-2.844L-30.006,0h1.848l-3.048-3.3,3.048-3.312h-1.9l-2.4,2.892V-8.88h-1.368Zm9.984-1.836C-23.838-.492-23.106,0-21.93,0h1.08V-1.14h-.84c-.576,0-.768-.2-.768-.7V-5.5h1.608V-6.612h-1.608V-8.256h-1.38v1.644h-.78V-5.5h.78ZM-13.29-3.312A3.261,3.261,0,0,0-16.662-6.72a3.261,3.261,0,0,0-3.372,3.408A3.224,3.224,0,0,0-16.722.108,3.312,3.312,0,0,0-13.29-3.312Zm-5.352,0a1.97,1.97,0,0,1,1.956-2.22,2,2,0,0,1,1.992,2.22A2.037,2.037,0,0,1-16.722-1.08,1.956,1.956,0,0,1-18.642-3.312ZM-8.814,0h1.368V-2.844L-5,0H-3.15L-6.2-3.3-3.15-6.612h-1.9l-2.4,2.892V-8.88H-8.814ZM2.526,0H3.882V-3.9A2.575,2.575,0,0,0,1.17-6.72,2.544,2.544,0,0,0-.8-5.856v-.756H-2.166V0H-.8V-3.7A1.6,1.6,0,0,1,.87-5.532c1,0,1.656.624,1.656,1.836Zm9.4-3.312A3.261,3.261,0,0,0,8.55-6.72,3.261,3.261,0,0,0,5.178-3.312,3.224,3.224,0,0,0,8.49.108,3.312,3.312,0,0,0,11.922-3.312Zm-5.352,0a1.97,1.97,0,0,1,1.956-2.22,2,2,0,0,1,1.992,2.22A2.037,2.037,0,0,1,8.49-1.08,1.956,1.956,0,0,1,6.57-3.312ZM14.562,0H16l1.332-4.884L18.666,0h1.44l2.052-6.612H20.814L19.446-1.32,18.1-6.612H16.674L15.27-1.3,13.89-6.612H12.5ZM35.67,0h1.356V-3.9A2.584,2.584,0,0,0,34.3-6.72,2.589,2.589,0,0,0,32-5.412,2.55,2.55,0,0,0,29.622-6.72a2.518,2.518,0,0,0-1.956.864v-.756H26.3V0h1.368V-3.7a1.6,1.6,0,0,1,1.668-1.836c1,0,1.656.624,1.656,1.836V0h1.356V-3.7a1.6,1.6,0,0,1,1.668-1.836c1,0,1.656.624,1.656,1.836Zm9.4-3.312A3.261,3.261,0,0,0,41.694-6.72a3.261,3.261,0,0,0-3.372,3.408A3.224,3.224,0,0,0,41.634.108,3.312,3.312,0,0,0,45.066-3.312Zm-5.352,0a1.97,1.97,0,0,1,1.956-2.22,2,2,0,0,1,1.992,2.22A2.037,2.037,0,0,1,41.634-1.08,1.956,1.956,0,0,1,39.714-3.312ZM47.79-3.48c0-1.4.624-1.824,1.632-1.824h.348V-6.72a2.154,2.154,0,0,0-1.98,1.068v-.96H46.422V0H47.79Zm6.024-2.088A1.717,1.717,0,0,1,55.662-3.9H52A1.8,1.8,0,0,1,53.814-5.568Zm3.1,3.6H55.434a1.6,1.6,0,0,1-1.56.924A1.819,1.819,0,0,1,51.99-2.8h5.052a4.22,4.22,0,0,0,.048-.672A3.084,3.084,0,0,0,53.874-6.72a3.166,3.166,0,0,0-3.3,3.408,3.208,3.208,0,0,0,3.3,3.42A3.021,3.021,0,0,0,56.91-1.968Z" transform="translate(130.644 135.638)" fill="#0f72ee"/></g></svg>