<svg xmlns="http://www.w3.org/2000/svg" xmlns:xlink="http://www.w3.org/1999/xlink" width="465" height="283" viewBox="0 0 465 283"><defs><filter id="a" x="0" y="0" width="465" height="283" filterUnits="userSpaceOnUse"><feOffset dy="6" input="SourceAlpha"/><feGaussianBlur stdDeviation="21" result="b"/><feFlood flood-opacity="0.161"/><feComposite operator="in" in2="b"/><feComposite in="SourceGraphic"/></filter></defs><g transform="translate(63.164 44.209)"><g transform="matrix(1, 0, 0, 1, -63.16, -44.21)" filter="url(#a)"><rect width="339" height="157" rx="20" transform="translate(63 57)" fill="#fff"/></g><g transform="translate(16.553 30.376)"><circle cx="27" cy="27" r="27" transform="translate(3.283 3.415)" fill="#0f72ee"/><text transform="translate(17.283 36.415)" fill="#fff" font-size="19" font-family="Poppins-Medium, Poppins" font-weight="500"><tspan x="0" y="0">AB</tspan></text></g><g transform="translate(92.277 32.508)"><g transform="translate(0 0)"><path d="M8.256,0H10.08V-11.12H8.256v4.768H3.024V-11.12H1.2V0H3.024V-4.864H8.256ZM12.48,0H14.3V-8.816H12.48Zm.928-9.984a1.151,1.151,0,0,0,1.152-1.168,1.151,1.151,0,0,0-1.152-1.168,1.154,1.154,0,0,0-1.168,1.168A1.154,1.154,0,0,0,13.408-9.984ZM15.584,2.224h1.184L18.7-2.192H16.72Zm8.88-13.344V0h5.584V-1.472h-3.76V-11.12Zm10.816,3.7A2.289,2.289,0,0,1,37.744-5.2h-4.88A2.4,2.4,0,0,1,35.28-7.424Zm4.128,4.8H37.44a2.134,2.134,0,0,1-2.08,1.232,2.425,2.425,0,0,1-2.512-2.336h6.736a5.627,5.627,0,0,0,.064-.9A4.111,4.111,0,0,0,35.36-8.96a4.222,4.222,0,0,0-4.4,4.544,4.277,4.277,0,0,0,4.4,4.56A4.028,4.028,0,0,0,39.408-2.624Zm5.744-4.8A2.289,2.289,0,0,1,47.616-5.2h-4.88A2.4,2.4,0,0,1,45.152-7.424Zm4.128,4.8H47.312a2.134,2.134,0,0,1-2.08,1.232A2.425,2.425,0,0,1,42.72-3.728h6.736a5.627,5.627,0,0,0,.064-.9A4.111,4.111,0,0,0,45.232-8.96a4.222,4.222,0,0,0-4.4,4.544,4.277,4.277,0,0,0,4.4,4.56A4.028,4.028,0,0,0,49.28-2.624ZM57.568,0h1.808V-5.2A3.433,3.433,0,0,0,55.76-8.96a3.392,3.392,0,0,0-2.624,1.152V-8.816H51.312V0h1.824V-4.928A2.137,2.137,0,0,1,55.36-7.376c1.328,0,2.208.832,2.208,2.448Zm3.52-4.448c0,2.72,1.84,4.592,4.128,4.592A3.8,3.8,0,0,0,68.3-1.312V0h1.84V-8.816H68.3v1.28A3.753,3.753,0,0,0,65.248-8.96,4.2,4.2,0,0,0,61.088-4.448Zm7.216.032A2.739,2.739,0,0,1,65.632-1.44,2.778,2.778,0,0,1,62.96-4.448a2.7,2.7,0,0,1,2.672-2.928A2.734,2.734,0,0,1,68.3-4.416Zm7.792,0a4.216,4.216,0,0,0,4.32,4.56A3.96,3.96,0,0,0,84.48-2.784H82.512a2.013,2.013,0,0,1-2.1,1.392c-1.472,0-2.448-1.088-2.448-3.024,0-1.92.976-3.008,2.448-3.008a2.06,2.06,0,0,1,2.1,1.392H84.48A3.835,3.835,0,0,0,80.416-8.96,4.211,4.211,0,0,0,76.1-4.416Zm9.6-.032c0,2.72,1.84,4.592,4.128,4.592a3.8,3.8,0,0,0,3.088-1.456V0h1.84V-8.816h-1.84v1.28A3.753,3.753,0,0,0,89.856-8.96,4.2,4.2,0,0,0,85.7-4.448Zm7.216.032A2.739,2.739,0,0,1,90.24-1.44a2.778,2.778,0,0,1-2.672-3.008A2.7,2.7,0,0,1,90.24-7.376,2.734,2.734,0,0,1,92.912-4.416ZM103.408,0h1.808V-5.2A3.433,3.433,0,0,0,101.6-8.96a3.392,3.392,0,0,0-2.624,1.152V-8.816H97.152V0h1.824V-4.928A2.137,2.137,0,0,1,101.2-7.376c1.328,0,2.208.832,2.208,2.448Zm11.76-2.1-2.48-6.72h-2.032l3.472,8.672-1.792,4.288h1.888l5.408-12.96h-1.888Zm14.24-2.32a4.348,4.348,0,0,0-4.5-4.544,4.348,4.348,0,0,0-4.5,4.544,4.3,4.3,0,0,0,4.416,4.56A4.416,4.416,0,0,0,129.408-4.416Zm-7.136,0c0-2,1.232-2.96,2.608-2.96a2.668,2.668,0,0,1,2.656,2.96,2.716,2.716,0,0,1-2.7,2.976C123.456-1.44,122.272-2.416,122.272-4.416Zm16.928-4.4h-1.824V-3.9a2.137,2.137,0,0,1-2.224,2.448c-1.328,0-2.208-.832-2.208-2.448V-8.816h-1.808v5.184a3.445,3.445,0,0,0,3.632,3.76,3.282,3.282,0,0,0,2.608-1.184V0H139.2ZM145.76,0h1.824V-4.928a2.137,2.137,0,0,1,2.224-2.448c1.328,0,2.208.832,2.208,2.448V0h1.808V-5.2c0-2.464-1.536-3.76-3.5-3.76a3.5,3.5,0,0,0-2.736,1.168V-11.84H145.76Zm14.1-7.424A2.289,2.289,0,0,1,162.32-5.2h-4.88A2.4,2.4,0,0,1,159.856-7.424Zm4.128,4.8h-1.968a2.134,2.134,0,0,1-2.08,1.232,2.425,2.425,0,0,1-2.512-2.336h6.736a5.626,5.626,0,0,0,.064-.9,4.111,4.111,0,0,0-4.288-4.336,4.222,4.222,0,0,0-4.4,4.544,4.277,4.277,0,0,0,4.4,4.56A4.028,4.028,0,0,0,163.984-2.624ZM166.016,0h1.824V-11.84h-1.824Zm6.048-7.52v-1.3H170.24V4.192h1.824V-1.28A3.986,3.986,0,0,0,175.136.144c2.32,0,4.144-1.872,4.144-4.592a4.184,4.184,0,0,0-4.144-4.512A3.847,3.847,0,0,0,172.064-7.52Zm5.36,3.072a2.78,2.78,0,0,1-2.688,3.008,2.748,2.748,0,0,1-2.672-2.976,2.743,2.743,0,0,1,2.672-2.96A2.708,2.708,0,0,1,177.424-4.448ZM197.744,0h1.808V-5.2a3.445,3.445,0,0,0-3.632-3.76,3.452,3.452,0,0,0-3.072,1.744A3.4,3.4,0,0,0,189.68-8.96a3.358,3.358,0,0,0-2.608,1.152V-8.816h-1.824V0h1.824V-4.928A2.137,2.137,0,0,1,189.3-7.376c1.328,0,2.208.832,2.208,2.448V0h1.808V-4.928a2.137,2.137,0,0,1,2.224-2.448c1.328,0,2.208.832,2.208,2.448Zm7.84-7.424A2.289,2.289,0,0,1,208.048-5.2h-4.88A2.4,2.4,0,0,1,205.584-7.424Zm4.128,4.8h-1.968a2.134,2.134,0,0,1-2.08,1.232,2.425,2.425,0,0,1-2.512-2.336h6.736a5.626,5.626,0,0,0,.064-.9,4.111,4.111,0,0,0-4.288-4.336,4.222,4.222,0,0,0-4.4,4.544,4.277,4.277,0,0,0,4.4,4.56A4.028,4.028,0,0,0,209.712-2.624ZM2.912,22h1.92l1.776-6.512L8.384,22H10.3l2.736-8.816H11.248L9.424,20.24,7.632,13.184h-1.9L3.856,20.272l-1.84-7.088H.16ZM14.4,22h1.824V13.184H14.4Zm.928-9.984a1.168,1.168,0,1,0-1.168-1.168A1.151,1.151,0,0,0,15.328,12.016Zm3.584,7.536c0,1.792.976,2.448,2.544,2.448H22.9V20.48h-1.12c-.768,0-1.024-.272-1.024-.928v-4.88H22.9V13.184H20.752V10.992h-1.84v2.192h-1.04v1.488h1.04ZM24.576,22H26.4V17.072a2.137,2.137,0,0,1,2.224-2.448c1.328,0,2.208.832,2.208,2.448V22H32.64V16.8c0-2.464-1.536-3.76-3.5-3.76A3.5,3.5,0,0,0,26.4,14.208V10.16H24.576Zm16.368-4.64c0-1.872.832-2.432,2.176-2.432h.464V13.04a2.872,2.872,0,0,0-2.64,1.424v-1.28H39.12V22h1.824Zm3.712.192c0,2.72,1.84,4.592,4.128,4.592a3.8,3.8,0,0,0,3.088-1.456V22h1.84V13.184h-1.84v1.28a3.753,3.753,0,0,0-3.056-1.424A4.2,4.2,0,0,0,44.656,17.552Zm7.216.032A2.739,2.739,0,0,1,49.2,20.56a2.778,2.778,0,0,1-2.672-3.008A2.7,2.7,0,0,1,49.2,14.624,2.734,2.734,0,0,1,51.872,17.584ZM56.112,22h1.824V13.184H56.112Zm.928-9.984a1.168,1.168,0,1,0-1.168-1.168A1.151,1.151,0,0,0,57.04,12.016Zm9.872,7.52c-.1-3.184-5.072-2.192-5.072-3.968,0-.592.512-.992,1.488-.992a1.458,1.458,0,0,1,1.648,1.3H66.8c-.1-1.76-1.408-2.832-3.408-2.832-2.08,0-3.392,1.136-3.392,2.544,0,3.232,5.12,2.24,5.12,3.968,0,.608-.56,1.056-1.616,1.056a1.608,1.608,0,0,1-1.76-1.312H59.856c.08,1.6,1.568,2.848,3.68,2.848C65.616,22.144,66.912,21.024,66.912,19.536ZM68.88,22H70.7V13.184H68.88Zm.928-9.984a1.168,1.168,0,1,0-1.168-1.168A1.151,1.151,0,0,0,69.808,12.016ZM79.36,22h1.808V16.8a3.433,3.433,0,0,0-3.616-3.76,3.392,3.392,0,0,0-2.624,1.152V13.184H73.1V22h1.824V17.072a2.137,2.137,0,0,1,2.224-2.448c1.328,0,2.208.832,2.208,2.448Zm3.52-4.448a4.267,4.267,0,0,0,4.16,4.592A3.784,3.784,0,0,0,90.1,20.672v1.472a2.349,2.349,0,0,1-2.464,2.624,2.458,2.458,0,0,1-2.512-1.536H83.312c.224,1.952,1.968,3.12,4.32,3.12a4,4,0,0,0,4.3-4.208v-8.96H90.1v1.28A3.734,3.734,0,0,0,87.04,13.04,4.2,4.2,0,0,0,82.88,17.552Zm7.216.032a2.739,2.739,0,0,1-2.672,2.976,2.778,2.778,0,0,1-2.672-3.008,2.7,2.7,0,0,1,2.672-2.928A2.734,2.734,0,0,1,90.1,17.584Zm7.792-.032c0,2.72,1.84,4.592,4.128,4.592a3.8,3.8,0,0,0,3.088-1.456V22h1.84V13.184H105.1v1.28a3.753,3.753,0,0,0-3.056-1.424A4.2,4.2,0,0,0,97.888,17.552Zm7.216.032a2.739,2.739,0,0,1-2.672,2.976,2.778,2.778,0,0,1-2.672-3.008,2.7,2.7,0,0,1,2.672-2.928A2.734,2.734,0,0,1,105.1,17.584Zm8.688,1.968c0,1.792.976,2.448,2.544,2.448h1.44V20.48h-1.12c-.768,0-1.024-.272-1.024-.928v-4.88h2.144V13.184h-2.144V10.992h-1.84v2.192h-1.04v1.488h1.04ZM119.456,22h1.824V13.184h-1.824Zm.928-9.984a1.168,1.168,0,1,0-1.168-1.168A1.151,1.151,0,0,0,120.384,12.016Zm2.688,5.568a4.216,4.216,0,0,0,4.32,4.56,3.96,3.96,0,0,0,4.064-2.928h-1.968a2.013,2.013,0,0,1-2.1,1.392c-1.472,0-2.448-1.088-2.448-3.024,0-1.92.976-3.008,2.448-3.008a2.06,2.06,0,0,1,2.1,1.392h1.968a3.835,3.835,0,0,0-4.064-2.928A4.211,4.211,0,0,0,123.072,17.584ZM133.28,22H135.1V18.208L138.368,22h2.464l-4.064-4.4,4.064-4.416H138.3l-3.2,3.856V10.16H133.28Zm12.576-7.424A2.289,2.289,0,0,1,148.32,16.8h-4.88A2.4,2.4,0,0,1,145.856,14.576Zm4.128,4.8h-1.968a2.134,2.134,0,0,1-2.08,1.232,2.425,2.425,0,0,1-2.512-2.336h6.736a5.626,5.626,0,0,0,.064-.9,4.111,4.111,0,0,0-4.288-4.336,4.222,4.222,0,0,0-4.4,4.544,4.277,4.277,0,0,0,4.4,4.56A4.028,4.028,0,0,0,149.984,19.376Zm2.32.176c0,1.792.976,2.448,2.544,2.448h1.44V20.48h-1.12c-.768,0-1.024-.272-1.024-.928v-4.88h2.144V13.184h-2.144V10.992H152.3v2.192h-1.04v1.488h1.04Zm5.1-5.536h1.712a1.849,1.849,0,0,1,3.7.048c0,1.68-1.392,2-3.2,2h-.528l.08,2.512h1.584l.064-1.264c2.144,0,3.744-.992,3.744-3.248,0-2.08-1.456-3.344-3.6-3.344A3.232,3.232,0,0,0,157.408,14.016Zm3.68,6.928a1.16,1.16,0,1,0-1.152,1.168A1.151,1.151,0,0,0,161.088,20.944Z" transform="translate(-0.441 17.282)" fill="#0f72ee"/><path d="M.51-.08H5.32V-.84H1.88C3.17-1.89,5.11-3.42,5.11-5.22A2.034,2.034,0,0,0,2.87-7.36,2.215,2.215,0,0,0,.54-5.02h.88A1.429,1.429,0,0,1,2.88-6.58a1.221,1.221,0,0,1,1.33,1.4c0,1.48-1.8,2.92-3.7,4.45Zm6.9-.48a.606.606,0,0,0-.6-.62.611.611,0,0,0-.62.62.611.611,0,0,0,.62.62A.606.606,0,0,0,7.41-.56Zm0-4.28a.606.606,0,0,0-.6-.62.611.611,0,0,0-.62.62.611.611,0,0,0,.62.62A.606.606,0,0,0,7.41-4.84ZM8.39-.08H13.2V-.84H9.76c1.29-1.05,3.23-2.58,3.23-4.38a2.034,2.034,0,0,0-2.24-2.14A2.215,2.215,0,0,0,8.42-5.02H9.3a1.429,1.429,0,0,1,1.46-1.56,1.221,1.221,0,0,1,1.33,1.4c0,1.48-1.8,2.92-3.7,4.45ZM17.73,0h.9V-1.61h1V-2.4h-1V-7.16H17.54L14.03-2.3v.69h3.7ZM15.08-2.4l2.69-3.81V-2.4Zm9.19-1.26V-6.22h1.34c1.04,0,1.48.48,1.48,1.29,0,.78-.44,1.27-1.48,1.27Zm3.75-1.27c0-1.14-.77-2.04-2.41-2.04H23.36V0h.91V-2.91h1.34C27.34-2.91,28.02-3.87,28.02-4.93ZM29.15,0h.91V-5.17L32.37,0h.64l2.3-5.16V0h.91V-6.92h-.97L32.69-1.2,30.13-6.92h-.98Z" transform="translate(-0.441 60.282)" fill="#0f72ee"/></g></g><path d="M0,0H339a0,0,0,0,1,0,0V37a14,14,0,0,1-14,14H16A16,16,0,0,1,0,35V0A0,0,0,0,1,0,0Z" transform="translate(-0.164 119.088)" fill="#e5f0fd"/><path d="M.507-7.826H2.925V0H4.407V-7.826H6.812V-9.035H.507ZM11.128-1.7,9.113-7.163H7.462L10.283-.117,8.827,3.367h1.534l4.394-10.53H13.221ZM17.355-6.11V-7.163H15.873V3.406h1.482V-1.04a3.238,3.238,0,0,0,2.5,1.157,3.457,3.457,0,0,0,3.367-3.731A3.4,3.4,0,0,0,19.851-7.28,3.125,3.125,0,0,0,17.355-6.11Zm4.355,2.5A2.259,2.259,0,0,1,19.526-1.17a2.233,2.233,0,0,1-2.171-2.418,2.229,2.229,0,0,1,2.171-2.405A2.2,2.2,0,0,1,21.71-3.614ZM27.7-6.032a1.86,1.86,0,0,1,2,1.807H25.74A1.951,1.951,0,0,1,27.7-6.032Zm3.354,3.9h-1.6a1.734,1.734,0,0,1-1.69,1,1.97,1.97,0,0,1-2.041-1.9H31.2a4.572,4.572,0,0,0,.052-.728A3.341,3.341,0,0,0,27.768-7.28a3.43,3.43,0,0,0-3.575,3.692,3.475,3.475,0,0,0,3.575,3.7A3.273,3.273,0,0,0,31.057-2.132Zm7.852.429-2.015-5.46H35.243L38.064-.117,36.608,3.367h1.534l4.394-10.53H41Zm11.57-1.885A3.532,3.532,0,0,0,46.826-7.28a3.532,3.532,0,0,0-3.653,3.692,3.492,3.492,0,0,0,3.588,3.7A3.588,3.588,0,0,0,50.479-3.588Zm-5.8,0A2.134,2.134,0,0,1,46.8-5.993a2.167,2.167,0,0,1,2.158,2.405,2.206,2.206,0,0,1-2.2,2.418A2.119,2.119,0,0,1,44.681-3.588ZM58.435-7.163H56.953v3.991a1.736,1.736,0,0,1-1.807,1.989c-1.079,0-1.794-.676-1.794-1.989V-7.163H51.883v4.212A2.8,2.8,0,0,0,54.834.1a2.666,2.666,0,0,0,2.119-.962V0h1.482ZM61.867-3.77c0-1.521.676-1.976,1.768-1.976h.377V-7.28a2.333,2.333,0,0,0-2.145,1.157v-1.04H60.385V0h1.482ZM78.91,0h1.469V-4.225A2.8,2.8,0,0,0,77.428-7.28a2.8,2.8,0,0,0-2.5,1.417A2.763,2.763,0,0,0,72.358-7.28a2.728,2.728,0,0,0-2.119.936v-.819H68.757V0h1.482V-4a1.736,1.736,0,0,1,1.807-1.989c1.079,0,1.794.676,1.794,1.989V0h1.469V-4a1.736,1.736,0,0,1,1.807-1.989c1.079,0,1.794.676,1.794,1.989Zm6.37-6.032a1.86,1.86,0,0,1,2,1.807H83.317A1.951,1.951,0,0,1,85.28-6.032Zm3.354,3.9h-1.6a1.734,1.734,0,0,1-1.69,1,1.97,1.97,0,0,1-2.041-1.9h5.473a4.572,4.572,0,0,0,.052-.728A3.341,3.341,0,0,0,85.345-7.28,3.43,3.43,0,0,0,81.77-3.588a3.475,3.475,0,0,0,3.575,3.7A3.273,3.273,0,0,0,88.634-2.132ZM95.628-2c-.078-2.587-4.121-1.781-4.121-3.224,0-.481.416-.806,1.209-.806a1.185,1.185,0,0,1,1.339,1.053h1.482a2.456,2.456,0,0,0-2.769-2.3c-1.69,0-2.756.923-2.756,2.067,0,2.626,4.16,1.82,4.16,3.224,0,.494-.455.858-1.313.858A1.307,1.307,0,0,1,91.429-2.2H89.895C89.96-.9,91.169.117,92.885.117,94.575.117,95.628-.793,95.628-2Zm6.942,0c-.078-2.587-4.121-1.781-4.121-3.224,0-.481.416-.806,1.209-.806A1.185,1.185,0,0,1,101-4.979h1.482a2.456,2.456,0,0,0-2.769-2.3c-1.69,0-2.756.923-2.756,2.067,0,2.626,4.16,1.82,4.16,3.224,0,.494-.455.858-1.313.858A1.307,1.307,0,0,1,98.371-2.2H96.837C96.9-.9,98.111.117,99.827.117,101.517.117,102.57-.793,102.57-2Zm1.105-1.612A3.463,3.463,0,0,0,107.029.117a3.083,3.083,0,0,0,2.509-1.183V0h1.495V-7.163h-1.495v1.04a3.049,3.049,0,0,0-2.483-1.157A3.409,3.409,0,0,0,103.675-3.614Zm5.863.026a2.225,2.225,0,0,1-2.171,2.418A2.257,2.257,0,0,1,105.2-3.614a2.2,2.2,0,0,1,2.171-2.379A2.221,2.221,0,0,1,109.538-3.588Zm2.951-.026a3.467,3.467,0,0,0,3.38,3.731,3.075,3.075,0,0,0,2.483-1.2v1.2a1.908,1.908,0,0,1-2,2.132A2,2,0,0,1,114.309,1H112.84c.182,1.586,1.6,2.535,3.51,2.535a3.248,3.248,0,0,0,3.5-3.419v-7.28h-1.495v1.04a3.034,3.034,0,0,0-2.483-1.157A3.409,3.409,0,0,0,112.489-3.614Zm5.863.026a2.225,2.225,0,0,1-2.171,2.418,2.257,2.257,0,0,1-2.171-2.444,2.2,2.2,0,0,1,2.171-2.379A2.221,2.221,0,0,1,118.352-3.588Zm6.461-2.444a1.86,1.86,0,0,1,2,1.807H122.85A1.951,1.951,0,0,1,124.813-6.032Zm3.354,3.9h-1.6a1.734,1.734,0,0,1-1.69,1,1.97,1.97,0,0,1-2.041-1.9h5.473a4.572,4.572,0,0,0,.052-.728,3.341,3.341,0,0,0-3.484-3.523A3.43,3.43,0,0,0,121.3-3.588a3.475,3.475,0,0,0,3.575,3.7A3.273,3.273,0,0,0,128.167-2.132Zm3.185,1.274a.935.935,0,0,0-.936-.949.938.938,0,0,0-.949.949.938.938,0,0,0,.949.949A.935.935,0,0,0,131.352-.858Zm3.133,0a.935.935,0,0,0-.936-.949.938.938,0,0,0-.949.949.938.938,0,0,0,.949.949A.935.935,0,0,0,134.485-.858Z" transform="translate(41.836 149.088)" fill="#0f72ee" opacity="0.5"/><g transform="translate(78.645 -25.031)"><circle cx="14.5" cy="14.5" r="14.5" transform="translate(217.191 155.118)" fill="#0f72ee"/><path d="M.473,14.594,6.488,12.84,12.5,14.594a.239.239,0,0,0,.11.018.335.335,0,0,0,.276-.125.321.321,0,0,0,.055-.376L6.819.215a.363.363,0,0,0-.662,0L.031,14.111a.353.353,0,0,0,.055.376A.4.4,0,0,0,.473,14.594ZM6.488,1.271l5.463,12.41-5.1-1.486V7.718a.368.368,0,0,0-.736,0v4.477l-5.1,1.486Z" transform="translate(240.337 163.901) rotate(90)" fill="#fff" stroke="#fff" stroke-width="0.25"/></g><line x2="339" transform="translate(-0.164 119.088)" fill="none" stroke="#0f72ee" stroke-width="1" opacity="0.2"/><g transform="translate(-0.164 122.088)"><path d="M23,16a7,7,0,1,0,7,7A7.021,7.021,0,0,0,23,16Zm0,13.176A6.176,6.176,0,1,1,29.176,23,6.195,6.195,0,0,1,23,29.176Z" fill="#0f72ee"/><path d="M40.578,60.112a2.808,2.808,0,0,1-3.945,0,.368.368,0,0,0-.521.521,3.5,3.5,0,0,0,4.987,0,.368.368,0,0,0-.521-.521Z" transform="translate(-15.605 -34.808)" fill="#0f72ee"/><circle cx="0.93" cy="0.93" r="0.93" transform="translate(19.977 20.395)" fill="#0f72ee"/><circle cx="0.93" cy="0.93" r="0.93" transform="translate(24.163 20.395)" fill="#0f72ee"/></g></g></svg>