<svg xmlns="http://www.w3.org/2000/svg" width="328.675" height="248.215" viewBox="0 0 328.675 248.215"><g transform="translate(-965.758 -1847.298)"><path d="M-3.512-23.882C45.066-63.1,162.979-1.428,226.236,51.135S253.7,154.866,195.046,184.114,31.011,218.964-8.367,168.126-52.089,15.333-3.512-23.882Z" transform="translate(1034.802 1889.234)" fill="#00ceff"/><g transform="translate(965.758 1956.058)"><g transform="translate(0 0)"><path d="M-857.134,36.68h-.013a2.8,2.8,0,0,0-2.794,2.8,2.807,2.807,0,0,0,2.807,2.8,2.8,2.8,0,0,0,2.8-2.8A2.8,2.8,0,0,0-857.134,36.68Zm0,17.574h-.013a2.8,2.8,0,0,0-2.794,2.8,2.807,2.807,0,0,0,2.807,2.8,2.8,2.8,0,0,0,2.8-2.8A2.8,2.8,0,0,0-857.134,54.254Zm0,35.151h-.013a2.8,2.8,0,0,0-2.794,2.8,2.805,2.805,0,0,0,2.807,2.8,2.8,2.8,0,0,0,2.8-2.8A2.8,2.8,0,0,0-857.134,89.405Zm0-17.576h-.013a2.8,2.8,0,0,0-2.794,2.8,2.807,2.807,0,0,0,2.807,2.8,2.8,2.8,0,0,0,2.8-2.8A2.8,2.8,0,0,0-857.134,71.83Zm20.015-87.878h-.015a2.792,2.792,0,0,0-2.792,2.8,2.808,2.808,0,0,0,2.807,2.8,2.8,2.8,0,0,0,2.8-2.8A2.8,2.8,0,0,0-837.119-16.048ZM-857.134,19.1h-.013a2.8,2.8,0,0,0-2.794,2.8,2.808,2.808,0,0,0,2.807,2.8,2.8,2.8,0,0,0,2.8-2.8A2.8,2.8,0,0,0-857.134,19.1Zm-20.014,40.749a2.8,2.8,0,0,0,2.8-2.8,2.8,2.8,0,0,0-2.8-2.8h-.013a2.8,2.8,0,0,0-2.794,2.8A2.807,2.807,0,0,0-877.148,59.854Zm0,17.576a2.8,2.8,0,0,0,2.8-2.8,2.8,2.8,0,0,0-2.8-2.8h-.013a2.8,2.8,0,0,0-2.794,2.8A2.807,2.807,0,0,0-877.148,77.429Zm20.014-111.053h-.013a2.8,2.8,0,0,0-2.794,2.8,2.807,2.807,0,0,0,2.807,2.8,2.8,2.8,0,0,0,2.8-2.8A2.8,2.8,0,0,0-857.134-33.624Zm0,17.576h-.013a2.794,2.794,0,0,0-2.794,2.8,2.808,2.808,0,0,0,2.807,2.8,2.8,2.8,0,0,0,2.8-2.8A2.8,2.8,0,0,0-857.134-16.048Zm0,17.576h-.013a2.794,2.794,0,0,0-2.794,2.8,2.806,2.806,0,0,0,2.807,2.8,2.8,2.8,0,0,0,2.8-2.8A2.8,2.8,0,0,0-857.134,1.527ZM-797.09,42.28a2.8,2.8,0,0,0,2.8-2.8,2.8,2.8,0,0,0-2.8-2.8h-.015a2.793,2.793,0,0,0-2.792,2.8A2.806,2.806,0,0,0-797.09,42.28Zm0-17.576a2.8,2.8,0,0,0,2.8-2.8,2.8,2.8,0,0,0-2.8-2.8h-.015a2.793,2.793,0,0,0-2.792,2.8A2.808,2.808,0,0,0-797.09,24.7Zm-1.092-17.8a2.789,2.789,0,0,0,1.092.22,2.757,2.757,0,0,0,1.14-.255c.011,0,.019-.015.03-.019a2.791,2.791,0,0,0,.885-.661h0a2.77,2.77,0,0,0,.742-1.865,2.8,2.8,0,0,0-2.8-2.8h-.015a2.793,2.793,0,0,0-2.792,2.8h0v0A2.8,2.8,0,0,0-798.182,6.9Zm-76.987,83.321a3.071,3.071,0,0,0-.288-.2,2.746,2.746,0,0,0-1.691-.625h-.015a2.793,2.793,0,0,0-2.792,2.8,2.78,2.78,0,0,0,.8,1.951l0,0a2.79,2.79,0,0,0,2,.847,2.8,2.8,0,0,0,.418-.084h0l.006,0a2.746,2.746,0,0,0,1.66-.887,2.84,2.84,0,0,0,.165-.249,2.674,2.674,0,0,0,.344-.557,2.694,2.694,0,0,0,.205-1.009l0-.013a2.772,2.772,0,0,0-.722-1.835C-875.11,90.326-875.127,90.268-875.169,90.226Zm-1.979-47.946a2.8,2.8,0,0,0,2.8-2.8,2.8,2.8,0,0,0-2.8-2.8h-.013a2.8,2.8,0,0,0-2.794,2.8A2.807,2.807,0,0,0-877.148,42.28Zm40.029,29.55h-.015a2.793,2.793,0,0,0-2.792,2.8,2.807,2.807,0,0,0,2.807,2.8,2.8,2.8,0,0,0,2.8-2.8A2.8,2.8,0,0,0-837.119,71.83Zm0-52.725h-.015a2.793,2.793,0,0,0-2.792,2.8,2.808,2.808,0,0,0,2.807,2.8,2.8,2.8,0,0,0,2.8-2.8A2.8,2.8,0,0,0-837.119,19.1Zm0,17.576h-.015a2.793,2.793,0,0,0-2.792,2.8,2.807,2.807,0,0,0,2.807,2.8,2.8,2.8,0,0,0,2.8-2.8A2.8,2.8,0,0,0-837.119,36.68Zm0,17.574h-.015a2.793,2.793,0,0,0-2.792,2.8,2.807,2.807,0,0,0,2.807,2.8,2.8,2.8,0,0,0,2.8-2.8A2.8,2.8,0,0,0-837.119,54.254Zm0-52.727h-.015a2.792,2.792,0,0,0-2.792,2.8,2.806,2.806,0,0,0,2.807,2.8,2.8,2.8,0,0,0,2.8-2.8A2.8,2.8,0,0,0-837.119,1.527ZM-817.1-16.048h-.015a2.792,2.792,0,0,0-2.792,2.8,2.808,2.808,0,0,0,2.808,2.8,2.8,2.8,0,0,0,2.8-2.8A2.8,2.8,0,0,0-817.1-16.048Zm-20.015-11.976a2.8,2.8,0,0,0,2.8-2.8l0,0a2.712,2.712,0,0,0-.327-1.246c-.019-.036-.044-.063-.065-.1a2.752,2.752,0,0,0-.816-.9h0a2.725,2.725,0,0,0-1.588-.557h-.015a2.793,2.793,0,0,0-2.792,2.8A2.808,2.808,0,0,0-837.119-28.024ZM-817.1,54.254h-.015a2.793,2.793,0,0,0-2.792,2.8,2.806,2.806,0,0,0,2.808,2.8,2.8,2.8,0,0,0,2.8-2.8A2.8,2.8,0,0,0-817.1,54.254Zm0,17.576h-.015a2.793,2.793,0,0,0-2.792,2.8,2.806,2.806,0,0,0,2.808,2.8,2.8,2.8,0,0,0,2.8-2.8A2.8,2.8,0,0,0-817.1,71.83Zm0-70.3h-.015a2.792,2.792,0,0,0-2.792,2.8,2.806,2.806,0,0,0,2.808,2.8,2.8,2.8,0,0,0,2.8-2.8A2.8,2.8,0,0,0-817.1,1.527Zm0,35.153h-.015a2.793,2.793,0,0,0-2.792,2.8,2.806,2.806,0,0,0,2.808,2.8,2.8,2.8,0,0,0,2.8-2.8A2.8,2.8,0,0,0-817.1,36.68ZM-917.177,1.527h-.015a2.44,2.44,0,0,0-.891.179,2.719,2.719,0,0,0-.686.372h0l0,0a2.751,2.751,0,0,0-1.21,2.247,2.562,2.562,0,0,0,.068.336h0l0,.008a2.74,2.74,0,0,0,.883,1.723c.065.059.148.093.218.148a2.705,2.705,0,0,0,.6.374,2.652,2.652,0,0,0,1.031.209,2.8,2.8,0,0,0,2.581-1.71,2.805,2.805,0,0,0,.218-1.088,2.808,2.808,0,0,0-.218-1.09A2.8,2.8,0,0,0-917.177,1.527ZM-817.1,19.1h-.015a2.793,2.793,0,0,0-2.792,2.8,2.808,2.808,0,0,0,2.808,2.8,2.8,2.8,0,0,0,2.8-2.8A2.8,2.8,0,0,0-817.1,19.1ZM-917.177,54.254h-.015a2.655,2.655,0,0,0-.986.2,2.752,2.752,0,0,0-.426.239,3.018,3.018,0,0,0-.344.234,2.7,2.7,0,0,0-.469.519c-.027.04-.054.078-.08.12a2.676,2.676,0,0,0-.34.762l0,0h0a2.734,2.734,0,0,0-.144.726,2.78,2.78,0,0,0,1.586,2.492h0l0,0a2.742,2.742,0,0,0,1.2.3l.013,0a2.8,2.8,0,0,0,2.8-2.8,2.822,2.822,0,0,0-.218-1.09A2.8,2.8,0,0,0-917.177,54.254Zm0-35.149h-.015a2.794,2.794,0,0,0-2.792,2.8,2.809,2.809,0,0,0,2.807,2.8,2.8,2.8,0,0,0,2.8-2.8A2.8,2.8,0,0,0-917.177,19.1Zm0,17.576h-.015a2.8,2.8,0,0,0-2.792,2.8,2.808,2.808,0,0,0,2.807,2.8,2.8,2.8,0,0,0,2.8-2.8A2.8,2.8,0,0,0-917.177,36.68ZM-897.161,19.1h-.015a2.793,2.793,0,0,0-2.792,2.8,2.808,2.808,0,0,0,2.807,2.8,2.8,2.8,0,0,0,2.8-2.8A2.8,2.8,0,0,0-897.161,19.1Zm20.013-47.129a2.8,2.8,0,0,0,2.8-2.8,2.8,2.8,0,0,0-2.8-2.8h-.013a2.8,2.8,0,0,0-2.794,2.8A2.807,2.807,0,0,0-877.148-28.024Zm0,35.149a2.8,2.8,0,0,0,2.8-2.8,2.8,2.8,0,0,0-2.8-2.8h-.013a2.794,2.794,0,0,0-2.794,2.8A2.806,2.806,0,0,0-877.148,7.125Zm0-17.574a2.8,2.8,0,0,0,2.8-2.8,2.8,2.8,0,0,0-2.8-2.8h-.013a2.794,2.794,0,0,0-2.794,2.8A2.808,2.808,0,0,0-877.148-10.449Zm-20.013,64.7h-.015a2.793,2.793,0,0,0-2.792,2.8,2.807,2.807,0,0,0,2.807,2.8,2.8,2.8,0,0,0,2.8-2.8A2.8,2.8,0,0,0-897.161,54.254Zm0-17.574h-.015a2.793,2.793,0,0,0-2.792,2.8,2.807,2.807,0,0,0,2.807,2.8,2.8,2.8,0,0,0,2.8-2.8A2.8,2.8,0,0,0-897.161,36.68Zm0-52.729h-.015a2.792,2.792,0,0,0-2.792,2.8,2.808,2.808,0,0,0,2.807,2.8,2.8,2.8,0,0,0,2.8-2.8A2.8,2.8,0,0,0-897.161-16.048ZM-877.148,24.7a2.8,2.8,0,0,0,2.8-2.8,2.8,2.8,0,0,0-2.8-2.8h-.013a2.8,2.8,0,0,0-2.794,2.8A2.808,2.808,0,0,0-877.148,24.7ZM-897.161,71.83h-.015a2.793,2.793,0,0,0-2.792,2.8,2.807,2.807,0,0,0,2.807,2.8,2.8,2.8,0,0,0,2.8-2.8A2.8,2.8,0,0,0-897.161,71.83Zm0-70.3h-.015a2.792,2.792,0,0,0-2.792,2.8,2.806,2.806,0,0,0,2.807,2.8,2.8,2.8,0,0,0,2.8-2.8A2.8,2.8,0,0,0-897.161,1.527Zm101.11,52.938a2.708,2.708,0,0,0-.883-.179c-.053,0-.1-.032-.156-.032h-.015a2.793,2.793,0,0,0-2.792,2.8,2.711,2.711,0,0,0,.216,1.056,2.717,2.717,0,0,0,.4.612c.059.074.093.165.158.234a2.77,2.77,0,0,0,1.825.855l.011,0h0c.07,0,.129.04.2.04a2.8,2.8,0,0,0,2.8-2.8A2.789,2.789,0,0,0-796.051,54.465Zm-41.068,34.94h-.015a2.726,2.726,0,0,0-1.688.627,2.7,2.7,0,0,0-.287.194,2.789,2.789,0,0,0-.771,1.761c-.007.076-.046.142-.046.218h0a2.677,2.677,0,0,0,.2.974,2.316,2.316,0,0,0,.131.275,2.915,2.915,0,0,0,.374.555,2.7,2.7,0,0,0,.219.241,2.776,2.776,0,0,0,.754.507h0a2.78,2.78,0,0,0,1.13.247,2.77,2.77,0,0,0,2.631-1.958,2.369,2.369,0,0,0,.165-.824l0-.017A2.8,2.8,0,0,0-837.119,89.405Z" transform="translate(919.984 33.624)" fill="#00ceff"/></g></g><g transform="matrix(0.966, 0.259, -0.259, 0.966, 1106.1, 1834)"><path d="M0,0A71.778,71.778,0,0,0,5.984,5.739H98.632A71.783,71.783,0,0,0,104.617,0Z" transform="translate(19.043 119.858)" fill="#00ceff"/><path d="M0,0Q1.841,2.869,3.944,5.546H116.211q2.1-2.675,3.946-5.546Z" transform="translate(11.274 109.822)" fill="#00ceff"/><path d="M71.348,5.931A71.325,71.325,0,0,0,81.535,0H0A71.3,71.3,0,0,0,10.186,5.931Z" transform="translate(30.584 129.894)" fill="#00ceff"/><path d="M39.941,2.854A71.3,71.3,0,0,0,0,2.854Z" transform="translate(51.381 0)" fill="#00ceff"/><path d="M0,0Q1.19,2.737,2.593,5.356H128.3Q129.708,2.743,130.892,0Z" transform="translate(5.906 99.783)" fill="#00ceff"/><path d="M0,1.677c0,1.041.035,2.074.079,3.1H142.625c.043-1.029.078-2.062.078-3.1,0-.562-.029-1.118-.043-1.677H.043C.029.56,0,1.116,0,1.677Z" transform="translate(0 69.673)" fill="#00ceff"/><path d="M0,3.824H105.507C104.3,2.5,103.032,1.231,101.728,0H3.781C2.477,1.231,1.208,2.5,0,3.824Z" transform="translate(18.598 19.487)" fill="#00ceff"/><path d="M1.94,0C1.253,1.379.6,2.777,0,4.207H131.638c-.6-1.43-1.255-2.828-1.942-4.207Z" transform="translate(5.533 39.562)" fill="#00ceff"/><path d="M0,0C.465,1.75,1,3.471,1.595,5.164H136.3q.89-2.54,1.593-5.164Z" transform="translate(2.406 89.747)" fill="#00ceff"/><path d="M2.708,0Q1.288,1.959,0,4.015H121Q119.714,1.961,118.291,0Z" transform="translate(10.851 29.524)" fill="#00ceff"/><path d="M0,0A71.313,71.313,0,0,0,19.676,2.769,71.324,71.324,0,0,0,39.352,0Z" transform="translate(51.676 139.932)" fill="#00ceff"/><path d="M5.686,0Q2.752,1.682,0,3.631H82.309Q79.558,1.684,76.623,0Z" transform="translate(30.197 9.451)" fill="#00ceff"/><path d="M0,0Q.295,2.516.76,4.973H140.938Q141.4,2.516,141.7,0Z" transform="translate(0.503 79.709)" fill="#00ceff"/><path d="M.619,0C.367,1.514.153,3.042,0,4.588H141.993c-.153-1.546-.369-3.074-.619-4.588Z" transform="translate(0.355 59.636)" fill="#00ceff"/><path d="M1.251,0Q.559,2.171,0,4.4H138.43q-.557-2.23-1.253-4.4Z" transform="translate(2.137 49.598)" fill="#00ceff"/></g><g transform="translate(1156.393 2016.904)"><g transform="translate(0)"><path d="M555.192,25.431a2.824,2.824,0,1,0-2-.827,2.847,2.847,0,0,0,2,.827" transform="translate(-552.369 -8.189)" fill="#fff"/><path d="M575.813,25.431h.014a2.823,2.823,0,1,0,0-5.646h-.014a2.823,2.823,0,1,0,0,5.646Z" transform="translate(-543.885 -8.189)" fill="#fff"/><path d="M565.5,25.431h.014a2.823,2.823,0,0,0,0-5.646H565.5a2.823,2.823,0,1,0,0,5.646Z" transform="translate(-548.128 -8.189)" fill="#fff"/><path d="M555.192,17.215a2.824,2.824,0,1,0-2-.827,2.841,2.841,0,0,0,2,.827" transform="translate(-552.369 -11.569)" fill="#fff"/><path d="M575.813,17.215h.014a2.823,2.823,0,1,0,0-5.646h-.014a2.823,2.823,0,1,0,0,5.646Z" transform="translate(-543.885 -11.569)" fill="#fff"/><path d="M565.5,17.215h.014a2.823,2.823,0,0,0,0-5.646H565.5a2.823,2.823,0,1,0,0,5.646Z" transform="translate(-548.128 -11.569)" fill="#fff"/><path d="M555.192,33.646a2.824,2.824,0,1,0-2-.827,2.841,2.841,0,0,0,2,.827" transform="translate(-552.369 -4.809)" fill="#fff"/><path d="M575.813,33.646h.014a2.823,2.823,0,1,0,0-5.646h-.014a2.823,2.823,0,1,0,0,5.646Z" transform="translate(-543.885 -4.809)" fill="#fff"/><path d="M565.5,33.646h.014a2.823,2.823,0,0,0,0-5.646H565.5a2.823,2.823,0,1,0,0,5.646Z" transform="translate(-548.128 -4.809)" fill="#fff"/></g><g transform="translate(0 35.285)"><path d="M555.192,25.431a2.824,2.824,0,1,0-2-.827,2.847,2.847,0,0,0,2,.827" transform="translate(-552.369 -8.189)" fill="#fff"/><path d="M575.813,25.431h.014a2.823,2.823,0,1,0,0-5.646h-.014a2.823,2.823,0,1,0,0,5.646Z" transform="translate(-543.885 -8.189)" fill="#fff"/><path d="M565.5,25.431h.014a2.823,2.823,0,0,0,0-5.646H565.5a2.823,2.823,0,1,0,0,5.646Z" transform="translate(-548.128 -8.189)" fill="#fff"/><path d="M555.192,17.215a2.824,2.824,0,1,0-2-.827,2.841,2.841,0,0,0,2,.827" transform="translate(-552.369 -11.569)" fill="#fff"/><path d="M575.813,17.215h.014a2.823,2.823,0,1,0,0-5.646h-.014a2.823,2.823,0,1,0,0,5.646Z" transform="translate(-543.885 -11.569)" fill="#fff"/><path d="M565.5,17.215h.014a2.823,2.823,0,0,0,0-5.646H565.5a2.823,2.823,0,1,0,0,5.646Z" transform="translate(-548.128 -11.569)" fill="#fff"/><path d="M555.192,33.646a2.824,2.824,0,1,0-2-.827,2.841,2.841,0,0,0,2,.827" transform="translate(-552.369 -4.809)" fill="#fff"/><path d="M575.813,33.646h.014a2.823,2.823,0,1,0,0-5.646h-.014a2.823,2.823,0,1,0,0,5.646Z" transform="translate(-543.885 -4.809)" fill="#fff"/><path d="M565.5,33.646h.014a2.823,2.823,0,0,0,0-5.646H565.5a2.823,2.823,0,1,0,0,5.646Z" transform="translate(-548.128 -4.809)" fill="#fff"/></g><g transform="translate(42.342)"><path d="M555.192,25.431a2.824,2.824,0,1,0-2-.827,2.847,2.847,0,0,0,2,.827" transform="translate(-552.369 -8.189)" fill="#fff"/><path d="M575.813,25.431h.014a2.823,2.823,0,1,0,0-5.646h-.014a2.823,2.823,0,1,0,0,5.646Z" transform="translate(-543.885 -8.189)" fill="#fff"/><path d="M565.5,25.431h.014a2.823,2.823,0,0,0,0-5.646H565.5a2.823,2.823,0,1,0,0,5.646Z" transform="translate(-548.128 -8.189)" fill="#fff"/><path d="M555.192,17.215a2.824,2.824,0,1,0-2-.827,2.841,2.841,0,0,0,2,.827" transform="translate(-552.369 -11.569)" fill="#fff"/><path d="M575.813,17.215h.014a2.823,2.823,0,1,0,0-5.646h-.014a2.823,2.823,0,1,0,0,5.646Z" transform="translate(-543.885 -11.569)" fill="#fff"/><path d="M565.5,17.215h.014a2.823,2.823,0,0,0,0-5.646H565.5a2.823,2.823,0,1,0,0,5.646Z" transform="translate(-548.128 -11.569)" fill="#fff"/><path d="M555.192,33.646a2.824,2.824,0,1,0-2-.827,2.841,2.841,0,0,0,2,.827" transform="translate(-552.369 -4.809)" fill="#fff"/><path d="M575.813,33.646h.014a2.823,2.823,0,1,0,0-5.646h-.014a2.823,2.823,0,1,0,0,5.646Z" transform="translate(-543.885 -4.809)" fill="#fff"/><path d="M565.5,33.646h.014a2.823,2.823,0,0,0,0-5.646H565.5a2.823,2.823,0,1,0,0,5.646Z" transform="translate(-548.128 -4.809)" fill="#fff"/></g><g transform="translate(42.342 35.285)"><path d="M555.192,25.431a2.824,2.824,0,1,0-2-.827,2.847,2.847,0,0,0,2,.827" transform="translate(-552.369 -8.189)" fill="#fff"/><path d="M575.813,25.431h.014a2.823,2.823,0,1,0,0-5.646h-.014a2.823,2.823,0,1,0,0,5.646Z" transform="translate(-543.885 -8.189)" fill="#fff"/><path d="M565.5,25.431h.014a2.823,2.823,0,0,0,0-5.646H565.5a2.823,2.823,0,1,0,0,5.646Z" transform="translate(-548.128 -8.189)" fill="#fff"/><path d="M555.192,17.215a2.824,2.824,0,1,0-2-.827,2.841,2.841,0,0,0,2,.827" transform="translate(-552.369 -11.569)" fill="#fff"/><path d="M575.813,17.215h.014a2.823,2.823,0,1,0,0-5.646h-.014a2.823,2.823,0,1,0,0,5.646Z" transform="translate(-543.885 -11.569)" fill="#fff"/><path d="M565.5,17.215h.014a2.823,2.823,0,0,0,0-5.646H565.5a2.823,2.823,0,1,0,0,5.646Z" transform="translate(-548.128 -11.569)" fill="#fff"/><path d="M555.192,33.646a2.824,2.824,0,1,0-2-.827,2.841,2.841,0,0,0,2,.827" transform="translate(-552.369 -4.809)" fill="#fff"/><path d="M575.813,33.646h.014a2.823,2.823,0,1,0,0-5.646h-.014a2.823,2.823,0,1,0,0,5.646Z" transform="translate(-543.885 -4.809)" fill="#fff"/><path d="M565.5,33.646h.014a2.823,2.823,0,0,0,0-5.646H565.5a2.823,2.823,0,1,0,0,5.646Z" transform="translate(-548.128 -4.809)" fill="#fff"/></g></g></g></svg>