<svg xmlns="http://www.w3.org/2000/svg" xmlns:xlink="http://www.w3.org/1999/xlink" width="440" height="269" viewBox="0 0 440 269"><defs><filter id="a" x="0" y="0" width="440" height="269" filterUnits="userSpaceOnUse"><feOffset dy="6" input="SourceAlpha"/><feGaussianBlur stdDeviation="21" result="b"/><feFlood flood-opacity="0.161"/><feComposite operator="in" in2="b"/><feComposite in="SourceGraphic"/></filter></defs><g transform="translate(62.809 4.882)"><g transform="matrix(1, 0, 0, 1, -62.81, -4.88)" filter="url(#a)"><rect width="314" height="143" rx="16" transform="translate(63 57)" fill="#fff"/></g><path d="M0,0H314a0,0,0,0,1,0,0V37a14,14,0,0,1-14,14H16A16,16,0,0,1,0,35V0A0,0,0,0,1,0,0Z" transform="translate(0.191 144.118)" fill="#e5f0fd"/><path d="M2.366,0h1.56L5.369-5.291,6.812,0h1.56L10.6-7.163H9.139L7.657-1.43,6.2-7.163H4.654L3.133-1.4,1.638-7.163H.13ZM11.7,0h1.482V-4a1.736,1.736,0,0,1,1.807-1.989c1.079,0,1.794.676,1.794,1.989V0h1.469V-4.225A2.762,2.762,0,0,0,15.405-7.28a2.839,2.839,0,0,0-2.223.949V-9.62H11.7Zm7.943-3.614A3.463,3.463,0,0,0,23,.117a3.083,3.083,0,0,0,2.509-1.183V0H27V-7.163H25.506v1.04A3.049,3.049,0,0,0,23.023-7.28,3.409,3.409,0,0,0,19.643-3.614Zm5.863.026A2.225,2.225,0,0,1,23.335-1.17a2.257,2.257,0,0,1-2.171-2.444,2.2,2.2,0,0,1,2.171-2.379A2.221,2.221,0,0,1,25.506-3.588Zm3.679,1.6C29.185-.533,29.978,0,31.252,0h1.17V-1.235h-.91c-.624,0-.832-.221-.832-.754V-5.954h1.742V-7.163H30.68V-8.944h-1.5v1.781H28.34v1.209h.845Zm7.488-1.625A3.463,3.463,0,0,0,40.027.117a3.083,3.083,0,0,0,2.509-1.183V0h1.495V-7.163H42.536v1.04A3.049,3.049,0,0,0,40.053-7.28,3.409,3.409,0,0,0,36.673-3.614Zm5.863.026A2.225,2.225,0,0,1,40.365-1.17a2.257,2.257,0,0,1-2.171-2.444,2.2,2.2,0,0,1,2.171-2.379A2.221,2.221,0,0,1,42.536-3.588Zm4.927-.182c0-1.521.676-1.976,1.768-1.976h.377V-7.28a2.333,2.333,0,0,0-2.145,1.157v-1.04H45.981V0h1.482Zm6.526-2.262a1.86,1.86,0,0,1,2,1.807H52.026A1.951,1.951,0,0,1,53.989-6.032Zm3.354,3.9h-1.6a1.734,1.734,0,0,1-1.69,1,1.97,1.97,0,0,1-2.041-1.9h5.473a4.572,4.572,0,0,0,.052-.728A3.341,3.341,0,0,0,54.054-7.28a3.43,3.43,0,0,0-3.575,3.692,3.475,3.475,0,0,0,3.575,3.7A3.273,3.273,0,0,0,57.343-2.132Zm5.265.143C62.608-.533,63.4,0,64.675,0h1.17V-1.235h-.91c-.624,0-.832-.221-.832-.754V-5.954h1.742V-7.163H64.1V-8.944H62.608v1.781h-.845v1.209h.845ZM67.21,0h1.482V-4A1.736,1.736,0,0,1,70.5-5.993c1.079,0,1.794.676,1.794,1.989V0h1.469V-4.225A2.762,2.762,0,0,0,70.915-7.28a2.839,2.839,0,0,0-2.223.949V-9.62H67.21ZM78.663-6.032a1.86,1.86,0,0,1,2,1.807H76.7A1.951,1.951,0,0,1,78.663-6.032Zm3.354,3.9h-1.6a1.734,1.734,0,0,1-1.69,1,1.97,1.97,0,0,1-2.041-1.9H82.16a4.572,4.572,0,0,0,.052-.728A3.341,3.341,0,0,0,78.728-7.28a3.43,3.43,0,0,0-3.575,3.692,3.475,3.475,0,0,0,3.575,3.7A3.273,3.273,0,0,0,82.017-2.132ZM88.53-6.11V-7.163H87.048V3.406H88.53V-1.04a3.238,3.238,0,0,0,2.5,1.157,3.457,3.457,0,0,0,3.367-3.731A3.4,3.4,0,0,0,91.026-7.28,3.125,3.125,0,0,0,88.53-6.11Zm4.355,2.5A2.259,2.259,0,0,1,90.7-1.17,2.233,2.233,0,0,1,88.53-3.588,2.229,2.229,0,0,1,90.7-5.993,2.2,2.2,0,0,1,92.885-3.614Zm9.8.026A3.532,3.532,0,0,0,99.034-7.28a3.532,3.532,0,0,0-3.653,3.692,3.492,3.492,0,0,0,3.588,3.7A3.588,3.588,0,0,0,102.687-3.588Zm-5.8,0a2.134,2.134,0,0,1,2.119-2.405,2.167,2.167,0,0,1,2.158,2.405,2.206,2.206,0,0,1-2.2,2.418A2.119,2.119,0,0,1,96.889-3.588ZM104.156,0h1.482V-9.62h-1.482Zm3.432,0h1.482V-7.163h-1.482Zm.754-8.112a.935.935,0,0,0,.936-.949.935.935,0,0,0-.936-.949.938.938,0,0,0-.949.949A.938.938,0,0,0,108.342-8.112Zm2.184,4.524a3.426,3.426,0,0,0,3.51,3.7,3.217,3.217,0,0,0,3.3-2.379h-1.6a1.636,1.636,0,0,1-1.7,1.131c-1.2,0-1.989-.884-1.989-2.457s.793-2.444,1.989-2.444a1.674,1.674,0,0,1,1.7,1.131h1.6a3.116,3.116,0,0,0-3.3-2.379A3.422,3.422,0,0,0,110.526-3.588ZM118.82,0H120.3V-7.163H118.82Zm.754-8.112a.935.935,0,0,0,.936-.949.935.935,0,0,0-.936-.949.938.938,0,0,0-.949.949A.938.938,0,0,0,119.574-8.112Zm5.694,2.08a1.86,1.86,0,0,1,2,1.807h-3.965A1.951,1.951,0,0,1,125.268-6.032Zm3.354,3.9h-1.6a1.734,1.734,0,0,1-1.69,1,1.97,1.97,0,0,1-2.041-1.9h5.473a4.572,4.572,0,0,0,.052-.728,3.341,3.341,0,0,0-3.484-3.523,3.43,3.43,0,0,0-3.575,3.692,3.475,3.475,0,0,0,3.575,3.7A3.273,3.273,0,0,0,128.622-2.132Zm6.994.13c-.078-2.587-4.121-1.781-4.121-3.224,0-.481.416-.806,1.209-.806a1.185,1.185,0,0,1,1.339,1.053h1.482a2.456,2.456,0,0,0-2.769-2.3c-1.69,0-2.756.923-2.756,2.067,0,2.626,4.16,1.82,4.16,3.224,0,.494-.455.858-1.313.858a1.307,1.307,0,0,1-1.43-1.066h-1.534c.065,1.3,1.274,2.314,2.99,2.314C134.563.117,135.616-.793,135.616-2Z" transform="translate(42.191 174.118)" fill="#0f72ee"/><path d="M2.834.013,4.147,0,6.331-7.293,8.437,0H9.763l2.626-9.061H11.115L9.126-1.4,7.046-9.061H5.72L3.536-1.378,1.56-9.061H.3ZM13.689,0h1.183V-3.939c0-1.534.832-2.288,2.041-2.288s1.989.741,1.989,2.2V0h1.17V-4.2a2.748,2.748,0,0,0-2.847-3.055A2.681,2.681,0,0,0,14.872-6.1V-9.62H13.689Zm7.878-3.588a3.426,3.426,0,0,0,3.367,3.7A2.975,2.975,0,0,0,27.6-1.326V0h1.2V-7.124H27.6v1.3a2.956,2.956,0,0,0-2.652-1.417A3.376,3.376,0,0,0,21.567-3.588Zm6.032.013A2.438,2.438,0,0,1,25.181-.923a2.44,2.44,0,0,1-2.405-2.665,2.4,2.4,0,0,1,2.405-2.626A2.441,2.441,0,0,1,27.6-3.575ZM31.057-1.95c0,1.43.715,1.95,1.976,1.95H34.1V-1h-.871c-.728,0-.988-.247-.988-.949v-4.2H34.1v-.975H32.24V-8.918H31.057v1.794h-.923v.975h.923Zm7.5-1.638a3.426,3.426,0,0,0,3.367,3.7A2.975,2.975,0,0,0,44.59-1.326V0h1.2V-7.124h-1.2v1.3a2.956,2.956,0,0,0-2.652-1.417A3.376,3.376,0,0,0,38.558-3.588Zm6.032.013A2.438,2.438,0,0,1,42.172-.923a2.44,2.44,0,0,1-2.4-2.665,2.4,2.4,0,0,1,2.4-2.626A2.441,2.441,0,0,1,44.59-3.575Zm4.381-.3c0-1.651.858-2.158,1.989-2.158h.312V-7.254a2.4,2.4,0,0,0-2.3,1.287V-7.124H47.788V0h1.183ZM55.666-6.24a2.09,2.09,0,0,1,2.249,2.158h-4.5A2.206,2.206,0,0,1,55.666-6.24ZM58.994-2.2H57.72a1.958,1.958,0,0,1-2,1.313A2.239,2.239,0,0,1,53.4-3.12H59.1a6.412,6.412,0,0,0,.039-.715,3.266,3.266,0,0,0-3.419-3.406,3.39,3.39,0,0,0-3.523,3.666A3.432,3.432,0,0,0,55.718.117,3.2,3.2,0,0,0,58.994-2.2Zm5.434.247C64.428-.52,65.143,0,66.4,0H67.47V-1H66.6c-.728,0-.988-.247-.988-.949v-4.2H67.47v-.975H65.611V-8.918H64.428v1.794h-.923v.975h.923ZM68.9,0h1.183V-3.939c0-1.534.832-2.288,2.041-2.288s1.989.741,1.989,2.2V0h1.17V-4.2a2.748,2.748,0,0,0-2.847-3.055A2.681,2.681,0,0,0,70.083-6.1V-9.62H68.9ZM80.249-6.24A2.09,2.09,0,0,1,82.5-4.082H78A2.206,2.206,0,0,1,80.249-6.24ZM83.577-2.2H82.3a1.958,1.958,0,0,1-2,1.313A2.239,2.239,0,0,1,77.987-3.12h5.694a6.412,6.412,0,0,0,.039-.715A3.266,3.266,0,0,0,80.3-7.241a3.39,3.39,0,0,0-3.523,3.666A3.432,3.432,0,0,0,80.3.117,3.2,3.2,0,0,0,83.577-2.2Zm6.357-3.614V-7.124H88.751V3.38h1.183V-1.313A3.082,3.082,0,0,0,92.6.117a3.428,3.428,0,0,0,3.38-3.7A3.376,3.376,0,0,0,92.6-7.241,3.009,3.009,0,0,0,89.934-5.811ZM94.77-3.588A2.442,2.442,0,0,1,92.352-.923a2.445,2.445,0,0,1-2.418-2.652,2.448,2.448,0,0,1,2.418-2.639A2.408,2.408,0,0,1,94.77-3.588Zm9.529.013a3.477,3.477,0,0,0-3.6-3.666,3.484,3.484,0,0,0-3.6,3.666A3.458,3.458,0,0,0,100.646.117,3.532,3.532,0,0,0,104.3-3.575Zm-5.993,0a2.362,2.362,0,0,1,2.379-2.639,2.393,2.393,0,0,1,2.4,2.639,2.418,2.418,0,0,1-2.444,2.652A2.346,2.346,0,0,1,98.306-3.575ZM105.859,0h1.183V-9.62h-1.183Zm3.2,0h1.183V-7.124h-1.183Zm.611-8.281a.788.788,0,0,0,.78-.806.788.788,0,0,0-.78-.806.794.794,0,0,0-.806.806A.794.794,0,0,0,109.668-8.281Zm2.145,4.706A3.393,3.393,0,0,0,115.284.117a3.169,3.169,0,0,0,3.289-2.405H117.3a1.911,1.911,0,0,1-2.015,1.4c-1.3,0-2.262-.923-2.262-2.691,0-1.742.962-2.665,2.262-2.665a1.941,1.941,0,0,1,2.015,1.4h1.274a3.1,3.1,0,0,0-3.289-2.4A3.385,3.385,0,0,0,111.813-3.575ZM120.146,0h1.183V-7.124h-1.183Zm.611-8.281a.788.788,0,0,0,.78-.806.788.788,0,0,0-.78-.806.794.794,0,0,0-.806.806A.794.794,0,0,0,120.757-8.281Zm5.616,2.041a2.09,2.09,0,0,1,2.249,2.158h-4.5A2.206,2.206,0,0,1,126.373-6.24ZM129.7-2.2h-1.274a1.958,1.958,0,0,1-2,1.313,2.239,2.239,0,0,1-2.314-2.236h5.694a6.412,6.412,0,0,0,.039-.715,3.266,3.266,0,0,0-3.419-3.406A3.39,3.39,0,0,0,122.9-3.575,3.432,3.432,0,0,0,126.425.117,3.2,3.2,0,0,0,129.7-2.2Zm6.825.26c-.052-2.548-4.186-1.625-4.186-3.315,0-.572.52-.988,1.391-.988a1.37,1.37,0,0,1,1.547,1.235h1.183a2.39,2.39,0,0,0-2.691-2.236c-1.586,0-2.613.9-2.613,1.989,0,2.652,4.212,1.729,4.212,3.315,0,.585-.52,1.053-1.456,1.053-1,0-1.612-.52-1.677-1.209h-1.222c.078,1.3,1.248,2.21,2.912,2.21C135.5.117,136.526-.767,136.526-1.937ZM141.661,0h1.846V-5.707h1.261V-7.2h-1.261v-.3c0-.806.3-1.092,1.183-1.066V-10.1c-2.028-.052-3.029.767-3.029,2.535V-7.2h-.819v1.495h.819Zm11.245-3.6A3.559,3.559,0,0,0,149.2-7.319,3.559,3.559,0,0,0,145.5-3.6,3.525,3.525,0,0,0,149.149.117,3.6,3.6,0,0,0,152.906-3.6Zm-5.564,0a1.875,1.875,0,0,1,1.833-2.132A1.892,1.892,0,0,1,151.034-3.6a1.917,1.917,0,0,1-1.885,2.132C148.174-1.469,147.342-2.171,147.342-3.6Zm8.723.013c0-1.391.65-1.807,1.729-1.807h.481V-7.306a2.5,2.5,0,0,0-2.21,1.222V-7.2h-1.82V0h1.82Zm8.346,0c0-1.391.65-1.807,1.729-1.807h.481V-7.306a2.5,2.5,0,0,0-2.21,1.222V-7.2h-1.82V0h1.82Zm6.526-2.236a1.6,1.6,0,0,1,1.716,1.547h-3.419A1.672,1.672,0,0,1,170.937-5.824Zm3.419,3.562h-1.963a1.484,1.484,0,0,1-1.443.871,1.685,1.685,0,0,1-1.729-1.664h5.265a4.254,4.254,0,0,0,.052-.7,3.381,3.381,0,0,0-3.549-3.562A3.46,3.46,0,0,0,167.375-3.6,3.488,3.488,0,0,0,170.989.117,3.347,3.347,0,0,0,174.356-2.262ZM175.864,0h1.82V-7.2h-1.82Zm.923-8.06A1.075,1.075,0,0,0,177.9-9.126a1.075,1.075,0,0,0-1.118-1.066,1.067,1.067,0,0,0-1.118,1.066A1.067,1.067,0,0,0,176.787-8.06ZM189.553,0h1.82V-4.225a2.8,2.8,0,0,0-2.951-3.081,2.851,2.851,0,0,0-2.47,1.378,2.757,2.757,0,0,0-2.535-1.378,2.622,2.622,0,0,0-2.119.975V-7.2h-1.82V0h1.82V-3.978a1.538,1.538,0,0,1,1.625-1.742,1.532,1.532,0,0,1,1.6,1.742V0h1.82V-3.978a1.535,1.535,0,0,1,1.612-1.742,1.532,1.532,0,0,1,1.6,1.742Zm5.369-6.149V-9.62H193.1V0h1.82V-1.027A2.836,2.836,0,0,0,197.3.117c1.846,0,3.289-1.5,3.289-3.744s-1.443-3.692-3.289-3.692A2.806,2.806,0,0,0,194.922-6.149Zm3.809,2.522a1.97,1.97,0,0,1-1.911,2.145,1.944,1.944,0,0,1-1.9-2.119,1.944,1.944,0,0,1,1.9-2.119A1.923,1.923,0,0,1,198.731-3.627ZM208.715-7.2h-1.833v3.965c0,1.157-.624,1.781-1.612,1.781a1.558,1.558,0,0,1-1.6-1.781V-7.2h-1.82v4.225A2.775,2.775,0,0,0,204.737.091a2.656,2.656,0,0,0,2.145-1V0h1.833Zm3.614,3.614c0-1.391.65-1.807,1.729-1.807h.481V-7.306a2.5,2.5,0,0,0-2.21,1.222V-7.2h-1.82V0h1.82Zm9.022,1.534c-.052-2.639-4.043-1.82-4.043-3.133,0-.416.351-.689,1.027-.689a1.073,1.073,0,0,1,1.209.936h1.742a2.58,2.58,0,0,0-2.9-2.379c-1.781,0-2.847.962-2.847,2.158,0,2.639,4.069,1.82,4.069,3.107,0,.416-.39.741-1.1.741a1.2,1.2,0,0,1-1.3-.962h-1.833c.078,1.339,1.339,2.392,3.146,2.392C220.272.117,221.351-.819,221.351-2.054Zm4.589-3.77a1.6,1.6,0,0,1,1.716,1.547h-3.419A1.672,1.672,0,0,1,225.94-5.824Zm3.419,3.562H227.4a1.484,1.484,0,0,1-1.443.871,1.685,1.685,0,0,1-1.729-1.664h5.265a4.254,4.254,0,0,0,.052-.7,3.381,3.381,0,0,0-3.549-3.562A3.46,3.46,0,0,0,222.378-3.6,3.488,3.488,0,0,0,225.992.117,3.347,3.347,0,0,0,229.359-2.262ZM240.942,0h1.82V-4.225a2.8,2.8,0,0,0-2.951-3.081,2.851,2.851,0,0,0-2.47,1.378,2.757,2.757,0,0,0-2.535-1.378,2.622,2.622,0,0,0-2.119.975V-7.2h-1.82V0h1.82V-3.978a1.538,1.538,0,0,1,1.625-1.742,1.532,1.532,0,0,1,1.6,1.742V0h1.82V-3.978a1.535,1.535,0,0,1,1.612-1.742,1.532,1.532,0,0,1,1.6,1.742Zm6.643-5.824A1.6,1.6,0,0,1,249.3-4.277h-3.419A1.672,1.672,0,0,1,247.585-5.824ZM251-2.262h-1.963a1.484,1.484,0,0,1-1.443.871,1.685,1.685,0,0,1-1.729-1.664h5.265a4.254,4.254,0,0,0,.052-.7,3.381,3.381,0,0,0-3.549-3.562A3.46,3.46,0,0,0,244.023-3.6,3.488,3.488,0,0,0,247.637.117,3.347,3.347,0,0,0,251-2.262ZM257.556,0h1.82V-4.225A2.77,2.77,0,0,0,256.5-7.306a2.69,2.69,0,0,0-2.171,1v-.9h-1.82V0h1.82V-3.978a1.564,1.564,0,0,1,1.625-1.781,1.558,1.558,0,0,1,1.6,1.781Zm3.835-2.236c0,1.651.923,2.236,2.3,2.236h1.144V-1.534h-.845c-.572,0-.767-.208-.767-.689V-5.707h1.612V-7.2h-1.612V-8.983h-1.833V-7.2h-.858v1.495h.858Zm9.516,1.261A1.064,1.064,0,0,0,269.8-2.041a1.071,1.071,0,0,0-1.131,1.066A1.071,1.071,0,0,0,269.8.091,1.064,1.064,0,0,0,270.907-.975Zm2.86,0a1.064,1.064,0,0,0-1.105-1.066,1.071,1.071,0,0,0-1.131,1.066A1.071,1.071,0,0,0,272.662.091,1.064,1.064,0,0,0,273.767-.975Zm-5.707,0a1.064,1.064,0,0,0-1.105-1.066,1.071,1.071,0,0,0-1.131,1.066A1.071,1.071,0,0,0,266.955.091,1.064,1.064,0,0,0,268.06-.975Z" transform="translate(15.191 127.118)" fill="#0f72ee"/><path d="M2.834.013,4.147,0,6.331-7.293,8.437,0H9.763l2.626-9.061H11.115L9.126-1.4,7.046-9.061H5.72L3.536-1.378,1.56-9.061H.3ZM13.689,0h1.183V-3.939c0-1.534.832-2.288,2.041-2.288s1.989.741,1.989,2.2V0h1.17V-4.2a2.748,2.748,0,0,0-2.847-3.055A2.681,2.681,0,0,0,14.872-6.1V-9.62H13.689Zm7.878-3.588a3.426,3.426,0,0,0,3.367,3.7A2.975,2.975,0,0,0,27.6-1.326V0h1.2V-7.124H27.6v1.3a2.956,2.956,0,0,0-2.652-1.417A3.376,3.376,0,0,0,21.567-3.588Zm6.032.013A2.438,2.438,0,0,1,25.181-.923a2.44,2.44,0,0,1-2.405-2.665,2.4,2.4,0,0,1,2.405-2.626A2.441,2.441,0,0,1,27.6-3.575ZM31.057-1.95c0,1.43.715,1.95,1.976,1.95H34.1V-1h-.871c-.728,0-.988-.247-.988-.949v-4.2H34.1v-.975H32.24V-8.918H31.057v1.794h-.923v.975h.923Zm7.5-1.638a3.426,3.426,0,0,0,3.367,3.7A2.975,2.975,0,0,0,44.59-1.326V0h1.2V-7.124h-1.2v1.3a2.956,2.956,0,0,0-2.652-1.417A3.376,3.376,0,0,0,38.558-3.588Zm6.032.013A2.438,2.438,0,0,1,42.172-.923a2.44,2.44,0,0,1-2.4-2.665,2.4,2.4,0,0,1,2.4-2.626A2.441,2.441,0,0,1,44.59-3.575Zm4.381-.3c0-1.651.858-2.158,1.989-2.158h.312V-7.254a2.4,2.4,0,0,0-2.3,1.287V-7.124H47.788V0h1.183ZM55.666-6.24a2.09,2.09,0,0,1,2.249,2.158h-4.5A2.206,2.206,0,0,1,55.666-6.24ZM58.994-2.2H57.72a1.958,1.958,0,0,1-2,1.313A2.239,2.239,0,0,1,53.4-3.12H59.1a6.412,6.412,0,0,0,.039-.715,3.266,3.266,0,0,0-3.419-3.406,3.39,3.39,0,0,0-3.523,3.666A3.432,3.432,0,0,0,55.718.117,3.2,3.2,0,0,0,58.994-2.2Zm5.434.247C64.428-.52,65.143,0,66.4,0H67.47V-1H66.6c-.728,0-.988-.247-.988-.949v-4.2H67.47v-.975H65.611V-8.918H64.428v1.794h-.923v.975h.923ZM68.9,0h1.183V-3.939c0-1.534.832-2.288,2.041-2.288s1.989.741,1.989,2.2V0h1.17V-4.2a2.748,2.748,0,0,0-2.847-3.055A2.681,2.681,0,0,0,70.083-6.1V-9.62H68.9ZM80.249-6.24A2.09,2.09,0,0,1,82.5-4.082H78A2.206,2.206,0,0,1,80.249-6.24ZM83.577-2.2H82.3a1.958,1.958,0,0,1-2,1.313A2.239,2.239,0,0,1,77.987-3.12h5.694a6.412,6.412,0,0,0,.039-.715A3.266,3.266,0,0,0,80.3-7.241a3.39,3.39,0,0,0-3.523,3.666A3.432,3.432,0,0,0,80.3.117,3.2,3.2,0,0,0,83.577-2.2Zm6.357-3.614V-7.124H88.751V3.38h1.183V-1.313A3.082,3.082,0,0,0,92.6.117a3.428,3.428,0,0,0,3.38-3.7A3.376,3.376,0,0,0,92.6-7.241,3.009,3.009,0,0,0,89.934-5.811ZM94.77-3.588A2.442,2.442,0,0,1,92.352-.923a2.445,2.445,0,0,1-2.418-2.652,2.448,2.448,0,0,1,2.418-2.639A2.408,2.408,0,0,1,94.77-3.588Zm9.529.013a3.477,3.477,0,0,0-3.6-3.666,3.484,3.484,0,0,0-3.6,3.666A3.458,3.458,0,0,0,100.646.117,3.532,3.532,0,0,0,104.3-3.575Zm-5.993,0a2.362,2.362,0,0,1,2.379-2.639,2.393,2.393,0,0,1,2.4,2.639,2.418,2.418,0,0,1-2.444,2.652A2.346,2.346,0,0,1,98.306-3.575ZM105.859,0h1.183V-9.62h-1.183Zm3.2,0h1.183V-7.124h-1.183Zm.611-8.281a.788.788,0,0,0,.78-.806.788.788,0,0,0-.78-.806.794.794,0,0,0-.806.806A.794.794,0,0,0,109.668-8.281Zm2.145,4.706A3.393,3.393,0,0,0,115.284.117a3.169,3.169,0,0,0,3.289-2.405H117.3a1.911,1.911,0,0,1-2.015,1.4c-1.3,0-2.262-.923-2.262-2.691,0-1.742.962-2.665,2.262-2.665a1.941,1.941,0,0,1,2.015,1.4h1.274a3.1,3.1,0,0,0-3.289-2.4A3.385,3.385,0,0,0,111.813-3.575ZM120.146,0h1.183V-7.124h-1.183Zm.611-8.281a.788.788,0,0,0,.78-.806.788.788,0,0,0-.78-.806.794.794,0,0,0-.806.806A.794.794,0,0,0,120.757-8.281Zm5.616,2.041a2.09,2.09,0,0,1,2.249,2.158h-4.5A2.206,2.206,0,0,1,126.373-6.24ZM129.7-2.2h-1.274a1.958,1.958,0,0,1-2,1.313,2.239,2.239,0,0,1-2.314-2.236h5.694a6.412,6.412,0,0,0,.039-.715,3.266,3.266,0,0,0-3.419-3.406A3.39,3.39,0,0,0,122.9-3.575,3.432,3.432,0,0,0,126.425.117,3.2,3.2,0,0,0,129.7-2.2Zm6.825.26c-.052-2.548-4.186-1.625-4.186-3.315,0-.572.52-.988,1.391-.988a1.37,1.37,0,0,1,1.547,1.235h1.183a2.39,2.39,0,0,0-2.691-2.236c-1.586,0-2.613.9-2.613,1.989,0,2.652,4.212,1.729,4.212,3.315,0,.585-.52,1.053-1.456,1.053-1,0-1.612-.52-1.677-1.209h-1.222c.078,1.3,1.248,2.21,2.912,2.21C135.5.117,136.526-.767,136.526-1.937Zm6.851-1.651c0-1.391.65-1.807,1.729-1.807h.481V-7.306a2.5,2.5,0,0,0-2.21,1.222V-7.2h-1.82V0h1.82ZM149.9-5.824a1.6,1.6,0,0,1,1.716,1.547H148.2A1.672,1.672,0,0,1,149.9-5.824Zm3.419,3.562h-1.963a1.484,1.484,0,0,1-1.443.871,1.685,1.685,0,0,1-1.729-1.664h5.265a4.254,4.254,0,0,0,.052-.7,3.381,3.381,0,0,0-3.549-3.562A3.46,3.46,0,0,0,146.341-3.6,3.488,3.488,0,0,0,149.955.117,3.347,3.347,0,0,0,153.322-2.262Zm1.04-1.365c0,2.249,1.456,3.744,3.289,3.744a2.841,2.841,0,0,0,2.379-1.183V.052a1.861,1.861,0,0,1-3.549.832h-1.807c.182,1.651,1.6,2.665,3.627,2.665a3.292,3.292,0,0,0,3.562-3.5V-7.2H160.03v1.027a2.818,2.818,0,0,0-2.379-1.144A3.373,3.373,0,0,0,154.362-3.627Zm5.668.026a1.939,1.939,0,0,1-1.911,2.119,1.968,1.968,0,0,1-1.9-2.145,1.921,1.921,0,0,1,1.9-2.093A1.939,1.939,0,0,1,160.03-3.6Zm3.146-.026c0,2.249,1.456,3.744,3.276,3.744a2.84,2.84,0,0,0,2.392-1.17V0h1.833V-7.2h-1.833v1.027a2.848,2.848,0,0,0-2.379-1.144A3.373,3.373,0,0,0,163.176-3.627Zm5.668.026a1.939,1.939,0,0,1-1.911,2.119,1.968,1.968,0,0,1-1.9-2.145,1.921,1.921,0,0,1,1.9-2.093A1.939,1.939,0,0,1,168.844-3.6Zm5.434.013c0-1.391.65-1.807,1.729-1.807h.481V-7.306a2.5,2.5,0,0,0-2.21,1.222V-7.2h-1.82V0h1.82Zm2.964-.039c0,2.249,1.456,3.744,3.289,3.744A2.722,2.722,0,0,0,182.9-1.066V0h1.846V-9.62H182.9V-6.2a2.955,2.955,0,0,0-2.353-1.118A3.375,3.375,0,0,0,177.242-3.627Zm5.668.026A1.939,1.939,0,0,1,181-1.482a1.968,1.968,0,0,1-1.9-2.145A1.921,1.921,0,0,1,181-5.72,1.939,1.939,0,0,1,182.91-3.6ZM186.524,0h1.82V-7.2h-1.82Zm.923-8.06a1.075,1.075,0,0,0,1.118-1.066,1.075,1.075,0,0,0-1.118-1.066,1.067,1.067,0,0,0-1.118,1.066A1.067,1.067,0,0,0,187.447-8.06ZM195.182,0H197V-4.225a2.77,2.77,0,0,0-2.873-3.081,2.69,2.69,0,0,0-2.171,1v-.9h-1.82V0h1.82V-3.978a1.564,1.564,0,0,1,1.625-1.781,1.558,1.558,0,0,1,1.6,1.781Zm3.081-3.627c0,2.249,1.456,3.744,3.289,3.744a2.841,2.841,0,0,0,2.379-1.183V.052a1.861,1.861,0,0,1-3.549.832h-1.807c.182,1.651,1.6,2.665,3.627,2.665a3.292,3.292,0,0,0,3.562-3.5V-7.2h-1.833v1.027a2.818,2.818,0,0,0-2.379-1.144A3.373,3.373,0,0,0,198.263-3.627Zm5.668.026a1.939,1.939,0,0,1-1.911,2.119,1.968,1.968,0,0,1-1.9-2.145,1.921,1.921,0,0,1,1.9-2.093A1.939,1.939,0,0,1,203.931-3.6Zm8.528-2.561V-7.2h-1.82V3.432h1.82V-1.027A2.94,2.94,0,0,0,214.838.117c1.846,0,3.289-1.5,3.289-3.744s-1.443-3.692-3.289-3.692A2.877,2.877,0,0,0,212.459-6.162Zm3.809,2.535a1.97,1.97,0,0,1-1.911,2.145,1.944,1.944,0,0,1-1.9-2.119,1.944,1.944,0,0,1,1.9-2.119A1.923,1.923,0,0,1,216.268-3.627Zm2.717,0c0,2.249,1.456,3.744,3.276,3.744a2.84,2.84,0,0,0,2.392-1.17V0h1.833V-7.2h-1.833v1.027a2.848,2.848,0,0,0-2.379-1.144A3.373,3.373,0,0,0,218.985-3.627Zm5.668.026a1.939,1.939,0,0,1-1.911,2.119,1.968,1.968,0,0,1-1.9-2.145,1.921,1.921,0,0,1,1.9-2.093A1.939,1.939,0,0,1,224.653-3.6Zm6.682,1.43L229.476-7.2h-2.041l2.886,7.02-1.56,3.588H230.7L235.157-7.2H233.22Zm6.617-1.417c0-1.391.65-1.807,1.729-1.807h.481V-7.306a2.5,2.5,0,0,0-2.21,1.222V-7.2h-1.82V0h1.82ZM248.339-3.6a3.559,3.559,0,0,0-3.705-3.718A3.559,3.559,0,0,0,240.929-3.6,3.525,3.525,0,0,0,244.582.117,3.6,3.6,0,0,0,248.339-3.6Zm-5.564,0a1.875,1.875,0,0,1,1.833-2.132A1.892,1.892,0,0,1,246.467-3.6a1.917,1.917,0,0,1-1.885,2.132C243.607-1.469,242.775-2.171,242.775-3.6Zm6.9,3.6h1.82V-9.62h-1.82Zm3.614,0h1.82V-9.62h-1.82Zm8.619-.975a1.064,1.064,0,0,0-1.105-1.066,1.071,1.071,0,0,0-1.131,1.066A1.071,1.071,0,0,0,260.806.091,1.064,1.064,0,0,0,261.911-.975Zm3.38,0a1.064,1.064,0,0,0-1.105-1.066,1.071,1.071,0,0,0-1.131,1.066A1.071,1.071,0,0,0,264.186.091,1.064,1.064,0,0,0,265.291-.975Z" transform="translate(15.191 84.118)" fill="#0f72ee"/><g transform="translate(56)"><circle cx="14.5" cy="14.5" r="14.5" transform="translate(217.191 155.118)" fill="#0f72ee"/><path d="M.473,14.594,6.488,12.84,12.5,14.594a.239.239,0,0,0,.11.018.335.335,0,0,0,.276-.125.321.321,0,0,0,.055-.376L6.819.215a.363.363,0,0,0-.662,0L.031,14.111a.353.353,0,0,0,.055.376A.4.4,0,0,0,.473,14.594ZM6.488,1.271l5.463,12.41-5.1-1.486V7.718a.368.368,0,0,0-.736,0v4.477l-5.1,1.486Z" transform="translate(240.337 163.901) rotate(90)" fill="#fff" stroke="#fff" stroke-width="0.25"/></g><line x2="314" transform="translate(0.191 101.118)" fill="none" stroke="#0f72ee" stroke-width="1" opacity="0.2"/><line x2="314" transform="translate(0.191 144.118)" fill="none" stroke="#0f72ee" stroke-width="1" opacity="0.2"/><g transform="translate(0.191 147.118)"><path d="M23,16a7,7,0,1,0,7,7A7.021,7.021,0,0,0,23,16Zm0,13.176A6.176,6.176,0,1,1,29.176,23,6.195,6.195,0,0,1,23,29.176Z" fill="#0f72ee"/><path d="M40.578,60.112a2.808,2.808,0,0,1-3.945,0,.368.368,0,0,0-.521.521,3.5,3.5,0,0,0,4.987,0,.368.368,0,0,0-.521-.521Z" transform="translate(-15.605 -34.808)" fill="#0f72ee"/><circle cx="0.93" cy="0.93" r="0.93" transform="translate(19.977 20.395)" fill="#0f72ee"/><circle cx="0.93" cy="0.93" r="0.93" transform="translate(24.163 20.395)" fill="#0f72ee"/></g><path d="M0,0V15" transform="translate(184.691 162.618)" fill="none" stroke="#0f72ee" stroke-linecap="round" stroke-width="1"/></g></svg>