<svg xmlns="http://www.w3.org/2000/svg" xmlns:xlink="http://www.w3.org/1999/xlink" width="365" height="227" viewBox="0 0 365 227"><defs><filter id="a" x="0" y="0" width="365" height="227" filterUnits="userSpaceOnUse"><feOffset dy="16" input="SourceAlpha"/><feGaussianBlur stdDeviation="12" result="b"/><feFlood flood-opacity="0.161"/><feComposite operator="in" in2="b"/><feComposite in="SourceGraphic"/></filter></defs><g transform="translate(36.357 2.361)"><g transform="matrix(1, 0, 0, 1, -36.36, -2.36)" filter="url(#a)"><rect width="293" height="155" rx="16" transform="translate(36 20)" fill="#fff"/></g><path d="M4.41-10.455H1.155V0H4.41C7.845,0,9.96-1.965,9.96-5.2S7.845-10.455,4.41-10.455ZM2.52-1.125v-8.22H4.41A3.771,3.771,0,0,1,8.565-5.2c0,2.55-1.425,4.08-4.155,4.08Zm17.04-3A4.012,4.012,0,0,0,15.4-8.355a4.02,4.02,0,0,0-4.155,4.23A3.991,3.991,0,0,0,15.345.135,4.076,4.076,0,0,0,19.56-4.125Zm-6.915,0A2.725,2.725,0,0,1,15.39-7.17a2.762,2.762,0,0,1,2.775,3.045,2.791,2.791,0,0,1-2.82,3.06C13.92-1.065,12.645-2.04,12.645-4.125ZM28.485-1.56,25.9-8.22H24.39L27.7-.09l-1.62,3.96h1.41l4.95-12.09h-1.41ZM41.61-4.125a4.012,4.012,0,0,0-4.155-4.23A4.02,4.02,0,0,0,33.3-4.125,3.991,3.991,0,0,0,37.4.135,4.076,4.076,0,0,0,41.61-4.125Zm-6.915,0A2.725,2.725,0,0,1,37.44-7.17a2.762,2.762,0,0,1,2.775,3.045,2.791,2.791,0,0,1-2.82,3.06C35.97-1.065,34.695-2.04,34.695-4.125ZM50.7-8.22H49.335V-3.7c0,1.77-.945,2.64-2.355,2.64a2.2,2.2,0,0,1-2.295-2.52V-8.22h-1.35V-3.4A3.207,3.207,0,0,0,46.71.12a3.022,3.022,0,0,0,2.625-1.335V0H50.7ZM57.015,0H58.38V-4.545c0-1.77.96-2.64,2.355-2.64S63.03-6.33,63.03-4.65V0h1.35V-4.845A3.171,3.171,0,0,0,61.1-8.37,3.093,3.093,0,0,0,58.38-7.035V-11.1H57.015ZM66.1-4.14A3.953,3.953,0,0,0,69.99.135,3.433,3.433,0,0,0,73.065-1.53V0h1.38V-8.22h-1.38v1.5A3.411,3.411,0,0,0,70-8.355,3.9,3.9,0,0,0,66.1-4.14Zm6.96.015a2.813,2.813,0,0,1-2.79,3.06A2.815,2.815,0,0,1,67.5-4.14a2.775,2.775,0,0,1,2.775-3.03A2.816,2.816,0,0,1,73.065-4.125ZM75.78-8.22,79,0H80.6L83.82-8.22H82.365l-2.55,6.96L77.25-8.22ZM88.665-7.2a2.412,2.412,0,0,1,2.6,2.49H86.07A2.546,2.546,0,0,1,88.665-7.2ZM92.5-2.535h-1.47a2.259,2.259,0,0,1-2.31,1.515,2.584,2.584,0,0,1-2.67-2.58h6.57a7.4,7.4,0,0,0,.045-.825,3.768,3.768,0,0,0-3.945-3.93,3.911,3.911,0,0,0-4.065,4.23A3.96,3.96,0,0,0,88.725.135,3.7,3.7,0,0,0,92.5-2.535Zm5.46-1.6A3.953,3.953,0,0,0,101.85.135a3.433,3.433,0,0,0,3.075-1.665V0h1.38V-8.22h-1.38v1.5a3.411,3.411,0,0,0-3.06-1.635A3.9,3.9,0,0,0,97.965-4.14Zm6.96.015a2.813,2.813,0,0,1-2.79,3.06A2.815,2.815,0,0,1,99.36-4.14a2.775,2.775,0,0,1,2.775-3.03A2.816,2.816,0,0,1,104.925-4.125Zm7.185,0a3.915,3.915,0,0,0,4.005,4.26A3.656,3.656,0,0,0,119.91-2.64h-1.47a2.205,2.205,0,0,1-2.325,1.62c-1.5,0-2.61-1.065-2.61-3.1,0-2.01,1.11-3.075,2.61-3.075a2.239,2.239,0,0,1,2.325,1.62h1.47a3.572,3.572,0,0,0-3.795-2.775A3.905,3.905,0,0,0,112.11-4.125Zm17.415,0a4.012,4.012,0,0,0-4.155-4.23,4.02,4.02,0,0,0-4.155,4.23,3.991,3.991,0,0,0,4.1,4.26A4.076,4.076,0,0,0,129.525-4.125Zm-6.915,0a2.725,2.725,0,0,1,2.745-3.045,2.762,2.762,0,0,1,2.775,3.045,2.791,2.791,0,0,1-2.82,3.06C123.885-1.065,122.61-2.04,122.61-4.125ZM138.615-8.22H137.25V-3.7c0,1.77-.945,2.64-2.355,2.64a2.2,2.2,0,0,1-2.3-2.52V-8.22h-1.35V-3.4A3.207,3.207,0,0,0,134.625.12a3.022,3.022,0,0,0,2.625-1.335V0h1.365ZM142.29-6.7V-8.22h-1.365V3.9h1.365V-1.515a3.556,3.556,0,0,0,3.075,1.65,3.956,3.956,0,0,0,3.9-4.275,3.9,3.9,0,0,0-3.9-4.215A3.472,3.472,0,0,0,142.29-6.7Zm5.58,2.565a2.818,2.818,0,0,1-2.79,3.075,2.821,2.821,0,0,1-2.79-3.06,2.825,2.825,0,0,1,2.79-3.045A2.778,2.778,0,0,1,147.87-4.14ZM151.065,0h1.365V-11.1h-1.365Zm7.185-7.2a2.412,2.412,0,0,1,2.6,2.49h-5.19A2.546,2.546,0,0,1,158.25-7.2Zm3.84,4.665h-1.47a2.259,2.259,0,0,1-2.31,1.515,2.584,2.584,0,0,1-2.67-2.58h6.57a7.4,7.4,0,0,0,.045-.825,3.768,3.768,0,0,0-3.945-3.93,3.911,3.911,0,0,0-4.065,4.23A3.96,3.96,0,0,0,158.31.135,3.7,3.7,0,0,0,162.09-2.535Zm13.77-1.59a4.012,4.012,0,0,0-4.155-4.23,4.02,4.02,0,0,0-4.155,4.23,3.991,3.991,0,0,0,4.1,4.26A4.076,4.076,0,0,0,175.86-4.125Zm-6.915,0A2.725,2.725,0,0,1,171.69-7.17a2.762,2.762,0,0,1,2.775,3.045,2.791,2.791,0,0,1-2.82,3.06C170.22-1.065,168.945-2.04,168.945-4.125ZM177.915,0h1.365V-7.095h1.725V-8.22H179.28v-.585c0-1.065.4-1.515,1.635-1.515v-1.14c-2.1,0-3,.825-3,2.655v.585H176.85v1.125h1.065ZM13.02,19h1.35V14.155a3.182,3.182,0,0,0-3.33-3.525,3.043,3.043,0,0,0-2.91,1.83,3.093,3.093,0,0,0-3.015-1.83A2.972,2.972,0,0,0,2.52,11.965V10.78H1.155V19H2.52V14.47c0-1.77.945-2.655,2.325-2.655,1.35,0,2.25.855,2.25,2.535V19h1.35V14.47c0-1.77.945-2.655,2.325-2.655,1.35,0,2.25.855,2.25,2.535ZM16.6,19H17.97V10.78H16.6Zm.7-9.555a.93.93,0,1,0-.93-.93A.91.91,0,0,0,17.31,9.445Zm9,9.555h1.35V14.155A3.189,3.189,0,0,0,24.3,10.63a3.037,3.037,0,0,0-2.64,1.32V10.78H20.3V19H21.66V14.455c0-1.77.96-2.64,2.355-2.64s2.3.855,2.3,2.535Zm10.875-8.22H35.82V15.3c0,1.77-.945,2.64-2.355,2.64a2.2,2.2,0,0,1-2.3-2.52V10.78H29.82V15.6a3.207,3.207,0,0,0,3.375,3.525,3.022,3.022,0,0,0,2.625-1.335V19h1.365Zm2.61,5.97c0,1.65.825,2.25,2.28,2.25h1.23V17.845H42.3c-.84,0-1.14-.285-1.14-1.095V11.905h2.145V10.78H41.16V8.71H39.8v2.07H38.73v1.125H39.8ZM48.45,11.8a2.412,2.412,0,0,1,2.595,2.49h-5.19A2.546,2.546,0,0,1,48.45,11.8Zm3.84,4.665H50.82a2.259,2.259,0,0,1-2.31,1.515,2.584,2.584,0,0,1-2.67-2.58h6.57a7.4,7.4,0,0,0,.045-.825,3.768,3.768,0,0,0-3.945-3.93,3.911,3.911,0,0,0-4.065,4.23,3.96,3.96,0,0,0,4.065,4.26A3.7,3.7,0,0,0,52.29,16.465Zm7.875.3c-.06-2.94-4.83-1.875-4.83-3.825,0-.66.6-1.14,1.6-1.14a1.581,1.581,0,0,1,1.785,1.425H60.09c-.09-1.605-1.29-2.58-3.1-2.58S53.97,11.68,53.97,12.94c0,3.06,4.86,1.995,4.86,3.825,0,.675-.6,1.215-1.68,1.215-1.155,0-1.86-.6-1.935-1.4h-1.41c.09,1.5,1.44,2.55,3.36,2.55C58.98,19.135,60.165,18.115,60.165,16.765ZM66.345,19H67.71V11.905h1.725V10.78H67.71v-.585c0-1.065.4-1.515,1.635-1.515V7.54c-2.1,0-3,.825-3,2.655v.585H65.28v1.125h1.065Zm12.48-4.125a4.156,4.156,0,1,0-8.31,0,3.991,3.991,0,0,0,4.1,4.26A4.076,4.076,0,0,0,78.825,14.875Zm-6.915,0a2.725,2.725,0,0,1,2.745-3.045,2.762,2.762,0,0,1,2.775,3.045,2.791,2.791,0,0,1-2.82,3.06C73.185,17.935,71.91,16.96,71.91,14.875Zm10.08-.345c0-1.9.99-2.49,2.3-2.49h.36V10.63a2.768,2.768,0,0,0-2.655,1.485V10.78H80.625V19H81.99Zm7.725.33A3.953,3.953,0,0,0,93.6,19.135a3.433,3.433,0,0,0,3.075-1.665V19h1.38V10.78h-1.38v1.5a3.411,3.411,0,0,0-3.06-1.635A3.9,3.9,0,0,0,89.715,14.86Zm6.96.015a2.8,2.8,0,1,1-5.565-.015,2.775,2.775,0,0,1,2.775-3.03A2.816,2.816,0,0,1,96.675,14.875Zm7.185-.015a3.951,3.951,0,0,0,3.87,4.275,3.486,3.486,0,0,0,3.09-1.65V22.9h1.38V10.78h-1.38v1.5a3.4,3.4,0,0,0-3.045-1.635A3.9,3.9,0,0,0,103.86,14.86Zm6.96.015a2.8,2.8,0,1,1-5.565-.015,2.775,2.775,0,0,1,2.775-3.03A2.816,2.816,0,0,1,110.82,14.875ZM121.8,10.78h-1.365V15.3c0,1.77-.945,2.64-2.355,2.64a2.2,2.2,0,0,1-2.295-2.52V10.78h-1.35V15.6a3.207,3.207,0,0,0,3.375,3.525,3.022,3.022,0,0,0,2.625-1.335V19H121.8ZM124.11,19h1.365V10.78H124.11Zm.705-9.555a.93.93,0,1,0-.93-.93A.91.91,0,0,0,124.815,9.445Zm2.475,5.43a3.915,3.915,0,0,0,4.005,4.26,3.656,3.656,0,0,0,3.795-2.775h-1.47a2.205,2.205,0,0,1-2.325,1.62c-1.5,0-2.61-1.065-2.61-3.1,0-2.01,1.11-3.075,2.61-3.075a2.239,2.239,0,0,1,2.325,1.62h1.47a3.572,3.572,0,0,0-3.795-2.775A3.905,3.905,0,0,0,127.29,14.875ZM136.9,19h1.365V15.37L141.495,19h1.86l-3.885-4.125,3.87-4.095h-1.9l-3.165,3.645V7.9H136.9ZM1.41,38H2.775V30.905H4.5V29.78H2.775v-.585c0-1.065.4-1.515,1.635-1.515V26.54c-2.1,0-3,.825-3,2.655v.585H.345v1.125H1.41Zm8.175-7.2a2.412,2.412,0,0,1,2.6,2.49H6.99A2.546,2.546,0,0,1,9.585,30.8Zm3.84,4.665h-1.47a2.259,2.259,0,0,1-2.31,1.515,2.584,2.584,0,0,1-2.67-2.58h6.57a7.4,7.4,0,0,0,.045-.825,3.768,3.768,0,0,0-3.945-3.93,3.911,3.911,0,0,0-4.065,4.23,3.96,3.96,0,0,0,4.065,4.26A3.7,3.7,0,0,0,13.425,35.465Zm5.46-4.665a2.412,2.412,0,0,1,2.595,2.49H16.29A2.546,2.546,0,0,1,18.885,30.8Zm3.84,4.665h-1.47a2.259,2.259,0,0,1-2.31,1.515,2.584,2.584,0,0,1-2.67-2.58h6.57a7.4,7.4,0,0,0,.045-.825,3.768,3.768,0,0,0-3.945-3.93,3.911,3.911,0,0,0-4.065,4.23,3.96,3.96,0,0,0,4.065,4.26A3.7,3.7,0,0,0,22.725,35.465Zm1.455-1.6a3.956,3.956,0,0,0,3.9,4.275,3.376,3.376,0,0,0,3.06-1.68V38h1.38V26.9H31.14v4.35a3.585,3.585,0,0,0-3.045-1.6A3.9,3.9,0,0,0,24.18,33.86Zm6.96.015a2.8,2.8,0,1,1-5.565-.015,2.775,2.775,0,0,1,2.775-3.03A2.816,2.816,0,0,1,31.14,33.875Zm5.055-2.565V26.9H34.83V38h1.365V36.485a3.43,3.43,0,0,0,3.075,1.65,3.956,3.956,0,0,0,3.9-4.275,3.887,3.887,0,0,0-3.9-4.215A3.482,3.482,0,0,0,36.195,31.31Zm5.58,2.55a2.8,2.8,0,1,1-5.58.015,2.825,2.825,0,0,1,2.79-3.045A2.778,2.778,0,0,1,41.775,33.86Zm2.685,0a3.953,3.953,0,0,0,3.885,4.275A3.433,3.433,0,0,0,51.42,36.47V38H52.8V29.78H51.42v1.5a3.411,3.411,0,0,0-3.06-1.635A3.9,3.9,0,0,0,44.46,33.86Zm6.96.015a2.8,2.8,0,1,1-5.565-.015,2.775,2.775,0,0,1,2.775-3.03A2.816,2.816,0,0,1,51.42,33.875Zm3.18,0a3.915,3.915,0,0,0,4.005,4.26A3.656,3.656,0,0,0,62.4,35.36H60.93a2.205,2.205,0,0,1-2.325,1.62c-1.5,0-2.61-1.065-2.61-3.1,0-2.01,1.11-3.075,2.61-3.075a2.239,2.239,0,0,1,2.325,1.62H62.4a3.572,3.572,0,0,0-3.795-2.775A3.905,3.905,0,0,0,54.6,33.875ZM64.215,38H65.58V34.37L68.805,38h1.86L66.78,33.875l3.87-4.095h-1.9L65.58,33.425V26.9H64.215Zm17.64-2.235c-.06-2.94-4.83-1.875-4.83-3.825,0-.66.6-1.14,1.605-1.14a1.581,1.581,0,0,1,1.785,1.425H81.78c-.09-1.6-1.29-2.58-3.1-2.58-1.83,0-3.015,1.035-3.015,2.295,0,3.06,4.86,2,4.86,3.825,0,.675-.6,1.215-1.68,1.215-1.155,0-1.86-.6-1.935-1.4H75.5c.09,1.5,1.44,2.55,3.36,2.55C80.67,38.135,81.855,37.115,81.855,35.765ZM87.27,30.8a2.412,2.412,0,0,1,2.6,2.49h-5.19A2.546,2.546,0,0,1,87.27,30.8Zm3.84,4.665H89.64a2.259,2.259,0,0,1-2.31,1.515,2.584,2.584,0,0,1-2.67-2.58h6.57a7.4,7.4,0,0,0,.045-.825,3.768,3.768,0,0,0-3.945-3.93,3.911,3.911,0,0,0-4.065,4.23,3.96,3.96,0,0,0,4.065,4.26A3.7,3.7,0,0,0,91.11,35.465Zm7.875.3c-.06-2.94-4.83-1.875-4.83-3.825,0-.66.6-1.14,1.6-1.14a1.581,1.581,0,0,1,1.785,1.425H98.91c-.09-1.6-1.29-2.58-3.1-2.58-1.83,0-3.015,1.035-3.015,2.295,0,3.06,4.86,2,4.86,3.825,0,.675-.6,1.215-1.68,1.215-1.155,0-1.86-.6-1.935-1.4h-1.41c.09,1.5,1.44,2.55,3.36,2.55C97.8,38.135,98.985,37.115,98.985,35.765Zm7.83,0c-.06-2.94-4.83-1.875-4.83-3.825,0-.66.6-1.14,1.6-1.14a1.581,1.581,0,0,1,1.785,1.425h1.365c-.09-1.6-1.29-2.58-3.1-2.58-1.83,0-3.015,1.035-3.015,2.295,0,3.06,4.86,2,4.86,3.825,0,.675-.6,1.215-1.68,1.215-1.155,0-1.86-.6-1.935-1.4h-1.41c.09,1.5,1.44,2.55,3.36,2.55C105.63,38.135,106.815,37.115,106.815,35.765ZM108.735,38H110.1V29.78h-1.365Zm.705-9.555a.93.93,0,1,0-.93-.93A.91.91,0,0,0,109.44,28.445Zm10.785,5.43a4.156,4.156,0,1,0-8.31,0,3.991,3.991,0,0,0,4.1,4.26A4.076,4.076,0,0,0,120.225,33.875Zm-6.915,0a2.725,2.725,0,0,1,2.745-3.045,2.762,2.762,0,0,1,2.775,3.045,2.791,2.791,0,0,1-2.82,3.06C114.585,36.935,113.31,35.96,113.31,33.875ZM128.04,38h1.35V33.155a3.189,3.189,0,0,0-3.36-3.525,3.037,3.037,0,0,0-2.64,1.32V29.78h-1.365V38h1.365V33.455c0-1.77.96-2.64,2.355-2.64s2.3.855,2.3,2.535Zm2.985-7.575h1.29a1.791,1.791,0,0,1,1.995-1.875,1.839,1.839,0,0,1,2,1.95c0,1.815-1.455,2.145-3.165,2.145h-.435l.06,2.37h1.185l.045-1.425c2.1,0,3.615-.9,3.615-3.09a3.016,3.016,0,0,0-3.315-3.09A2.963,2.963,0,0,0,131.025,30.425Zm3.225,6.735a.915.915,0,1,0-.9.93A.91.91,0,0,0,134.25,37.16Z" transform="translate(68.644 74.638)" fill="#0f72ee"/><path d="M1.035-10.47V0h5.55V-1.665H3.135V-10.47ZM11.49-6.72a1.846,1.846,0,0,1,1.98,1.785H9.525A1.93,1.93,0,0,1,11.49-6.72Zm3.945,4.11H13.17a1.712,1.712,0,0,1-1.665,1A1.944,1.944,0,0,1,9.51-3.525h6.075a4.908,4.908,0,0,0,.06-.81,3.9,3.9,0,0,0-4.1-4.11,3.993,3.993,0,0,0-4.17,4.29A4.025,4.025,0,0,0,11.55.135,3.862,3.862,0,0,0,15.435-2.61Zm5.31-4.11a1.846,1.846,0,0,1,1.98,1.785H18.78A1.93,1.93,0,0,1,20.745-6.72ZM24.69-2.61H22.425a1.712,1.712,0,0,1-1.665,1,1.944,1.944,0,0,1-1.995-1.92H24.84a4.909,4.909,0,0,0,.06-.81,3.9,3.9,0,0,0-4.095-4.11,3.993,3.993,0,0,0-4.17,4.29,4.025,4.025,0,0,0,4.17,4.29A3.862,3.862,0,0,0,24.69-2.61ZM32.25,0h2.1V-4.875c0-2.295-1.38-3.555-3.315-3.555a3.1,3.1,0,0,0-2.5,1.155V-8.31h-2.1V0h2.1V-4.59a1.8,1.8,0,0,1,1.875-2.055A1.8,1.8,0,0,1,32.25-4.59Zm3.555-4.185c0,2.6,1.68,4.32,3.78,4.32a3.277,3.277,0,0,0,2.76-1.35V0H44.46V-8.31H42.345v1.185A3.286,3.286,0,0,0,39.6-8.445C37.485-8.445,35.805-6.78,35.805-4.185Zm6.54.03A2.237,2.237,0,0,1,40.14-1.71a2.271,2.271,0,0,1-2.19-2.475A2.216,2.216,0,0,1,40.14-6.6,2.237,2.237,0,0,1,42.345-4.155ZM57.195,0h2.22L55.65-10.485H53.2L49.44,0h2.205l.69-2H56.5Zm-1.26-3.675H52.9l1.515-4.38ZM60.825,0h2.1V-10.47h-2.1Z" transform="translate(68.644 47.638)" fill="#0f72ee"/><path d="M.51-.08H5.32V-.84H1.88C3.17-1.89,5.11-3.42,5.11-5.22A2.034,2.034,0,0,0,2.87-7.36,2.215,2.215,0,0,0,.54-5.02h.88A1.429,1.429,0,0,1,2.88-6.58a1.221,1.221,0,0,1,1.33,1.4c0,1.48-1.8,2.92-3.7,4.45Zm6.9-.48a.606.606,0,0,0-.6-.62.611.611,0,0,0-.62.62.611.611,0,0,0,.62.62A.606.606,0,0,0,7.41-.56Zm0-4.28a.606.606,0,0,0-.6-.62.611.611,0,0,0-.62.62.611.611,0,0,0,.62.62A.606.606,0,0,0,7.41-4.84ZM8.39-.08H13.2V-.84H9.76c1.29-1.05,3.23-2.58,3.23-4.38a2.034,2.034,0,0,0-2.24-2.14A2.215,2.215,0,0,0,8.42-5.02H9.3a1.429,1.429,0,0,1,1.46-1.56,1.221,1.221,0,0,1,1.33,1.4c0,1.48-1.8,2.92-3.7,4.45ZM17.73,0h.9V-1.61h1V-2.4h-1V-7.16H17.54L14.03-2.3v.69h3.7ZM15.08-2.4l2.69-3.81V-2.4Zm9.19-1.26V-6.22h1.34c1.04,0,1.48.48,1.48,1.29,0,.78-.44,1.27-1.48,1.27Zm3.75-1.27c0-1.14-.77-2.04-2.41-2.04H23.36V0h.91V-2.91h1.34C27.34-2.91,28.02-3.87,28.02-4.93ZM29.15,0h.91V-5.17L32.37,0h.64l2.3-5.16V0h.91V-6.92h-.97L32.69-1.2,30.13-6.92h-.98Z" transform="translate(140.643 47.341)" fill="#0f72ee"/><line x2="293.5" transform="translate(-0.356 128.638)" fill="none" stroke="#0f72ee" stroke-width="1" opacity="0.2"/><line y2="44" transform="translate(97.644 128.638)" fill="none" stroke="#0f72ee" stroke-width="1" opacity="0.2"/><path d="M3.69-3.78V0H5.4V-3.78l3.45-6.645H6.96L4.545-5.31,2.13-10.425H.225Zm9.99-3.18a2.146,2.146,0,0,1,2.31,2.085H11.415A2.251,2.251,0,0,1,13.68-6.96Zm3.87,4.5H15.7A2,2,0,0,1,13.755-1.3,2.274,2.274,0,0,1,11.4-3.495h6.315a5.275,5.275,0,0,0,.06-.84A3.854,3.854,0,0,0,13.755-8.4,3.958,3.958,0,0,0,9.63-4.14,4.01,4.01,0,0,0,13.755.135,3.777,3.777,0,0,0,17.55-2.46Zm8.07.15c-.09-2.985-4.755-2.055-4.755-3.72,0-.555.48-.93,1.4-.93a1.367,1.367,0,0,1,1.545,1.215h1.71c-.09-1.65-1.32-2.655-3.195-2.655-1.95,0-3.18,1.065-3.18,2.385,0,3.03,4.8,2.1,4.8,3.72,0,.57-.525.99-1.515.99a1.508,1.508,0,0,1-1.65-1.23H19c.075,1.5,1.47,2.67,3.45,2.67C24.4.135,25.62-.915,25.62-2.31Z" transform="translate(41.644 154.638)" fill="#0f72ee"/><path d="M2.835-4.35c0-1.755.78-2.28,2.04-2.28H5.31V-8.4A2.692,2.692,0,0,0,2.835-7.065v-1.2H1.125V0h1.71Zm7.53-2.61a2.146,2.146,0,0,1,2.31,2.085H8.1A2.251,2.251,0,0,1,10.365-6.96Zm3.87,4.5H12.39A2,2,0,0,1,10.44-1.3a2.274,2.274,0,0,1-2.355-2.19H14.4a5.275,5.275,0,0,0,.06-.84A3.854,3.854,0,0,0,10.44-8.4,3.958,3.958,0,0,0,6.315-4.14,4.01,4.01,0,0,0,10.44.135,3.777,3.777,0,0,0,14.235-2.46ZM27.855,0H29.55V-4.875a3.23,3.23,0,0,0-3.4-3.525,3.236,3.236,0,0,0-2.88,1.635A3.188,3.188,0,0,0,20.3-8.4,3.148,3.148,0,0,0,17.85-7.32v-.945H16.14V0h1.71V-4.62a2,2,0,0,1,2.085-2.3c1.245,0,2.07.78,2.07,2.3V0H23.7V-4.62a2,2,0,0,1,2.085-2.3c1.245,0,2.07.78,2.07,2.3Zm3.87,0h1.71V-8.265h-1.71Zm.87-9.36a1.079,1.079,0,0,0,1.08-1.095A1.079,1.079,0,0,0,32.6-11.55a1.082,1.082,0,0,0-1.1,1.095A1.082,1.082,0,0,0,32.6-9.36ZM41.55,0h1.695V-4.875A3.219,3.219,0,0,0,39.855-8.4,3.18,3.18,0,0,0,37.4-7.32v-.945h-1.71V0H37.4V-4.62a2,2,0,0,1,2.085-2.3c1.245,0,2.07.78,2.07,2.3Zm3.3-4.17A4,4,0,0,0,48.75.135a3.427,3.427,0,0,0,2.865-1.38V0H53.34V-11.1H51.615v3.99a3.807,3.807,0,0,0-2.85-1.29A3.937,3.937,0,0,0,44.85-4.17Zm6.765.03A2.568,2.568,0,0,1,49.11-1.35a2.6,2.6,0,0,1-2.5-2.82,2.536,2.536,0,0,1,2.5-2.745A2.563,2.563,0,0,1,51.615-4.14ZM71.205,0H72.9V-4.875A3.23,3.23,0,0,0,69.5-8.4a3.236,3.236,0,0,0-2.88,1.635A3.188,3.188,0,0,0,63.645-8.4,3.148,3.148,0,0,0,61.2-7.32v-.945H59.49V0H61.2V-4.62a2,2,0,0,1,2.085-2.3c1.245,0,2.07.78,2.07,2.3V0H67.05V-4.62a2,2,0,0,1,2.085-2.3c1.245,0,2.07.78,2.07,2.3Zm7.35-6.96a2.146,2.146,0,0,1,2.31,2.085H76.29A2.251,2.251,0,0,1,78.555-6.96Zm3.87,4.5H80.58A2,2,0,0,1,78.63-1.3a2.274,2.274,0,0,1-2.355-2.19H82.59a5.275,5.275,0,0,0,.06-.84A3.854,3.854,0,0,0,78.63-8.4,3.958,3.958,0,0,0,74.5-4.14,4.01,4.01,0,0,0,78.63.135,3.777,3.777,0,0,0,82.425-2.46ZM88.23,0h1.71V-11.1H88.23Zm3.39-4.17A4,4,0,0,0,95.49.135,3.557,3.557,0,0,0,98.385-1.23V0h1.725V-8.265H98.385v1.2A3.518,3.518,0,0,0,95.52-8.4,3.934,3.934,0,0,0,91.62-4.17Zm6.765.03a2.568,2.568,0,0,1-2.5,2.79,2.6,2.6,0,0,1-2.505-2.82A2.536,2.536,0,0,1,95.88-6.915,2.563,2.563,0,0,1,98.385-4.14ZM102.63-2.3c0,1.68.915,2.3,2.385,2.3h1.35V-1.425h-1.05c-.72,0-.96-.255-.96-.87V-6.87h2.01v-1.4h-2.01V-10.32H102.63v2.055h-.975v1.4h.975Zm8.79-4.665a2.146,2.146,0,0,1,2.31,2.085h-4.575A2.251,2.251,0,0,1,111.42-6.96Zm3.87,4.5h-1.845A2,2,0,0,1,111.5-1.3a2.274,2.274,0,0,1-2.355-2.19h6.315a5.275,5.275,0,0,0,.06-.84A3.854,3.854,0,0,0,111.5-8.4a3.958,3.958,0,0,0-4.125,4.26A4.01,4.01,0,0,0,111.5.135,3.777,3.777,0,0,0,115.29-2.46ZM118.9-4.35c0-1.755.78-2.28,2.04-2.28h.435V-8.4A2.692,2.692,0,0,0,118.9-7.065v-1.2h-1.71V0h1.71Z" transform="translate(134.644 155.638)" fill="#0f72ee"/><g transform="translate(6.68 25.677)"><rect width="36" height="36" rx="2" transform="translate(11.963 8.961)" fill="#0f72ee"/><g transform="translate(17.974 17.588)"><path d="M402.468,350.638a4.734,4.734,0,1,1,4.712-4.735v1h-7.236a2.707,2.707,0,0,0,4.247,1.1l.183-.153,1.537,1.3-.234.222A4.684,4.684,0,0,1,402.468,350.638Zm2.523-5.741a2.708,2.708,0,0,0-5.046,0Z" transform="translate(-394.9 -338.296)" fill="#fff"/><path d="M702.884,350.493a4.74,4.74,0,1,1,4.712-4.736v1h-7.234a2.707,2.707,0,0,0,4.247,1.1l.184-.153,1.537,1.3-.237.222A4.681,4.681,0,0,1,702.884,350.493Zm2.523-5.741a2.709,2.709,0,0,0-5.045,0Z" transform="translate(-685.241 -338.15)" fill="#fff"/><path d="M313.582,274.184a1.145,1.145,0,0,1-1.142-1.148v-9.588a7.6,7.6,0,0,1,7.568-7.606h10.076a7.606,7.606,0,0,1,0,15.212h-9.871a.568.568,0,0,0-.256.06l-5.862,2.942a1.129,1.129,0,0,1-.514.126Zm6.426-16.333a5.589,5.589,0,0,0-5.569,5.6v8.193l4.622-2.323a2.57,2.57,0,0,1,1.153-.273h9.871a5.6,5.6,0,0,0,0-11.194Z" transform="translate(-312.44 -255.842)" fill="#fff"/></g></g></g></svg>