<svg xmlns="http://www.w3.org/2000/svg" xmlns:xlink="http://www.w3.org/1999/xlink" width="429" height="161" viewBox="0 0 429 161"><defs><filter id="a" x="0" y="0" width="429" height="161" filterUnits="userSpaceOnUse"><feOffset dy="16" input="SourceAlpha"/><feGaussianBlur stdDeviation="12" result="b"/><feFlood flood-opacity="0.161"/><feComposite operator="in" in2="b"/><feComposite in="SourceGraphic"/></filter></defs><g transform="translate(36.357 -50.639)"><g transform="matrix(1, 0, 0, 1, -36.36, 50.64)" filter="url(#a)"><rect width="357" height="89" rx="16" transform="translate(36 20)" fill="#fff"/></g><path d="M3.69-3.78V0H5.4V-3.78l3.45-6.645H6.96L4.545-5.31,2.13-10.425H.225Zm14.385-.36A4.076,4.076,0,0,0,13.86-8.4,4.076,4.076,0,0,0,9.645-4.14,4.03,4.03,0,0,0,13.785.135,4.14,4.14,0,0,0,18.075-4.14Zm-6.69,0A2.462,2.462,0,0,1,13.83-6.915,2.5,2.5,0,0,1,16.32-4.14a2.546,2.546,0,0,1-2.535,2.79C12.495-1.35,11.385-2.265,11.385-4.14Zm15.87-4.125h-1.71V-3.66a2,2,0,0,1-2.085,2.3c-1.245,0-2.07-.78-2.07-2.3V-8.265H19.695V-3.4A3.23,3.23,0,0,0,23.1.12,3.076,3.076,0,0,0,25.545-.99V0h1.71Zm5.58,4.1a4,4,0,0,0,3.9,4.305A3.427,3.427,0,0,0,39.6-1.245V0h1.725V-11.1H39.6v3.99A3.807,3.807,0,0,0,36.75-8.4,3.937,3.937,0,0,0,32.835-4.17Zm6.765.03a2.568,2.568,0,0,1-2.505,2.79,2.6,2.6,0,0,1-2.5-2.82,2.536,2.536,0,0,1,2.5-2.745A2.563,2.563,0,0,1,39.6-4.14Zm11.85,0A4.076,4.076,0,0,0,47.235-8.4,4.076,4.076,0,0,0,43.02-4.14,4.03,4.03,0,0,0,47.16.135,4.14,4.14,0,0,0,51.45-4.14Zm-6.69,0a2.462,2.462,0,0,1,2.445-2.775,2.5,2.5,0,0,1,2.49,2.775A2.546,2.546,0,0,1,47.16-1.35C45.87-1.35,44.76-2.265,44.76-4.14ZM59.01,0h1.695V-4.875A3.219,3.219,0,0,0,57.315-8.4a3.18,3.18,0,0,0-2.46,1.08v-.945h-1.71V0h1.71V-4.62a2,2,0,0,1,2.085-2.3c1.245,0,2.07.78,2.07,2.3Zm4.425-6.855,1.575-3.57H63.15l-.915,3.57ZM66.78-2.3c0,1.68.915,2.3,2.385,2.3h1.35V-1.425h-1.05c-.72,0-.96-.255-.96-.87V-6.87h2.01v-1.4h-2.01V-10.32H66.78v2.055h-.975v1.4h.975ZM76.2,0h1.725V-6.87h1.53v-1.4h-1.53V-8.85c0-.945.36-1.305,1.41-1.305V-11.58c-2.16,0-3.135.825-3.135,2.73v.585h-.975v1.4H76.2Zm8.25-6.96a2.146,2.146,0,0,1,2.31,2.085H82.185A2.251,2.251,0,0,1,84.45-6.96Zm3.87,4.5H86.475A2,2,0,0,1,84.525-1.3a2.274,2.274,0,0,1-2.355-2.19h6.315a5.275,5.275,0,0,0,.06-.84A3.854,3.854,0,0,0,84.525-8.4,3.958,3.958,0,0,0,80.4-4.14,4.01,4.01,0,0,0,84.525.135,3.777,3.777,0,0,0,88.32-2.46Zm5.385-4.5a2.146,2.146,0,0,1,2.31,2.085H91.44A2.251,2.251,0,0,1,93.705-6.96Zm3.87,4.5H95.73A2,2,0,0,1,93.78-1.3a2.274,2.274,0,0,1-2.355-2.19H97.74a5.275,5.275,0,0,0,.06-.84A3.854,3.854,0,0,0,93.78-8.4a3.958,3.958,0,0,0-4.125,4.26A4.01,4.01,0,0,0,93.78.135,3.777,3.777,0,0,0,97.575-2.46ZM99.48,0h1.71V-11.1H99.48Zm15.735-4.14A4.076,4.076,0,0,0,111-8.4a4.076,4.076,0,0,0-4.215,4.26,4.03,4.03,0,0,0,4.14,4.275A4.14,4.14,0,0,0,115.215-4.14Zm-6.69,0a2.462,2.462,0,0,1,2.445-2.775,2.5,2.5,0,0,1,2.49,2.775,2.546,2.546,0,0,1-2.535,2.79C109.635-1.35,108.525-2.265,108.525-4.14Zm7.41-4.125L119.07,0h2.04l3.15-8.265h-1.815l-2.34,6.735-2.34-6.735ZM129.03-6.96a2.146,2.146,0,0,1,2.31,2.085h-4.575A2.251,2.251,0,0,1,129.03-6.96Zm3.87,4.5h-1.845a2,2,0,0,1-1.95,1.155,2.274,2.274,0,0,1-2.355-2.19h6.315a5.275,5.275,0,0,0,.06-.84,3.854,3.854,0,0,0-4.02-4.065,3.958,3.958,0,0,0-4.125,4.26A4.01,4.01,0,0,0,129.105.135,3.777,3.777,0,0,0,132.9-2.46Zm3.615-1.89c0-1.755.78-2.28,2.04-2.28h.435V-8.4a2.692,2.692,0,0,0-2.475,1.335v-1.2H134.8V0h1.71ZM142.17,0h1.8l1.665-6.105L147.3,0h1.8l2.565-8.265h-1.68l-1.71,6.615L146.6-8.265H144.81L143.055-1.62,141.33-8.265h-1.74Zm10.77,0h1.71V-4.62a2,2,0,0,1,2.085-2.3c1.245,0,2.07.78,2.07,2.3V0H160.5V-4.875A3.187,3.187,0,0,0,157.215-8.4,3.276,3.276,0,0,0,154.65-7.3v-3.8h-1.71Zm13.215-6.96a2.146,2.146,0,0,1,2.31,2.085H163.89A2.251,2.251,0,0,1,166.155-6.96Zm3.87,4.5H168.18A2,2,0,0,1,166.23-1.3a2.274,2.274,0,0,1-2.355-2.19h6.315a5.275,5.275,0,0,0,.06-.84A3.854,3.854,0,0,0,166.23-8.4,3.958,3.958,0,0,0,162.1-4.14,4.01,4.01,0,0,0,166.23.135,3.777,3.777,0,0,0,170.025-2.46ZM171.93,0h1.71V-11.1h-1.71ZM187.6,0h1.7V-4.875A3.23,3.23,0,0,0,185.9-8.4a3.236,3.236,0,0,0-2.88,1.635,3.188,3.188,0,0,0-2.97-1.635A3.148,3.148,0,0,0,177.6-7.32v-.945h-1.71V0h1.71V-4.62a2,2,0,0,1,2.085-2.3c1.245,0,2.07.78,2.07,2.3V0h1.695V-4.62a2,2,0,0,1,2.085-2.3c1.245,0,2.07.78,2.07,2.3Zm7.35-6.96a2.146,2.146,0,0,1,2.31,2.085H192.69A2.251,2.251,0,0,1,194.955-6.96Zm3.87,4.5H196.98A2,2,0,0,1,195.03-1.3a2.274,2.274,0,0,1-2.355-2.19h6.315a5.275,5.275,0,0,0,.06-.84A3.854,3.854,0,0,0,195.03-8.4,3.958,3.958,0,0,0,190.9-4.14,4.01,4.01,0,0,0,195.03.135,3.777,3.777,0,0,0,198.825-2.46Zm1.335-1.71a4,4,0,0,0,3.9,4.305,3.427,3.427,0,0,0,2.865-1.38V0h1.725V-11.1h-1.725v3.99a3.807,3.807,0,0,0-2.85-1.29A3.937,3.937,0,0,0,200.16-4.17Zm6.765.03a2.568,2.568,0,0,1-2.505,2.79,2.6,2.6,0,0,1-2.505-2.82,2.536,2.536,0,0,1,2.505-2.745A2.563,2.563,0,0,1,206.925-4.14ZM.555,14.83a4,4,0,0,0,3.87,4.305,3.557,3.557,0,0,0,2.9-1.365V19H9.045V10.735H7.32v1.2A3.518,3.518,0,0,0,4.455,10.6,3.934,3.934,0,0,0,.555,14.83Zm6.765.03a2.568,2.568,0,0,1-2.505,2.79A2.6,2.6,0,0,1,2.31,14.83a2.536,2.536,0,0,1,2.505-2.745A2.563,2.563,0,0,1,7.32,14.86ZM11.565,16.7c0,1.68.915,2.3,2.385,2.3H15.3V17.575H14.25c-.72,0-.96-.255-.96-.87V12.13H15.3v-1.4H13.29V8.68H11.565v2.055H10.59v1.4h.975ZM22.38,19h1.8l1.665-6.1L27.51,19h1.8l2.565-8.265h-1.68l-1.71,6.615-1.68-6.615H25.02L23.265,17.38,21.54,10.735H19.8Zm18.645-4.14a4.215,4.215,0,1,0-8.43,0,4.03,4.03,0,0,0,4.14,4.275A4.14,4.14,0,0,0,41.025,14.86Zm-6.69,0a2.462,2.462,0,0,1,2.445-2.775,2.5,2.5,0,0,1,2.49,2.775,2.546,2.546,0,0,1-2.535,2.79C35.445,17.65,34.335,16.735,34.335,14.86Zm10.095-.21c0-1.755.78-2.28,2.04-2.28h.435V10.6a2.692,2.692,0,0,0-2.475,1.335v-1.2H42.72V19h1.71ZM48.48,19h1.71V15.445L53.25,19h2.31l-3.81-4.125,3.81-4.14H53.19l-3,3.615V7.9H48.48Zm10.08-.99A1.088,1.088,0,1,0,57.48,19.1,1.079,1.079,0,0,0,58.56,18.01Z" transform="translate(85.644 104.638)" fill="#0f72ee"/><g transform="translate(15.36 83.926)"><circle cx="26" cy="26" r="26" transform="translate(4.283 4.415)" fill="#0f72ee"/><g transform="translate(15.894 20.1)"><path d="M403.27,352.25a5.54,5.54,0,1,1,5.515-5.542v1.173h-8.468a3.168,3.168,0,0,0,4.971,1.285l.215-.179,1.8,1.52-.274.259A5.481,5.481,0,0,1,403.27,352.25Zm2.952-6.719a3.169,3.169,0,0,0-5.905,0Z" transform="translate(-394.412 -337.806)" fill="#fff"/><path d="M703.687,352.106a5.548,5.548,0,1,1,5.515-5.543v1.176h-8.466a3.168,3.168,0,0,0,4.971,1.285l.215-.179,1.8,1.519-.277.26A5.478,5.478,0,0,1,703.687,352.106Zm2.952-6.719a3.17,3.17,0,0,0-5.9,0Z" transform="translate(-683.038 -337.662)" fill="#fff"/><path d="M313.777,277.308a1.34,1.34,0,0,1-1.337-1.344V264.744a8.891,8.891,0,0,1,8.857-8.9H333.09a8.9,8.9,0,0,1,0,17.8H321.537a.664.664,0,0,0-.3.07l-6.86,3.444a1.321,1.321,0,0,1-.6.148Zm7.52-19.115a6.542,6.542,0,0,0-6.518,6.551v9.589l5.409-2.719a3.008,3.008,0,0,1,1.349-.319H333.09a6.551,6.551,0,0,0,0-13.1Z" transform="translate(-312.44 -255.842)" fill="#fff"/></g></g><path d="M.51-.08H5.32V-.84H1.88C3.17-1.89,5.11-3.42,5.11-5.22A2.034,2.034,0,0,0,2.87-7.36,2.215,2.215,0,0,0,.54-5.02h.88A1.429,1.429,0,0,1,2.88-6.58a1.221,1.221,0,0,1,1.33,1.4c0,1.48-1.8,2.92-3.7,4.45Zm6.9-.48a.606.606,0,0,0-.6-.62.611.611,0,0,0-.62.62.611.611,0,0,0,.62.62A.606.606,0,0,0,7.41-.56Zm0-4.28a.606.606,0,0,0-.6-.62.611.611,0,0,0-.62.62.611.611,0,0,0,.62.62A.606.606,0,0,0,7.41-4.84ZM8.39-.08H13.2V-.84H9.76c1.29-1.05,3.23-2.58,3.23-4.38a2.034,2.034,0,0,0-2.24-2.14A2.215,2.215,0,0,0,8.42-5.02H9.3a1.429,1.429,0,0,1,1.46-1.56,1.221,1.221,0,0,1,1.33,1.4c0,1.48-1.8,2.92-3.7,4.45ZM17.73,0h.9V-1.61h1V-2.4h-1V-7.16H17.54L14.03-2.3v.69h3.7ZM15.08-2.4l2.69-3.81V-2.4Zm9.19-1.26V-6.22h1.34c1.04,0,1.48.48,1.48,1.29,0,.78-.44,1.27-1.48,1.27Zm3.75-1.27c0-1.14-.77-2.04-2.41-2.04H23.36V0h.91V-2.91h1.34C27.34-2.91,28.02-3.87,28.02-4.93ZM29.15,0h.91V-5.17L32.37,0h.64l2.3-5.16V0h.91V-6.92h-.97L32.69-1.2,30.13-6.92h-.98Z" transform="translate(85.643 145.341)" fill="#0f72ee"/></g></svg>