<svg xmlns="http://www.w3.org/2000/svg" xmlns:xlink="http://www.w3.org/1999/xlink" width="333" height="126" viewBox="0 0 333 126"><defs><filter id="a" x="0" y="0" width="181" height="85" filterUnits="userSpaceOnUse"><feOffset input="SourceAlpha"/><feGaussianBlur stdDeviation="8" result="b"/><feFlood flood-opacity="0.122"/><feComposite operator="in" in2="b"/><feComposite in="SourceGraphic"/></filter><filter id="c" x="137" y="0" width="114" height="85" filterUnits="userSpaceOnUse"><feOffset input="SourceAlpha"/><feGaussianBlur stdDeviation="8" result="d"/><feFlood flood-opacity="0.122"/><feComposite operator="in" in2="d"/><feComposite in="SourceGraphic"/></filter><filter id="e" x="207" y="0" width="126" height="85" filterUnits="userSpaceOnUse"><feOffset input="SourceAlpha"/><feGaussianBlur stdDeviation="8" result="f"/><feFlood flood-opacity="0.122"/><feComposite operator="in" in2="f"/><feComposite in="SourceGraphic"/></filter><filter id="g" x="24" y="41" width="146" height="85" filterUnits="userSpaceOnUse"><feOffset input="SourceAlpha"/><feGaussianBlur stdDeviation="8" result="h"/><feFlood flood-opacity="0.122"/><feComposite operator="in" in2="h"/><feComposite in="SourceGraphic"/></filter><filter id="i" x="126.998" y="41" width="196" height="85" filterUnits="userSpaceOnUse"><feOffset input="SourceAlpha"/><feGaussianBlur stdDeviation="8" result="j"/><feFlood flood-opacity="0.122"/><feComposite operator="in" in2="j"/><feComposite in="SourceGraphic"/></filter></defs><g transform="translate(47.887 -213.289)"><g transform="translate(-14.066 237.29)"><g transform="translate(0 0)"><g transform="matrix(1, 0, 0, 1, -33.82, -24)" filter="url(#a)"><rect width="133" height="37" rx="18.5" transform="translate(24 24)" fill="#0f72ee"/></g><path d="M6.684-2.424c0-2.952-4.3-2.016-4.3-3.7,0-.684.492-1.008,1.152-.984a1.106,1.106,0,0,1,1.2,1H6.588C6.48-7.62,5.3-8.5,3.588-8.5S.636-7.584.636-6.072C.624-3.036,4.944-4.128,4.944-2.316c0,.6-.468,1.02-1.26,1.02A1.15,1.15,0,0,1,2.412-2.412H.612C.636-.828,1.98.084,3.72.084,5.628.084,6.684-1.1,6.684-2.424Zm1.716.36C8.4-.54,9.252,0,10.524,0H11.58V-1.416H10.8c-.528,0-.708-.192-.708-.636V-5.268H11.58v-1.38H10.092V-8.292H8.4v1.644H7.608v1.38H8.4Zm6.072-1.248c0-1.284.6-1.668,1.6-1.668h.444V-6.744a2.306,2.306,0,0,0-2.04,1.128V-6.648h-1.68V0h1.68Zm9.588-.012a3.285,3.285,0,0,0-3.42-3.432,3.285,3.285,0,0,0-3.42,3.432A3.254,3.254,0,0,0,20.592.108,3.324,3.324,0,0,0,24.06-3.324Zm-5.136,0a1.73,1.73,0,0,1,1.692-1.968,1.747,1.747,0,0,1,1.716,1.968,1.77,1.77,0,0,1-1.74,1.968C19.692-1.356,18.924-2,18.924-3.324ZM29.952,0h1.68V-3.9A2.557,2.557,0,0,0,28.98-6.744a2.483,2.483,0,0,0-2,.924v-.828H25.3V0h1.68V-3.672a1.443,1.443,0,0,1,1.5-1.644,1.438,1.438,0,0,1,1.476,1.644ZM32.8-3.348A3.156,3.156,0,0,0,35.832.108a2.622,2.622,0,0,0,2.2-1.092V.048a1.717,1.717,0,0,1-3.276.768H33.084c.168,1.524,1.476,2.46,3.348,2.46A3.038,3.038,0,0,0,39.72.048v-6.7H38.028V-5.7a2.6,2.6,0,0,0-2.2-1.056A3.113,3.113,0,0,0,32.8-3.348Zm5.232.024a1.79,1.79,0,0,1-1.764,1.956,1.817,1.817,0,0,1-1.752-1.98A1.773,1.773,0,0,1,36.264-5.28,1.79,1.79,0,0,1,38.028-3.324ZM41.364,0h1.68V-8.88h-1.68Zm6.168-2L45.816-6.648H43.932L46.6-.168l-1.44,3.312h1.788L51.06-6.648H49.272Zm6.852-1.344A3.155,3.155,0,0,0,57.408.108a2.622,2.622,0,0,0,2.208-1.08V0h1.692V-6.648H59.616V-5.7a2.629,2.629,0,0,0-2.2-1.056A3.113,3.113,0,0,0,54.384-3.348Zm5.232.024a1.79,1.79,0,0,1-1.764,1.956A1.817,1.817,0,0,1,56.1-3.348,1.773,1.773,0,0,1,57.852-5.28,1.79,1.79,0,0,1,59.616-3.324Zm2.9-.024A3.156,3.156,0,0,0,65.556.108a2.622,2.622,0,0,0,2.2-1.092V.048a1.717,1.717,0,0,1-3.276.768H62.808c.168,1.524,1.476,2.46,3.348,2.46A3.038,3.038,0,0,0,69.444.048v-6.7H67.752V-5.7a2.6,2.6,0,0,0-2.2-1.056A3.113,3.113,0,0,0,62.52-3.348Zm5.232.024a1.79,1.79,0,0,1-1.764,1.956,1.817,1.817,0,0,1-1.752-1.98A1.773,1.773,0,0,1,65.988-5.28,1.79,1.79,0,0,1,67.752-3.324Zm5.016.012c0-1.284.6-1.668,1.6-1.668h.444V-6.744a2.306,2.306,0,0,0-2.04,1.128V-6.648h-1.68V0h1.68Zm6.024-2.064a1.477,1.477,0,0,1,1.584,1.428H77.22A1.544,1.544,0,0,1,78.792-5.376Zm3.156,3.288H80.136a1.37,1.37,0,0,1-1.332.8,1.555,1.555,0,0,1-1.6-1.536h4.86a3.926,3.926,0,0,0,.048-.648A3.121,3.121,0,0,0,78.84-6.756,3.194,3.194,0,0,0,75.5-3.324,3.22,3.22,0,0,0,78.84.108,3.09,3.09,0,0,0,81.948-2.088ZM86.2-5.376A1.477,1.477,0,0,1,87.78-3.948H84.624A1.544,1.544,0,0,1,86.2-5.376Zm3.156,3.288H87.54a1.37,1.37,0,0,1-1.332.8,1.555,1.555,0,0,1-1.6-1.536h4.86a3.926,3.926,0,0,0,.048-.648,3.121,3.121,0,0,0-3.276-3.288,3.194,3.194,0,0,0-3.336,3.432A3.22,3.22,0,0,0,86.244.108,3.09,3.09,0,0,0,89.352-2.088Z" transform="translate(12.179 23)" fill="#fff"/></g></g><g transform="translate(113.023 237.29)"><g transform="translate(0 0)"><g transform="matrix(1, 0, 0, 1, -160.91, -24)" filter="url(#c)"><rect width="66" height="37" rx="18.5" transform="translate(161 24)" fill="#0f72ee"/></g><path d="M6.516,0H8.292L5.28-8.388H3.324L.312,0H2.076l.552-1.6H5.964ZM5.508-2.94H3.084L4.3-6.444Zm3.48-.408A3.156,3.156,0,0,0,12.024.108a2.622,2.622,0,0,0,2.2-1.092V.048a1.555,1.555,0,0,1-1.644,1.764,1.563,1.563,0,0,1-1.632-1H9.276c.168,1.524,1.476,2.46,3.348,2.46A3.038,3.038,0,0,0,15.912.048v-6.7H14.22V-5.7a2.6,2.6,0,0,0-2.2-1.056A3.113,3.113,0,0,0,8.988-3.348Zm5.232.024a1.79,1.79,0,0,1-1.764,1.956A1.817,1.817,0,0,1,10.7-3.348,1.773,1.773,0,0,1,12.456-5.28,1.79,1.79,0,0,1,14.22-3.324Zm5.016.012c0-1.284.6-1.668,1.6-1.668h.444V-6.744a2.306,2.306,0,0,0-2.04,1.128V-6.648h-1.68V0h1.68ZM25.26-5.376a1.477,1.477,0,0,1,1.584,1.428H23.688A1.544,1.544,0,0,1,25.26-5.376Zm3.156,3.288H26.6a1.37,1.37,0,0,1-1.332.8,1.555,1.555,0,0,1-1.6-1.536h4.86a3.927,3.927,0,0,0,.048-.648,3.121,3.121,0,0,0-3.276-3.288,3.194,3.194,0,0,0-3.336,3.432A3.22,3.22,0,0,0,25.308.108,3.09,3.09,0,0,0,28.416-2.088Zm4.248-3.288a1.477,1.477,0,0,1,1.584,1.428H31.092A1.544,1.544,0,0,1,32.664-5.376ZM35.82-2.088H34.008a1.37,1.37,0,0,1-1.332.8,1.555,1.555,0,0,1-1.6-1.536h4.86a3.927,3.927,0,0,0,.048-.648,3.121,3.121,0,0,0-3.276-3.288,3.194,3.194,0,0,0-3.336,3.432A3.22,3.22,0,0,0,32.712.108,3.09,3.09,0,0,0,35.82-2.088Z" transform="translate(15.091 23)" fill="#fff"/></g></g><g transform="translate(183.023 237.29)"><g transform="translate(0 0)"><g transform="matrix(1, 0, 0, 1, -230.91, -24)" filter="url(#e)"><rect width="78" height="37" rx="18.5" transform="translate(231 24)" fill="#0f72ee"/></g><path d="M6.312-8.388v5.76l-3.8-5.76H.828V0h1.68V-5.748L6.312,0h1.68V-8.388ZM12.5-5.376a1.477,1.477,0,0,1,1.584,1.428H10.932A1.544,1.544,0,0,1,12.5-5.376ZM15.66-2.088H13.848a1.37,1.37,0,0,1-1.332.8,1.555,1.555,0,0,1-1.6-1.536h4.86a3.927,3.927,0,0,0,.048-.648,3.121,3.121,0,0,0-3.276-3.288A3.194,3.194,0,0,0,9.216-3.324,3.22,3.22,0,0,0,12.552.108,3.09,3.09,0,0,0,15.66-2.088Zm7.668-4.56H21.636v3.66c0,1.068-.576,1.644-1.488,1.644a1.438,1.438,0,0,1-1.476-1.644v-3.66h-1.68v3.9A2.562,2.562,0,0,0,19.656.084a2.452,2.452,0,0,0,1.98-.924V0h1.692Zm1.92,4.584C25.248-.54,26.1,0,27.372,0h1.056V-1.416h-.78c-.528,0-.708-.192-.708-.636V-5.268h1.488v-1.38H26.94V-8.292H25.248v1.644h-.792v1.38h.792ZM31.32-3.312c0-1.284.6-1.668,1.6-1.668h.444V-6.744a2.306,2.306,0,0,0-2.04,1.128V-6.648H29.64V0h1.68Zm2.736-.036A3.155,3.155,0,0,0,37.08.108a2.622,2.622,0,0,0,2.208-1.08V0H40.98V-6.648H39.288V-5.7a2.629,2.629,0,0,0-2.2-1.056A3.113,3.113,0,0,0,34.056-3.348Zm5.232.024a1.79,1.79,0,0,1-1.764,1.956,1.817,1.817,0,0,1-1.752-1.98A1.773,1.773,0,0,1,37.524-5.28,1.79,1.79,0,0,1,39.288-3.324ZM42.624,0H44.3V-8.88h-1.68Z" transform="translate(15.091 23)" fill="#fff"/></g></g><g transform="translate(7.204 278.653)"><g transform="translate(0 0)"><g transform="matrix(1, 0, 0, 1, -55.09, -65.36)" filter="url(#g)"><rect width="98" height="37" rx="18.5" transform="translate(48 65)" fill="#0f72ee"/></g><path d="M3.756-8.376H.828V0H3.756C6.432,0,8.172-1.644,8.172-4.176S6.432-8.376,3.756-8.376ZM2.508-1.428V-6.96H3.7a2.532,2.532,0,0,1,2.76,2.784A2.505,2.505,0,0,1,3.7-1.428ZM9.432,0h1.68V-6.648H9.432Zm.852-7.44a.992.992,0,0,0,1.032-.984.992.992,0,0,0-1.032-.984.985.985,0,0,0-1.032.984A.985.985,0,0,0,10.284-7.44ZM17.928-1.9C17.88-4.332,14.2-3.576,14.2-4.788c0-.384.324-.636.948-.636a.99.99,0,0,1,1.116.864h1.608a2.382,2.382,0,0,0-2.676-2.2c-1.644,0-2.628.888-2.628,1.992,0,2.436,3.756,1.68,3.756,2.868,0,.384-.36.684-1.02.684A1.1,1.1,0,0,1,14.1-2.1H12.408C12.48-.864,13.644.108,15.312.108,16.932.108,17.928-.756,17.928-1.9Zm.948-1.452A3.155,3.155,0,0,0,21.9.108a2.622,2.622,0,0,0,2.208-1.08V0H25.8V-6.648H24.108V-5.7a2.629,2.629,0,0,0-2.2-1.056A3.113,3.113,0,0,0,18.876-3.348Zm5.232.024a1.79,1.79,0,0,1-1.764,1.956,1.817,1.817,0,0,1-1.752-1.98A1.773,1.773,0,0,1,22.344-5.28,1.79,1.79,0,0,1,24.108-3.324Zm2.9-.024A3.156,3.156,0,0,0,30.048.108a2.622,2.622,0,0,0,2.2-1.092V.048a1.717,1.717,0,0,1-3.276.768H27.3c.168,1.524,1.476,2.46,3.348,2.46A3.038,3.038,0,0,0,33.936.048v-6.7H32.244V-5.7a2.6,2.6,0,0,0-2.2-1.056A3.113,3.113,0,0,0,27.012-3.348Zm5.232.024A1.79,1.79,0,0,1,30.48-1.368a1.817,1.817,0,0,1-1.752-1.98A1.773,1.773,0,0,1,30.48-5.28,1.79,1.79,0,0,1,32.244-3.324Zm5.016.012c0-1.284.6-1.668,1.6-1.668H39.3V-6.744a2.306,2.306,0,0,0-2.04,1.128V-6.648H35.58V0h1.68Zm6.024-2.064a1.477,1.477,0,0,1,1.584,1.428H41.712A1.544,1.544,0,0,1,43.284-5.376ZM46.44-2.088H44.628a1.37,1.37,0,0,1-1.332.8A1.555,1.555,0,0,1,41.7-2.82h4.86a3.926,3.926,0,0,0,.048-.648,3.121,3.121,0,0,0-3.276-3.288A3.194,3.194,0,0,0,40-3.324,3.22,3.22,0,0,0,43.332.108,3.09,3.09,0,0,0,46.44-2.088Zm4.248-3.288a1.477,1.477,0,0,1,1.584,1.428H49.116A1.544,1.544,0,0,1,50.688-5.376Zm3.156,3.288H52.032a1.37,1.37,0,0,1-1.332.8A1.555,1.555,0,0,1,49.1-2.82h4.86a3.927,3.927,0,0,0,.048-.648,3.121,3.121,0,0,0-3.276-3.288A3.194,3.194,0,0,0,47.4-3.324,3.22,3.22,0,0,0,50.736.108,3.09,3.09,0,0,0,53.844-2.088Z" transform="translate(14.909 22.637)" fill="#fff"/></g></g><g transform="translate(128.022 278.653)"><g transform="translate(0 0)"><g transform="matrix(1, 0, 0, 1, -175.91, -65.36)" filter="url(#i)"><rect width="148" height="37" rx="18.5" transform="translate(151 65)" fill="#0f72ee"/></g><path d="M6.684-2.424c0-2.952-4.3-2.016-4.3-3.7,0-.684.492-1.008,1.152-.984a1.106,1.106,0,0,1,1.2,1H6.588C6.48-7.62,5.3-8.5,3.588-8.5S.636-7.584.636-6.072C.624-3.036,4.944-4.128,4.944-2.316c0,.6-.468,1.02-1.26,1.02A1.15,1.15,0,0,1,2.412-2.412H.612C.636-.828,1.98.084,3.72.084,5.628.084,6.684-1.1,6.684-2.424Zm1.716.36C8.4-.54,9.252,0,10.524,0H11.58V-1.416H10.8c-.528,0-.708-.192-.708-.636V-5.268H11.58v-1.38H10.092V-8.292H8.4v1.644H7.608v1.38H8.4Zm6.072-1.248c0-1.284.6-1.668,1.6-1.668h.444V-6.744a2.306,2.306,0,0,0-2.04,1.128V-6.648h-1.68V0h1.68Zm9.588-.012a3.285,3.285,0,0,0-3.42-3.432,3.285,3.285,0,0,0-3.42,3.432A3.254,3.254,0,0,0,20.592.108,3.324,3.324,0,0,0,24.06-3.324Zm-5.136,0a1.73,1.73,0,0,1,1.692-1.968,1.747,1.747,0,0,1,1.716,1.968,1.77,1.77,0,0,1-1.74,1.968C19.692-1.356,18.924-2,18.924-3.324ZM29.952,0h1.68V-3.9A2.557,2.557,0,0,0,28.98-6.744a2.483,2.483,0,0,0-2,.924v-.828H25.3V0h1.68V-3.672a1.443,1.443,0,0,1,1.5-1.644,1.438,1.438,0,0,1,1.476,1.644ZM32.8-3.348A3.156,3.156,0,0,0,35.832.108a2.622,2.622,0,0,0,2.2-1.092V.048a1.717,1.717,0,0,1-3.276.768H33.084c.168,1.524,1.476,2.46,3.348,2.46A3.038,3.038,0,0,0,39.72.048v-6.7H38.028V-5.7a2.6,2.6,0,0,0-2.2-1.056A3.113,3.113,0,0,0,32.8-3.348Zm5.232.024a1.79,1.79,0,0,1-1.764,1.956,1.817,1.817,0,0,1-1.752-1.98A1.773,1.773,0,0,1,36.264-5.28,1.79,1.79,0,0,1,38.028-3.324ZM41.364,0h1.68V-8.88h-1.68Zm6.168-2L45.816-6.648H43.932L46.6-.168l-1.44,3.312h1.788L51.06-6.648H49.272Zm6.852-1.344A3.156,3.156,0,0,0,57.42.108,2.513,2.513,0,0,0,59.6-.984V0h1.7V-8.88H59.6v3.156a2.728,2.728,0,0,0-2.172-1.032A3.115,3.115,0,0,0,54.384-3.348Zm5.232.024a1.79,1.79,0,0,1-1.764,1.956A1.817,1.817,0,0,1,56.1-3.348,1.773,1.773,0,0,1,57.852-5.28,1.79,1.79,0,0,1,59.616-3.324ZM62.952,0h1.68V-6.648h-1.68ZM63.8-7.44a.992.992,0,0,0,1.032-.984A.992.992,0,0,0,63.8-9.408a.985.985,0,0,0-1.032.984A.985.985,0,0,0,63.8-7.44ZM71.448-1.9c-.048-2.436-3.732-1.68-3.732-2.892,0-.384.324-.636.948-.636a.99.99,0,0,1,1.116.864h1.608a2.382,2.382,0,0,0-2.676-2.2c-1.644,0-2.628.888-2.628,1.992,0,2.436,3.756,1.68,3.756,2.868,0,.384-.36.684-1.02.684a1.1,1.1,0,0,1-1.2-.888H65.928C66-.864,67.164.108,68.832.108,70.452.108,71.448-.756,71.448-1.9ZM72.4-3.348A3.155,3.155,0,0,0,75.42.108a2.622,2.622,0,0,0,2.208-1.08V0H79.32V-6.648H77.628V-5.7a2.629,2.629,0,0,0-2.2-1.056A3.113,3.113,0,0,0,72.4-3.348Zm5.232.024a1.79,1.79,0,0,1-1.764,1.956,1.817,1.817,0,0,1-1.752-1.98A1.773,1.773,0,0,1,75.864-5.28,1.79,1.79,0,0,1,77.628-3.324Zm2.9-.024A3.156,3.156,0,0,0,83.568.108a2.622,2.622,0,0,0,2.2-1.092V.048a1.717,1.717,0,0,1-3.276.768H80.82c.168,1.524,1.476,2.46,3.348,2.46A3.038,3.038,0,0,0,87.456.048v-6.7H85.764V-5.7a2.6,2.6,0,0,0-2.2-1.056A3.113,3.113,0,0,0,80.532-3.348Zm5.232.024A1.79,1.79,0,0,1,84-1.368a1.817,1.817,0,0,1-1.752-1.98A1.773,1.773,0,0,1,84-5.28,1.79,1.79,0,0,1,85.764-3.324Zm5.016.012c0-1.284.6-1.668,1.6-1.668h.444V-6.744a2.306,2.306,0,0,0-2.04,1.128V-6.648H89.1V0h1.68ZM96.8-5.376a1.477,1.477,0,0,1,1.584,1.428H95.232A1.544,1.544,0,0,1,96.8-5.376ZM99.96-2.088H98.148a1.37,1.37,0,0,1-1.332.8,1.555,1.555,0,0,1-1.6-1.536h4.86a3.926,3.926,0,0,0,.048-.648,3.121,3.121,0,0,0-3.276-3.288,3.194,3.194,0,0,0-3.336,3.432A3.22,3.22,0,0,0,96.852.108,3.09,3.09,0,0,0,99.96-2.088Zm4.248-3.288a1.477,1.477,0,0,1,1.584,1.428h-3.156A1.544,1.544,0,0,1,104.208-5.376Zm3.156,3.288h-1.812a1.37,1.37,0,0,1-1.332.8,1.555,1.555,0,0,1-1.6-1.536h4.86a3.926,3.926,0,0,0,.048-.648,3.121,3.121,0,0,0-3.276-3.288,3.194,3.194,0,0,0-3.336,3.432A3.22,3.22,0,0,0,104.256.108,3.09,3.09,0,0,0,107.364-2.088Z" transform="translate(-4.909 22.637)" fill="#fff"/></g></g></g></svg>