<svg xmlns="http://www.w3.org/2000/svg" xmlns:xlink="http://www.w3.org/1999/xlink" width="426.754" height="92.256" viewBox="0 0 426.754 92.256"><defs><filter id="a" x="0" y="0" width="113" height="91" filterUnits="userSpaceOnUse"><feOffset input="SourceAlpha"/><feGaussianBlur stdDeviation="8" result="b"/><feFlood flood-opacity="0.122"/><feComposite operator="in" in2="b"/><feComposite in="SourceGraphic"/></filter><filter id="c" x="75.05" y="1.256" width="105.444" height="91" filterUnits="userSpaceOnUse"><feOffset input="SourceAlpha"/><feGaussianBlur stdDeviation="8" result="d"/><feFlood flood-opacity="0.122"/><feComposite operator="in" in2="d"/><feComposite in="SourceGraphic"/></filter><filter id="e" x="141.113" y="0.192" width="155.536" height="91" filterUnits="userSpaceOnUse"><feOffset input="SourceAlpha"/><feGaussianBlur stdDeviation="8" result="f"/><feFlood flood-opacity="0.122"/><feComposite operator="in" in2="f"/><feComposite in="SourceGraphic"/></filter><filter id="g" x="257.61" y="0.64" width="169.144" height="91" filterUnits="userSpaceOnUse"><feOffset input="SourceAlpha"/><feGaussianBlur stdDeviation="8" result="h"/><feFlood flood-opacity="0.122"/><feComposite operator="in" in2="h"/><feComposite in="SourceGraphic"/></filter></defs><g transform="translate(-143 -225)"><g transform="translate(-852.3 -762.038)"><g transform="matrix(1, 0, 0, 1, 995.3, 987.04)" filter="url(#a)"><rect width="65" height="43" rx="21.5" transform="translate(24 24)" fill="#0f72ee"/></g><path d="M3.444-3.528V0h1.6V-3.528l3.22-6.2H6.5L4.242-4.956,1.988-9.73H.21ZM12.768-6.5A2,2,0,0,1,14.924-4.55h-4.27A2.1,2.1,0,0,1,12.768-6.5ZM16.38-2.3H14.658a1.868,1.868,0,0,1-1.82,1.078,2.122,2.122,0,0,1-2.2-2.044h5.894a4.923,4.923,0,0,0,.056-.784A3.6,3.6,0,0,0,12.838-7.84a3.694,3.694,0,0,0-3.85,3.976,3.743,3.743,0,0,0,3.85,3.99A3.525,3.525,0,0,0,16.38-2.3Zm7.532.14c-.084-2.786-4.438-1.918-4.438-3.472,0-.518.448-.868,1.3-.868a1.276,1.276,0,0,1,1.442,1.134h1.6C23.73-6.9,22.582-7.84,20.832-7.84c-1.82,0-2.968.994-2.968,2.226,0,2.828,4.48,1.96,4.48,3.472,0,.532-.49.924-1.414.924a1.407,1.407,0,0,1-1.54-1.148H17.738c.07,1.4,1.372,2.492,3.22,2.492C22.778.126,23.912-.854,23.912-2.156Z" transform="translate(1039.3 1038.038)" fill="#fff"/></g><g transform="translate(-778.3 -762.038)"><g transform="matrix(1, 0, 0, 1, 921.3, 987.04)" filter="url(#c)"><rect width="57.444" height="43" rx="21.5" transform="translate(99.05 25.26)" fill="#0f72ee"/></g><path d="M7.448-9.744v7.252l-4.8-7.252H1.05V0h1.6V-7.266L7.448,0h1.6V-9.744Zm11.046,5.88A3.8,3.8,0,0,0,14.56-7.84a3.8,3.8,0,0,0-3.934,3.976A3.761,3.761,0,0,0,14.49.126,3.864,3.864,0,0,0,18.494-3.864Zm-6.244,0a2.3,2.3,0,0,1,2.282-2.59,2.334,2.334,0,0,1,2.324,2.59,2.376,2.376,0,0,1-2.366,2.6C13.286-1.26,12.25-2.114,12.25-3.864Z" transform="translate(1039.3 1038.038)" fill="#fff"/></g><g transform="translate(-687.3 -762.038)"><g transform="matrix(1, 0, 0, 1, 830.3, 987.04)" filter="url(#e)"><rect width="107.536" height="43" rx="21.5" transform="translate(165.11 24.19)" fill="#0f72ee"/></g><path d="M-27.083-2.758c0-3.556-5.152-2.184-5.152-4.382,0-.938.714-1.386,1.638-1.358A1.522,1.522,0,0,1-28.959-7.21h1.764c-.14-1.666-1.456-2.646-3.318-2.646-1.988,0-3.346,1.064-3.346,2.772,0,3.584,5.166,2.058,5.166,4.41,0,.826-.63,1.428-1.75,1.428a1.561,1.561,0,0,1-1.736-1.442h-1.708c0,1.722,1.5,2.786,3.444,2.786C-28.273.1-27.083-1.3-27.083-2.758Zm1.358-1.134A3.729,3.729,0,0,0-22.113.126a3.32,3.32,0,0,0,2.7-1.274V0h1.61V-7.714h-1.61v1.12A3.283,3.283,0,0,0-22.085-7.84,3.672,3.672,0,0,0-25.725-3.892Zm6.314.028a2.4,2.4,0,0,1-2.338,2.6,2.43,2.43,0,0,1-2.338-2.632,2.367,2.367,0,0,1,2.338-2.562A2.392,2.392,0,0,1-19.411-3.864Zm3.962,1.722c0,1.568.854,2.142,2.226,2.142h1.26V-1.33h-.98c-.672,0-.9-.238-.9-.812v-4.27h1.876v-1.3h-1.876V-9.632h-1.61v1.918h-.91v1.3h.91ZM-10.493,0h1.6V-7.714h-1.6Zm.812-8.736A1.007,1.007,0,0,0-8.673-9.758,1.007,1.007,0,0,0-9.681-10.78,1.01,1.01,0,0,0-10.7-9.758,1.01,1.01,0,0,0-9.681-8.736Zm8.638,6.58c-.084-2.786-4.438-1.918-4.438-3.472,0-.518.448-.868,1.3-.868A1.276,1.276,0,0,1-2.737-5.362h1.6C-1.225-6.9-2.373-7.84-4.123-7.84c-1.82,0-2.968.994-2.968,2.226,0,2.828,4.48,1.96,4.48,3.472,0,.532-.49.924-1.414.924a1.407,1.407,0,0,1-1.54-1.148H-7.217C-7.147-.966-5.845.126-4,.126-2.177.126-1.043-.854-1.043-2.156ZM.875,0h1.61V-6.412H3.913v-1.3H2.485V-8.26c0-.882.336-1.218,1.316-1.218v-1.33c-2.016,0-2.926.77-2.926,2.548v.546h-.91v1.3h.91Zm7.49-1.834L6.2-7.714H4.417L7.455-.126,5.887,3.626H7.539l4.732-11.34H10.619ZM13.475,0h1.6V-7.714h-1.6Zm.812-8.736A1.007,1.007,0,0,0,15.3-9.758a1.007,1.007,0,0,0-1.008-1.022,1.01,1.01,0,0,0-1.022,1.022A1.01,1.01,0,0,0,14.287-8.736ZM22.645,0h1.582V-4.55a3,3,0,0,0-3.164-3.29,2.968,2.968,0,0,0-2.3,1.008v-.882h-1.6V0h1.6V-4.312a1.87,1.87,0,0,1,1.946-2.142c1.162,0,1.932.728,1.932,2.142Zm3.08-3.892A3.733,3.733,0,0,0,29.365.126a3.311,3.311,0,0,0,2.674-1.288V.126a2.055,2.055,0,0,1-2.156,2.3,2.15,2.15,0,0,1-2.2-1.344H26.1c.2,1.708,1.722,2.73,3.78,2.73A3.5,3.5,0,0,0,33.649.126v-7.84h-1.61v1.12A3.268,3.268,0,0,0,29.365-7.84,3.672,3.672,0,0,0,25.725-3.892Zm6.314.028A2.4,2.4,0,0,1,29.7-1.26a2.43,2.43,0,0,1-2.338-2.632A2.367,2.367,0,0,1,29.7-6.454,2.392,2.392,0,0,1,32.039-3.864Z" transform="translate(1049.3 1038.038)" fill="#fff"/></g><g transform="translate(-564.3 -762.038)"><g transform="matrix(1, 0, 0, 1, 707.3, 987.04)" filter="url(#g)"><rect width="121.144" height="43" rx="21.5" transform="translate(281.61 24.64)" fill="#0f72ee"/></g><path d="M-40.39-4.886A4.858,4.858,0,0,0-35.42.084,4.627,4.627,0,0,0-30.9-2.828h-1.918A2.719,2.719,0,0,1-35.42-1.3a3.284,3.284,0,0,1-3.332-3.584,3.272,3.272,0,0,1,3.332-3.57,2.719,2.719,0,0,1,2.6,1.526H-30.9A4.638,4.638,0,0,0-35.42-9.856,4.867,4.867,0,0,0-40.39-4.886Zm18.7,1.022A3.8,3.8,0,0,0-25.62-7.84a3.8,3.8,0,0,0-3.934,3.976A3.761,3.761,0,0,0-25.69.126,3.864,3.864,0,0,0-21.686-3.864Zm-6.244,0a2.3,2.3,0,0,1,2.282-2.59,2.334,2.334,0,0,1,2.324,2.59,2.376,2.376,0,0,1-2.366,2.6C-26.894-1.26-27.93-2.114-27.93-3.864ZM-9.17,0h1.582V-4.55a3.014,3.014,0,0,0-3.178-3.29,3.02,3.02,0,0,0-2.688,1.526A2.975,2.975,0,0,0-16.226-7.84a2.938,2.938,0,0,0-2.282,1.008v-.882h-1.6V0h1.6V-4.312a1.87,1.87,0,0,1,1.946-2.142c1.162,0,1.932.728,1.932,2.142V0h1.582V-4.312A1.87,1.87,0,0,1-11.1-6.454c1.162,0,1.932.728,1.932,2.142Zm5.208-6.58V-7.714h-1.6V3.668h1.6V-1.12A3.488,3.488,0,0,0-1.274.126,3.723,3.723,0,0,0,2.352-3.892,3.661,3.661,0,0,0-1.274-7.84,3.366,3.366,0,0,0-3.962-6.58ZM.728-3.892A2.432,2.432,0,0,1-1.624-1.26a2.4,2.4,0,0,1-2.338-2.6,2.4,2.4,0,0,1,2.338-2.59A2.369,2.369,0,0,1,.728-3.892ZM3.934,0h1.6V-10.36h-1.6Zm6.944-6.5A2,2,0,0,1,13.034-4.55H8.764A2.1,2.1,0,0,1,10.878-6.5ZM14.49-2.3H12.768a1.868,1.868,0,0,1-1.82,1.078,2.122,2.122,0,0,1-2.2-2.044h5.894a4.923,4.923,0,0,0,.056-.784A3.6,3.6,0,0,0,10.948-7.84,3.694,3.694,0,0,0,7.1-3.864a3.743,3.743,0,0,0,3.85,3.99A3.525,3.525,0,0,0,14.49-2.3Zm2.03.154C16.52-.574,17.374,0,18.746,0h1.26V-1.33h-.98c-.672,0-.9-.238-.9-.812v-4.27h1.876v-1.3H18.13V-9.632H16.52v1.918h-.91v1.3h.91Zm8.2-4.354A2,2,0,0,1,26.88-4.55H22.61A2.1,2.1,0,0,1,24.724-6.5Zm3.612,4.2H26.614a1.868,1.868,0,0,1-1.82,1.078,2.122,2.122,0,0,1-2.2-2.044H28.49a4.923,4.923,0,0,0,.056-.784A3.6,3.6,0,0,0,24.794-7.84a3.694,3.694,0,0,0-3.85,3.976,3.743,3.743,0,0,0,3.85,3.99A3.525,3.525,0,0,0,28.336-2.3ZM30.114,0h1.6V-10.36h-1.6Zm6.734-1.834-2.17-5.88H32.9L35.938-.126,34.37,3.626h1.652l4.732-11.34H39.1Z" transform="translate(1049.3 1038.038)" fill="#fff"/></g></g></svg>