<svg xmlns="http://www.w3.org/2000/svg" xmlns:xlink="http://www.w3.org/1999/xlink" width="412" height="383" viewBox="0 0 412 383"><defs><filter id="a" x="0" y="0" width="412" height="383" filterUnits="userSpaceOnUse"><feOffset dy="6" input="SourceAlpha"/><feGaussianBlur stdDeviation="21" result="b"/><feFlood flood-opacity="0.161"/><feComposite operator="in" in2="b"/><feComposite in="SourceGraphic"/></filter><linearGradient id="c" x1="0.179" y1="0.117" x2="0.821" y2="0.883" gradientUnits="objectBoundingBox"><stop offset="0" stop-color="#eac554"/><stop offset="0.086" stop-color="#ecc855"/><stop offset="0.484" stop-color="#f5d158"/><stop offset="1" stop-color="#f8d55a"/></linearGradient></defs><g transform="translate(63 57)"><g transform="matrix(1, 0, 0, 1, -63, -57)" filter="url(#a)"><rect width="286" height="257" rx="16" transform="translate(63 57)" fill="#fff"/></g><path d="M10.458-4.886a4.85,4.85,0,0,0-4.97-4.97,4.867,4.867,0,0,0-4.97,4.97A4.87,4.87,0,0,0,5.488.1,4.854,4.854,0,0,0,10.458-4.886Zm-8.3,0a3.272,3.272,0,0,1,3.332-3.57A3.272,3.272,0,0,1,8.82-4.886a3.3,3.3,0,0,1-3.332,3.6A3.3,3.3,0,0,1,2.156-4.886Zm8.96-2.828L14.042,0h1.9l2.94-7.714H17.192L15.008-1.428,12.824-7.714ZM23.338-6.5A2,2,0,0,1,25.494-4.55h-4.27A2.1,2.1,0,0,1,23.338-6.5ZM26.95-2.3H25.228a1.868,1.868,0,0,1-1.82,1.078,2.122,2.122,0,0,1-2.2-2.044H27.1a4.923,4.923,0,0,0,.056-.784A3.6,3.6,0,0,0,23.408-7.84a3.694,3.694,0,0,0-3.85,3.976,3.743,3.743,0,0,0,3.85,3.99A3.525,3.525,0,0,0,26.95-2.3ZM30.324-4.06c0-1.638.728-2.128,1.9-2.128h.406V-7.84a2.513,2.513,0,0,0-2.31,1.246v-1.12h-1.6V0h1.6Zm3.248.168A3.729,3.729,0,0,0,37.184.126a3.32,3.32,0,0,0,2.7-1.274V0H41.5V-7.714h-1.61v1.12A3.283,3.283,0,0,0,37.212-7.84,3.672,3.672,0,0,0,33.572-3.892Zm6.314.028a2.4,2.4,0,0,1-2.338,2.6A2.43,2.43,0,0,1,35.21-3.892a2.367,2.367,0,0,1,2.338-2.562A2.392,2.392,0,0,1,39.886-3.864ZM43.6,0h1.6V-10.36H43.6Zm3.7,0h1.6V-10.36h-1.6Zm6.8-3.864a3.689,3.689,0,0,0,3.78,3.99,3.465,3.465,0,0,0,3.556-2.562H59.71a1.762,1.762,0,0,1-1.834,1.218c-1.288,0-2.142-.952-2.142-2.646S56.588-6.5,57.876-6.5A1.8,1.8,0,0,1,59.71-5.278h1.722A3.356,3.356,0,0,0,57.876-7.84,3.685,3.685,0,0,0,54.1-3.864Zm16.282,0A3.8,3.8,0,0,0,66.444-7.84,3.8,3.8,0,0,0,62.51-3.864,3.761,3.761,0,0,0,66.374.126,3.864,3.864,0,0,0,70.378-3.864Zm-6.244,0a2.3,2.3,0,0,1,2.282-2.59,2.334,2.334,0,0,1,2.324,2.59,2.376,2.376,0,0,1-2.366,2.6C65.17-1.26,64.134-2.114,64.134-3.864ZM82.894,0h1.582V-4.55A3.014,3.014,0,0,0,81.3-7.84,3.02,3.02,0,0,0,78.61-6.314,2.975,2.975,0,0,0,75.838-7.84a2.938,2.938,0,0,0-2.282,1.008v-.882h-1.6V0h1.6V-4.312A1.87,1.87,0,0,1,75.5-6.454c1.162,0,1.932.728,1.932,2.142V0h1.582V-4.312a1.87,1.87,0,0,1,1.946-2.142c1.162,0,1.932.728,1.932,2.142ZM88.1-6.58V-7.714h-1.6V3.668h1.6V-1.12A3.488,3.488,0,0,0,90.79.126a3.723,3.723,0,0,0,3.626-4.018A3.661,3.661,0,0,0,90.79-7.84,3.366,3.366,0,0,0,88.1-6.58Zm4.69,2.688A2.432,2.432,0,0,1,90.44-1.26a2.4,2.4,0,0,1-2.338-2.6,2.4,2.4,0,0,1,2.338-2.59A2.369,2.369,0,0,1,92.792-3.892Zm2.674,0A3.729,3.729,0,0,0,99.078.126a3.32,3.32,0,0,0,2.7-1.274V0h1.61V-7.714h-1.61v1.12A3.283,3.283,0,0,0,99.106-7.84,3.672,3.672,0,0,0,95.466-3.892Zm6.314.028a2.4,2.4,0,0,1-2.338,2.6A2.43,2.43,0,0,1,97.1-3.892a2.367,2.367,0,0,1,2.338-2.562A2.392,2.392,0,0,1,101.78-3.864ZM110.964,0h1.582V-4.55a3,3,0,0,0-3.164-3.29,2.968,2.968,0,0,0-2.3,1.008v-.882h-1.6V0h1.6V-4.312a1.87,1.87,0,0,1,1.946-2.142c1.162,0,1.932.728,1.932,2.142Zm6.65-1.834-2.17-5.88h-1.778L116.7-.126l-1.568,3.752h1.652l4.732-11.34h-1.652ZM137.3,0h1.582V-4.55A3.014,3.014,0,0,0,135.7-7.84a3.02,3.02,0,0,0-2.688,1.526,2.975,2.975,0,0,0-2.772-1.526,2.938,2.938,0,0,0-2.282,1.008v-.882h-1.6V0h1.6V-4.312a1.87,1.87,0,0,1,1.946-2.142c1.162,0,1.932.728,1.932,2.142V0h1.582V-4.312a1.87,1.87,0,0,1,1.946-2.142c1.162,0,1.932.728,1.932,2.142ZM148.26-3.864a3.8,3.8,0,0,0-3.934-3.976,3.8,3.8,0,0,0-3.934,3.976,3.761,3.761,0,0,0,3.864,3.99A3.864,3.864,0,0,0,148.26-3.864Zm-6.244,0a2.3,2.3,0,0,1,2.282-2.59,2.334,2.334,0,0,1,2.324,2.59,2.376,2.376,0,0,1-2.366,2.6C143.052-1.26,142.016-2.114,142.016-3.864Zm15.176,0a3.8,3.8,0,0,0-3.934-3.976,3.8,3.8,0,0,0-3.934,3.976,3.761,3.761,0,0,0,3.864,3.99A3.864,3.864,0,0,0,157.192-3.864Zm-6.244,0a2.3,2.3,0,0,1,2.282-2.59,2.334,2.334,0,0,1,2.324,2.59,2.376,2.376,0,0,1-2.366,2.6C151.984-1.26,150.948-2.114,150.948-3.864Zm7.294-.028a3.733,3.733,0,0,0,3.64,4.018,3.2,3.2,0,0,0,2.674-1.288V0h1.61V-10.36h-1.61v3.724a3.553,3.553,0,0,0-2.66-1.2A3.674,3.674,0,0,0,158.242-3.892Zm6.314.028a2.4,2.4,0,0,1-2.338,2.6,2.43,2.43,0,0,1-2.338-2.632,2.367,2.367,0,0,1,2.338-2.562A2.392,2.392,0,0,1,164.556-3.864ZM0,1H85.506V2H0ZM89.1,1h25.5V2H89.1Zm29.782,0h48.332V2H118.884Z" transform="translate(30 31)" fill="#0f72ee"/><path d="M5.488-9.856a4.867,4.867,0,0,0-4.97,4.97A4.858,4.858,0,0,0,5.488.084,4.8,4.8,0,0,0,10.3-4.088V-5.334H4.942V-4.06H8.6a2.946,2.946,0,0,1-3.108,2.7A3.267,3.267,0,0,1,2.156-4.886,3.255,3.255,0,0,1,5.488-8.4a2.766,2.766,0,0,1,2.6,1.47H10.01A4.638,4.638,0,0,0,5.488-9.856Zm7.98,5.8c0-1.638.728-2.128,1.9-2.128h.406V-7.84a2.513,2.513,0,0,0-2.31,1.246v-1.12h-1.6V0h1.6ZM20.5-6.5A2,2,0,0,1,22.652-4.55h-4.27A2.1,2.1,0,0,1,20.5-6.5Zm3.612,4.2H22.386a1.868,1.868,0,0,1-1.82,1.078,2.122,2.122,0,0,1-2.2-2.044h5.894a4.923,4.923,0,0,0,.056-.784A3.6,3.6,0,0,0,20.566-7.84a3.694,3.694,0,0,0-3.85,3.976,3.743,3.743,0,0,0,3.85,3.99A3.525,3.525,0,0,0,24.108-2.3Zm1.246-1.6A3.729,3.729,0,0,0,28.966.126a3.32,3.32,0,0,0,2.7-1.274V0h1.61V-7.714h-1.61v1.12A3.283,3.283,0,0,0,28.994-7.84,3.672,3.672,0,0,0,25.354-3.892Zm6.314.028a2.4,2.4,0,0,1-2.338,2.6,2.43,2.43,0,0,1-2.338-2.632A2.367,2.367,0,0,1,29.33-6.454,2.392,2.392,0,0,1,31.668-3.864ZM35.63-2.142C35.63-.574,36.484,0,37.856,0h1.26V-1.33h-.98c-.672,0-.9-.238-.9-.812v-4.27h1.876v-1.3H37.24V-9.632H35.63v1.918h-.91v1.3h.91ZM0,1H39.536V2H0Z" transform="translate(30 110)" fill="#0f72ee"/><path d="M.84-5.236c0,2.968.784,5.208,3.64,5.208s3.64-2.24,3.64-5.208c0-2.912-.784-5.152-3.64-5.152S.84-8.148.84-5.236Zm5.712,0c0,2-.21,3.752-2.072,3.752S2.408-3.234,2.408-5.236c0-1.9.21-3.7,2.072-3.7S6.552-7.14,6.552-5.236ZM0,1H8.974V2H0Z" transform="translate(246 110)" fill="#0f72ee"/><path d="M7.94,0h2.8V-2.84H12.5V-5.28H10.74V-14.4H7.48L.94-5.04v2.2h7ZM4.02-5.28l4.1-6.12v6.12ZM17.54-1.5a1.637,1.637,0,0,0-1.7-1.64A1.648,1.648,0,0,0,14.1-1.5,1.648,1.648,0,0,0,15.84.14,1.637,1.637,0,0,0,17.54-1.5Zm2.58-2.6A4.35,4.35,0,0,0,24.86.02c3.86,0,4.96-2.68,4.96-7.64,0-4.62-1.22-7.3-5.18-7.3a4.538,4.538,0,0,0-4.92,4.84,4.3,4.3,0,0,0,4.54,4.66,3.774,3.774,0,0,0,3.08-1.36c0,3.28-.72,4.5-2.36,4.5A2.071,2.071,0,0,1,22.72-4.1Zm4.72-3.6a2.226,2.226,0,0,1-2.44-2.4,2.232,2.232,0,0,1,2.34-2.44,2.216,2.216,0,0,1,2.34,2.48A2.144,2.144,0,0,1,24.84-7.7ZM0,2H30.94V3H0Z" transform="translate(30 65)" fill="#0f72ee"/><g transform="translate(224 43)"><g transform="translate(0 0)"><circle cx="15.594" cy="15.594" r="15.594" fill="url(#c)"/><g transform="translate(6.109 10.395)"><g transform="translate(1.033)"><path d="M818.173,2095.257a.715.715,0,0,1-.715-.715v-.417a1.331,1.331,0,0,0-2.662,0v.417a.715.715,0,1,1-1.43,0v-.417a2.761,2.761,0,0,1,5.522,0v.417A.715.715,0,0,1,818.173,2095.257Z" transform="translate(-813.366 -2091.384)" fill="#2e424e"/><g transform="translate(11.968)"><path d="M840.885,2095.257a.715.715,0,0,1-.715-.715v-.417a1.331,1.331,0,0,0-2.662,0v.417a.715.715,0,1,1-1.43,0v-.417a2.761,2.761,0,0,1,5.522,0v.417A.715.715,0,0,1,840.885,2095.257Z" transform="translate(-836.078 -2091.384)" fill="#2e424e"/></g></g><g transform="translate(0 6.959)"><path d="M813.909,2107.094c-.069-.166.721,6.115,8.457,6.348,7.736-.233,8.526-6.514,8.457-6.348A36.232,36.232,0,0,1,813.909,2107.094Z" transform="translate(-812.587 -2105.774)" fill="#2e424e"/><path d="M821.183,2113.577h-.04c-8.033-.241-9.756-6.532-9.738-7.68a1.317,1.317,0,0,1,1.7-1.248,35.071,35.071,0,0,0,16.156,0,1.317,1.317,0,0,1,1.7,1.248c.017,1.148-1.705,7.439-9.738,7.68Zm-6.428-5.9c.846,1.417,2.649,3.142,6.428,3.267,3.779-.125,5.581-1.85,6.428-3.267A37.673,37.673,0,0,1,814.755,2107.675Z" transform="translate(-811.405 -2104.591)" fill="#2e424e"/><g transform="translate(2.359 1.553)"><path d="M823.3,2109.632a13.126,13.126,0,0,0,7.419-2.093,36.222,36.222,0,0,1-14.838,0A13.125,13.125,0,0,0,823.3,2109.632Z" transform="translate(-815.882 -2107.539)" fill="#fff"/></g><g transform="translate(4.372 4.868)"><path d="M830.514,2115.018a12.885,12.885,0,0,0-10.813,0,9.875,9.875,0,0,0,10.813,0Z" transform="translate(-819.701 -2113.829)" fill="#dc6136"/></g></g></g></g></g><line y1="0.5" x2="285.501" transform="translate(0 85.5)" fill="none" stroke="#0f72ee" stroke-width="1" opacity="0.2"/><rect width="72" height="4" rx="2" transform="translate(28 233)" fill="#e5f0fd"/><rect width="72" height="4" rx="2" transform="translate(107 233)" fill="#e5f0fd"/><rect width="72" height="4" rx="2" transform="translate(186 233)" fill="#e5f0fd"/><rect width="140" height="6" rx="3" transform="translate(30 125)" fill="#0f72ee"/><line y1="0.5" x2="285.501" transform="translate(0 143.5)" fill="none" stroke="#0f72ee" stroke-width="1" opacity="0.2"/><path d="M7.616-2.758c0-3.556-5.152-2.184-5.152-4.382,0-.938.714-1.386,1.638-1.358A1.522,1.522,0,0,1,5.74-7.21H7.5c-.14-1.666-1.456-2.646-3.318-2.646C2.2-9.856.84-8.792.84-7.084c0,3.584,5.166,2.058,5.166,4.41,0,.826-.63,1.428-1.75,1.428A1.561,1.561,0,0,1,2.52-2.688H.812C.812-.966,2.31.1,4.256.1,6.426.1,7.616-1.3,7.616-2.758ZM12.754-6.5A2,2,0,0,1,14.91-4.55H10.64A2.1,2.1,0,0,1,12.754-6.5Zm3.612,4.2H14.644a1.868,1.868,0,0,1-1.82,1.078,2.122,2.122,0,0,1-2.2-2.044H16.52a4.923,4.923,0,0,0,.056-.784A3.6,3.6,0,0,0,12.824-7.84a3.694,3.694,0,0,0-3.85,3.976,3.743,3.743,0,0,0,3.85,3.99A3.525,3.525,0,0,0,16.366-2.3ZM23.618,0H25.2V-4.55a3,3,0,0,0-3.164-3.29,2.968,2.968,0,0,0-2.3,1.008v-.882h-1.6V0h1.6V-4.312a1.87,1.87,0,0,1,1.946-2.142c1.162,0,1.932.728,1.932,2.142Zm3.864-2.142C27.482-.574,28.336,0,29.708,0h1.26V-1.33h-.98c-.672,0-.9-.238-.9-.812v-4.27h1.876v-1.3H29.092V-9.632h-1.61v1.918h-.91v1.3h.91ZM32.438,0h1.6V-7.714h-1.6Zm.812-8.736a1.007,1.007,0,0,0,1.008-1.022A1.007,1.007,0,0,0,33.25-10.78a1.01,1.01,0,0,0-1.022,1.022A1.01,1.01,0,0,0,33.25-8.736ZM47.068,0H48.65V-4.55a3.014,3.014,0,0,0-3.178-3.29,3.02,3.02,0,0,0-2.688,1.526A2.975,2.975,0,0,0,40.012-7.84,2.938,2.938,0,0,0,37.73-6.832v-.882h-1.6V0h1.6V-4.312a1.87,1.87,0,0,1,1.946-2.142c1.162,0,1.932.728,1.932,2.142V0H43.19V-4.312a1.87,1.87,0,0,1,1.946-2.142c1.162,0,1.932.728,1.932,2.142Zm6.86-6.5A2,2,0,0,1,56.084-4.55h-4.27A2.1,2.1,0,0,1,53.928-6.5ZM57.54-2.3H55.818A1.868,1.868,0,0,1,54-1.218a2.122,2.122,0,0,1-2.2-2.044h5.894a4.923,4.923,0,0,0,.056-.784A3.6,3.6,0,0,0,54-7.84a3.694,3.694,0,0,0-3.85,3.976A3.743,3.743,0,0,0,54,.126,3.525,3.525,0,0,0,57.54-2.3ZM64.792,0h1.582V-4.55A3,3,0,0,0,63.21-7.84a2.968,2.968,0,0,0-2.3,1.008v-.882h-1.6V0h1.6V-4.312A1.87,1.87,0,0,1,62.86-6.454c1.162,0,1.932.728,1.932,2.142Zm3.864-2.142C68.656-.574,69.51,0,70.882,0h1.26V-1.33h-.98c-.672,0-.9-.238-.9-.812v-4.27h1.876v-1.3H70.266V-9.632h-1.61v1.918h-.91v1.3h.91Zm8.064-1.75A3.733,3.733,0,0,0,80.36.126a3.2,3.2,0,0,0,2.674-1.288V0h1.61V-10.36h-1.61v3.724a3.553,3.553,0,0,0-2.66-1.2A3.674,3.674,0,0,0,76.72-3.892Zm6.314.028A2.4,2.4,0,0,1,80.7-1.26a2.43,2.43,0,0,1-2.338-2.632A2.367,2.367,0,0,1,80.7-6.454,2.392,2.392,0,0,1,83.034-3.864ZM86.744,0h1.6V-7.714h-1.6Zm.812-8.736a1.007,1.007,0,0,0,1.008-1.022,1.007,1.007,0,0,0-1.008-1.022,1.01,1.01,0,0,0-1.022,1.022A1.01,1.01,0,0,0,87.556-8.736Zm8.638,6.58c-.084-2.786-4.438-1.918-4.438-3.472,0-.518.448-.868,1.3-.868A1.276,1.276,0,0,1,94.5-5.362h1.6C96.012-6.9,94.864-7.84,93.114-7.84c-1.82,0-2.968.994-2.968,2.226,0,2.828,4.48,1.96,4.48,3.472,0,.532-.49.924-1.414.924a1.407,1.407,0,0,1-1.54-1.148H90.02c.07,1.4,1.372,2.492,3.22,2.492C95.06.126,96.194-.854,96.194-2.156Zm1.974.014c0,1.568.854,2.142,2.226,2.142h1.26V-1.33h-.98c-.672,0-.9-.238-.9-.812v-4.27h1.876v-1.3H99.778V-9.632h-1.61v1.918h-.91v1.3h.91ZM104.72-4.06c0-1.638.728-2.128,1.9-2.128h.406V-7.84a2.513,2.513,0,0,0-2.31,1.246v-1.12h-1.6V0h1.6ZM108.5,0h1.6V-7.714h-1.6Zm.812-8.736a1.007,1.007,0,0,0,1.008-1.022,1.007,1.007,0,0,0-1.008-1.022,1.01,1.01,0,0,0-1.022,1.022A1.01,1.01,0,0,0,109.312-8.736Zm4.48,2.17V-10.36h-1.6V0h1.6V-1.12A3.278,3.278,0,0,0,116.48.126a3.723,3.723,0,0,0,3.626-4.018A3.653,3.653,0,0,0,116.48-7.84,3.3,3.3,0,0,0,113.792-6.566Zm4.69,2.674A2.432,2.432,0,0,1,116.13-1.26a2.4,2.4,0,0,1-2.338-2.6,2.4,2.4,0,0,1,2.338-2.59A2.369,2.369,0,0,1,118.482-3.892Zm10.192-3.822h-1.6v4.3a1.87,1.87,0,0,1-1.946,2.142c-1.162,0-1.932-.728-1.932-2.142v-4.3h-1.582v4.536A3.014,3.014,0,0,0,124.8.112a2.871,2.871,0,0,0,2.282-1.036V0h1.6Zm2.352,5.572c0,1.568.854,2.142,2.226,2.142h1.26V-1.33h-.98c-.672,0-.9-.238-.9-.812v-4.27h1.876v-1.3h-1.876V-9.632h-1.61v1.918h-.91v1.3h.91ZM135.982,0h1.6V-7.714h-1.6Zm.812-8.736A1.007,1.007,0,0,0,137.8-9.758a1.007,1.007,0,0,0-1.008-1.022,1.01,1.01,0,0,0-1.022,1.022A1.01,1.01,0,0,0,136.794-8.736Zm10.234,4.872a3.8,3.8,0,0,0-3.934-3.976,3.8,3.8,0,0,0-3.934,3.976,3.761,3.761,0,0,0,3.864,3.99A3.864,3.864,0,0,0,147.028-3.864Zm-6.244,0a2.3,2.3,0,0,1,2.282-2.59,2.334,2.334,0,0,1,2.324,2.59,2.376,2.376,0,0,1-2.366,2.6C141.82-1.26,140.784-2.114,140.784-3.864ZM154.084,0h1.582V-4.55A3,3,0,0,0,152.5-7.84a2.968,2.968,0,0,0-2.3,1.008v-.882h-1.6V0h1.6V-4.312a1.87,1.87,0,0,1,1.946-2.142c1.162,0,1.932.728,1.932,2.142ZM0,1H156.646V2H0Z" transform="translate(30 169)" fill="#0f72ee"/><path d="M2.975-6.562A3.139,3.139,0,0,0,.986-3.519C.986-1.156,2.924.272,5.457.272c2.55,0,4.488-1.428,4.488-3.791A3.171,3.171,0,0,0,7.956-6.562,2.977,2.977,0,0,0,9.639-9.3c0-1.768-1.36-3.332-4.182-3.332S1.275-11.084,1.275-9.3A2.908,2.908,0,0,0,2.975-6.562Zm2.482-.7A1.692,1.692,0,0,1,3.6-8.942,1.667,1.667,0,0,1,5.457-10.71a1.669,1.669,0,0,1,1.87,1.751A1.71,1.71,0,0,1,5.457-7.259Zm0,1.734a1.9,1.9,0,0,1,2.159,1.9A1.937,1.937,0,0,1,5.457-1.7,1.943,1.943,0,0,1,3.281-3.621C3.281-4.879,4.216-5.525,5.457-5.525ZM17.68,0h2.38V-2.414h1.5V-4.488h-1.5V-12.24H17.289L11.73-4.284v1.87h5.95ZM14.348-4.488l3.485-5.2v5.2ZM22.8-9.35a2.561,2.561,0,0,0,2.7,2.771A2.561,2.561,0,0,0,28.2-9.35,2.556,2.556,0,0,0,25.5-12.1,2.556,2.556,0,0,0,22.8-9.35Zm2.686-1.326c.595,0,.969.391.969,1.326s-.374,1.343-.969,1.343c-.578,0-.935-.408-.935-1.343S24.9-10.676,25.483-10.676ZM24.718,0H27.03l6.681-11.9H31.382ZM30.26-2.567A2.553,2.553,0,0,0,32.963.2a2.536,2.536,0,0,0,2.669-2.771,2.531,2.531,0,0,0-2.669-2.754A2.548,2.548,0,0,0,30.26-2.567Zm2.686-1.326c.578,0,.952.391.952,1.326,0,.952-.374,1.343-.952,1.343-.6,0-.969-.391-.969-1.343C31.977-3.5,32.351-3.893,32.946-3.893ZM0,1H36.261V2H0Z" transform="translate(30 204)" fill="#0f72ee"/><path d="M1.445-3.485A3.7,3.7,0,0,0,5.474.017C8.755.017,9.69-2.261,9.69-6.477c0-3.927-1.037-6.2-4.4-6.2A3.857,3.857,0,0,0,1.105-8.568,3.658,3.658,0,0,0,4.964-4.607,3.208,3.208,0,0,0,7.582-5.763c0,2.788-.612,3.825-2.006,3.825A1.76,1.76,0,0,1,3.655-3.485Zm4.012-3.06a1.892,1.892,0,0,1-2.074-2.04,1.9,1.9,0,0,1,1.989-2.074A1.884,1.884,0,0,1,7.361-8.551,1.823,1.823,0,0,1,5.457-6.545ZM11.271-9.35a2.561,2.561,0,0,0,2.7,2.771,2.561,2.561,0,0,0,2.7-2.771,2.556,2.556,0,0,0-2.7-2.754A2.556,2.556,0,0,0,11.271-9.35Zm2.686-1.326c.6,0,.969.391.969,1.326s-.374,1.343-.969,1.343c-.578,0-.935-.408-.935-1.343S13.379-10.676,13.957-10.676ZM13.192,0H15.5l6.681-11.9H19.856Zm5.542-2.567A2.553,2.553,0,0,0,21.437.2a2.536,2.536,0,0,0,2.669-2.771,2.531,2.531,0,0,0-2.669-2.754A2.548,2.548,0,0,0,18.734-2.567ZM21.42-3.893c.578,0,.952.391.952,1.326,0,.952-.374,1.343-.952,1.343-.595,0-.969-.391-.969-1.343C20.451-3.5,20.825-3.893,21.42-3.893ZM0,1H24.735V2H0Z" transform="translate(109 204)" fill="#0f72ee"/><path d="M.6-12.359v2.04H6.409L1.853,0H4.267L8.789-10.591v-1.768ZM9.945-9.35a2.561,2.561,0,0,0,2.7,2.771,2.561,2.561,0,0,0,2.7-2.771,2.556,2.556,0,0,0-2.7-2.754A2.556,2.556,0,0,0,9.945-9.35Zm2.686-1.326c.6,0,.969.391.969,1.326s-.374,1.343-.969,1.343c-.578,0-.935-.408-.935-1.343S12.053-10.676,12.631-10.676ZM11.866,0h2.312l6.681-11.9H18.53Zm5.542-2.567A2.553,2.553,0,0,0,20.111.2,2.536,2.536,0,0,0,22.78-2.567a2.531,2.531,0,0,0-2.669-2.754A2.548,2.548,0,0,0,17.408-2.567Zm2.686-1.326c.578,0,.952.391.952,1.326,0,.952-.374,1.343-.952,1.343-.595,0-.969-.391-.969-1.343C19.125-3.5,19.5-3.893,20.094-3.893ZM0,1H23.409V2H0Z" transform="translate(188 204)" fill="#0f72ee"/><path d="M1.89-3.75V-6.02H3.15c.89,0,1.29.42,1.29,1.14,0,.7-.4,1.13-1.29,1.13ZM5.61-4.88c0-1.13-.81-2.07-2.46-2.07H.75V0H1.89V-2.82H3.15C4.96-2.82,5.61-3.89,5.61-4.88Zm6.34,2.12A2.717,2.717,0,0,0,9.14-5.6,2.717,2.717,0,0,0,6.33-2.76,2.686,2.686,0,0,0,9.09.09,2.76,2.76,0,0,0,11.95-2.76Zm-4.46,0A1.641,1.641,0,0,1,9.12-4.61a1.667,1.667,0,0,1,1.66,1.85A1.7,1.7,0,0,1,9.09-.9,1.63,1.63,0,0,1,7.49-2.76Zm9.7,1.22c-.06-1.99-3.17-1.37-3.17-2.48,0-.37.32-.62.93-.62a.911.911,0,0,1,1.03.81h1.14A1.889,1.889,0,0,0,14.99-5.6c-1.3,0-2.12.71-2.12,1.59,0,2.02,3.2,1.4,3.2,2.48,0,.38-.35.66-1.01.66a1,1,0,0,1-1.1-.82H12.78A2.079,2.079,0,0,0,15.08.09C16.38.09,17.19-.61,17.19-1.54ZM18.42,0h1.14V-5.51H18.42ZM19-6.24a.719.719,0,0,0,.72-.73A.719.719,0,0,0,19-7.7a.721.721,0,0,0-.73.73A.721.721,0,0,0,19-6.24Zm2.24,4.71c0,1.12.61,1.53,1.59,1.53h.9V-.95h-.7c-.48,0-.64-.17-.64-.58V-4.58h1.34v-.93H22.39V-6.88H21.24v1.37h-.65v.93h.65ZM24.78,0h1.14V-5.51H24.78Zm.58-6.24a.719.719,0,0,0,.72-.73.719.719,0,0,0-.72-.73.721.721,0,0,0-.73.73A.721.721,0,0,0,25.36-6.24Zm1.41.73L28.86,0h1.36l2.1-5.51H31.11L29.55-1.02,27.99-5.51Zm8.73.87a1.431,1.431,0,0,1,1.54,1.39H33.99A1.5,1.5,0,0,1,35.5-4.64Zm2.58,3H36.85a1.334,1.334,0,0,1-1.3.77,1.516,1.516,0,0,1-1.57-1.46h4.21a3.516,3.516,0,0,0,.04-.56A2.57,2.57,0,0,0,35.55-5.6,2.639,2.639,0,0,0,32.8-2.76,2.673,2.673,0,0,0,35.55.09,2.518,2.518,0,0,0,38.08-1.64ZM0,1H38.6V2H0Z" transform="translate(30.001 221)" fill="#0f72ee"/><path d="M4.45,1.86V1.75A7.724,7.724,0,0,1,2.34-3.64,7.6,7.6,0,0,1,4.65-9.23v-.11H3.47a7.586,7.586,0,0,0-2.23,5.7,7.649,7.649,0,0,0,2.03,5.5Zm5.79-8.82v5.18L6.81-6.96H5.67V0H6.81V-5.19L10.24,0h1.14V-6.96Zm7.89,4.2A2.717,2.717,0,0,0,15.32-5.6a2.717,2.717,0,0,0-2.81,2.84A2.686,2.686,0,0,0,15.27.09,2.76,2.76,0,0,0,18.13-2.76Zm-4.46,0A1.641,1.641,0,0,1,15.3-4.61a1.667,1.667,0,0,1,1.66,1.85A1.7,1.7,0,0,1,15.27-.9,1.63,1.63,0,0,1,13.67-2.76Zm7.81,0A2.635,2.635,0,0,0,24.18.09a2.475,2.475,0,0,0,2.54-1.83H25.49a1.258,1.258,0,0,1-1.31.87c-.92,0-1.53-.68-1.53-1.89s.61-1.88,1.53-1.88a1.288,1.288,0,0,1,1.31.87h1.23A2.4,2.4,0,0,0,24.18-5.6,2.632,2.632,0,0,0,21.48-2.76ZM27.86,0H29V-3.08a1.336,1.336,0,0,1,1.39-1.53c.83,0,1.38.52,1.38,1.53V0H32.9V-3.25A2.124,2.124,0,0,0,30.71-5.6,2.184,2.184,0,0,0,29-4.87V-7.4H27.86Zm6.11-2.78A2.663,2.663,0,0,0,36.55.09a2.372,2.372,0,0,0,1.93-.91V0h1.15V-5.51H38.48v.8a2.345,2.345,0,0,0-1.91-.89A2.623,2.623,0,0,0,33.97-2.78Zm4.51.02A1.712,1.712,0,0,1,36.81-.9a1.736,1.736,0,0,1-1.67-1.88,1.69,1.69,0,0,1,1.67-1.83A1.709,1.709,0,0,1,38.48-2.76ZM45.04,0h1.13V-3.25A2.146,2.146,0,0,0,43.91-5.6a2.12,2.12,0,0,0-1.64.72v-.63H41.13V0h1.14V-3.08a1.336,1.336,0,0,1,1.39-1.53c.83,0,1.38.52,1.38,1.53Zm2.2-2.78A2.667,2.667,0,0,0,49.84.09a2.365,2.365,0,0,0,1.91-.92V.09a1.468,1.468,0,0,1-1.54,1.64A1.536,1.536,0,0,1,48.64.77H47.51c.14,1.22,1.23,1.95,2.7,1.95A2.5,2.5,0,0,0,52.9.09v-5.6H51.75v.8a2.334,2.334,0,0,0-1.91-.89A2.623,2.623,0,0,0,47.24-2.78Zm4.51.02A1.712,1.712,0,0,1,50.08-.9a1.736,1.736,0,0,1-1.67-1.88,1.69,1.69,0,0,1,1.67-1.83A1.709,1.709,0,0,1,51.75-2.76Zm4.97-1.88a1.431,1.431,0,0,1,1.54,1.39H55.21A1.5,1.5,0,0,1,56.72-4.64Zm2.58,3H58.07a1.334,1.334,0,0,1-1.3.77A1.516,1.516,0,0,1,55.2-2.33h4.21a3.516,3.516,0,0,0,.04-.56A2.57,2.57,0,0,0,56.77-5.6a2.639,2.639,0,0,0-2.75,2.84A2.673,2.673,0,0,0,56.77.09,2.518,2.518,0,0,0,59.3-1.64Zm.99,3.5V1.75A7.724,7.724,0,0,0,62.4-3.64a7.6,7.6,0,0,0-2.31-5.59v-.11h1.18a7.586,7.586,0,0,1,2.23,5.7,7.649,7.649,0,0,1-2.03,5.5ZM0,1H1.545V2H0ZM5.45,1h41.1V2H5.45ZM53.9,1h5.39V2H53.9Zm9.295,0H64.74V2H63.195Z" transform="translate(78.001 109)" fill="#0f72ee" opacity="0.8"/><path d="M5.32-6.96v5.18L1.89-6.96H.75V0H1.89V-5.19L5.32,0H6.46V-6.96Zm4.96,2.32a1.431,1.431,0,0,1,1.54,1.39H8.77A1.5,1.5,0,0,1,10.28-4.64Zm2.58,3H11.63a1.334,1.334,0,0,1-1.3.77A1.516,1.516,0,0,1,8.76-2.33h4.21a3.517,3.517,0,0,0,.04-.56A2.57,2.57,0,0,0,10.33-5.6,2.639,2.639,0,0,0,7.58-2.76,2.673,2.673,0,0,0,10.33.09,2.518,2.518,0,0,0,12.86-1.64Zm6.26-3.87H17.98v3.07A1.336,1.336,0,0,1,16.59-.91c-.83,0-1.38-.52-1.38-1.53V-5.51H14.08v3.24A2.153,2.153,0,0,0,16.35.08a2.051,2.051,0,0,0,1.63-.74V0h1.14ZM20.8-1.53C20.8-.41,21.41,0,22.39,0h.9V-.95h-.7c-.48,0-.64-.17-.64-.58V-4.58h1.34v-.93H21.95V-6.88H20.8v1.37h-.65v.93h.65ZM25.48-2.9c0-1.17.52-1.52,1.36-1.52h.29V-5.6a1.8,1.8,0,0,0-1.65.89v-.8H24.34V0h1.14Zm2.32.12A2.663,2.663,0,0,0,30.38.09a2.372,2.372,0,0,0,1.93-.91V0h1.15V-5.51H32.31v.8A2.345,2.345,0,0,0,30.4-5.6,2.623,2.623,0,0,0,27.8-2.78Zm4.51.02A1.712,1.712,0,0,1,30.64-.9a1.736,1.736,0,0,1-1.67-1.88,1.69,1.69,0,0,1,1.67-1.83A1.709,1.709,0,0,1,32.31-2.76ZM34.96,0H36.1V-7.4H34.96ZM0,1H36.85V2H0Z" transform="translate(109.001 221)" fill="#0f72ee"/><path d="M5.32-6.96v5.18L1.89-6.96H.75V0H1.89V-5.19L5.32,0H6.46V-6.96Zm4.96,2.32a1.431,1.431,0,0,1,1.54,1.39H8.77A1.5,1.5,0,0,1,10.28-4.64Zm2.58,3H11.63a1.334,1.334,0,0,1-1.3.77A1.516,1.516,0,0,1,8.76-2.33h4.21a3.517,3.517,0,0,0,.04-.56A2.57,2.57,0,0,0,10.33-5.6,2.639,2.639,0,0,0,7.58-2.76,2.673,2.673,0,0,0,10.33.09,2.518,2.518,0,0,0,12.86-1.64Zm.89-1.14A2.667,2.667,0,0,0,16.35.09a2.365,2.365,0,0,0,1.91-.92V.09a1.468,1.468,0,0,1-1.54,1.64A1.536,1.536,0,0,1,15.15.77H14.02c.14,1.22,1.23,1.95,2.7,1.95A2.5,2.5,0,0,0,19.41.09v-5.6H18.26v.8a2.334,2.334,0,0,0-1.91-.89A2.623,2.623,0,0,0,13.75-2.78Zm4.51.02A1.712,1.712,0,0,1,16.59-.9a1.736,1.736,0,0,1-1.67-1.88,1.69,1.69,0,0,1,1.67-1.83A1.709,1.709,0,0,1,18.26-2.76Zm2.27-.02A2.663,2.663,0,0,0,23.11.09a2.372,2.372,0,0,0,1.93-.91V0h1.15V-5.51H25.04v.8a2.345,2.345,0,0,0-1.91-.89A2.623,2.623,0,0,0,20.53-2.78Zm4.51.02A1.712,1.712,0,0,1,23.37-.9,1.736,1.736,0,0,1,21.7-2.78a1.69,1.69,0,0,1,1.67-1.83A1.709,1.709,0,0,1,25.04-2.76Zm2.83,1.23c0,1.12.61,1.53,1.59,1.53h.9V-.95h-.7c-.48,0-.64-.17-.64-.58V-4.58h1.34v-.93H29.02V-6.88H27.87v1.37h-.65v.93h.65ZM31.41,0h1.14V-5.51H31.41Zm.58-6.24a.719.719,0,0,0,.72-.73.719.719,0,0,0-.72-.73.721.721,0,0,0-.73.73A.721.721,0,0,0,31.99-6.24Zm1.41.73L35.49,0h1.36l2.1-5.51H37.74L36.18-1.02,34.62-5.51Zm8.73.87a1.431,1.431,0,0,1,1.54,1.39H40.62A1.5,1.5,0,0,1,42.13-4.64Zm2.58,3H43.48a1.334,1.334,0,0,1-1.3.77,1.516,1.516,0,0,1-1.57-1.46h4.21a3.516,3.516,0,0,0,.04-.56A2.57,2.57,0,0,0,42.18-5.6a2.639,2.639,0,0,0-2.75,2.84A2.673,2.673,0,0,0,42.18.09,2.518,2.518,0,0,0,44.71-1.64ZM0,1H13.059V2H0ZM20.41,1H45.23V2H20.41Z" transform="translate(188.001 221)" fill="#0f72ee"/><rect width="59" height="4" rx="2" transform="translate(28 233)" fill="#0f72ee"/><rect width="11" height="4" rx="2" transform="translate(107 233)" fill="#0f72ee"/><rect width="8" height="4" rx="2" transform="translate(186 233)" fill="#0f72ee"/></g></svg>