<svg xmlns="http://www.w3.org/2000/svg" xmlns:xlink="http://www.w3.org/1999/xlink" width="334" height="236" viewBox="0 0 334 236"><defs><filter id="a" x="0" y="0" width="334" height="236" filterUnits="userSpaceOnUse"><feOffset dy="16" input="SourceAlpha"/><feGaussianBlur stdDeviation="12" result="b"/><feFlood flood-opacity="0.161"/><feComposite operator="in" in2="b"/><feComposite in="SourceGraphic"/></filter></defs><g transform="translate(36.357 20.362)"><g transform="matrix(1, 0, 0, 1, -36.36, -20.36)" filter="url(#a)"><rect width="262" height="164" rx="16" transform="translate(36 20)" fill="#fff"/></g><rect width="22" height="4" transform="translate(119.644 56.638)" fill="#0f72ee" opacity="0.2"/><g transform="translate(38.644 31.638)"><path d="M131.125,85.375h-18A1.125,1.125,0,0,1,112,84.25V74.125a10.125,10.125,0,0,1,20.25,0V84.25A1.125,1.125,0,0,1,131.125,85.375Zm-16.875-2.25H130v-9a7.875,7.875,0,0,0-15.75,0Z" transform="translate(-29.75 -59.5)" fill="#0f72ee"/><path d="M101.375,342.75h-18a3.375,3.375,0,0,1,0-6.75h18a3.375,3.375,0,0,1,0,6.75Zm-18-4.5a1.125,1.125,0,0,0,0,2.25h18a1.125,1.125,0,0,0,0-2.25Z" transform="translate(0 -312.375)" fill="#0f72ee"/><path d="M241.125,6.75A1.125,1.125,0,0,1,240,5.625V2.813a2.813,2.813,0,0,1,5.625,0,1.125,1.125,0,0,1-2.25,0,.563.563,0,0,0-1.125,0V5.625A1.125,1.125,0,0,1,241.125,6.75Z" transform="translate(-148.75)" fill="#0f72ee"/><path d="M196.5,407.875a4.5,4.5,0,0,1-3.353-7.5,1.125,1.125,0,0,1,.838-.374h5.03a1.125,1.125,0,0,1,.838.374,4.5,4.5,0,0,1-3.353,7.5Zm-1.949-5.625a2.25,2.25,0,1,0,3.9,0Z" transform="translate(-104.125 -371.875)" fill="#0f72ee"/><circle cx="1.067" cy="1.067" r="1.067" transform="translate(96.267 19.009)" fill="#0f72ee"/></g><path d="M-102.1-9.03h2.79V0h1.71V-9.03h2.775v-1.4H-102.1Zm9,9.03h1.71V-4.62a2,2,0,0,1,2.085-2.3c1.245,0,2.07.78,2.07,2.3V0h1.695V-4.875A3.187,3.187,0,0,0-88.83-8.4,3.276,3.276,0,0,0-91.395-7.3v-3.8H-93.1ZM-79.89-6.96a2.146,2.146,0,0,1,2.31,2.085h-4.575A2.251,2.251,0,0,1-79.89-6.96Zm3.87,4.5h-1.845A2,2,0,0,1-79.815-1.3a2.274,2.274,0,0,1-2.355-2.19h6.315a5.275,5.275,0,0,0,.06-.84A3.854,3.854,0,0,0-79.815-8.4,3.958,3.958,0,0,0-83.94-4.14,4.01,4.01,0,0,0-79.815.135,3.777,3.777,0,0,0-76.02-2.46ZM-72.4-4.35c0-1.755.78-2.28,2.04-2.28h.435V-8.4A2.692,2.692,0,0,0-72.4-7.065v-1.2h-1.71V0h1.71Zm7.53-2.61a2.146,2.146,0,0,1,2.31,2.085H-67.14A2.251,2.251,0,0,1-64.875-6.96ZM-61-2.46H-62.85A2,2,0,0,1-64.8-1.3a2.274,2.274,0,0,1-2.355-2.19h6.315a5.275,5.275,0,0,0,.06-.84A3.854,3.854,0,0,0-64.8-8.4a3.958,3.958,0,0,0-4.125,4.26A4.01,4.01,0,0,0-64.8.135,3.777,3.777,0,0,0-61-2.46ZM-55.2,0h1.71V-8.265H-55.2Zm.87-9.36a1.079,1.079,0,0,0,1.08-1.095,1.079,1.079,0,0,0-1.08-1.095,1.082,1.082,0,0,0-1.095,1.095A1.082,1.082,0,0,0-54.33-9.36Zm9.255,7.05c-.09-2.985-4.755-2.055-4.755-3.72,0-.555.48-.93,1.4-.93A1.367,1.367,0,0,1-46.89-5.745h1.71C-45.27-7.395-46.5-8.4-48.375-8.4c-1.95,0-3.18,1.065-3.18,2.385,0,3.03,4.8,2.1,4.8,3.72,0,.57-.525.99-1.515.99a1.508,1.508,0,0,1-1.65-1.23h-1.77c.075,1.5,1.47,2.67,3.45,2.67C-46.29.135-45.075-.915-45.075-2.31ZM-39.9-4.17A4,4,0,0,0-36.03.135a3.557,3.557,0,0,0,2.9-1.365V0h1.725V-8.265h-1.725v1.2A3.518,3.518,0,0,0-36-8.4,3.934,3.934,0,0,0-39.9-4.17Zm6.765.03A2.568,2.568,0,0,1-35.64-1.35a2.6,2.6,0,0,1-2.5-2.82,2.536,2.536,0,0,1,2.5-2.745A2.563,2.563,0,0,1-33.135-4.14ZM-19.395,0H-17.7V-4.875A3.219,3.219,0,0,0-21.09-8.4a3.18,3.18,0,0,0-2.46,1.08v-.945h-1.71V0h1.71V-4.62a2,2,0,0,1,2.085-2.3c1.245,0,2.07.78,2.07,2.3Zm7.35-6.96a2.146,2.146,0,0,1,2.31,2.085H-14.31A2.251,2.251,0,0,1-12.045-6.96Zm3.87,4.5H-10.02A2,2,0,0,1-11.97-1.3a2.274,2.274,0,0,1-2.355-2.19H-8.01a5.275,5.275,0,0,0,.06-.84A3.854,3.854,0,0,0-11.97-8.4a3.958,3.958,0,0,0-4.125,4.26A4.01,4.01,0,0,0-11.97.135,3.777,3.777,0,0,0-8.175-2.46ZM-4.665,0h1.8L-1.2-6.105.465,0h1.8L4.83-8.265H3.15L1.44-1.65-.24-8.265H-2.025L-3.78-1.62-5.5-8.265h-1.74ZM15.87,0h1.695V-4.875A3.219,3.219,0,0,0,14.175-8.4a3.18,3.18,0,0,0-2.46,1.08v-.945h-1.71V0h1.71V-4.62a2,2,0,0,1,2.085-2.3c1.245,0,2.07.78,2.07,2.3ZM27.615-4.14A4.076,4.076,0,0,0,23.4-8.4a4.076,4.076,0,0,0-4.215,4.26A4.03,4.03,0,0,0,23.325.135,4.14,4.14,0,0,0,27.615-4.14Zm-6.69,0A2.462,2.462,0,0,1,23.37-6.915,2.5,2.5,0,0,1,25.86-4.14a2.546,2.546,0,0,1-2.535,2.79C22.035-1.35,20.925-2.265,20.925-4.14ZM29.58-2.3c0,1.68.915,2.3,2.385,2.3h1.35V-1.425h-1.05c-.72,0-.96-.255-.96-.87V-6.87h2.01v-1.4h-2.01V-10.32H29.58v2.055h-.975v1.4h.975ZM34.89,0H36.6V-8.265H34.89Zm.87-9.36a1.079,1.079,0,0,0,1.08-1.095,1.079,1.079,0,0,0-1.08-1.095,1.082,1.082,0,0,0-1.095,1.095A1.082,1.082,0,0,0,35.76-9.36ZM39.06,0h1.725V-6.87h1.53v-1.4h-1.53V-8.85c0-.945.36-1.305,1.41-1.305V-11.58c-2.16,0-3.135.825-3.135,2.73v.585h-.975v1.4h.975Zm4.77,0h1.71V-8.265H43.83Zm.87-9.36a1.079,1.079,0,0,0,1.08-1.095A1.079,1.079,0,0,0,44.7-11.55a1.082,1.082,0,0,0-1.095,1.095A1.082,1.082,0,0,0,44.7-9.36Zm2.52,5.22A3.953,3.953,0,0,0,51.27.135,3.712,3.712,0,0,0,55.08-2.61H53.235A1.888,1.888,0,0,1,51.27-1.3c-1.38,0-2.295-1.02-2.295-2.835s.915-2.82,2.295-2.82a1.932,1.932,0,0,1,1.965,1.3H55.08A3.6,3.6,0,0,0,51.27-8.4,3.948,3.948,0,0,0,47.22-4.14Zm9-.03A4,4,0,0,0,60.09.135a3.557,3.557,0,0,0,2.9-1.365V0H64.71V-8.265H62.985v1.2A3.518,3.518,0,0,0,60.12-8.4,3.934,3.934,0,0,0,56.22-4.17Zm6.765.03A2.568,2.568,0,0,1,60.48-1.35a2.6,2.6,0,0,1-2.5-2.82,2.536,2.536,0,0,1,2.5-2.745A2.563,2.563,0,0,1,62.985-4.14ZM67.23-2.3c0,1.68.915,2.3,2.385,2.3h1.35V-1.425h-1.05c-.72,0-.96-.255-.96-.87V-6.87h2.01v-1.4h-2.01V-10.32H67.23v2.055h-.975v1.4h.975ZM72.54,0h1.71V-8.265H72.54Zm.87-9.36a1.079,1.079,0,0,0,1.08-1.095,1.079,1.079,0,0,0-1.08-1.095,1.082,1.082,0,0,0-1.1,1.095A1.082,1.082,0,0,0,73.41-9.36ZM84.375-4.14A4.076,4.076,0,0,0,80.16-8.4a4.076,4.076,0,0,0-4.215,4.26A4.03,4.03,0,0,0,80.085.135,4.14,4.14,0,0,0,84.375-4.14Zm-6.69,0A2.462,2.462,0,0,1,80.13-6.915,2.5,2.5,0,0,1,82.62-4.14a2.546,2.546,0,0,1-2.535,2.79C78.8-1.35,77.685-2.265,77.685-4.14ZM91.935,0H93.63V-4.875A3.219,3.219,0,0,0,90.24-8.4a3.18,3.18,0,0,0-2.46,1.08v-.945H86.07V0h1.71V-4.62a2,2,0,0,1,2.085-2.3c1.245,0,2.07.78,2.07,2.3ZM101.97-2.31c-.09-2.985-4.755-2.055-4.755-3.72,0-.555.48-.93,1.395-.93a1.367,1.367,0,0,1,1.545,1.215h1.71c-.09-1.65-1.32-2.655-3.195-2.655-1.95,0-3.18,1.065-3.18,2.385,0,3.03,4.8,2.1,4.8,3.72,0,.57-.525.99-1.515.99a1.508,1.508,0,0,1-1.65-1.23h-1.77c.075,1.5,1.47,2.67,3.45,2.67C100.755.135,101.97-.915,101.97-2.31ZM-69.473,14.83a4,4,0,0,0,3.87,4.305,3.557,3.557,0,0,0,2.895-1.365V19h1.725V10.735h-1.725v1.2A3.518,3.518,0,0,0-65.573,10.6,3.934,3.934,0,0,0-69.473,14.83Zm6.765.03a2.568,2.568,0,0,1-2.5,2.79,2.6,2.6,0,0,1-2.505-2.82,2.536,2.536,0,0,1,2.505-2.745A2.563,2.563,0,0,1-62.708,14.86Zm5.685-2.9V7.9h-1.71V19h1.71V17.8a3.513,3.513,0,0,0,2.88,1.335,3.989,3.989,0,0,0,3.885-4.305,3.914,3.914,0,0,0-3.885-4.23A3.533,3.533,0,0,0-57.023,11.965ZM-52,14.83a2.606,2.606,0,0,1-2.52,2.82,2.576,2.576,0,0,1-2.505-2.79,2.572,2.572,0,0,1,2.505-2.775A2.538,2.538,0,0,1-52,14.83Zm11.31.03A4.076,4.076,0,0,0-44.9,10.6a4.076,4.076,0,0,0-4.215,4.26,4.03,4.03,0,0,0,4.14,4.275A4.14,4.14,0,0,0-40.688,14.86Zm-6.69,0a2.462,2.462,0,0,1,2.445-2.775,2.5,2.5,0,0,1,2.49,2.775,2.546,2.546,0,0,1-2.535,2.79C-46.268,17.65-47.378,16.735-47.378,14.86Zm15.87-4.125h-1.71V15.34a2,2,0,0,1-2.085,2.3c-1.245,0-2.07-.78-2.07-2.3V10.735h-1.695V15.6a3.23,3.23,0,0,0,3.4,3.525,3.076,3.076,0,0,0,2.445-1.11V19h1.71Zm2.52,5.97c0,1.68.915,2.3,2.385,2.3h1.35V17.575H-26.3c-.72,0-.96-.255-.96-.87V12.13h2.01v-1.4h-2.01V8.68h-1.725v2.055h-.975v1.4h.975Zm11.325,2.31,1.92-.015,2.325-7.89,2.19,7.89h1.935L-6.2,8.575h-1.83l-2.175,8.445-2.175-8.445H-14.3l-2.34,8.49-2.16-8.49h-1.815ZM-4.793,19h1.71V14.44H.367v-1.4h-3.45V9.97H1.342v-1.4H-4.793Zm14.34,0h1.71V8.575H9.547v4.47h-4.9V8.575H2.932V19h1.71V14.44h4.9Zm14.025-2.31c-.09-2.985-4.755-2.055-4.755-3.72,0-.555.48-.93,1.4-.93a1.367,1.367,0,0,1,1.545,1.215h1.71c-.09-1.65-1.32-2.655-3.195-2.655-1.95,0-3.18,1.065-3.18,2.385,0,3.03,4.8,2.1,4.8,3.72,0,.57-.525.99-1.515.99a1.508,1.508,0,0,1-1.65-1.23h-1.77c.075,1.5,1.47,2.67,3.45,2.67C22.357,19.135,23.572,18.085,23.572,16.69Zm9.33-5.955h-1.71V15.34a2,2,0,0,1-2.085,2.3c-1.245,0-2.07-.78-2.07-2.3V10.735H25.342V15.6a3.23,3.23,0,0,0,3.405,3.525,3.076,3.076,0,0,0,2.445-1.11V19H32.9Zm3.96,3.915c0-1.755.78-2.28,2.04-2.28h.435V10.6a2.692,2.692,0,0,0-2.475,1.335v-1.2h-1.71V19h1.71Zm3.075-3.915L43.072,19h2.04l3.15-8.265H46.447l-2.34,6.735-2.34-6.735ZM53.032,12.04a2.146,2.146,0,0,1,2.31,2.085H50.767A2.251,2.251,0,0,1,53.032,12.04Zm3.87,4.5H55.057a2,2,0,0,1-1.95,1.155,2.274,2.274,0,0,1-2.355-2.19h6.315a5.275,5.275,0,0,0,.06-.84,3.854,3.854,0,0,0-4.02-4.065,3.958,3.958,0,0,0-4.125,4.26,4.01,4.01,0,0,0,4.125,4.275A3.777,3.777,0,0,0,56.9,16.54Zm5.16.495-2.325-6.3h-1.9l3.255,8.13-1.68,4.02h1.77l5.07-12.15h-1.77Zm7.245.975a1.088,1.088,0,1,0-1.08,1.095A1.079,1.079,0,0,0,69.307,18.01Z" transform="translate(130.644 99.638)" fill="#0f72ee"/></g></svg>