<svg xmlns="http://www.w3.org/2000/svg" xmlns:xlink="http://www.w3.org/1999/xlink" width="429" height="151" viewBox="0 0 429 151"><defs><filter id="a" x="0" y="0" width="429" height="151" filterUnits="userSpaceOnUse"><feOffset dy="16" input="SourceAlpha"/><feGaussianBlur stdDeviation="12" result="b"/><feFlood flood-opacity="0.161"/><feComposite operator="in" in2="b"/><feComposite in="SourceGraphic"/></filter></defs><g transform="translate(36.357 -53.639)"><g transform="matrix(1, 0, 0, 1, -36.36, 53.64)" filter="url(#a)"><rect width="357" height="79" rx="16" transform="translate(36 20)" fill="#fff"/></g><path d="M7.74,0H9.45V-10.425H7.74v4.47h-4.9v-4.47H1.125V0h1.71V-4.56h4.9ZM19.575-4.14A4.076,4.076,0,0,0,15.36-8.4a4.076,4.076,0,0,0-4.215,4.26A4.03,4.03,0,0,0,15.285.135,4.14,4.14,0,0,0,19.575-4.14Zm-6.69,0A2.462,2.462,0,0,1,15.33-6.915,2.5,2.5,0,0,1,17.82-4.14a2.546,2.546,0,0,1-2.535,2.79C13.995-1.35,12.885-2.265,12.885-4.14ZM22.875,0h1.8L26.34-6.105,28.005,0h1.8L32.37-8.265H30.69L28.98-1.65,27.3-8.265H25.515L23.76-1.62,22.035-8.265H20.3Zm14.1-4.17A4,4,0,0,0,40.845.135a3.557,3.557,0,0,0,2.9-1.365V0h1.725V-8.265H43.74v1.2A3.518,3.518,0,0,0,40.875-8.4,3.934,3.934,0,0,0,36.975-4.17Zm6.765.03a2.568,2.568,0,0,1-2.505,2.79,2.6,2.6,0,0,1-2.5-2.82,2.536,2.536,0,0,1,2.5-2.745A2.563,2.563,0,0,1,43.74-4.14Zm5.685-.21c0-1.755.78-2.28,2.04-2.28H51.9V-8.4a2.692,2.692,0,0,0-2.475,1.335v-1.2h-1.71V0h1.71Zm7.53-2.61a2.146,2.146,0,0,1,2.31,2.085H54.69A2.251,2.251,0,0,1,56.955-6.96Zm3.87,4.5H58.98A2,2,0,0,1,57.03-1.3a2.274,2.274,0,0,1-2.355-2.19H60.99a5.275,5.275,0,0,0,.06-.84A3.854,3.854,0,0,0,57.03-8.4,3.958,3.958,0,0,0,52.9-4.14,4.01,4.01,0,0,0,57.03.135,3.777,3.777,0,0,0,60.825-2.46Zm9.06.5-2.325-6.3h-1.9L68.91-.135l-1.68,4.02H69l5.07-12.15H72.3ZM83.235-4.14A4.076,4.076,0,0,0,79.02-8.4a4.076,4.076,0,0,0-4.215,4.26A4.03,4.03,0,0,0,78.945.135,4.14,4.14,0,0,0,83.235-4.14Zm-6.69,0A2.462,2.462,0,0,1,78.99-6.915,2.5,2.5,0,0,1,81.48-4.14a2.546,2.546,0,0,1-2.535,2.79C77.655-1.35,76.545-2.265,76.545-4.14Zm15.87-4.125h-1.71V-3.66a2,2,0,0,1-2.085,2.3c-1.245,0-2.07-.78-2.07-2.3V-8.265H84.855V-3.4A3.23,3.23,0,0,0,88.26.12,3.076,3.076,0,0,0,90.705-.99V0h1.71ZM98.775,0H100.5V-6.87h1.53v-1.4H100.5V-8.85c0-.945.36-1.305,1.41-1.305V-11.58c-2.16,0-3.135.825-3.135,2.73v.585H97.8v1.4h.975Zm8.25-6.96a2.146,2.146,0,0,1,2.31,2.085H104.76A2.251,2.251,0,0,1,107.025-6.96Zm3.87,4.5H109.05A2,2,0,0,1,107.1-1.3a2.274,2.274,0,0,1-2.355-2.19h6.315a5.275,5.275,0,0,0,.06-.84A3.854,3.854,0,0,0,107.1-8.4a3.958,3.958,0,0,0-4.125,4.26A4.01,4.01,0,0,0,107.1.135,3.777,3.777,0,0,0,110.895-2.46Zm5.385-4.5a2.146,2.146,0,0,1,2.31,2.085h-4.575A2.251,2.251,0,0,1,116.28-6.96Zm3.87,4.5h-1.845a2,2,0,0,1-1.95,1.155A2.274,2.274,0,0,1,114-3.495h6.315a5.275,5.275,0,0,0,.06-.84,3.854,3.854,0,0,0-4.02-4.065,3.958,3.958,0,0,0-4.125,4.26A4.01,4.01,0,0,0,116.355.135,3.777,3.777,0,0,0,120.15-2.46Zm1.9,2.46h1.71V-11.1h-1.71Zm3.96,0h1.71V-8.265h-1.71Zm.87-9.36a1.079,1.079,0,0,0,1.08-1.095,1.079,1.079,0,0,0-1.08-1.095,1.082,1.082,0,0,0-1.1,1.095A1.082,1.082,0,0,0,126.885-9.36ZM135.84,0h1.695V-4.875a3.219,3.219,0,0,0-3.39-3.525,3.18,3.18,0,0,0-2.46,1.08v-.945h-1.71V0h1.71V-4.62a2,2,0,0,1,2.085-2.3c1.245,0,2.07.78,2.07,2.3Zm3.3-4.17a4,4,0,0,0,3.9,4.305,3.548,3.548,0,0,0,2.865-1.38V.135a2.2,2.2,0,0,1-2.31,2.46,2.3,2.3,0,0,1-2.355-1.44h-1.695c.21,1.83,1.845,2.925,4.05,2.925A3.748,3.748,0,0,0,147.63.135v-8.4h-1.725v1.2A3.5,3.5,0,0,0,143.04-8.4,3.934,3.934,0,0,0,139.14-4.17Zm6.765.03A2.568,2.568,0,0,1,143.4-1.35,2.6,2.6,0,0,1,140.9-4.17,2.536,2.536,0,0,1,143.4-6.915,2.563,2.563,0,0,1,145.905-4.14ZM154.05-2.3c0,1.68.915,2.3,2.385,2.3h1.35V-1.425h-1.05c-.72,0-.96-.255-.96-.87V-6.87h2.01v-1.4h-2.01V-10.32H154.05v2.055h-.975v1.4h.975ZM167.235-4.14A4.076,4.076,0,0,0,163.02-8.4a4.076,4.076,0,0,0-4.215,4.26,4.03,4.03,0,0,0,4.14,4.275A4.14,4.14,0,0,0,167.235-4.14Zm-6.69,0a2.462,2.462,0,0,1,2.445-2.775,2.5,2.5,0,0,1,2.49,2.775,2.546,2.546,0,0,1-2.535,2.79C161.655-1.35,160.545-2.265,160.545-4.14Zm7.815-.03a4,4,0,0,0,3.9,4.305,3.427,3.427,0,0,0,2.865-1.38V0h1.725V-11.1h-1.725v3.99a3.807,3.807,0,0,0-2.85-1.29A3.937,3.937,0,0,0,168.36-4.17Zm6.765.03a2.568,2.568,0,0,1-2.505,2.79,2.6,2.6,0,0,1-2.505-2.82,2.536,2.536,0,0,1,2.505-2.745A2.563,2.563,0,0,1,175.125-4.14Zm3.4-.03A4,4,0,0,0,182.4.135a3.557,3.557,0,0,0,2.9-1.365V0h1.725V-8.265H185.3v1.2A3.518,3.518,0,0,0,182.43-8.4,3.934,3.934,0,0,0,178.53-4.17Zm6.765.03a2.568,2.568,0,0,1-2.505,2.79,2.6,2.6,0,0,1-2.505-2.82,2.536,2.536,0,0,1,2.505-2.745A2.563,2.563,0,0,1,185.3-4.14Zm7.23,2.175-2.325-6.3h-1.9l3.255,8.13-1.68,4.02h1.77l5.07-12.15h-1.77Zm4.95-5.52h1.6a1.562,1.562,0,0,1,1.74-1.65,1.577,1.577,0,0,1,1.725,1.7c0,1.575-1.3,1.875-3,1.875h-.495l.075,2.355h1.485l.06-1.185c2.01,0,3.51-.93,3.51-3.045a3.052,3.052,0,0,0-3.375-3.135A3.03,3.03,0,0,0,197.475-7.485Zm3.45,6.5a1.079,1.079,0,0,0-1.08-1.1,1.082,1.082,0,0,0-1.1,1.1,1.082,1.082,0,0,0,1.1,1.1A1.079,1.079,0,0,0,200.925-.99Z" transform="translate(85.644 107.638)" fill="#0f72ee"/><g transform="translate(15.36 83.926)"><circle cx="26" cy="26" r="26" transform="translate(4.283 4.415)" fill="#0f72ee"/><g transform="translate(15.894 20.1)"><path d="M403.27,352.25a5.54,5.54,0,1,1,5.515-5.542v1.173h-8.468a3.168,3.168,0,0,0,4.971,1.285l.215-.179,1.8,1.52-.274.259A5.481,5.481,0,0,1,403.27,352.25Zm2.952-6.719a3.169,3.169,0,0,0-5.905,0Z" transform="translate(-394.412 -337.806)" fill="#fff"/><path d="M703.687,352.106a5.548,5.548,0,1,1,5.515-5.543v1.176h-8.466a3.168,3.168,0,0,0,4.971,1.285l.215-.179,1.8,1.519-.277.26A5.478,5.478,0,0,1,703.687,352.106Zm2.952-6.719a3.17,3.17,0,0,0-5.9,0Z" transform="translate(-683.038 -337.662)" fill="#fff"/><path d="M313.777,277.308a1.34,1.34,0,0,1-1.337-1.344V264.744a8.891,8.891,0,0,1,8.857-8.9H333.09a8.9,8.9,0,0,1,0,17.8H321.537a.664.664,0,0,0-.3.07l-6.86,3.444a1.321,1.321,0,0,1-.6.148Zm7.52-19.115a6.542,6.542,0,0,0-6.518,6.551v9.589l5.409-2.719a3.008,3.008,0,0,1,1.349-.319H333.09a6.551,6.551,0,0,0,0-13.1Z" transform="translate(-312.44 -255.842)" fill="#fff"/></g></g><path d="M.51-.08H5.32V-.84H1.88C3.17-1.89,5.11-3.42,5.11-5.22A2.034,2.034,0,0,0,2.87-7.36,2.215,2.215,0,0,0,.54-5.02h.88A1.429,1.429,0,0,1,2.88-6.58a1.221,1.221,0,0,1,1.33,1.4c0,1.48-1.8,2.92-3.7,4.45Zm6.9-.48a.606.606,0,0,0-.6-.62.611.611,0,0,0-.62.62.611.611,0,0,0,.62.62A.606.606,0,0,0,7.41-.56Zm0-4.28a.606.606,0,0,0-.6-.62.611.611,0,0,0-.62.62.611.611,0,0,0,.62.62A.606.606,0,0,0,7.41-4.84ZM8.39-.08H13.2V-.84H9.76c1.29-1.05,3.23-2.58,3.23-4.38a2.034,2.034,0,0,0-2.24-2.14A2.215,2.215,0,0,0,8.42-5.02H9.3a1.429,1.429,0,0,1,1.46-1.56,1.221,1.221,0,0,1,1.33,1.4c0,1.48-1.8,2.92-3.7,4.45ZM17.73,0h.9V-1.61h1V-2.4h-1V-7.16H17.54L14.03-2.3v.69h3.7ZM15.08-2.4l2.69-3.81V-2.4Zm9.19-1.26V-6.22h1.34c1.04,0,1.48.48,1.48,1.29,0,.78-.44,1.27-1.48,1.27Zm3.75-1.27c0-1.14-.77-2.04-2.41-2.04H23.36V0h.91V-2.91h1.34C27.34-2.91,28.02-3.87,28.02-4.93ZM29.15,0h.91V-5.17L32.37,0h.64l2.3-5.16V0h.91V-6.92h-.97L32.69-1.2,30.13-6.92h-.98Z" transform="translate(85.643 125.341)" fill="#0f72ee"/></g></svg>