<svg xmlns="http://www.w3.org/2000/svg" xmlns:xlink="http://www.w3.org/1999/xlink" width="342" height="126" viewBox="0 0 342 126"><defs><filter id="a" x="0" y="0" width="193" height="85" filterUnits="userSpaceOnUse"><feOffset input="SourceAlpha"/><feGaussianBlur stdDeviation="8" result="b"/><feFlood flood-opacity="0.122"/><feComposite operator="in" in2="b"/><feComposite in="SourceGraphic"/></filter><filter id="c" x="147" y="0" width="195" height="85" filterUnits="userSpaceOnUse"><feOffset input="SourceAlpha"/><feGaussianBlur stdDeviation="8" result="d"/><feFlood flood-opacity="0.122"/><feComposite operator="in" in2="d"/><feComposite in="SourceGraphic"/></filter><filter id="e" x="0" y="41" width="193" height="85" filterUnits="userSpaceOnUse"><feOffset input="SourceAlpha"/><feGaussianBlur stdDeviation="8" result="f"/><feFlood flood-opacity="0.122"/><feComposite operator="in" in2="f"/><feComposite in="SourceGraphic"/></filter><filter id="g" x="146.998" y="41" width="195" height="85" filterUnits="userSpaceOnUse"><feOffset input="SourceAlpha"/><feGaussianBlur stdDeviation="8" result="h"/><feFlood flood-opacity="0.122"/><feComposite operator="in" in2="h"/><feComposite in="SourceGraphic"/></filter></defs><g transform="translate(34.887 -213.289)"><g transform="translate(-1.066 237.29)"><g transform="translate(0 0)"><g transform="matrix(1, 0, 0, 1, -33.82, -24)" filter="url(#a)"><rect width="145" height="37" rx="18.5" transform="translate(24 24)" fill="#0f72ee"/></g><path d="M-34.506-1.716l-2.3-6.66h-1.8L-35.538,0h2.04l3.072-8.376h-1.788Zm7.944-3.66a1.477,1.477,0,0,1,1.584,1.428h-3.156A1.544,1.544,0,0,1-26.562-5.376Zm3.156,3.288h-1.812a1.37,1.37,0,0,1-1.332.8,1.555,1.555,0,0,1-1.6-1.536h4.86a3.927,3.927,0,0,0,.048-.648,3.121,3.121,0,0,0-3.276-3.288A3.194,3.194,0,0,0-29.85-3.324,3.22,3.22,0,0,0-26.514.108,3.09,3.09,0,0,0-23.406-2.088Zm3.072-1.224c0-1.284.6-1.668,1.6-1.668h.444V-6.744a2.306,2.306,0,0,0-2.04,1.128V-6.648h-1.68V0h1.68Zm6,1.308L-16.05-6.648h-1.884l2.664,6.48-1.44,3.312h1.788l4.116-9.792h-1.788ZM-7.05,0h1.68V-3.672a1.443,1.443,0,0,1,1.5-1.644A1.438,1.438,0,0,1-2.394-3.672V0h1.68V-3.9A2.538,2.538,0,0,0-3.306-6.744,2.555,2.555,0,0,0-5.37-5.82V-8.88H-7.05ZM3.738-5.376A1.477,1.477,0,0,1,5.322-3.948H2.166A1.544,1.544,0,0,1,3.738-5.376ZM6.894-2.088H5.082a1.37,1.37,0,0,1-1.332.8,1.555,1.555,0,0,1-1.6-1.536h4.86a3.927,3.927,0,0,0,.048-.648A3.121,3.121,0,0,0,3.786-6.756,3.194,3.194,0,0,0,.45-3.324,3.22,3.22,0,0,0,3.786.108,3.09,3.09,0,0,0,6.894-2.088Zm.96-1.26A3.155,3.155,0,0,0,10.878.108a2.622,2.622,0,0,0,2.208-1.08V0h1.692V-6.648H13.086V-5.7a2.629,2.629,0,0,0-2.2-1.056A3.113,3.113,0,0,0,7.854-3.348Zm5.232.024a1.79,1.79,0,0,1-1.764,1.956A1.817,1.817,0,0,1,9.57-3.348,1.773,1.773,0,0,1,11.322-5.28,1.79,1.79,0,0,1,13.086-3.324ZM16.422,0H18.1V-8.88h-1.68Zm3.6-2.064C20.022-.54,20.874,0,22.146,0H23.2V-1.416h-.78c-.528,0-.708-.192-.708-.636V-5.268H23.2v-1.38H21.714V-8.292H20.022v1.644H19.23v1.38h.792ZM24.414,0h1.68V-3.672a1.443,1.443,0,0,1,1.5-1.644A1.438,1.438,0,0,1,29.07-3.672V0h1.68V-3.9a2.538,2.538,0,0,0-2.592-2.844,2.555,2.555,0,0,0-2.064.924V-8.88h-1.68ZM35.178-2,33.462-6.648H31.578l2.664,6.48L32.8,3.144H34.59l4.116-9.792H36.918Z" transform="translate(63.179 24)" fill="#fff"/></g></g><g transform="translate(136.023 237.29)"><g transform="translate(0 0)"><g transform="matrix(1, 0, 0, 1, -170.91, -24)" filter="url(#c)"><rect width="147" height="37" rx="18.5" transform="translate(171 24)" fill="#0f72ee"/></g><path d="M-17.568,0h1.68V-8.376h-1.68v3.444h-3.588V-8.376h-1.68V0h1.68V-3.564h3.588Zm6.192-5.376A1.477,1.477,0,0,1-9.792-3.948h-3.156A1.544,1.544,0,0,1-11.376-5.376ZM-8.22-2.088h-1.812a1.37,1.37,0,0,1-1.332.8,1.555,1.555,0,0,1-1.6-1.536H-8.1a3.927,3.927,0,0,0,.048-.648,3.121,3.121,0,0,0-3.276-3.288,3.194,3.194,0,0,0-3.336,3.432A3.22,3.22,0,0,0-11.328.108,3.09,3.09,0,0,0-8.22-2.088Zm.96-1.26A3.155,3.155,0,0,0-4.236.108,2.622,2.622,0,0,0-2.028-.972V0H-.336V-6.648H-2.028V-5.7a2.629,2.629,0,0,0-2.2-1.056A3.113,3.113,0,0,0-7.26-3.348Zm5.232.024A1.79,1.79,0,0,1-3.792-1.368a1.817,1.817,0,0,1-1.752-1.98A1.773,1.773,0,0,1-3.792-5.28,1.79,1.79,0,0,1-2.028-3.324ZM1.308,0h1.68V-8.88H1.308Zm3.6-2.064C4.908-.54,5.76,0,7.032,0H8.088V-1.416h-.78c-.528,0-.708-.192-.708-.636V-5.268H8.088v-1.38H6.6V-8.292H4.908v1.644H4.116v1.38h.792ZM9.3,0h1.68V-3.672a1.443,1.443,0,0,1,1.5-1.644,1.438,1.438,0,0,1,1.476,1.644V0h1.68V-3.9a2.538,2.538,0,0,0-2.592-2.844,2.555,2.555,0,0,0-2.064.924V-8.88H9.3ZM20.064-2,18.348-6.648H16.464l2.664,6.48-1.44,3.312h1.788l4.116-9.792H21.8Z" transform="translate(74.091 23)" fill="#fff"/></g></g><g transform="translate(-1.796 278.653)"><g transform="translate(0 0)"><g transform="matrix(1, 0, 0, 1, -33.09, -65.36)" filter="url(#e)"><rect width="145" height="37" rx="18.5" transform="translate(24 65)" fill="#0f72ee"/></g><path d="M-5.754-2.424c0-2.952-4.3-2.016-4.3-3.7,0-.684.492-1.008,1.152-.984a1.106,1.106,0,0,1,1.2,1H-5.85C-5.958-7.62-7.134-8.5-8.85-8.5S-11.8-7.584-11.8-6.072c-.012,3.036,4.308,1.944,4.308,3.756,0,.6-.468,1.02-1.26,1.02a1.15,1.15,0,0,1-1.272-1.116h-1.8c.024,1.584,1.368,2.5,3.108,2.5C-6.81.084-5.754-1.1-5.754-2.424ZM-4.3,0h1.68V-6.648H-4.3Zm.852-7.44a.992.992,0,0,0,1.032-.984A.992.992,0,0,0-3.45-9.408a.985.985,0,0,0-1.032.984A.985.985,0,0,0-3.45-7.44ZM-1.4-3.324A3.189,3.189,0,0,0,1.89.108,3.032,3.032,0,0,0,5.022-2.244H3.21a1.268,1.268,0,0,1-1.332.912c-.936,0-1.56-.7-1.56-1.992s.624-2,1.56-2A1.306,1.306,0,0,1,3.21-4.4H5.022A2.966,2.966,0,0,0,1.89-6.756,3.189,3.189,0,0,0-1.4-3.324ZM6.258,0h1.68V-2.832L10.194,0h2.184L9.426-3.312l2.928-3.336H10.17L7.938-3.828V-8.88H6.258Z" transform="translate(62.909 22.637)" fill="#fff"/></g></g><g transform="translate(161.022 278.653)"><g transform="translate(0 0)"><g transform="matrix(1, 0, 0, 1, -195.91, -65.36)" filter="url(#g)"><rect width="147" height="37" rx="18.5" transform="translate(171 65)" fill="#0f72ee"/></g><path d="M-23.232-1.716l-2.3-6.66h-1.8L-24.264,0h2.04l3.072-8.376H-20.94Zm7.944-3.66A1.477,1.477,0,0,1-13.7-3.948H-16.86A1.544,1.544,0,0,1-15.288-5.376Zm3.156,3.288h-1.812a1.37,1.37,0,0,1-1.332.8,1.555,1.555,0,0,1-1.6-1.536h4.86a3.927,3.927,0,0,0,.048-.648A3.121,3.121,0,0,0-15.24-6.756a3.194,3.194,0,0,0-3.336,3.432A3.22,3.22,0,0,0-15.24.108,3.09,3.09,0,0,0-12.132-2.088ZM-9.06-3.312c0-1.284.6-1.668,1.6-1.668h.444V-6.744A2.306,2.306,0,0,0-9.06-5.616V-6.648h-1.68V0h1.68ZM-3.06-2-4.776-6.648H-6.66L-4-.168l-1.44,3.312h1.788L.468-6.648H-1.32ZM9.384-1.9c-.048-2.436-3.732-1.68-3.732-2.892,0-.384.324-.636.948-.636a.99.99,0,0,1,1.116.864H9.324a2.382,2.382,0,0,0-2.676-2.2C5-6.756,4.02-5.868,4.02-4.764c0,2.436,3.756,1.68,3.756,2.868,0,.384-.36.684-1.02.684a1.1,1.1,0,0,1-1.2-.888H3.864C3.936-.864,5.1.108,6.768.108,8.388.108,9.384-.756,9.384-1.9ZM10.764,0h1.68V-6.648h-1.68Zm.852-7.44a.992.992,0,0,0,1.032-.984.992.992,0,0,0-1.032-.984.985.985,0,0,0-1.032.984A.985.985,0,0,0,11.616-7.44Zm2.052,4.116A3.189,3.189,0,0,0,16.956.108a3.032,3.032,0,0,0,3.132-2.352H18.276a1.268,1.268,0,0,1-1.332.912c-.936,0-1.56-.7-1.56-1.992s.624-2,1.56-2a1.306,1.306,0,0,1,1.332.924h1.812a2.966,2.966,0,0,0-3.132-2.352A3.189,3.189,0,0,0,13.668-3.324ZM21.324,0H23V-2.832L25.26,0h2.184L24.492-3.312,27.42-6.648H25.236L23-3.828V-8.88h-1.68Z" transform="translate(53.091 23.637)" fill="#fff"/></g></g></g></svg>