<svg xmlns="http://www.w3.org/2000/svg" xmlns:xlink="http://www.w3.org/1999/xlink" width="437" height="360" viewBox="0 0 437 360"><defs><filter id="a" x="0" y="0" width="437" height="360" filterUnits="userSpaceOnUse"><feOffset dy="6" input="SourceAlpha"/><feGaussianBlur stdDeviation="21" result="b"/><feFlood flood-opacity="0.161"/><feComposite operator="in" in2="b"/><feComposite in="SourceGraphic"/></filter><filter id="c" x="54" y="248.928" width="329" height="54" filterUnits="userSpaceOnUse"><feOffset dy="3" input="SourceAlpha"/><feGaussianBlur stdDeviation="3" result="d"/><feFlood flood-opacity="0.161"/><feComposite operator="in" in2="d"/><feComposite in="SourceGraphic"/></filter></defs><g transform="translate(63.476 57.318)"><g transform="matrix(1, 0, 0, 1, -63.48, -57.32)" filter="url(#a)"><rect width="311" height="234" rx="20" transform="translate(63 57)" fill="#fff"/></g><g transform="translate(-30.116 79.292)"><g transform="translate(0 0)"><path d="M2.835,10.375V6.97h1.89c1.335,0,1.935.63,1.935,1.71,0,1.05-.6,1.695-1.935,1.695ZM8.415,8.68c0-1.7-1.215-3.105-3.69-3.105h-3.6V16h1.71V11.77h1.89C7.44,11.77,8.415,10.165,8.415,8.68ZM10.05,16h1.71V4.9H10.05Zm7.44-6.96a2.146,2.146,0,0,1,2.31,2.085H15.225A2.251,2.251,0,0,1,17.49,9.04Zm3.87,4.5H19.515a2,2,0,0,1-1.95,1.155,2.274,2.274,0,0,1-2.355-2.19h6.315a5.275,5.275,0,0,0,.06-.84A3.854,3.854,0,0,0,17.565,7.6a3.958,3.958,0,0,0-4.125,4.26,4.01,4.01,0,0,0,4.125,4.275A3.777,3.777,0,0,0,21.36,13.54Zm1.335-1.71a4,4,0,0,0,3.87,4.305,3.557,3.557,0,0,0,2.9-1.365V16h1.725V7.735H29.46v1.2A3.518,3.518,0,0,0,26.595,7.6,3.934,3.934,0,0,0,22.695,11.83Zm6.765.03a2.568,2.568,0,0,1-2.5,2.79,2.6,2.6,0,0,1-2.505-2.82,2.536,2.536,0,0,1,2.505-2.745A2.563,2.563,0,0,1,29.46,11.86ZM39.6,13.69c-.09-2.985-4.755-2.055-4.755-3.72,0-.555.48-.93,1.4-.93a1.367,1.367,0,0,1,1.545,1.215H39.5C39.405,8.6,38.175,7.6,36.3,7.6c-1.95,0-3.18,1.065-3.18,2.385,0,3.03,4.8,2.1,4.8,3.72,0,.57-.525.99-1.515.99a1.508,1.508,0,0,1-1.65-1.23h-1.77c.075,1.5,1.47,2.67,3.45,2.67C38.385,16.135,39.6,15.085,39.6,13.69Zm5.325-4.65a2.146,2.146,0,0,1,2.31,2.085H42.66A2.251,2.251,0,0,1,44.925,9.04Zm3.87,4.5H46.95A2,2,0,0,1,45,14.695a2.273,2.273,0,0,1-2.355-2.19H48.96a5.275,5.275,0,0,0,.06-.84A3.854,3.854,0,0,0,45,7.6a3.958,3.958,0,0,0-4.125,4.26A4.01,4.01,0,0,0,45,16.135,3.777,3.777,0,0,0,48.795,13.54Zm11.97.15c-.09-2.985-4.755-2.055-4.755-3.72,0-.555.48-.93,1.4-.93a1.367,1.367,0,0,1,1.545,1.215h1.71C60.57,8.6,59.34,7.6,57.465,7.6c-1.95,0-3.18,1.065-3.18,2.385,0,3.03,4.8,2.1,4.8,3.72,0,.57-.525.99-1.515.99a1.508,1.508,0,0,1-1.65-1.23H54.15c.075,1.5,1.47,2.67,3.45,2.67C59.55,16.135,60.765,15.085,60.765,13.69ZM62.61,16h1.71V11.38a2,2,0,0,1,2.085-2.3c1.245,0,2.07.78,2.07,2.3V16H70.17V11.125A3.187,3.187,0,0,0,66.885,7.6,3.276,3.276,0,0,0,64.32,8.695V4.9H62.61Zm9.165-4.17a4,4,0,0,0,3.87,4.305A3.557,3.557,0,0,0,78.54,14.77V16h1.725V7.735H78.54v1.2A3.518,3.518,0,0,0,75.675,7.6,3.934,3.934,0,0,0,71.775,11.83Zm6.765.03a2.568,2.568,0,0,1-2.5,2.79,2.6,2.6,0,0,1-2.505-2.82,2.536,2.536,0,0,1,2.505-2.745A2.563,2.563,0,0,1,78.54,11.86Zm5.685-.21c0-1.755.78-2.28,2.04-2.28H86.7V7.6a2.692,2.692,0,0,0-2.475,1.335v-1.2h-1.71V16h1.71Zm7.53-2.61a2.146,2.146,0,0,1,2.31,2.085H89.49A2.251,2.251,0,0,1,91.755,9.04Zm3.87,4.5H93.78a2,2,0,0,1-1.95,1.155,2.274,2.274,0,0,1-2.355-2.19H95.79a5.275,5.275,0,0,0,.06-.84A3.854,3.854,0,0,0,91.83,7.6a3.958,3.958,0,0,0-4.125,4.26,4.01,4.01,0,0,0,4.125,4.275A3.777,3.777,0,0,0,95.625,13.54Zm9.06.495-2.325-6.3h-1.9l3.255,8.13-1.68,4.02h1.77l5.07-12.15H107.1Zm13.35-2.175a4.215,4.215,0,1,0-8.43,0,4.03,4.03,0,0,0,4.14,4.275A4.14,4.14,0,0,0,118.035,11.86Zm-6.69,0a2.462,2.462,0,0,1,2.445-2.775,2.5,2.5,0,0,1,2.49,2.775,2.546,2.546,0,0,1-2.535,2.79C112.455,14.65,111.345,13.735,111.345,11.86Zm15.87-4.125h-1.71V12.34a2,2,0,0,1-2.085,2.3c-1.245,0-2.07-.78-2.07-2.3V7.735h-1.695V12.6a3.23,3.23,0,0,0,3.4,3.525,3.076,3.076,0,0,0,2.445-1.11V16h1.71Zm3.96,3.915c0-1.755.78-2.28,2.04-2.28h.435V7.6a2.692,2.692,0,0,0-2.475,1.335v-1.2h-1.71V16h1.71Zm14.115,2.04c-.09-2.985-4.755-2.055-4.755-3.72,0-.555.48-.93,1.395-.93a1.367,1.367,0,0,1,1.545,1.215h1.71C145.1,8.6,143.865,7.6,141.99,7.6c-1.95,0-3.18,1.065-3.18,2.385,0,3.03,4.8,2.1,4.8,3.72,0,.57-.525.99-1.515.99a1.508,1.508,0,0,1-1.65-1.23h-1.77c.075,1.5,1.47,2.67,3.45,2.67C144.075,16.135,145.29,15.085,145.29,13.69Zm9.33-5.955h-1.71V12.34a2,2,0,0,1-2.085,2.3c-1.245,0-2.07-.78-2.07-2.3V7.735H147.06V12.6a3.23,3.23,0,0,0,3.4,3.525,3.076,3.076,0,0,0,2.445-1.11V16h1.71Zm1.68,4.1a4,4,0,0,0,3.9,4.305,3.548,3.548,0,0,0,2.865-1.38v1.38a2.2,2.2,0,0,1-2.31,2.46,2.3,2.3,0,0,1-2.355-1.44h-1.695c.21,1.83,1.845,2.925,4.05,2.925a3.748,3.748,0,0,0,4.035-3.945v-8.4h-1.725v1.2A3.5,3.5,0,0,0,160.2,7.6,3.934,3.934,0,0,0,156.3,11.83Zm6.765.03a2.568,2.568,0,0,1-2.505,2.79,2.6,2.6,0,0,1-2.505-2.82,2.536,2.536,0,0,1,2.505-2.745A2.563,2.563,0,0,1,163.065,11.86Zm3.4-.03a4,4,0,0,0,3.9,4.305,3.548,3.548,0,0,0,2.865-1.38v1.38a2.2,2.2,0,0,1-2.31,2.46,2.3,2.3,0,0,1-2.355-1.44h-1.695c.21,1.83,1.845,2.925,4.05,2.925a3.748,3.748,0,0,0,4.035-3.945v-8.4h-1.725v1.2A3.5,3.5,0,0,0,170.37,7.6,3.934,3.934,0,0,0,166.47,11.83Zm6.765.03a2.568,2.568,0,0,1-2.505,2.79,2.6,2.6,0,0,1-2.505-2.82,2.536,2.536,0,0,1,2.505-2.745A2.563,2.563,0,0,1,173.235,11.86Zm7.455-2.82A2.146,2.146,0,0,1,183,11.125h-4.575A2.251,2.251,0,0,1,180.69,9.04Zm3.87,4.5h-1.845a2,2,0,0,1-1.95,1.155,2.274,2.274,0,0,1-2.355-2.19h6.315a5.275,5.275,0,0,0,.06-.84,3.854,3.854,0,0,0-4.02-4.065,3.958,3.958,0,0,0-4.125,4.26,4.01,4.01,0,0,0,4.125,4.275A3.777,3.777,0,0,0,184.56,13.54Zm8.07.15c-.09-2.985-4.755-2.055-4.755-3.72,0-.555.48-.93,1.395-.93a1.367,1.367,0,0,1,1.545,1.215h1.71c-.09-1.65-1.32-2.655-3.195-2.655-1.95,0-3.18,1.065-3.18,2.385,0,3.03,4.8,2.1,4.8,3.72,0,.57-.525.99-1.515.99a1.508,1.508,0,0,1-1.65-1.23h-1.77c.075,1.5,1.47,2.67,3.45,2.67C191.415,16.135,192.63,15.085,192.63,13.69Zm2.115.015c0,1.68.915,2.3,2.385,2.3h1.35V14.575h-1.05c-.72,0-.96-.255-.96-.87V9.13h2.01v-1.4h-2.01V5.68h-1.725V7.735h-.975v1.4h.975Zm5.31,2.3h1.71V7.735h-1.71Zm.87-9.36a1.095,1.095,0,1,0-1.1-1.095A1.079,1.079,0,0,0,200.925,6.64Zm10.965,5.22a4.215,4.215,0,1,0-8.43,0,4.03,4.03,0,0,0,4.14,4.275A4.14,4.14,0,0,0,211.89,11.86Zm-6.69,0a2.462,2.462,0,0,1,2.445-2.775,2.5,2.5,0,0,1,2.49,2.775,2.546,2.546,0,0,1-2.535,2.79C206.31,14.65,205.2,13.735,205.2,11.86ZM219.45,16h1.695V11.125a3.219,3.219,0,0,0-3.39-3.525,3.18,3.18,0,0,0-2.46,1.08V7.735h-1.71V16h1.71V11.38a2,2,0,0,1,2.085-2.3c1.245,0,2.07.78,2.07,2.3Zm10.035-2.31c-.09-2.985-4.755-2.055-4.755-3.72,0-.555.48-.93,1.395-.93a1.367,1.367,0,0,1,1.545,1.215h1.71c-.09-1.65-1.32-2.655-3.195-2.655-1.95,0-3.18,1.065-3.18,2.385,0,3.03,4.8,2.1,4.8,3.72,0,.57-.525.99-1.515.99a1.508,1.508,0,0,1-1.65-1.23h-1.77c.075,1.5,1.47,2.67,3.45,2.67C228.27,16.135,229.485,15.085,229.485,13.69ZM1.395,32.705C1.395,34.385,2.31,35,3.78,35H5.13V33.575H4.08c-.72,0-.96-.255-.96-.87V28.13H5.13v-1.4H3.12V24.68H1.395v2.055H.42v1.4h.975ZM14.58,30.86a4.076,4.076,0,0,0-4.215-4.26A4.076,4.076,0,0,0,6.15,30.86a4.03,4.03,0,0,0,4.14,4.275A4.14,4.14,0,0,0,14.58,30.86Zm-6.69,0a2.462,2.462,0,0,1,2.445-2.775,2.5,2.5,0,0,1,2.49,2.775,2.546,2.546,0,0,1-2.535,2.79C9,33.65,7.89,32.735,7.89,30.86ZM20.175,35h1.71V26.735h-1.71Zm.87-9.36a1.095,1.095,0,1,0-1.1-1.095A1.079,1.079,0,0,0,21.045,25.64ZM35.85,35h1.695V30.125a3.388,3.388,0,0,0-6.285-1.89A3.188,3.188,0,0,0,28.29,26.6a3.148,3.148,0,0,0-2.445,1.08v-.945h-1.71V35h1.71V30.38a2,2,0,0,1,2.085-2.3c1.245,0,2.07.78,2.07,2.3V35h1.695V30.38a2,2,0,0,1,2.085-2.3c1.245,0,2.07.78,2.07,2.3Zm5.58-7.05V26.735H39.72V38.93h1.71V33.8a3.737,3.737,0,0,0,2.88,1.335,3.989,3.989,0,0,0,3.885-4.3A3.923,3.923,0,0,0,44.31,26.6,3.606,3.606,0,0,0,41.43,27.95Zm5.025,2.88a2.606,2.606,0,0,1-2.52,2.82,2.576,2.576,0,0,1-2.505-2.79,2.572,2.572,0,0,1,2.505-2.775A2.538,2.538,0,0,1,46.455,30.83Zm5.145-.18c0-1.755.78-2.28,2.04-2.28h.435V26.6A2.692,2.692,0,0,0,51.6,27.935v-1.2H49.89V35H51.6Zm11.925.21a4.215,4.215,0,1,0-8.43,0,4.03,4.03,0,0,0,4.14,4.275A4.14,4.14,0,0,0,63.525,30.86Zm-6.69,0a2.462,2.462,0,0,1,2.445-2.775,2.5,2.5,0,0,1,2.49,2.775,2.546,2.546,0,0,1-2.535,2.79C57.945,33.65,56.835,32.735,56.835,30.86Zm7.41-4.125L67.38,35h2.04l3.15-8.265H70.755l-2.34,6.735-2.34-6.735Zm13.1,1.305a2.146,2.146,0,0,1,2.31,2.085H75.075A2.251,2.251,0,0,1,77.34,28.04Zm3.87,4.5H79.365a2,2,0,0,1-1.95,1.155,2.274,2.274,0,0,1-2.355-2.19h6.315a5.275,5.275,0,0,0,.06-.84,3.854,3.854,0,0,0-4.02-4.065,3.958,3.958,0,0,0-4.125,4.26,4.01,4.01,0,0,0,4.125,4.275A3.777,3.777,0,0,0,81.21,32.54Zm6.075.165c0,1.68.915,2.295,2.385,2.295h1.35V33.575H89.97c-.72,0-.96-.255-.96-.87V28.13h2.01v-1.4H89.01V24.68H87.285v2.055H86.31v1.4h.975ZM92.6,35h1.71V30.38a2,2,0,0,1,2.085-2.3c1.245,0,2.07.78,2.07,2.3V35h1.695V30.125A3.187,3.187,0,0,0,96.87,26.6a3.276,3.276,0,0,0-2.565,1.095V23.9H92.6Zm13.215-6.96a2.146,2.146,0,0,1,2.31,2.085h-4.575A2.251,2.251,0,0,1,105.81,28.04Zm3.87,4.5h-1.845a2,2,0,0,1-1.95,1.155,2.274,2.274,0,0,1-2.355-2.19h6.315a5.275,5.275,0,0,0,.06-.84,3.854,3.854,0,0,0-4.02-4.065,3.958,3.958,0,0,0-4.125,4.26,4.01,4.01,0,0,0,4.125,4.275A3.777,3.777,0,0,0,109.68,32.54ZM117.09,35h1.8l1.665-6.1L122.22,35h1.8l2.565-8.265H124.9l-1.71,6.615-1.68-6.615H119.73l-1.755,6.645-1.725-6.645h-1.74Zm18.645-4.14a4.215,4.215,0,1,0-8.43,0,4.03,4.03,0,0,0,4.14,4.275A4.14,4.14,0,0,0,135.735,30.86Zm-6.69,0a2.462,2.462,0,0,1,2.445-2.775,2.5,2.5,0,0,1,2.49,2.775,2.546,2.546,0,0,1-2.535,2.79C130.155,33.65,129.045,32.735,129.045,30.86Zm10.1-.21c0-1.755.78-2.28,2.04-2.28h.435V26.6a2.692,2.692,0,0,0-2.475,1.335v-1.2h-1.71V35h1.71ZM143.19,35h1.71V31.445L147.96,35h2.31l-3.81-4.125,3.81-4.14H147.9l-3,3.615V23.9h-1.71Zm12.42,0h1.725V28.13h1.53v-1.4h-1.53V26.15c0-.945.36-1.305,1.41-1.305V23.42c-2.16,0-3.135.825-3.135,2.73v.585h-.975v1.4h.975Zm6.48-4.35c0-1.755.78-2.28,2.04-2.28h.435V26.6a2.692,2.692,0,0,0-2.475,1.335v-1.2h-1.71V35h1.71Zm11.925.21a4.215,4.215,0,1,0-8.43,0,4.03,4.03,0,0,0,4.14,4.275A4.14,4.14,0,0,0,174.015,30.86Zm-6.69,0a2.462,2.462,0,0,1,2.445-2.775,2.5,2.5,0,0,1,2.49,2.775,2.546,2.546,0,0,1-2.535,2.79C168.435,33.65,167.325,32.735,167.325,30.86Zm20.1,4.14h1.7V30.125a3.388,3.388,0,0,0-6.285-1.89,3.188,3.188,0,0,0-2.97-1.635,3.148,3.148,0,0,0-2.445,1.08v-.945h-1.71V35h1.71V30.38a2,2,0,0,1,2.085-2.3c1.245,0,2.07.78,2.07,2.3V35h1.695V30.38a2,2,0,0,1,2.085-2.3c1.245,0,2.07.78,2.07,2.3ZM1.125,54h1.71V49.38a2,2,0,0,1,2.085-2.3c1.245,0,2.07.78,2.07,2.3V54H8.685V49.125A3.187,3.187,0,0,0,5.4,45.6a3.276,3.276,0,0,0-2.565,1.1V42.9H1.125Zm17.61-4.14A4.076,4.076,0,0,0,14.52,45.6,4.076,4.076,0,0,0,10.3,49.86a4.03,4.03,0,0,0,4.14,4.275A4.14,4.14,0,0,0,18.735,49.86Zm-6.69,0a2.462,2.462,0,0,1,2.445-2.775,2.5,2.5,0,0,1,2.49,2.775,2.546,2.546,0,0,1-2.535,2.79C13.155,52.65,12.045,51.735,12.045,49.86ZM32.145,54H33.84V49.125a3.388,3.388,0,0,0-6.285-1.89,3.188,3.188,0,0,0-2.97-1.635,3.148,3.148,0,0,0-2.445,1.08v-.945H20.43V54h1.71V49.38a2,2,0,0,1,2.085-2.3c1.245,0,2.07.78,2.07,2.3V54H27.99V49.38a2,2,0,0,1,2.085-2.3c1.245,0,2.07.78,2.07,2.3Zm7.35-6.96a2.146,2.146,0,0,1,2.31,2.085H37.23A2.251,2.251,0,0,1,39.495,47.04Zm3.87,4.5H41.52a2,2,0,0,1-1.95,1.155,2.274,2.274,0,0,1-2.355-2.19H43.53a5.275,5.275,0,0,0,.06-.84A3.854,3.854,0,0,0,39.57,45.6a3.958,3.958,0,0,0-4.125,4.26,4.01,4.01,0,0,0,4.125,4.275A3.777,3.777,0,0,0,43.365,51.54Zm9.285-4.5a2.146,2.146,0,0,1,2.31,2.085H50.385A2.251,2.251,0,0,1,52.65,47.04Zm3.87,4.5H54.675a2,2,0,0,1-1.95,1.155,2.274,2.274,0,0,1-2.355-2.19h6.315a5.275,5.275,0,0,0,.06-.84,3.854,3.854,0,0,0-4.02-4.065A3.958,3.958,0,0,0,48.6,49.86a4.01,4.01,0,0,0,4.125,4.275A3.777,3.777,0,0,0,56.52,51.54ZM62.7,54h1.935l-2.67-4.185,2.67-4.08H62.85L61.17,48.54l-1.785-2.805H57.45l2.67,4.2L57.45,54h1.785l1.68-2.805Zm4.92-7.05V45.735H65.91V57.93h1.71V52.8a3.737,3.737,0,0,0,2.88,1.335,3.989,3.989,0,0,0,3.885-4.3A3.923,3.923,0,0,0,70.5,45.6,3.606,3.606,0,0,0,67.62,46.95Zm5.025,2.88a2.606,2.606,0,0,1-2.52,2.82,2.8,2.8,0,0,1,0-5.565A2.538,2.538,0,0,1,72.645,49.83Zm6.915-2.79a2.146,2.146,0,0,1,2.31,2.085H77.295A2.251,2.251,0,0,1,79.56,47.04Zm3.87,4.5H81.585a2,2,0,0,1-1.95,1.155,2.274,2.274,0,0,1-2.355-2.19H83.6a5.275,5.275,0,0,0,.06-.84,3.854,3.854,0,0,0-4.02-4.065,3.958,3.958,0,0,0-4.125,4.26,4.01,4.01,0,0,0,4.125,4.275A3.777,3.777,0,0,0,83.43,51.54Zm3.615-1.89c0-1.755.78-2.28,2.04-2.28h.435V45.6a2.692,2.692,0,0,0-2.475,1.335v-1.2h-1.71V54h1.71ZM91.1,54h1.71V45.735H91.1Zm.87-9.36a1.095,1.095,0,1,0-1.1-1.1A1.079,1.079,0,0,0,91.965,44.64Zm6.57,2.4a2.146,2.146,0,0,1,2.31,2.085H96.27A2.251,2.251,0,0,1,98.535,47.04Zm3.87,4.5H100.56a2,2,0,0,1-1.95,1.155,2.274,2.274,0,0,1-2.355-2.19h6.315a5.275,5.275,0,0,0,.06-.84A3.854,3.854,0,0,0,98.61,45.6a3.958,3.958,0,0,0-4.125,4.26,4.01,4.01,0,0,0,4.125,4.275A3.777,3.777,0,0,0,102.4,51.54Zm7.77,2.46h1.695V49.125a3.219,3.219,0,0,0-3.39-3.525,3.18,3.18,0,0,0-2.46,1.08v-.945h-1.71V54h1.71V49.38a2,2,0,0,1,2.085-2.3c1.245,0,2.07.78,2.07,2.3Zm3.3-4.14a3.953,3.953,0,0,0,4.05,4.275,3.712,3.712,0,0,0,3.81-2.745H119.49a1.888,1.888,0,0,1-1.965,1.305c-1.38,0-2.3-1.02-2.3-2.835s.915-2.82,2.3-2.82a1.931,1.931,0,0,1,1.965,1.305h1.845a3.6,3.6,0,0,0-3.81-2.745A3.948,3.948,0,0,0,113.475,49.86Zm13.05-2.82a2.146,2.146,0,0,1,2.31,2.085H124.26A2.251,2.251,0,0,1,126.525,47.04Zm3.87,4.5H128.55a2,2,0,0,1-1.95,1.155,2.274,2.274,0,0,1-2.355-2.19h6.315a5.275,5.275,0,0,0,.06-.84A3.854,3.854,0,0,0,126.6,45.6a3.958,3.958,0,0,0-4.125,4.26,4.01,4.01,0,0,0,4.125,4.275A3.777,3.777,0,0,0,130.4,51.54Zm3.675,1.47a1.088,1.088,0,1,0-1.08,1.1A1.079,1.079,0,0,0,134.07,53.01Z" transform="translate(96.64 -61.61)" fill="#0f72ee"/><g transform="translate(41.358 -64.395)"><circle cx="19.289" cy="19.289" r="19.289" transform="translate(4.283 4.415)" fill="#0f72ee"/><g transform="translate(12.897 16.052)"><path d="M401.848,349.391a4.11,4.11,0,1,1,4.092-4.111v.871h-6.283a2.351,2.351,0,0,0,3.688.953l.159-.133,1.335,1.127-.2.192A4.067,4.067,0,0,1,401.848,349.391Zm2.19-4.985a2.351,2.351,0,0,0-4.381,0Z" transform="translate(-395.276 -338.674)" fill="#fff"/><path d="M702.263,349.245a4.116,4.116,0,1,1,4.091-4.112V346h-6.281a2.351,2.351,0,0,0,3.688.953l.16-.133,1.335,1.127-.206.193A4.064,4.064,0,0,1,702.263,349.245Zm2.19-4.985a2.352,2.352,0,0,0-4.38,0Z" transform="translate(-686.944 -338.528)" fill="#fff"/><path d="M313.432,271.768a.994.994,0,0,1-.992-1v-8.325a6.6,6.6,0,0,1,6.571-6.6h8.749a6.6,6.6,0,0,1,0,13.208h-8.571a.493.493,0,0,0-.222.052l-5.09,2.555a.98.98,0,0,1-.446.11Zm5.579-14.181a4.853,4.853,0,0,0-4.836,4.86v7.114l4.013-2.017a2.232,2.232,0,0,1,1-.237h8.571a4.86,4.86,0,0,0,0-9.72Z" transform="translate(-312.44 -255.842)" fill="#fff"/></g></g></g></g><rect width="278" height="86" rx="7" transform="translate(18.525 92.609)" fill="#0f72ee" opacity="0.1"/><path d="M2.592,13.012,4.128,13l1.86-6.312L7.74,13H9.288L11.76,4.66H10.3l-1.74,6.756L6.816,4.66H5.28L3.408,11.452,1.68,4.66H.228ZM14.256,9.52c0-1.4.624-1.824,1.632-1.824h.348V6.28a2.154,2.154,0,0,0-1.98,1.068v-.96H12.888V13h1.368ZM17.5,13h1.368V6.388H17.5Zm.7-7.488a.876.876,0,1,0-.876-.876A.863.863,0,0,0,18.192,5.512Zm2.688,5.652c0,1.344.732,1.836,1.908,1.836h1.08V11.86h-.84c-.576,0-.768-.2-.768-.7V7.5h1.608V6.388H22.26V4.744H20.88V6.388H20.1V7.5h.78Zm7.032-3.732A1.717,1.717,0,0,1,29.76,9.1H26.1A1.8,1.8,0,0,1,27.912,7.432Zm3.1,3.6H29.532a1.6,1.6,0,0,1-1.56.924A1.819,1.819,0,0,1,26.088,10.2H31.14a4.22,4.22,0,0,0,.048-.672A3.084,3.084,0,0,0,27.972,6.28a3.166,3.166,0,0,0-3.3,3.408,3.208,3.208,0,0,0,3.3,3.42A3.021,3.021,0,0,0,31.008,11.032Zm7.248.4L36.4,6.388H34.872l2.6,6.5-1.344,3.216h1.416L41.6,6.388H40.188Zm10.68-1.74a3.372,3.372,0,1,0-6.744,0,3.224,3.224,0,0,0,3.312,3.42A3.312,3.312,0,0,0,48.936,9.688Zm-5.352,0a1.97,1.97,0,0,1,1.956-2.22,2,2,0,0,1,1.992,2.22A2.037,2.037,0,0,1,45.5,11.92,1.956,1.956,0,0,1,43.584,9.688Zm12.7-3.3H54.912v3.684a1.6,1.6,0,0,1-1.668,1.836c-1,0-1.656-.624-1.656-1.836V6.388H50.232v3.888a2.584,2.584,0,0,0,2.724,2.82,2.461,2.461,0,0,0,1.956-.888V13H56.28ZM59.448,9.52c0-1.4.624-1.824,1.632-1.824h.348V6.28a2.154,2.154,0,0,0-1.98,1.068v-.96H58.08V13h1.368ZM70.74,11.152c-.072-2.388-3.8-1.644-3.8-2.976,0-.444.384-.744,1.116-.744a1.094,1.094,0,0,1,1.236.972h1.368A2.267,2.267,0,0,0,68.1,6.28c-1.56,0-2.544.852-2.544,1.908,0,2.424,3.84,1.68,3.84,2.976,0,.456-.42.792-1.212.792a1.206,1.206,0,0,1-1.32-.984H65.448a2.5,2.5,0,0,0,2.76,2.136C69.768,13.108,70.74,12.268,70.74,11.152ZM78.2,6.388H76.836v3.684a1.6,1.6,0,0,1-1.668,1.836c-1,0-1.656-.624-1.656-1.836V6.388H72.156v3.888A2.584,2.584,0,0,0,74.88,13.1a2.461,2.461,0,0,0,1.956-.888V13H78.2Zm1.344,3.276a3.2,3.2,0,0,0,3.12,3.444A2.838,2.838,0,0,0,84.96,12v1.1a1.761,1.761,0,0,1-1.848,1.968,1.843,1.843,0,0,1-1.884-1.152H79.872c.168,1.464,1.476,2.34,3.24,2.34a3,3,0,0,0,3.228-3.156V6.388H84.96v.96A2.8,2.8,0,0,0,82.668,6.28,3.147,3.147,0,0,0,79.548,9.664Zm5.412.024a2.054,2.054,0,0,1-2,2.232,2.083,2.083,0,0,1-2-2.256,2.029,2.029,0,0,1,2-2.2A2.05,2.05,0,0,1,84.96,9.688Zm2.724-.024a3.2,3.2,0,0,0,3.12,3.444A2.838,2.838,0,0,0,93.1,12v1.1a1.761,1.761,0,0,1-1.848,1.968,1.843,1.843,0,0,1-1.884-1.152H88.008c.168,1.464,1.476,2.34,3.24,2.34a3,3,0,0,0,3.228-3.156V6.388H93.1v.96A2.8,2.8,0,0,0,90.8,6.28,3.147,3.147,0,0,0,87.684,9.664Zm5.412.024a2.054,2.054,0,0,1-2,2.232,2.083,2.083,0,0,1-2-2.256,2.029,2.029,0,0,1,2-2.2A2.05,2.05,0,0,1,93.1,9.688ZM99.06,7.432A1.717,1.717,0,0,1,100.908,9.1h-3.66A1.8,1.8,0,0,1,99.06,7.432Zm3.1,3.6H100.68a1.6,1.6,0,0,1-1.56.924A1.819,1.819,0,0,1,97.236,10.2h5.052a4.221,4.221,0,0,0,.048-.672A3.084,3.084,0,0,0,99.12,6.28a3.166,3.166,0,0,0-3.3,3.408,3.208,3.208,0,0,0,3.3,3.42A3.021,3.021,0,0,0,102.156,11.032Zm6.456.12c-.072-2.388-3.8-1.644-3.8-2.976,0-.444.384-.744,1.116-.744a1.094,1.094,0,0,1,1.236.972h1.368a2.267,2.267,0,0,0-2.556-2.124c-1.56,0-2.544.852-2.544,1.908,0,2.424,3.84,1.68,3.84,2.976,0,.456-.42.792-1.212.792a1.206,1.206,0,0,1-1.32-.984H103.32a2.5,2.5,0,0,0,2.76,2.136C107.64,13.108,108.612,12.268,108.612,11.152Zm1.692.012c0,1.344.732,1.836,1.908,1.836h1.08V11.86h-.84c-.576,0-.768-.2-.768-.7V7.5h1.608V6.388h-1.608V4.744H110.3V6.388h-.78V7.5h.78ZM114.552,13h1.368V6.388h-1.368Zm.7-7.488a.876.876,0,1,0-.876-.876A.863.863,0,0,0,115.248,5.512Zm8.772,4.176a3.372,3.372,0,1,0-6.744,0,3.224,3.224,0,0,0,3.312,3.42A3.312,3.312,0,0,0,124.02,9.688Zm-5.352,0a1.97,1.97,0,0,1,1.956-2.22,2,2,0,0,1,1.992,2.22,2.037,2.037,0,0,1-2.028,2.232A1.956,1.956,0,0,1,118.668,9.688ZM130.068,13h1.356V9.1a2.575,2.575,0,0,0-2.712-2.82,2.544,2.544,0,0,0-1.968.864V6.388h-1.368V13h1.368V9.3a1.6,1.6,0,0,1,1.668-1.836c1,0,1.656.624,1.656,1.836Zm8.028-1.848c-.072-2.388-3.8-1.644-3.8-2.976,0-.444.384-.744,1.116-.744a1.094,1.094,0,0,1,1.236.972h1.368a2.267,2.267,0,0,0-2.556-2.124c-1.56,0-2.544.852-2.544,1.908,0,2.424,3.84,1.68,3.84,2.976,0,.456-.42.792-1.212.792a1.206,1.206,0,0,1-1.32-.984H132.8a2.5,2.5,0,0,0,2.76,2.136C137.124,13.108,138.1,12.268,138.1,11.152Zm2.892,1.056a.87.87,0,1,0-.864.876A.863.863,0,0,0,140.988,12.208Zm2.892,0a.87.87,0,1,0-.864.876A.863.863,0,0,0,143.88,12.208Z" transform="translate(37.525 104.682)" fill="#0f72ee"/><g transform="matrix(1, 0, 0, 1, -63.48, -57.32)" filter="url(#c)"><path d="M0,0H311a0,0,0,0,1,0,0V21a15,15,0,0,1-15,15H16A16,16,0,0,1,0,20V0A0,0,0,0,1,0,0Z" transform="translate(63 254.93)" fill="#0f72ee"/></g><path d="M6.528-2.364c0-3.048-4.416-1.872-4.416-3.756,0-.8.612-1.188,1.4-1.164a1.3,1.3,0,0,1,1.4,1.1H6.432A2.543,2.543,0,0,0,3.588-8.448c-1.7,0-2.868.912-2.868,2.376C.72-3,5.148-4.308,5.148-2.292c0,.708-.54,1.224-1.5,1.224A1.338,1.338,0,0,1,2.16-2.3H.7C.7-.828,1.98.084,3.648.084A2.591,2.591,0,0,0,6.528-2.364Zm7.608-4.248H12.768v3.684A1.6,1.6,0,0,1,11.1-1.092c-1,0-1.656-.624-1.656-1.836V-6.612H8.088v3.888A2.584,2.584,0,0,0,10.812.1a2.461,2.461,0,0,0,1.956-.888V0h1.368Zm3.168.984V-8.88H15.936V0H17.3V-.96a2.81,2.81,0,0,0,2.3,1.068,3.191,3.191,0,0,0,3.108-3.444A3.131,3.131,0,0,0,19.608-6.72,2.827,2.827,0,0,0,17.3-5.628Zm4.02,2.292A2.085,2.085,0,0,1,19.308-1.08a2.061,2.061,0,0,1-2-2.232,2.057,2.057,0,0,1,2-2.22A2.031,2.031,0,0,1,21.324-3.336ZM33.444,0H34.8V-3.9a2.584,2.584,0,0,0-2.724-2.82,2.589,2.589,0,0,0-2.3,1.308A2.55,2.55,0,0,0,27.4-6.72a2.518,2.518,0,0,0-1.956.864v-.756H24.072V0H25.44V-3.7a1.6,1.6,0,0,1,1.668-1.836c1,0,1.656.624,1.656,1.836V0H30.12V-3.7a1.6,1.6,0,0,1,1.668-1.836c1,0,1.656.624,1.656,1.836Zm3.1,0h1.368V-6.612H36.54Zm.7-7.488a.863.863,0,0,0,.864-.876.863.863,0,0,0-.864-.876.866.866,0,0,0-.876.876A.866.866,0,0,0,37.236-7.488Zm2.688,5.652C39.924-.492,40.656,0,41.832,0h1.08V-1.14h-.84c-.576,0-.768-.2-.768-.7V-5.5h1.608V-6.612H41.3V-8.256h-1.38v1.644h-.78V-5.5h.78Z" transform="translate(144.525 220.609)" fill="#fff"/></g></svg>